<svg width="24" height="24" viewBox="0 0 24 24" fill="none" xmlns="http://www.w3.org/2000/svg">
<path d="M19.5312 15.2812L16.0312 13.7812C15.9375 13.75 15.8125 13.7188 15.7188 13.7188C15.5312 13.7188 15.2812 13.8438 15.1562 14L13.5938 15.9062C11.5312 14.9062 9.03125 12.4375 8.0625 10.375L9.96875 8.8125C10.125 8.6875 10.25 8.4375 10.25 8.21875C10.25 8.15625 10.2188 8.03125 10.1875 7.9375L8.6875 4.4375C8.5625 4.1875 8.25 4 7.96875 4C7.9375 4 7.875 4 7.8125 4L4.5625 4.75C4.25 4.8125 4 5.15625 4 5.46875C4 13.5 10.4688 19.9688 18.5 19.9688C18.8125 19.9688 19.1562 19.7188 19.2188 19.4062L19.9688 16.1562C19.9688 16.0938 19.9688 16.0312 19.9688 16C19.9688 15.7188 19.7812 15.4062 19.5312 15.2812Z" fill="black"/>
</svg>
