<svg width="100" height="100" viewBox="0 0 100 100" fill="none" xmlns="http://www.w3.org/2000/svg">
<path d="M27.3439 36.2279C28.4698 36.2279 29.3974 36.3072 30.1269 36.4658L29.5798 41.6749C28.7869 41.4846 27.9623 41.3895 27.106 41.3895C24.8702 41.3895 23.0545 42.1189 21.6591 43.5778C20.2795 45.0367 19.5897 46.9316 19.5897 49.2626V63.0109H14V36.7037H18.3766L19.114 41.3419H19.3994C20.2716 39.7721 21.4054 38.5273 22.8008 37.6075C24.2121 36.6878 25.7265 36.2279 27.3439 36.2279Z" fill="white"/>
<path d="M57.2428 36.7037V39.7721L52.7473 40.6046C53.1596 41.1596 53.5005 41.8414 53.7701 42.6501C54.0396 43.4589 54.1744 44.3152 54.1744 45.219C54.1744 47.9306 53.2389 50.0634 51.3677 51.6174C49.4965 53.1715 46.9197 53.9485 43.6373 53.9485C42.7968 53.9485 42.0357 53.885 41.3538 53.7582C40.1487 54.5035 39.5461 55.3756 39.5461 56.3746C39.5461 56.9772 39.8236 57.4291 40.3786 57.7304C40.9495 58.0317 41.9881 58.1824 43.4945 58.1824H48.0852C50.9871 58.1824 53.1913 58.8008 54.6977 60.0377C56.2042 61.2745 56.9574 63.0585 56.9574 65.3895C56.9574 68.3707 55.7284 70.67 53.2706 72.2874C50.8127 73.9049 47.2607 74.7136 42.6145 74.7136C39.0307 74.7136 36.2953 74.0793 34.4083 72.8107C32.5213 71.5421 31.5778 69.7344 31.5778 67.3875C31.5778 65.7701 32.0852 64.4063 33.1001 63.2963C34.1308 62.2022 35.5659 61.441 37.4054 61.0129C36.6601 60.6957 36.0416 60.1883 35.55 59.4906C35.0743 58.777 34.8365 58.0317 34.8365 57.2547C34.8365 56.2716 35.114 55.439 35.669 54.7572C36.224 54.0753 37.0486 53.4014 38.1427 52.7354C36.779 52.1487 35.669 51.1972 34.8127 49.8811C33.9722 48.5491 33.552 46.995 33.552 45.219C33.552 42.3647 34.448 40.1526 36.2398 38.5828C38.0476 37.0129 40.6165 36.2279 43.9465 36.2279C44.6918 36.2279 45.4688 36.2834 46.2775 36.3944C47.1021 36.4896 47.7205 36.5927 48.1328 36.7037H57.2428ZM36.5728 67.1021C36.5728 68.3072 37.112 69.2349 38.1903 69.885C39.2844 70.5352 40.8147 70.8603 42.781 70.8603C45.8256 70.8603 48.0932 70.4242 49.5837 69.552C51.0743 68.6799 51.8196 67.5223 51.8196 66.0793C51.8196 64.9376 51.4073 64.1209 50.5828 63.6293C49.774 63.1536 48.2597 62.9158 46.0396 62.9158H41.8057C40.2042 62.9158 38.9277 63.2884 37.9762 64.0337C37.0406 64.7948 36.5728 65.8176 36.5728 67.1021ZM38.9752 45.219C38.9752 46.8682 39.3954 48.1368 40.2359 49.0248C41.0922 49.9128 42.3132 50.3568 43.8989 50.3568C47.1338 50.3568 48.7512 48.6283 48.7512 45.1715C48.7512 43.4589 48.3469 42.1427 47.5382 41.223C46.7453 40.2874 45.5322 39.8196 43.8989 39.8196C42.2815 39.8196 41.0525 40.2795 40.2121 41.1992C39.3875 42.1189 38.9752 43.4589 38.9752 45.219Z" fill="white"/>
<path d="M75.5818 36.2279C78.8642 36.2279 81.4172 37.4172 83.2408 39.7958C85.0803 42.1744 86 45.5124 86 49.8097C86 54.1229 85.0723 57.4846 83.217 59.8949C81.3617 62.2894 78.7849 63.4866 75.4866 63.4866C72.1566 63.4866 69.5719 62.2894 67.7324 59.8949H67.3518L66.329 63.0109H62.1427V26H67.7324V34.8008C67.7324 35.4509 67.7007 36.4182 67.6373 37.7027C67.5738 38.9871 67.5263 39.8038 67.4945 40.1526H67.7324C69.5084 37.5362 72.1249 36.2279 75.5818 36.2279ZM74.1308 40.7948C71.8791 40.7948 70.2537 41.4609 69.2547 42.7929C68.2716 44.109 67.7641 46.3211 67.7324 49.4291V49.8097C67.7324 53.0129 68.2398 55.336 69.2547 56.779C70.2696 58.2061 71.9267 58.9197 74.226 58.9197C76.2081 58.9197 77.7066 58.1348 78.7215 56.5649C79.7522 54.995 80.2676 52.7275 80.2676 49.7621C80.2676 43.7839 78.222 40.7948 74.1308 40.7948Z" fill="white"/>
</svg>
