<svg width="120" height="120" viewBox="0 0 120 120" fill="none" xmlns="http://www.w3.org/2000/svg">
<rect width="120" height="120" rx="4" fill="#333333"/>
<path d="M96 60C96 55.3594 92.3438 51.5625 87.7031 51.1406C84.75 42.2812 77.7188 35.25 68.8594 32.2969C68.4375 27.6562 64.6406 24 60 24C55.2188 24 51.4219 27.6562 51 32.2969C42.1406 35.25 35.1094 42.2812 32.1562 51.1406C27.5156 51.5625 24 55.3594 24 60C24 64.7812 27.5156 68.5781 32.1562 69C35.1094 77.8594 42.1406 84.8906 51 87.8438C51.4219 92.4844 55.2188 96 60 96C64.6406 96 68.4375 92.4844 68.8594 87.8438C77.7188 84.8906 84.75 77.8594 87.7031 69C92.3438 68.5781 96 64.7812 96 60ZM60 28.5C62.3906 28.5 64.5 30.6094 64.5 33C64.5 35.5312 62.3906 37.5 60 37.5C57.4688 37.5 55.5 35.5312 55.5 33C55.5 30.6094 57.4688 28.5 60 28.5ZM28.5 60C28.5 57.6094 30.4688 55.5 33 55.5C35.3906 55.5 37.5 57.6094 37.5 60C37.5 62.5312 35.3906 64.5 33 64.5C30.4688 64.5 28.5 62.5312 28.5 60ZM60 91.5C57.4688 91.5 55.5 89.5312 55.5 87C55.5 84.6094 57.4688 82.5 60 82.5C62.3906 82.5 64.5 84.6094 64.5 87C64.5 89.5312 62.3906 91.5 60 91.5ZM68.1562 83.3438C66.75 80.25 63.5156 78 60 78C56.3438 78 53.1094 80.25 51.7031 83.3438C44.6719 80.8125 39.1875 75.3281 36.6562 68.2969C39.75 66.8906 42 63.6562 42 60C42 56.4844 39.75 53.25 36.6562 51.8438C39.1875 44.8125 44.6719 39.3281 51.7031 36.7969C53.1094 39.8906 56.3438 42 60 42C63.5156 42 66.75 39.8906 68.1562 36.7969C75.1875 39.3281 80.6719 44.8125 83.2031 51.8438C80.1094 53.25 78 56.4844 78 60C78 63.6562 80.1094 66.8906 83.2031 68.2969C80.6719 75.3281 75.1875 80.8125 68.1562 83.3438ZM87 64.5C84.4688 64.5 82.5 62.5312 82.5 60C82.5 57.6094 84.4688 55.5 87 55.5C89.3906 55.5 91.5 57.6094 91.5 60C91.5 62.5312 89.3906 64.5 87 64.5Z" fill="white"/>
</svg>
