<svg width="100" height="100" viewBox="0 0 100 100" fill="none" xmlns="http://www.w3.org/2000/svg">
<path d="M86 50C86 45.3594 82.3438 41.5625 77.7031 41.1406C74.75 32.2812 67.7188 25.25 58.8594 22.2969C58.4375 17.6562 54.6406 14 50 14C45.2188 14 41.4219 17.6562 41 22.2969C32.1406 25.25 25.1094 32.2812 22.1562 41.1406C17.5156 41.5625 14 45.3594 14 50C14 54.7812 17.5156 58.5781 22.1562 59C25.1094 67.8594 32.1406 74.8906 41 77.8438C41.4219 82.4844 45.2188 86 50 86C54.6406 86 58.4375 82.4844 58.8594 77.8438C67.7188 74.8906 74.75 67.8594 77.7031 59C82.3438 58.5781 86 54.7812 86 50ZM50 18.5C52.3906 18.5 54.5 20.6094 54.5 23C54.5 25.5312 52.3906 27.5 50 27.5C47.4688 27.5 45.5 25.5312 45.5 23C45.5 20.6094 47.4688 18.5 50 18.5ZM18.5 50C18.5 47.6094 20.4688 45.5 23 45.5C25.3906 45.5 27.5 47.6094 27.5 50C27.5 52.5312 25.3906 54.5 23 54.5C20.4688 54.5 18.5 52.5312 18.5 50ZM50 81.5C47.4688 81.5 45.5 79.5312 45.5 77C45.5 74.6094 47.4688 72.5 50 72.5C52.3906 72.5 54.5 74.6094 54.5 77C54.5 79.5312 52.3906 81.5 50 81.5ZM58.1562 73.3438C56.75 70.25 53.5156 68 50 68C46.3438 68 43.1094 70.25 41.7031 73.3438C34.6719 70.8125 29.1875 65.3281 26.6562 58.2969C29.75 56.8906 32 53.6562 32 50C32 46.4844 29.75 43.25 26.6562 41.8438C29.1875 34.8125 34.6719 29.3281 41.7031 26.7969C43.1094 29.8906 46.3438 32 50 32C53.5156 32 56.75 29.8906 58.1562 26.7969C65.1875 29.3281 70.6719 34.8125 73.2031 41.8438C70.1094 43.25 68 46.4844 68 50C68 53.6562 70.1094 56.8906 73.2031 58.2969C70.6719 65.3281 65.1875 70.8125 58.1562 73.3438ZM77 54.5C74.4688 54.5 72.5 52.5312 72.5 50C72.5 47.6094 74.4688 45.5 77 45.5C79.3906 45.5 81.5 47.6094 81.5 50C81.5 52.5312 79.3906 54.5 77 54.5Z" fill="white"/>
</svg>
