<svg width="731" height="192" viewBox="0 0 731 192" fill="none" xmlns="http://www.w3.org/2000/svg">
<g clip-path="url(#clip0)">
<rect x="0.5" y="0.5" width="730" height="191" fill="#F2F2F2"/>
<rect width="672" height="142.713" transform="translate(30 24)" fill="white"/>
<path d="M187.621 59.1228C183.555 59.1228 180.098 60.1235 177.252 62.1212C174.406 64.1216 172.305 66.815 170.949 70.2022C168.576 76.3701 167.392 83.0461 167.392 90.2283C167.392 97.7512 168.576 104.902 170.949 111.678C172.305 115.337 174.406 118.285 177.252 120.521C180.098 122.758 183.555 123.876 187.621 123.876C197.311 123.876 203.377 117.133 205.816 103.647L212.831 105.274C209.238 121.809 200.801 130.077 187.519 130.077C183.113 130.077 179.199 129.213 175.779 127.484C172.355 125.756 169.628 123.57 167.596 120.928C165.562 118.285 163.901 115.133 162.614 111.474C160.378 105.24 159.26 98.2593 159.26 90.5334C159.26 83.3512 160.378 76.7444 162.614 70.7112C163.901 67.2548 165.562 64.2564 167.596 61.7152C169.628 59.1739 172.372 57.0742 175.829 55.4124C179.285 53.7526 183.215 52.9221 187.621 52.9221C195.006 52.9221 202.564 54.8534 210.29 58.7159L207.646 64.8146C200.801 61.0204 194.127 59.1228 187.621 59.1228Z" fill="#00609C"/>
<path d="M231.037 53.4569V117.599C231.037 121.328 232.493 123.191 235.407 123.191C236.424 123.191 237.847 122.987 239.677 122.581L240.592 128.68C237.949 129.56 235.339 130.001 232.764 130.001C226.258 130.001 223.006 126.174 223.006 118.515V56.4052L216.906 55.5912V50.3055H227.986C230.02 50.3055 231.037 51.3572 231.037 53.4569Z" fill="#00609C"/>
<path d="M281.35 99.7856C262.646 99.7856 253.294 104.461 253.294 113.813C253.294 116.932 254.158 119.354 255.886 121.082C257.613 122.81 260.036 123.673 263.154 123.673C268.033 123.673 272.235 121.709 275.758 117.778C279.281 113.849 281.146 108.257 281.35 101.005V99.7856ZM281.35 118.49V117.067C276.944 125.674 270.031 129.976 260.613 129.976C256.071 129.976 252.445 128.587 249.735 125.809C247.024 123.031 245.669 119.236 245.669 114.423C245.669 107.851 248.38 102.903 253.802 99.5817C259.222 96.2628 268.405 94.601 281.35 94.601V90.3316C281.35 84.5042 280.298 80.5061 278.198 78.3363C276.097 76.1692 272.692 75.0838 267.982 75.0838C263.271 75.0838 258.002 76.71 252.175 79.9624L249.532 73.8637C256.512 70.6113 263.154 68.9842 269.456 68.9842C279.281 68.9842 285.416 72.4406 287.856 79.3533C288.873 82.1996 289.381 85.656 289.381 89.7215V117.575C289.381 121.302 290.804 123.165 293.65 123.165C294.598 123.165 295.988 122.962 297.817 122.555L298.732 128.655C296.09 129.534 293.513 129.976 291.006 129.976C284.568 129.976 281.35 126.149 281.35 118.49Z" fill="#00609C"/>
<path d="M319.871 100.09V122.555L330.036 123.267V128.553H304.724V123.267L311.841 122.555V76.5061L304.724 75.6931V70.4074H315.5C317.599 70.4074 318.652 71.4591 318.652 73.5588V86.1642C320.481 81.4876 323.242 77.5068 326.936 74.219C330.628 70.9337 335.084 69.1874 340.302 68.9842V75.999C334.611 76.2011 329.782 78.5057 325.818 82.91C321.853 87.3169 319.871 93.0433 319.871 100.09Z" fill="#00609C"/>
<path d="M360.336 73.5848V117.6C360.336 121.328 361.827 123.191 364.809 123.191C365.961 123.191 367.351 122.987 368.977 122.581L369.993 128.68C367.213 129.561 364.367 130.001 361.454 130.001C355.422 130.001 352.407 126.174 352.407 118.515V76.5323L346.309 75.7191V70.4334H357.287C359.319 70.4334 360.336 71.4851 360.336 73.5848Z" fill="#00609C"/>
<path d="M371.609 76.014V70.4224H380.453V57.2079L388.483 55.3777V70.4224H399.565V76.014H388.483V117.59C388.483 121.249 389.974 123.078 392.956 123.078C394.922 123.078 396.819 122.708 398.649 121.961L399.565 128.162C396.379 129.381 393.176 129.991 389.958 129.991C386.738 129.991 384.35 129.059 382.792 127.196C381.232 125.333 380.453 122.367 380.453 118.301V76.014H371.609Z" fill="#00609C"/>
<path d="M458.322 73.5848V117.6C458.322 121.328 459.812 123.191 462.795 123.191C464.488 123.191 465.877 122.987 466.962 122.581L467.978 128.68C465.2 129.561 462.591 130.001 460.152 130.001C454.662 130.001 451.476 127.394 450.597 122.174C443.546 127.394 436.823 130.001 430.418 130.001C424.013 130.001 419.491 128.528 416.848 125.58C414.204 122.631 412.883 118.041 412.883 111.806V76.5323L405.767 75.7191V70.4334H417.457C419.76 70.4334 420.913 71.4851 420.913 73.5848V111.806C420.913 116.076 421.676 119.16 423.201 121.056C424.726 122.954 427.351 123.903 431.078 123.903C437.516 123.903 443.954 121.259 450.392 115.974V76.5323L444.294 75.7191V70.4334H455.272C457.305 70.4334 458.322 71.4851 458.322 73.5848Z" fill="#00609C"/>
<path d="M489.529 100.09V122.555L499.694 123.267V128.553H474.383V123.267L481.499 122.555V76.5061L474.383 75.6931V70.4074H485.158C487.258 70.4074 488.309 71.4591 488.309 73.5588V86.1642C490.139 81.4876 492.9 77.5068 496.595 74.219C500.286 70.9337 504.743 69.1874 509.961 68.9842V75.999C504.269 76.2011 499.44 78.5057 495.476 82.91C491.512 87.3169 489.529 93.0433 489.529 100.09Z" fill="#00609C"/>
<path d="M547.785 80.7255C545.073 77.0324 541.176 75.1859 536.095 75.1859C531.011 75.1859 527.183 77.1171 524.608 80.9796C522.032 84.842 520.507 89.6879 520.033 95.5162H551.851C551.851 89.3501 550.494 84.4205 547.785 80.7255ZM559.881 101.209H519.83C519.83 108.732 521.727 114.594 525.523 118.795C528.504 122.116 532.588 123.775 537.772 123.775C542.956 123.775 548.529 122.25 554.494 119.201L557.035 125.097C550.19 128.35 544.108 129.976 538.788 129.976C533.467 129.976 529.096 129.113 525.676 127.384C522.252 125.657 519.559 123.336 517.594 120.421C513.798 114.525 511.901 107.851 511.901 100.396C511.901 91.7211 513.731 84.436 517.391 78.5403C519.286 75.5582 521.879 73.221 525.167 71.5265C528.454 69.8328 532.299 68.9842 536.704 68.9842C543.955 68.9842 549.63 71.46 553.732 76.4051C557.83 81.3529 559.881 87.9606 559.881 96.2273V101.209Z" fill="#00609C"/>
<path d="M359.206 49.5406C354.96 51.165 351.844 53.5852 349.549 56.2021C353.078 59.0657 356.733 60.5599 360.146 61.2382C360.863 56.7483 360.325 52.8368 359.206 49.5406Z" fill="#4C9D2F"/>
<path d="M83.2375 84.9875L92.7653 79.5444L77.5641 70.6749L73.3828 73.0632L73.3337 84.0369L77.514 81.6485L83.2375 84.9875Z" fill="#4C9D2F"/>
<path d="M109.996 92.1933L109.946 103.167L125.263 94.4159L125.276 91.5833L115.798 86.0527L115.786 88.8863L109.996 92.1933Z" fill="#00609C"/>
<path d="M88.6773 110.704L79.1996 105.174L79.1104 124.797L83.3034 127.244L92.832 121.801L88.6382 119.354L88.6773 110.704Z" fill="#1EC2DF"/>
<path d="M126.509 79.9031L125.324 79.212L115.847 73.6823L114.661 72.9913L110.691 70.6749L95.1493 79.5544L93.9574 80.2355L84.4305 85.6786L83.2396 86.3588L79.2843 88.6187L79.2715 91.4513L88.7493 96.9819L88.762 94.1484L92.7173 91.8893L93.9083 91.2082L103.436 85.7651L104.627 85.084L110.642 81.6485L114.612 83.964L115.796 84.6551L125.274 90.1847L126.459 90.8758L132.407 94.346L132.294 119.545L110.413 132.045L104.69 128.706L95.1612 134.15L110.363 143.018L141.771 125.075L141.935 88.9027L126.509 79.9031Z" fill="#1EC2DF"/>
<path d="M104.621 86.4821L95.0931 91.9254L99.2869 94.3719L99.2752 96.9451L99.2697 98.3172L99.2197 109.29L99.2132 110.661L99.1732 119.571L95.2178 121.83L94.0268 122.511L84.4972 127.954L83.3062 128.634L77.2931 132.07L55.5279 119.373L55.6416 94.1743L61.4308 90.8663L61.4809 79.8936L46.164 88.6447L46 124.816L77.243 143.044L92.7858 134.165L93.9768 133.485L103.506 128.041L104.696 127.36L108.651 125.101L108.741 105.218L108.747 103.847L108.797 92.8741L108.803 91.5019L108.815 88.9287L104.621 86.4821Z" fill="#4C9D2F"/>
<path d="M94.1772 40L62.7694 57.9438L62.6792 77.8261L62.6729 79.1973L62.6228 90.1711L62.6164 91.5424L62.6055 94.1155L78.0317 103.115L79.2162 103.807L88.6941 109.336L89.8786 110.028L93.8486 112.343L98.0297 109.955L98.0789 98.9823L93.8986 101.371L89.9287 99.0543L88.7441 98.3632L79.2663 92.8335L78.0818 92.1433L72.1333 88.6723L72.1442 86.0991L72.1506 84.728L72.2007 73.7542L72.207 72.383L72.2471 63.4734L94.1271 50.9727L115.893 63.6719L115.853 72.322L125.331 77.8507L125.42 58.2288L94.1772 40Z" fill="#00609C"/>
<path d="M608.24 82.074L606.442 77.2492C606.301 76.8648 606.159 76.3805 606.018 75.8551H605.979C605.837 76.3805 605.696 76.8648 605.554 77.2492L603.777 82.074H608.24ZM608.804 83.5892H603.212L601.98 86.8998H600.081L605.09 73.5734H606.928L611.935 86.8998H610.037L608.804 83.5892Z" fill="#1EC2DF"/>
<path d="M620.263 75.1286H615.982V73.5734H626.382V75.1286H622.101V86.9008H620.263V75.1286Z" fill="#1EC2DF"/>
<path d="M631.801 77.3979L631.357 79.1953C631.154 79.0741 630.871 78.9731 630.468 78.9731C629.397 78.9731 628.186 79.9219 628.186 81.9004V86.8883H626.409V77.3578L627.661 77.2968C627.823 78.0234 627.903 79.0941 627.903 79.5185H627.985C628.347 78.2665 629.155 77.2367 630.568 77.2367C630.992 77.2367 631.437 77.2968 631.801 77.3979Z" fill="#1EC2DF"/>
<path d="M633.395 77.3514L635.193 77.2913V86.8819H633.395V77.3514ZM634.344 75.4538C633.658 75.4538 633.111 74.9485 633.111 74.2619C633.111 73.5763 633.658 73.05 634.344 73.05C635.031 73.05 635.596 73.5763 635.596 74.2619C635.596 74.9485 635.031 75.4538 634.344 75.4538Z" fill="#1EC2DF"/>
<path d="M639.839 72.6475H638.063V86.9037H639.839V72.6475Z" fill="#1EC2DF"/>
<path d="M644.489 72.6475H642.712V86.9037H644.489V72.6475Z" fill="#1EC2DF"/>
<path d="M647.363 77.3514L649.161 77.2913V86.8819H647.363V77.3514ZM648.313 75.4538C647.626 75.4538 647.08 74.9485 647.08 74.2619C647.08 73.5763 647.626 73.05 648.313 73.05C649 73.05 649.564 73.5763 649.564 74.2619C649.564 74.9485 649 75.4538 648.313 75.4538Z" fill="#1EC2DF"/>
<path d="M657.91 83.5968V82.6881H657.627C654.376 82.6881 653.264 83.2744 653.264 84.3242C653.264 85.0718 653.832 85.5152 655.043 85.5152C656.9 85.5152 657.91 84.4854 657.91 83.5968ZM660.716 86.8683C660.716 86.8683 660.252 86.9894 659.748 86.9894C658.759 86.9894 658.031 86.5249 658.031 85.415V85.3941H657.99C657.728 85.8785 656.9 87.0103 654.679 87.0103C652.579 87.0103 651.448 85.9195 651.448 84.3634C651.448 82.2847 653.427 81.4561 657.627 81.4561H657.91V80.8506C657.91 79.5586 657.122 78.7309 655.546 78.7309C654.194 78.7309 653.367 79.2763 653.367 80.2651C653.367 80.4863 653.407 80.6084 653.467 80.7504L651.791 81.0317C651.791 81.0317 651.669 80.6685 651.669 80.205C651.669 78.4677 653.164 77.2367 655.587 77.2367C658.172 77.2367 659.686 78.6297 659.686 80.8296V84.6875C659.686 85.2129 659.827 85.415 660.272 85.415C660.394 85.415 660.535 85.3941 660.615 85.3741L660.716 86.8683Z" fill="#1EC2DF"/>
<path d="M671.443 81.0527V86.8883H669.645V81.0527C669.645 79.6596 668.858 78.7309 667.425 78.7309C665.445 78.7309 664.557 80.5274 664.557 81.9004V86.8883H662.78V77.3569L664.032 77.2968C664.193 78.0233 664.275 79.0941 664.275 79.5175H664.334C664.84 78.3265 665.91 77.2367 667.727 77.2367C670.009 77.2367 671.443 78.7709 671.443 81.0527Z" fill="#1EC2DF"/>
<path d="M680.576 86.3722C680.576 86.3722 679.628 86.9987 678.073 86.9987C675.61 86.9987 674.621 85.6857 674.621 83.2418V78.7803H673.105V77.3462H674.621V74.5189L676.418 74.4188V77.3462H680.112V78.7803H676.418V83.1817C676.418 84.7169 676.963 85.4835 678.255 85.4835C679.365 85.4835 680.012 84.9382 680.012 84.9382L680.576 86.3722Z" fill="#1EC2DF"/>
<path d="M612.353 93.7416V107.068H610.516V100.931H603.347V107.068H601.511V93.7416H603.347V99.3751H610.516V93.7416H612.353Z" fill="#1EC2DF"/>
<path d="M616.794 101.544H622.165C622.146 99.9691 621.156 98.9393 619.641 98.9393C618.106 98.9393 617.056 100.009 616.794 101.544ZM616.754 102.815C616.935 104.572 618.127 105.724 620.026 105.724C621.479 105.724 622.307 105.037 622.732 104.471L623.821 105.461C622.933 106.632 621.519 107.218 619.885 107.218C616.835 107.218 614.916 105.259 614.916 102.352C614.916 99.5038 616.754 97.4451 619.641 97.4451C622.448 97.4451 623.984 99.4027 623.984 101.908C623.984 102.473 623.903 102.815 623.903 102.815H616.754Z" fill="#1EC2DF"/>
<path d="M632.126 103.806V102.897H631.844C628.592 102.897 627.482 103.484 627.482 104.534C627.482 105.28 628.048 105.725 629.26 105.725C631.117 105.725 632.126 104.695 632.126 103.806ZM634.933 107.078C634.933 107.078 634.468 107.198 633.964 107.198C632.975 107.198 632.248 106.734 632.248 105.624V105.604H632.208C631.946 106.088 631.117 107.219 628.896 107.219C626.796 107.219 625.664 106.129 625.664 104.573C625.664 102.494 627.644 101.665 631.844 101.665H632.126V101.06C632.126 99.7679 631.339 98.9393 629.764 98.9393C628.41 98.9393 627.583 99.4847 627.583 100.475C627.583 100.696 627.625 100.818 627.685 100.96L626.008 101.241C626.008 101.241 625.887 100.878 625.887 100.413C625.887 98.6772 627.381 97.4451 629.803 97.4451C632.388 97.4451 633.903 98.8383 633.903 101.039V104.896C633.903 105.421 634.045 105.624 634.49 105.624C634.61 105.624 634.752 105.604 634.833 105.584L634.933 107.078Z" fill="#1EC2DF"/>
<path d="M638.792 92.8156H637.016V107.072H638.792V92.8156Z" fill="#1EC2DF"/>
<path d="M648.232 106.581C648.232 106.581 647.283 107.207 645.727 107.207C643.265 107.207 642.275 105.894 642.275 103.45V98.9877H640.76V97.5536H642.275V94.7283L644.072 94.6271V97.5536H647.767V98.9877H644.072V103.391C644.072 104.925 644.617 105.692 645.909 105.692C647.02 105.692 647.666 105.147 647.666 105.147L648.232 106.581Z" fill="#1EC2DF"/>
<path d="M658.479 101.237V107.072H656.682V101.237C656.682 99.8441 655.894 98.9143 654.462 98.9143C652.483 98.9143 651.594 100.671 651.594 102.105V107.072H649.797V92.8156H651.554V99.2175H651.594C652.159 98.2278 653.17 97.4201 654.764 97.4201C657.047 97.4201 658.479 98.9554 658.479 101.237Z" fill="#1EC2DF"/>
<path d="M611.852 118.332L610.115 118.615C610.115 117.342 609.226 115.444 606.825 115.444C604.521 115.444 602.644 117.323 602.644 120.614C602.644 124.288 604.804 125.783 607.146 125.783C608.882 125.783 610.156 124.733 610.862 123.764L611.973 124.894C611.568 125.46 610.054 127.399 607.106 127.399C603.35 127.399 600.786 124.894 600.786 120.614C600.786 116.514 603.291 113.829 606.803 113.829C610.539 113.829 611.831 116.595 611.852 118.332Z" fill="#1EC2DF"/>
<path d="M621.483 122.54C621.483 120.562 620.25 119.107 618.393 119.107C616.534 119.107 615.303 120.562 615.303 122.54C615.303 124.52 616.534 125.893 618.393 125.893C620.25 125.893 621.483 124.52 621.483 122.54ZM623.299 122.54C623.299 125.427 621.342 127.387 618.393 127.387C615.444 127.387 613.487 125.427 613.487 122.54C613.487 119.653 615.444 117.613 618.393 117.613C621.342 117.613 623.299 119.653 623.299 122.54Z" fill="#1EC2DF"/>
<path d="M640.729 121.469V127.264H638.932V121.469C638.932 120.076 638.144 119.148 636.71 119.148C634.913 119.148 634.025 120.903 634.025 122.277V127.264H632.227V121.469C632.227 120.076 631.44 119.148 630.007 119.148C628.209 119.148 627.32 120.903 627.32 122.277V127.264H625.543V117.733L626.794 117.673C626.957 118.4 627.037 119.47 627.037 119.894C627.522 118.683 628.572 117.654 630.309 117.654C632.005 117.654 633.236 118.501 633.742 119.875C634.246 118.662 635.296 117.654 637.013 117.654C639.295 117.654 640.729 119.188 640.729 121.469Z" fill="#1EC2DF"/>
<path d="M651.312 122.52C651.312 120.481 650.142 119.107 648.263 119.107C646.244 119.107 645.234 120.904 645.234 122.318V122.701C645.234 124.135 646.183 125.893 648.384 125.893C650.161 125.893 651.312 124.539 651.312 122.52ZM653.13 122.52C653.13 125.448 651.271 127.387 648.485 127.387C646.991 127.387 645.88 126.679 645.234 125.691V131.384H643.457V117.733L644.708 117.673C644.85 118.32 644.972 119.511 644.951 119.895H644.972C645.496 118.663 646.627 117.613 648.586 117.613C651.271 117.613 653.13 119.571 653.13 122.52Z" fill="#1EC2DF"/>
<path d="M661.312 123.973V123.065H661.029C657.778 123.065 656.667 123.651 656.667 124.701C656.667 125.448 657.233 125.892 658.445 125.892C660.303 125.892 661.312 124.862 661.312 123.973ZM664.119 127.245C664.119 127.245 663.653 127.366 663.149 127.366C662.159 127.366 661.434 126.901 661.434 125.792V125.771H661.393C661.13 126.255 660.303 127.387 658.08 127.387C655.981 127.387 654.85 126.296 654.85 124.74C654.85 122.661 656.828 121.833 661.029 121.833H661.312V121.227C661.312 119.935 660.524 119.106 658.949 119.106C657.596 119.106 656.769 119.652 656.769 120.642C656.769 120.863 656.809 120.985 656.869 121.127L655.193 121.408C655.193 121.408 655.072 121.045 655.072 120.582C655.072 118.845 656.567 117.613 658.989 117.613C661.574 117.613 663.088 119.005 663.088 121.206V125.064C663.088 125.589 663.23 125.792 663.674 125.792C663.795 125.792 663.937 125.771 664.018 125.751L664.119 127.245Z" fill="#1EC2DF"/>
<path d="M674.844 121.429V127.265H673.047V121.429C673.047 120.036 672.259 119.106 670.827 119.106C668.848 119.106 667.959 120.904 667.959 122.278V127.265H666.182V117.733L667.434 117.673C667.596 118.4 667.676 119.47 667.676 119.894H667.736C668.242 118.703 669.312 117.613 671.13 117.613C673.412 117.613 674.844 119.147 674.844 121.429Z" fill="#1EC2DF"/>
<path d="M678.286 131.486C677.376 131.486 676.812 131.183 676.812 131.183L677.135 129.708C677.135 129.708 677.578 129.951 678.164 129.951C679.154 129.951 679.578 129.304 679.9 128.456L680.264 127.508L676.225 117.734H678.225L680.849 124.398C681.051 124.883 681.092 125.045 681.173 125.449H681.192C681.274 125.004 681.354 124.823 681.516 124.398L684.182 117.734H686L681.476 128.962C680.931 130.375 680.042 131.486 678.286 131.486Z" fill="#1EC2DF"/>
<path d="M575.074 68.804V134.27" stroke="#1EC2DF" stroke-miterlimit="10"/>
<path d="M496.22 136.614V150.712H494.275V144.218H486.692V150.712H484.748V136.614H486.692V142.573H494.275V136.614H496.22Z" fill="#00609C"/>
<path d="M502.332 138.258V142.573H508.377V144.218H502.332V149.067H509.124V150.712H500.388V136.614H509.124V138.258H502.332Z" fill="#00609C"/>
<path d="M519.686 145.607L517.784 140.502C517.635 140.096 517.485 139.583 517.336 139.027H517.293C517.143 139.583 516.994 140.096 516.845 140.502L514.965 145.607H519.686ZM520.284 147.209H514.366L513.064 150.712H511.056L516.353 136.614H518.298L523.595 150.712H521.587L520.284 147.209Z" fill="#00609C"/>
<path d="M535.225 149.067V150.713H526.252V136.614H528.196V149.067H535.225Z" fill="#00609C"/>
<path d="M538.691 138.258H534.162V136.614H545.163V138.258H540.635V150.712H538.691V138.258Z" fill="#00609C"/>
<path d="M559.26 136.614V150.712H557.316V144.218H549.733V150.712H547.789V136.614H549.733V142.573H557.316V136.614H559.26Z" fill="#00609C"/>
<rect width="28.7852" height="24.6895" transform="translate(1 167)" fill="white"/>
<path d="M14.8066 183.689H9V182.646L11.209 180.426C11.8613 179.758 12.293 179.285 12.5039 179.008C12.7188 178.727 12.875 178.463 12.9727 178.217C13.0703 177.971 13.1191 177.707 13.1191 177.426C13.1191 177.039 13.002 176.734 12.7676 176.512C12.5371 176.289 12.2168 176.178 11.8066 176.178C11.4785 176.178 11.1602 176.238 10.8516 176.359C10.5469 176.48 10.1934 176.699 9.79102 177.016L9.04688 176.107C9.52344 175.705 9.98633 175.42 10.4355 175.252C10.8848 175.084 11.3633 175 11.8711 175C12.668 175 13.3066 175.209 13.7871 175.627C14.2676 176.041 14.5078 176.6 14.5078 177.303C14.5078 177.689 14.4375 178.057 14.2969 178.404C14.1602 178.752 13.9473 179.111 13.6582 179.482C13.373 179.85 12.8965 180.348 12.2285 180.977L10.7402 182.418V182.477H14.8066V183.689Z" fill="#FF61D3"/>
<path d="M17.7539 180.379L15.5801 177.209H17.1504L18.627 179.477L20.1152 177.209H21.6738L19.4941 180.379L21.7852 183.689H20.2266L18.627 181.264L17.0332 183.689H15.4746L17.7539 180.379Z" fill="#FF61D3"/>
<rect width="28.7852" height="24.6895" transform="translate(702 167)" fill="white"/>
<path d="M715.807 183.689H710V182.646L712.209 180.426C712.861 179.758 713.293 179.285 713.504 179.008C713.719 178.727 713.875 178.463 713.973 178.217C714.07 177.971 714.119 177.707 714.119 177.426C714.119 177.039 714.002 176.734 713.768 176.512C713.537 176.289 713.217 176.178 712.807 176.178C712.479 176.178 712.16 176.238 711.852 176.359C711.547 176.48 711.193 176.699 710.791 177.016L710.047 176.107C710.523 175.705 710.986 175.42 711.436 175.252C711.885 175.084 712.363 175 712.871 175C713.668 175 714.307 175.209 714.787 175.627C715.268 176.041 715.508 176.6 715.508 177.303C715.508 177.689 715.438 178.057 715.297 178.404C715.16 178.752 714.947 179.111 714.658 179.482C714.373 179.85 713.896 180.348 713.229 180.977L711.74 182.418V182.477H715.807V183.689Z" fill="#FF61D3"/>
<path d="M718.754 180.379L716.58 177.209H718.15L719.627 179.477L721.115 177.209H722.674L720.494 180.379L722.785 183.689H721.227L719.627 181.264L718.033 183.689H716.475L718.754 180.379Z" fill="#FF61D3"/>
<rect width="28.7852" height="24.6895" transform="translate(1)" fill="white"/>
<path d="M14.8066 16.6895H9V15.6465L11.209 13.4258C11.8613 12.7578 12.293 12.2852 12.5039 12.0078C12.7188 11.7266 12.875 11.4629 12.9727 11.2168C13.0703 10.9707 13.1191 10.707 13.1191 10.4258C13.1191 10.0391 13.002 9.73438 12.7676 9.51172C12.5371 9.28906 12.2168 9.17773 11.8066 9.17773C11.4785 9.17773 11.1602 9.23828 10.8516 9.35938C10.5469 9.48047 10.1934 9.69922 9.79102 10.0156L9.04688 9.10742C9.52344 8.70508 9.98633 8.41992 10.4355 8.25195C10.8848 8.08398 11.3633 8 11.8711 8C12.668 8 13.3066 8.20898 13.7871 8.62695C14.2676 9.04102 14.5078 9.59961 14.5078 10.3027C14.5078 10.6895 14.4375 11.0566 14.2969 11.4043C14.1602 11.752 13.9473 12.1113 13.6582 12.4824C13.373 12.8496 12.8965 13.3477 12.2285 13.9766L10.7402 15.418V15.4766H14.8066V16.6895Z" fill="#FF61D3"/>
<path d="M17.7539 13.3789L15.5801 10.209H17.1504L18.627 12.4766L20.1152 10.209H21.6738L19.4941 13.3789L21.7852 16.6895H20.2266L18.627 14.2637L17.0332 16.6895H15.4746L17.7539 13.3789Z" fill="#FF61D3"/>
<rect width="28.7852" height="24.6895" transform="translate(702)" fill="white"/>
<path d="M715.807 16.6895H710V15.6465L712.209 13.4258C712.861 12.7578 713.293 12.2852 713.504 12.0078C713.719 11.7266 713.875 11.4629 713.973 11.2168C714.07 10.9707 714.119 10.707 714.119 10.4258C714.119 10.0391 714.002 9.73438 713.768 9.51172C713.537 9.28906 713.217 9.17773 712.807 9.17773C712.479 9.17773 712.16 9.23828 711.852 9.35938C711.547 9.48047 711.193 9.69922 710.791 10.0156L710.047 9.10742C710.523 8.70508 710.986 8.41992 711.436 8.25195C711.885 8.08398 712.363 8 712.871 8C713.668 8 714.307 8.20898 714.787 8.62695C715.268 9.04102 715.508 9.59961 715.508 10.3027C715.508 10.6895 715.438 11.0566 715.297 11.4043C715.16 11.752 714.947 12.1113 714.658 12.4824C714.373 12.8496 713.896 13.3477 713.229 13.9766L711.74 15.418V15.4766H715.807V16.6895Z" fill="#FF61D3"/>
<path d="M718.754 13.3789L716.58 10.209H718.15L719.627 12.4766L721.115 10.209H722.674L720.494 13.3789L722.785 16.6895H721.227L719.627 14.2637L718.033 16.6895H716.475L718.754 13.3789Z" fill="#FF61D3"/>
<rect width="28.7852" height="24.6895" transform="translate(560 167)" fill="white"/>
<path d="M573.807 183.689H568V182.646L570.209 180.426C570.861 179.758 571.293 179.285 571.504 179.008C571.719 178.727 571.875 178.463 571.973 178.217C572.07 177.971 572.119 177.707 572.119 177.426C572.119 177.039 572.002 176.734 571.768 176.512C571.537 176.289 571.217 176.178 570.807 176.178C570.479 176.178 570.16 176.238 569.852 176.359C569.547 176.48 569.193 176.699 568.791 177.016L568.047 176.107C568.523 175.705 568.986 175.42 569.436 175.252C569.885 175.084 570.363 175 570.871 175C571.668 175 572.307 175.209 572.787 175.627C573.268 176.041 573.508 176.6 573.508 177.303C573.508 177.689 573.438 178.057 573.297 178.404C573.16 178.752 572.947 179.111 572.658 179.482C572.373 179.85 571.896 180.348 571.229 180.977L569.74 182.418V182.477H573.807V183.689Z" fill="#FF61D3"/>
<path d="M576.754 180.379L574.58 177.209H576.15L577.627 179.477L579.115 177.209H580.674L578.494 180.379L580.785 183.689H579.227L577.627 181.264L576.033 183.689H574.475L576.754 180.379Z" fill="#FF61D3"/>
<rect width="28.7852" height="24.6895" transform="translate(560)" fill="white"/>
<path d="M573.807 16.6895H568V15.6465L570.209 13.4258C570.861 12.7578 571.293 12.2852 571.504 12.0078C571.719 11.7266 571.875 11.4629 571.973 11.2168C572.07 10.9707 572.119 10.707 572.119 10.4258C572.119 10.0391 572.002 9.73438 571.768 9.51172C571.537 9.28906 571.217 9.17773 570.807 9.17773C570.479 9.17773 570.16 9.23828 569.852 9.35938C569.547 9.48047 569.193 9.69922 568.791 10.0156L568.047 9.10742C568.523 8.70508 568.986 8.41992 569.436 8.25195C569.885 8.08398 570.363 8 570.871 8C571.668 8 572.307 8.20898 572.787 8.62695C573.268 9.04102 573.508 9.59961 573.508 10.3027C573.508 10.6895 573.438 11.0566 573.297 11.4043C573.16 11.752 572.947 12.1113 572.658 12.4824C572.373 12.8496 571.896 13.3477 571.229 13.9766L569.74 15.418V15.4766H573.807V16.6895Z" fill="#FF61D3"/>
<path d="M576.754 13.3789L574.58 10.209H576.15L577.627 12.4766L579.115 10.209H580.674L578.494 13.3789L580.785 16.6895H579.227L577.627 14.2637L576.033 16.6895H574.475L576.754 13.3789Z" fill="#FF61D3"/>
<path d="M-3 24H731M-3 167H731M-4 68.5H730" stroke="#FF61D3"/>
<path d="M-32 40H760M-32 151H760" stroke="#FF61D3"/>
<path d="M574.426 32.6895L572.252 29.5195H573.822L575.299 31.7871L576.787 29.5195H578.346L576.166 32.6895L578.457 36H576.898L575.299 33.5742L573.705 36H572.146L574.426 32.6895Z" fill="#FF61D3"/>
<path d="M37.4258 32.6895L35.252 29.5195H36.8223L38.2988 31.7871L39.7871 29.5195H41.3457L39.166 32.6895L41.457 36H39.8984L38.2988 33.5742L36.7051 36H35.1465L37.4258 32.6895Z" fill="#FF61D3"/>
<path d="M574.426 158.689L572.252 155.52H573.822L575.299 157.787L576.787 155.52H578.346L576.166 158.689L578.457 162H576.898L575.299 159.574L573.705 162H572.146L574.426 158.689Z" fill="#FF61D3"/>
<path d="M37.4258 158.689L35.252 155.52H36.8223L38.2988 157.787L39.7871 155.52H41.3457L39.166 158.689L41.457 162H39.8984L38.2988 159.574L36.7051 162H35.1465L37.4258 158.689Z" fill="#FF61D3"/>
<path d="M702.5 -18L702.5 236" stroke="#FF61D3"/>
<path d="M589 -17L589 237" stroke="#FF61D3"/>
<path d="M560 -18L560 236" stroke="#FF61D3"/>
<path d="M142 -18L142 236" stroke="#FF61D3"/>
<path d="M159 -18L159 236" stroke="#FF61D3"/>
<path d="M46 -18L46 236" stroke="#FF61D3"/>
<path d="M30 -31L30 243" stroke="#FF61D3"/>
</g>
<rect x="0.5" y="0.5" width="730" height="191" stroke="#FF61D3"/>
<defs>
<clipPath id="clip0">
</clipPath>
</defs>
</svg>
