<svg width="100" height="100" viewBox="0 0 100 100" fill="none" xmlns="http://www.w3.org/2000/svg">
<path d="M43.0709 38.4677L48.4613 35.508L39.8613 30.6854L37.4957 31.9844L37.4675 37.951L39.833 36.652L43.0709 38.4677" fill="white"/>
<path d="M58.1997 42.3725L58.1715 48.3391L66.8367 43.5804L66.8441 42.0405L61.4826 39.0329L61.4752 40.5735L58.1997 42.3725" fill="white"/>
<path d="M46.1488 52.4479L40.7873 49.4417L40.7369 60.1114L43.1092 61.4421L48.4996 58.4817L46.1266 57.1517L46.1488 52.4479" fill="white"/>
<path d="M67.5465 35.7037L58.5977 30.6854L40.8305 40.4424L40.8231 41.9829L46.1845 44.9898L46.1919 43.4492L58.5701 36.652L70.8831 43.5571L70.8186 57.2589L58.4404 64.0555L55.2026 62.2404L49.8122 65.2001L58.4122 70.0234L76.1801 60.2664L76.2728 40.5974L67.5465 35.7037" fill="white"/>
<path d="M55.1635 39.2668L49.7731 42.2265L52.1461 43.5571L52.0816 57.2589L39.7034 64.0556L27.3904 57.1517L27.4549 43.4493L30.7297 41.651L30.7579 35.6844L22.0927 40.4424L22 60.1114L39.6751 70.0234L57.443 60.2664L57.5358 40.5974L55.1635 39.2668" fill="white"/>
<path d="M49.2549 14L31.4864 23.757L31.3936 43.426L49.0688 53.3374L51.4337 52.0391L51.4619 46.0725L49.097 47.3708L36.784 40.4663L36.8485 26.7639L49.2267 19.9666L61.5397 26.8717L61.5175 31.5755L66.879 34.5818L66.9294 23.912L49.2549 14" fill="white"/>
<path fill-rule="evenodd" clip-rule="evenodd" d="M87.4545 81.6364V86H88.4545V81.6364H88.5455V80.6364H88.4545V76.1818H87.4545V80.6364H11V76.1818L10 76.1818V80.6364V81.6364V86H11V81.6364H87.4545Z" fill="white"/>
</svg>
