<svg width="100" height="100" viewBox="0 0 100 100" fill="none" xmlns="http://www.w3.org/2000/svg">
<path d="M32.9113 86C28.9826 84.7774 26.0193 82.7601 24.0217 79.948C22.0462 77.1605 21.0585 73.4682 21.0585 68.8711V61.5721C21.0585 55.6302 18.7056 52.6592 14 52.6592V47.3408C18.7056 47.3408 21.0585 44.3821 21.0585 38.4646V30.8355C21.1028 26.3607 22.0906 22.7539 24.0217 20.0153C25.975 17.2522 28.9382 15.2471 32.9113 14L34.1765 18.218C29.5375 19.8563 27.2179 24.1233 27.2179 31.0188V38.4279C27.2179 43.9786 25.3646 47.8421 21.6578 50.0183C25.3646 52.2191 27.2179 56.1192 27.2179 61.7188V69.2746C27.2845 75.999 29.6041 80.1681 34.1765 81.782L32.9113 86Z" fill="white"/>
<path d="M39.0213 69.0178C39.0213 67.8441 39.3321 66.866 39.9536 66.0835C40.5973 65.3011 41.5517 64.9098 42.8169 64.9098C44.0821 64.9098 45.0366 65.3011 45.6803 66.0835C46.3461 66.866 46.6791 67.8441 46.6791 69.0178C46.6791 70.1426 46.3461 71.0841 45.6803 71.8421C45.0366 72.6001 44.0821 72.9791 42.8169 72.9791C41.5517 72.9791 40.5973 72.6001 39.9536 71.8421C39.3321 71.0841 39.0213 70.1426 39.0213 69.0178ZM52.8386 69.0178C52.8386 67.8441 53.1493 66.866 53.7708 66.0835C54.4145 65.3011 55.369 64.9098 56.6342 64.9098C57.8994 64.9098 58.8538 65.3011 59.4975 66.0835C60.1634 66.866 60.4963 67.8441 60.4963 69.0178C60.4963 70.1426 60.1634 71.0841 59.4975 71.8421C58.8538 72.6001 57.8994 72.9791 56.6342 72.9791C55.369 72.9791 54.4145 72.6001 53.7708 71.8421C53.1493 71.0841 52.8386 70.1426 52.8386 69.0178Z" fill="white"/>
<path d="M65.7902 81.782C70.2961 80.1926 72.6267 76.1457 72.7821 69.6414V61.5721C72.7821 55.9236 74.7908 52.0723 78.8084 50.0183C74.7908 48.0132 72.7821 44.162 72.7821 38.4646V31.0188C72.7821 24.1233 70.4625 19.8563 65.8235 18.218L67.0887 14C71.0174 15.2226 73.9696 17.2155 75.945 19.9786C77.9205 22.7173 78.9194 26.3484 78.9415 30.8721V38.5746C78.9415 44.4187 81.2944 47.3408 86 47.3408V52.6592C81.2944 52.6592 78.9415 55.6302 78.9415 61.5721V68.9812C78.9415 73.5782 77.9316 77.2583 75.9117 80.0214C73.9141 82.7845 70.973 84.7774 67.0887 86L65.7902 81.782Z" fill="white"/>
</svg>
