<svg width="152" height="120" viewBox="0 0 152 120" fill="none" xmlns="http://www.w3.org/2000/svg">
<rect width="151.814" height="120" rx="4" fill="#333333"/>
<path d="M116.622 57.2679C117.108 55.6607 117.433 54.0536 117.433 52.2857C117.433 42.4821 109.16 34.2857 99.2651 34.2857C96.5076 34.2857 93.9122 34.9286 91.4791 36.0536C86.2884 28.8214 77.6913 24 68.1209 24C52.711 24 40.2209 36.0536 39.5721 51.1607C30.3262 54.375 24 63.0536 24 72.8571C24 85.7143 34.3814 96 47.3581 96H107.051C118.406 96 127.814 86.8393 127.814 75.4286C127.814 67.875 123.597 60.9643 116.622 57.2679ZM107.051 90.8571H47.3581C37.3012 90.8571 29.1907 82.8214 29.1907 72.8571C29.1907 63.8571 36.0035 56.3036 44.925 55.0179C44.7628 54.2143 44.7628 53.25 44.7628 52.2857C44.7628 39.5893 55.1442 29.1429 68.1209 29.1429C77.8535 29.1429 86.1262 35.0893 89.6948 43.6071C92.1279 41.0357 95.3721 39.4286 99.2651 39.4286C106.402 39.4286 112.242 45.2143 112.242 52.2857C112.242 55.3393 111.106 58.0714 109.484 60.3214C116.946 61.4464 122.623 67.875 122.623 75.4286C122.623 83.9464 115.648 90.8571 107.051 90.8571Z" fill="white"/>
<path d="M61.875 82.7188C60.0312 82.1979 58.6406 81.3385 57.7031 80.1406C56.776 78.9531 56.3125 77.3802 56.3125 75.4219V72.3125C56.3125 69.7812 55.2083 68.5156 53 68.5156V66.25C55.2083 66.25 56.3125 64.9896 56.3125 62.4688V59.2188C56.3333 57.3125 56.7969 55.776 57.7031 54.6094C58.6198 53.4323 60.0104 52.5781 61.875 52.0469L62.4688 53.8438C60.2917 54.5417 59.2031 56.3594 59.2031 59.2969V62.4531C59.2031 64.8177 58.3333 66.4635 56.5938 67.3906C58.3333 68.3281 59.2031 69.9896 59.2031 72.375V75.5938C59.2344 78.4583 60.3229 80.2344 62.4688 80.9219L61.875 82.7188Z" fill="white"/>
<path d="M65.1562 75.4844C65.1562 74.9844 65.3021 74.5677 65.5938 74.2344C65.8958 73.901 66.3438 73.7344 66.9375 73.7344C67.5312 73.7344 67.9792 73.901 68.2812 74.2344C68.5938 74.5677 68.75 74.9844 68.75 75.4844C68.75 75.9635 68.5938 76.3646 68.2812 76.6875C67.9792 77.0104 67.5312 77.1719 66.9375 77.1719C66.3438 77.1719 65.8958 77.0104 65.5938 76.6875C65.3021 76.3646 65.1562 75.9635 65.1562 75.4844ZM71.9844 75.4844C71.9844 74.9844 72.1302 74.5677 72.4219 74.2344C72.724 73.901 73.1719 73.7344 73.7656 73.7344C74.3594 73.7344 74.8073 73.901 75.1094 74.2344C75.4219 74.5677 75.5781 74.9844 75.5781 75.4844C75.5781 75.9635 75.4219 76.3646 75.1094 76.6875C74.8073 77.0104 74.3594 77.1719 73.7656 77.1719C73.1719 77.1719 72.724 77.0104 72.4219 76.6875C72.1302 76.3646 71.9844 75.9635 71.9844 75.4844ZM78.4688 75.4844C78.4688 74.9844 78.6146 74.5677 78.9062 74.2344C79.2083 73.901 79.6562 73.7344 80.25 73.7344C80.8438 73.7344 81.2917 73.901 81.5938 74.2344C81.9062 74.5677 82.0625 74.9844 82.0625 75.4844C82.0625 75.9635 81.9062 76.3646 81.5938 76.6875C81.2917 77.0104 80.8438 77.1719 80.25 77.1719C79.6562 77.1719 79.2083 77.0104 78.9062 76.6875C78.6146 76.3646 78.4688 75.9635 78.4688 75.4844Z" fill="white"/>
<path d="M84.5469 80.9219C86.6615 80.2448 87.7552 78.5208 87.8281 75.75V72.3125C87.8281 69.9062 88.7708 68.2656 90.6562 67.3906C88.7708 66.5365 87.8281 64.8958 87.8281 62.4688V59.2969C87.8281 56.3594 86.7396 54.5417 84.5625 53.8438L85.1562 52.0469C87 52.5677 88.3854 53.4167 89.3125 54.5938C90.2396 55.7604 90.7083 57.3073 90.7188 59.2344V62.5156C90.7188 65.0052 91.8229 66.25 94.0312 66.25V68.5156C91.8229 68.5156 90.7188 69.7812 90.7188 72.3125V75.4688C90.7188 77.4271 90.2448 78.9948 89.2969 80.1719C88.3594 81.349 86.9792 82.1979 85.1562 82.7188L84.5469 80.9219Z" fill="white"/>
</svg>
