<svg width="100" height="100" viewBox="0 0 100 100" fill="none" xmlns="http://www.w3.org/2000/svg">
<path fill-rule="evenodd" clip-rule="evenodd" d="M45.9743 69.8889L43.1111 61.3842H28.1995L25.3646 69.8889H16.3212L31.6864 28.6127H39.5674L55.0176 69.8889H45.9743ZM29.3619 62.997L26.527 71.5017H14L30.5659 27H40.6858L57.3433 71.5017H44.8156L41.9523 62.997H29.3619ZM40.8148 54.4954L35.6269 39.0452L30.4957 54.4954H40.8148ZM32.7307 52.8827H38.572L35.6353 44.1367L32.7307 52.8827ZM75.1239 71.5017L74.6743 70.6249C74.5799 70.4409 74.492 70.2507 74.4101 70.0545C72.4578 71.4008 70.1519 72.0687 67.5479 72.0687C64.2098 72.0687 61.3203 71.093 59.001 69.0608L58.9952 69.0558C56.6804 67.008 55.5027 64.3744 55.5027 61.2708C55.5027 57.5613 56.9058 54.5553 59.7697 52.4806L59.7745 52.4771C61.4067 51.304 63.4019 50.5066 65.7175 50.0415H56.1831V48.4287C56.1831 46.2941 56.8495 44.3216 58.1344 42.5494C59.4283 40.7647 61.2281 39.416 63.4534 38.4703C65.6846 37.5031 68.1546 37.0356 70.8364 37.0356C74.884 37.0356 78.2903 38.0608 80.8711 40.2858C83.5243 42.5371 84.781 45.6876 84.781 49.506V62.7968C84.7998 65.6068 85.1988 67.4979 85.8113 68.6499L86 69.005V71.5017H75.1239ZM83.1682 62.8017V49.506C83.1682 46.0663 82.0532 43.4015 79.8231 41.5116C77.6118 39.6027 74.6163 38.6483 70.8364 38.6483C68.3417 38.6483 66.0927 39.083 64.0893 39.9524C62.086 40.8028 60.5363 41.984 59.4401 43.496C58.6835 44.5396 58.188 45.6463 57.9536 46.816C57.8484 47.3409 57.7959 47.8784 57.7959 48.4287H65.9887C65.9887 47.2759 66.3762 46.3687 67.151 45.7072C67.9448 45.0457 69.0315 44.715 70.4112 44.715C71.9798 44.715 73.1232 45.1402 73.8414 45.9907C74.5785 46.8412 74.947 47.9751 74.947 49.3926V51.1502H71.1766C66.6219 51.1691 63.1349 52.048 60.7158 53.7867C58.3156 55.5254 57.1155 58.0201 57.1155 61.2708C57.1155 63.9167 58.0982 66.1091 60.0638 67.8478C62.0482 69.5866 64.5429 70.4559 67.5479 70.4559C70.0267 70.4559 72.1426 69.7821 73.8956 68.4344C74.3881 68.0558 74.852 67.624 75.2872 67.1391C75.3939 67.8267 75.5415 68.4437 75.73 68.9901C75.842 69.3146 75.9685 69.6143 76.1093 69.8889H84.3873V69.407C84.2064 69.0669 84.0457 68.6899 83.9051 68.2762C83.4284 66.8739 83.1828 65.0491 83.1682 62.8017ZM73.3343 49.5375V49.3926C73.3343 48.2593 73.045 47.5342 72.6227 47.0469L72.6159 47.0391L72.6092 47.0312C72.3076 46.674 71.7071 46.3277 70.4112 46.3277C69.2883 46.3277 68.6108 46.5936 68.1909 46.94C67.8288 47.2522 67.6015 47.6833 67.6015 48.4287V49.7437C68.7285 49.6101 69.9193 49.5427 71.1699 49.5375L71.1766 49.5375L73.3343 49.5375ZM71.9263 61.9707C72.5584 61.6295 73.0134 61.224 73.3343 60.7623V57.554H71.8853C69.9818 57.554 68.7702 57.8896 68.0506 58.3569C67.4209 58.7658 67.0405 59.3539 66.9449 60.318L66.9214 60.7175C66.9301 61.2875 67.1169 61.6796 67.4782 62.0123C67.8229 62.3298 68.375 62.578 69.3339 62.578C70.2947 62.578 71.1499 62.3712 71.9263 61.9707ZM65.3083 60.6755L65.3367 60.1936C65.6013 57.3587 67.7842 55.9412 71.8853 55.9412H74.947V61.2141C74.4556 62.1213 73.6997 62.8489 72.6791 63.397C71.6585 63.9262 70.5435 64.1908 69.3339 64.1908C68.0866 64.1908 67.1038 63.86 66.3856 63.1986C65.6674 62.5371 65.3083 61.6961 65.3083 60.6755Z" fill="white"/>
</svg>
