<svg width="138" height="104" viewBox="0 0 138 104" fill="none" xmlns="http://www.w3.org/2000/svg">
<rect width="137.289" height="103.891" rx="4" fill="#333333"/>
<path fill-rule="evenodd" clip-rule="evenodd" d="M63.652 77.1875L60.1012 66.6406H41.6091L38.0934 77.1875H26.8786L45.9333 26H55.7067L74.8669 77.1875H63.652ZM43.0506 68.6406L39.5349 79.1875H24L44.5437 24H57.0936L77.751 79.1875H62.215L58.6643 68.6406H43.0506ZM57.2536 58.0977L50.82 38.9375L44.4567 58.0977H57.2536ZM47.2283 56.0977H54.4723L50.8304 45.2516L47.2283 56.0977ZM99.8011 79.1875L99.2435 78.1001C99.1265 77.872 99.0174 77.6361 98.9159 77.3928C96.4948 79.0624 93.6352 79.8906 90.4059 79.8906C86.2663 79.8906 82.6829 78.6807 79.8067 76.1605L79.7995 76.1543C76.9288 73.6148 75.4684 70.3488 75.4684 66.5C75.4684 61.8997 77.2083 58.1719 80.76 55.5991L80.766 55.5947C82.7901 54.1399 85.2644 53.151 88.136 52.5742H76.3122V50.5742C76.3122 47.927 77.1386 45.4809 78.732 43.2831C80.3366 41.0699 82.5686 39.3973 85.3282 38.2245C88.0952 37.0251 91.1582 36.4453 94.4841 36.4453C99.5035 36.4453 103.728 37.7167 106.928 40.476C110.219 43.2679 111.777 47.1749 111.777 51.9102V68.3924C111.8 71.8772 112.295 74.2224 113.055 75.651L113.289 76.0912V79.1875H99.8011ZM109.777 68.3984V51.9102C109.777 47.6445 108.394 44.3398 105.629 41.9961C102.886 39.6289 99.1716 38.4453 94.4841 38.4453C91.3903 38.4453 88.6012 38.9844 86.1169 40.0625C83.6325 41.1172 81.7106 42.582 80.3512 44.457C79.4129 45.7513 78.7984 47.1237 78.5078 48.5742C78.3774 49.2251 78.3122 49.8918 78.3122 50.5742H88.4723C88.4723 49.1445 88.9528 48.0195 89.9137 47.1992C90.8981 46.3789 92.2458 45.9688 93.9567 45.9688C95.902 45.9688 97.32 46.4961 98.2106 47.5508C99.1247 48.6055 99.5817 50.0117 99.5817 51.7695V53.9492H94.9059C89.2575 53.9727 84.9333 55.0625 81.9333 57.2188C78.9567 59.375 77.4684 62.4688 77.4684 66.5C77.4684 69.7812 78.6872 72.5 81.1247 74.6562C83.5856 76.8125 86.6794 77.8906 90.4059 77.8906C93.4799 77.8906 96.1038 77.055 98.2779 75.3837C98.8886 74.9142 99.4639 74.3788 100.004 73.7773C100.136 74.6301 100.319 75.3953 100.553 76.0728C100.692 76.4753 100.848 76.8469 101.023 77.1875H111.289V76.5898C111.064 76.168 110.865 75.7006 110.691 75.1875C110.1 73.4485 109.795 71.1855 109.777 68.3984ZM97.5817 51.9492V51.7695C97.5817 50.3641 97.223 49.4649 96.6992 48.8606L96.6908 48.8509L96.6826 48.8411C96.3085 48.3981 95.5638 47.9688 93.9567 47.9688C92.5641 47.9688 91.724 48.2984 91.2033 48.728C90.7543 49.1151 90.4723 49.6498 90.4723 50.5742V52.2049C91.8699 52.0392 93.3467 51.9557 94.8976 51.9492L94.9059 51.9492L97.5817 51.9492ZM95.8357 67.3679C96.6196 66.9448 97.1837 66.442 97.5817 65.8693V61.8906H95.7848C93.4243 61.8906 91.9217 62.3069 91.0293 62.8864C90.2483 63.3935 89.7767 64.1228 89.6581 65.3184L89.629 65.8138C89.6397 66.5207 89.8714 67.0069 90.3195 67.4195C90.7469 67.8132 91.4316 68.1211 92.6208 68.1211C93.8122 68.1211 94.8728 67.8645 95.8357 67.3679ZM87.6286 65.7617L87.6637 65.1641C87.9919 61.6484 90.6989 59.8906 95.7848 59.8906H99.5817V66.4297C98.9723 67.5547 98.0348 68.457 96.7692 69.1367C95.5036 69.793 94.1208 70.1211 92.6208 70.1211C91.0739 70.1211 89.8551 69.7109 88.9645 68.8906C88.0739 68.0703 87.6286 67.0273 87.6286 65.7617Z" fill="white"/>
</svg>
