<svg width="100" height="100" viewBox="0 0 100 100" fill="none" xmlns="http://www.w3.org/2000/svg">
<path d="M49.75 63.5C57.2031 63.5 63.25 57.5938 63.25 50V27.5C63.25 20.0469 57.2031 14 49.75 14C42.1562 14 36.25 20.0469 36.25 27.5V50C36.25 57.5938 42.1562 63.5 49.75 63.5ZM72.25 41H70C68.7344 41 67.75 42.125 67.75 43.25V50C67.75 60.5469 58.6094 68.9844 47.9219 68C38.5 67.0156 31.75 58.7188 31.75 49.2969V43.25C31.75 42.125 30.625 41 29.5 41H27.25C25.9844 41 25 42.125 25 43.25V49.0156C25 61.5312 33.8594 72.7812 46.375 74.4688V79.25H38.5C37.2344 79.25 36.25 80.375 36.25 81.5V83.75C36.25 85.0156 37.2344 86 38.5 86H61C62.125 86 63.25 85.0156 63.25 83.75V81.5C63.25 80.375 62.125 79.25 61 79.25H53.125V74.6094C65.0781 72.9219 74.5 62.5156 74.5 50V43.25C74.5 42.125 73.375 41 72.25 41Z" fill="white"/>
</svg>
