<svg width="231" height="66" viewBox="0 0 231 66" fill="none" xmlns="http://www.w3.org/2000/svg">
<path fill-rule="evenodd" clip-rule="evenodd" d="M50.639 53.214C50.639 51.843 49.916 51.161 48.634 51.161H47.758V55.268H48.91C49.909 55.268 50.639 54.651 50.639 53.214M51.385 53.214C51.385 55.081 50.395 55.893 48.918 55.893H47.019V50.536H48.642C50.395 50.536 51.385 51.534 51.385 53.214" fill="#4A9443"/>
<path fill-rule="evenodd" clip-rule="evenodd" d="M55.858 53.953L55.136 52.013C55.079 51.859 55.022 51.664 54.965 51.453H54.949C54.892 51.664 54.836 51.859 54.778 52.013L54.065 53.953H55.858ZM56.085 54.561H53.837L53.342 55.892H52.579L54.592 50.536H55.331L57.343 55.892H56.581L56.085 54.561V54.561Z" fill="#4A9443"/>
<path fill-rule="evenodd" clip-rule="evenodd" d="M59.592 51.161H57.871V50.536H62.051V51.161H60.33V55.892H59.592V51.161" fill="#4A9443"/>
<path fill-rule="evenodd" clip-rule="evenodd" d="M65.858 53.953L65.136 52.013C65.079 51.859 65.023 51.664 64.965 51.453H64.949C64.892 51.664 64.836 51.859 64.779 52.013L64.065 53.953H65.858ZM66.086 54.561H63.837L63.342 55.892H62.579L64.592 50.536H65.331L67.343 55.892H66.581L66.086 54.561V54.561Z" fill="#4A9443"/>
<path fill-rule="evenodd" clip-rule="evenodd" d="M68.513 53.523H70.656V52.988H68.513V53.523Z" fill="#4A9443"/>
<path fill-rule="evenodd" clip-rule="evenodd" d="M76.281 53.214C76.281 51.843 75.558 51.161 74.276 51.161H73.4V55.268H74.552C75.551 55.268 76.281 54.651 76.281 53.214M77.027 53.214C77.027 55.081 76.037 55.893 74.56 55.893H72.661V50.536H74.284C76.037 50.536 77.027 51.534 77.027 53.214" fill="#4A9443"/>
<path fill-rule="evenodd" clip-rule="evenodd" d="M80.437 53.255C81.191 53.255 81.76 52.882 81.76 52.2C81.76 51.51 81.321 51.161 80.51 51.161H79.666V53.255H80.437ZM82.985 55.901C82.985 55.901 82.782 55.942 82.547 55.942C81.045 55.942 81.492 53.831 80.096 53.831H79.666V55.893H78.927V50.536H80.542C81.792 50.536 82.506 51.039 82.506 52.2C82.506 52.946 82.011 53.466 81.305 53.701C81.995 54.091 82.003 55.349 82.766 55.349C82.863 55.349 82.928 55.333 82.928 55.333L82.985 55.901V55.901Z" fill="#4A9443"/>
<path fill-rule="evenodd" clip-rule="evenodd" d="M84.601 55.892H85.339V50.536H84.601V55.892Z" fill="#4A9443"/>
<path fill-rule="evenodd" clip-rule="evenodd" d="M89.13 54.416C89.187 54.569 89.243 54.765 89.3 54.976H89.317C89.373 54.765 89.43 54.594 89.495 54.416L90.891 50.536H91.654L89.657 55.893H88.935L86.971 50.536H87.75L89.13 54.416" fill="#4A9443"/>
<path fill-rule="evenodd" clip-rule="evenodd" d="M94.009 51.161V52.8H96.305V53.425H94.009V55.267H96.59V55.892H93.27V50.536H96.59V51.161H94.009" fill="#4A9443"/>
<path fill-rule="evenodd" clip-rule="evenodd" d="M102.726 55.893H101.923L99.796 52.533C99.585 52.192 99.269 51.632 99.228 51.542L99.187 51.567C99.212 51.64 99.236 52.095 99.236 52.525L99.252 55.893H98.514V50.537H99.333L101.46 53.929C101.793 54.464 101.939 54.773 102.003 54.903L102.052 54.878C102.044 54.765 102.003 54.368 102.003 53.913L101.987 50.537H102.726V55.893" fill="#4A9443"/>
<path fill-rule="evenodd" clip-rule="evenodd" d="M111.931 50.536V55.892H111.193V53.425H108.311V55.892H107.573V50.536H108.311V52.8H111.193V50.536H111.931" fill="#4A9443"/>
<path fill-rule="evenodd" clip-rule="evenodd" d="M114.862 51.161V52.8H117.158V53.425H114.862V55.267H117.443V55.892H114.123V50.536H117.443V51.161H114.862" fill="#4A9443"/>
<path fill-rule="evenodd" clip-rule="evenodd" d="M122.069 53.953L121.347 52.013C121.29 51.859 121.234 51.664 121.176 51.453H121.16C121.103 51.664 121.047 51.859 120.99 52.013L120.276 53.953H122.069ZM122.297 54.561H120.048L119.553 55.892H118.79L120.803 50.536H121.542L123.554 55.892H122.792L122.297 54.561V54.561Z" fill="#4A9443"/>
<path fill-rule="evenodd" clip-rule="evenodd" d="M128.579 55.268V55.893H125.17V50.537H125.909V55.268H128.579" fill="#4A9443"/>
<path fill-rule="evenodd" clip-rule="evenodd" d="M130.503 51.161H128.783V50.536H132.962V51.161H131.242V55.892H130.503V51.161" fill="#4A9443"/>
<path fill-rule="evenodd" clip-rule="evenodd" d="M138.928 50.536V55.892H138.19V53.425H135.308V55.892H134.57V50.536H135.308V52.8H138.19V50.536H138.928" fill="#4A9443"/>
<path fill-rule="evenodd" clip-rule="evenodd" d="M145.276 52.297L144.578 52.411C144.578 51.9 144.221 51.137 143.255 51.137C142.33 51.137 141.575 51.892 141.575 53.214C141.575 54.692 142.443 55.292 143.384 55.292C144.083 55.292 144.594 54.87 144.878 54.481L145.324 54.935C145.162 55.162 144.553 55.942 143.368 55.942C141.859 55.942 140.828 54.935 140.828 53.214C140.828 51.567 141.834 50.487 143.247 50.487C144.748 50.487 145.267 51.599 145.276 52.297" fill="#4A9443"/>
<path fill-rule="evenodd" clip-rule="evenodd" d="M149.756 53.953L149.034 52.013C148.977 51.859 148.92 51.664 148.863 51.453H148.847C148.79 51.664 148.733 51.859 148.676 52.013L147.962 53.953H149.756ZM149.983 54.561H147.735L147.24 55.892H146.477L148.49 50.536H149.229L151.241 55.892H150.478L149.983 54.561V54.561Z" fill="#4A9443"/>
<path fill-rule="evenodd" clip-rule="evenodd" d="M154.367 53.255C155.122 53.255 155.69 52.882 155.69 52.2C155.69 51.51 155.251 51.161 154.44 51.161H153.596V53.255H154.367ZM156.915 55.901C156.915 55.901 156.713 55.942 156.477 55.942C154.976 55.942 155.422 53.831 154.026 53.831H153.596V55.893H152.858V50.536H154.472C155.722 50.536 156.436 51.039 156.436 52.2C156.436 52.946 155.942 53.466 155.235 53.701C155.925 54.091 155.933 55.349 156.696 55.349C156.793 55.349 156.859 55.333 156.859 55.333L156.915 55.901V55.901Z" fill="#4A9443"/>
<path fill-rule="evenodd" clip-rule="evenodd" d="M159.269 51.161V52.8H161.567V53.425H159.269V55.267H161.851V55.892H158.531V50.536H161.851V51.161H159.269" fill="#4A9443"/>
<path fill-rule="evenodd" clip-rule="evenodd" d="M50.639 62.955C50.639 61.583 49.916 60.901 48.634 60.901H47.758V65.008H48.91C49.909 65.008 50.639 64.392 50.639 62.955M51.385 62.955C51.385 64.821 50.395 65.633 48.918 65.633H47.019V60.276H48.642C50.395 60.276 51.385 61.275 51.385 62.955" fill="#4A9443"/>
<path fill-rule="evenodd" clip-rule="evenodd" d="M53.286 65.633H54.025V60.277H53.286V65.633Z" fill="#4A9443"/>
<path fill-rule="evenodd" clip-rule="evenodd" d="M60.46 65.633H60.014C59.989 65.552 59.932 65.252 59.9 64.878C59.599 65.431 59.015 65.682 58.285 65.682C56.873 65.682 55.923 64.594 55.923 62.955C55.923 61.307 56.929 60.228 58.334 60.228C59.835 60.228 60.362 61.267 60.362 61.957L59.681 62.07C59.681 61.559 59.307 60.877 58.341 60.877C57.424 60.877 56.67 61.624 56.67 62.955C56.67 64.196 57.319 65.032 58.39 65.032C59.364 65.032 59.851 64.416 59.851 63.718V63.605H58.139V62.987H60.46V65.633" fill="#4A9443"/>
<path fill-rule="evenodd" clip-rule="evenodd" d="M62.426 65.633H63.164V60.277H62.426V65.633Z" fill="#4A9443"/>
<path fill-rule="evenodd" clip-rule="evenodd" d="M66.492 60.902H64.771V60.277H68.951V60.902H67.23V65.633H66.492V60.902" fill="#4A9443"/>
<path fill-rule="evenodd" clip-rule="evenodd" d="M72.758 63.694L72.036 61.755C71.979 61.6 71.922 61.405 71.865 61.194H71.849C71.792 61.405 71.736 61.6 71.678 61.755L70.965 63.694H72.758ZM72.986 64.302H70.737L70.242 65.633H69.479L71.492 60.277H72.231L74.243 65.633H73.481L72.986 64.302V64.302Z" fill="#4A9443"/>
<path fill-rule="evenodd" clip-rule="evenodd" d="M79.268 65.008V65.633H75.859V60.277H76.598V65.008H79.268" fill="#4A9443"/>
<path fill-rule="evenodd" clip-rule="evenodd" d="M88.724 65.633H87.985L88.002 62.338C88.002 62.111 88.026 61.681 88.034 61.64L88.002 61.632C87.977 61.722 87.864 62.103 87.799 62.241L86.248 65.65H85.794L84.187 62.184C84.065 61.924 84.016 61.673 84.009 61.632L83.976 61.64C83.984 61.681 84.009 62.111 84.009 62.338L84.025 65.633H83.287V60.277H84.09L85.713 63.831C85.81 64.051 85.964 64.44 86.013 64.578H86.03C86.07 64.44 86.24 64.051 86.338 63.831L87.961 60.277H88.724V65.633" fill="#4A9443"/>
<path fill-rule="evenodd" clip-rule="evenodd" d="M93.618 63.694L92.896 61.755C92.839 61.6 92.783 61.405 92.725 61.194H92.709C92.652 61.405 92.596 61.6 92.539 61.755L91.825 63.694H93.618ZM93.846 64.302H91.597L91.102 65.633H90.339L92.352 60.277H93.091L95.103 65.633H94.341L93.846 64.302V64.302Z" fill="#4A9443"/>
<path fill-rule="evenodd" clip-rule="evenodd" d="M98.229 62.995C98.984 62.995 99.552 62.622 99.552 61.94C99.552 61.25 99.114 60.901 98.302 60.901H97.458V62.995H98.229ZM100.777 65.641C100.777 65.641 100.575 65.682 100.339 65.682C98.838 65.682 99.284 63.571 97.888 63.571H97.458V65.633H96.72V60.276H98.334C99.584 60.276 100.298 60.779 100.298 61.94C100.298 62.687 99.804 63.207 99.097 63.442C99.788 63.831 99.795 65.09 100.559 65.09C100.656 65.09 100.721 65.073 100.721 65.073L100.777 65.641V65.641Z" fill="#4A9443"/>
<path fill-rule="evenodd" clip-rule="evenodd" d="M103.732 63.328H103.132V65.633H102.393V60.276H103.132V62.703H103.732L105.583 60.276H106.37L104.26 63.019L106.394 65.625H105.583L103.732 63.328" fill="#4A9443"/>
<path fill-rule="evenodd" clip-rule="evenodd" d="M108.692 60.902V62.542H110.989V63.167H108.692V65.008H111.273V65.633H107.954V60.277H111.273V60.902H108.692" fill="#4A9443"/>
<path fill-rule="evenodd" clip-rule="evenodd" d="M114.334 60.902H112.613V60.277H116.793V60.902H115.072V65.633H114.334V60.902" fill="#4A9443"/>
<path fill-rule="evenodd" clip-rule="evenodd" d="M118.4 65.633H119.138V60.277H118.4V65.633Z" fill="#4A9443"/>
<path fill-rule="evenodd" clip-rule="evenodd" d="M125.543 65.633H124.739L122.613 62.273C122.402 61.932 122.085 61.372 122.044 61.283L122.004 61.307C122.028 61.381 122.053 61.835 122.053 62.265L122.069 65.633H121.331V60.277H122.15L124.277 63.669C124.61 64.204 124.756 64.513 124.82 64.643L124.869 64.618C124.861 64.505 124.82 64.108 124.82 63.653L124.804 60.277H125.543V65.633" fill="#4A9443"/>
<path fill-rule="evenodd" clip-rule="evenodd" d="M131.98 65.633H131.534C131.509 65.552 131.452 65.252 131.42 64.878C131.119 65.431 130.535 65.682 129.805 65.682C128.393 65.682 127.443 64.594 127.443 62.955C127.443 61.307 128.449 60.228 129.854 60.228C131.355 60.228 131.882 61.267 131.882 61.957L131.201 62.07C131.201 61.559 130.827 60.877 129.861 60.877C128.944 60.877 128.19 61.624 128.19 62.955C128.19 64.196 128.839 65.032 129.91 65.032C130.884 65.032 131.372 64.416 131.372 63.718V63.605H129.659V62.987H131.98V65.633" fill="#4A9443"/>
<path fill-rule="evenodd" clip-rule="evenodd" d="M51.38 7.21999C49.918 7.21999 48.675 7.57899 47.651 8.29799C46.628 9.01799 45.872 9.98699 45.384 11.204C44.531 13.423 44.105 15.824 44.105 18.407C44.105 21.112 44.531 23.684 45.384 26.12C45.872 27.437 46.628 28.496 47.651 29.301C48.675 30.106 49.918 30.508 51.38 30.508C54.865 30.508 57.047 28.082 57.924 23.233L60.446 23.818C59.154 29.765 56.12 32.738 51.343 32.738C49.759 32.738 48.352 32.427 47.121 31.805C45.89 31.184 44.909 30.398 44.178 29.448C43.447 28.496 42.849 27.364 42.387 26.047C41.583 23.806 41.18 21.295 41.18 18.517C41.18 15.933 41.583 13.557 42.387 11.387C42.849 10.145 43.447 9.06699 44.178 8.15299C44.909 7.23899 45.897 6.48299 47.139 5.88599C48.382 5.28799 49.796 4.98999 51.38 4.98999C54.036 4.98999 56.754 5.68499 59.533 7.07399L58.582 9.26699C56.12 7.90299 53.72 7.21999 51.38 7.21999" fill="#005A83"/>
<path fill-rule="evenodd" clip-rule="evenodd" d="M66.99 5.173V28.24C66.99 29.581 67.514 30.251 68.562 30.251C68.927 30.251 69.44 30.178 70.097 30.032L70.427 32.226C69.476 32.542 68.537 32.701 67.612 32.701C65.272 32.701 64.102 31.324 64.102 28.569V6.233L61.908 5.941V4.039H65.893C66.625 4.039 66.99 4.417 66.99 5.173" fill="#005A83"/>
<path fill-rule="evenodd" clip-rule="evenodd" d="M85.086 21.843C78.359 21.843 74.996 23.525 74.996 26.888C74.996 28.01 75.307 28.881 75.928 29.502C76.549 30.123 77.42 30.435 78.542 30.435C80.296 30.435 81.808 29.728 83.075 28.314C84.342 26.901 85.013 24.89 85.086 22.281V21.843ZM85.086 28.57V28.058C83.501 31.154 81.015 32.701 77.628 32.701C75.995 32.701 74.69 32.201 73.716 31.202C72.741 30.203 72.254 28.838 72.254 27.108C72.254 24.743 73.229 22.964 75.178 21.77C77.128 20.576 80.43 19.979 85.086 19.979V18.444C85.086 16.348 84.708 14.909 83.952 14.129C83.197 13.35 81.972 12.959 80.278 12.959C78.584 12.959 76.69 13.544 74.594 14.714L73.643 12.521C76.153 11.351 78.542 10.766 80.809 10.766C84.342 10.766 86.548 12.009 87.426 14.495C87.791 15.519 87.974 16.762 87.974 18.224V28.24C87.974 29.581 88.486 30.251 89.509 30.251C89.851 30.251 90.35 30.178 91.008 30.032L91.337 32.226C90.387 32.542 89.46 32.701 88.559 32.701C86.243 32.701 85.086 31.324 85.086 28.57V28.57Z" fill="#005A83"/>
<path fill-rule="evenodd" clip-rule="evenodd" d="M98.941 21.953V30.033L102.597 30.289V32.189H93.494V30.289L96.053 30.033V13.472L93.494 13.18V11.278H97.369C98.124 11.278 98.503 11.657 98.503 12.412V16.945C99.16 15.264 100.153 13.832 101.482 12.649C102.81 11.468 104.412 10.84 106.289 10.766V13.289C104.242 13.362 102.505 14.191 101.08 15.775C99.654 17.359 98.941 19.419 98.941 21.953" fill="#005A83"/>
<path fill-rule="evenodd" clip-rule="evenodd" d="M113.492 12.411V28.24C113.492 29.581 114.028 30.251 115.1 30.251C115.514 30.251 116.014 30.178 116.599 30.032L116.965 32.225C115.965 32.542 114.942 32.701 113.894 32.701C111.724 32.701 110.64 31.324 110.64 28.569V13.471L108.447 13.179V11.277H112.395C113.126 11.277 113.492 11.656 113.492 12.411" fill="#005A83"/>
<path fill-rule="evenodd" clip-rule="evenodd" d="M117.549 13.288V11.277H120.73V6.525L123.617 5.867V11.277H127.603V13.288H123.617V28.24C123.617 29.557 124.153 30.215 125.226 30.215C125.933 30.215 126.615 30.081 127.274 29.812L127.603 32.043C126.457 32.481 125.305 32.701 124.148 32.701C122.99 32.701 122.131 32.365 121.57 31.695C121.009 31.025 120.73 29.959 120.73 28.496V13.288H117.549" fill="#005A83"/>
<path fill-rule="evenodd" clip-rule="evenodd" d="M148.733 12.411V28.24C148.733 29.581 149.269 30.251 150.341 30.251C150.95 30.251 151.45 30.178 151.84 30.032L152.206 32.225C151.206 32.542 150.268 32.701 149.391 32.701C147.417 32.701 146.271 31.763 145.954 29.886C143.419 31.763 141.001 32.701 138.698 32.701C136.395 32.701 134.768 32.171 133.817 31.11C132.867 30.05 132.391 28.399 132.391 26.157V13.471L129.832 13.179V11.277H134.036C134.865 11.277 135.279 11.656 135.279 12.411V26.157C135.279 27.692 135.554 28.802 136.102 29.483C136.65 30.166 137.594 30.508 138.935 30.508C141.25 30.508 143.566 29.557 145.881 27.655V13.471L143.688 13.179V11.277H147.636C148.367 11.277 148.733 11.656 148.733 12.411" fill="#005A83"/>
<path fill-rule="evenodd" clip-rule="evenodd" d="M159.956 21.953V30.033L163.612 30.289V32.189H154.509V30.289L157.068 30.033V13.472L154.509 13.18V11.278H158.384C159.139 11.278 159.518 11.657 159.518 12.412V16.945C160.175 15.264 161.168 13.832 162.497 12.649C163.825 11.468 165.427 10.84 167.304 10.766V13.289C165.257 13.362 163.52 14.191 162.095 15.775C160.669 17.359 159.956 19.419 159.956 21.953" fill="#005A83"/>
<path fill-rule="evenodd" clip-rule="evenodd" d="M180.904 14.989C179.928 13.661 178.528 12.997 176.7 12.997C174.872 12.997 173.494 13.691 172.569 15.08C171.642 16.469 171.093 18.213 170.923 20.308H182.366C182.366 18.091 181.878 16.318 180.904 14.989M185.254 22.355H170.85C170.85 25.061 171.532 27.169 172.898 28.68C173.969 29.875 175.438 30.471 177.303 30.471C179.167 30.471 181.172 29.923 183.317 28.826L184.231 30.947C181.769 32.116 179.581 32.702 177.668 32.702C175.755 32.702 174.183 32.39 172.952 31.769C171.721 31.148 170.753 30.313 170.046 29.265C168.681 27.144 167.999 24.744 167.999 22.063C167.999 18.943 168.656 16.323 169.973 14.203C170.655 13.131 171.587 12.29 172.77 11.68C173.951 11.072 175.334 10.766 176.919 10.766C179.527 10.766 181.568 11.657 183.043 13.435C184.517 15.215 185.254 17.591 185.254 20.564V22.355" fill="#005A83"/>
<path fill-rule="evenodd" clip-rule="evenodd" d="M113.084 3.76398C111.557 4.34798 110.437 5.21798 109.611 6.15998C110.88 7.18998 112.195 7.72698 113.422 7.97098C113.68 6.35598 113.487 4.94998 113.084 3.76398" fill="#4A9443"/>
<path fill-rule="evenodd" clip-rule="evenodd" d="M13.841 16.52L17.268 14.563L11.8 11.373L10.297 12.232L10.279 16.178L11.782 15.32L13.841 16.52" fill="#4A9443"/>
<path fill-rule="evenodd" clip-rule="evenodd" d="M23.459 19.102L23.441 23.049L28.95 19.902L28.955 18.883L25.546 16.894L25.541 17.913L23.459 19.102" fill="#005A83"/>
<path fill-rule="evenodd" clip-rule="evenodd" d="M15.798 25.766L12.389 23.778L12.357 30.835L13.865 31.715L17.292 29.757L15.784 28.877L15.798 25.766" fill="#2AB7CB"/>
<path fill-rule="evenodd" clip-rule="evenodd" d="M29.401 14.692L28.975 14.443L25.566 12.455L25.14 12.206L23.713 11.373L18.123 14.567L17.694 14.811L14.268 16.769L13.839 17.013L12.417 17.827L12.412 18.845L15.821 20.834L15.826 19.815L17.248 19.003L17.676 18.757L21.103 16.8L21.531 16.555L23.694 15.32L25.122 16.153L25.548 16.401L28.957 18.389L29.383 18.638L31.522 19.886L31.481 28.949L23.612 33.444L21.554 32.243L18.127 34.201L23.594 37.39L34.89 30.937L34.948 17.928L29.401 14.692" fill="#2AB7CB"/>
<path fill-rule="evenodd" clip-rule="evenodd" d="M21.529 17.048L18.103 19.006L19.611 19.886L19.607 20.812L19.604 21.305L19.587 25.251L19.584 25.744L19.57 28.948L18.147 29.761L17.719 30.006L13.863 32.208L11.701 33.444L3.873 28.877L3.914 19.815L5.996 18.625L6.014 14.679L0.505999 17.826L0.445999 30.835L11.683 37.39L17.273 34.196L17.701 33.952L21.128 31.994L21.556 31.749L22.978 30.937L23.011 23.786L23.013 23.293L23.031 19.347L23.037 17.928L21.529 17.048" fill="#4A9443"/>
<path fill-rule="evenodd" clip-rule="evenodd" d="M17.772 0.336975L6.477 6.78998L6.444 13.941L6.442 14.434L6.418 19.799L11.965 23.036L12.392 23.284L15.8 25.274L16.226 25.522L17.654 26.355L19.158 25.495L19.175 21.549L17.672 22.408L16.244 21.575L15.818 21.326L12.41 19.338L11.983 19.09L9.844 17.842L9.848 16.916L9.851 16.423L9.869 12.477L9.885 8.77898L17.754 4.28298L25.582 8.84997L25.568 11.961L28.977 13.949L29.008 6.89298L17.772 0.336975" fill="#005A83"/>
<path fill-rule="evenodd" clip-rule="evenodd" d="M202.648 15.464L202.002 13.729C201.951 13.59 201.9 13.416 201.849 13.228H201.835C201.784 13.416 201.733 13.59 201.682 13.729L201.043 15.464H202.648ZM202.852 16.009H200.84L200.397 17.199H199.714L201.516 12.406H202.176L203.977 17.199H203.294L202.852 16.009V16.009Z" fill="#2AB7CB"/>
<path fill-rule="evenodd" clip-rule="evenodd" d="M206.97 12.966H205.43V12.406H209.17V12.966H207.631V17.199H206.97V12.966" fill="#2AB7CB"/>
<path fill-rule="evenodd" clip-rule="evenodd" d="M211.125 13.786L210.964 14.432C210.892 14.39 210.791 14.352 210.646 14.352C210.261 14.352 209.825 14.694 209.825 15.406V17.199H209.185V13.771L209.636 13.75C209.694 14.012 209.723 14.396 209.723 14.549H209.752C209.882 14.098 210.173 13.728 210.682 13.728C210.834 13.728 210.994 13.75 211.125 13.786" fill="#2AB7CB"/>
<path fill-rule="evenodd" clip-rule="evenodd" d="M211.698 13.772L212.344 13.751V17.2H211.698V13.772ZM212.039 13.089C211.792 13.089 211.596 12.909 211.596 12.662C211.596 12.415 211.792 12.225 212.039 12.225C212.286 12.225 212.49 12.415 212.49 12.662C212.49 12.909 212.286 13.089 212.039 13.089V13.089Z" fill="#2AB7CB"/>
<path fill-rule="evenodd" clip-rule="evenodd" d="M213.376 17.2H214.015V12.073H213.376V17.2Z" fill="#2AB7CB"/>
<path fill-rule="evenodd" clip-rule="evenodd" d="M215.046 17.2H215.685V12.073H215.046V17.2Z" fill="#2AB7CB"/>
<path fill-rule="evenodd" clip-rule="evenodd" d="M216.717 13.772L217.363 13.751V17.2H216.717V13.772ZM217.058 13.089C216.811 13.089 216.615 12.909 216.615 12.662C216.615 12.415 216.811 12.225 217.058 12.225C217.305 12.225 217.509 12.415 217.509 12.662C217.509 12.909 217.305 13.089 217.058 13.089V13.089Z" fill="#2AB7CB"/>
<path fill-rule="evenodd" clip-rule="evenodd" d="M220.515 16.016V15.69H220.413C219.244 15.69 218.845 15.9 218.845 16.278C218.845 16.546 219.048 16.706 219.484 16.706C220.152 16.706 220.515 16.335 220.515 16.016M221.524 17.193C221.524 17.193 221.357 17.236 221.176 17.236C220.82 17.236 220.558 17.069 220.558 16.67V16.662H220.544C220.45 16.836 220.152 17.244 219.353 17.244C218.598 17.244 218.191 16.851 218.191 16.291C218.191 15.544 218.903 15.246 220.413 15.246H220.515V15.029C220.515 14.564 220.232 14.266 219.665 14.266C219.179 14.266 218.881 14.462 218.881 14.818C218.881 14.898 218.895 14.942 218.917 14.993L218.315 15.094C218.315 15.094 218.271 14.963 218.271 14.796C218.271 14.171 218.808 13.729 219.68 13.729C220.609 13.729 221.154 14.23 221.154 15.021V16.409C221.154 16.597 221.205 16.67 221.365 16.67C221.408 16.67 221.459 16.662 221.488 16.656L221.524 17.193" fill="#2AB7CB"/>
<path fill-rule="evenodd" clip-rule="evenodd" d="M225.381 15.101V17.2H224.735V15.101C224.735 14.6 224.452 14.266 223.936 14.266C223.224 14.266 222.905 14.913 222.905 15.407V17.2H222.266V13.772L222.716 13.75C222.774 14.012 222.803 14.397 222.803 14.549H222.825C223.006 14.121 223.392 13.729 224.045 13.729C224.865 13.729 225.381 14.281 225.381 15.101" fill="#2AB7CB"/>
<path fill-rule="evenodd" clip-rule="evenodd" d="M228.664 17.018C228.664 17.018 228.323 17.244 227.764 17.244C226.878 17.244 226.522 16.771 226.522 15.893V14.288H225.977V13.772H226.522V12.755L227.168 12.719V13.772H228.497V14.288H227.168V15.871C227.168 16.423 227.365 16.699 227.829 16.699C228.228 16.699 228.461 16.502 228.461 16.502L228.664 17.018" fill="#2AB7CB"/>
<path fill-rule="evenodd" clip-rule="evenodd" d="M204.13 19.669V24.462H203.469V22.255H200.891V24.462H200.23V19.669H200.891V21.695H203.469V19.669H204.13" fill="#2AB7CB"/>
<path fill-rule="evenodd" clip-rule="evenodd" d="M205.728 22.466H207.66C207.653 21.899 207.297 21.529 206.752 21.529C206.2 21.529 205.822 21.913 205.728 22.466M205.713 22.923C205.779 23.555 206.207 23.969 206.89 23.969C207.413 23.969 207.71 23.722 207.863 23.518L208.255 23.874C207.936 24.295 207.427 24.506 206.839 24.506C205.743 24.506 205.053 23.801 205.053 22.756C205.053 21.732 205.713 20.991 206.752 20.991C207.762 20.991 208.313 21.695 208.313 22.596C208.313 22.799 208.284 22.923 208.284 22.923H205.713" fill="#2AB7CB"/>
<path fill-rule="evenodd" clip-rule="evenodd" d="M211.24 23.279V22.953H211.138C209.969 22.953 209.57 23.163 209.57 23.541C209.57 23.809 209.773 23.969 210.209 23.969C210.877 23.969 211.24 23.598 211.24 23.279M212.25 24.456C212.25 24.456 212.082 24.499 211.901 24.499C211.545 24.499 211.284 24.332 211.284 23.933V23.925H211.269C211.175 24.1 210.877 24.507 210.078 24.507C209.323 24.507 208.916 24.114 208.916 23.555C208.916 22.807 209.628 22.509 211.138 22.509H211.24V22.292C211.24 21.827 210.957 21.529 210.39 21.529C209.904 21.529 209.606 21.725 209.606 22.081C209.606 22.161 209.621 22.205 209.642 22.256L209.04 22.357C209.04 22.357 208.996 22.226 208.996 22.059C208.996 21.434 209.533 20.992 210.405 20.992C211.334 20.992 211.879 21.493 211.879 22.284V23.672C211.879 23.86 211.93 23.933 212.09 23.933C212.133 23.933 212.184 23.925 212.213 23.919L212.25 24.456" fill="#2AB7CB"/>
<path fill-rule="evenodd" clip-rule="evenodd" d="M212.999 24.462H213.638V19.335H212.999V24.462Z" fill="#2AB7CB"/>
<path fill-rule="evenodd" clip-rule="evenodd" d="M217.029 24.281C217.029 24.281 216.688 24.507 216.129 24.507C215.243 24.507 214.887 24.034 214.887 23.156V21.551H214.342V21.035H214.887V20.018L215.533 19.982V21.035H216.862V21.551H215.533V23.135C215.533 23.686 215.729 23.962 216.194 23.962C216.593 23.962 216.825 23.765 216.825 23.765L217.029 24.281" fill="#2AB7CB"/>
<path fill-rule="evenodd" clip-rule="evenodd" d="M220.718 22.364V24.463H220.072V22.364C220.072 21.863 219.789 21.529 219.273 21.529C218.562 21.529 218.242 22.161 218.242 22.676V24.463H217.596V19.336H218.227V21.637H218.242C218.445 21.282 218.809 20.992 219.382 20.992C220.203 20.992 220.718 21.544 220.718 22.364" fill="#2AB7CB"/>
<path fill-rule="evenodd" clip-rule="evenodd" d="M203.949 28.508L203.324 28.61C203.324 28.153 203.005 27.47 202.141 27.47C201.313 27.47 200.637 28.145 200.637 29.328C200.637 30.651 201.414 31.188 202.257 31.188C202.881 31.188 203.339 30.81 203.593 30.462L203.992 30.868C203.847 31.071 203.303 31.769 202.242 31.769C200.892 31.769 199.969 30.868 199.969 29.328C199.969 27.855 200.87 26.889 202.133 26.889C203.477 26.889 203.942 27.883 203.949 28.508" fill="#2AB7CB"/>
<path fill-rule="evenodd" clip-rule="evenodd" d="M207.413 30.026C207.413 29.314 206.97 28.792 206.302 28.792C205.634 28.792 205.191 29.314 205.191 30.026C205.191 30.738 205.634 31.232 206.302 31.232C206.97 31.232 207.413 30.738 207.413 30.026M208.066 30.026C208.066 31.065 207.362 31.769 206.302 31.769C205.242 31.769 204.538 31.065 204.538 30.026C204.538 28.988 205.242 28.255 206.302 28.255C207.362 28.255 208.066 28.988 208.066 30.026" fill="#2AB7CB"/>
<path fill-rule="evenodd" clip-rule="evenodd" d="M214.335 29.641V31.725H213.689V29.641C213.689 29.14 213.405 28.806 212.89 28.806C212.243 28.806 211.924 29.438 211.924 29.932V31.725H211.277V29.641C211.277 29.14 210.994 28.806 210.479 28.806C209.832 28.806 209.513 29.438 209.513 29.932V31.725H208.874V28.297L209.324 28.276C209.382 28.537 209.411 28.922 209.411 29.075C209.585 28.639 209.963 28.269 210.587 28.269C211.197 28.269 211.641 28.574 211.822 29.068C212.003 28.631 212.381 28.269 212.999 28.269C213.819 28.269 214.335 28.821 214.335 29.641" fill="#2AB7CB"/>
<path fill-rule="evenodd" clip-rule="evenodd" d="M218.14 30.019C218.14 29.286 217.719 28.791 217.043 28.791C216.317 28.791 215.954 29.438 215.954 29.947V30.084C215.954 30.6 216.295 31.232 217.087 31.232C217.726 31.232 218.14 30.745 218.14 30.019M218.794 30.019C218.794 31.072 218.125 31.769 217.123 31.769C216.586 31.769 216.186 31.515 215.954 31.16V33.207H215.315V28.297L215.765 28.276C215.816 28.508 215.86 28.937 215.852 29.075H215.86C216.048 28.631 216.455 28.254 217.16 28.254C218.125 28.254 218.794 28.958 218.794 30.019" fill="#2AB7CB"/>
<path fill-rule="evenodd" clip-rule="evenodd" d="M221.735 30.541V30.215H221.633C220.464 30.215 220.065 30.425 220.065 30.803C220.065 31.071 220.268 31.231 220.704 31.231C221.372 31.231 221.735 30.861 221.735 30.541M222.744 31.718C222.744 31.718 222.577 31.761 222.396 31.761C222.04 31.761 221.778 31.595 221.778 31.195V31.187H221.764C221.67 31.362 221.372 31.769 220.573 31.769C219.818 31.769 219.411 31.377 219.411 30.817C219.411 30.069 220.123 29.771 221.633 29.771H221.735V29.554C221.735 29.089 221.451 28.791 220.885 28.791C220.399 28.791 220.101 28.987 220.101 29.343C220.101 29.423 220.115 29.467 220.137 29.518L219.534 29.619C219.534 29.619 219.491 29.488 219.491 29.321C219.491 28.697 220.028 28.254 220.9 28.254C221.829 28.254 222.374 28.755 222.374 29.546V30.934C222.374 31.122 222.425 31.195 222.585 31.195C222.628 31.195 222.679 31.187 222.708 31.181L222.744 31.718" fill="#2AB7CB"/>
<path fill-rule="evenodd" clip-rule="evenodd" d="M226.601 29.626V31.725H225.955V29.626C225.955 29.125 225.671 28.791 225.156 28.791C224.444 28.791 224.125 29.438 224.125 29.932V31.725H223.486V28.297L223.936 28.275C223.994 28.537 224.023 28.922 224.023 29.074H224.045C224.226 28.646 224.611 28.254 225.265 28.254C226.086 28.254 226.601 28.806 226.601 29.626" fill="#2AB7CB"/>
<path fill-rule="evenodd" clip-rule="evenodd" d="M227.843 33.244C227.516 33.244 227.313 33.135 227.313 33.135L227.429 32.604C227.429 32.604 227.589 32.691 227.8 32.691C228.155 32.691 228.308 32.459 228.424 32.154L228.554 31.813L227.102 28.298H227.821L228.765 30.695C228.838 30.869 228.852 30.928 228.882 31.072H228.889C228.918 30.913 228.947 30.848 229.005 30.695L229.964 28.298H230.617L228.99 32.336C228.795 32.845 228.475 33.244 227.843 33.244" fill="#2AB7CB"/>
<path d="M192.522 9.61902V33.163" stroke="#2AB7CB" stroke-width="0.32"/>
<path fill-rule="evenodd" clip-rule="evenodd" d="M162.36 35.08V40.15H161.661V37.814H158.933V40.15H158.235V35.08H158.933V37.224H161.661V35.08H162.36" fill="#005A83"/>
<path fill-rule="evenodd" clip-rule="evenodd" d="M164.558 35.672V37.224H166.732V37.815H164.558V39.559H167.001V40.151H163.859V35.08H167.001V35.672H164.558" fill="#005A83"/>
<path fill-rule="evenodd" clip-rule="evenodd" d="M170.804 38.315L170.12 36.479C170.067 36.333 170.013 36.148 169.959 35.949H169.944C169.89 36.148 169.836 36.333 169.783 36.479L169.107 38.315H170.804ZM171.019 38.891H168.891L168.423 40.151H167.7L169.606 35.081H170.305L172.21 40.151H171.488L171.019 38.891V38.891Z" fill="#005A83"/>
<path fill-rule="evenodd" clip-rule="evenodd" d="M176.39 39.559V40.151H173.163V35.08H173.863V39.559H176.39" fill="#005A83"/>
<path fill-rule="evenodd" clip-rule="evenodd" d="M177.635 35.672H176.006V35.08H179.963V35.672H178.334V40.151H177.635V35.672" fill="#005A83"/>
<path fill-rule="evenodd" clip-rule="evenodd" d="M185.033 35.08V40.15H184.334V37.814H181.607V40.15H180.908V35.08H181.607V37.224H184.334V35.08H185.033" fill="#005A83"/>
</svg>
