<svg width="328" height="207" viewBox="0 0 328 207" fill="none" xmlns="http://www.w3.org/2000/svg">
<path fill-rule="evenodd" clip-rule="evenodd" d="M152.855 47.677L162.773 42.011L146.949 32.779L142.597 35.265L142.545 46.687L146.897 44.201L152.855 47.677" fill="#4A9443"/>
<path fill-rule="evenodd" clip-rule="evenodd" d="M180.692 55.151L180.64 66.574L196.584 57.465L196.597 54.516L186.732 48.759L186.718 51.708L180.692 55.151" fill="#005A83"/>
<path fill-rule="evenodd" clip-rule="evenodd" d="M158.519 74.44L148.653 68.684L148.561 89.11L152.925 91.657L162.844 85.99L158.478 83.444L158.519 74.44" fill="#2AB7CB"/>
<path fill-rule="evenodd" clip-rule="evenodd" d="M197.889 42.385L196.656 41.665L186.79 35.909L185.557 35.19L181.425 32.779L165.245 42.022L164.006 42.731L154.088 48.397L152.848 49.105L148.732 51.457L148.718 54.406L158.584 60.162L158.597 57.213L162.714 54.861L163.954 54.153L173.872 48.487L175.112 47.778L181.373 44.201L196.604 53.088L197.837 53.807L204.029 57.419L203.91 83.649L181.135 96.66L175.177 93.185L165.258 98.851L181.083 108.083L213.776 89.406L213.947 51.753L197.889 42.385" fill="#2AB7CB"/>
<path fill-rule="evenodd" clip-rule="evenodd" d="M175.105 49.206L165.188 54.873L169.553 57.419L169.434 83.649L165.317 86.001L164.077 86.709L154.158 92.375L152.918 93.084L146.659 96.661L124.002 83.444L124.121 57.213L130.147 53.77L130.2 42.348L114.255 51.457L114.084 89.11L146.606 108.083L162.786 98.84L164.025 98.132L173.944 92.465L179.3 89.406L179.471 51.753L175.105 49.206" fill="#4A9443"/>
<path fill-rule="evenodd" clip-rule="evenodd" d="M164.233 0.838013L131.54 19.516L131.369 57.168L147.426 66.537L148.66 67.256L158.525 73.012L159.758 73.732L163.891 76.142L168.243 73.656L168.294 62.234L163.942 64.72L159.81 62.31L158.577 61.59L148.712 55.835L147.479 55.115L141.286 51.503L141.405 25.273L164.181 12.26L186.837 25.478L186.796 34.483L196.662 40.238L196.755 19.813L164.233 0.838013" fill="#005A83"/>
<path fill-rule="evenodd" clip-rule="evenodd" d="M23.706 132.128C20.388 132.128 17.567 132.944 15.245 134.574C12.922 136.206 11.207 138.404 10.102 141.169C8.165 146.202 7.199 151.649 7.199 157.511C7.199 163.649 8.165 169.484 10.102 175.014C11.207 177.999 12.922 180.405 15.245 182.23C17.567 184.055 20.388 184.968 23.706 184.968C31.613 184.968 36.563 179.465 38.554 168.46L44.278 169.787C41.346 183.281 34.461 190.027 23.623 190.027C20.028 190.027 16.834 189.322 14.042 187.912C11.249 186.502 9.023 184.719 7.365 182.562C5.706 180.405 4.35 177.833 3.3 174.848C1.475 169.761 0.561996 164.064 0.561996 157.76C0.561996 151.899 1.475 146.507 3.3 141.584C4.35 138.764 5.706 136.316 7.365 134.243C9.023 132.169 11.263 130.455 14.083 129.1C16.904 127.745 20.11 127.067 23.706 127.067C29.733 127.067 35.899 128.644 42.204 131.796L40.047 136.773C34.461 133.677 29.015 132.128 23.706 132.128" fill="#005A83"/>
<path fill-rule="evenodd" clip-rule="evenodd" d="M59.124 127.483V179.825C59.124 182.867 60.312 184.387 62.691 184.387C63.52 184.387 64.682 184.221 66.175 183.889L66.921 188.867C64.765 189.585 62.635 189.945 60.534 189.945C55.225 189.945 52.571 186.822 52.571 180.572V129.888L47.594 129.224V124.912H56.635C58.294 124.912 59.124 125.769 59.124 127.483" fill="#005A83"/>
<path fill-rule="evenodd" clip-rule="evenodd" d="M100.184 165.308C84.921 165.308 77.289 169.124 77.289 176.755C77.289 179.3 77.995 181.277 79.405 182.687C80.815 184.097 82.791 184.802 85.336 184.802C89.317 184.802 92.746 183.199 95.622 179.991C98.497 176.785 100.018 172.222 100.184 166.303V165.308ZM100.184 180.572V179.411C96.589 186.434 90.948 189.945 83.262 189.945C79.557 189.945 76.598 188.811 74.386 186.544C72.174 184.277 71.068 181.181 71.068 177.253C71.068 171.89 73.279 167.852 77.704 165.142C82.128 162.434 89.621 161.078 100.184 161.078V157.594C100.184 152.838 99.326 149.577 97.613 147.806C95.898 146.037 93.119 145.151 89.276 145.151C85.432 145.151 81.132 146.478 76.377 149.132L74.221 144.156C79.915 141.501 85.336 140.174 90.479 140.174C98.497 140.174 103.502 142.995 105.493 148.635C106.323 150.957 106.738 153.779 106.738 157.096V179.825C106.738 182.867 107.899 184.387 110.222 184.387C110.995 184.387 112.129 184.221 113.622 183.889L114.369 188.867C112.212 189.584 110.11 189.945 108.064 189.945C102.81 189.945 100.184 186.822 100.184 180.572V180.572Z" fill="#005A83"/>
<path fill-rule="evenodd" clip-rule="evenodd" d="M131.623 165.557V183.889L139.918 184.47V188.784H119.264V184.47L125.07 183.889V146.312L119.264 145.649V141.335H128.056C129.769 141.335 130.628 142.194 130.628 143.908V154.193C132.121 150.377 134.374 147.129 137.389 144.446C140.402 141.765 144.037 140.34 148.296 140.174V145.898C143.651 146.064 139.711 147.944 136.476 151.538C133.241 155.134 131.623 159.807 131.623 165.557" fill="#005A83"/>
<path fill-rule="evenodd" clip-rule="evenodd" d="M164.637 143.908V179.825C164.637 182.867 165.853 184.387 168.287 184.387C169.227 184.387 170.361 184.221 171.688 183.889L172.518 188.867C170.249 189.585 167.927 189.945 165.55 189.945C160.627 189.945 158.167 186.822 158.167 180.572V146.312L153.19 145.649V141.336H162.149C163.807 141.336 164.637 142.194 164.637 143.908" fill="#005A83"/>
<path fill-rule="evenodd" clip-rule="evenodd" d="M173.844 145.898V141.336H181.061V130.552L187.614 129.059V141.336H196.656V145.898H187.614V179.825C187.614 182.811 188.83 184.304 191.263 184.304C192.867 184.304 194.416 184.002 195.909 183.392L196.656 188.452C194.056 189.447 191.443 189.945 188.816 189.945C186.189 189.945 184.24 189.184 182.969 187.664C181.696 186.143 181.061 183.724 181.061 180.406V145.898H173.844" fill="#005A83"/>
<path fill-rule="evenodd" clip-rule="evenodd" d="M244.601 143.908V179.825C244.601 182.867 245.817 184.387 248.251 184.387C249.632 184.387 250.767 184.221 251.652 183.889L252.481 188.867C250.213 189.585 248.085 189.945 246.094 189.945C241.615 189.945 239.015 187.817 238.296 183.557C232.544 187.817 227.057 189.945 221.831 189.945C216.605 189.945 212.914 188.742 210.757 186.337C208.6 183.931 207.522 180.185 207.522 175.096V146.312L201.715 145.649V141.336H211.254C213.134 141.336 214.075 142.194 214.075 143.908V175.096C214.075 178.581 214.697 181.098 215.942 182.645C217.185 184.194 219.328 184.969 222.37 184.969C227.623 184.969 232.876 182.811 238.131 178.498V146.312L233.154 145.649V141.336H242.113C243.771 141.336 244.601 142.194 244.601 143.908" fill="#005A83"/>
<path fill-rule="evenodd" clip-rule="evenodd" d="M270.065 165.557V183.889L278.36 184.47V188.784H257.706V184.47L263.512 183.889V146.312L257.706 145.649V141.335H266.498C268.212 141.335 269.07 142.194 269.07 143.908V154.193C270.563 150.377 272.816 147.129 275.831 144.446C278.844 141.765 282.479 140.34 286.738 140.174V145.898C282.093 146.064 278.153 147.944 274.918 151.538C271.683 155.134 270.065 159.807 270.065 165.557" fill="#005A83"/>
<path fill-rule="evenodd" clip-rule="evenodd" d="M317.598 149.755C315.385 146.741 312.205 145.234 308.058 145.234C303.91 145.234 300.786 146.81 298.685 149.962C296.582 153.114 295.338 157.068 294.952 161.824H320.915C320.915 156.793 319.808 152.77 317.598 149.755M327.468 166.47H294.786C294.786 172.608 296.333 177.392 299.431 180.819C301.864 183.53 305.197 184.885 309.426 184.885C313.658 184.885 318.205 183.641 323.073 181.151L325.146 185.963C319.56 188.617 314.597 189.944 310.256 189.944C305.914 189.944 302.347 189.239 299.556 187.829C296.763 186.419 294.564 184.526 292.961 182.148C289.864 177.336 288.316 171.89 288.316 165.806C288.316 158.728 289.808 152.782 292.795 147.971C294.342 145.538 296.458 143.631 299.141 142.248C301.823 140.866 304.96 140.174 308.555 140.174C314.473 140.174 319.103 142.193 322.451 146.23C325.795 150.267 327.468 155.658 327.468 162.404V166.47" fill="#005A83"/>
<path fill-rule="evenodd" clip-rule="evenodd" d="M163.712 124.286C160.248 125.612 157.704 127.587 155.832 129.723C158.711 132.059 161.694 133.278 164.479 133.832C165.064 130.168 164.625 126.976 163.712 124.286" fill="#4A9443"/>
<path fill-rule="evenodd" clip-rule="evenodd" d="M275.521 195.343V206.847H273.934V201.548H267.746V206.847H266.16V195.343H267.746V200.206H273.934V195.343H275.521" fill="#005A83"/>
<path fill-rule="evenodd" clip-rule="evenodd" d="M280.508 196.685V200.206H285.441V201.548H280.508V205.505H286.051V206.847H278.922V195.343H286.051V196.685H280.508" fill="#005A83"/>
<path fill-rule="evenodd" clip-rule="evenodd" d="M294.681 202.681L293.13 198.516C293.008 198.184 292.886 197.766 292.764 197.313H292.729C292.607 197.766 292.485 198.184 292.363 198.516L290.829 202.681H294.681ZM295.169 203.989H290.341L289.278 206.847H287.639L291.962 195.343H293.549L297.871 206.847H296.232L295.169 203.989V203.989Z" fill="#005A83"/>
<path fill-rule="evenodd" clip-rule="evenodd" d="M307.355 205.505V206.847H300.035V195.343H301.621V205.505H307.355" fill="#005A83"/>
<path fill-rule="evenodd" clip-rule="evenodd" d="M310.18 196.685H306.485V195.343H315.461V196.685H311.766V206.847H310.18V196.685" fill="#005A83"/>
<path fill-rule="evenodd" clip-rule="evenodd" d="M326.967 195.343V206.847H325.381V201.548H319.193V206.847H317.607V195.343H319.193V200.206H325.381V195.343H326.967" fill="#005A83"/>
</svg>
