<svg width="139" height="107" viewBox="0 0 139 107" fill="none" xmlns="http://www.w3.org/2000/svg">
<path fill-rule="evenodd" clip-rule="evenodd" d="M64.993 20.272L69.18 17.879L62.499 13.982L60.661 15.032L60.639 19.854L62.477 18.804L64.993 20.272" fill="#4A9443"/>
<path fill-rule="evenodd" clip-rule="evenodd" d="M76.747 23.428L76.725 28.251L83.457 24.405L83.463 23.159L79.297 20.729L79.292 21.974L76.747 23.428" fill="#005A83"/>
<path fill-rule="evenodd" clip-rule="evenodd" d="M67.385 31.573L63.219 29.142L63.18 37.767L65.023 38.843L69.211 36.45L67.367 35.375L67.385 31.573" fill="#2AB7CB"/>
<path fill-rule="evenodd" clip-rule="evenodd" d="M84.009 18.037L83.488 17.733L78.801 14.999L77.057 13.981L70.225 17.884L69.702 18.183L65.514 20.575L64.99 20.875L63.252 21.868L63.247 23.113L67.412 25.544L67.418 24.299L69.156 23.306L69.68 23.006L73.867 20.613L74.391 20.314L77.035 18.804L79.301 20.126L83.466 22.557L83.987 22.86L86.601 24.386L86.551 35.461L76.934 40.955L74.419 39.487L70.231 41.88L76.912 45.778L90.717 37.891L90.789 21.993L84.009 18.037" fill="#2AB7CB"/>
<path fill-rule="evenodd" clip-rule="evenodd" d="M74.388 20.917L70.201 23.31L72.044 24.386L72.038 25.517L72.036 26.119L71.993 35.461L70.255 36.454L69.731 36.753L65.543 39.146L65.019 39.444L62.376 40.955L52.81 35.374L52.86 24.299L55.405 22.845L55.427 18.021L48.694 21.868L48.622 37.767L62.354 45.778L69.186 41.875L69.709 41.576L73.898 39.184L74.421 38.885L76.159 37.892L76.199 29.152L76.201 28.55L76.231 21.993L74.388 20.917" fill="#4A9443"/>
<path fill-rule="evenodd" clip-rule="evenodd" d="M69.797 0.494019L55.992 8.38102L55.953 17.12L55.925 23.148L55.921 24.279L62.701 28.235L63.221 28.539L67.387 30.97L67.908 31.273L69.652 32.291L71.49 31.241L71.512 26.418L69.674 27.468L67.93 26.45L67.409 26.146L63.243 23.716L62.723 23.412L60.108 21.887L60.113 20.756L60.138 15.33L60.14 14.727L60.158 10.811L69.775 5.31702L79.342 10.898L79.324 14.7L83.49 17.131L83.529 8.50602L69.797 0.494019" fill="#005A83"/>
<path fill-rule="evenodd" clip-rule="evenodd" d="M10.46 55.931C9.059 55.931 7.868 56.276 6.887 56.964C5.907 57.654 5.183 58.581 4.716 59.748C3.898 61.874 3.49 64.174 3.49 66.649C3.49 69.241 3.898 71.704 4.716 74.039C5.183 75.3 5.907 76.316 6.887 77.086C7.868 77.858 9.059 78.243 10.46 78.243C13.799 78.243 15.889 75.919 16.73 71.273L19.146 71.833C17.908 77.531 15.001 80.379 10.425 80.379C8.907 80.379 7.558 80.081 6.379 79.486C5.2 78.891 4.26 78.137 3.56 77.227C2.859 76.316 2.287 75.23 1.844 73.969C1.073 71.822 0.688004 69.416 0.688004 66.754C0.688004 64.28 1.073 62.002 1.844 59.924C2.287 58.733 2.859 57.7 3.56 56.825C4.26 55.949 5.206 55.225 6.397 54.653C7.588 54.08 8.942 53.794 10.46 53.794C13.005 53.794 15.608 54.46 18.271 55.791L17.36 57.893C15.001 56.585 12.702 55.931 10.46 55.931" fill="#005A83"/>
<path fill-rule="evenodd" clip-rule="evenodd" d="M25.416 53.97V76.071C25.416 77.356 25.918 77.997 26.922 77.997C27.272 77.997 27.763 77.927 28.393 77.787L28.708 79.889C27.798 80.192 26.898 80.344 26.011 80.344C23.77 80.344 22.649 79.025 22.649 76.386V54.986L20.547 54.705V52.884H24.365C25.066 52.884 25.416 53.246 25.416 53.97" fill="#005A83"/>
<path fill-rule="evenodd" clip-rule="evenodd" d="M42.753 69.942C36.308 69.942 33.086 71.552 33.086 74.775C33.086 75.849 33.383 76.684 33.979 77.28C34.574 77.875 35.409 78.172 36.483 78.172C38.165 78.172 39.612 77.496 40.826 76.141C42.04 74.788 42.683 72.861 42.753 70.362V69.942ZM42.753 76.386V75.896C41.234 78.862 38.853 80.344 35.607 80.344C34.043 80.344 32.794 79.866 31.86 78.909C30.925 77.951 30.459 76.644 30.459 74.985C30.459 72.72 31.392 71.016 33.261 69.872C35.128 68.728 38.293 68.155 42.753 68.155V66.684C42.753 64.676 42.39 63.298 41.667 62.551C40.943 61.804 39.77 61.43 38.147 61.43C36.524 61.43 34.708 61.991 32.7 63.112L31.79 61.01C34.194 59.889 36.483 59.329 38.655 59.329C42.04 59.329 44.154 60.52 44.995 62.902C45.345 63.882 45.52 65.073 45.52 66.474V76.071C45.52 77.356 46.01 77.998 46.991 77.998C47.317 77.998 47.796 77.927 48.427 77.788L48.742 79.889C47.832 80.192 46.944 80.344 46.08 80.344C43.862 80.344 42.753 79.025 42.753 76.386V76.386Z" fill="#005A83"/>
<path fill-rule="evenodd" clip-rule="evenodd" d="M56.028 70.046V77.787L59.531 78.032V79.854H50.809V78.032L53.261 77.787V61.92L50.809 61.64V59.818H54.522C55.246 59.818 55.608 60.181 55.608 60.904V65.248C56.238 63.637 57.19 62.265 58.463 61.132C59.735 60 61.27 59.399 63.069 59.328V61.745C61.107 61.816 59.443 62.609 58.077 64.127C56.711 65.645 56.028 67.618 56.028 70.046" fill="#005A83"/>
<path fill-rule="evenodd" clip-rule="evenodd" d="M69.968 60.905V76.071C69.968 77.356 70.482 77.998 71.509 77.998C71.906 77.998 72.385 77.927 72.945 77.788L73.296 79.889C72.338 80.192 71.357 80.344 70.353 80.344C68.275 80.344 67.236 79.025 67.236 76.386V61.921L65.135 61.64V59.819H68.917C69.617 59.819 69.968 60.181 69.968 60.905" fill="#005A83"/>
<path fill-rule="evenodd" clip-rule="evenodd" d="M73.856 61.745V59.818H76.903V55.266L79.67 54.635V59.818H83.488V61.745H79.67V76.07C79.67 77.331 80.184 77.962 81.211 77.962C81.888 77.962 82.542 77.834 83.173 77.577L83.488 79.713C82.39 80.134 81.287 80.344 80.178 80.344C79.069 80.344 78.246 80.022 77.709 79.381C77.171 78.738 76.903 77.717 76.903 76.315V61.745H73.856" fill="#005A83"/>
<path fill-rule="evenodd" clip-rule="evenodd" d="M103.733 60.905V76.071C103.733 77.356 104.246 77.998 105.274 77.998C105.857 77.998 106.336 77.927 106.71 77.788L107.06 79.889C106.103 80.192 105.204 80.344 104.363 80.344C102.472 80.344 101.374 79.446 101.071 77.647C98.642 79.446 96.325 80.344 94.118 80.344C91.912 80.344 90.353 79.837 89.442 78.821C88.531 77.805 88.076 76.223 88.076 74.075V61.921L85.625 61.64V59.819H89.652C90.446 59.819 90.843 60.181 90.843 60.905V74.075C90.843 75.546 91.106 76.609 91.631 77.262C92.157 77.916 93.061 78.243 94.346 78.243C96.564 78.243 98.782 77.332 101.001 75.51V61.921L98.899 61.64V59.819H102.682C103.382 59.819 103.733 60.181 103.733 60.905" fill="#005A83"/>
<path fill-rule="evenodd" clip-rule="evenodd" d="M114.485 70.046V77.787L117.987 78.032V79.854H109.266V78.032L111.718 77.787V61.92L109.266 61.64V59.818H112.979C113.702 59.818 114.065 60.181 114.065 60.904V65.248C114.695 63.637 115.647 62.265 116.92 61.132C118.192 60 119.727 59.399 121.525 59.328V61.745C119.564 61.816 117.9 62.609 116.534 64.127C115.168 65.645 114.485 67.618 114.485 70.046" fill="#005A83"/>
<path fill-rule="evenodd" clip-rule="evenodd" d="M134.555 63.374C133.62 62.102 132.278 61.465 130.527 61.465C128.775 61.465 127.456 62.13 126.569 63.461C125.681 64.792 125.156 66.462 124.992 68.47H135.956C135.956 66.346 135.488 64.646 134.555 63.374M138.723 70.432H124.923C124.923 73.023 125.576 75.043 126.884 76.491C127.911 77.636 129.318 78.207 131.105 78.207C132.891 78.207 134.811 77.682 136.867 76.631L137.742 78.662C135.383 79.783 133.288 80.344 131.455 80.344C129.621 80.344 128.116 80.046 126.937 79.45C125.757 78.855 124.829 78.056 124.152 77.052C122.844 75.02 122.191 72.72 122.191 70.151C122.191 67.162 122.821 64.652 124.082 62.621C124.735 61.594 125.629 60.788 126.762 60.204C127.894 59.62 129.219 59.328 130.737 59.328C133.235 59.328 135.191 60.181 136.604 61.885C138.016 63.59 138.723 65.866 138.723 68.715V70.432" fill="#005A83"/>
<path fill-rule="evenodd" clip-rule="evenodd" d="M69.578 52.619C68.115 53.18 67.041 54.014 66.25 54.915C67.466 55.901 68.726 56.416 69.902 56.65C70.149 55.102 69.964 53.755 69.578 52.619" fill="#4A9443"/>
<path fill-rule="evenodd" clip-rule="evenodd" d="M116.789 82.623V87.48H116.119V85.243H113.506V87.48H112.836V82.623H113.506V84.677H116.119V82.623H116.789" fill="#005A83"/>
<path fill-rule="evenodd" clip-rule="evenodd" d="M118.894 83.19V84.677H120.977V85.244H118.894V86.915H121.235V87.481H118.225V82.624H121.235V83.19H118.894" fill="#005A83"/>
<path fill-rule="evenodd" clip-rule="evenodd" d="M124.878 85.722L124.223 83.963C124.172 83.824 124.12 83.647 124.068 83.455H124.054C124.003 83.647 123.951 83.824 123.899 83.963L123.252 85.722H124.878ZM125.085 86.274H123.045L122.597 87.481H121.905L123.73 82.623H124.4L126.225 87.481H125.533L125.085 86.274V86.274Z" fill="#005A83"/>
<path fill-rule="evenodd" clip-rule="evenodd" d="M130.23 86.914V87.48H127.139V82.623H127.809V86.914H130.23" fill="#005A83"/>
<path fill-rule="evenodd" clip-rule="evenodd" d="M131.423 83.19H129.863V82.624H133.653V83.19H132.093V87.481H131.423V83.19" fill="#005A83"/>
<path fill-rule="evenodd" clip-rule="evenodd" d="M138.511 82.623V87.48H137.841V85.243H135.228V87.48H134.558V82.623H135.228V84.677H137.841V82.623H138.511" fill="#005A83"/>
<path fill-rule="evenodd" clip-rule="evenodd" d="M25.069 102.915L24.34 100.956C24.282 100.801 24.225 100.603 24.167 100.391H24.151C24.093 100.603 24.036 100.801 23.979 100.956L23.257 102.915H25.069ZM25.298 103.529H23.028L22.528 104.873H21.758L23.791 99.465H24.536L26.569 104.873H25.798L25.298 103.529V103.529Z" fill="#2AB7CB"/>
<path fill-rule="evenodd" clip-rule="evenodd" d="M29.948 100.096H28.211V99.465H32.431V100.096H30.694V104.873H29.948V100.096" fill="#2AB7CB"/>
<path fill-rule="evenodd" clip-rule="evenodd" d="M34.638 101.022L34.458 101.751C34.375 101.703 34.261 101.662 34.097 101.662C33.662 101.662 33.171 102.046 33.171 102.849V104.874H32.45V101.006L32.958 100.981C33.024 101.276 33.056 101.71 33.056 101.883H33.089C33.237 101.375 33.564 100.957 34.138 100.957C34.31 100.957 34.491 100.981 34.638 101.022" fill="#2AB7CB"/>
<path fill-rule="evenodd" clip-rule="evenodd" d="M35.286 101.006L36.015 100.981V104.873H35.286V101.006ZM35.671 100.235C35.392 100.235 35.171 100.03 35.171 99.752C35.171 99.474 35.392 99.26 35.671 99.26C35.95 99.26 36.179 99.474 36.179 99.752C36.179 100.03 35.95 100.235 35.671 100.235V100.235Z" fill="#2AB7CB"/>
<path fill-rule="evenodd" clip-rule="evenodd" d="M37.18 104.873H37.901V99.088H37.18V104.873Z" fill="#2AB7CB"/>
<path fill-rule="evenodd" clip-rule="evenodd" d="M39.066 104.873H39.787V99.088H39.066V104.873Z" fill="#2AB7CB"/>
<path fill-rule="evenodd" clip-rule="evenodd" d="M40.951 101.006L41.68 100.981V104.873H40.951V101.006ZM41.336 100.235C41.058 100.235 40.837 100.03 40.837 99.752C40.837 99.474 41.058 99.26 41.336 99.26C41.615 99.26 41.845 99.474 41.845 99.752C41.845 100.03 41.615 100.235 41.336 100.235V100.235Z" fill="#2AB7CB"/>
<path fill-rule="evenodd" clip-rule="evenodd" d="M45.238 103.537V103.169H45.124C43.804 103.169 43.353 103.406 43.353 103.832C43.353 104.136 43.583 104.315 44.074 104.315C44.828 104.315 45.238 103.897 45.238 103.537M46.377 104.865C46.377 104.865 46.189 104.914 45.984 104.914C45.582 104.914 45.287 104.725 45.287 104.275V104.266H45.271C45.164 104.464 44.828 104.923 43.927 104.923C43.074 104.923 42.616 104.48 42.616 103.849C42.616 103.005 43.419 102.669 45.124 102.669H45.238V102.423C45.238 101.898 44.919 101.563 44.279 101.563C43.73 101.563 43.394 101.784 43.394 102.185C43.394 102.275 43.411 102.324 43.435 102.382L42.755 102.497C42.755 102.497 42.706 102.35 42.706 102.161C42.706 101.457 43.312 100.956 44.296 100.956C45.344 100.956 45.959 101.521 45.959 102.415V103.98C45.959 104.193 46.017 104.275 46.197 104.275C46.246 104.275 46.303 104.266 46.336 104.259L46.377 104.865" fill="#2AB7CB"/>
<path fill-rule="evenodd" clip-rule="evenodd" d="M50.731 102.506V104.873H50.002V102.506C50.002 101.94 49.682 101.564 49.101 101.564C48.297 101.564 47.937 102.292 47.937 102.849V104.873H47.216V101.006L47.724 100.981C47.79 101.276 47.822 101.71 47.822 101.883H47.847C48.052 101.399 48.486 100.956 49.224 100.956C50.149 100.956 50.731 101.579 50.731 102.506" fill="#2AB7CB"/>
<path fill-rule="evenodd" clip-rule="evenodd" d="M54.438 104.668C54.438 104.668 54.053 104.923 53.421 104.923C52.422 104.923 52.021 104.39 52.021 103.398V101.587H51.406V101.006H52.021V99.858L52.75 99.817V101.006H54.25V101.587H52.75V103.373C52.75 103.996 52.971 104.308 53.496 104.308C53.946 104.308 54.209 104.087 54.209 104.087L54.438 104.668" fill="#2AB7CB"/>
<path fill-rule="evenodd" clip-rule="evenodd" d="M61.464 99.465V104.873H60.718V102.382H57.809V104.873H57.063V99.465H57.809V101.751H60.718V99.465H61.464" fill="#2AB7CB"/>
<path fill-rule="evenodd" clip-rule="evenodd" d="M63.269 102.621H65.45C65.44 101.982 65.04 101.564 64.424 101.564C63.802 101.564 63.375 101.998 63.269 102.621M63.253 103.138C63.327 103.85 63.81 104.316 64.581 104.316C65.171 104.316 65.506 104.038 65.678 103.809L66.122 104.21C65.76 104.685 65.187 104.924 64.523 104.924C63.285 104.924 62.507 104.129 62.507 102.948C62.507 101.793 63.253 100.957 64.424 100.957C65.564 100.957 66.187 101.752 66.187 102.768C66.187 102.998 66.153 103.138 66.153 103.138H63.253" fill="#2AB7CB"/>
<path fill-rule="evenodd" clip-rule="evenodd" d="M69.492 103.537V103.169H69.377C68.058 103.169 67.607 103.406 67.607 103.832C67.607 104.136 67.837 104.315 68.328 104.315C69.082 104.315 69.492 103.897 69.492 103.537M70.631 104.865C70.631 104.865 70.443 104.914 70.238 104.914C69.836 104.914 69.541 104.725 69.541 104.275V104.266H69.525C69.418 104.464 69.082 104.923 68.181 104.923C67.328 104.923 66.869 104.48 66.869 103.849C66.869 103.005 67.673 102.669 69.377 102.669H69.492V102.423C69.492 101.898 69.173 101.563 68.533 101.563C67.984 101.563 67.648 101.784 67.648 102.185C67.648 102.275 67.665 102.324 67.689 102.382L67.009 102.497C67.009 102.497 66.96 102.35 66.96 102.161C66.96 101.457 67.566 100.956 68.55 100.956C69.598 100.956 70.213 101.521 70.213 102.415V103.98C70.213 104.193 70.271 104.275 70.451 104.275C70.5 104.275 70.557 104.266 70.59 104.259L70.631 104.865" fill="#2AB7CB"/>
<path fill-rule="evenodd" clip-rule="evenodd" d="M71.477 104.873H72.198V99.088H71.477V104.873Z" fill="#2AB7CB"/>
<path fill-rule="evenodd" clip-rule="evenodd" d="M76.026 104.668C76.026 104.668 75.641 104.923 75.01 104.923C74.01 104.923 73.608 104.39 73.608 103.398V101.587H72.994V101.006H73.608V99.858L74.338 99.817V101.006H75.837V101.587H74.338V103.373C74.338 103.996 74.559 104.308 75.084 104.308C75.534 104.308 75.796 104.087 75.796 104.087L76.026 104.668" fill="#2AB7CB"/>
<path fill-rule="evenodd" clip-rule="evenodd" d="M80.19 102.506V104.873H79.461V102.506C79.461 101.94 79.141 101.564 78.56 101.564C77.756 101.564 77.396 102.276 77.396 102.858V104.873H76.667V99.088H77.38V101.686H77.396C77.626 101.284 78.035 100.956 78.683 100.956C79.608 100.956 80.19 101.579 80.19 102.506" fill="#2AB7CB"/>
<path fill-rule="evenodd" clip-rule="evenodd" d="M87.479 101.244L86.774 101.359C86.774 100.843 86.414 100.072 85.438 100.072C84.504 100.072 83.742 100.835 83.742 102.17C83.742 103.662 84.619 104.267 85.57 104.267C86.274 104.267 86.791 103.842 87.078 103.448L87.528 103.907C87.364 104.137 86.75 104.924 85.553 104.924C84.029 104.924 82.988 103.907 82.988 102.17C82.988 100.506 84.004 99.417 85.43 99.417C86.946 99.417 87.471 100.539 87.479 101.244" fill="#2AB7CB"/>
<path fill-rule="evenodd" clip-rule="evenodd" d="M91.391 102.955C91.391 102.152 90.891 101.563 90.137 101.563C89.383 101.563 88.883 102.152 88.883 102.955C88.883 103.759 89.383 104.315 90.137 104.315C90.891 104.315 91.391 103.759 91.391 102.955M92.129 102.955C92.129 104.128 91.334 104.923 90.137 104.923C88.941 104.923 88.146 104.128 88.146 102.955C88.146 101.784 88.941 100.956 90.137 100.956C91.334 100.956 92.129 101.784 92.129 102.955" fill="#2AB7CB"/>
<path fill-rule="evenodd" clip-rule="evenodd" d="M99.203 102.522V104.874H98.474V102.522C98.474 101.957 98.154 101.58 97.572 101.58C96.843 101.58 96.482 102.293 96.482 102.849V104.874H95.753V102.522C95.753 101.957 95.433 101.58 94.851 101.58C94.122 101.58 93.762 102.293 93.762 102.849V104.874H93.04V101.006L93.549 100.981C93.614 101.276 93.647 101.71 93.647 101.883C93.844 101.391 94.27 100.973 94.974 100.973C95.663 100.973 96.162 101.318 96.368 101.875C96.573 101.382 96.998 100.973 97.695 100.973C98.621 100.973 99.203 101.595 99.203 102.522" fill="#2AB7CB"/>
<path fill-rule="evenodd" clip-rule="evenodd" d="M103.501 102.948C103.501 102.12 103.026 101.564 102.264 101.564C101.444 101.564 101.035 102.293 101.035 102.867V103.022C101.035 103.604 101.42 104.316 102.313 104.316C103.034 104.316 103.501 103.768 103.501 102.948M104.239 102.948C104.239 104.136 103.485 104.924 102.354 104.924C101.748 104.924 101.297 104.636 101.035 104.235V106.546H100.313V101.007L100.822 100.981C100.879 101.244 100.928 101.727 100.92 101.884H100.928C101.141 101.383 101.6 100.957 102.395 100.957C103.485 100.957 104.239 101.752 104.239 102.948" fill="#2AB7CB"/>
<path fill-rule="evenodd" clip-rule="evenodd" d="M107.56 103.537V103.169H107.445C106.126 103.169 105.675 103.406 105.675 103.832C105.675 104.136 105.904 104.315 106.396 104.315C107.15 104.315 107.56 103.897 107.56 103.537M108.699 104.865C108.699 104.865 108.511 104.914 108.306 104.914C107.904 104.914 107.609 104.725 107.609 104.275V104.266H107.593C107.486 104.464 107.15 104.923 106.248 104.923C105.396 104.923 104.937 104.48 104.937 103.849C104.937 103.005 105.741 102.669 107.445 102.669H107.56V102.423C107.56 101.898 107.24 101.563 106.601 101.563C106.052 101.563 105.716 101.784 105.716 102.185C105.716 102.275 105.733 102.324 105.757 102.382L105.077 102.497C105.077 102.497 105.028 102.35 105.028 102.161C105.028 101.457 105.634 100.956 106.618 100.956C107.666 100.956 108.281 101.521 108.281 102.415V103.98C108.281 104.193 108.338 104.275 108.518 104.275C108.568 104.275 108.625 104.266 108.658 104.259L108.699 104.865" fill="#2AB7CB"/>
<path fill-rule="evenodd" clip-rule="evenodd" d="M113.053 102.506V104.873H112.324V102.506C112.324 101.94 112.004 101.564 111.422 101.564C110.619 101.564 110.259 102.292 110.259 102.849V104.873H109.537V101.006L110.046 100.981C110.111 101.276 110.144 101.71 110.144 101.883H110.168C110.373 101.399 110.807 100.956 111.545 100.956C112.471 100.956 113.053 101.579 113.053 102.506" fill="#2AB7CB"/>
<path fill-rule="evenodd" clip-rule="evenodd" d="M114.456 106.586C114.087 106.586 113.857 106.463 113.857 106.463L113.989 105.865C113.989 105.865 114.169 105.963 114.407 105.963C114.808 105.963 114.98 105.701 115.111 105.357L115.259 104.972L113.62 101.006H114.431L115.497 103.71C115.579 103.906 115.595 103.972 115.627 104.136H115.636C115.668 103.955 115.701 103.882 115.767 103.71L116.849 101.006H117.586L115.75 105.562C115.529 106.135 115.169 106.586 114.456 106.586" fill="#2AB7CB"/>
</svg>
