<svg width="421" height="91" viewBox="0 0 421 91" fill="none" xmlns="http://www.w3.org/2000/svg">
<path fill-rule="evenodd" clip-rule="evenodd" d="M116.523 15.92C113.205 15.92 110.384 16.736 108.062 18.367C105.739 19.999 104.024 22.197 102.919 24.962C100.982 29.995 100.016 35.442 100.016 41.303C100.016 47.441 100.982 53.276 102.919 58.806C104.024 61.792 105.739 64.197 108.062 66.022C110.384 67.847 113.205 68.76 116.523 68.76C124.43 68.76 129.38 63.258 131.371 52.253L137.095 53.58C134.163 67.074 127.278 73.82 116.44 73.82C112.845 73.82 109.651 73.115 106.859 71.705C104.066 70.294 101.84 68.511 100.182 66.355C98.523 64.197 97.167 61.626 96.117 58.64C94.292 53.553 93.379 47.856 93.379 41.552C93.379 35.691 94.292 30.299 96.117 25.376C97.167 22.556 98.523 20.109 100.182 18.035C101.84 15.962 104.08 14.248 106.9 12.892C109.721 11.538 112.927 10.86 116.523 10.86C122.55 10.86 128.717 12.436 135.021 15.588L132.864 20.565C127.278 17.469 121.832 15.92 116.523 15.92" fill="#005A83"/>
<path fill-rule="evenodd" clip-rule="evenodd" d="M151.942 11.275V63.617C151.942 66.659 153.13 68.179 155.509 68.179C156.338 68.179 157.5 68.013 158.993 67.681L159.739 72.659C157.583 73.377 155.453 73.737 153.352 73.737C148.043 73.737 145.389 70.613 145.389 64.363V13.68L140.412 13.017V8.703H149.453C151.112 8.703 151.942 9.561 151.942 11.275" fill="#005A83"/>
<path fill-rule="evenodd" clip-rule="evenodd" d="M193.002 49.1C177.739 49.1 170.107 52.916 170.107 60.547C170.107 63.092 170.813 65.068 172.223 66.478C173.632 67.889 175.609 68.594 178.153 68.594C182.135 68.594 185.564 66.991 188.44 63.783C191.314 60.576 192.835 56.014 193.002 50.096V49.1ZM193.002 64.363V63.202C189.406 70.225 183.766 73.737 176.08 73.737C172.374 73.737 169.415 72.602 167.204 70.336C164.991 68.069 163.886 64.973 163.886 61.045C163.886 55.682 166.097 51.644 170.522 48.934C174.945 46.225 182.439 44.87 193.002 44.87V41.386C193.002 36.63 192.144 33.368 190.43 31.598C188.715 29.829 185.937 28.943 182.094 28.943C178.249 28.943 173.95 30.27 169.195 32.925L167.038 27.948C172.733 25.293 178.153 23.966 183.296 23.966C191.314 23.966 196.32 26.787 198.311 32.427C199.14 34.75 199.555 37.57 199.555 40.888V63.617C199.555 66.659 200.716 68.179 203.039 68.179C203.813 68.179 204.947 68.013 206.44 67.681L207.186 72.659C205.03 73.376 202.927 73.737 200.882 73.737C195.628 73.737 193.002 70.613 193.002 64.363V64.363Z" fill="#005A83"/>
<path fill-rule="evenodd" clip-rule="evenodd" d="M224.44 49.349V67.681L232.735 68.262V72.575H212.081V68.262L217.887 67.681V30.104L212.081 29.441V25.127H220.873C222.587 25.127 223.445 25.986 223.445 27.699V37.985C224.938 34.169 227.191 30.921 230.206 28.238C233.219 25.557 236.854 24.132 241.113 23.966V29.69C236.468 29.855 232.528 31.736 229.293 35.33C226.058 38.926 224.44 43.599 224.44 49.349" fill="#005A83"/>
<path fill-rule="evenodd" clip-rule="evenodd" d="M257.455 27.699V63.616C257.455 66.658 258.671 68.179 261.105 68.179C262.045 68.179 263.179 68.012 264.506 67.681L265.336 72.658C263.067 73.376 260.745 73.737 258.368 73.737C253.445 73.737 250.985 70.613 250.985 64.363V30.104L246.008 29.441V25.127H254.967C256.625 25.127 257.455 25.986 257.455 27.699" fill="#005A83"/>
<path fill-rule="evenodd" clip-rule="evenodd" d="M266.662 29.69V25.128H273.879V14.344L280.432 12.851V25.128H289.474V29.69H280.432V63.617C280.432 66.603 281.648 68.096 284.081 68.096C285.685 68.096 287.234 67.793 288.727 67.184L289.474 72.244C286.874 73.239 284.261 73.737 281.635 73.737C279.007 73.737 277.058 72.976 275.787 71.456C274.514 69.935 273.879 67.516 273.879 64.197V29.69H266.662" fill="#005A83"/>
<path fill-rule="evenodd" clip-rule="evenodd" d="M337.418 27.699V63.616C337.418 66.658 338.634 68.179 341.068 68.179C342.449 68.179 343.584 68.012 344.469 67.681L345.298 72.658C343.03 73.376 340.902 73.737 338.911 73.737C334.432 73.737 331.832 71.608 331.113 67.349C325.361 71.608 319.874 73.737 314.648 73.737C309.422 73.737 305.731 72.533 303.574 70.128C301.418 67.722 300.339 63.977 300.339 58.888V30.104L294.532 29.441V25.127H304.072C305.951 25.127 306.892 25.986 306.892 27.699V58.888C306.892 62.372 307.514 64.889 308.759 66.437C310.002 67.986 312.145 68.76 315.187 68.76C320.44 68.76 325.693 66.603 330.948 62.289V30.104L325.971 29.441V25.127H334.93C336.589 25.127 337.418 25.986 337.418 27.699" fill="#005A83"/>
<path fill-rule="evenodd" clip-rule="evenodd" d="M362.883 49.349V67.681L371.178 68.262V72.575H350.524V68.262L356.33 67.681V30.104L350.524 29.441V25.127H359.317C361.029 25.127 361.888 25.986 361.888 27.699V37.985C363.381 34.169 365.634 30.921 368.649 28.238C371.661 25.557 375.297 24.132 379.556 23.966V29.69C374.911 29.855 370.971 31.736 367.736 35.33C364.501 38.926 362.883 43.599 362.883 49.349" fill="#005A83"/>
<path fill-rule="evenodd" clip-rule="evenodd" d="M410.415 33.547C408.202 30.533 405.022 29.026 400.875 29.026C396.727 29.026 393.603 30.602 391.502 33.754C389.399 36.906 388.155 40.861 387.769 45.617H413.732C413.732 40.585 412.625 36.562 410.415 33.547M420.286 50.262H387.603C387.603 56.401 389.15 61.184 392.248 64.612C394.681 67.322 398.014 68.677 402.244 68.677C406.475 68.677 411.022 67.433 415.89 64.944L417.963 69.755C412.377 72.409 407.414 73.737 403.073 73.737C398.731 73.737 395.164 73.032 392.373 71.621C389.579 70.211 387.382 68.318 385.777 65.94C382.681 61.129 381.133 55.682 381.133 49.598C381.133 42.52 382.626 36.575 385.612 31.763C387.159 29.331 389.275 27.423 391.958 26.04C394.64 24.658 397.777 23.966 401.373 23.966C407.29 23.966 411.921 25.986 415.268 30.022C418.612 34.059 420.286 39.451 420.286 46.197V50.262" fill="#005A83"/>
<path fill-rule="evenodd" clip-rule="evenodd" d="M256.529 8.078C253.065 9.403 250.521 11.379 248.649 13.514C251.528 15.851 254.511 17.07 257.296 17.623C257.881 13.959 257.443 10.767 256.529 8.078" fill="#4A9443"/>
<path fill-rule="evenodd" clip-rule="evenodd" d="M31.348 37.022L39.123 32.58L26.718 25.343L23.306 27.292L23.265 36.246L26.677 34.297L31.348 37.022" fill="#4A9443"/>
<path fill-rule="evenodd" clip-rule="evenodd" d="M53.17 42.881L53.129 51.836L65.628 44.695L65.639 42.383L57.904 37.87L57.894 40.182L53.17 42.881" fill="#005A83"/>
<path fill-rule="evenodd" clip-rule="evenodd" d="M35.788 58.002L28.054 53.49L27.981 69.502L31.403 71.499L39.179 67.057L35.756 65.061L35.788 58.002" fill="#2AB7CB"/>
<path fill-rule="evenodd" clip-rule="evenodd" d="M66.651 32.873L65.685 32.309L57.95 27.797L56.984 27.233L53.744 25.343L41.061 32.589L40.089 33.144L32.314 37.586L31.342 38.141L28.115 39.985L28.104 42.297L35.839 46.81L35.849 44.498L39.076 42.654L40.048 42.099L53.703 34.297L65.644 41.263L66.61 41.827L71.464 44.659L71.371 65.222L53.517 75.421L48.846 72.697L41.07 77.14L53.476 84.377L79.105 69.734L79.239 40.217L66.651 32.873" fill="#2AB7CB"/>
<path fill-rule="evenodd" clip-rule="evenodd" d="M48.79 38.221L41.016 42.663L44.438 44.659L44.383 56.833L44.377 57.952L44.345 65.222L41.117 67.066L40.145 67.621L32.369 72.063L31.397 72.618L26.49 75.422L8.728 65.061L8.822 44.498L13.546 41.799L13.587 32.845L1.088 39.985L0.953999 69.503L26.449 84.377L39.132 77.131L40.104 76.576L47.88 72.134L48.852 71.578L52.079 69.735L52.213 40.218L48.79 38.221" fill="#4A9443"/>
<path fill-rule="evenodd" clip-rule="evenodd" d="M40.268 0.303009L14.638 14.946L14.564 31.17L14.56 32.289L14.504 44.463L35.793 56.883L36.76 57.448L39.999 59.337L43.411 57.388L43.452 48.434L40.04 50.383L36.801 48.493L35.834 47.929L22.279 40.021L22.372 19.458L40.227 9.25801L57.988 19.619L57.956 26.678L65.69 31.19L65.763 15.178L40.268 0.303009" fill="#005A83"/>
<path fill-rule="evenodd" clip-rule="evenodd" d="M368.339 79.135V90.64H366.752V85.341H360.564V90.64H358.978V79.135H360.564V83.999H366.752V79.135H368.339" fill="#005A83"/>
<path fill-rule="evenodd" clip-rule="evenodd" d="M373.325 80.477V83.998H378.258V85.34H373.325V89.297H378.868V90.64H371.739V79.135H378.868V80.477H373.325" fill="#005A83"/>
<path fill-rule="evenodd" clip-rule="evenodd" d="M387.498 86.473L385.947 82.307C385.825 81.976 385.702 81.558 385.581 81.104H385.546C385.424 81.558 385.302 81.976 385.18 82.307L383.646 86.473H387.498ZM387.986 87.781H383.158L382.095 90.64H380.456L384.778 79.135H386.365L390.688 90.64H389.05L387.986 87.781V87.781Z" fill="#005A83"/>
<path fill-rule="evenodd" clip-rule="evenodd" d="M400.172 89.297V90.639H392.852V79.134H394.438V89.297H400.172" fill="#005A83"/>
<path fill-rule="evenodd" clip-rule="evenodd" d="M402.997 80.477H399.302V79.135H408.278V80.477H404.583V90.64H402.997V80.477" fill="#005A83"/>
<path fill-rule="evenodd" clip-rule="evenodd" d="M419.784 79.135V90.64H418.198V85.341H412.01V90.64H410.424V79.135H412.01V83.999H418.198V79.135H419.784" fill="#005A83"/>
</svg>
