<svg width="704" height="123" viewBox="0 0 704 123" fill="none" xmlns="http://www.w3.org/2000/svg">
<path fill-rule="evenodd" clip-rule="evenodd" d="M156.093 22.001C151.627 22.001 147.831 23.1 144.705 25.294C141.579 27.491 139.272 30.449 137.783 34.169C135.177 40.943 133.876 48.275 133.876 56.163C133.876 64.425 135.177 72.278 137.783 79.72C139.272 83.739 141.579 86.976 144.705 89.432C147.831 91.889 151.627 93.117 156.093 93.117C166.735 93.117 173.397 85.711 176.076 70.9L183.78 72.687C179.834 90.847 170.568 99.927 155.981 99.927C151.142 99.927 146.844 98.978 143.087 97.08C139.327 95.182 136.332 92.781 134.1 89.879C131.866 86.976 130.042 83.515 128.629 79.496C126.173 72.65 124.945 64.983 124.945 56.498C124.945 48.61 126.173 41.354 128.629 34.728C130.042 30.932 131.866 27.639 134.1 24.848C136.332 22.057 139.346 19.751 143.142 17.926C146.938 16.103 151.254 15.191 156.093 15.191C164.204 15.191 172.504 17.312 180.989 21.554L178.086 28.252C170.568 24.085 163.238 22.001 156.093 22.001" fill="#005A83"/>
<path fill-rule="evenodd" clip-rule="evenodd" d="M203.763 15.749V86.194C203.763 90.289 205.363 92.335 208.563 92.335C209.68 92.335 211.243 92.111 213.252 91.665L214.257 98.364C211.354 99.33 208.488 99.815 205.66 99.815C198.515 99.815 194.943 95.611 194.943 87.2V18.987L188.244 18.093V12.288H200.413C202.646 12.288 203.763 13.443 203.763 15.749" fill="#005A83"/>
<path fill-rule="evenodd" clip-rule="evenodd" d="M259.024 66.658C238.482 66.658 228.211 71.793 228.211 82.064C228.211 85.489 229.16 88.149 231.058 90.047C232.955 91.945 235.616 92.893 239.04 92.893C244.399 92.893 249.013 90.736 252.883 86.418C256.752 82.103 258.8 75.962 259.024 67.997V66.658ZM259.024 87.2V85.637C254.185 95.09 246.593 99.815 236.249 99.815C231.261 99.815 227.279 98.289 224.303 95.238C221.325 92.187 219.837 88.02 219.837 82.734C219.837 75.516 222.814 70.082 228.769 66.434C234.722 62.789 244.807 60.964 259.024 60.964V56.275C259.024 49.875 257.869 45.484 255.563 43.101C253.255 40.721 249.515 39.529 244.343 39.529C239.169 39.529 233.382 41.315 226.982 44.887L224.08 38.189C231.745 34.617 239.04 32.83 245.961 32.83C256.752 32.83 263.49 36.626 266.169 44.218C267.286 47.344 267.844 51.14 267.844 55.605V86.195C267.844 90.289 269.407 92.335 272.533 92.335C273.574 92.335 275.1 92.112 277.109 91.665L278.114 98.364C275.212 99.33 272.382 99.815 269.629 99.815C262.558 99.815 259.024 95.612 259.024 87.2V87.2Z" fill="#005A83"/>
<path fill-rule="evenodd" clip-rule="evenodd" d="M301.336 66.993V91.666L312.5 92.448V98.253H284.701V92.448L292.517 91.666V41.092L284.701 40.199V34.394H296.535C298.841 34.394 299.997 35.549 299.997 37.855V51.699C302.006 46.563 305.038 42.191 309.095 38.58C313.15 34.972 318.044 33.054 323.775 32.831V40.535C317.524 40.757 312.221 43.288 307.867 48.125C303.513 52.965 301.336 59.254 301.336 66.993" fill="#005A83"/>
<path fill-rule="evenodd" clip-rule="evenodd" d="M345.769 37.855V86.195C345.769 90.29 347.406 92.335 350.681 92.335C351.946 92.335 353.473 92.112 355.259 91.666L356.375 98.364C353.322 99.331 350.196 99.815 346.997 99.815C340.372 99.815 337.061 95.612 337.061 87.2V41.092L330.363 40.199V34.394H342.42C344.652 34.394 345.769 35.549 345.769 37.855" fill="#005A83"/>
<path fill-rule="evenodd" clip-rule="evenodd" d="M358.16 40.534V34.393H367.873V19.88L376.692 17.87V34.393H388.862V40.534H376.692V86.195C376.692 90.214 378.329 92.223 381.604 92.223C383.763 92.223 385.847 91.816 387.857 90.996L388.862 97.806C385.363 99.145 381.846 99.815 378.311 99.815C374.775 99.815 372.152 98.791 370.441 96.745C368.728 94.699 367.873 91.442 367.873 86.976V40.534H358.16" fill="#005A83"/>
<path fill-rule="evenodd" clip-rule="evenodd" d="M453.391 37.855V86.195C453.391 90.29 455.027 92.335 458.303 92.335C460.162 92.335 461.688 92.112 462.88 91.666L463.996 98.364C460.944 99.331 458.079 99.815 455.4 99.815C449.371 99.815 445.872 96.951 444.906 91.219C437.163 96.951 429.779 99.815 422.745 99.815C415.711 99.815 410.744 98.197 407.841 94.959C404.938 91.721 403.487 86.68 403.487 79.832V41.092L395.671 40.199V34.394H408.51C411.04 34.394 412.306 35.549 412.306 37.855V79.832C412.306 84.521 413.144 87.908 414.819 89.991C416.493 92.075 419.376 93.117 423.47 93.117C430.54 93.117 437.611 90.214 444.682 84.409V41.092L437.984 40.199V34.394H450.041C452.274 34.394 453.391 35.549 453.391 37.855" fill="#005A83"/>
<path fill-rule="evenodd" clip-rule="evenodd" d="M487.662 66.993V91.666L498.826 92.448V98.253H471.027V92.448L478.843 91.666V41.092L471.027 40.199V34.394H482.861C485.168 34.394 486.322 35.549 486.322 37.855V51.699C488.332 46.563 491.364 42.191 495.422 38.58C499.476 34.972 504.37 33.054 510.101 32.831V40.535C503.85 40.757 498.547 43.288 494.193 48.125C489.839 52.965 487.662 59.254 487.662 66.993" fill="#005A83"/>
<path fill-rule="evenodd" clip-rule="evenodd" d="M551.634 45.725C548.655 41.669 544.376 39.641 538.795 39.641C533.212 39.641 529.007 41.762 526.179 46.004C523.35 50.246 521.675 55.568 521.155 61.969H556.099C556.099 55.197 554.609 49.783 551.634 45.725M564.919 68.221H520.932C520.932 76.483 523.015 82.921 527.184 87.535C530.458 91.183 534.944 93.005 540.637 93.005C546.33 93.005 552.451 91.33 559.002 87.981L561.793 94.456C554.275 98.029 547.595 99.815 541.753 99.815C535.909 99.815 531.109 98.867 527.352 96.968C523.592 95.071 520.634 92.522 518.476 89.321C514.307 82.846 512.224 75.516 512.224 67.328C512.224 57.801 514.234 49.8 518.253 43.325C520.335 40.05 523.182 37.483 526.793 35.622C530.403 33.762 534.626 32.83 539.464 32.83C547.428 32.83 553.66 35.549 558.165 40.98C562.666 46.414 564.919 53.671 564.919 62.75V68.221" fill="#005A83"/>
<path fill-rule="evenodd" clip-rule="evenodd" d="M344.524 11.447C339.861 13.231 336.438 15.889 333.918 18.763C337.793 21.908 341.808 23.549 345.556 24.294C346.344 19.363 345.753 15.067 344.524 11.447" fill="#4A9443"/>
<path fill-rule="evenodd" clip-rule="evenodd" d="M41.458 50.402L51.922 44.424L35.227 34.683L30.635 37.306L30.581 49.358L35.172 46.735L41.458 50.402" fill="#4A9443"/>
<path fill-rule="evenodd" clip-rule="evenodd" d="M70.829 58.288L70.774 70.34L87.596 60.729L87.61 57.618L77.201 51.544L77.187 54.656L70.829 58.288" fill="#005A83"/>
<path fill-rule="evenodd" clip-rule="evenodd" d="M47.434 78.639L37.025 72.566L36.927 94.117L41.532 96.804L51.997 90.826L47.391 88.139L47.434 78.639" fill="#2AB7CB"/>
<path fill-rule="evenodd" clip-rule="evenodd" d="M88.973 44.818L77.263 37.986L75.961 37.227L71.601 34.683L42.76 51.161L41.452 51.908L37.108 54.39L37.094 57.501L47.503 63.575L47.517 60.463L51.861 57.982L53.169 57.234L63.633 51.256L64.941 50.508L71.547 46.735L75.907 49.278L95.451 60.68L95.326 88.355L71.296 102.083L65.01 98.416L54.545 104.395L71.241 114.135L105.735 94.429L105.915 54.702L88.973 44.818" fill="#2AB7CB"/>
<path fill-rule="evenodd" clip-rule="evenodd" d="M64.934 52.016L54.47 57.994L59.076 60.681L59.063 63.507L59.057 65.014L58.951 88.356L54.607 90.837L53.299 91.585L34.921 102.083L11.017 88.139L11.142 60.464L17.5 56.831L17.555 44.78L0.733001 54.391L0.553001 94.117L34.866 114.136L63.709 97.658L65.017 96.911L69.36 94.43L69.54 54.703L64.934 52.016" fill="#4A9443"/>
<path fill-rule="evenodd" clip-rule="evenodd" d="M53.463 0.983002L18.969 20.69L18.789 60.416L35.731 70.3L37.032 71.06L47.441 77.132L48.742 77.892L53.102 80.435L57.694 77.812L57.748 65.761L53.157 68.384L48.797 65.84L47.496 65.081L37.087 59.008L35.786 58.25L29.253 54.438L29.378 26.763L53.408 13.034L77.313 26.981L77.269 36.481L87.678 42.553L87.776 21.003L53.463 0.983002" fill="#005A83"/>
<path fill-rule="evenodd" clip-rule="evenodd" d="M618.037 47.177L616.063 41.878C615.908 41.456 615.752 40.924 615.597 40.347H615.554C615.398 40.924 615.243 41.456 615.087 41.878L613.136 47.177H618.037ZM618.657 48.841H612.515L611.162 52.477H609.077L614.578 37.841H616.596L622.095 52.477H620.011L618.657 48.841V48.841Z" fill="#2AB7CB"/>
<path fill-rule="evenodd" clip-rule="evenodd" d="M631.233 39.549H626.532V37.841H637.953V39.549H633.252V52.478H631.233V39.549" fill="#2AB7CB"/>
<path fill-rule="evenodd" clip-rule="evenodd" d="M643.921 42.055L643.433 44.029C643.211 43.896 642.9 43.785 642.457 43.785C641.281 43.785 639.951 44.827 639.951 47V52.478H637.999V42.011L639.374 41.944C639.552 42.742 639.64 43.918 639.64 44.384H639.73C640.128 43.009 641.015 41.878 642.567 41.878C643.033 41.878 643.521 41.944 643.921 42.055" fill="#2AB7CB"/>
<path fill-rule="evenodd" clip-rule="evenodd" d="M645.673 42.01L647.647 41.944V52.477H645.673V42.01ZM646.715 39.926C645.961 39.926 645.361 39.371 645.361 38.617C645.361 37.864 645.961 37.286 646.715 37.286C647.469 37.286 648.09 37.864 648.09 38.617C648.09 39.371 647.469 39.926 646.715 39.926V39.926Z" fill="#2AB7CB"/>
<path fill-rule="evenodd" clip-rule="evenodd" d="M650.796 52.478H652.747V36.821H650.796V52.478Z" fill="#2AB7CB"/>
<path fill-rule="evenodd" clip-rule="evenodd" d="M655.897 52.478H657.848V36.821H655.897V52.478Z" fill="#2AB7CB"/>
<path fill-rule="evenodd" clip-rule="evenodd" d="M660.998 42.01L662.972 41.944V52.477H660.998V42.01ZM662.041 39.926C661.286 39.926 660.687 39.371 660.687 38.617C660.687 37.864 661.286 37.286 662.041 37.286C662.795 37.286 663.415 37.864 663.415 38.617C663.415 39.371 662.795 39.926 662.041 39.926V39.926Z" fill="#2AB7CB"/>
<path fill-rule="evenodd" clip-rule="evenodd" d="M672.598 48.863V47.865H672.287C668.717 47.865 667.496 48.509 667.496 49.662C667.496 50.483 668.119 50.97 669.449 50.97C671.489 50.97 672.598 49.839 672.598 48.863M675.68 52.456C675.68 52.456 675.17 52.589 674.616 52.589C673.53 52.589 672.731 52.079 672.731 50.86V50.837H672.686C672.398 51.369 671.489 52.612 669.049 52.612C666.743 52.612 665.501 51.414 665.501 49.705C665.501 47.422 667.675 46.512 672.287 46.512H672.598V45.847C672.598 44.428 671.733 43.519 670.002 43.519C668.517 43.519 667.608 44.118 667.608 45.204C667.608 45.447 667.652 45.581 667.718 45.737L665.878 46.046C665.878 46.046 665.744 45.647 665.744 45.138C665.744 43.23 667.386 41.878 670.047 41.878C672.886 41.878 674.548 43.408 674.548 45.824V50.061C674.548 50.638 674.703 50.86 675.192 50.86C675.326 50.86 675.481 50.837 675.569 50.815L675.68 52.456" fill="#2AB7CB"/>
<path fill-rule="evenodd" clip-rule="evenodd" d="M687.457 46.069V52.478H685.483V46.069C685.483 44.539 684.618 43.519 683.044 43.519C680.87 43.519 679.895 45.492 679.895 47V52.478H677.943V42.01L679.318 41.944C679.495 42.742 679.585 43.918 679.585 44.383H679.65C680.205 43.075 681.381 41.878 683.376 41.878C685.882 41.878 687.457 43.563 687.457 46.069" fill="#2AB7CB"/>
<path fill-rule="evenodd" clip-rule="evenodd" d="M697.481 51.923C697.481 51.923 696.439 52.611 694.732 52.611C692.027 52.611 690.94 51.169 690.94 48.485V43.585H689.276V42.01H690.94V38.905L692.914 38.795V42.01H696.971V43.585H692.914V48.419C692.914 50.105 693.512 50.947 694.931 50.947C696.151 50.947 696.861 50.348 696.861 50.348L697.481 51.923" fill="#2AB7CB"/>
<path fill-rule="evenodd" clip-rule="evenodd" d="M622.561 60.02V74.656H620.543V67.916H612.67V74.656H610.653V60.02H612.67V66.207H620.543V60.02H622.561" fill="#2AB7CB"/>
<path fill-rule="evenodd" clip-rule="evenodd" d="M627.44 68.559H633.339C633.318 66.829 632.231 65.698 630.567 65.698C628.881 65.698 627.728 66.873 627.44 68.559M627.396 69.955C627.595 71.884 628.904 73.15 630.989 73.15C632.585 73.15 633.495 72.395 633.961 71.773L635.157 72.86C634.182 74.147 632.629 74.79 630.834 74.79C627.485 74.79 625.377 72.639 625.377 69.446C625.377 66.318 627.396 64.057 630.567 64.057C633.65 64.057 635.336 66.207 635.336 68.958C635.336 69.579 635.247 69.955 635.247 69.955H627.396" fill="#2AB7CB"/>
<path fill-rule="evenodd" clip-rule="evenodd" d="M644.273 71.042V70.044H643.963C640.392 70.044 639.173 70.688 639.173 71.841C639.173 72.661 639.794 73.149 641.125 73.149C643.165 73.149 644.273 72.018 644.273 71.042M647.356 74.635C647.356 74.635 646.845 74.767 646.292 74.767C645.205 74.767 644.407 74.258 644.407 73.039V73.016H644.363C644.075 73.548 643.165 74.79 640.725 74.79C638.419 74.79 637.176 73.593 637.176 71.884C637.176 69.601 639.35 68.691 643.963 68.691H644.273V68.026C644.273 66.607 643.408 65.697 641.679 65.697C640.192 65.697 639.284 66.296 639.284 67.383C639.284 67.626 639.329 67.76 639.395 67.916L637.554 68.225C637.554 68.225 637.421 67.826 637.421 67.316C637.421 65.409 639.062 64.056 641.722 64.056C644.561 64.056 646.225 65.586 646.225 68.003V72.239C646.225 72.816 646.38 73.039 646.869 73.039C647.001 73.039 647.157 73.016 647.246 72.994L647.356 74.635" fill="#2AB7CB"/>
<path fill-rule="evenodd" clip-rule="evenodd" d="M649.643 74.656H651.593V58.999H649.643V74.656Z" fill="#2AB7CB"/>
<path fill-rule="evenodd" clip-rule="evenodd" d="M661.951 74.102C661.951 74.102 660.909 74.79 659.2 74.79C656.496 74.79 655.409 73.348 655.409 70.664V65.763H653.745V64.188H655.409V61.085L657.383 60.974V64.188H661.44V65.763H657.383V70.599C657.383 72.284 657.981 73.126 659.4 73.126C660.62 73.126 661.33 72.527 661.33 72.527L661.951 74.102" fill="#2AB7CB"/>
<path fill-rule="evenodd" clip-rule="evenodd" d="M673.217 68.248V74.656H671.243V68.248C671.243 66.718 670.378 65.697 668.805 65.697C666.631 65.697 665.655 67.626 665.655 69.201V74.656H663.682V58.999H665.611V66.03H665.655C666.276 64.943 667.386 64.056 669.137 64.056C671.644 64.056 673.217 65.742 673.217 68.248" fill="#2AB7CB"/>
<path fill-rule="evenodd" clip-rule="evenodd" d="M622.007 87.011L620.1 87.322C620.1 85.924 619.123 83.84 616.486 83.84C613.956 83.84 611.895 85.903 611.895 89.517C611.895 93.553 614.267 95.194 616.839 95.194C618.746 95.194 620.145 94.041 620.92 92.977L622.14 94.218C621.696 94.84 620.033 96.969 616.795 96.969C612.67 96.969 609.854 94.218 609.854 89.517C609.854 85.015 612.605 82.066 616.462 82.066C620.565 82.066 621.984 85.104 622.007 87.011" fill="#2AB7CB"/>
<path fill-rule="evenodd" clip-rule="evenodd" d="M632.587 91.646C632.587 89.473 631.233 87.876 629.193 87.876C627.152 87.876 625.8 89.473 625.8 91.646C625.8 93.82 627.152 95.328 629.193 95.328C631.233 95.328 632.587 93.82 632.587 91.646M634.582 91.646C634.582 94.817 632.432 96.969 629.193 96.969C625.955 96.969 623.805 94.817 623.805 91.646C623.805 88.475 625.955 86.235 629.193 86.235C632.432 86.235 634.582 88.475 634.582 91.646" fill="#2AB7CB"/>
<path fill-rule="evenodd" clip-rule="evenodd" d="M653.723 90.471V96.835H651.749V90.471C651.749 88.941 650.884 87.921 649.309 87.921C647.335 87.921 646.36 89.849 646.36 91.358V96.835H644.386V90.471C644.386 88.941 643.521 87.921 641.947 87.921C639.973 87.921 638.996 89.849 638.996 91.358V96.835H637.045V86.367L638.419 86.301C638.598 87.1 638.686 88.275 638.686 88.741C639.218 87.411 640.371 86.28 642.279 86.28C644.142 86.28 645.494 87.211 646.049 88.72C646.603 87.388 647.756 86.28 649.642 86.28C652.148 86.28 653.723 87.965 653.723 90.471" fill="#2AB7CB"/>
<path fill-rule="evenodd" clip-rule="evenodd" d="M665.345 91.624C665.345 89.384 664.059 87.875 661.996 87.875C659.779 87.875 658.669 89.849 658.669 91.402V91.823C658.669 93.397 659.712 95.328 662.129 95.328C664.08 95.328 665.345 93.841 665.345 91.624M667.341 91.624C667.341 94.84 665.3 96.969 662.24 96.969C660.599 96.969 659.379 96.191 658.669 95.106V101.359H656.718V86.367L658.092 86.301C658.248 87.011 658.382 88.319 658.359 88.741H658.382C658.957 87.388 660.199 86.235 662.351 86.235C665.3 86.235 667.341 88.385 667.341 91.624" fill="#2AB7CB"/>
<path fill-rule="evenodd" clip-rule="evenodd" d="M676.323 93.221V92.223H676.013C672.442 92.223 671.222 92.867 671.222 94.02C671.222 94.841 671.844 95.328 673.175 95.328C675.215 95.328 676.323 94.197 676.323 93.221M679.406 96.814C679.406 96.814 678.895 96.947 678.341 96.947C677.254 96.947 676.457 96.437 676.457 95.218V95.195H676.412C676.124 95.727 675.215 96.97 672.774 96.97C670.469 96.97 669.226 95.772 669.226 94.063C669.226 91.78 671.399 90.87 676.013 90.87H676.323V90.205C676.323 88.786 675.458 87.876 673.728 87.876C672.242 87.876 671.334 88.475 671.334 89.562C671.334 89.805 671.378 89.939 671.444 90.095L669.603 90.404C669.603 90.404 669.47 90.005 669.47 89.496C669.47 87.589 671.112 86.236 673.772 86.236C676.611 86.236 678.274 87.765 678.274 90.182V94.419C678.274 94.996 678.43 95.218 678.918 95.218C679.051 95.218 679.206 95.195 679.295 95.173L679.406 96.814" fill="#2AB7CB"/>
<path fill-rule="evenodd" clip-rule="evenodd" d="M691.183 90.427V96.836H689.209V90.427C689.209 88.897 688.344 87.876 686.771 87.876C684.597 87.876 683.621 89.85 683.621 91.359V96.836H681.669V86.368L683.044 86.302C683.222 87.1 683.31 88.275 683.31 88.741H683.376C683.932 87.433 685.107 86.236 687.103 86.236C689.61 86.236 691.183 87.921 691.183 90.427" fill="#2AB7CB"/>
<path fill-rule="evenodd" clip-rule="evenodd" d="M694.977 101.471C693.978 101.471 693.358 101.138 693.358 101.138L693.713 99.519C693.713 99.519 694.2 99.785 694.843 99.785C695.93 99.785 696.396 99.075 696.75 98.144L697.149 97.102L692.714 86.368H694.91L697.792 93.687C698.014 94.219 698.059 94.397 698.148 94.841H698.169C698.259 94.352 698.347 94.153 698.525 93.687L701.452 86.368H703.449L698.481 98.699C697.882 100.251 696.906 101.471 694.977 101.471" fill="#2AB7CB"/>
<path d="M587.112 29.325V101.224" stroke="#2AB7CB" stroke-width="0.978"/>
<path fill-rule="evenodd" clip-rule="evenodd" d="M495.005 107.081V122.564H492.869V115.432H484.54V122.564H482.406V107.081H484.54V113.626H492.869V107.081H495.005" fill="#005A83"/>
<path fill-rule="evenodd" clip-rule="evenodd" d="M501.716 108.887V113.626H508.355V115.432H501.716V120.758H509.176V122.564H499.581V107.081H509.176V108.887H501.716" fill="#005A83"/>
<path fill-rule="evenodd" clip-rule="evenodd" d="M520.791 116.957L518.703 111.351C518.539 110.905 518.374 110.342 518.21 109.731H518.163C517.999 110.342 517.835 110.905 517.671 111.351L515.606 116.957H520.791ZM521.448 118.717H514.949L513.519 122.564H511.313L517.131 107.081H519.267L525.084 122.564H522.879L521.448 118.717V118.717Z" fill="#005A83"/>
<path fill-rule="evenodd" clip-rule="evenodd" d="M537.849 120.758V122.565H527.995V107.081H530.13V120.758H537.849" fill="#005A83"/>
<path fill-rule="evenodd" clip-rule="evenodd" d="M541.65 108.887H536.676V107.081H548.758V108.887H543.785V122.564H541.65V108.887" fill="#005A83"/>
<path fill-rule="evenodd" clip-rule="evenodd" d="M564.243 107.081V122.564H562.108V115.432H553.78V122.564H551.645V107.081H553.78V113.626H562.108V107.081H564.243" fill="#005A83"/>
</svg>
