<svg width="101" height="108" viewBox="0 0 101 108" fill="none" xmlns="http://www.w3.org/2000/svg">
<path fill-rule="evenodd" clip-rule="evenodd" d="M39.738 47.002L49.655 41.336L33.832 32.104L29.479 34.59L29.427 46.013L33.78 43.526L39.738 47.002" fill="#4A9443"/>
<path fill-rule="evenodd" clip-rule="evenodd" d="M67.575 54.476L67.523 65.899L83.468 56.789L83.48 53.841L73.615 48.084L73.601 51.034L67.575 54.476" fill="#005A83"/>
<path fill-rule="evenodd" clip-rule="evenodd" d="M45.402 73.765L35.536 68.009L35.443 88.435L39.807 90.982L49.726 85.316L45.361 82.769L45.402 73.765" fill="#2AB7CB"/>
<path fill-rule="evenodd" clip-rule="evenodd" d="M84.773 41.71L83.54 40.99L73.673 35.234L72.44 34.515L68.308 32.104L52.129 41.348L50.889 42.056L35.616 50.782L35.601 53.731L45.467 59.487L45.481 56.538L49.598 54.187L50.837 53.478L60.755 47.812L61.995 47.104L68.255 43.526L72.389 45.938L73.622 46.656L83.488 52.412L84.72 53.132L90.913 56.744L90.793 82.975L68.018 95.985L62.06 92.51L52.142 98.177L67.966 107.408L100.659 88.731L100.831 51.078L84.773 41.71" fill="#2AB7CB"/>
<path fill-rule="evenodd" clip-rule="evenodd" d="M61.988 48.5319L52.07 54.198L56.436 56.745L56.317 82.9749L52.2 85.327L50.96 86.035L41.041 91.702L39.801 92.41L33.541 95.986L10.884 82.769L11.004 56.5389L17.03 53.096L17.083 41.674L1.13798 50.783L0.96698 88.435L33.489 107.409L49.668 98.166L50.908 97.458L66.182 88.7309L66.353 51.0789L61.988 48.5319" fill="#4A9443"/>
<path fill-rule="evenodd" clip-rule="evenodd" d="M51.116 0.162964L18.423 18.841L18.252 56.493L45.408 72.337L46.641 73.057L50.773 75.468L55.126 72.981L55.178 61.559L50.826 64.045L46.693 61.635L45.461 60.915L35.595 55.159L34.362 54.439L28.17 50.827L28.181 48.148L28.288 24.597L51.064 11.585L73.72 24.803L73.679 33.807L83.546 39.562L83.638 19.137L51.116 0.162964" fill="#005A83"/>
</svg>
