<svg width="160" height="161" viewBox="0 0 160 161" fill="none" xmlns="http://www.w3.org/2000/svg">
<path fill-rule="evenodd" clip-rule="evenodd" d="M0.278015 160.206H159.611V0.873047H0.278015V160.206Z" fill="#005A83"/>
<path fill-rule="evenodd" clip-rule="evenodd" d="M70.097 69.757L80.015 64.091L64.192 54.859L59.839 57.345L59.787 68.767L64.139 66.281L70.097 69.757" fill="#FFFFFE"/>
<path fill-rule="evenodd" clip-rule="evenodd" d="M97.935 77.231L97.882 88.654L113.827 79.544L113.84 76.595L103.974 70.839L103.961 73.789L97.935 77.231" fill="#FFFFFE"/>
<path fill-rule="evenodd" clip-rule="evenodd" d="M75.761 96.519L65.896 90.764L65.803 111.19L70.167 113.736L80.086 108.07L75.72 105.523L75.761 96.519" fill="#FFFFFE"/>
<path fill-rule="evenodd" clip-rule="evenodd" d="M115.132 64.465L113.899 63.745L98.667 54.859L82.488 64.102L81.248 64.811L70.091 71.185L65.974 73.536L65.961 76.486L75.826 82.242L75.84 79.293L79.956 76.941L81.196 76.233L98.615 66.281L102.747 68.692L103.981 69.411L113.847 75.167L115.079 75.887L121.272 79.499L121.153 105.729L98.377 118.739L92.419 115.265L82.5 120.931L98.325 130.163L131.018 111.486L131.189 73.833L115.132 64.465" fill="#FFFFFE"/>
<path fill-rule="evenodd" clip-rule="evenodd" d="M92.347 71.287L82.43 76.953L86.795 79.5L86.784 82.179L86.677 105.729L82.56 108.082L81.32 108.79L63.901 118.74L41.244 105.523L41.364 79.294L47.39 75.85L47.442 64.429L31.497 73.537L31.326 111.19L63.849 130.164L80.028 120.921L81.268 120.213L96.542 111.486L96.713 73.834L92.347 71.287" fill="#FFFFFE"/>
<path fill-rule="evenodd" clip-rule="evenodd" d="M81.476 22.917L48.783 41.596L48.612 79.248L75.768 95.092L77.001 95.812L81.133 98.222L85.486 95.735L85.538 84.313L81.185 86.8L77.053 84.389L75.82 83.67L58.529 73.582L58.648 47.352L81.424 34.34L104.08 47.558L104.039 56.562L113.905 62.317L113.997 41.892L81.476 22.917" fill="#FFFFFE"/>
</svg>
