<svg width="641" height="270" viewBox="0 0 641 270" fill="none" xmlns="http://www.w3.org/2000/svg">
<path fill-rule="evenodd" clip-rule="evenodd" d="M164.553 24.7596H157.637V23.1542L159.552 22.9381V4.07523L157.637 3.82825V2.2229H170.727C171.365 2.2229 171.684 2.54265 171.684 3.17994V7.37855H170.048L169.832 3.92087H162.021V12.7812H170.264V14.4792H162.021V22.9381L164.553 23.1851V24.7596" fill="#4D4E4C"/>
<path fill-rule="evenodd" clip-rule="evenodd" d="M185.886 21.7032V21.271C184.547 23.8841 182.448 25.1918 179.588 25.1918C178.207 25.1918 177.107 24.7706 176.284 23.926C175.46 23.0814 175.049 21.9303 175.049 20.4683C175.049 18.4727 175.872 16.9687 177.519 15.961C179.164 14.9532 181.954 14.4482 185.886 14.4482V13.1516C185.886 11.3809 185.566 10.168 184.928 9.5087C184.289 8.84936 183.255 8.52079 181.826 8.52079C180.395 8.52079 178.794 9.01474 177.025 10.0027L176.223 8.15032C178.342 7.16241 180.359 6.66846 182.273 6.66846C185.257 6.66846 187.12 7.71811 187.861 9.81742C188.17 10.6818 188.324 11.7315 188.324 12.9664V21.4254C188.324 22.5566 188.757 23.1233 189.621 23.1233C189.908 23.1233 190.331 23.0616 190.887 22.9381L191.165 24.7904C190.362 25.0572 189.579 25.1918 188.818 25.1918C186.862 25.1918 185.886 24.0296 185.886 21.7032ZM185.886 16.0226C180.205 16.0226 177.365 17.4428 177.365 20.283C177.365 21.229 177.627 21.9655 178.152 22.4904C178.677 23.0152 179.411 23.2776 180.359 23.2776C181.841 23.2776 183.116 22.68 184.188 21.487C185.257 20.294 185.824 18.5961 185.886 16.3931V16.0226V16.0226Z" fill="#4D4E4C"/>
<path fill-rule="evenodd" clip-rule="evenodd" d="M209.75 8.05762V21.4253C209.75 22.5565 210.202 23.1232 211.108 23.1232C211.622 23.1232 212.043 23.0615 212.374 22.938L212.683 24.7903C211.838 25.0572 211.046 25.1917 210.305 25.1917C208.638 25.1917 207.67 24.4 207.403 22.8145C205.262 24.4 203.22 25.1917 201.275 25.1917C199.33 25.1917 197.957 24.744 197.154 23.8487C196.351 22.9534 195.95 21.5598 195.95 19.6656V8.95292L193.789 8.70594V7.10059H197.339C198.038 7.10059 198.389 7.42033 198.389 8.05762V19.6656C198.389 20.9622 198.62 21.8994 199.083 22.4749C199.546 23.0505 200.343 23.3394 201.476 23.3394C203.43 23.3394 205.386 22.5367 207.342 20.9313V8.95292L205.489 8.70594V7.10059H208.824C209.441 7.10059 209.75 7.42033 209.75 8.05762" fill="#4D4E4C"/>
<path fill-rule="evenodd" clip-rule="evenodd" d="M229.415 21.7032V12.1946C229.415 10.8979 229.184 9.96737 228.721 9.40064C228.258 8.83392 227.459 8.55166 226.328 8.55166C224.372 8.55166 222.469 9.31244 220.617 10.8362V22.9381L222.778 23.1542V24.7596H216.017V23.1542L218.178 22.9381V8.953L216.017 8.70602V7.10067H219.289C219.927 7.10067 220.246 7.40939 220.246 8.02683V9.23085C222.407 7.52185 224.588 6.66846 226.791 6.66846C228.56 6.66846 229.848 7.12051 230.65 8.02683C231.453 8.93315 231.854 10.3224 231.854 12.1946V21.4254C231.854 22.5566 232.295 23.1233 233.182 23.1233C233.552 23.1233 233.984 23.0616 234.478 22.9381L234.756 24.7904C233.954 25.0572 233.16 25.1918 232.379 25.1918C230.403 25.1918 229.415 24.0296 229.415 21.7032" fill="#4D4E4C"/>
<path fill-rule="evenodd" clip-rule="evenodd" d="M248.433 21.7032V21.271C247.094 23.8841 244.995 25.1918 242.135 25.1918C240.754 25.1918 239.654 24.7706 238.831 23.926C238.007 23.0814 237.596 21.9303 237.596 20.4683C237.596 18.4727 238.419 16.9687 240.066 15.961C241.711 14.9532 244.501 14.4482 248.433 14.4482V13.1516C248.433 11.3809 248.113 10.168 247.476 9.5087C246.836 8.84936 245.802 8.52079 244.373 8.52079C242.942 8.52079 241.341 9.01474 239.572 10.0027L238.77 8.15032C240.889 7.16241 242.906 6.66846 244.82 6.66846C247.804 6.66846 249.667 7.71811 250.408 9.81742C250.717 10.6818 250.871 11.7315 250.871 12.9664V21.4254C250.871 22.5566 251.304 23.1233 252.168 23.1233C252.455 23.1233 252.878 23.0616 253.434 22.9381L253.712 24.7904C252.909 25.0572 252.126 25.1918 251.365 25.1918C249.409 25.1918 248.433 24.0296 248.433 21.7032ZM248.433 16.0226C242.752 16.0226 239.912 17.4428 239.912 20.283C239.912 21.229 240.174 21.9655 240.699 22.4904C241.224 23.0152 241.958 23.2776 242.906 23.2776C244.388 23.2776 245.663 22.68 246.735 21.487C247.804 20.294 248.371 18.5961 248.433 16.3931V16.0226V16.0226Z" fill="#4D4E4C"/>
<path fill-rule="evenodd" clip-rule="evenodd" d="M265.752 13.4912C265.752 9.74465 266.548 6.8581 268.144 4.83156C269.739 2.80502 271.942 1.79065 274.751 1.79065C277.56 1.79065 279.768 2.80502 281.373 4.83156C282.979 6.8581 283.781 9.74465 283.781 13.4912C283.781 17.2378 282.979 20.1243 281.373 22.1508C279.768 24.1774 277.56 25.1918 274.751 25.1918C271.942 25.1918 269.739 24.1774 268.144 22.1508C266.548 20.1243 265.752 17.2378 265.752 13.4912ZM281.311 13.4912C281.311 10.3422 280.729 7.91875 279.567 6.22078C278.403 4.52281 276.797 3.67382 274.751 3.67382C272.703 3.67382 271.097 4.52281 269.935 6.22078C268.771 7.91875 268.191 10.3422 268.191 13.4912C268.191 16.6401 268.771 19.0636 269.935 20.7616C271.097 22.4595 272.703 23.3085 274.751 23.3085C276.797 23.3085 278.403 22.4595 279.567 20.7616C280.729 19.0636 281.311 16.6401 281.311 13.4912V13.4912Z" fill="#4D4E4C"/>
<path fill-rule="evenodd" clip-rule="evenodd" d="M301.1 21.7032V12.1946C301.1 10.8979 300.869 9.96737 300.406 9.40064C299.943 8.83392 299.145 8.55166 298.013 8.55166C296.057 8.55166 294.154 9.31244 292.302 10.8362V22.9381L294.463 23.1542V24.7596H287.702V23.1542L289.863 22.9381V8.953L287.702 8.70602V7.10067H290.974C291.612 7.10067 291.931 7.40939 291.931 8.02683V9.23085C294.093 7.52185 296.273 6.66846 298.476 6.66846C300.245 6.66846 301.533 7.12051 302.335 8.02683C303.138 8.93315 303.539 10.3224 303.539 12.1946V21.4254C303.539 22.5566 303.98 23.1233 304.867 23.1233C305.237 23.1233 305.67 23.0616 306.164 22.9381L306.441 24.7904C305.639 25.0572 304.845 25.1918 304.064 25.1918C302.088 25.1918 301.1 24.0296 301.1 21.7032" fill="#4D4E4C"/>
<path fill-rule="evenodd" clip-rule="evenodd" d="M324.162 16.4549H311.998C311.998 18.7395 312.574 20.519 313.727 21.7958C314.631 22.8036 315.873 23.3086 317.447 23.3086C319.022 23.3086 320.713 22.8455 322.526 21.9193L323.298 23.7099C321.218 24.6978 319.37 25.1918 317.756 25.1918C316.14 25.1918 314.812 24.9293 313.774 24.4045C312.733 23.8797 311.915 23.174 311.319 22.2898C310.166 20.4992 309.59 18.4727 309.59 16.208C309.59 13.5728 310.146 11.361 311.257 9.57044C311.833 8.66412 312.62 7.95406 313.619 7.44026C314.616 6.92646 315.785 6.66846 317.123 6.66846C319.324 6.66846 321.048 7.42041 322.294 8.92213C323.538 10.4238 324.162 12.4305 324.162 14.9422V16.4549ZM321.723 14.7261C321.723 12.854 321.311 11.3567 320.488 10.2342C319.663 9.11182 318.481 8.55171 316.938 8.55171C315.394 8.55171 314.23 9.13828 313.449 10.3114C312.666 11.4846 312.203 12.9554 312.06 14.7261H321.723V14.7261Z" fill="#4D4E4C"/>
<path fill-rule="evenodd" clip-rule="evenodd" d="M339.999 6.42141C339.175 8.41708 338.765 10.7744 338.765 13.4911C338.765 16.2079 339.175 18.574 339.999 20.5917C340.822 22.6095 341.933 24.1928 343.334 25.3461V27.044C341.296 26.0561 339.618 24.4045 338.301 22.089C336.983 19.7736 336.326 16.9069 336.326 13.4911C336.326 10.0754 336.983 7.21306 338.301 4.90868C339.618 2.60429 341.296 0.968063 343.334 0V1.6671C341.933 2.82039 340.822 4.4037 339.999 6.42141" fill="#4D4E4C"/>
<path fill-rule="evenodd" clip-rule="evenodd" d="M349.817 1.94495V21.4253C349.817 22.5565 350.258 23.1233 351.144 23.1233C351.453 23.1233 351.885 23.0615 352.441 22.938L352.719 24.7904C351.916 25.0572 351.122 25.1917 350.342 25.1917C348.366 25.1917 347.378 24.0296 347.378 21.7031V2.84025L345.526 2.59327V0.987915H348.891C349.508 0.987915 349.817 1.30766 349.817 1.94495" fill="#4D4E4C"/>
<path fill-rule="evenodd" clip-rule="evenodd" d="M355.96 15.7757C355.96 12.8738 356.613 10.6311 357.921 9.04561C359.226 7.46011 361.079 6.66846 363.478 6.66846C365.875 6.66846 367.784 7.51744 369.205 9.21541C370.625 10.9134 371.335 13.2089 371.335 16.0999C371.335 18.9909 370.675 21.2291 369.359 22.8146C368.04 24.4001 366.183 25.1918 363.786 25.1918C361.387 25.1918 359.484 24.3428 358.075 22.6448C356.664 20.9468 355.96 18.6579 355.96 15.7757ZM368.896 16.0845C368.896 13.7581 368.411 11.9212 367.445 10.5738C366.477 9.22648 365.169 8.55171 363.524 8.55171C361.877 8.55171 360.607 9.18018 359.711 10.4349C358.816 11.6896 358.368 13.4714 358.368 15.7758C358.368 18.0802 358.856 19.9127 359.835 21.271C360.812 22.6294 362.113 23.3086 363.74 23.3086C365.365 23.3086 366.631 22.6801 367.537 21.4254C368.442 20.1707 368.896 18.3889 368.896 16.0845V16.0845Z" fill="#4D4E4C"/>
<path fill-rule="evenodd" clip-rule="evenodd" d="M382.418 6.66846C383.322 6.66846 384.178 6.81179 384.98 7.10067H389.858V8.79864H387.45C388.396 9.95193 388.87 11.4536 388.87 13.306C388.87 15.1583 388.319 16.6247 387.218 17.7053C386.116 18.7858 384.517 19.326 382.418 19.326C381.203 19.326 380.122 19.0901 379.176 18.616L377.54 20.2831C377.066 20.7572 376.83 21.2401 376.83 21.7341C376.83 22.4133 377.262 22.7529 378.127 22.7529H384.857C386.358 22.7529 387.604 23.1388 388.592 23.9106C389.58 24.6824 390.074 25.7364 390.074 27.075C390.074 28.7002 389.41 29.9615 388.083 30.8568C386.755 31.7521 384.881 32.1997 382.464 32.1997C380.045 32.1997 378.131 31.8337 376.722 31.1038C375.311 30.3739 374.607 29.2162 374.607 27.6307C374.607 27.0551 374.75 26.4465 375.039 25.8092C375.326 25.1719 375.708 24.6669 376.182 24.2965C375.132 23.9062 374.607 23.2049 374.607 22.1972C374.607 21.1894 375.163 20.1398 376.274 19.0482L377.756 17.6281C376.561 16.4748 375.966 14.9069 375.966 12.9201C375.966 10.9332 376.515 9.39623 377.617 8.30468C378.718 7.21313 380.318 6.66846 382.418 6.66846ZM386.586 13.0899C386.586 11.6499 386.208 10.512 385.459 9.67847C384.707 8.84493 383.677 8.42815 382.372 8.42815C381.064 8.42815 380.049 8.81846 379.331 9.60129C378.61 10.3841 378.25 11.4999 378.25 12.9509C378.25 14.4019 378.636 15.5486 379.408 16.3932C380.18 17.2377 381.214 17.6589 382.51 17.6589C383.807 17.6589 384.81 17.2576 385.52 16.4549C386.231 15.6522 386.586 14.5298 386.586 13.0899ZM384.702 24.6053H378.003C377.262 25.4896 376.892 26.4224 376.892 27.3992C376.892 28.3761 377.394 29.1281 378.404 29.6529C379.412 30.1777 380.72 30.4401 382.325 30.4401C385.988 30.4401 387.82 29.3089 387.82 27.0442C387.82 26.2415 387.543 25.6351 386.987 25.2227C386.431 24.8104 385.668 24.6053 384.702 24.6053V24.6053Z" fill="#4D4E4C"/>
<path fill-rule="evenodd" clip-rule="evenodd" d="M392.945 15.7757C392.945 12.8738 393.598 10.6311 394.906 9.04561C396.211 7.46011 398.063 6.66846 400.463 6.66846C402.86 6.66846 404.769 7.51744 406.189 9.21541C407.61 10.9134 408.32 13.2089 408.32 16.0999C408.32 18.9909 407.66 21.2291 406.344 22.8146C405.025 24.4001 403.168 25.1918 400.771 25.1918C398.372 25.1918 396.469 24.3428 395.06 22.6448C393.649 20.9468 392.945 18.6579 392.945 15.7757ZM405.881 16.0845C405.881 13.7581 405.396 11.9212 404.43 10.5738C403.462 9.22648 402.154 8.55171 400.509 8.55171C398.862 8.55171 397.592 9.18018 396.696 10.4349C395.801 11.6896 395.353 13.4714 395.353 15.7758C395.353 18.0802 395.841 19.9127 396.82 21.271C397.797 22.6294 399.098 23.3086 400.725 23.3086C402.35 23.3086 403.616 22.6801 404.522 21.4254C405.426 20.1707 405.881 18.3889 405.881 16.0845V16.0845Z" fill="#4D4E4C"/>
<path fill-rule="evenodd" clip-rule="evenodd" d="M411.407 8.79842V7.10045H414.093V3.08707L416.532 2.53137V7.10045H419.897V8.79842H416.532V21.4251C416.532 22.5365 416.984 23.0922 417.89 23.0922C418.485 23.0922 419.063 22.9798 419.619 22.7526L419.897 24.6358C418.929 25.0063 417.956 25.1915 416.979 25.1915C416 25.1915 415.275 24.9093 414.803 24.3426C414.329 23.7758 414.093 22.8761 414.093 21.6412V8.79842H411.407" fill="#4D4E4C"/>
<path fill-rule="evenodd" clip-rule="evenodd" d="M430.023 28.0319C429.467 29.6174 428.843 30.7134 428.155 31.3198C427.465 31.9262 426.539 32.2305 425.376 32.2305C424.212 32.2305 423.158 31.9527 422.212 31.397L422.891 29.6064C423.652 30.0386 424.413 30.2547 425.176 30.2547C426.389 30.2547 427.233 29.6064 427.707 28.3098L428.695 25.5004L421.687 7.10059H424.157L429.776 22.228L434.468 7.90326C434.654 7.36741 435.033 7.10059 435.611 7.10059H438.08V8.73681L436.568 8.98379L430.023 28.0319" fill="#4D4E4C"/>
<path fill-rule="evenodd" clip-rule="evenodd" d="M449.133 23.3085C452.445 23.3085 454.103 20.8498 454.103 15.9301C454.103 13.9543 453.794 12.2761 453.177 10.8979C452.846 10.157 452.359 9.57482 451.71 9.15363C451.062 8.73245 450.295 8.52075 449.41 8.52075C447.805 8.52075 446.292 9.46676 444.872 11.361V22.2589C446.147 22.9579 447.567 23.3085 449.133 23.3085ZM440.272 7.10067H443.545C444.182 7.10067 444.502 7.40939 444.502 8.02683V9.97178C446.169 7.76883 448.092 6.66846 450.275 6.66846C451.364 6.66846 452.332 6.94631 453.177 7.50201C454.019 8.0577 454.678 8.78761 455.153 9.69393C456.079 11.5044 456.542 13.5838 456.542 15.9301C456.542 18.3183 456.099 20.3867 455.214 22.1354C454.72 23.0814 453.988 23.829 453.022 24.3737C452.054 24.9183 450.835 25.1918 449.364 25.1918C447.891 25.1918 446.394 24.8213 444.872 24.0804V31.7675L442.433 31.9528V8.953L440.272 8.70602V7.10067V7.10067Z" fill="#4D4E4C"/>
<path fill-rule="evenodd" clip-rule="evenodd" d="M475.22 16.4549H463.056C463.056 18.7395 463.631 20.519 464.785 21.7958C465.689 22.8036 466.93 23.3086 468.505 23.3086C470.079 23.3086 471.771 22.8455 473.583 21.9193L474.355 23.7099C472.276 24.6978 470.428 25.1918 468.814 25.1918C467.197 25.1918 465.87 24.9293 464.831 24.4045C463.79 23.8797 462.972 23.174 462.377 22.2898C461.223 20.4992 460.648 18.4727 460.648 16.208C460.648 13.5728 461.204 11.361 462.315 9.57044C462.891 8.66412 463.678 7.95406 464.677 7.44026C465.673 6.92646 466.842 6.66846 468.181 6.66846C470.381 6.66846 472.106 7.42041 473.352 8.92213C474.595 10.4238 475.22 12.4305 475.22 14.9422V16.4549ZM472.781 14.7261C472.781 12.854 472.368 11.3567 471.546 10.2342C470.721 9.11182 469.539 8.55171 467.995 8.55171C466.452 8.55171 465.288 9.13828 464.507 10.3114C463.724 11.4846 463.261 12.9554 463.118 14.7261H472.781V14.7261Z" fill="#4D4E4C"/>
<path fill-rule="evenodd" clip-rule="evenodd" d="M482.598 4.90868C483.915 7.21306 484.574 10.0754 484.574 13.4911C484.574 16.9069 483.915 19.7736 482.598 22.089C481.279 24.4045 479.603 26.0561 477.566 27.044V25.3461C478.964 24.1928 480.075 22.6095 480.9 20.5917C481.723 18.574 482.135 16.2079 482.135 13.4911C482.135 10.7744 481.723 8.41267 480.9 6.40598C480.075 4.39928 478.964 2.82039 477.566 1.6671V0C479.603 0.968063 481.279 2.60429 482.598 4.90868" fill="#4D4E4C"/>
<path fill-rule="evenodd" clip-rule="evenodd" d="M118.961 66.9024V66.5628C117.909 68.6158 116.26 69.6434 114.013 69.6434C112.928 69.6434 112.064 69.3126 111.417 68.6489C110.769 67.9851 110.447 67.081 110.447 65.9321C110.447 64.3642 111.093 63.1823 112.388 62.3906C113.68 61.599 115.872 61.202 118.961 61.202V60.1833C118.961 58.7918 118.71 57.8392 118.209 57.321C117.707 56.8028 116.895 56.5448 115.77 56.5448C114.646 56.5448 113.389 56.9329 112 57.7091L111.369 56.2537C113.034 55.4775 114.619 55.0894 116.123 55.0894C118.467 55.0894 119.932 55.9141 120.514 57.5635C120.756 58.2427 120.878 59.0675 120.878 60.0377V66.6841C120.878 67.5727 121.217 68.0182 121.896 68.0182C122.121 68.0182 122.454 67.9697 122.891 67.8726L123.109 69.328C122.478 69.5375 121.863 69.6434 121.266 69.6434C119.729 69.6434 118.961 68.7304 118.961 66.9024ZM118.961 62.4391C114.498 62.4391 112.266 63.5549 112.266 65.7865C112.266 66.5297 112.471 67.1096 112.884 67.522C113.296 67.9344 113.874 68.1394 114.619 68.1394C115.784 68.1394 116.785 67.6697 117.627 66.7326C118.467 65.7954 118.913 64.4612 118.961 62.7302V62.4391V62.4391Z" fill="#4D4E4C"/>
<path fill-rule="evenodd" clip-rule="evenodd" d="M130.556 51.3779V57.3208C131.8 55.8323 133.288 55.0892 135.019 55.0892C135.923 55.0892 136.724 55.3075 137.421 55.7441C138.115 56.1808 138.649 56.7541 139.022 57.4664C139.78 58.9063 140.162 60.5381 140.162 62.3662C140.162 64.0796 139.716 65.674 138.828 67.1448C138.391 67.8879 137.76 68.4921 136.935 68.953C136.111 69.4139 135.24 69.6432 134.327 69.6432C133.414 69.6432 132.644 69.5462 132.022 69.3522C131.401 69.1581 130.823 68.8339 130.289 68.3819C129.189 67.4601 128.64 65.868 128.64 63.6033V52.0814L127.136 51.8873V50.626H129.828C130.313 50.626 130.556 50.8774 130.556 51.3779ZM130.556 63.5547C130.556 65.1711 130.887 66.3442 131.55 67.0719C132.212 67.7996 133.061 68.1635 134.097 68.1635C135.438 68.1635 136.466 67.6431 137.178 66.6C137.888 65.557 138.245 64.1457 138.245 62.3661C138.245 60.8291 137.985 59.5127 137.469 58.4123C136.887 57.1664 135.87 56.5445 134.424 56.5445C132.977 56.5445 131.687 57.2877 130.556 58.7761V63.5547V63.5547Z" fill="#4D4E4C"/>
<path fill-rule="evenodd" clip-rule="evenodd" d="M151.295 69.6434C150.277 69.6434 149.381 69.4251 148.614 68.9884C147.847 68.5518 147.251 67.9608 146.832 67.2177C145.99 65.7954 145.571 64.1459 145.571 62.2693C145.571 59.8767 146.193 58.009 147.439 56.666C147.875 56.1963 148.449 55.8171 149.161 55.526C149.871 55.2349 150.68 55.0894 151.587 55.0894C153.057 55.0894 154.522 55.462 155.977 56.2052L155.346 57.6121C154.116 56.9174 152.863 56.569 151.587 56.569C150.777 56.569 150.089 56.7432 149.525 57.0916C148.958 57.4378 148.532 57.9075 148.25 58.4985C147.968 59.0873 147.765 59.6893 147.644 60.3045C147.522 60.9198 147.463 61.5747 147.463 62.2693C147.463 62.964 147.518 63.6277 147.633 64.2584C147.745 64.8891 147.93 65.5109 148.191 66.1262C148.449 66.7414 148.846 67.2331 149.379 67.6058C149.913 67.9785 150.55 68.1637 151.295 68.1637C152.945 68.1637 154.085 67.3236 154.716 65.641L156.268 66.1504C155.377 68.4791 153.721 69.6434 151.295 69.6434" fill="#4D4E4C"/>
<path fill-rule="evenodd" clip-rule="evenodd" d="M169.051 50.626H171.695C172.211 50.626 172.454 50.8774 172.423 51.3779V66.6839C172.423 67.5726 172.769 68.018 173.466 68.018C173.757 68.018 174.097 67.9695 174.485 67.8725L174.703 69.3279C174.073 69.5374 173.448 69.6432 172.835 69.6432C171.444 69.6432 170.677 68.9155 170.531 67.4601C169.464 68.9155 168.13 69.6432 166.529 69.6432C165.607 69.6432 164.793 69.4249 164.09 68.9883C163.386 68.5517 162.848 67.9783 162.478 67.2661C161.717 65.8261 161.338 64.1943 161.338 62.3662C161.338 60.4896 161.684 58.8644 162.381 57.4906C162.769 56.7475 163.342 56.1609 164.103 55.7331C164.862 55.3031 165.827 55.0892 167.001 55.0892C168.174 55.0892 169.342 55.3891 170.507 55.9867V52.0814L169.051 51.8873V50.626ZM167.184 56.5688C164.564 56.5688 163.254 58.5005 163.254 62.3661C163.254 63.9185 163.497 65.2372 163.982 66.3199C164.24 66.9021 164.623 67.3586 165.133 67.6916C165.642 68.0223 166.244 68.1877 166.941 68.1877C168.348 68.1877 169.537 67.4512 170.507 65.9804V57.3935C169.503 56.8444 168.396 56.5688 167.184 56.5688V56.5688Z" fill="#4D4E4C"/>
<path fill-rule="evenodd" clip-rule="evenodd" d="M191.125 62.7787H181.568C181.568 64.5737 182.02 65.9718 182.926 66.9751C183.636 67.7668 184.611 68.1637 185.848 68.1637C187.085 68.1637 188.415 67.7999 189.839 67.0722L190.446 68.4791C188.812 69.2553 187.361 69.6434 186.091 69.6434C184.82 69.6434 183.777 69.4383 182.961 69.0259C182.146 68.6136 181.502 68.0579 181.034 67.3633C180.128 65.9564 179.676 64.3642 179.676 62.5847C179.676 60.514 180.112 58.7764 180.986 57.3695C181.438 56.6572 182.055 56.0993 182.84 55.6958C183.625 55.2922 184.543 55.0894 185.594 55.0894C187.323 55.0894 188.677 55.6803 189.656 56.8601C190.635 58.0399 191.125 59.6165 191.125 61.5902V62.7787ZM189.209 61.4204C189.209 59.9495 188.885 58.772 188.238 57.8921C187.59 57.0101 186.662 56.569 185.449 56.569C184.236 56.569 183.321 57.0299 182.708 57.9517C182.093 58.8734 181.729 60.0289 181.616 61.4204H189.209V61.4204Z" fill="#4D4E4C"/>
<path fill-rule="evenodd" clip-rule="evenodd" d="M202.55 69.3036H196.534V68.0423L198.232 67.8725V56.7629H196.534V55.4288H198.232C198.312 53.7462 198.728 52.465 199.48 51.5852C200.232 50.7031 201.401 50.2621 202.986 50.2621C204.021 50.2621 204.909 50.4716 205.655 50.8928L205.145 52.3239C204.563 51.9358 203.827 51.7417 202.938 51.7417C201.207 51.7417 200.276 52.97 200.148 55.4288H203.011V56.7629H200.148V67.8725L202.55 68.0423V69.3036" fill="#4D4E4C"/>
<path fill-rule="evenodd" clip-rule="evenodd" d="M213.271 55.0894C213.981 55.0894 214.654 55.2018 215.285 55.4289H219.117V56.7631H217.225C217.968 57.6694 218.341 58.8491 218.341 60.3045C218.341 61.76 217.907 62.9132 217.042 63.7622C216.178 64.6112 214.921 65.0346 213.271 65.0346C212.317 65.0346 211.468 64.8494 210.724 64.4767L209.439 65.7866C209.066 66.1592 208.881 66.5385 208.881 66.9266C208.881 67.4603 209.22 67.7271 209.9 67.7271H215.188C216.367 67.7271 217.346 68.0314 218.123 68.6378C218.899 69.2442 219.287 70.0712 219.287 71.123C219.287 72.3998 218.764 73.3921 217.721 74.0956C216.678 74.799 215.207 75.1497 213.307 75.1497C211.406 75.1497 209.902 74.863 208.795 74.2896C207.688 73.7141 207.134 72.8056 207.134 71.5597C207.134 71.1076 207.247 70.6291 207.474 70.1285C207.699 69.6279 207.999 69.231 208.371 68.9399C207.547 68.6334 207.134 68.0821 207.134 67.2905C207.134 66.4988 207.571 65.6741 208.444 64.8163L209.609 63.7005C208.669 62.7942 208.202 61.5615 208.202 60.0024C208.202 58.4412 208.634 57.2328 209.498 56.375C210.363 55.5172 211.622 55.0894 213.271 55.0894ZM216.546 60.1346C216.546 59.0034 216.251 58.1103 215.66 57.4553C215.069 56.8004 214.261 56.4718 213.234 56.4718C212.206 56.4718 211.41 56.7784 210.846 57.3936C210.279 58.0088 209.997 58.8865 209.997 60.0266C209.997 61.1666 210.299 62.0663 210.905 62.7301C211.512 63.3938 212.325 63.7246 213.344 63.7246C214.363 63.7246 215.15 63.4093 215.708 62.7786C216.266 62.1479 216.546 61.2659 216.546 60.1346ZM215.066 69.1824H209.803C209.22 69.8771 208.929 70.6092 208.929 71.3788C208.929 72.1462 209.324 72.7372 210.118 73.1495C210.91 73.5619 211.937 73.767 213.199 73.767C216.076 73.767 217.516 72.8783 217.516 71.0987C217.516 70.4681 217.298 69.9917 216.861 69.6676C216.425 69.3434 215.825 69.1824 215.066 69.1824V69.1824Z" fill="#4D4E4C"/>
<path fill-rule="evenodd" clip-rule="evenodd" d="M234.375 66.9022V59.4312C234.375 58.4124 234.192 57.6803 233.828 57.237C233.464 56.7916 232.838 56.5689 231.949 56.5689C230.412 56.5689 228.917 57.1665 227.462 58.3639V67.8725L229.135 68.0423V69.3036H223.847V68.0423L225.545 67.8725V52.0814L223.847 51.8873V50.626H226.418C226.919 50.626 227.17 50.8685 227.17 51.3537V57.1025C228.835 55.7596 230.549 55.0892 232.313 55.0892C233.702 55.0892 234.714 55.4442 235.345 56.1565C235.976 56.8688 236.291 57.9603 236.291 59.4312V66.6839C236.291 67.5726 236.637 68.018 237.334 68.018C237.577 68.018 237.916 67.9695 238.353 67.8725L238.571 69.3279C237.907 69.5374 237.228 69.6432 236.534 69.6432C235.094 69.6432 234.375 68.7303 234.375 66.9022" fill="#4D4E4C"/>
<path fill-rule="evenodd" clip-rule="evenodd" d="M246.794 56.1807V66.6838C246.794 67.5725 247.149 68.0179 247.861 68.0179C248.135 68.0179 248.468 67.9694 248.856 67.8724L249.098 69.3278C248.435 69.5373 247.756 69.6431 247.061 69.6431C245.621 69.6431 244.902 68.7302 244.902 66.9021V56.8841L243.447 56.6901V55.4287H246.066C246.552 55.4287 246.794 55.6801 246.794 56.1807ZM245.872 53.1728C245.548 53.1728 245.262 53.0515 245.01 52.8089C244.759 52.5664 244.635 52.2797 244.635 51.9489C244.635 51.616 244.759 51.3249 245.01 51.0757C245.262 50.8243 245.553 50.6986 245.883 50.6986C246.214 50.6986 246.503 50.8243 246.746 51.0757C246.988 51.3249 247.109 51.616 247.109 51.9489C247.109 52.2797 246.988 52.5664 246.746 52.8089C246.503 53.0515 246.212 53.1728 245.872 53.1728V53.1728Z" fill="#4D4E4C"/>
<path fill-rule="evenodd" clip-rule="evenodd" d="M256.473 53.1728C256.148 53.1728 255.862 53.0515 255.61 52.8089C255.359 52.5664 255.235 52.2797 255.235 51.9489C255.235 51.616 255.359 51.3249 255.61 51.0757C255.862 50.8243 256.153 50.6986 256.484 50.6986C256.814 50.6986 257.103 50.8243 257.346 51.0757C257.588 51.3249 257.71 51.616 257.71 51.9489C257.71 52.2797 257.588 52.5664 257.346 52.8089C257.103 53.0515 256.812 53.1728 256.473 53.1728ZM257.394 56.1807V70.2496C257.394 72.1261 257.046 73.4118 256.351 74.1064C255.654 74.801 254.636 75.1494 253.295 75.1494C252.373 75.1494 251.515 74.9796 250.724 74.64L251.185 73.2331C251.798 73.5242 252.466 73.6698 253.185 73.6698C253.904 73.6698 254.47 73.4316 254.883 72.9553C255.295 72.4768 255.502 71.5594 255.502 70.201V56.8841L254.047 56.6901V55.4287H256.667C257.152 55.4287 257.394 55.6801 257.394 56.1807V56.1807Z" fill="#4D4E4C"/>
<path fill-rule="evenodd" clip-rule="evenodd" d="M274.277 67.4844C274.55 67.9056 274.879 68.1151 275.258 68.1151C275.638 68.1151 275.99 68.0665 276.315 67.9695L276.533 69.3279C276.015 69.5374 275.466 69.6432 274.883 69.6432C274.026 69.6432 273.346 69.2463 272.846 68.4547L269.013 62.4875H267.364V67.8725L269.304 68.0423V69.3036H263.75V68.0423L265.448 67.8725V52.0814L263.75 51.8873V50.626H266.612C267.112 50.626 267.364 50.8774 267.364 51.3779V61.1776H269.28L272.943 55.9139C273.152 55.5898 273.452 55.4288 273.84 55.4288H275.805V56.6902L274.277 56.8842L270.687 61.9539L274.277 67.4844" fill="#4D4E4C"/>
<path fill-rule="evenodd" clip-rule="evenodd" d="M284.052 51.3779V66.6839C284.052 67.5726 284.399 68.018 285.095 68.018C285.338 68.018 285.678 67.9695 286.114 67.8725L286.333 69.3279C285.702 69.5374 285.078 69.6432 284.465 69.6432C282.912 69.6432 282.136 68.7303 282.136 66.9022V52.0814L280.681 51.8873V50.626H283.325C283.81 50.626 284.052 50.8774 284.052 51.3779" fill="#4D4E4C"/>
<path fill-rule="evenodd" clip-rule="evenodd" d="M301.469 68.6003V59.4313C301.469 58.4125 301.286 57.6804 300.922 57.2372C300.558 56.7917 299.932 56.569 299.043 56.569C297.685 56.569 296.342 57.1666 295.016 58.364V67.8726L296.714 68.0424V69.3038H291.402V68.0424L293.1 67.8726V56.8844L291.402 56.6903V55.4289H293.973C294.474 55.4289 294.725 55.6715 294.725 56.1567V57.1027C296.26 55.7597 297.874 55.0894 299.564 55.0894C301.253 55.0894 302.382 55.7112 302.948 56.9571C304.468 55.7112 305.967 55.0894 307.447 55.0894C308.927 55.0894 309.983 55.4444 310.614 56.1567C311.244 56.8689 311.56 57.9605 311.56 59.4313V66.6841C311.56 67.5727 311.906 68.0182 312.603 68.0182C313.022 68.0182 313.361 67.9697 313.621 67.8726L313.84 69.328C313.209 69.5375 312.585 69.6434 311.972 69.6434C310.419 69.6434 309.643 68.7304 309.643 66.9024V59.4313C309.643 58.4125 309.46 57.6804 309.096 57.2372C308.733 56.7917 308.106 56.569 307.218 56.569C305.908 56.569 304.598 57.1027 303.288 58.17C303.352 58.6882 303.385 59.1071 303.385 59.4313V67.8726L305.059 68.0424V69.3038H302.221C301.718 69.3038 301.469 69.07 301.469 68.6003" fill="#4D4E4C"/>
<path fill-rule="evenodd" clip-rule="evenodd" d="M329.315 66.9024V59.4313C329.315 58.4125 329.132 57.6804 328.769 57.2372C328.405 56.7917 327.779 56.569 326.89 56.569C325.353 56.569 323.858 57.1666 322.402 58.364V67.8726L324.1 68.0424V69.3038H318.788V68.0424L320.486 67.8726V56.8844L318.788 56.6903V55.4289H321.359C321.86 55.4289 322.111 55.6715 322.111 56.1567V57.1027C323.809 55.7597 325.523 55.0894 327.254 55.0894C328.643 55.0894 329.655 55.4444 330.286 56.1567C330.916 56.8689 331.232 57.9605 331.232 59.4313V66.6841C331.232 67.5727 331.578 68.0182 332.275 68.0182C332.566 68.0182 332.905 67.9697 333.294 67.8726L333.512 69.328C332.881 69.5375 332.257 69.6434 331.644 69.6434C330.092 69.6434 329.315 68.7304 329.315 66.9024" fill="#4D4E4C"/>
<path fill-rule="evenodd" clip-rule="evenodd" d="M338.412 62.2451C338.412 59.965 338.923 58.203 339.951 56.9571C340.979 55.7112 342.434 55.0894 344.317 55.0894C346.2 55.0894 347.702 55.7575 348.818 57.0916C349.934 58.4258 350.492 60.2274 350.492 62.5009C350.492 64.7722 349.973 66.5297 348.939 67.7756C347.903 69.0215 346.443 69.6434 344.56 69.6434C342.676 69.6434 341.179 68.9774 340.072 67.6433C338.965 66.3092 338.412 64.5098 338.412 62.2451ZM348.575 62.4877C348.575 60.6596 348.194 59.2174 347.435 58.1589C346.674 57.0983 345.647 56.569 344.355 56.569C343.06 56.569 342.061 57.063 341.358 58.0487C340.654 59.0344 340.304 60.4347 340.304 62.2451C340.304 64.0555 340.687 65.4955 341.455 66.5628C342.222 67.6301 343.245 68.1637 344.524 68.1637C345.801 68.1637 346.796 67.6698 347.508 66.6841C348.218 65.6984 348.575 64.2981 348.575 62.4877V62.4877Z" fill="#4D4E4C"/>
<path fill-rule="evenodd" clip-rule="evenodd" d="M362.62 68.1638C365.222 68.1638 366.525 66.232 366.525 62.3664C366.525 60.814 366.283 59.4953 365.798 58.4126C365.537 57.8304 365.154 57.3739 364.644 57.0432C364.135 56.7102 363.533 56.5448 362.838 56.5448C361.577 56.5448 360.388 57.2879 359.272 58.7764V67.339C360.274 67.8881 361.389 68.1638 362.62 68.1638ZM355.658 55.4289H358.229C358.73 55.4289 358.981 55.6715 358.981 56.1567V57.6848C360.291 55.9538 361.802 55.0894 363.517 55.0894C364.373 55.0894 365.134 55.3077 365.798 55.7443C366.459 56.1809 366.977 56.7542 367.35 57.4665C368.078 58.8888 368.441 60.5229 368.441 62.3664C368.441 64.243 368.093 65.8682 367.398 67.242C367.01 67.9851 366.435 68.5717 365.676 69.0017C364.915 69.4295 363.956 69.6434 362.801 69.6434C361.645 69.6434 360.468 69.3523 359.272 68.7701V74.8101L357.356 74.9556V56.8844L355.658 56.6903V55.4289V55.4289Z" fill="#4D4E4C"/>
<path fill-rule="evenodd" clip-rule="evenodd" d="M379.114 69.6434C378.224 69.6434 377.443 69.4251 376.773 68.9884C376.102 68.5518 375.58 67.9785 375.209 67.2662C374.464 65.8108 374.093 64.1768 374.093 62.3664C374.093 60.6684 374.521 59.0829 375.379 57.6121C375.816 56.8513 376.433 56.2427 377.233 55.7818C378.034 55.3209 378.969 55.0894 380.036 55.0894C382.056 55.0894 383.463 55.9869 384.257 57.7819V56.1567C384.257 55.6715 384.506 55.4289 385.009 55.4289H387.071V56.6903L385.373 56.8844V74.9556L383.456 74.8101V67.436C382.259 68.9069 380.812 69.6434 379.114 69.6434ZM383.456 61.1778C383.456 59.5438 383.137 58.3684 382.497 57.6495C381.858 56.9285 381.031 56.569 380.012 56.569C378.718 56.569 377.723 57.0916 377.028 58.1347C376.332 59.1777 375.985 60.5868 375.985 62.3664C375.985 63.8857 376.243 65.2044 376.762 66.3202C377.02 66.9024 377.408 67.3588 377.926 67.6918C378.442 68.0226 379.057 68.188 379.769 68.188C381.128 68.188 382.356 67.4515 383.456 65.9806V61.1778V61.1778Z" fill="#4D4E4C"/>
<path fill-rule="evenodd" clip-rule="evenodd" d="M396.094 62.5119V67.8726L398.52 68.0424V69.3038H392.48V68.0424L394.178 67.8726V56.8844L392.48 56.6903V55.4289H395.051C395.552 55.4289 395.803 55.6803 395.803 56.1809V59.1887C396.24 58.0729 396.897 57.1225 397.779 56.3397C398.661 55.5546 399.724 55.1379 400.97 55.0894V56.7631C399.611 56.8116 398.458 57.3607 397.512 58.4125C396.566 59.4644 396.094 60.8294 396.094 62.5119" fill="#4D4E4C"/>
<path fill-rule="evenodd" clip-rule="evenodd" d="M413.559 57.4665C412.298 56.8689 411.14 56.569 410.09 56.569C409.038 56.569 408.258 56.7542 407.748 57.1269C407.239 57.4996 406.985 58.0134 406.985 58.6683C406.985 59.3233 407.243 59.8635 407.762 60.2935C408.278 60.7213 408.908 61.0808 409.654 61.3718C410.397 61.6629 411.136 61.9694 411.872 62.2936C412.609 62.6178 413.235 63.0786 413.753 63.6762C414.269 64.2738 414.529 65.0103 414.529 65.8836C414.529 67.0633 414.095 67.9851 413.23 68.6489C412.366 69.3126 411.222 69.6434 409.799 69.6434C408.375 69.6434 407.224 69.2994 406.341 68.6136C405.459 67.9256 404.875 66.9509 404.584 65.6895L406.258 65.3014C406.822 67.242 407.956 68.2122 409.654 68.2122C410.606 68.2122 411.343 68.0094 411.861 67.6058C412.377 67.2023 412.637 66.6642 412.637 65.9938C412.637 65.3213 412.377 64.7766 411.861 64.3554C411.343 63.9342 410.712 63.5792 409.969 63.2881C409.224 62.997 408.48 62.6905 407.737 62.3664C406.992 62.0422 406.361 61.5747 405.845 60.9595C405.327 60.3442 405.069 59.6011 405.069 58.7279C405.069 57.579 405.506 56.6859 406.379 56.0486C407.252 55.4091 408.394 55.0894 409.81 55.0894C411.226 55.0894 412.677 55.4135 414.165 56.0596L413.559 57.4665" fill="#4D4E4C"/>
<path fill-rule="evenodd" clip-rule="evenodd" d="M419.065 56.763V55.4289H421.176V52.2755L423.092 51.8389V55.4289H425.736V56.763H423.092V66.684C423.092 67.5572 423.447 67.9938 424.159 67.9938C424.627 67.9938 425.081 67.9056 425.518 67.727L425.736 69.2067C424.975 69.4978 424.21 69.6433 423.443 69.6433C422.675 69.6433 422.104 69.4206 421.734 68.9773C421.361 68.5319 421.176 67.824 421.176 66.8538V56.763H419.065" fill="#4D4E4C"/>
<path fill-rule="evenodd" clip-rule="evenodd" d="M442.788 56.1807V66.6838C442.788 67.5725 443.143 68.0179 443.856 68.0179C444.259 68.0179 444.59 67.9694 444.85 67.8724L445.093 69.3278C444.429 69.5373 443.807 69.6431 443.225 69.6431C441.915 69.6431 441.154 69.0213 440.945 67.7754C439.262 69.0213 437.657 69.6431 436.129 69.6431C434.601 69.6431 433.522 69.2925 432.892 68.5891C432.261 67.8856 431.946 66.7897 431.946 65.3012V56.8841L430.248 56.6901V55.4287H433.037C433.586 55.4287 433.862 55.6801 433.862 56.1807V65.3012C433.862 66.32 434.043 67.0565 434.407 67.5086C434.77 67.9606 435.397 68.1877 436.288 68.1877C437.822 68.1877 439.359 67.5571 440.896 66.2957V56.8841L439.441 56.6901V55.4287H442.061C442.546 55.4287 442.788 55.6801 442.788 56.1807" fill="#4D4E4C"/>
<path fill-rule="evenodd" clip-rule="evenodd" d="M459.938 55.4287H461.854V56.6901L460.666 56.8841L456.396 69.3035H454.286L448.998 55.4287H450.914L455.329 67.3388L459.04 56.0594C459.186 55.6382 459.484 55.4287 459.938 55.4287" fill="#4D4E4C"/>
<path fill-rule="evenodd" clip-rule="evenodd" d="M481.72 55.4287H483.637V56.6901L482.448 56.8841L478.931 69.3035H476.796L474.007 57.7816L471.266 69.3035H469.107L465.177 55.4287H467.045L470.271 67.3388L473.133 55.4287H474.904L477.766 67.3388L480.823 56.0594C480.951 55.6382 481.251 55.4287 481.72 55.4287" fill="#4D4E4C"/>
<path fill-rule="evenodd" clip-rule="evenodd" d="M497.536 55.4287H499.137V56.6901L498.094 56.8599L494.285 62.4146L499.379 69.3035H497.317L493.194 63.7245L489.701 68.8184C489.474 69.1426 489.167 69.3035 488.779 69.3035H486.936V68.0422L488.197 67.8724L492.078 62.1963L487.105 55.4287H489.167L493.218 60.935L496.59 55.9381C496.832 55.5985 497.148 55.4287 497.536 55.4287" fill="#4D4E4C"/>
<path fill-rule="evenodd" clip-rule="evenodd" d="M509.179 71.8748C508.742 73.1207 508.253 73.9807 507.71 74.4592C507.168 74.9355 506.44 75.1737 505.527 75.1737C504.614 75.1737 503.785 74.9554 503.042 74.5187L503.576 73.1119C504.173 73.4514 504.771 73.6212 505.371 73.6212C506.323 73.6212 506.987 73.1119 507.36 72.0931L508.136 69.8857L502.63 55.4287H504.57L508.985 67.3145L512.672 56.0594C512.817 55.6382 513.115 55.4287 513.569 55.4287H515.51V56.7143L514.321 56.9084L509.179 71.8748" fill="#4D4E4C"/>
<path fill-rule="evenodd" clip-rule="evenodd" d="M530.719 65.2284V68.5516C530.719 69.0522 530.476 69.3035 529.991 69.3035H519.9V68.0422L528.148 56.7628H521.623L521.429 59.5038H520.24V56.1807C520.24 55.6801 520.489 55.4287 520.992 55.4287H530.379V56.6901L522.132 67.9694H529.336L529.53 65.2284H530.719" fill="#4D4E4C"/>
<path fill-rule="evenodd" clip-rule="evenodd" d="M86.9424 98.4117H85.0504V97.1504L86.2147 96.9806L91.5754 80.7043H94.1466L99.5316 96.9806L100.696 97.1504V98.4117H98.8039C98.3673 98.4117 98.0762 98.2023 97.9307 97.7811L96.354 92.9782H89.3923L87.8156 97.7811C87.6701 98.2023 87.379 98.4117 86.9424 98.4117ZM92.9338 82.5235H92.8125L89.8774 91.4742H95.8689L92.9338 82.5235V82.5235Z" fill="#4D4E4C"/>
<path fill-rule="evenodd" clip-rule="evenodd" d="M104.868 80.7043H111.223C112.985 80.7043 114.352 81.1211 115.323 81.9547C116.293 82.786 116.778 83.9151 116.778 85.3374C116.778 86.3716 116.511 87.2448 115.978 87.9571C115.444 88.6694 114.692 89.1214 113.722 89.3155C114.917 89.4765 115.856 89.9417 116.536 90.7113C117.215 91.4787 117.554 92.4292 117.554 93.5604C117.554 96.7954 115.726 98.4117 112.072 98.4117H104.868V97.1504L106.396 96.9806V82.1597L104.868 81.9657V80.7043ZM108.337 82.0384V97.0776H112.024C114.432 97.0776 115.638 95.9044 115.638 93.5603C115.638 92.4445 115.281 91.5801 114.571 90.9649C113.859 90.3496 112.849 90.0431 111.539 90.0431H109.865V88.709H111.539C113.753 88.709 114.862 87.5844 114.862 85.3373C114.862 84.334 114.542 83.5335 113.903 82.9359C113.263 82.3383 112.33 82.0384 111.102 82.0384H108.337V82.0384Z" fill="#4D4E4C"/>
<path fill-rule="evenodd" clip-rule="evenodd" d="M129.392 81.8443C128.421 81.8443 127.597 82.0824 126.917 82.561C126.238 83.0373 125.735 83.679 125.414 84.4883C124.847 85.9591 124.565 87.5534 124.565 89.2668C124.565 91.0618 124.847 92.7686 125.414 94.385C125.735 95.2582 126.238 95.9617 126.917 96.4953C127.597 97.029 128.421 97.2958 129.392 97.2958C131.703 97.2958 133.151 95.686 133.734 92.4687L135.407 92.8568C134.55 96.8019 132.536 98.7755 129.367 98.7755C128.316 98.7755 127.381 98.5704 126.565 98.158C125.749 97.7457 125.098 97.223 124.613 96.5924C124.128 95.9617 123.731 95.2097 123.424 94.3365C122.891 92.848 122.624 91.1831 122.624 89.3396C122.624 87.6262 122.891 86.0495 123.424 84.6095C123.731 83.7848 124.128 83.0703 124.613 82.4639C125.098 81.8575 125.753 81.3547 126.578 80.96C127.403 80.5631 128.34 80.3646 129.392 80.3646C131.154 80.3646 132.957 80.8255 134.801 81.7473L134.17 83.2027C132.536 82.2963 130.944 81.8443 129.392 81.8443" fill="#4D4E4C"/>
<path fill-rule="evenodd" clip-rule="evenodd" d="M140.404 80.7043H147.051C149.459 80.7043 151.302 81.4607 152.581 82.9735C153.858 84.484 154.497 86.6803 154.497 89.558C154.497 92.4358 153.858 94.6321 152.581 96.1448C151.302 97.6554 149.459 98.4117 147.051 98.4117H140.404V97.1504L141.908 96.9806V82.1597L140.404 81.9657V80.7043ZM143.849 82.0384V97.0776H147.148C148.909 97.0776 150.255 96.4315 151.185 95.137C152.116 93.8426 152.581 91.9837 152.581 89.558C152.581 87.1323 152.116 85.2734 151.185 83.9789C150.255 82.6845 148.909 82.0384 147.148 82.0384H143.849V82.0384Z" fill="#4D4E4C"/>
<path fill-rule="evenodd" clip-rule="evenodd" d="M160.076 80.7043H170.774C171.259 80.7043 171.501 80.9557 171.501 81.4563V84.6824H170.24L170.07 82.0385H163.521V88.7576H170.41V90.0917H163.521V97.1019H170.288L170.482 94.5307H171.744V97.6598C171.744 98.1604 171.492 98.4117 170.992 98.4117H160.076V97.1504L161.58 96.9806V82.1597L160.076 81.9657V80.7043" fill="#4D4E4C"/>
<path fill-rule="evenodd" clip-rule="evenodd" d="M183.145 98.4117H177.711V97.1504L179.215 96.9806V82.1597L177.711 81.9657V80.7043H187.996C188.496 80.7043 188.748 80.9557 188.748 81.4563V84.7552H187.462L187.292 82.0385H181.155V89.0001H187.632V90.3343H181.155V96.9806L183.145 97.1747V98.4117" fill="#4D4E4C"/>
<path fill-rule="evenodd" clip-rule="evenodd" d="M200.682 98.7512C199.727 98.7512 198.83 98.5461 197.99 98.1338C197.147 97.7214 196.486 97.2032 196.001 96.5813C195.515 95.9573 195.118 95.2097 194.812 94.3365C194.294 92.8656 194.036 91.1986 194.036 89.3396C194.036 87.6086 194.303 86.0319 194.836 84.6095C195.158 83.7848 195.571 83.0703 196.073 82.4639C196.574 81.8575 197.249 81.3547 198.098 80.96C198.947 80.5631 199.921 80.3646 201.022 80.3646C202.799 80.3646 204.667 80.8255 206.625 81.7473L205.97 83.2027C204.303 82.2963 202.654 81.8443 201.022 81.8443C200.003 81.8443 199.136 82.0824 198.426 82.561C197.714 83.0373 197.196 83.679 196.874 84.4883C196.274 85.9282 195.976 87.5204 195.976 89.2668C195.976 91.902 196.413 93.9241 197.286 95.331C197.626 95.8801 198.106 96.341 198.728 96.7136C199.35 97.0863 200.076 97.2715 200.9 97.2715C202.08 97.2715 203.061 96.9209 203.847 96.2175C204.632 95.514 205.024 94.4093 205.024 92.9053V90.8678L201.822 90.698V89.2911H205.994C206.576 89.2911 206.868 89.5337 206.868 90.0188V92.9781C206.868 95.1281 206.252 96.6497 205.024 97.5384C203.908 98.3477 202.459 98.7512 200.682 98.7512" fill="#4D4E4C"/>
<path fill-rule="evenodd" clip-rule="evenodd" d="M227.437 98.4117H224.745C224.242 98.4117 223.993 98.1604 223.993 97.6598V90.31H215.648V97.6598C215.648 98.1604 215.397 98.4117 214.897 98.4117H212.204V97.1504L213.708 96.9563V82.1597L212.204 81.9657V80.7043H214.897C215.397 80.7043 215.648 80.9557 215.648 81.4563V88.8061H223.993V81.4563C223.993 80.9557 224.242 80.7043 224.745 80.7043H227.437V81.9657L225.933 82.1112V96.9563L227.437 97.1504V98.4117" fill="#4D4E4C"/>
<path fill-rule="evenodd" clip-rule="evenodd" d="M238.377 98.4117H233.429V97.1504L234.933 96.9806V82.1597L233.429 81.9657V80.7043H238.377V81.9657L236.873 82.1597V96.9806L238.377 97.1504V98.4117" fill="#4D4E4C"/>
<path fill-rule="evenodd" clip-rule="evenodd" d="M252.543 81.4563V93.4634C252.543 96.9894 250.949 98.7513 247.764 98.7513C244.611 98.7513 243.034 96.9894 243.034 93.4634V92.7357H244.781V93.3906C244.781 95.9773 245.767 97.2717 247.74 97.2717C249.663 97.2717 250.627 95.9773 250.627 93.3906V82.1112L248.322 81.9172V80.7043H251.742C252.276 80.7043 252.543 80.9557 252.543 81.4563" fill="#4D4E4C"/>
<path fill-rule="evenodd" clip-rule="evenodd" d="M272.458 98.4117H270.42C270.032 98.4117 269.732 98.2508 269.523 97.9266L264.404 90.0917H262.488V97.6598C262.488 98.1604 262.237 98.4117 261.736 98.4117H259.044V97.1747L260.548 97.0291V82.1355L259.044 81.9657V80.7043H261.736C262.237 80.7043 262.488 80.9557 262.488 81.4563V88.8061H264.502L269.304 81.2137C269.529 80.8741 269.838 80.7043 270.226 80.7043H272.239V81.9657L270.905 82.1355L266.127 89.4853L271.124 96.9806L272.458 97.1747V98.4117" fill="#4D4E4C"/>
<path fill-rule="evenodd" clip-rule="evenodd" d="M280.608 97.1019H286.163L286.357 94.2881H287.618V97.6598C287.618 98.1604 287.367 98.4117 286.866 98.4117H277.164V97.1504L278.667 96.9806V82.1597L277.164 81.9657V80.7043H282.597V81.9657L280.608 82.1597V97.1019" fill="#4D4E4C"/>
<path fill-rule="evenodd" clip-rule="evenodd" d="M312.384 98.4117H309.619C309.134 98.4117 308.874 98.178 308.843 97.7083L307.921 83.3483L302.997 95.9133H301.226L296.569 83.3483L295.671 97.7083C295.638 98.178 295.38 98.4117 294.895 98.4117H292.13V97.1504L293.779 96.9806L294.653 82.1597L293.294 81.9657V80.7043H296.86C297.279 80.7043 297.563 80.9072 297.709 81.3108L302.099 93.5847L306.781 81.3108C306.927 80.9072 307.209 80.7043 307.63 80.7043H311.196V81.9657L309.837 82.1597L310.735 96.9806L312.384 97.1504V98.4117" fill="#4D4E4C"/>
<path fill-rule="evenodd" clip-rule="evenodd" d="M332.857 98.4117H331.256C330.835 98.4117 330.535 98.2508 330.358 97.9266L321.869 83.7849V97.6598C321.869 98.1604 321.617 98.4117 321.117 98.4117H318.424V97.1504L319.928 96.9806V82.1597L318.424 81.9657V80.7043H321.529C321.917 80.7043 322.215 80.8653 322.427 81.1895L330.916 95.3554V81.4563C330.916 80.9557 331.159 80.7043 331.644 80.7043H334.361V81.9657L332.857 82.1597V98.4117" fill="#4D4E4C"/>
<path fill-rule="evenodd" clip-rule="evenodd" d="M339.819 89.5579C339.819 86.614 340.445 84.3471 341.697 82.755C342.95 81.1607 344.681 80.3646 346.888 80.3646C349.096 80.3646 350.831 81.1607 352.092 82.755C353.354 84.3471 353.985 86.614 353.985 89.5579C353.985 92.5018 353.354 94.7687 352.092 96.363C350.831 97.9551 349.096 98.7512 346.888 98.7512C344.681 98.7512 342.95 97.9551 341.697 96.363C340.445 94.7687 339.819 92.5018 339.819 89.5579ZM352.044 89.558C352.044 87.0838 351.585 85.1807 350.672 83.8466C349.759 82.5125 348.498 81.8443 346.888 81.8443C345.279 81.8443 344.017 82.5125 343.104 83.8466C342.191 85.1807 341.735 87.0838 341.735 89.558C341.735 92.0321 342.191 93.9374 343.104 95.2715C344.017 96.6056 345.279 97.2716 346.888 97.2716C348.498 97.2716 349.759 96.6056 350.672 95.2715C351.585 93.9374 352.044 92.0321 352.044 89.558V89.558Z" fill="#4D4E4C"/>
<path fill-rule="evenodd" clip-rule="evenodd" d="M364.633 90.2372H366.064C368.587 90.2372 369.848 88.87 369.848 86.1378C369.848 83.4057 368.587 82.0385 366.064 82.0385H363.105V96.9806L365.215 97.1747V98.4117H359.661V97.1504L361.164 96.9806V82.1597L359.661 81.9657V80.7043H366.064C367.923 80.7043 369.335 81.1652 370.296 82.087C371.257 83.0087 371.74 84.3715 371.74 86.1753C371.74 87.9769 371.262 89.3596 370.309 90.3232C369.354 91.2847 367.939 91.7654 366.064 91.7654H364.633V90.2372" fill="#4D4E4C"/>
<path fill-rule="evenodd" clip-rule="evenodd" d="M376.834 89.4851C376.834 86.5898 377.461 84.3471 378.713 82.755C379.966 81.1607 381.697 80.3646 383.904 80.3646C386.111 80.3646 387.847 81.1607 389.108 82.755C390.37 84.3471 391 86.5346 391 89.3154C391 92.0961 390.493 94.2681 389.483 95.8294C388.473 97.3884 387.062 98.3234 385.251 98.6299L387.507 103.117H385.615L383.456 98.727C381.386 98.6299 379.765 97.7898 378.592 96.2043C377.419 94.6188 376.834 92.3805 376.834 89.4851ZM389.06 89.558C389.06 87.0838 388.601 85.1807 387.688 83.8466C386.775 82.5125 385.514 81.8443 383.904 81.8443C382.294 81.8443 381.033 82.5125 380.12 83.8466C379.207 85.1807 378.751 87.0838 378.751 89.558C378.751 92.0321 379.207 93.9374 380.12 95.2715C381.033 96.6056 382.294 97.2716 383.904 97.2716C385.514 97.2716 386.775 96.6056 387.688 95.2715C388.601 93.9374 389.06 92.0321 389.06 89.558V89.558Z" fill="#4D4E4C"/>
<path fill-rule="evenodd" clip-rule="evenodd" d="M401.6 89.7521H403.032C404.293 89.7521 405.239 89.4257 405.87 88.7708C406.5 88.1159 406.816 87.1699 406.816 85.9328C406.816 84.6957 406.5 83.7364 405.87 83.0572C405.239 82.3781 404.293 82.0385 403.032 82.0385H400.194V96.9806L402.304 97.1504V98.4117H396.749V97.1504L398.253 96.9806V82.1597L396.749 81.9657V80.7043H403.032C404.875 80.7043 406.282 81.1564 407.252 82.0627C408.223 82.969 408.708 84.2613 408.708 85.9438C408.708 88.515 407.598 90.1314 405.384 90.7951C406.192 91.1678 406.774 91.7742 407.131 92.6144L409.023 96.9806L410.551 97.1504V98.4117H408.198C407.777 98.4117 407.486 98.2265 407.325 97.8538L405.215 92.8812C404.906 92.1535 404.547 91.6728 404.134 91.439C403.722 91.2031 403.056 91.0862 402.134 91.0862H401.6V89.7521" fill="#4D4E4C"/>
<path fill-rule="evenodd" clip-rule="evenodd" d="M424.766 83.0086C423.213 82.2324 421.837 81.8443 420.642 81.8443C419.445 81.8443 418.534 82.1067 417.912 82.6337C417.29 83.1586 416.979 83.8708 416.979 84.7683C416.979 85.6658 417.286 86.4045 417.901 86.9867C418.514 87.5689 419.259 88.043 420.133 88.4068C421.006 88.7707 421.875 89.1544 422.739 89.5579C423.603 89.9615 424.344 90.5414 424.96 91.2934C425.573 92.0453 425.881 92.9627 425.881 94.0454C425.881 95.5162 425.372 96.6695 424.353 97.5031C423.334 98.3344 422.025 98.7512 420.424 98.7512C418.823 98.7512 417.519 98.319 416.518 97.4546C415.515 96.588 414.845 95.3795 414.505 93.8271L416.203 93.4147C416.865 95.9859 418.223 97.2715 420.278 97.2715C421.442 97.2715 422.342 96.9893 422.982 96.4226C423.621 95.8558 423.941 95.0642 423.941 94.0454C423.941 92.9142 423.35 92.0078 422.17 91.3287C421.652 91.0376 421.079 90.7597 420.448 90.4929C419.817 90.2261 419.182 89.935 418.543 89.6197C417.903 89.3043 417.321 88.9515 416.796 88.5634C416.271 88.1753 415.846 87.6659 415.524 87.0352C415.2 86.4045 415.039 85.6768 415.039 84.8521C415.039 83.4298 415.535 82.325 416.529 81.5422C417.524 80.7571 418.809 80.3646 420.386 80.3646C421.963 80.3646 423.626 80.7616 425.372 81.5532L424.766 83.0086" fill="#4D4E4C"/>
<path fill-rule="evenodd" clip-rule="evenodd" d="M430.442 80.7043H441.551C442.052 80.7043 442.303 80.9557 442.303 81.4563V84.7552H441.042L440.848 82.0385H436.967V96.9806L439.15 97.1504V98.4117H432.843V97.1504L435.026 96.9806V82.0385H431.145L430.951 84.7552H429.69V81.4563C429.69 80.9557 429.939 80.7043 430.442 80.7043" fill="#4D4E4C"/>
<path fill-rule="evenodd" clip-rule="evenodd" d="M460.593 91.9595C460.593 94.6277 459.938 96.4558 458.628 97.4415C457.512 98.3147 456.057 98.7513 454.262 98.7513C452.531 98.7513 451.091 98.3147 449.944 97.4415C448.634 96.4558 447.979 94.6277 447.979 91.9595V82.1597L446.475 81.9657V80.7043H449.119C449.653 80.7043 449.92 80.9557 449.92 81.4563V91.8867C449.92 95.4436 451.366 97.2232 454.262 97.2232C457.188 97.2232 458.652 95.4436 458.652 91.8867V81.4563C458.652 80.9557 458.919 80.7043 459.453 80.7043H462.097V81.9657L460.593 82.1597V91.9595" fill="#4D4E4C"/>
<path fill-rule="evenodd" clip-rule="evenodd" d="M478.81 80.7043H480.847V81.9657L479.707 82.1597L474.54 98.4117H472.018L466.851 82.1597L465.735 81.9657V80.7043H467.773C468.192 80.7043 468.467 80.9138 468.597 81.335L473.23 96.4469H473.328L477.985 81.335C478.113 80.9138 478.388 80.7043 478.81 80.7043" fill="#4D4E4C"/>
<path fill-rule="evenodd" clip-rule="evenodd" d="M502.945 80.7043H504.958V81.9657L503.842 82.1597L500.301 98.4117H497.875L494.043 82.3295L490.21 98.4117H487.785L484.243 82.1597L483.127 81.9657V80.7043H485.165C485.617 80.7043 485.893 80.9138 485.99 81.335L488.973 96.3014H489.094L492.733 81.335C492.83 80.9138 493.103 80.7043 493.558 80.7043H494.528C494.98 80.7043 495.256 80.9138 495.353 81.335L499.015 96.3014H499.112L502.096 81.335C502.193 80.9138 502.475 80.7043 502.945 80.7043" fill="#4D4E4C"/>
<path fill-rule="evenodd" clip-rule="evenodd" d="M520.337 80.7043H522.423V81.9414L520.992 82.1355L516.626 89.2427L521.404 96.9806L522.835 97.1504V98.4117H520.604C520.216 98.4117 519.916 98.2508 519.706 97.9266L515.364 90.9164L511.119 97.9024C510.908 98.2419 510.61 98.4117 510.222 98.4117H508.112V97.1504L509.567 96.9806L514.321 89.2185L509.955 82.1355L508.524 81.9414V80.7043H510.756C511.144 80.7043 511.441 80.8741 511.653 81.2137L515.583 87.569L519.464 81.2137C519.673 80.8741 519.964 80.7043 520.337 80.7043" fill="#4D4E4C"/>
<path fill-rule="evenodd" clip-rule="evenodd" d="M535.886 98.4117H529.579V97.1504L531.762 96.9806V92.1293L527.323 82.1597L525.989 81.9657V80.7043H528.22C528.657 80.7043 528.955 80.8896 529.118 81.2622L532.732 89.9947L536.298 81.2622C536.459 80.8896 536.759 80.7043 537.195 80.7043H539.403V81.9657L538.069 82.1597L533.702 92.0565V96.9806L535.886 97.1504V98.4117" fill="#4D4E4C"/>
<path fill-rule="evenodd" clip-rule="evenodd" d="M554.976 94.3609V97.6598C554.976 98.1604 554.724 98.4117 554.224 98.4117H543.163V97.2474L552.817 82.0385H545.103L544.909 84.7552H543.648V81.4563C543.648 80.9557 543.897 80.7043 544.4 80.7043H554.976V81.8687L545.321 97.0776H553.52L553.69 94.3609H554.976" fill="#4D4E4C"/>
<path fill-rule="evenodd" clip-rule="evenodd" d="M0.540001 192.704V170.395H6.32853C8.55795 170.395 10.2691 170.816 11.4599 171.66C12.6507 172.505 13.2461 173.72 13.2461 175.308C13.2461 178.011 11.7201 179.936 8.66379 181.083C12.3111 182.199 14.137 184.212 14.137 187.127C14.137 188.935 13.5328 190.318 12.3266 191.273C11.1203 192.228 9.38267 192.704 7.11136 192.704H0.540001ZM3.67352 190.338H4.32184C6.64387 190.338 8.14558 190.193 8.82917 189.901C10.1368 189.348 10.7896 188.323 10.7896 186.825C10.7896 185.5 10.1964 184.395 9.01 183.517C7.82583 182.638 6.34176 182.199 4.5644 182.199H3.67352V190.338ZM3.67352 180.192H4.68348C6.37263 180.192 7.68249 179.83 8.61086 179.107C9.54144 178.384 10.0067 177.363 10.0067 176.046C10.0067 173.857 8.30655 172.761 4.91061 172.761H3.67352V180.192V180.192Z" fill="#4D4E4C"/>
<path fill-rule="evenodd" clip-rule="evenodd" d="M25.5751 190.625C23.7956 192.263 22.0822 193.081 20.4349 193.081C19.0787 193.081 17.9519 192.658 17.0588 191.807C16.1635 190.958 15.7159 189.886 15.7159 188.589C15.7159 186.801 16.4678 185.427 17.9695 184.466C19.4735 183.507 21.6257 183.026 24.4284 183.026H25.1385V181.052C25.1385 179.154 24.1638 178.203 22.2145 178.203C20.6466 178.203 18.953 178.686 17.1338 179.65V177.193C19.1339 176.38 21.0082 175.972 22.7569 175.972C24.585 175.972 25.9346 176.384 26.8034 177.209C27.6722 178.033 28.1066 179.315 28.1066 181.052V188.468C28.1066 190.166 28.6293 191.017 29.6745 191.017C29.8068 191.017 29.9965 190.995 30.2478 190.956L30.4595 192.598C29.7848 192.92 29.0416 193.081 28.2279 193.081C26.8409 193.081 25.9566 192.263 25.5751 190.625ZM25.1385 189.011V184.775L24.144 184.746C22.5144 184.746 21.1979 185.055 20.1945 185.672C19.189 186.289 18.6862 187.101 18.6862 188.106C18.6862 188.821 18.9376 189.423 19.4404 189.917C19.9432 190.409 20.5562 190.653 21.2795 190.653C22.5144 190.653 23.8022 190.107 25.1385 189.011V189.011Z" fill="#4D4E4C"/>
<path fill-rule="evenodd" clip-rule="evenodd" d="M37.2713 193.081C35.9129 193.081 34.2657 192.766 32.3251 192.131V189.403C34.2657 190.369 35.9548 190.85 37.3904 190.85C38.246 190.85 38.9538 190.62 39.5161 190.157C40.0784 189.694 40.3607 189.116 40.3607 188.424C40.3607 187.407 39.5713 186.57 37.9946 185.906L36.2613 185.167C33.6967 184.102 32.4155 182.569 32.4155 180.569C32.4155 179.143 32.9205 178.02 33.9305 177.2C34.9404 176.382 36.3253 175.972 38.085 175.972C38.9979 175.972 40.1292 176.097 41.4765 176.349L42.094 176.47V178.942C40.4357 178.45 39.1192 178.203 38.1445 178.203C36.2349 178.203 35.28 178.896 35.28 180.283C35.28 181.178 36.0033 181.932 37.4521 182.545L38.8833 183.147C40.5018 183.831 41.6463 184.552 42.3211 185.31C42.9937 186.069 43.331 187.017 43.331 188.153C43.331 189.588 42.7621 190.77 41.6265 191.694C40.4908 192.618 39.0398 193.081 37.2713 193.081" fill="#4D4E4C"/>
<path fill-rule="evenodd" clip-rule="evenodd" d="M47.4128 192.704H50.3831V176.333H47.4128V192.704ZM47.4128 173.365H50.3831V170.395H47.4128V173.365Z" fill="#4D4E4C"/>
<path fill-rule="evenodd" clip-rule="evenodd" d="M61.4751 193.081C59.2633 193.081 57.4308 192.263 55.9732 190.625C54.5156 188.986 53.7857 186.92 53.7857 184.428C53.7857 181.767 54.5068 179.689 55.9489 178.203C57.3911 176.717 59.4044 175.972 61.9867 175.972C63.2634 175.972 64.6902 176.148 66.2691 176.501V178.986C64.591 178.494 63.2238 178.247 62.1675 178.247C60.6503 178.247 59.4331 178.818 58.5135 179.958C57.594 181.101 57.1331 182.62 57.1331 184.519C57.1331 186.358 57.605 187.846 58.551 188.982C59.4948 190.118 60.7319 190.684 62.2579 190.684C63.6163 190.684 65.0121 190.338 66.4499 189.644V192.208C64.5292 192.79 62.8709 193.081 61.4751 193.081" fill="#4D4E4C"/>
<path fill-rule="evenodd" clip-rule="evenodd" d="M84.9004 193.262C83.4031 193.262 81.489 192.936 79.156 192.283V189.147C81.6699 190.314 83.7339 190.896 85.3525 190.896C86.5984 190.896 87.6017 190.569 88.3603 189.917C89.1189 189.262 89.4982 188.404 89.4982 187.339C89.4982 186.463 89.249 185.72 88.7528 185.107C88.2544 184.494 87.3371 183.811 86.0008 183.056L84.4638 182.168C82.5629 181.083 81.2244 180.06 80.446 179.1C79.6676 178.141 79.2773 177.023 79.2773 175.746C79.2773 174.026 79.9013 172.613 81.1472 171.501C82.3931 170.392 83.9809 169.837 85.9104 169.837C87.6282 169.837 89.443 170.123 91.3527 170.697V173.59C88.9998 172.666 87.2467 172.203 86.0912 172.203C84.9952 172.203 84.0911 172.494 83.3788 173.078C82.6644 173.66 82.3071 174.395 82.3071 175.279C82.3071 176.022 82.5696 176.681 83.0922 177.252C83.6148 177.826 84.5696 178.509 85.9567 179.303L87.5532 180.207C89.4827 181.303 90.8301 182.338 91.5931 183.312C92.356 184.287 92.7397 185.458 92.7397 186.825C92.7397 188.766 92.0231 190.322 90.5919 191.498C89.1586 192.673 87.2621 193.262 84.9004 193.262" fill="#4D4E4C"/>
<path fill-rule="evenodd" clip-rule="evenodd" d="M104.434 190.625C102.656 192.263 100.943 193.081 99.2935 193.081C97.9373 193.081 96.8127 192.658 95.9174 191.807C95.0221 190.958 94.5767 189.886 94.5767 188.589C94.5767 186.801 95.3264 185.427 96.8303 184.466C98.332 183.507 100.484 183.026 103.289 183.026H103.997V181.052C103.997 179.154 103.022 178.203 101.073 178.203C99.5052 178.203 97.8116 178.686 95.9924 179.65V177.193C97.9924 176.38 99.8668 175.972 101.616 175.972C103.444 175.972 104.793 176.384 105.662 177.209C106.533 178.033 106.967 179.315 106.967 181.052V188.468C106.967 190.166 107.49 191.017 108.535 191.017C108.665 191.017 108.855 190.995 109.106 190.956L109.318 192.598C108.646 192.92 107.902 193.081 107.087 193.081C105.699 193.081 104.815 192.263 104.434 190.625ZM103.997 189.011V184.775L103.003 184.746C101.375 184.746 100.059 185.055 99.0531 185.672C98.0476 186.289 97.5448 187.101 97.5448 188.106C97.5448 188.821 97.7962 189.423 98.2989 189.917C98.8017 190.409 99.4148 190.653 100.138 190.653C101.375 190.653 102.661 190.107 103.997 189.011V189.011Z" fill="#4D4E4C"/>
<path fill-rule="evenodd" clip-rule="evenodd" d="M111.788 192.704V176.333H114.758V179.409C116.326 177.118 118.245 175.972 120.516 175.972C121.934 175.972 123.063 176.421 123.907 177.321C124.752 178.221 125.173 179.429 125.173 180.946V192.704H122.205V181.912C122.205 180.695 122.026 179.828 121.669 179.31C121.312 178.794 120.723 178.534 119.898 178.534C118.079 178.534 116.366 179.725 114.758 182.106V192.704H111.788" fill="#4D4E4C"/>
<path fill-rule="evenodd" clip-rule="evenodd" d="M134.036 193.081C132.68 193.081 131.03 192.766 129.092 192.131V189.403C131.03 190.369 132.719 190.85 134.155 190.85C135.01 190.85 135.718 190.62 136.281 190.157C136.845 189.694 137.125 189.116 137.125 188.424C137.125 187.407 136.336 186.57 134.759 185.906L133.026 185.167C130.463 184.102 129.182 182.569 129.182 180.569C129.182 179.143 129.687 178.02 130.697 177.2C131.707 176.382 133.09 175.972 134.849 175.972C135.765 175.972 136.894 176.097 138.241 176.349L138.858 176.47V178.942C137.2 178.45 135.884 178.203 134.909 178.203C132.999 178.203 132.044 178.896 132.044 180.283C132.044 181.178 132.77 181.932 134.217 182.545L135.648 183.147C137.266 183.831 138.413 184.552 139.086 185.31C139.758 186.069 140.095 187.017 140.095 188.153C140.095 189.588 139.527 190.77 138.391 191.694C137.255 192.618 135.804 193.081 134.036 193.081" fill="#4D4E4C"/>
<path fill-rule="evenodd" clip-rule="evenodd" d="M158.647 195.116V197.167C156.475 195.69 154.755 193.681 153.483 191.145C152.213 188.607 151.578 185.901 151.578 183.026C151.578 180.163 152.213 177.462 153.483 174.924C154.755 172.386 156.475 170.379 158.647 168.902V170.952C157.17 172.56 156.116 174.289 155.49 176.137C154.861 177.987 154.546 180.282 154.546 183.026C154.546 185.78 154.861 188.082 155.49 189.93C156.116 191.78 157.17 193.509 158.647 195.116" fill="#4D4E4C"/>
<path fill-rule="evenodd" clip-rule="evenodd" d="M165.819 193.081C164.462 193.081 162.815 192.766 160.875 192.131V189.403C162.815 190.369 164.502 190.85 165.94 190.85C166.795 190.85 167.503 190.62 168.066 190.157C168.628 189.694 168.91 189.116 168.91 188.424C168.91 187.407 168.121 186.57 166.544 185.906L164.809 185.167C162.246 184.102 160.965 182.569 160.965 180.569C160.965 179.143 161.47 178.02 162.48 177.2C163.49 176.382 164.875 175.972 166.634 175.972C167.547 175.972 168.679 176.097 170.026 176.349L170.643 176.47V178.942C168.985 178.45 167.669 178.203 166.694 178.203C164.784 178.203 163.83 178.896 163.83 180.283C163.83 181.178 164.553 181.932 165.999 182.545L167.433 183.147C169.051 183.831 170.196 184.552 170.868 185.31C171.543 186.069 171.881 187.017 171.881 188.153C171.881 189.588 171.312 190.77 170.176 191.694C169.04 192.618 167.589 193.081 165.819 193.081" fill="#4D4E4C"/>
<path fill-rule="evenodd" clip-rule="evenodd" d="M186.199 192.704V189.63C184.62 191.93 182.706 193.081 180.454 193.081C179.027 193.081 177.892 192.631 177.047 191.732C176.203 190.832 175.781 189.619 175.781 188.091V176.333H178.752V187.127C178.752 188.353 178.928 189.224 179.285 189.743C179.643 190.261 180.238 190.519 181.072 190.519C182.882 190.519 184.589 189.328 186.199 186.946V176.333H189.167V192.704H186.199" fill="#4D4E4C"/>
<path fill-rule="evenodd" clip-rule="evenodd" d="M193.868 192.885V168.902H196.839V179.409C198.054 177.118 199.877 175.971 202.309 175.971C204.279 175.971 205.829 176.69 206.96 178.128C208.091 179.564 208.656 181.528 208.656 184.022C208.656 186.735 208.014 188.922 206.733 190.587C205.452 192.25 203.767 193.081 201.677 193.081C199.736 193.081 198.124 192.338 196.839 190.85L196.477 192.885H193.868ZM196.839 188.801C198.364 190.166 199.822 190.849 201.209 190.849C204.063 190.849 205.489 188.675 205.489 184.322C205.489 180.483 204.224 178.565 201.692 178.565C200.034 178.565 198.415 179.464 196.839 181.264V188.801V188.801Z" fill="#4D4E4C"/>
<path fill-rule="evenodd" clip-rule="evenodd" d="M216.958 193.081C215.452 193.081 214.277 192.649 213.432 191.785C212.588 190.92 212.167 189.721 212.167 188.181V178.565H210.116V176.333H212.167V173.365L215.135 173.078V176.333H219.417V178.565H215.135V187.639C215.135 189.78 216.061 190.85 217.909 190.85C218.301 190.85 218.778 190.786 219.342 190.653V192.704C218.427 192.956 217.633 193.081 216.958 193.081" fill="#4D4E4C"/>
<path fill-rule="evenodd" clip-rule="evenodd" d="M222.339 192.704H225.307V176.333H222.339V192.704ZM222.339 173.365H225.307V170.395H222.339V173.365Z" fill="#4D4E4C"/>
<path fill-rule="evenodd" clip-rule="evenodd" d="M234.924 193.081C233.415 193.081 232.24 192.649 231.396 191.785C230.551 190.92 230.13 189.721 230.13 188.181V178.565H228.079V176.333H230.13V173.365L233.1 173.078V176.333H237.38V178.565H233.1V187.639C233.1 189.78 234.024 190.85 235.872 190.85C236.265 190.85 236.743 190.786 237.305 190.653V192.704C236.39 192.956 235.596 193.081 234.924 193.081" fill="#4D4E4C"/>
<path fill-rule="evenodd" clip-rule="evenodd" d="M240.302 192.704H243.272V168.902H240.302V192.704Z" fill="#4D4E4C"/>
<path fill-rule="evenodd" clip-rule="evenodd" d="M259.972 192.177C257.981 192.779 256.279 193.081 254.861 193.081C252.45 193.081 250.483 192.281 248.96 190.678C247.438 189.074 246.675 186.997 246.675 184.444C246.675 181.961 247.348 179.927 248.688 178.34C250.029 176.75 251.747 175.956 253.837 175.956C255.815 175.956 257.346 176.659 258.426 178.066C259.507 179.473 260.047 181.473 260.047 184.066L260.032 184.986H249.707C250.137 188.876 252.042 190.821 255.418 190.821C256.656 190.821 258.173 190.488 259.972 189.824V192.177ZM249.842 182.754H257.061C257.061 179.711 255.926 178.187 253.657 178.187C251.374 178.187 250.104 179.711 249.842 182.754V182.754Z" fill="#4D4E4C"/>
<path fill-rule="evenodd" clip-rule="evenodd" d="M263.963 197.542V196.428C264.929 196.157 265.41 195.015 265.41 193.006V192.704H263.963V188.982H267.688V192.208C267.688 195.513 266.446 197.293 263.963 197.542" fill="#4D4E4C"/>
<path fill-rule="evenodd" clip-rule="evenodd" d="M283.517 193.081C282.01 193.081 280.833 192.649 279.988 191.785C279.146 190.92 278.723 189.721 278.723 188.181V178.565H276.674V176.333H278.723V173.365L281.693 173.078V176.333H285.973V178.565H281.693V187.639C281.693 189.78 282.617 190.85 284.467 190.85C284.857 190.85 285.336 190.786 285.898 190.653V192.704C284.983 192.956 284.189 193.081 283.517 193.081" fill="#4D4E4C"/>
<path fill-rule="evenodd" clip-rule="evenodd" d="M297.339 190.625C295.559 192.263 293.846 193.081 292.196 193.081C290.84 193.081 289.715 192.658 288.82 191.807C287.927 190.958 287.479 189.886 287.479 188.589C287.479 186.801 288.229 185.427 289.733 184.466C291.235 183.507 293.389 183.026 296.192 183.026H296.9V181.052C296.9 179.154 295.925 178.203 293.976 178.203C292.408 178.203 290.714 178.686 288.895 179.65V177.193C290.895 176.38 292.769 175.972 294.518 175.972C296.348 175.972 297.696 176.384 298.567 177.209C299.436 178.033 299.87 179.315 299.87 181.052V188.468C299.87 190.166 300.393 191.017 301.438 191.017C301.568 191.017 301.76 190.995 302.011 190.956L302.221 192.598C301.548 192.92 300.805 193.081 299.991 193.081C298.604 193.081 297.72 192.263 297.339 190.625ZM296.9 189.011V184.775L295.905 184.746C294.278 184.746 292.961 185.055 291.956 185.672C290.95 186.289 290.45 187.101 290.45 188.106C290.45 188.821 290.699 189.423 291.202 189.917C291.704 190.409 292.317 190.653 293.041 190.653C294.278 190.653 295.563 190.107 296.9 189.011V189.011Z" fill="#4D4E4C"/>
<path fill-rule="evenodd" clip-rule="evenodd" d="M304.752 198.147L305.098 195.569C306.816 196.382 308.51 196.79 310.179 196.79C313.524 196.79 315.198 195.015 315.198 191.469V188.892C314.102 191.183 312.305 192.327 309.802 192.327C307.842 192.327 306.285 191.615 305.129 190.188C303.974 188.759 303.394 186.836 303.394 184.413C303.394 181.921 304.053 179.892 305.37 178.324C306.686 176.757 308.389 175.972 310.479 175.972C312.309 175.972 313.882 176.717 315.198 178.203V176.333H318.184V188.243C318.184 190.806 318.049 192.702 317.782 193.933C317.518 195.165 317.017 196.171 316.283 196.956C314.986 198.332 312.973 199.02 310.239 199.02C308.329 199.02 306.501 198.729 304.752 198.147ZM315.198 187.037V180.238C313.893 178.882 312.47 178.203 310.931 178.203C309.566 178.203 308.494 178.75 307.72 179.846C306.946 180.942 306.56 182.444 306.56 184.353C306.56 187.941 307.822 189.734 310.344 189.734C312.062 189.734 313.681 188.836 315.198 187.037V187.037Z" fill="#4D4E4C"/>
<path fill-rule="evenodd" clip-rule="evenodd" d="M322.687 192.704H325.657V168.902H322.687V192.704Z" fill="#4D4E4C"/>
<path fill-rule="evenodd" clip-rule="evenodd" d="M330.358 192.704H333.327V176.333H330.358V192.704ZM330.359 173.365H333.327V170.395H330.359V173.365Z" fill="#4D4E4C"/>
<path fill-rule="evenodd" clip-rule="evenodd" d="M338.028 192.704V176.333H340.998V179.409C342.566 177.118 344.485 175.972 346.756 175.972C348.174 175.972 349.303 176.421 350.148 177.321C350.992 178.221 351.413 179.429 351.413 180.946V192.704H348.445V181.912C348.445 180.695 348.267 179.828 347.909 179.31C347.552 178.794 346.963 178.534 346.139 178.534C344.319 178.534 342.606 179.725 340.998 182.106V192.704H338.028" fill="#4D4E4C"/>
<path fill-rule="evenodd" clip-rule="evenodd" d="M367.934 192.177C365.943 192.779 364.241 193.081 362.823 193.081C360.41 193.081 358.443 192.281 356.922 190.678C355.398 189.074 354.637 186.997 354.637 184.444C354.637 181.961 355.308 179.927 356.651 178.34C357.991 176.75 359.707 175.956 361.797 175.956C363.778 175.956 365.308 176.659 366.389 178.066C367.469 179.473 368.009 181.473 368.009 184.066L367.994 184.986H357.667C358.099 188.876 360.005 190.821 363.381 190.821C364.618 190.821 366.135 190.488 367.934 189.824V192.177ZM357.804 182.754H365.024C365.024 179.711 363.888 178.187 361.617 178.187C359.336 178.187 358.064 179.711 357.804 182.754V182.754Z" fill="#4D4E4C"/>
<path fill-rule="evenodd" clip-rule="evenodd" d="M371.926 197.542V196.428C372.889 196.157 373.372 195.015 373.372 193.006V192.704H371.926V188.982H375.648V192.208C375.648 195.513 374.409 197.293 371.926 197.542" fill="#4D4E4C"/>
<path fill-rule="evenodd" clip-rule="evenodd" d="M389.031 192.704V172.761H381.117V170.395H400.11V172.761H392.195V192.704H389.031" fill="#4D4E4C"/>
<path fill-rule="evenodd" clip-rule="evenodd" d="M402.083 192.704V176.333H405.052V179.409C406.229 177.118 407.936 175.972 410.178 175.972C410.478 175.972 410.796 175.998 411.127 176.047V178.821C410.615 178.651 410.163 178.565 409.771 178.565C407.892 178.565 406.319 179.681 405.052 181.912V192.704H402.083" fill="#4D4E4C"/>
<path fill-rule="evenodd" clip-rule="evenodd" d="M413.462 192.704H416.43V176.333H413.462V192.704ZM413.462 173.365H416.43V170.395H413.462V173.365Z" fill="#4D4E4C"/>
<path fill-rule="evenodd" clip-rule="evenodd" d="M421.131 192.704H424.102V168.902H421.131V192.704Z" fill="#4D4E4C"/>
<path fill-rule="evenodd" clip-rule="evenodd" d="M428.801 192.704H431.771V168.902H428.801V192.704Z" fill="#4D4E4C"/>
<path fill-rule="evenodd" clip-rule="evenodd" d="M436.473 192.704H439.441V176.333H436.473V192.704ZM436.473 173.365H439.441V170.395H436.473V173.365Z" fill="#4D4E4C"/>
<path fill-rule="evenodd" clip-rule="evenodd" d="M452.584 190.625C450.806 192.263 449.093 193.081 447.443 193.081C446.087 193.081 444.963 192.658 444.067 191.807C443.172 190.958 442.727 189.886 442.727 188.589C442.727 186.801 443.476 185.427 444.98 184.466C446.482 183.507 448.634 183.026 451.439 183.026H452.147V181.052C452.147 179.154 451.172 178.203 449.223 178.203C447.655 178.203 445.962 178.686 444.142 179.65V177.193C446.142 176.38 448.017 175.972 449.765 175.972C451.593 175.972 452.943 176.384 453.812 177.209C454.683 178.033 455.117 179.315 455.117 181.052V188.468C455.117 190.166 455.64 191.017 456.685 191.017C456.815 191.017 457.005 190.995 457.256 190.956L457.468 192.598C456.795 192.92 456.052 193.081 455.236 193.081C453.852 193.081 452.965 192.263 452.584 190.625ZM452.147 189.011V184.775L451.152 184.746C449.525 184.746 448.209 185.055 447.203 185.672C446.198 186.289 445.695 187.101 445.695 188.106C445.695 188.821 445.946 189.423 446.449 189.917C446.952 190.409 447.565 190.653 448.288 190.653C449.525 190.653 450.811 190.107 452.147 189.011V189.011Z" fill="#4D4E4C"/>
<path fill-rule="evenodd" clip-rule="evenodd" d="M459.938 192.704V176.333H462.908V179.409C464.476 177.118 466.395 175.972 468.666 175.972C470.084 175.972 471.213 176.421 472.057 177.321C472.902 178.221 473.323 179.429 473.323 180.946V192.704H470.355V181.912C470.355 180.695 470.176 179.828 469.819 179.31C469.462 178.794 468.873 178.534 468.048 178.534C466.229 178.534 464.516 179.725 462.908 182.106V192.704H459.938" fill="#4D4E4C"/>
<path fill-rule="evenodd" clip-rule="evenodd" d="M482.759 193.081C481.251 193.081 480.075 192.649 479.231 191.785C478.386 190.92 477.965 189.721 477.965 188.181V178.565H475.914V176.333H477.965V173.365L480.933 173.078V176.333H485.216V178.565H480.933V187.639C480.933 189.78 481.859 190.85 483.707 190.85C484.1 190.85 484.576 190.786 485.141 190.653V192.704C484.225 192.956 483.432 193.081 482.759 193.081" fill="#4D4E4C"/>
<path fill-rule="evenodd" clip-rule="evenodd" d="M498.674 190.625C496.894 192.263 495.181 193.081 493.533 193.081C492.175 193.081 491.05 192.658 490.155 191.807C489.262 190.958 488.814 189.886 488.814 188.589C488.814 186.801 489.566 185.427 491.068 184.466C492.57 183.507 494.724 183.026 497.527 183.026H498.235V181.052C498.235 179.154 497.26 178.203 495.311 178.203C493.743 178.203 492.049 178.686 490.232 179.65V177.193C492.23 176.38 494.104 175.972 495.853 175.972C497.683 175.972 499.033 176.384 499.902 177.209C500.771 178.033 501.205 179.315 501.205 181.052V188.468C501.205 190.166 501.728 191.017 502.773 191.017C502.903 191.017 503.095 190.995 503.346 190.956L503.558 192.598C502.883 192.92 502.14 193.081 501.326 193.081C499.939 193.081 499.055 192.263 498.674 190.625ZM498.235 189.011V184.775L497.24 184.746C495.613 184.746 494.296 185.055 493.291 185.672C492.287 186.289 491.785 187.101 491.785 188.106C491.785 188.821 492.036 189.423 492.537 189.917C493.039 190.409 493.652 190.653 494.376 190.653C495.613 190.653 496.898 190.107 498.235 189.011V189.011Z" fill="#4D4E4C"/>
<path fill-rule="evenodd" clip-rule="evenodd" d="M510.941 193.081C509.433 193.081 508.257 192.649 507.413 191.785C506.57 190.92 506.147 189.721 506.147 188.181V178.565H504.098V176.333H506.147V173.365L509.117 173.078V176.333H513.397V178.565H509.117V187.639C509.117 189.78 510.041 190.85 511.891 190.85C512.282 190.85 512.76 190.786 513.322 190.653V192.704C512.407 192.956 511.613 193.081 510.941 193.081" fill="#4D4E4C"/>
<path fill-rule="evenodd" clip-rule="evenodd" d="M521.235 193.081C519.726 193.081 518.551 192.649 517.706 191.785C516.862 190.92 516.441 189.721 516.441 188.181V178.565H514.39V176.333H516.441V173.365L519.411 173.078V176.333H523.691V178.565H519.411V187.639C519.411 189.78 520.335 190.85 522.185 190.85C522.575 190.85 523.054 190.786 523.616 190.653V192.704C522.701 192.956 521.907 193.081 521.235 193.081" fill="#4D4E4C"/>
<path fill-rule="evenodd" clip-rule="evenodd" d="M526.613 192.704V176.333H529.583V179.409C530.759 177.118 532.468 175.972 534.708 175.972C535.01 175.972 535.325 175.998 535.658 176.047V178.821C535.145 178.651 534.693 178.565 534.302 178.565C532.421 178.565 530.849 179.681 529.583 181.912V192.704H526.613" fill="#4D4E4C"/>
<path fill-rule="evenodd" clip-rule="evenodd" d="M537.992 192.704H540.962V176.333H537.992V192.704ZM537.992 173.365H540.962V170.395H537.992V173.365Z" fill="#4D4E4C"/>
<path fill-rule="evenodd" clip-rule="evenodd" d="M545.663 192.885V168.902H548.631V179.409C549.849 177.118 551.672 175.971 554.105 175.971C556.074 175.971 557.624 176.69 558.755 178.128C559.884 179.564 560.451 181.528 560.451 184.022C560.451 186.735 559.809 188.922 558.528 190.587C557.247 192.25 555.562 193.081 553.472 193.081C551.531 193.081 549.919 192.338 548.631 190.85L548.27 192.885H545.663ZM548.631 188.801C550.16 190.166 551.617 190.849 553.004 190.849C555.858 190.849 557.284 188.675 557.284 184.322C557.284 180.483 556.019 178.565 553.485 178.565C551.827 178.565 550.21 179.464 548.631 181.264V188.801V188.801Z" fill="#4D4E4C"/>
<path fill-rule="evenodd" clip-rule="evenodd" d="M574.074 192.704V189.63C572.498 191.93 570.584 193.081 568.332 193.081C566.905 193.081 565.77 192.631 564.925 191.732C564.081 190.832 563.659 189.619 563.659 188.091V176.333H566.628V187.127C566.628 188.353 566.806 189.224 567.163 189.743C567.521 190.261 568.116 190.519 568.95 190.519C570.758 190.519 572.467 189.328 574.074 186.946V176.333H577.045V192.704H574.074" fill="#4D4E4C"/>
<path fill-rule="evenodd" clip-rule="evenodd" d="M586.659 193.081C585.153 193.081 583.976 192.649 583.133 191.785C582.289 190.92 581.865 189.721 581.865 188.181V178.565H579.817V176.333H581.865V173.365L584.836 173.078V176.333H589.116V178.565H584.836V187.639C584.836 189.78 585.76 190.85 587.61 190.85C588.002 190.85 588.479 190.786 589.041 190.653V192.704C588.126 192.956 587.332 193.081 586.659 193.081" fill="#4D4E4C"/>
<path fill-rule="evenodd" clip-rule="evenodd" d="M592.038 192.704H595.008V176.333H592.038V192.704ZM592.038 173.365H595.008V170.395H592.038V173.365Z" fill="#4D4E4C"/>
<path fill-rule="evenodd" clip-rule="evenodd" d="M606.115 193.081C603.774 193.081 601.906 192.305 600.508 190.753C599.112 189.2 598.413 187.123 598.413 184.519C598.413 181.886 599.114 179.804 600.516 178.272C601.917 176.739 603.82 175.972 606.221 175.972C608.623 175.972 610.526 176.739 611.926 178.272C613.328 179.804 614.03 181.877 614.03 184.49C614.03 187.163 613.326 189.262 611.919 190.79C610.512 192.318 608.579 193.081 606.115 193.081ZM606.162 190.85C609.306 190.85 610.879 188.73 610.879 184.49C610.879 180.298 609.326 178.203 606.221 178.203C603.125 178.203 601.577 180.309 601.577 184.519C601.577 188.739 603.105 190.85 606.162 190.85V190.85Z" fill="#4D4E4C"/>
<path fill-rule="evenodd" clip-rule="evenodd" d="M617.419 192.704V176.333H620.389V179.409C621.957 177.118 623.876 175.972 626.147 175.972C627.565 175.972 628.694 176.421 629.538 177.321C630.383 178.221 630.804 179.429 630.804 180.946V192.704H627.836V181.912C627.836 180.695 627.657 179.828 627.3 179.31C626.943 178.794 626.352 178.534 625.53 178.534C623.71 178.534 621.997 179.725 620.389 182.106V192.704H617.419" fill="#4D4E4C"/>
<path fill-rule="evenodd" clip-rule="evenodd" d="M633.47 195.116V197.167C635.64 195.69 637.362 193.681 638.633 191.145C639.905 188.607 640.54 185.901 640.54 183.026C640.54 180.163 639.905 177.462 638.633 174.924C637.362 172.386 635.64 170.379 633.47 168.902V170.952C634.948 172.56 636 174.289 636.628 176.137C637.257 177.987 637.57 180.282 637.57 183.026C637.57 185.78 637.257 188.082 636.628 189.93C636 191.78 634.948 193.509 633.47 195.116" fill="#4D4E4C"/>
<path fill-rule="evenodd" clip-rule="evenodd" d="M140.188 235.614C138.79 236.902 137.445 237.544 136.15 237.544C135.083 237.544 134.199 237.211 133.495 236.545C132.794 235.877 132.441 235.034 132.441 234.015C132.441 232.609 133.032 231.53 134.212 230.776C135.394 230.022 137.085 229.645 139.288 229.645H139.844V228.092C139.844 226.602 139.079 225.854 137.546 225.854C136.316 225.854 134.984 226.233 133.555 226.992V225.06C135.127 224.421 136.6 224.101 137.974 224.101C139.41 224.101 140.47 224.425 141.154 225.074C141.838 225.72 142.177 226.727 142.177 228.092V233.921C142.177 235.255 142.59 235.923 143.41 235.923C143.513 235.923 143.663 235.905 143.86 235.874L144.025 237.167C143.496 237.418 142.911 237.544 142.272 237.544C141.183 237.544 140.488 236.902 140.188 235.614ZM139.844 234.346V231.019L139.063 230.994C137.784 230.994 136.75 231.237 135.961 231.724C135.171 232.209 134.777 232.847 134.777 233.636C134.777 234.196 134.973 234.67 135.368 235.058C135.762 235.444 136.245 235.638 136.812 235.638C137.784 235.638 138.794 235.208 139.844 234.346V234.346Z" fill="#4D4E4C"/>
<path fill-rule="evenodd" clip-rule="evenodd" d="M148.345 237.392V218.547H150.68V226.803C151.635 225.001 153.068 224.101 154.978 224.101C156.526 224.101 157.743 224.666 158.632 225.795C159.521 226.924 159.964 228.468 159.964 230.426C159.964 232.558 159.461 234.278 158.456 235.586C157.448 236.891 156.123 237.544 154.482 237.544C152.958 237.544 151.69 236.96 150.68 235.793L150.396 237.392H148.345ZM150.68 234.181C151.88 235.255 153.024 235.793 154.114 235.793C156.356 235.793 157.479 234.082 157.479 230.664C157.479 227.647 156.482 226.139 154.493 226.139C153.19 226.139 151.92 226.847 150.68 228.258V234.181V234.181Z" fill="#4D4E4C"/>
<path fill-rule="evenodd" clip-rule="evenodd" d="M170.03 237.544C168.293 237.544 166.851 236.902 165.706 235.614C164.562 234.326 163.988 232.703 163.988 230.745C163.988 228.655 164.555 227.023 165.688 225.854C166.822 224.685 168.403 224.101 170.432 224.101C171.435 224.101 172.555 224.24 173.797 224.516V226.469C172.478 226.084 171.404 225.889 170.575 225.889C169.382 225.889 168.425 226.337 167.702 227.235C166.981 228.13 166.619 229.325 166.619 230.818C166.619 232.262 166.99 233.431 167.733 234.322C168.474 235.215 169.446 235.66 170.646 235.66C171.711 235.66 172.809 235.389 173.938 234.845V236.858C172.43 237.317 171.126 237.544 170.03 237.544" fill="#4D4E4C"/>
<path fill-rule="evenodd" clip-rule="evenodd" d="M187.083 237.248V234.832C186.135 236.64 184.706 237.544 182.794 237.544C181.246 237.544 180.029 236.979 179.14 235.85C178.251 234.721 177.808 233.178 177.808 231.22C177.808 229.081 178.311 227.358 179.319 226.055C180.324 224.754 181.649 224.101 183.292 224.101C184.816 224.101 186.08 224.686 187.083 225.854V218.547H189.427V237.248H187.083ZM187.083 227.453C185.874 226.388 184.73 225.854 183.647 225.854C181.413 225.854 180.295 227.563 180.295 230.983C180.295 233.991 181.29 235.495 183.279 235.495C184.576 235.495 185.841 234.79 187.083 233.376V227.453V227.453Z" fill="#4D4E4C"/>
<path fill-rule="evenodd" clip-rule="evenodd" d="M204.916 236.834C203.353 237.308 202.014 237.544 200.9 237.544C199.006 237.544 197.46 236.915 196.265 235.656C195.068 234.397 194.47 232.763 194.47 230.758C194.47 228.807 194.997 227.208 196.051 225.962C197.105 224.714 198.453 224.09 200.096 224.09C201.65 224.09 202.854 224.644 203.703 225.748C204.552 226.853 204.976 228.425 204.976 230.463L204.965 231.184H196.85C197.189 234.24 198.686 235.769 201.339 235.769C202.31 235.769 203.503 235.508 204.916 234.986V236.834ZM196.958 229.431H202.631C202.631 227.038 201.738 225.843 199.954 225.843C198.162 225.843 197.163 227.038 196.958 229.431V229.431Z" fill="#4D4E4C"/>
<path fill-rule="evenodd" clip-rule="evenodd" d="M213.181 226.139V237.248H210.835V226.139H209.011V224.386H210.835V222.846C210.835 219.783 212.233 218.251 215.029 218.251C215.809 218.251 216.698 218.381 217.693 218.641V220.489C216.643 220.165 215.803 220.004 215.17 220.004C214.405 220.004 213.882 220.187 213.6 220.555C213.32 220.921 213.181 221.603 213.181 222.597V224.386H216.389V226.139H213.181" fill="#4D4E4C"/>
<path fill-rule="evenodd" clip-rule="evenodd" d="M220.758 241.524L221.029 239.5C222.381 240.139 223.711 240.459 225.023 240.459C227.651 240.459 228.965 239.065 228.965 236.278V234.251C228.105 236.053 226.692 236.953 224.725 236.953C223.186 236.953 221.962 236.393 221.053 235.27C220.145 234.15 219.693 232.637 219.693 230.734C219.693 228.776 220.209 227.182 221.243 225.949C222.277 224.719 223.616 224.101 225.259 224.101C226.696 224.101 227.931 224.685 228.965 225.854V224.386H231.312V233.742C231.312 235.755 231.206 237.246 230.996 238.214C230.787 239.182 230.394 239.974 229.819 240.589C228.8 241.67 227.217 242.212 225.069 242.212C223.569 242.212 222.132 241.983 220.758 241.524ZM228.965 232.796V227.453C227.94 226.388 226.822 225.854 225.614 225.854C224.54 225.854 223.7 226.284 223.091 227.146C222.482 228.007 222.178 229.186 222.178 230.688C222.178 233.506 223.17 234.915 225.153 234.915C226.502 234.915 227.772 234.21 228.965 232.796V232.796Z" fill="#4D4E4C"/>
<path fill-rule="evenodd" clip-rule="evenodd" d="M237.23 237.248V218.547H239.563V226.803C240.794 225.001 242.302 224.101 244.088 224.101C245.202 224.101 246.088 224.454 246.752 225.162C247.416 225.868 247.747 226.818 247.747 228.011V237.248H245.414V228.767C245.414 227.813 245.275 227.131 244.995 226.725C244.712 226.32 244.249 226.115 243.601 226.115C242.172 226.115 240.827 227.052 239.563 228.922V237.248H237.23" fill="#4D4E4C"/>
<path fill-rule="evenodd" clip-rule="evenodd" d="M253.679 237.248H256.012V224.386H253.679V237.248ZM253.679 222.053H256.012V219.72H253.679V222.053Z" fill="#4D4E4C"/>
<path fill-rule="evenodd" clip-rule="evenodd" d="M257.928 241.619V239.771C259.017 240.23 259.846 240.459 260.415 240.459C261.236 240.459 261.78 240.245 262.049 239.82C262.318 239.392 262.453 238.536 262.453 237.248V224.386H264.797V237.248C264.797 240.556 263.399 242.212 260.605 242.212C259.776 242.212 258.883 242.014 257.928 241.619ZM262.453 222.053H264.797V219.72H262.453V222.053Z" fill="#4D4E4C"/>
<path fill-rule="evenodd" clip-rule="evenodd" d="M270.859 237.248V218.547H273.192V230.629L278.639 224.386H281.15L275.951 230.39L282.229 237.248H279.243L273.192 230.651V237.248H270.859" fill="#4D4E4C"/>
<path fill-rule="evenodd" clip-rule="evenodd" d="M286.43 237.248H288.763V218.547H286.43V237.248Z" fill="#4D4E4C"/>
<path fill-rule="evenodd" clip-rule="evenodd" d="M294.836 237.248V224.386H297.171V226.802C298.307 225.001 299.769 224.101 301.553 224.101C303.273 224.101 304.446 225.001 305.07 226.802C306.175 224.994 307.612 224.09 309.381 224.09C310.519 224.09 311.399 224.423 312.023 225.091C312.647 225.757 312.958 226.692 312.958 227.892V237.248H310.614V228.258C310.614 226.789 310.034 226.055 308.871 226.055C307.663 226.055 306.397 226.913 305.07 228.626V237.248H302.726V228.258C302.726 226.783 302.133 226.044 300.948 226.044C299.771 226.044 298.512 226.904 297.171 228.626V237.248H294.836" fill="#4D4E4C"/>
<path fill-rule="evenodd" clip-rule="evenodd" d="M318.876 237.248V224.386H321.211V226.802C322.442 225.001 323.95 224.101 325.734 224.101C326.848 224.101 327.737 224.454 328.4 225.162C329.064 225.867 329.395 226.818 329.395 228.011V237.248H327.062V228.767C327.062 227.812 326.921 227.131 326.641 226.725C326.361 226.319 325.897 226.114 325.249 226.114C323.82 226.114 322.473 227.052 321.211 228.922V237.248H318.876" fill="#4D4E4C"/>
<path fill-rule="evenodd" clip-rule="evenodd" d="M340.359 237.544C338.52 237.544 337.051 236.935 335.953 235.716C334.855 234.494 334.308 232.862 334.308 230.818C334.308 228.75 334.857 227.111 335.96 225.907C337.06 224.703 338.555 224.101 340.443 224.101C342.33 224.101 343.823 224.703 344.926 225.907C346.026 227.111 346.577 228.741 346.577 230.794C346.577 232.893 346.024 234.545 344.919 235.744C343.814 236.944 342.295 237.544 340.359 237.544ZM340.394 235.793C342.866 235.793 344.101 234.126 344.101 230.794C344.101 227.502 342.882 225.854 340.443 225.854C338.01 225.854 336.795 227.508 336.795 230.818C336.795 234.135 337.995 235.793 340.394 235.793V235.793Z" fill="#4D4E4C"/>
<path fill-rule="evenodd" clip-rule="evenodd" d="M351.621 241.928V224.386H353.954V226.802C354.908 225.001 356.342 224.101 358.254 224.101C359.799 224.101 361.019 224.666 361.908 225.795C362.794 226.924 363.24 228.467 363.24 230.425C363.24 232.558 362.737 234.278 361.729 235.586C360.721 236.891 359.398 237.544 357.755 237.544C356.232 237.544 354.964 236.959 353.954 235.793V241.928H351.621ZM353.954 234.181C355.153 235.255 356.298 235.793 357.389 235.793C359.63 235.793 360.752 234.081 360.752 230.664C360.752 227.647 359.758 226.139 357.766 226.139C356.465 226.139 355.193 226.846 353.954 228.258V234.181V234.181Z" fill="#4D4E4C"/>
<path fill-rule="evenodd" clip-rule="evenodd" d="M376.537 241.928V234.831C375.591 236.64 374.159 237.544 372.25 237.544C370.702 237.544 369.485 236.979 368.596 235.85C367.707 234.721 367.264 233.177 367.264 231.219C367.264 229.08 367.767 227.358 368.772 226.055C369.78 224.754 371.105 224.101 372.746 224.101C374.272 224.101 375.533 224.685 376.537 225.854V224.386H378.883V241.928H376.537ZM376.537 227.453C375.328 226.388 374.184 225.854 373.103 225.854C370.867 225.854 369.751 227.563 369.751 230.983C369.751 233.991 370.746 235.495 372.735 235.495C374.029 235.495 375.297 234.79 376.537 233.376V227.453V227.453Z" fill="#4D4E4C"/>
<path fill-rule="evenodd" clip-rule="evenodd" d="M384.943 237.248V224.386H387.276V226.802C388.2 225.001 389.543 224.101 391.305 224.101C391.54 224.101 391.79 224.121 392.05 224.161V226.339C391.646 226.207 391.291 226.139 390.985 226.139C389.507 226.139 388.272 227.016 387.276 228.767V237.248H384.943" fill="#4D4E4C"/>
<path fill-rule="evenodd" clip-rule="evenodd" d="M399.675 237.544C398.608 237.544 397.314 237.297 395.79 236.798V234.655C397.314 235.414 398.641 235.793 399.77 235.793C400.441 235.793 400.996 235.61 401.439 235.246C401.88 234.884 402.103 234.43 402.103 233.885C402.103 233.087 401.484 232.428 400.242 231.907L398.881 231.327C396.868 230.489 395.86 229.285 395.86 227.713C395.86 226.593 396.257 225.711 397.051 225.067C397.845 224.423 398.932 224.101 400.315 224.101C401.034 224.101 401.92 224.2 402.979 224.399L403.464 224.491V226.434C402.163 226.048 401.126 225.854 400.361 225.854C398.862 225.854 398.112 226.399 398.112 227.488C398.112 228.192 398.679 228.785 399.816 229.266L400.941 229.74C402.213 230.276 403.113 230.842 403.642 231.44C404.172 232.035 404.436 232.778 404.436 233.671C404.436 234.8 403.991 235.729 403.098 236.454C402.205 237.182 401.065 237.544 399.675 237.544" fill="#4D4E4C"/>
<path fill-rule="evenodd" clip-rule="evenodd" d="M413.885 237.544C412.699 237.544 411.777 237.204 411.113 236.527C410.45 235.848 410.119 234.904 410.119 233.696V226.139H408.507V224.385H410.119V222.052L412.452 221.828V224.385H415.815V226.139H412.452V233.268C412.452 234.95 413.177 235.793 414.631 235.793C414.939 235.793 415.314 235.74 415.755 235.638V237.248C415.036 237.447 414.415 237.544 413.885 237.544" fill="#4D4E4C"/>
<path fill-rule="evenodd" clip-rule="evenodd" d="M428.532 237.248V234.831C427.293 236.64 425.789 237.544 424.02 237.544C422.898 237.544 422.007 237.191 421.343 236.485C420.679 235.777 420.349 234.825 420.349 233.625V224.386H422.682V232.867C422.682 233.83 422.823 234.514 423.103 234.922C423.383 235.328 423.85 235.53 424.505 235.53C425.928 235.53 427.268 234.595 428.532 232.723V224.386H430.865V237.248H428.532" fill="#4D4E4C"/>
<path fill-rule="evenodd" clip-rule="evenodd" d="M439.604 237.248L434.819 224.386H437.152L440.894 234.395L444.839 224.386H447.018L441.937 237.248H439.604" fill="#4D4E4C"/>
<path fill-rule="evenodd" clip-rule="evenodd" d="M452.381 237.248L448.698 224.386H450.983L453.803 234.346L456.846 224.386H459.179L461.843 234.346L465.078 224.386H467.08L462.886 237.248H460.542L457.816 227.288L454.738 237.248H452.381" fill="#4D4E4C"/>
<path fill-rule="evenodd" clip-rule="evenodd" d="M469.682 237.248L474.573 230.604L469.824 224.386H472.595L476.351 229.336L479.749 224.386H482.022L477.57 230.913L482.415 237.248H479.643L475.771 232.157L472.026 237.248H469.682" fill="#4D4E4C"/>
<path fill-rule="evenodd" clip-rule="evenodd" d="M487.99 241.928L490.073 237.248L485.101 224.386H487.624L491.306 234.075L495.238 224.386H497.441L490.417 241.928H487.99" fill="#4D4E4C"/>
<path fill-rule="evenodd" clip-rule="evenodd" d="M500.436 237.248V235.495L508.394 226.139H500.802V224.386H511.272V226.139L503.313 235.495H511.426V237.248H500.436" fill="#4D4E4C"/>
<path fill-rule="evenodd" clip-rule="evenodd" d="M108.189 259.653L105.206 252.096L102.209 259.653H108.189ZM110.82 266.356L108.912 261.501H101.485L99.5559 266.356H97.2471L104.198 248.828H106.663L113.508 266.356H110.82V266.356Z" fill="#4D4E4C"/>
<path fill-rule="evenodd" clip-rule="evenodd" d="M117.872 266.356V248.828H122.421C124.174 248.828 125.517 249.158 126.454 249.822C127.389 250.486 127.857 251.441 127.857 252.689C127.857 254.812 126.657 256.325 124.256 257.225C127.123 258.102 128.556 259.683 128.556 261.975C128.556 263.395 128.082 264.482 127.136 265.232C126.188 265.981 124.82 266.356 123.036 266.356H117.872ZM120.337 264.497H120.847C122.67 264.497 123.85 264.383 124.386 264.153C125.414 263.719 125.927 262.914 125.927 261.737C125.927 260.696 125.46 259.829 124.529 259.137C123.596 258.447 122.432 258.103 121.034 258.103H120.337V264.497ZM120.337 256.526H121.129C122.456 256.526 123.484 256.241 124.216 255.672C124.946 255.106 125.31 254.303 125.31 253.269C125.31 251.547 123.976 250.686 121.308 250.686H120.337V256.526V256.526Z" fill="#4D4E4C"/>
<path fill-rule="evenodd" clip-rule="evenodd" d="M141.165 266.795C138.439 266.795 136.336 265.995 134.852 264.396C133.368 262.797 132.624 260.533 132.624 257.604C132.624 254.682 133.381 252.415 134.894 250.806C136.404 249.194 138.534 248.389 141.282 248.389C142.854 248.389 144.693 248.647 146.801 249.158V251.491C144.402 250.662 142.55 250.248 141.247 250.248C139.344 250.248 137.873 250.892 136.83 252.179C135.787 253.467 135.266 255.282 135.266 257.628C135.266 259.862 135.822 261.624 136.935 262.916C138.049 264.206 139.568 264.852 141.496 264.852C143.154 264.852 144.931 264.343 146.826 263.324V265.457C145.097 266.35 143.209 266.795 141.165 266.795" fill="#4D4E4C"/>
<path fill-rule="evenodd" clip-rule="evenodd" d="M152.268 266.356V248.828H158.096C159.834 248.828 161.236 249.022 162.306 249.407C163.375 249.796 164.301 250.451 165.084 251.374C166.324 252.843 166.943 254.777 166.943 257.178C166.943 260.091 166.174 262.35 164.634 263.953C163.093 265.556 160.925 266.356 158.131 266.356H152.268ZM154.755 264.497H157.942C160.215 264.497 161.827 263.884 162.773 262.66C163.792 261.359 164.301 259.609 164.301 257.414C164.301 255.353 163.801 253.734 162.798 252.559C162.189 251.84 161.463 251.348 160.619 251.083C159.774 250.819 158.502 250.686 156.804 250.686H154.755V264.497V264.497Z" fill="#4D4E4C"/>
<path fill-rule="evenodd" clip-rule="evenodd" d="M172.266 266.356V248.828H182.062V250.686H174.754V256.312H180.878V258.149H174.754V264.497H182.571V266.356H172.266" fill="#4D4E4C"/>
<path fill-rule="evenodd" clip-rule="evenodd" d="M187.244 266.356V248.828H197.039V250.686H189.731V256.561H195.866V258.398H189.731V266.356H187.244" fill="#4D4E4C"/>
<path fill-rule="evenodd" clip-rule="evenodd" d="M215.249 265.882C213.126 266.491 211.273 266.795 209.695 266.795C206.907 266.795 204.77 266.001 203.282 264.414C201.793 262.828 201.048 260.552 201.048 257.593C201.048 254.687 201.802 252.426 203.311 250.812C204.819 249.196 206.936 248.389 209.659 248.389C211.443 248.389 213.3 248.653 215.227 249.183V251.48C212.81 250.66 210.958 250.248 209.673 250.248C207.776 250.248 206.305 250.892 205.26 252.179C204.213 253.467 203.69 255.278 203.69 257.615C203.69 259.928 204.25 261.728 205.372 263.011C206.493 264.295 208.065 264.936 210.087 264.936C210.914 264.936 211.812 264.789 212.775 264.497V258.788H215.249V265.882" fill="#4D4E4C"/>
<path fill-rule="evenodd" clip-rule="evenodd" d="M221.439 266.356V248.828H223.927V256.219H232.264V248.828H234.752V266.356H232.264V258.078H223.927V266.356H221.439" fill="#4D4E4C"/>
<path fill-rule="evenodd" clip-rule="evenodd" d="M241.083 266.356H243.57V248.828H241.083V266.356Z" fill="#4D4E4C"/>
<path fill-rule="evenodd" clip-rule="evenodd" d="M245.471 269.613V267.41C246.419 267.719 247.255 267.873 247.983 267.873C248.929 267.873 249.59 267.602 249.965 267.062C250.34 266.519 250.527 265.576 250.527 264.224V248.828H253.015V264.142C253.015 267.955 251.211 269.862 247.603 269.862C247.05 269.862 246.34 269.779 245.471 269.613" fill="#4D4E4C"/>
<path fill-rule="evenodd" clip-rule="evenodd" d="M259.286 266.356V248.828H261.622V257.45L268.716 248.828H271.214L264.345 257.189L272.433 266.356H269.284L261.622 257.474V266.356H259.286" fill="#4D4E4C"/>
<path fill-rule="evenodd" clip-rule="evenodd" d="M276.952 266.356V248.828H279.439V264.497H287.329V266.356H276.952" fill="#4D4E4C"/>
<path fill-rule="evenodd" clip-rule="evenodd" d="M291.718 266.356V248.828H295.164L300.02 262.389L305.017 248.828H308.097V266.356H305.775V252.096L300.944 265.183H298.538L293.848 252.06V266.356H291.718" fill="#4D4E4C"/>
<path fill-rule="evenodd" clip-rule="evenodd" d="M314.439 266.356V248.828H316.881L325.703 262.365V248.828H327.836V266.356H325.408L316.572 252.819V266.356H314.439" fill="#4D4E4C"/>
<path fill-rule="evenodd" clip-rule="evenodd" d="M341.25 266.795C338.817 266.795 336.862 265.953 335.38 264.266C333.9 262.581 333.159 260.352 333.159 257.58C333.159 254.793 333.904 252.565 335.393 250.894C336.881 249.225 338.868 248.389 341.356 248.389C343.834 248.389 345.821 249.222 347.314 250.889C348.807 252.554 349.552 254.777 349.552 257.556C349.552 260.391 348.807 262.641 347.314 264.301C345.821 265.964 343.799 266.795 341.25 266.795ZM341.285 264.936C343.078 264.936 344.463 264.29 345.442 262.998C346.421 261.708 346.91 259.886 346.91 257.534C346.91 255.251 346.419 253.467 345.435 252.179C344.454 250.892 343.093 250.248 341.356 250.248C339.611 250.248 338.249 250.894 337.269 252.186C336.29 253.476 335.801 255.271 335.801 257.569C335.801 259.858 336.286 261.659 337.258 262.969C338.229 264.279 339.572 264.936 341.285 264.936V264.936Z" fill="#4D4E4C"/>
<path fill-rule="evenodd" clip-rule="evenodd" d="M354.864 266.356V248.828H359.636C361.753 248.828 363.273 249.185 364.197 249.899C365.121 250.614 365.584 251.789 365.584 253.423C365.584 255.286 364.951 256.746 363.687 257.805C362.424 258.863 360.673 259.392 358.43 259.392H357.328V266.356H354.864ZM357.328 257.509H358.335C359.811 257.509 360.953 257.17 361.758 256.49C362.563 255.811 362.966 254.852 362.966 253.613C362.966 252.563 362.651 251.811 362.018 251.361C361.387 250.911 360.333 250.686 358.856 250.686H357.328V257.509V257.509Z" fill="#4D4E4C"/>
<path fill-rule="evenodd" clip-rule="evenodd" d="M385.666 269.863C382.91 268.97 380.601 267.909 378.735 266.676C377.994 266.756 377.421 266.795 377.02 266.795C374.667 266.795 372.753 265.942 371.28 264.237C369.809 262.53 369.072 260.316 369.072 257.593C369.072 254.797 369.815 252.565 371.304 250.894C372.792 249.225 374.781 248.389 377.267 248.389C379.763 248.389 381.752 249.227 383.236 250.9C384.722 252.574 385.463 254.817 385.463 257.628C385.463 261.655 383.968 264.442 380.976 265.99C382.989 266.875 385.077 267.505 387.24 267.885L385.666 269.863ZM377.196 264.936C378.989 264.936 380.374 264.292 381.353 263.005C382.332 261.717 382.824 259.897 382.824 257.545C382.824 255.262 382.332 253.476 381.353 252.186C380.374 250.894 379.013 250.248 377.267 250.248C375.522 250.248 374.159 250.894 373.18 252.186C372.201 253.476 371.712 255.271 371.712 257.569C371.712 259.858 372.199 261.659 373.169 262.969C374.14 264.279 375.483 264.936 377.196 264.936V264.936Z" fill="#4D4E4C"/>
<path fill-rule="evenodd" clip-rule="evenodd" d="M390.775 266.356V248.828H396.083C397.763 248.828 399.054 249.198 399.949 249.941C400.846 250.682 401.294 251.76 401.294 253.174C401.294 255.511 400.114 257.17 397.752 258.149L403.603 266.356H400.546L395.561 258.943H393.239V266.356H390.775ZM393.239 257.084H394.046C397.173 257.084 398.736 255.855 398.736 253.399C398.736 251.591 397.424 250.686 394.802 250.686H393.239V257.084V257.084Z" fill="#4D4E4C"/>
<path fill-rule="evenodd" clip-rule="evenodd" d="M411.378 266.795C410.203 266.795 408.699 266.539 406.866 266.026V263.562C408.84 264.478 410.463 264.936 411.735 264.936C412.714 264.936 413.502 264.678 414.097 264.167C414.692 263.653 414.992 262.978 414.992 262.14C414.992 261.454 414.796 260.87 414.406 260.387C414.013 259.906 413.294 259.368 412.243 258.777L411.036 258.078C409.543 257.225 408.492 256.422 407.878 255.668C407.268 254.914 406.961 254.034 406.961 253.033C406.961 251.681 407.451 250.57 408.43 249.699C409.409 248.825 410.657 248.389 412.172 248.389C413.524 248.389 414.948 248.614 416.448 249.064V251.339C414.6 250.612 413.224 250.248 412.315 250.248C411.453 250.248 410.743 250.477 410.183 250.936C409.623 251.394 409.343 251.97 409.343 252.665C409.343 253.249 409.548 253.767 409.958 254.217C410.368 254.667 411.118 255.203 412.207 255.827L413.464 256.539C414.979 257.399 416.038 258.213 416.637 258.978C417.237 259.743 417.537 260.663 417.537 261.737C417.537 263.263 416.975 264.486 415.85 265.408C414.726 266.332 413.235 266.795 411.378 266.795" fill="#4D4E4C"/>
<path fill-rule="evenodd" clip-rule="evenodd" d="M427.008 266.356V250.686H420.79V248.828H435.712V250.686H429.496V266.356H427.008" fill="#4D4E4C"/>
<path fill-rule="evenodd" clip-rule="evenodd" d="M439.864 248.828H442.352V259.891C442.352 261.65 442.678 262.932 443.329 263.732C443.981 264.535 445.018 264.936 446.438 264.936C447.827 264.936 448.813 264.559 449.393 263.805C449.973 263.051 450.264 261.774 450.264 259.972V248.828H452.442V259.937C452.442 262.33 451.951 264.072 450.967 265.161C449.986 266.25 448.42 266.795 446.272 266.795C444.085 266.795 442.471 266.231 441.428 265.102C440.385 263.973 439.864 262.226 439.864 259.867V248.828" fill="#4D4E4C"/>
<path fill-rule="evenodd" clip-rule="evenodd" d="M463.429 266.356L456.809 248.828H459.294L464.719 263.183L469.954 248.828H472.135L465.773 266.356H463.429" fill="#4D4E4C"/>
<path fill-rule="evenodd" clip-rule="evenodd" d="M478.607 266.356L474.095 248.828H476.488L480.075 262.674L483.381 248.828H485.773L488.9 262.484L492.762 248.828H494.786L489.871 266.356H487.394L484.305 252.843L481.07 266.356H478.607" fill="#4D4E4C"/>
<path fill-rule="evenodd" clip-rule="evenodd" d="M496.841 266.356L502.656 257.556L497.126 248.828H500.063L504.279 255.436L508.709 248.828H511.053L505.452 257.295L511.197 266.356H508.259L503.805 259.403L499.198 266.356H496.841" fill="#4D4E4C"/>
<path fill-rule="evenodd" clip-rule="evenodd" d="M519.717 266.356V259.037L513.867 248.828H516.71L521.259 256.74L526.161 248.828H528.472L522.205 258.989V266.356H519.717" fill="#4D4E4C"/>
<path fill-rule="evenodd" clip-rule="evenodd" d="M531.733 266.356V264.367L541.149 250.686H532.315V248.828H544.135V250.686L534.719 264.367H544.135V266.356H531.733" fill="#4D4E4C"/>
</svg>
