<svg width="217" height="102" viewBox="0 0 217 102" fill="none" xmlns="http://www.w3.org/2000/svg">
<g opacity="0.9">
<path d="M101.858 27.9514L107.761 24.5703L98.3438 19.061L95.7536 20.545L95.7227 27.3611L98.3129 25.8771L101.858 27.9514" fill="#00609C"/>
<path d="M118.424 32.4121L118.393 39.2282L127.882 33.792L127.89 32.0328L122.019 28.5971L122.011 30.357L118.424 32.4121" fill="#00609C"/>
<path d="M105.228 43.9221L99.3577 40.4879L99.3025 52.6767L101.9 54.1968L107.803 50.815L105.204 49.2956L105.228 43.9221" fill="#00609C"/>
<path d="M128.659 24.7939L118.86 19.061L99.4048 30.2072L99.3967 31.9671L105.268 35.4021L105.276 33.6422L118.83 25.8771L132.312 33.7654L132.242 49.4181L118.688 57.1824L115.142 55.1089L109.24 58.49L118.657 64L138.113 52.8538L138.214 30.3843L128.659 24.7939" fill="#00609C"/>
<path d="M115.1 28.8643L109.197 32.2454L111.796 33.7655L111.725 49.4181L98.1708 57.1824L84.6881 49.2956L84.7587 33.6423L88.3447 31.5879L88.3756 24.7718L78.8872 30.2073L78.7856 52.6767L98.1399 64L117.596 52.8538L117.697 30.3844L115.1 28.8643" fill="#00609C"/>
<path d="M108.63 0L89.1733 11.1462L89.0718 33.6157L108.426 44.9382L111.016 43.455L111.046 36.6389L108.457 38.1221L94.9742 30.2345L95.0449 14.5812L108.599 6.81611L122.082 14.7044L122.057 20.0779L127.928 23.5121L127.983 11.3233L108.63 0" fill="#00609C"/>
<path d="M12.1543 82.2139V80.7549H13.8418V85H12.1191C11.6855 84.1504 11.0908 83.4883 10.335 83.0137C9.5791 82.5391 8.75 82.3018 7.84766 82.3018C6.97461 82.3018 6.19531 82.5332 5.50977 82.9961C4.82422 83.4531 4.28809 84.0684 3.90137 84.8418C3.52051 85.6094 3.33008 86.4355 3.33008 87.3203C3.33008 88.2344 3.5293 89.0781 3.92773 89.8516C4.33203 90.625 4.88574 91.2432 5.58887 91.7061C6.29199 92.1689 7.07422 92.4004 7.93555 92.4004C8.99609 92.4004 9.93359 92.0781 10.748 91.4336C11.5625 90.7832 12.1572 89.8633 12.5322 88.6738L14.2197 89.5703C13.7627 91.0469 12.9541 92.1924 11.7939 93.0068C10.6396 93.8154 9.2832 94.2197 7.72461 94.2197C6.44141 94.2197 5.30176 93.915 4.30566 93.3057C3.30957 92.6904 2.5332 91.8672 1.97656 90.8359C1.42578 89.7988 1.15039 88.6621 1.15039 87.4258C1.15039 86.084 1.43164 84.8887 1.99414 83.8398C2.5625 82.791 3.34473 81.9795 4.34082 81.4053C5.33691 80.8252 6.47656 80.5352 7.75977 80.5352C8.62109 80.5352 9.41504 80.6787 10.1416 80.9658C10.8682 81.2529 11.5391 81.6689 12.1543 82.2139ZM20.293 92.3828V94H15.4326V92.3828H17.0674V82.3545H15.4326V80.7549H18.8867V92.3828H20.293ZM29.4248 88.0234V92.3828H30.9717V94H27.8252V92.8662C26.9463 93.7275 25.9678 94.1582 24.8896 94.1582C24.3213 94.1582 23.7998 94.0264 23.3252 93.7627C22.8564 93.499 22.4785 93.1475 22.1914 92.708C21.9102 92.2627 21.7695 91.7705 21.7695 91.2314C21.7695 90.6514 21.9248 90.1357 22.2354 89.6846C22.5518 89.2275 22.9766 88.876 23.5098 88.6299C24.043 88.3838 24.5791 88.2607 25.1182 88.2607C26.0205 88.2607 26.8613 88.5244 27.6406 89.0518V88.0586C27.6406 87.3379 27.4883 86.8223 27.1836 86.5117C26.8789 86.2012 26.3779 86.0459 25.6807 86.0459C25.1885 86.0459 24.7754 86.1367 24.4414 86.3184C24.1133 86.4941 23.8408 86.7637 23.624 87.127L21.8838 86.6963C22.2764 85.9639 22.8066 85.4189 23.4746 85.0615C24.1426 84.6982 24.9365 84.5166 25.8564 84.5166C27.0928 84.5166 27.9951 84.7979 28.5635 85.3604C29.1377 85.9229 29.4248 86.8105 29.4248 88.0234ZM25.1357 92.7607C26.0264 92.7607 26.8613 92.3887 27.6406 91.6445V90.5635C26.8496 89.9482 26.0586 89.6406 25.2676 89.6406C24.7871 89.6406 24.3711 89.793 24.0195 90.0977C23.6738 90.3965 23.501 90.7744 23.501 91.2314C23.501 91.6709 23.6533 92.0371 23.958 92.3301C24.2627 92.6172 24.6553 92.7607 25.1357 92.7607ZM35.3662 90.291V92.3828H37.3789V94H31.71V92.3828H33.5645V86.3887H31.71V84.7627H35.0059V86.8545C35.375 86.0283 35.832 85.4541 36.377 85.1318C36.9277 84.8037 37.7129 84.6396 38.7324 84.6396H39.1455V86.4766H38.75C37.7656 86.4766 37.0332 86.6055 36.5527 86.8633C36.0723 87.1211 35.7529 87.5107 35.5947 88.0322C35.4424 88.5537 35.3662 89.3066 35.3662 90.291ZM43.2852 81.6514C43.2852 81.9502 43.1768 82.208 42.96 82.4248C42.7432 82.6416 42.4854 82.75 42.1865 82.75C41.8877 82.75 41.6328 82.6416 41.4219 82.4248C41.2109 82.208 41.1055 81.9502 41.1055 81.6514C41.1055 81.3525 41.2109 81.0947 41.4219 80.8779C41.6328 80.6611 41.8877 80.5527 42.1865 80.5527C42.4971 80.5527 42.7578 80.6582 42.9688 80.8691C43.1797 81.0801 43.2852 81.3408 43.2852 81.6514ZM44.5859 92.3828V94H39.9189V92.3828H41.3604V86.3887H39.9189V84.7627H43.1797V92.3828H44.5859ZM50.2988 84.7627V86.3887H48.6113V91.2314C48.6113 91.7354 48.6641 92.0635 48.7695 92.2158C48.8809 92.3623 49.0684 92.4355 49.332 92.4355C49.6543 92.4355 49.9766 92.3799 50.2988 92.2686V93.9121C49.7363 94.0762 49.2822 94.1582 48.9365 94.1582C48.1748 94.1582 47.627 93.9678 47.293 93.5869C46.959 93.2002 46.792 92.541 46.792 91.6094V86.3887H45.5879V84.7627H46.792V83.3652L48.6113 81.7041V84.7627H50.2988ZM55.6865 92.5762C56.501 92.5762 57.3828 92.1807 58.332 91.3896V86.3887H56.6973V84.7627H60.1514V92.3828H61.7334V94H58.332V92.9365C57.2656 93.751 56.252 94.1582 55.291 94.1582C54.4238 94.1582 53.7822 93.9004 53.3662 93.3848C52.9561 92.8691 52.751 92.0137 52.751 90.8184V86.3887H51.459V84.7627H54.5703V91.1963C54.5703 91.6709 54.6553 92.0195 54.8252 92.2422C55.001 92.4648 55.2881 92.5762 55.6865 92.5762ZM66.1807 90.291V92.3828H68.1934V94H62.5244V92.3828H64.3789V86.3887H62.5244V84.7627H65.8203V86.8545C66.1895 86.0283 66.6465 85.4541 67.1914 85.1318C67.7422 84.8037 68.5273 84.6396 69.5469 84.6396H69.96V86.4766H69.5645C68.5801 86.4766 67.8477 86.6055 67.3672 86.8633C66.8867 87.1211 66.5674 87.5107 66.4092 88.0322C66.2568 88.5537 66.1807 89.3066 66.1807 90.291ZM79.6367 89.8428H71.8936C72.0049 90.7275 72.3477 91.4277 72.9219 91.9434C73.4961 92.4531 74.1992 92.708 75.0312 92.708C75.6406 92.708 76.2061 92.582 76.7275 92.3301C77.249 92.0781 77.6855 91.6914 78.0371 91.1699L79.6367 91.8906C79.1328 92.6758 78.4707 93.2705 77.6504 93.6748C76.8359 94.0732 75.9482 94.2725 74.9873 94.2725C73.9912 94.2725 73.1064 94.0645 72.333 93.6484C71.5596 93.2324 70.9561 92.6523 70.5225 91.9082C70.0947 91.1641 69.8809 90.3262 69.8809 89.3945C69.8809 88.4688 70.0918 87.6338 70.5137 86.8896C70.9414 86.1455 71.5244 85.5654 72.2627 85.1494C73.001 84.7275 73.8154 84.5166 74.7061 84.5166C75.6787 84.5166 76.5254 84.7334 77.2461 85.167C77.9727 85.5947 78.5439 86.21 78.96 87.0127C79.376 87.8096 79.6016 88.7529 79.6367 89.8428ZM74.7412 86.0283C74.0557 86.0283 73.4551 86.2598 72.9395 86.7227C72.4238 87.1797 72.0928 87.7861 71.9463 88.542H77.7295C77.5596 87.7861 77.1992 87.1797 76.6484 86.7227C76.0977 86.2598 75.4619 86.0283 74.7412 86.0283ZM98.5332 87.1797C98.5332 89.4473 97.8477 91.1523 96.4766 92.2949C95.1113 93.4316 93.0781 94 90.377 94H85.4287V92.3477H87.2041V82.4072H85.4287V80.7549H90.4648C93.1777 80.7549 95.1992 81.2676 96.5293 82.293C97.8652 83.3184 98.5332 84.9473 98.5332 87.1797ZM96.3535 87.2676C96.3535 86.1426 96.1543 85.2256 95.7559 84.5166C95.3633 83.8076 94.7363 83.2803 93.875 82.9346C93.0195 82.583 91.8887 82.4072 90.4824 82.4072H89.208V92.3477H90.4648C92.5039 92.3477 93.9951 91.9404 94.9385 91.126C95.8818 90.3057 96.3535 89.0195 96.3535 87.2676ZM109.871 89.8428H102.128C102.239 90.7275 102.582 91.4277 103.156 91.9434C103.73 92.4531 104.434 92.708 105.266 92.708C105.875 92.708 106.44 92.582 106.962 92.3301C107.483 92.0781 107.92 91.6914 108.271 91.1699L109.871 91.8906C109.367 92.6758 108.705 93.2705 107.885 93.6748C107.07 94.0732 106.183 94.2725 105.222 94.2725C104.226 94.2725 103.341 94.0645 102.567 93.6484C101.794 93.2324 101.19 92.6523 100.757 91.9082C100.329 91.1641 100.115 90.3262 100.115 89.3945C100.115 88.4688 100.326 87.6338 100.748 86.8896C101.176 86.1455 101.759 85.5654 102.497 85.1494C103.235 84.7275 104.05 84.5166 104.94 84.5166C105.913 84.5166 106.76 84.7334 107.48 85.167C108.207 85.5947 108.778 86.21 109.194 87.0127C109.61 87.8096 109.836 88.7529 109.871 89.8428ZM104.976 86.0283C104.29 86.0283 103.689 86.2598 103.174 86.7227C102.658 87.1797 102.327 87.7861 102.181 88.542H107.964C107.794 87.7861 107.434 87.1797 106.883 86.7227C106.332 86.2598 105.696 86.0283 104.976 86.0283ZM116.841 85.1582V84.7627H118.423V87.8301H116.841V87.2676C116.313 86.5117 115.593 86.1338 114.679 86.1338C114.198 86.1338 113.806 86.2393 113.501 86.4502C113.196 86.6611 113.044 86.9336 113.044 87.2676C113.044 87.5664 113.158 87.8008 113.387 87.9707C113.621 88.1406 114.143 88.29 114.951 88.4189L116.173 88.6562C117.995 88.9902 118.906 89.8838 118.906 91.3369C118.906 92.1865 118.575 92.8691 117.913 93.3848C117.257 93.9004 116.384 94.1582 115.294 94.1582C114.86 94.1582 114.433 94.0967 114.011 93.9736C113.595 93.8447 113.246 93.6865 112.965 93.499V94H111.348V90.8359H112.965V91.1523C113.053 91.5977 113.299 91.9551 113.703 92.2246C114.113 92.4941 114.588 92.6289 115.127 92.6289C115.719 92.6289 116.185 92.5264 116.524 92.3213C116.864 92.1104 117.034 91.7998 117.034 91.3896C117.034 91.0908 116.899 90.8682 116.63 90.7217C116.36 90.5693 115.818 90.4141 115.004 90.2559L114.063 90.0537C113.132 89.8662 112.449 89.5439 112.016 89.0869C111.582 88.6299 111.365 88.0469 111.365 87.3379C111.365 86.7637 111.523 86.2744 111.84 85.8701C112.162 85.46 112.572 85.1523 113.07 84.9473C113.568 84.7422 114.081 84.6396 114.608 84.6396C115.493 84.6396 116.237 84.8125 116.841 85.1582ZM123.406 81.6514C123.406 81.9502 123.298 82.208 123.081 82.4248C122.864 82.6416 122.606 82.75 122.308 82.75C122.009 82.75 121.754 82.6416 121.543 82.4248C121.332 82.208 121.227 81.9502 121.227 81.6514C121.227 81.3525 121.332 81.0947 121.543 80.8779C121.754 80.6611 122.009 80.5527 122.308 80.5527C122.618 80.5527 122.879 80.6582 123.09 80.8691C123.301 81.0801 123.406 81.3408 123.406 81.6514ZM124.707 92.3828V94H120.04V92.3828H121.481V86.3887H120.04V84.7627H123.301V92.3828H124.707ZM133.628 86.0986V84.7627H137.1V86.3887H135.43V93.3145C135.43 94.9258 135.022 96.168 134.208 97.041C133.399 97.9199 132.216 98.3594 130.657 98.3594C129.181 98.3594 127.921 97.9434 126.878 97.1113L128.047 95.8018C128.469 96.1123 128.891 96.3438 129.312 96.4961C129.74 96.6543 130.206 96.7334 130.71 96.7334C131.624 96.7334 132.339 96.4492 132.854 95.8809C133.37 95.3125 133.628 94.5596 133.628 93.6221V92.7607C133.229 93.2295 132.723 93.5986 132.107 93.8682C131.498 94.1377 130.889 94.2725 130.279 94.2725C129.424 94.2725 128.653 94.0557 127.968 93.6221C127.288 93.1885 126.755 92.6143 126.368 91.8994C125.987 91.1787 125.797 90.3906 125.797 89.5352C125.797 88.6621 125.996 87.8506 126.395 87.1006C126.799 86.3506 127.35 85.7529 128.047 85.3076C128.744 84.8623 129.518 84.6396 130.367 84.6396C130.977 84.6396 131.545 84.7598 132.072 85C132.605 85.2402 133.124 85.6064 133.628 86.0986ZM130.622 92.6465C131.196 92.6465 131.715 92.5029 132.178 92.2158C132.641 91.9287 133.001 91.542 133.259 91.0557C133.517 90.5693 133.646 90.0449 133.646 89.4824C133.646 88.9551 133.517 88.4482 133.259 87.9619C133.001 87.4756 132.644 87.083 132.187 86.7842C131.729 86.4854 131.22 86.3359 130.657 86.3359C130.106 86.3359 129.605 86.4795 129.154 86.7666C128.703 87.0537 128.352 87.4404 128.1 87.9268C127.848 88.4131 127.722 88.9375 127.722 89.5C127.722 90.0742 127.842 90.6016 128.082 91.082C128.322 91.5625 128.662 91.9434 129.102 92.2246C129.547 92.5059 130.054 92.6465 130.622 92.6465ZM146.812 87.7861V92.3828H148.358V94H144.992V87.9004C144.992 87.3203 144.907 86.9043 144.737 86.6523C144.573 86.4004 144.301 86.2744 143.92 86.2744C143.111 86.2744 142.203 86.6729 141.195 87.4697V92.3828H142.786V94H137.776V92.3828H139.402V86.3887H137.776V84.7627H141.195V85.8789C142.326 85.0527 143.39 84.6396 144.386 84.6396C145.212 84.6396 145.821 84.8945 146.214 85.4043C146.612 85.9141 146.812 86.708 146.812 87.7861ZM161.059 81.5811V80.6758H162.676V84.6924H161.059V83.7783C160.373 82.7471 159.436 82.2314 158.246 82.2314C157.52 82.2314 156.963 82.3779 156.576 82.6709C156.189 82.9639 155.996 83.3857 155.996 83.9365C155.996 84.4639 156.178 84.8652 156.541 85.1406C156.91 85.416 157.473 85.6504 158.229 85.8438L159.784 86.2568C160.774 86.5205 161.533 86.8691 162.061 87.3027C162.594 87.7363 162.939 88.1963 163.098 88.6826C163.262 89.1689 163.344 89.7109 163.344 90.3086C163.344 91.5098 162.969 92.4619 162.219 93.165C161.469 93.8682 160.464 94.2197 159.204 94.2197C158.003 94.2197 156.91 93.7803 155.926 92.9014V94H154.273V89.1748H155.926V90.3438C156.717 91.7969 157.748 92.5234 159.02 92.5234C159.764 92.5234 160.341 92.333 160.751 91.9521C161.161 91.5654 161.366 91.0234 161.366 90.3262C161.366 89.377 160.698 88.7178 159.362 88.3486L157.71 87.8828C156.521 87.543 155.642 87.083 155.073 86.5029C154.505 85.9229 154.221 85.1582 154.221 84.209C154.221 83.043 154.563 82.1406 155.249 81.502C155.94 80.8574 156.893 80.5352 158.105 80.5352C159.16 80.5352 160.145 80.8838 161.059 81.5811ZM167.053 86.3887L169.057 91.6094L170.999 86.3887H169.769V84.7627H174.181V86.3887H172.818L168.257 98.1396H165.181V96.5576H167L168.099 93.8418L165.075 86.3887H163.528V84.7627H168.151V86.3887H167.053ZM180.034 85.1582V84.7627H181.616V87.8301H180.034V87.2676C179.507 86.5117 178.786 86.1338 177.872 86.1338C177.392 86.1338 176.999 86.2393 176.694 86.4502C176.39 86.6611 176.237 86.9336 176.237 87.2676C176.237 87.5664 176.352 87.8008 176.58 87.9707C176.814 88.1406 177.336 88.29 178.145 88.4189L179.366 88.6562C181.188 88.9902 182.1 89.8838 182.1 91.3369C182.1 92.1865 181.769 92.8691 181.106 93.3848C180.45 93.9004 179.577 94.1582 178.487 94.1582C178.054 94.1582 177.626 94.0967 177.204 93.9736C176.788 93.8447 176.439 93.6865 176.158 93.499V94H174.541V90.8359H176.158V91.1523C176.246 91.5977 176.492 91.9551 176.896 92.2246C177.307 92.4941 177.781 92.6289 178.32 92.6289C178.912 92.6289 179.378 92.5264 179.718 92.3213C180.058 92.1104 180.228 91.7998 180.228 91.3896C180.228 91.0908 180.093 90.8682 179.823 90.7217C179.554 90.5693 179.012 90.4141 178.197 90.2559L177.257 90.0537C176.325 89.8662 175.643 89.5439 175.209 89.0869C174.775 88.6299 174.559 88.0469 174.559 87.3379C174.559 86.7637 174.717 86.2744 175.033 85.8701C175.355 85.46 175.766 85.1523 176.264 84.9473C176.762 84.7422 177.274 84.6396 177.802 84.6396C178.687 84.6396 179.431 84.8125 180.034 85.1582ZM188.094 84.7627V86.3887H186.406V91.2314C186.406 91.7354 186.459 92.0635 186.564 92.2158C186.676 92.3623 186.863 92.4355 187.127 92.4355C187.449 92.4355 187.771 92.3799 188.094 92.2686V93.9121C187.531 94.0762 187.077 94.1582 186.731 94.1582C185.97 94.1582 185.422 93.9678 185.088 93.5869C184.754 93.2002 184.587 92.541 184.587 91.6094V86.3887H183.383V84.7627H184.587V83.3652L186.406 81.7041V84.7627H188.094ZM199.098 89.8428H191.354C191.466 90.7275 191.809 91.4277 192.383 91.9434C192.957 92.4531 193.66 92.708 194.492 92.708C195.102 92.708 195.667 92.582 196.188 92.3301C196.71 92.0781 197.146 91.6914 197.498 91.1699L199.098 91.8906C198.594 92.6758 197.932 93.2705 197.111 93.6748C196.297 94.0732 195.409 94.2725 194.448 94.2725C193.452 94.2725 192.567 94.0645 191.794 93.6484C191.021 93.2324 190.417 92.6523 189.983 91.9082C189.556 91.1641 189.342 90.3262 189.342 89.3945C189.342 88.4688 189.553 87.6338 189.975 86.8896C190.402 86.1455 190.985 85.5654 191.724 85.1494C192.462 84.7275 193.276 84.5166 194.167 84.5166C195.14 84.5166 195.986 84.7334 196.707 85.167C197.434 85.5947 198.005 86.21 198.421 87.0127C198.837 87.8096 199.062 88.7529 199.098 89.8428ZM194.202 86.0283C193.517 86.0283 192.916 86.2598 192.4 86.7227C191.885 87.1797 191.554 87.7861 191.407 88.542H197.19C197.021 87.7861 196.66 87.1797 196.109 86.7227C195.559 86.2598 194.923 86.0283 194.202 86.0283ZM201.857 92.3828V86.3887H200.302V84.7627H203.668V85.9316C204.752 85.0703 205.815 84.6396 206.858 84.6396C207.925 84.6396 208.657 85.1201 209.056 86.0811C210.239 85.1201 211.355 84.6396 212.404 84.6396C213.148 84.6396 213.74 84.8594 214.18 85.2988C214.625 85.7383 214.848 86.4121 214.848 87.3203V92.3828H216.465V94H213.046V88.1465C213.046 87.7422 213.025 87.4141 212.984 87.1621C212.943 86.9102 212.835 86.6963 212.659 86.5205C212.489 86.3447 212.217 86.2568 211.842 86.2568C211.508 86.2568 211.118 86.3564 210.673 86.5557C210.228 86.7549 209.759 87.0537 209.267 87.4521V92.3828H210.831V94H207.447V87.918C207.447 87.3262 207.356 86.9014 207.175 86.6436C206.999 86.3857 206.706 86.2568 206.296 86.2568C205.628 86.2568 204.752 86.6553 203.668 87.4521V92.3828H205.294V94H200.196V92.3828H201.857Z" fill="#333333"/>
</g>
</svg>
