<svg width="201" height="97" viewBox="0 0 201 97" fill="none" xmlns="http://www.w3.org/2000/svg">
<g opacity="0.9">
<path d="M93.8356 27.9414L99.7533 24.5607L90.3119 19.052L87.715 20.5353L87.6845 27.351L90.2808 25.8676L93.8356 27.9414Z" fill="#4C9D2F"/>
<path d="M110.455 32.4169L110.424 39.2326L119.938 33.7973L119.946 32.038L114.059 28.603L114.051 30.3629L110.455 32.4169Z" fill="#00609C"/>
<path d="M97.2142 43.9137L91.3277 40.4792L91.2723 52.6669L93.8766 54.1864L99.7947 50.8057L97.19 49.2861L97.2142 43.9137Z" fill="#1EC2DF"/>
<path d="M120.711 24.7835L119.975 24.3543L114.089 20.9199L113.353 20.4906L110.887 19.052L101.234 24.5669L100.494 24.99L94.5766 28.3706L93.837 28.7931L91.3804 30.1967L91.3724 31.956L97.259 35.3911L97.2669 33.6312L99.7235 32.2281L100.463 31.805L106.381 28.4244L107.121 28.0014L110.856 25.8676L113.322 27.3057L114.058 27.735L119.944 31.1694L120.68 31.5986L124.375 33.7539L124.304 49.4047L110.714 57.1683L107.16 55.0945L101.241 58.4757L110.683 63.9839L130.191 52.8397L130.292 30.3731L120.711 24.7835Z" fill="#1EC2DF"/>
<path d="M107.117 28.8697L101.199 32.2505L103.804 33.77L103.797 35.3682L103.793 36.2204L103.762 43.0355L103.758 43.8872L103.733 49.4208L101.277 50.8239L100.537 51.2469L94.6181 54.6276L93.8783 55.0501L90.1436 57.1838L76.6254 49.2981L76.6961 33.6473L80.2917 31.5927L80.3228 24.7776L70.8095 30.2128L70.7077 52.6788L90.1125 64L99.766 58.485L100.506 58.0626L106.424 54.6814L107.164 54.2589L109.62 52.8559L109.676 40.5065L109.68 39.6548L109.71 32.8397L109.714 31.9874L109.722 30.3892L107.117 28.8697Z" fill="#4C9D2F"/>
<path d="M100.63 0L81.123 11.1448L81.067 23.4935L81.0631 24.3452L81.032 31.1609L81.028 32.0126L81.0213 33.6108L90.6023 39.2004L91.3381 39.6301L97.2247 43.064L97.9604 43.4938L100.426 44.9319L103.023 43.4486L103.054 36.6335L100.457 38.1168L97.9915 36.6782L97.2558 36.2489L91.3692 32.8145L90.6334 32.3858L86.9389 30.23L86.9457 28.6318L86.9496 27.7802L86.9808 20.9645L86.9847 20.1128L87.0096 14.5792L100.599 6.81509L114.118 14.7024L114.093 20.075L119.98 23.5088L120.035 11.3218L100.63 0Z" fill="#00609C"/>
<path d="M7.70508 79.3018C6.29297 79.3018 5.17676 79.7734 4.35645 80.7168C3.54199 81.6543 3.13477 82.9404 3.13477 84.5752C3.13477 86.2568 3.52734 87.5576 4.3125 88.4775C5.10352 89.3916 6.22852 89.8486 7.6875 89.8486C8.58398 89.8486 9.60645 89.6875 10.7549 89.3652V90.6748C9.86426 91.0088 8.76562 91.1758 7.45898 91.1758C5.56641 91.1758 4.10449 90.6016 3.07324 89.4531C2.04785 88.3047 1.53516 86.6729 1.53516 84.5576C1.53516 83.2334 1.78125 82.0732 2.27344 81.0771C2.77148 80.0811 3.48633 79.3135 4.41797 78.7744C5.35547 78.2354 6.45703 77.9658 7.72266 77.9658C9.07031 77.9658 10.248 78.2119 11.2559 78.7041L10.623 79.9873C9.65039 79.5303 8.67773 79.3018 7.70508 79.3018ZM14.7979 91H13.3389V77.3242H14.7979V91ZM23.8154 91L23.5254 89.6289H23.4551C22.9746 90.2324 22.4941 90.6426 22.0137 90.8594C21.5391 91.0703 20.9443 91.1758 20.2295 91.1758C19.2744 91.1758 18.5244 90.9297 17.9795 90.4375C17.4404 89.9453 17.1709 89.2451 17.1709 88.3369C17.1709 86.3916 18.7266 85.3721 21.8379 85.2783L23.4727 85.2256V84.6279C23.4727 83.8721 23.3086 83.3154 22.9805 82.958C22.6582 82.5947 22.1396 82.4131 21.4248 82.4131C20.6221 82.4131 19.7139 82.6592 18.7002 83.1514L18.252 82.0352C18.7266 81.7773 19.2451 81.5752 19.8076 81.4287C20.376 81.2822 20.9443 81.209 21.5127 81.209C22.6611 81.209 23.5107 81.4639 24.0615 81.9736C24.6182 82.4834 24.8965 83.3008 24.8965 84.4258V91H23.8154ZM20.5195 89.9717C21.4277 89.9717 22.1396 89.7227 22.6553 89.2246C23.1768 88.7266 23.4375 88.0293 23.4375 87.1328V86.2627L21.9785 86.3242C20.8184 86.3652 19.9805 86.5469 19.4648 86.8691C18.9551 87.1855 18.7002 87.6807 18.7002 88.3545C18.7002 88.8818 18.8584 89.2832 19.1748 89.5586C19.4971 89.834 19.9453 89.9717 20.5195 89.9717ZM32.3057 81.1914C32.7334 81.1914 33.1172 81.2266 33.457 81.2969L33.2549 82.6504C32.8564 82.5625 32.5049 82.5186 32.2002 82.5186C31.4209 82.5186 30.7529 82.835 30.1963 83.4678C29.6455 84.1006 29.3701 84.8887 29.3701 85.832V91H27.9111V81.3672H29.1152L29.2822 83.1514H29.3525C29.71 82.5244 30.1406 82.041 30.6445 81.7012C31.1484 81.3613 31.7021 81.1914 32.3057 81.1914ZM36.7178 91H35.2588V81.3672H36.7178V91ZM35.1357 78.7568C35.1357 78.4229 35.2178 78.1797 35.3818 78.0273C35.5459 77.8691 35.751 77.79 35.9971 77.79C36.2314 77.79 36.4336 77.8691 36.6035 78.0273C36.7734 78.1855 36.8584 78.4287 36.8584 78.7568C36.8584 79.085 36.7734 79.3311 36.6035 79.4951C36.4336 79.6533 36.2314 79.7324 35.9971 79.7324C35.751 79.7324 35.5459 79.6533 35.3818 79.4951C35.2178 79.3311 35.1357 79.085 35.1357 78.7568ZM42.9229 89.9717C43.1807 89.9717 43.4297 89.9541 43.6699 89.9189C43.9102 89.8779 44.1006 89.8369 44.2412 89.7959V90.9121C44.083 90.9883 43.8486 91.0498 43.5381 91.0967C43.2334 91.1494 42.958 91.1758 42.7119 91.1758C40.8486 91.1758 39.917 90.1943 39.917 88.2314V82.501H38.5371V81.7979L39.917 81.1914L40.5322 79.1348H41.376V81.3672H44.1709V82.501H41.376V88.1699C41.376 88.75 41.5137 89.1953 41.7891 89.5059C42.0645 89.8164 42.4424 89.9717 42.9229 89.9717ZM47.5459 81.3672V87.6162C47.5459 88.4014 47.7246 88.9873 48.082 89.374C48.4395 89.7607 48.999 89.9541 49.7607 89.9541C50.7686 89.9541 51.5039 89.6787 51.9668 89.1279C52.4355 88.5771 52.6699 87.6777 52.6699 86.4297V81.3672H54.1289V91H52.9248L52.7139 89.708H52.6348C52.3359 90.1826 51.9199 90.5459 51.3867 90.7979C50.8594 91.0498 50.2559 91.1758 49.5762 91.1758C48.4043 91.1758 47.5254 90.8975 46.9395 90.3408C46.3594 89.7842 46.0693 88.8936 46.0693 87.6689V81.3672H47.5459ZM61.626 81.1914C62.0537 81.1914 62.4375 81.2266 62.7773 81.2969L62.5752 82.6504C62.1768 82.5625 61.8252 82.5186 61.5205 82.5186C60.7412 82.5186 60.0732 82.835 59.5166 83.4678C58.9658 84.1006 58.6904 84.8887 58.6904 85.832V91H57.2314V81.3672H58.4355L58.6025 83.1514H58.6729C59.0303 82.5244 59.4609 82.041 59.9648 81.7012C60.4688 81.3613 61.0225 81.1914 61.626 81.1914ZM68.6484 91.1758C67.2246 91.1758 66.0996 90.7422 65.2734 89.875C64.4531 89.0078 64.043 87.8037 64.043 86.2627C64.043 84.71 64.4238 83.4766 65.1855 82.5625C65.9531 81.6484 66.9814 81.1914 68.2705 81.1914C69.4775 81.1914 70.4326 81.5898 71.1357 82.3867C71.8389 83.1777 72.1904 84.2236 72.1904 85.5244V86.4473H65.5547C65.584 87.5781 65.8682 88.4365 66.4072 89.0225C66.9521 89.6084 67.7168 89.9014 68.7012 89.9014C69.7383 89.9014 70.7637 89.6846 71.7773 89.251V90.5518C71.2617 90.7744 70.7725 90.9326 70.3096 91.0264C69.8525 91.126 69.2988 91.1758 68.6484 91.1758ZM68.2529 82.4131C67.4795 82.4131 66.8613 82.665 66.3984 83.1689C65.9414 83.6729 65.6719 84.3701 65.5898 85.2607H70.626C70.626 84.3408 70.4209 83.6377 70.0107 83.1514C69.6006 82.6592 69.0146 82.4131 68.2529 82.4131ZM89.8389 84.4521C89.8389 86.5732 89.2617 88.1963 88.1074 89.3213C86.959 90.4404 85.3037 91 83.1416 91H79.582V78.1504H83.5195C85.5176 78.1504 87.0703 78.7041 88.1777 79.8115C89.2852 80.9189 89.8389 82.4658 89.8389 84.4521ZM88.2568 84.5049C88.2568 82.8291 87.835 81.5664 86.9912 80.7168C86.1533 79.8672 84.9053 79.4424 83.2471 79.4424H81.0762V89.708H82.8955C84.6768 89.708 86.0156 89.2715 86.9121 88.3984C87.8086 87.5195 88.2568 86.2217 88.2568 84.5049ZM96.5625 91.1758C95.1387 91.1758 94.0137 90.7422 93.1875 89.875C92.3672 89.0078 91.957 87.8037 91.957 86.2627C91.957 84.71 92.3379 83.4766 93.0996 82.5625C93.8672 81.6484 94.8955 81.1914 96.1846 81.1914C97.3916 81.1914 98.3467 81.5898 99.0498 82.3867C99.7529 83.1777 100.104 84.2236 100.104 85.5244V86.4473H93.4688C93.498 87.5781 93.7822 88.4365 94.3213 89.0225C94.8662 89.6084 95.6309 89.9014 96.6152 89.9014C97.6523 89.9014 98.6777 89.6846 99.6914 89.251V90.5518C99.1758 90.7744 98.6865 90.9326 98.2236 91.0264C97.7666 91.126 97.2129 91.1758 96.5625 91.1758ZM96.167 82.4131C95.3936 82.4131 94.7754 82.665 94.3125 83.1689C93.8555 83.6729 93.5859 84.3701 93.5039 85.2607H98.54C98.54 84.3408 98.335 83.6377 97.9248 83.1514C97.5146 82.6592 96.9287 82.4131 96.167 82.4131ZM108.814 88.3721C108.814 89.2686 108.48 89.96 107.812 90.4463C107.145 90.9326 106.207 91.1758 105 91.1758C103.723 91.1758 102.727 90.9736 102.012 90.5693V89.2158C102.475 89.4502 102.97 89.6348 103.497 89.7695C104.03 89.9043 104.543 89.9717 105.035 89.9717C105.797 89.9717 106.383 89.8516 106.793 89.6113C107.203 89.3652 107.408 88.9932 107.408 88.4951C107.408 88.1201 107.244 87.8008 106.916 87.5371C106.594 87.2676 105.961 86.9512 105.018 86.5879C104.121 86.2539 103.482 85.9639 103.102 85.7178C102.727 85.4658 102.445 85.1816 102.258 84.8652C102.076 84.5488 101.985 84.1709 101.985 83.7314C101.985 82.9463 102.305 82.3281 102.943 81.877C103.582 81.4199 104.458 81.1914 105.571 81.1914C106.608 81.1914 107.622 81.4023 108.612 81.8242L108.094 83.0107C107.127 82.6123 106.251 82.4131 105.466 82.4131C104.774 82.4131 104.253 82.5215 103.901 82.7383C103.55 82.9551 103.374 83.2539 103.374 83.6348C103.374 83.8926 103.438 84.1123 103.567 84.2939C103.702 84.4756 103.916 84.6484 104.209 84.8125C104.502 84.9766 105.064 85.2139 105.896 85.5244C107.039 85.9404 107.81 86.3594 108.208 86.7812C108.612 87.2031 108.814 87.7334 108.814 88.3721ZM112.655 91H111.196V81.3672H112.655V91ZM111.073 78.7568C111.073 78.4229 111.155 78.1797 111.319 78.0273C111.483 77.8691 111.688 77.79 111.935 77.79C112.169 77.79 112.371 77.8691 112.541 78.0273C112.711 78.1855 112.796 78.4287 112.796 78.7568C112.796 79.085 112.711 79.3311 112.541 79.4951C112.371 79.6533 112.169 79.7324 111.935 79.7324C111.688 79.7324 111.483 79.6533 111.319 79.4951C111.155 79.3311 111.073 79.085 111.073 78.7568ZM123.633 81.3672V82.29L121.849 82.501C122.013 82.7061 122.159 82.9756 122.288 83.3096C122.417 83.6377 122.481 84.0098 122.481 84.4258C122.481 85.3691 122.159 86.1221 121.515 86.6846C120.87 87.2471 119.985 87.5283 118.86 87.5283C118.573 87.5283 118.304 87.5049 118.052 87.458C117.431 87.7861 117.12 88.1992 117.12 88.6973C117.12 88.9609 117.229 89.1572 117.445 89.2861C117.662 89.4092 118.034 89.4707 118.562 89.4707H120.267C121.31 89.4707 122.109 89.6904 122.666 90.1299C123.229 90.5693 123.51 91.208 123.51 92.0459C123.51 93.1123 123.082 93.9238 122.227 94.4805C121.371 95.043 120.123 95.3242 118.482 95.3242C117.223 95.3242 116.25 95.0898 115.564 94.6211C114.885 94.1523 114.545 93.4902 114.545 92.6348C114.545 92.0488 114.732 91.542 115.107 91.1143C115.482 90.6865 116.01 90.3965 116.689 90.2441C116.443 90.1328 116.235 89.96 116.065 89.7256C115.901 89.4912 115.819 89.2188 115.819 88.9082C115.819 88.5566 115.913 88.249 116.101 87.9854C116.288 87.7217 116.584 87.4668 116.988 87.2207C116.49 87.0156 116.083 86.667 115.767 86.1748C115.456 85.6826 115.301 85.1201 115.301 84.4873C115.301 83.4326 115.617 82.6211 116.25 82.0527C116.883 81.4785 117.779 81.1914 118.939 81.1914C119.443 81.1914 119.897 81.25 120.302 81.3672H123.633ZM115.951 92.6172C115.951 93.1387 116.171 93.5342 116.61 93.8037C117.05 94.0732 117.68 94.208 118.5 94.208C119.725 94.208 120.63 94.0234 121.216 93.6543C121.808 93.291 122.104 92.7959 122.104 92.1689C122.104 91.6475 121.942 91.2842 121.62 91.0791C121.298 90.8799 120.691 90.7803 119.801 90.7803H118.052C117.39 90.7803 116.874 90.9385 116.505 91.2549C116.136 91.5713 115.951 92.0254 115.951 92.6172ZM116.742 84.4521C116.742 85.126 116.933 85.6357 117.313 85.9814C117.694 86.3271 118.225 86.5 118.904 86.5C120.328 86.5 121.04 85.8086 121.04 84.4258C121.04 82.9785 120.319 82.2549 118.878 82.2549C118.192 82.2549 117.665 82.4395 117.296 82.8086C116.927 83.1777 116.742 83.7256 116.742 84.4521ZM132.202 91V84.7686C132.202 83.9834 132.023 83.3975 131.666 83.0107C131.309 82.624 130.749 82.4307 129.987 82.4307C128.979 82.4307 128.241 82.7031 127.772 83.248C127.304 83.793 127.069 84.6924 127.069 85.9463V91H125.61V81.3672H126.797L127.034 82.6855H127.104C127.403 82.2109 127.822 81.8447 128.361 81.5869C128.9 81.3232 129.501 81.1914 130.163 81.1914C131.323 81.1914 132.196 81.4727 132.782 82.0352C133.368 82.5918 133.661 83.4854 133.661 84.7158V91H132.202ZM148.813 87.5811C148.813 88.7119 148.403 89.5938 147.583 90.2266C146.763 90.8594 145.649 91.1758 144.243 91.1758C142.72 91.1758 141.548 90.9795 140.728 90.5869V89.1455C141.255 89.3682 141.829 89.5439 142.45 89.6729C143.071 89.8018 143.687 89.8662 144.296 89.8662C145.292 89.8662 146.042 89.6787 146.546 89.3037C147.05 88.9229 147.302 88.3955 147.302 87.7217C147.302 87.2764 147.211 86.9131 147.029 86.6318C146.854 86.3447 146.555 86.0811 146.133 85.8408C145.717 85.6006 145.081 85.3281 144.226 85.0234C143.03 84.5957 142.175 84.0889 141.659 83.5029C141.149 82.917 140.895 82.1523 140.895 81.209C140.895 80.2188 141.267 79.4307 142.011 78.8447C142.755 78.2588 143.739 77.9658 144.964 77.9658C146.241 77.9658 147.416 78.2002 148.488 78.6689L148.022 79.9697C146.962 79.5244 145.931 79.3018 144.929 79.3018C144.138 79.3018 143.52 79.4717 143.074 79.8115C142.629 80.1514 142.406 80.623 142.406 81.2266C142.406 81.6719 142.488 82.0381 142.652 82.3252C142.816 82.6064 143.092 82.8672 143.479 83.1074C143.871 83.3418 144.469 83.6025 145.271 83.8896C146.619 84.3701 147.545 84.8857 148.049 85.4365C148.559 85.9873 148.813 86.7021 148.813 87.5811ZM149.692 81.3672H151.257L153.366 86.8604C153.829 88.1143 154.116 89.0195 154.228 89.5762H154.298C154.374 89.2773 154.532 88.7676 154.772 88.0469C155.019 87.3203 155.815 85.0938 157.163 81.3672H158.728L154.588 92.3359C154.178 93.4199 153.697 94.1875 153.146 94.6387C152.602 95.0957 151.931 95.3242 151.134 95.3242C150.688 95.3242 150.249 95.2744 149.815 95.1748V94.0059C150.138 94.0762 150.498 94.1113 150.896 94.1113C151.898 94.1113 152.613 93.5488 153.041 92.4238L153.577 91.0527L149.692 81.3672ZM166.506 88.3721C166.506 89.2686 166.172 89.96 165.504 90.4463C164.836 90.9326 163.898 91.1758 162.691 91.1758C161.414 91.1758 160.418 90.9736 159.703 90.5693V89.2158C160.166 89.4502 160.661 89.6348 161.188 89.7695C161.722 89.9043 162.234 89.9717 162.727 89.9717C163.488 89.9717 164.074 89.8516 164.484 89.6113C164.895 89.3652 165.1 88.9932 165.1 88.4951C165.1 88.1201 164.936 87.8008 164.607 87.5371C164.285 87.2676 163.652 86.9512 162.709 86.5879C161.812 86.2539 161.174 85.9639 160.793 85.7178C160.418 85.4658 160.137 85.1816 159.949 84.8652C159.768 84.5488 159.677 84.1709 159.677 83.7314C159.677 82.9463 159.996 82.3281 160.635 81.877C161.273 81.4199 162.149 81.1914 163.263 81.1914C164.3 81.1914 165.313 81.4023 166.304 81.8242L165.785 83.0107C164.818 82.6123 163.942 82.4131 163.157 82.4131C162.466 82.4131 161.944 82.5215 161.593 82.7383C161.241 82.9551 161.065 83.2539 161.065 83.6348C161.065 83.8926 161.13 84.1123 161.259 84.2939C161.394 84.4756 161.607 84.6484 161.9 84.8125C162.193 84.9766 162.756 85.2139 163.588 85.5244C164.73 85.9404 165.501 86.3594 165.899 86.7812C166.304 87.2031 166.506 87.7334 166.506 88.3721ZM171.999 89.9717C172.257 89.9717 172.506 89.9541 172.746 89.9189C172.986 89.8779 173.177 89.8369 173.317 89.7959V90.9121C173.159 90.9883 172.925 91.0498 172.614 91.0967C172.31 91.1494 172.034 91.1758 171.788 91.1758C169.925 91.1758 168.993 90.1943 168.993 88.2314V82.501H167.613V81.7979L168.993 81.1914L169.608 79.1348H170.452V81.3672H173.247V82.501H170.452V88.1699C170.452 88.75 170.59 89.1953 170.865 89.5059C171.141 89.8164 171.519 89.9717 171.999 89.9717ZM179.32 91.1758C177.896 91.1758 176.771 90.7422 175.945 89.875C175.125 89.0078 174.715 87.8037 174.715 86.2627C174.715 84.71 175.096 83.4766 175.857 82.5625C176.625 81.6484 177.653 81.1914 178.942 81.1914C180.149 81.1914 181.104 81.5898 181.808 82.3867C182.511 83.1777 182.862 84.2236 182.862 85.5244V86.4473H176.227C176.256 87.5781 176.54 88.4365 177.079 89.0225C177.624 89.6084 178.389 89.9014 179.373 89.9014C180.41 89.9014 181.436 89.6846 182.449 89.251V90.5518C181.934 90.7744 181.444 90.9326 180.981 91.0264C180.524 91.126 179.971 91.1758 179.32 91.1758ZM178.925 82.4131C178.151 82.4131 177.533 82.665 177.07 83.1689C176.613 83.6729 176.344 84.3701 176.262 85.2607H181.298C181.298 84.3408 181.093 83.6377 180.683 83.1514C180.272 82.6592 179.687 82.4131 178.925 82.4131ZM197.637 91V84.7334C197.637 83.9658 197.473 83.3916 197.145 83.0107C196.816 82.624 196.307 82.4307 195.615 82.4307C194.707 82.4307 194.036 82.6914 193.603 83.2129C193.169 83.7344 192.952 84.5371 192.952 85.6211V91H191.493V84.7334C191.493 83.9658 191.329 83.3916 191.001 83.0107C190.673 82.624 190.16 82.4307 189.463 82.4307C188.549 82.4307 187.878 82.7061 187.45 83.2568C187.028 83.8018 186.817 84.6982 186.817 85.9463V91H185.358V81.3672H186.545L186.782 82.6855H186.853C187.128 82.2168 187.515 81.8506 188.013 81.5869C188.517 81.3232 189.079 81.1914 189.7 81.1914C191.206 81.1914 192.19 81.7363 192.653 82.8262H192.724C193.011 82.3223 193.427 81.9238 193.972 81.6309C194.517 81.3379 195.138 81.1914 195.835 81.1914C196.925 81.1914 197.739 81.4727 198.278 82.0352C198.823 82.5918 199.096 83.4854 199.096 84.7158V91H197.637Z" fill="#333333"/>
</g>
</svg>
