<svg width="148" height="136" viewBox="0 0 148 136" fill="none" xmlns="http://www.w3.org/2000/svg">
<g id="OpenSans_italic" clip-path="url(#clip0)">
<g id="Italic">
<path d="M1.29883 13.5117V3.39453H2.73438V13.5117H1.29883Z" fill="black"/>
<path d="M7.5972 13.6826C6.9136 13.6826 6.3804 13.4867 5.99759 13.0947C5.61478 12.7028 5.42337 12.1582 5.42337 11.4609V7.09961H4.49368V6.08789H5.42337V4.74121L6.77005 4.61133V6.08789H8.71146V7.09961H6.77005V11.2148C6.77005 12.1855 7.18932 12.6709 8.02786 12.6709C8.2056 12.6709 8.42207 12.6413 8.67728 12.582V13.5117C8.26256 13.6257 7.90254 13.6826 7.5972 13.6826Z" fill="black"/>
<path d="M14.4359 12.5684C13.6293 13.3112 12.8523 13.6826 12.1049 13.6826C11.4896 13.6826 10.9792 13.4912 10.5736 13.1084C10.168 12.721 9.96523 12.2334 9.96523 11.6455C9.96523 10.8343 10.3048 10.2122 10.9838 9.7793C11.6674 9.3418 12.6449 9.12305 13.9164 9.12305H14.2377V8.22754C14.2377 7.36621 13.7956 6.93555 12.9115 6.93555C12.2006 6.93555 11.4327 7.1543 10.6078 7.5918V6.47754C11.5147 6.1084 12.3646 5.92383 13.1576 5.92383C13.987 5.92383 14.5977 6.11068 14.9896 6.48438C15.3861 6.85807 15.5844 7.43913 15.5844 8.22754V11.5908C15.5844 12.361 15.8214 12.7461 16.2953 12.7461C16.3546 12.7461 16.4411 12.737 16.5551 12.7188L16.6508 13.4639C16.3454 13.6097 16.0082 13.6826 15.6391 13.6826C15.0102 13.6826 14.6091 13.3112 14.4359 12.5684ZM14.2377 11.8369V9.91602L13.7865 9.90234C13.0482 9.90234 12.4512 10.0436 11.9955 10.3262C11.5398 10.6042 11.3119 10.971 11.3119 11.4268C11.3119 11.7503 11.4258 12.0238 11.6537 12.2471C11.8816 12.4704 12.1596 12.582 12.4877 12.582C13.0482 12.582 13.6316 12.3337 14.2377 11.8369Z" fill="black"/>
<path d="M18.3349 13.5117V2.71777H19.6816V13.5117H18.3349Z" fill="black"/>
<path d="M22.3706 13.5117V6.08789H23.7172V13.5117H22.3706ZM22.3706 4.74121V3.39453H23.7172V4.74121H22.3706Z" fill="black"/>
<path d="M29.3187 13.6826C28.3161 13.6826 27.4844 13.3112 26.8236 12.5684C26.1628 11.8255 25.8324 10.889 25.8324 9.75879C25.8324 8.55111 26.1582 7.61003 26.8099 6.93555C27.4661 6.26107 28.3799 5.92383 29.5511 5.92383C30.1299 5.92383 30.777 6.00358 31.4925 6.16309V7.29102C30.7314 7.06771 30.1116 6.95605 29.6331 6.95605C28.945 6.95605 28.3913 7.21582 27.972 7.73535C27.5573 8.25033 27.3499 8.93848 27.3499 9.7998C27.3499 10.6338 27.5641 11.3083 27.9925 11.8232C28.4209 12.3382 28.9814 12.5957 29.6741 12.5957C30.2894 12.5957 30.9228 12.4385 31.5745 12.124V13.2861C30.7041 13.5505 29.9521 13.6826 29.3187 13.6826Z" fill="black"/>
</g>
<g id="ABCDEFGHIJKLM">
<path d="M12.1455 30.4004H7.78613L5.63281 34.4873H3.97168L10.9941 21.6377H12.5234L14.1406 34.4873H12.6465L12.1455 30.4004ZM11.9873 29.0293L11.6797 26.4014C11.5391 25.3525 11.4541 24.3271 11.4248 23.3252C11.208 23.8408 10.9707 24.3535 10.7129 24.8633C10.4609 25.373 9.73145 26.7617 8.52441 29.0293H11.9873Z" fill="black"/>
<path d="M21.7731 21.6377C24.3044 21.6377 25.57 22.6221 25.57 24.5908C25.57 25.417 25.3151 26.1143 24.8054 26.6826C24.2956 27.251 23.5778 27.6201 22.652 27.79V27.8779C23.3259 28.0654 23.8415 28.3906 24.1989 28.8535C24.5622 29.3105 24.7438 29.8613 24.7438 30.5059C24.7438 31.748 24.2985 32.7236 23.4079 33.4326C22.5173 34.1357 21.3249 34.4873 19.8307 34.4873H15.7614L18.4772 21.6377H21.7731ZM18.82 27.1396H20.9997C21.9138 27.1396 22.6432 26.9258 23.1882 26.498C23.7331 26.0703 24.0056 25.4873 24.0056 24.749C24.0056 24.1396 23.8093 23.6855 23.4167 23.3867C23.03 23.082 22.4177 22.9297 21.5798 22.9297H19.7253L18.82 27.1396ZM17.528 33.2129H19.8659C20.9265 33.2129 21.7409 32.9785 22.3093 32.5098C22.8776 32.0352 23.1618 31.3672 23.1618 30.5059C23.1618 29.8262 22.9421 29.3076 22.5026 28.9502C22.069 28.5869 21.4421 28.4053 20.6218 28.4053H18.5475L17.528 33.2129Z" fill="black"/>
<path d="M34.062 22.7891C33.0425 22.7891 32.1284 23.0732 31.3199 23.6416C30.5171 24.21 29.8784 25.0449 29.4038 26.1465C28.9351 27.2422 28.7007 28.4375 28.7007 29.7324C28.7007 30.8281 28.9849 31.7041 29.5533 32.3604C30.1275 33.0107 30.9156 33.3359 31.9175 33.3359C32.732 33.3359 33.6753 33.1689 34.7476 32.835V34.1445C34.2437 34.3262 33.7632 34.458 33.3062 34.54C32.8491 34.6221 32.2984 34.6631 31.6538 34.6631C30.2359 34.6631 29.1226 34.2266 28.314 33.3535C27.5054 32.4746 27.1011 31.2793 27.1011 29.7676C27.1011 28.2383 27.4087 26.8174 28.024 25.5049C28.645 24.1865 29.4771 23.1816 30.52 22.4902C31.563 21.7988 32.7437 21.4531 34.062 21.4531C35.2163 21.4531 36.2359 21.6875 37.1206 22.1562L36.5142 23.3955C35.7056 22.9912 34.8882 22.7891 34.062 22.7891Z" fill="black"/>
<path d="M47.7414 26.7793C47.7414 28.3086 47.4338 29.6592 46.8186 30.8311C46.2033 32.0029 45.3244 32.9053 44.1819 33.5381C43.0393 34.1709 41.7004 34.4873 40.1653 34.4873H37.0715L39.7873 21.6377H42.7932C44.4104 21.6377 45.6379 22.0771 46.4758 22.9561C47.3195 23.8291 47.7414 25.1035 47.7414 26.7793ZM40.2619 33.1953C41.4455 33.1953 42.4856 32.9287 43.382 32.3955C44.2785 31.8564 44.9641 31.0977 45.4387 30.1191C45.9192 29.1406 46.1594 28.0215 46.1594 26.7617C46.1594 25.502 45.8576 24.5498 45.2541 23.9053C44.6506 23.2549 43.7658 22.9297 42.5998 22.9297H41.0354L38.8381 33.1953H40.2619Z" fill="black"/>
<path d="M55.5233 34.4873H49.0634L51.7792 21.6377H58.2392L57.9579 22.9824H52.9833L52.122 27.1045H56.7538L56.4989 28.4404H51.8495L50.8476 33.1514H55.8134L55.5233 34.4873Z" fill="black"/>
<path d="M59.7896 34.4873H58.2779L60.9937 21.6377H67.4537L67.19 22.9824H62.1978L61.231 27.667H65.8717L65.5904 29.0117H60.941L59.7896 34.4873Z" fill="black"/>
<path d="M73.2493 27.7549H77.2835L75.93 34.0039C74.6643 34.4434 73.4368 34.6631 72.2473 34.6631C70.7005 34.6631 69.4964 34.2412 68.635 33.3975C67.7796 32.5479 67.3518 31.3643 67.3518 29.8467C67.3518 28.2705 67.6477 26.8379 68.2395 25.5488C68.8372 24.2539 69.6634 23.249 70.718 22.5342C71.7727 21.8135 72.9417 21.4531 74.2249 21.4531C74.9104 21.4531 75.552 21.5117 76.1497 21.6289C76.7532 21.7461 77.3596 21.9336 77.969 22.1914L77.3889 23.5273C76.9378 23.3281 76.4514 23.1553 75.93 23.0088C75.4143 22.8623 74.846 22.7891 74.2249 22.7891C73.2346 22.7891 72.3323 23.0879 71.5178 23.6855C70.7093 24.2773 70.0794 25.1064 69.6282 26.1729C69.177 27.2393 68.9514 28.4316 68.9514 29.75C68.9514 30.8633 69.2503 31.7393 69.8479 32.3779C70.4514 33.0166 71.2923 33.3359 72.3704 33.3359C73.2727 33.3359 74.0344 33.2217 74.6555 32.9932L75.4993 29.0908H72.9593L73.2493 27.7549Z" fill="black"/>
<path d="M87.7476 34.4873H86.2799L87.5367 28.4404H81.7359L80.4615 34.4873H78.9674L81.6832 21.6377H83.1773L82.026 27.1045H87.8267L88.9957 21.6377H90.4723L87.7476 34.4873Z" fill="black"/>
<path d="M91.1878 34.4873L93.9212 21.6377H95.3977L92.6643 34.4873H91.1878Z" fill="black"/>
<path d="M93.893 37.8711C93.2778 37.8711 92.8295 37.7979 92.5483 37.6514L92.601 36.3594C93.0053 36.4766 93.4301 36.5352 93.8754 36.5352C94.4614 36.5352 94.9477 36.3506 95.3344 35.9814C95.7153 35.6182 95.9789 35.085 96.1254 34.3818L98.8237 21.6377H100.318L97.602 34.54C97.1391 36.7607 95.9028 37.8711 93.893 37.8711Z" fill="black"/>
<path d="M109.258 34.4873H107.623C107.201 33.4268 106.771 32.375 106.331 31.332C105.898 30.2832 105.47 29.2227 105.048 28.1504L103.519 29.3018L102.42 34.4873H100.926L103.642 21.6377H105.136L103.809 27.8779L109.961 21.6377H111.798L106.182 27.2363L109.258 34.4873Z" fill="black"/>
<path d="M110.965 34.4873L113.681 21.6377H115.175L112.749 33.1338H117.715L117.425 34.4873H110.965Z" fill="black"/>
<path d="M124.695 34.4873L123.236 23.0967H123.166C123.125 23.5186 123.04 24.0986 122.911 24.8369C122.788 25.5693 122.68 26.1523 122.586 26.5859L120.916 34.4873H119.492L122.208 21.6377H124.353L125.662 32.2197H125.741L131.533 21.6377H133.871L131.208 34.4873H129.679C130.417 31.0303 130.982 28.3789 131.375 26.5332C131.768 24.6816 132.043 23.5303 132.201 23.0791H132.148L125.847 34.4873H124.695Z" fill="black"/>
</g>
<g id="NOPQRSTUVWXYZ">
<path d="M15.0107 58.4873H13.4199L9.37695 47.7383H9.32422C9.13672 49.0332 8.91992 50.2578 8.67383 51.4121L7.16211 58.4873H5.73828L8.4541 45.6377H10.0361L14.0703 56.3604H14.123C14.2988 55.0479 14.5098 53.8613 14.7559 52.8008L16.2852 45.6377H17.7266L15.0107 58.4873Z" fill="black"/>
<path d="M30.0418 50.5156C30.0418 52.0918 29.784 53.5039 29.2684 54.752C28.7528 55.9941 28.0145 56.958 27.0536 57.6436C26.0926 58.3232 24.9823 58.6631 23.7225 58.6631C22.2225 58.6631 21.0536 58.2266 20.2157 57.3535C19.3778 56.4746 18.9588 55.2441 18.9588 53.6621C18.9588 52.1152 19.2401 50.7031 19.8026 49.4258C20.3651 48.1484 21.1356 47.1641 22.1141 46.4727C23.0985 45.7812 24.2059 45.4355 25.4364 45.4355C26.8661 45.4355 27.9911 45.8867 28.8114 46.7891C29.6317 47.6914 30.0418 48.9336 30.0418 50.5156ZM25.3221 46.7715C24.4022 46.7715 23.5789 47.0674 22.8524 47.6592C22.1258 48.251 21.5604 49.0742 21.1561 50.1289C20.7577 51.1836 20.5584 52.3496 20.5584 53.627C20.5584 54.793 20.8456 55.7041 21.4198 56.3604C21.994 57.0107 22.7733 57.3359 23.7577 57.3359C24.6483 57.3359 25.4452 57.0518 26.1483 56.4834C26.8573 55.9092 27.4168 55.0889 27.827 54.0225C28.2372 52.9561 28.4422 51.7754 28.4422 50.4805C28.4422 49.3145 28.1668 48.4062 27.6161 47.7559C27.0653 47.0996 26.3006 46.7715 25.3221 46.7715Z" fill="black"/>
<path d="M40.8033 48.9512C40.8033 50.4043 40.3228 51.5146 39.3618 52.2822C38.4009 53.0498 36.9917 53.4336 35.1343 53.4336H33.9478L32.8667 58.4873H31.3726L34.0884 45.6377H36.9888C38.2427 45.6377 39.1919 45.916 39.8365 46.4727C40.481 47.0234 40.8033 47.8496 40.8033 48.9512ZM34.2202 52.1504H35.3892C36.6548 52.1504 37.6158 51.8838 38.272 51.3506C38.9283 50.8174 39.2564 50.0352 39.2564 49.0039C39.2564 48.2715 39.0513 47.7441 38.6411 47.4219C38.2368 47.0938 37.6128 46.9297 36.7691 46.9297H35.3365L34.2202 52.1504Z" fill="black"/>
<path d="M48.4919 46.7715C47.572 46.7715 46.7487 47.0674 46.0222 47.6592C45.2956 48.251 44.7302 49.0742 44.3259 50.1289C43.9274 51.1836 43.7282 52.3496 43.7282 53.627C43.7282 54.793 44.0153 55.7041 44.5895 56.3604C45.1638 57.0107 45.9431 57.3359 46.9274 57.3359C47.8532 57.3359 48.6706 57.043 49.3796 56.457C50.0886 55.8711 50.6364 55.0508 51.0231 53.9961C51.4157 52.9355 51.612 51.7637 51.612 50.4805C51.612 49.3145 51.3366 48.4062 50.7858 47.7559C50.235 47.0996 49.4704 46.7715 48.4919 46.7715ZM47.1823 58.6455L47.0329 58.6631H46.8923C45.3923 58.6631 44.2233 58.2266 43.3854 57.3535C42.5475 56.4746 42.1286 55.2441 42.1286 53.6621C42.1286 52.1152 42.4099 50.7031 42.9724 49.4258C43.5349 48.1484 44.3054 47.1641 45.2839 46.4727C46.2682 45.7812 47.3757 45.4355 48.6061 45.4355C50.0358 45.4355 51.1608 45.8867 51.9811 46.7891C52.8015 47.6914 53.2116 48.9336 53.2116 50.5156C53.2116 52.4668 52.8044 54.1543 51.9899 55.5781C51.1755 57.002 50.0768 57.9424 48.694 58.3994L51.1022 61.5459H49.1774L47.1823 58.6455Z" fill="black"/>
<path d="M57.1703 53.1436L56.0365 58.4873H54.5424L57.2582 45.6377H60.0707C62.684 45.6377 63.9906 46.71 63.9906 48.8545C63.9906 50.8936 62.9125 52.209 60.7562 52.8008L62.8568 58.4873H61.222L59.3851 53.1436H57.1703ZM58.4623 46.9473C57.8646 49.8418 57.5248 51.4795 57.4427 51.8604H58.9193C60.0502 51.8604 60.9203 51.6113 61.5297 51.1133C62.139 50.6152 62.4437 49.9004 62.4437 48.9688C62.4437 48.2598 62.2445 47.7471 61.8461 47.4307C61.4535 47.1084 60.8119 46.9473 59.9213 46.9473H58.4623Z" fill="black"/>
<path d="M72.0554 54.7607C72.0554 55.9971 71.6423 56.958 70.8161 57.6436C69.9958 58.3232 68.8386 58.6631 67.3444 58.6631C66.7233 58.6631 66.1755 58.6191 65.7009 58.5312C65.2321 58.4492 64.7897 58.3086 64.3737 58.1094V56.6152C65.3229 57.1074 66.319 57.3535 67.362 57.3535C68.3112 57.3535 69.0641 57.1338 69.6208 56.6943C70.1774 56.249 70.4557 55.6396 70.4557 54.8662C70.4557 54.4092 70.3005 54.0078 69.9899 53.6621C69.6852 53.3105 69.114 52.8975 68.2761 52.4229C67.3913 51.9248 66.7761 51.4268 66.4304 50.9287C66.0905 50.4307 65.9206 49.8418 65.9206 49.1621C65.9206 48.0664 66.3073 47.1758 67.0807 46.4902C67.8542 45.7988 68.8708 45.4531 70.1306 45.4531C70.7106 45.4531 71.2497 45.5088 71.7477 45.6201C72.2516 45.7314 72.7819 45.9219 73.3386 46.1914L72.7585 47.5098C72.3718 47.2871 71.9382 47.1113 71.4577 46.9824C70.9772 46.8535 70.5349 46.7891 70.1306 46.7891C69.3454 46.7891 68.7126 46.9941 68.2321 47.4043C67.7575 47.8086 67.5202 48.3594 67.5202 49.0566C67.5202 49.373 67.57 49.6455 67.6696 49.874C67.7692 50.0967 67.9274 50.3076 68.1442 50.5068C68.361 50.7061 68.777 50.9844 69.3923 51.3418C70.2536 51.8574 70.8337 52.2617 71.1325 52.5547C71.4372 52.8477 71.6657 53.1729 71.8181 53.5303C71.9763 53.8818 72.0554 54.292 72.0554 54.7607Z" fill="black"/>
<path d="M77.3482 58.4873H75.8365L78.271 46.9648H74.7027L74.9927 45.6377H83.6499L83.3863 46.9648H79.8003L77.3482 58.4873Z" fill="black"/>
<path d="M94.4008 45.6377L92.599 54.1279C92.2767 55.6689 91.6967 56.8115 90.8588 57.5557C90.0267 58.2939 88.89 58.6631 87.4486 58.6631C86.101 58.6631 85.1019 58.3584 84.4515 57.749C83.8011 57.1396 83.476 56.2637 83.476 55.1211C83.476 54.6465 83.5463 54.0576 83.6869 53.3545L85.348 45.6377H86.8422L85.1635 53.4688C85.0345 54.0898 84.9701 54.6406 84.9701 55.1211C84.9701 55.8066 85.184 56.3486 85.6117 56.7471C86.0394 57.1396 86.6781 57.3359 87.5277 57.3359C88.5355 57.3359 89.3177 57.0811 89.8744 56.5713C90.4369 56.0557 90.847 55.2061 91.1049 54.0225L92.9066 45.6377H94.4008Z" fill="black"/>
<path d="M98.405 56.7559C98.7624 55.9121 99.237 54.9219 99.8288 53.7852L104.039 45.6377H105.717L98.8532 58.4873H97.2712L95.8474 45.6377H97.3415L98.194 53.8115C98.3112 54.96 98.3698 55.9414 98.3698 56.7559H98.405Z" fill="black"/>
<path d="M115.102 58.4873H113.608L113.178 50.0059C113.131 49.209 113.107 48.3828 113.107 47.5273H113.055C112.908 47.9492 112.729 48.4033 112.518 48.8896C112.307 49.3701 110.831 52.5693 108.089 58.4873H106.559L106.014 45.6377H107.509L107.781 53.5566L107.799 54.3301C107.799 54.9043 107.769 55.6602 107.711 56.5977H107.764C108.285 55.1738 108.742 54.0518 109.135 53.2314L112.694 45.6377H114.259L114.637 53.1963C114.689 54.0928 114.716 54.9834 114.716 55.8682L114.707 56.5977H114.786C115.225 55.2852 115.609 54.248 115.937 53.4863L119.339 45.6377H120.938L115.102 58.4873Z" fill="black"/>
<path d="M127.804 58.4873H126.222L124.35 52.8535L120.123 58.4873H118.488L123.726 51.667L121.415 45.6377H122.926L124.711 50.5859L128.604 45.6377H130.239L125.361 51.7373L127.804 58.4873Z" fill="black"/>
<path d="M133.475 52.2031L137.773 45.6377H139.469L133.959 53.7324L132.965 58.4873H131.454L132.5 53.6621L130.408 45.6377H131.902L133.475 52.2031Z" fill="black"/>
<path d="M145.585 58.4873H137.666L137.912 57.2832L146.033 47H140.276L140.557 45.6377H148.098L147.87 46.8594L139.749 57.1338H145.875L145.585 58.4873Z" fill="black"/>
</g>
<g id="abcdefghijklm">
<path d="M10.6162 72.6787C11.1553 72.6787 11.6357 72.8252 12.0576 73.1182C12.4795 73.4053 12.8076 73.8213 13.042 74.3662H13.1387L13.7275 72.8545H14.8438L12.7959 82.4873H11.627L11.8555 80.6504H11.7852C10.7363 81.9922 9.63184 82.6631 8.47168 82.6631C7.65723 82.6631 7.01855 82.373 6.55566 81.793C6.09277 81.2129 5.86133 80.4189 5.86133 79.4111C5.86133 78.1924 6.06934 77.0615 6.48535 76.0186C6.90137 74.9756 7.47559 74.1582 8.20801 73.5664C8.94043 72.9746 9.74316 72.6787 10.6162 72.6787ZM8.94629 81.4414C9.51465 81.4414 10.0801 81.1719 10.6426 80.6328C11.2051 80.0879 11.6621 79.3818 12.0137 78.5146C12.3652 77.6416 12.541 76.7686 12.541 75.8955C12.541 75.292 12.377 74.8115 12.0488 74.4541C11.7207 74.0967 11.29 73.918 10.7568 73.918C10.1475 73.918 9.5791 74.1699 9.05176 74.6738C8.53027 75.1777 8.12012 75.8604 7.82129 76.7217C7.52246 77.583 7.37305 78.4912 7.37305 79.4463C7.37305 80.1143 7.51074 80.6152 7.78613 80.9492C8.06152 81.2773 8.44824 81.4414 8.94629 81.4414Z" fill="black"/>
<path d="M19.966 82.6631C19.3976 82.6631 18.8966 82.5137 18.463 82.2148C18.0353 81.916 17.713 81.5088 17.4962 80.9932H17.4084L16.7931 82.4873H15.6945L18.5949 68.8115H20.0714C19.7726 70.2295 19.5412 71.3164 19.3771 72.0723C19.2189 72.8223 18.9992 73.7012 18.7179 74.709H18.797C19.342 74.0176 19.8781 73.5107 20.4054 73.1885C20.9386 72.8604 21.4865 72.6963 22.049 72.6963C22.8752 72.6963 23.5197 72.9863 23.9826 73.5664C24.4455 74.1465 24.6769 74.9434 24.6769 75.957C24.6769 77.1816 24.4748 78.3154 24.0705 79.3584C23.672 80.3955 23.1125 81.207 22.3918 81.793C21.6769 82.373 20.8683 82.6631 19.966 82.6631ZM21.6007 73.918C21.0382 73.918 20.464 74.1963 19.8781 74.7529C19.298 75.3096 18.8351 76.0098 18.4894 76.8535C18.1496 77.6973 17.9796 78.5615 17.9796 79.4463C17.9796 80.0908 18.1408 80.5859 18.463 80.9316C18.7912 81.2715 19.2628 81.4414 19.8781 81.4414C20.4582 81.4414 20.9972 81.2041 21.4953 80.7295C21.9992 80.2549 22.4035 79.5811 22.7082 78.708C23.0128 77.8291 23.1652 76.8975 23.1652 75.9131C23.1652 74.583 22.6437 73.918 21.6007 73.918Z" fill="black"/>
<path d="M30.0137 82.6631C28.877 82.6631 27.9951 82.3496 27.3682 81.7227C26.7412 81.0957 26.4277 80.2109 26.4277 79.0684C26.4277 77.8965 26.6445 76.8154 27.0781 75.8252C27.5117 74.835 28.1094 74.0645 28.8711 73.5137C29.6387 72.957 30.5 72.6787 31.4551 72.6787C32.2578 72.6787 33.043 72.8281 33.8105 73.127L33.3975 74.3662C32.6943 74.0674 32.0527 73.918 31.4727 73.918C30.8164 73.918 30.2158 74.1436 29.6709 74.5947C29.1318 75.04 28.707 75.6641 28.3965 76.4668C28.0918 77.2637 27.9395 78.1309 27.9395 79.0684C27.9395 79.8184 28.1328 80.4014 28.5195 80.8174C28.9121 81.2334 29.4512 81.4414 30.1367 81.4414C30.5586 81.4414 30.957 81.3828 31.332 81.2656C31.707 81.1484 32.0762 81.0107 32.4395 80.8525V82.1094C31.7129 82.4785 30.9043 82.6631 30.0137 82.6631Z" fill="black"/>
<path d="M39.2897 72.6963C40.4265 72.6963 41.2497 73.2529 41.7595 74.3662H41.8474C41.947 73.458 42.0788 72.6553 42.2429 71.958L42.9284 68.8115H44.3874L41.487 82.4873H40.2653L40.4587 80.6504H40.3884C39.7966 81.3828 39.2429 81.9014 38.7272 82.2061C38.2116 82.5107 37.6784 82.6631 37.1276 82.6631C36.3132 82.6631 35.6774 82.376 35.2204 81.8018C34.7634 81.2275 34.5348 80.4307 34.5348 79.4111C34.5348 78.1572 34.7458 77.0088 35.1677 75.9658C35.5895 74.9229 36.1579 74.1172 36.8727 73.5488C37.5934 72.9805 38.3991 72.6963 39.2897 72.6963ZM37.6198 81.4414C38.1706 81.4414 38.739 81.1689 39.3249 80.624C39.9108 80.0732 40.3737 79.373 40.7136 78.5234C41.0593 77.668 41.2321 76.7979 41.2321 75.9131C41.2321 75.2627 41.0739 74.7676 40.7575 74.4277C40.4411 74.0879 39.9811 73.918 39.3776 73.918C38.7858 73.918 38.235 74.1611 37.7253 74.6475C37.2214 75.1279 36.8141 75.8076 36.5036 76.6865C36.1989 77.5596 36.0466 78.4795 36.0466 79.4463C36.0466 80.7764 36.571 81.4414 37.6198 81.4414Z" fill="black"/>
<path d="M48.3882 82.6631C47.3101 82.6631 46.4634 82.3438 45.8482 81.7051C45.2329 81.0664 44.9253 80.1816 44.9253 79.0508C44.9253 77.9492 45.1421 76.8945 45.5757 75.8867C46.0152 74.873 46.5952 74.085 47.3159 73.5225C48.0367 72.96 48.8306 72.6787 49.6978 72.6787C50.5943 72.6787 51.2681 72.875 51.7193 73.2676C52.1704 73.6543 52.396 74.1963 52.396 74.8936C52.396 75.9482 51.9097 76.7773 50.937 77.3809C49.9644 77.9785 48.5728 78.2773 46.7622 78.2773H46.4722L46.437 78.9805C46.437 79.748 46.6158 80.3486 46.9732 80.7822C47.3365 81.21 47.896 81.4238 48.6519 81.4238C49.021 81.4238 49.399 81.3711 49.7857 81.2656C50.1783 81.1602 50.6646 80.9668 51.2447 80.6855V81.9688C50.6939 82.2266 50.2076 82.4053 49.7857 82.5049C49.3638 82.6104 48.898 82.6631 48.3882 82.6631ZM49.6099 73.9355C49.0064 73.9355 48.438 74.2109 47.9048 74.7617C47.3775 75.3125 46.9732 76.0771 46.6919 77.0557H46.7974C48.1333 77.0557 49.1558 76.8828 49.8648 76.5371C50.5796 76.1855 50.937 75.6787 50.937 75.0166C50.937 74.7061 50.8286 74.4482 50.6118 74.2432C50.4009 74.0381 50.0669 73.9355 49.6099 73.9355Z" fill="black"/>
<path d="M52.0305 86.8115C51.6262 86.8115 51.26 86.75 50.9319 86.627V85.3877C51.3069 85.5166 51.635 85.5811 51.9162 85.5811C52.3615 85.5811 52.7043 85.3994 52.9445 85.0361C53.1848 84.6729 53.3781 84.1543 53.5246 83.4805L55.5197 73.9707H53.8235L53.9377 73.3818L55.7483 72.8018L55.9504 71.9229C56.2199 70.751 56.592 69.9248 57.0666 69.4443C57.5471 68.958 58.2561 68.7148 59.1936 68.7148C59.4279 68.7148 59.7151 68.75 60.0549 68.8203C60.3947 68.8848 60.6584 68.958 60.8459 69.04L60.468 70.1738C60.0227 70.0039 59.6213 69.9189 59.2639 69.9189C58.7541 69.9189 58.3615 70.0625 58.0861 70.3496C57.8166 70.6309 57.5969 71.1494 57.427 71.9053L57.2072 72.8545H59.299L59.0793 73.9707H56.9963L54.9572 83.6211C54.7287 84.7285 54.3772 85.5371 53.9026 86.0469C53.4279 86.5566 52.8039 86.8115 52.0305 86.8115Z" fill="black"/>
<path d="M68.2533 72.8545L68.0336 73.7949L66.1791 74.0059C66.4193 74.3691 66.5394 74.832 66.5394 75.3945C66.5394 76.5137 66.1967 77.4072 65.5111 78.0752C64.8314 78.7373 63.9203 79.0684 62.7777 79.0684C62.4554 79.0684 62.2093 79.0449 62.0394 78.998C61.225 79.3086 60.8177 79.6924 60.8177 80.1494C60.8177 80.3896 60.9144 80.5508 61.1078 80.6328C61.3011 80.709 61.5824 80.7705 61.9515 80.8174L62.9799 80.9404C64.0404 81.0693 64.808 81.3271 65.2826 81.7139C65.7631 82.1006 66.0033 82.6689 66.0033 83.4189C66.0033 84.4971 65.5756 85.332 64.7201 85.9238C63.8646 86.5156 62.6605 86.8115 61.1078 86.8115C59.9711 86.8115 59.0804 86.5947 58.4359 86.1611C57.7914 85.7334 57.4691 85.127 57.4691 84.3418C57.4691 83.7266 57.68 83.1934 58.1019 82.7422C58.5238 82.291 59.2064 81.9072 60.1498 81.5908C59.6927 81.3506 59.4642 80.9961 59.4642 80.5273C59.4642 80.123 59.6136 79.7773 59.9125 79.4902C60.2113 79.1973 60.6273 78.9248 61.1605 78.6729C60.7914 78.4854 60.4896 78.21 60.2552 77.8467C60.0209 77.4775 59.9037 77.0498 59.9037 76.5635C59.9037 75.4268 60.2523 74.4951 60.9496 73.7686C61.6527 73.042 62.5492 72.6787 63.639 72.6787C64.0961 72.6787 64.5472 72.7373 64.9925 72.8545H68.2533ZM58.8929 84.2012C58.8929 84.6523 59.0834 85.0098 59.4642 85.2734C59.8451 85.5371 60.4105 85.6689 61.1605 85.6689C62.2269 85.6689 63.059 85.4814 63.6566 85.1064C64.2601 84.7373 64.5619 84.2129 64.5619 83.5332C64.5619 83.1699 64.4037 82.8828 64.0873 82.6719C63.7709 82.4609 63.2318 82.3145 62.4701 82.2324L61.0726 82.0918C60.3695 82.2383 59.8304 82.4961 59.4554 82.8652C59.0804 83.2344 58.8929 83.6797 58.8929 84.2012ZM61.3363 76.5107C61.3363 77.0088 61.4681 77.3896 61.7318 77.6533C61.9955 77.9111 62.3617 78.04 62.8304 78.04C63.2933 78.04 63.6976 77.917 64.0433 77.6709C64.389 77.4248 64.6527 77.0879 64.8343 76.6602C65.0218 76.2266 65.1156 75.7578 65.1156 75.2539C65.1156 74.7734 64.9867 74.4072 64.7289 74.1553C64.4711 73.9033 64.1019 73.7773 63.6215 73.7773C63.1644 73.7773 62.7631 73.8975 62.4174 74.1377C62.0775 74.3721 61.8109 74.7031 61.6175 75.1309C61.43 75.5527 61.3363 76.0127 61.3363 76.5107Z" fill="black"/>
<path d="M74.0083 82.4873L75.3091 76.4053C75.4146 75.8545 75.4673 75.459 75.4673 75.2188C75.4673 74.3516 75.0367 73.918 74.1753 73.918C73.6538 73.918 73.1441 74.0908 72.646 74.4365C72.1538 74.7822 71.7173 75.2861 71.3365 75.9482C70.9615 76.6045 70.6773 77.3984 70.4839 78.3301L69.5962 82.4873H68.1197L71.0201 68.8115H72.4966C72.3911 69.292 72.2886 69.7578 72.189 70.209C72.0952 70.6602 71.9956 71.1201 71.8902 71.5889C71.7906 72.0518 71.6792 72.5381 71.5562 73.0479C71.439 73.5576 71.3013 74.1113 71.1431 74.709H71.2398C71.7906 73.9883 72.3326 73.4727 72.8658 73.1621C73.4048 72.8516 73.9673 72.6963 74.5533 72.6963C75.3208 72.6963 75.9126 72.9072 76.3286 73.3291C76.7505 73.751 76.9615 74.3486 76.9615 75.1221C76.9615 75.4854 76.8941 75.9717 76.7593 76.5811C76.5308 77.7119 76.106 79.6807 75.4849 82.4873H74.0083Z" fill="black"/>
<path d="M79.9867 82.4873H78.5101L80.5668 72.8545H82.0433L79.9867 82.4873ZM80.9799 70.3936C80.9799 70.0654 81.0736 69.7988 81.2611 69.5938C81.4486 69.3828 81.6918 69.2773 81.9906 69.2773C82.5062 69.2773 82.764 69.541 82.764 70.0684C82.764 70.3906 82.6644 70.6631 82.4652 70.8857C82.2719 71.1084 82.0463 71.2197 81.7885 71.2197C81.5541 71.2197 81.3607 71.1494 81.2084 71.0088C81.056 70.8623 80.9799 70.6572 80.9799 70.3936Z" fill="black"/>
<path d="M81.3736 86.8115C80.9693 86.8115 80.6089 86.75 80.2925 86.627V85.3877C80.6499 85.5166 80.9986 85.5811 81.3384 85.5811C82.0708 85.5811 82.563 84.9805 82.815 83.7793L85.1353 72.8545H86.5943L84.2564 83.9111C84.0454 84.9131 83.7085 85.6455 83.2456 86.1084C82.7886 86.5771 82.1646 86.8115 81.3736 86.8115ZM85.5484 70.3936C85.5484 70.0654 85.6421 69.7988 85.8296 69.5938C86.0171 69.3828 86.2603 69.2773 86.5591 69.2773C87.063 69.2773 87.315 69.541 87.315 70.0684C87.315 70.3906 87.2154 70.6631 87.0161 70.8857C86.8228 71.1084 86.5972 71.2197 86.3394 71.2197C86.1167 71.2197 85.9292 71.1494 85.7769 71.0088C85.6245 70.8623 85.5484 70.6572 85.5484 70.3936Z" fill="black"/>
<path d="M90.029 77.5742L94.652 72.8545H96.4186L92.2966 76.959L94.8893 82.4873H93.2458L91.1804 77.8818L89.8444 78.9629L89.1237 82.4873H87.6296L90.53 68.8115H92.0241C91.6022 70.7803 91.2243 72.5439 90.8903 74.1025C90.5563 75.6611 90.2575 76.8184 89.9938 77.5742H90.029Z" fill="black"/>
<path d="M97.8916 82.4873H96.415L99.333 68.8115H100.81L97.8916 82.4873Z" fill="black"/>
<path d="M106.6 82.4873L107.901 76.4053C108.006 75.8545 108.059 75.459 108.059 75.2188C108.059 74.8086 107.968 74.4893 107.786 74.2607C107.605 74.0322 107.294 73.918 106.855 73.918C106.362 73.918 105.882 74.0938 105.413 74.4453C104.95 74.7969 104.54 75.3008 104.183 75.957C103.831 76.6074 103.559 77.3926 103.365 78.3125L102.478 82.4873H101.001L103.058 72.8545H104.279L104.086 74.6387H104.174C104.684 73.9414 105.191 73.4404 105.694 73.1357C106.204 72.8311 106.729 72.6787 107.268 72.6787C107.93 72.6787 108.44 72.8691 108.797 73.25C109.154 73.6309 109.365 74.1611 109.43 74.8408H109.5C110.004 74.1084 110.54 73.5664 111.109 73.2148C111.677 72.8574 112.251 72.6787 112.831 72.6787C113.575 72.6787 114.15 72.8779 114.554 73.2764C114.964 73.6748 115.169 74.2549 115.169 75.0166C115.169 75.415 115.105 75.9365 114.976 76.5811L113.71 82.4873H112.216L113.517 76.4053C113.634 75.7959 113.693 75.3682 113.693 75.1221C113.693 74.7588 113.59 74.4688 113.385 74.252C113.186 74.0293 112.869 73.918 112.436 73.918C111.961 73.918 111.492 74.0879 111.029 74.4277C110.567 74.7676 110.159 75.251 109.808 75.8779C109.462 76.499 109.198 77.2373 109.017 78.0928L108.076 82.4873H106.6Z" fill="black"/>
</g>
<g id="nopqrstuvwxyz">
<path d="M11.4072 106.487L12.708 100.405C12.8252 99.7959 12.8838 99.374 12.8838 99.1396C12.8838 98.7705 12.7783 98.4746 12.5674 98.252C12.3623 98.0293 12.0312 97.918 11.5742 97.918C11.0527 97.918 10.543 98.0938 10.0449 98.4453C9.55273 98.7969 9.11621 99.2979 8.73535 99.9482C8.36035 100.599 8.07617 101.387 7.88281 102.312L6.99512 106.487H5.51855L7.5752 96.8545H8.79688L8.60352 98.6387H8.69141C9.25391 97.9238 9.7959 97.4199 10.3174 97.127C10.8447 96.8281 11.3896 96.6787 11.9521 96.6787C12.6963 96.6787 13.2822 96.8838 13.71 97.2939C14.1436 97.6982 14.3604 98.2666 14.3604 98.999C14.3604 99.4619 14.293 99.9893 14.1582 100.581L12.9014 106.487H11.4072Z" fill="black"/>
<path d="M21.0418 96.7314C22.1551 96.7314 23.034 97.0625 23.6786 97.7246C24.3231 98.3809 24.6454 99.2861 24.6454 100.44C24.6454 101.542 24.4344 102.582 24.0125 103.561C23.5907 104.539 23.0194 105.295 22.2987 105.828C21.578 106.361 20.7635 106.628 19.8553 106.628C18.7303 106.628 17.8485 106.297 17.2098 105.635C16.5711 104.973 16.2518 104.067 16.2518 102.919C16.2518 101.806 16.4657 100.76 16.8934 99.7812C17.3211 98.7969 17.8983 98.0439 18.6248 97.5225C19.3514 96.9951 20.1571 96.7314 21.0418 96.7314ZM23.1161 100.238C23.1161 99.5645 22.9315 99.0195 22.5623 98.6035C22.1991 98.1816 21.7039 97.9707 21.077 97.9707C20.4383 97.9707 19.8641 98.1875 19.3543 98.6211C18.8504 99.0547 18.4579 99.6582 18.1766 100.432C17.9012 101.199 17.7635 102.055 17.7635 102.998C17.7635 103.766 17.9481 104.36 18.3172 104.782C18.6922 105.198 19.2284 105.406 19.9256 105.406C20.535 105.406 21.0829 105.192 21.5692 104.765C22.0555 104.337 22.4334 103.73 22.703 102.945C22.9784 102.154 23.1161 101.252 23.1161 100.238Z" fill="black"/>
<path d="M30.2897 106.663C29.7214 106.663 29.2233 106.517 28.7956 106.224C28.3679 105.931 28.0368 105.521 27.8024 104.993H27.7145L27.6794 105.327C27.6618 105.474 27.6296 105.679 27.5827 105.942C27.5417 106.206 27.2077 107.829 26.5807 110.812H25.1218L28.0749 96.8545H29.2966L29.0681 98.6914H29.1384C30.1872 97.3613 31.277 96.6963 32.4079 96.6963C33.2106 96.6963 33.8434 96.9834 34.3063 97.5576C34.7692 98.126 35.0007 98.9258 35.0007 99.957C35.0007 101.199 34.7985 102.339 34.3942 103.376C33.9899 104.413 33.4304 105.222 32.7155 105.802C32.0007 106.376 31.1921 106.663 30.2897 106.663ZM31.9245 97.918C31.362 97.918 30.7878 98.1963 30.2018 98.7529C29.6218 99.3096 29.1589 100.01 28.8132 100.854C28.4733 101.697 28.3034 102.562 28.3034 103.446C28.3034 104.091 28.4645 104.586 28.7868 104.932C29.1149 105.271 29.5866 105.441 30.2018 105.441C30.7819 105.441 31.321 105.204 31.819 104.729C32.3229 104.255 32.7272 103.581 33.0319 102.708C33.3366 101.829 33.489 100.897 33.489 99.9131C33.489 98.583 32.9675 97.918 31.9245 97.918Z" fill="black"/>
<path d="M41.524 96.6787C42.0747 96.6787 42.5581 96.8281 42.9742 97.127C43.396 97.4199 43.7154 97.833 43.9322 98.3662H44.0464L44.6353 96.8545H45.7339L42.7808 110.812H41.3218L42.2095 106.593C42.2622 106.329 42.4292 105.682 42.7105 104.65H42.6402C42.0835 105.359 41.5415 105.872 41.0142 106.188C40.4868 106.505 39.9419 106.663 39.3794 106.663C38.5591 106.663 37.9146 106.379 37.4458 105.811C36.9829 105.236 36.7515 104.437 36.7515 103.411C36.7515 102.169 36.9624 101.021 37.3843 99.9658C37.812 98.9111 38.3863 98.0996 39.107 97.5312C39.8335 96.9629 40.6392 96.6787 41.524 96.6787ZM39.8365 105.441C40.3755 105.441 40.9322 105.172 41.5064 104.633C42.0806 104.094 42.5435 103.399 42.8951 102.55C43.2525 101.7 43.4312 100.821 43.4312 99.9131C43.4312 99.2979 43.2701 98.8115 42.9478 98.4541C42.6314 98.0967 42.1861 97.918 41.6118 97.918C41.0201 97.918 40.4663 98.167 39.9507 98.665C39.4351 99.1572 39.0249 99.8398 38.7202 100.713C38.4156 101.58 38.2632 102.491 38.2632 103.446C38.2632 104.776 38.7876 105.441 39.8365 105.441Z" fill="black"/>
<path d="M52.89 96.6787C53.2943 96.6787 53.6459 96.7197 53.9447 96.8018L53.6283 98.1201C53.3177 98.0439 53.0101 98.0059 52.7054 98.0059C52.1722 98.0059 51.6713 98.1816 51.2025 98.5332C50.7396 98.8848 50.3324 99.374 49.9808 100.001C49.6351 100.622 49.3802 101.313 49.2162 102.075L48.2758 106.487H46.7992L48.8558 96.8545H50.0775L49.8842 98.6387H49.972C50.3939 98.082 50.7425 97.6836 51.0179 97.4434C51.2933 97.1973 51.5804 97.0098 51.8793 96.8809C52.184 96.7461 52.5209 96.6787 52.89 96.6787Z" fill="black"/>
<path d="M59.8791 103.754C59.8791 104.668 59.5539 105.383 58.9035 105.898C58.259 106.408 57.3479 106.663 56.1701 106.663C55.1799 106.663 54.2863 106.461 53.4895 106.057V104.668C53.8996 104.914 54.342 105.104 54.8166 105.239C55.2912 105.374 55.7307 105.441 56.135 105.441C56.8733 105.441 57.4299 105.295 57.8049 105.002C58.1799 104.709 58.3674 104.334 58.3674 103.877C58.3674 103.543 58.2649 103.262 58.0598 103.033C57.8547 102.805 57.4123 102.491 56.7326 102.093C55.9709 101.665 55.4319 101.246 55.1154 100.836C54.799 100.426 54.6408 99.9395 54.6408 99.377C54.6408 98.5684 54.9367 97.918 55.5285 97.4258C56.1203 96.9277 56.8996 96.6787 57.8664 96.6787C58.8684 96.6787 59.8352 96.8955 60.7668 97.3291L60.2922 98.5332L59.8 98.3135C59.2082 98.0615 58.5637 97.9355 57.8664 97.9355C57.3215 97.9355 56.8938 98.0645 56.5832 98.3223C56.2727 98.5742 56.1174 98.9023 56.1174 99.3066C56.1174 99.6348 56.2199 99.916 56.425 100.15C56.636 100.385 57.0666 100.687 57.717 101.056C58.344 101.407 58.7922 101.709 59.0617 101.961C59.3371 102.213 59.5422 102.485 59.677 102.778C59.8117 103.065 59.8791 103.391 59.8791 103.754Z" fill="black"/>
<path d="M64.6112 105.459C64.9335 105.459 65.3554 105.383 65.8769 105.23V106.364C65.6776 106.446 65.4315 106.517 65.1386 106.575C64.8456 106.634 64.6112 106.663 64.4355 106.663C63.703 106.663 63.1405 106.49 62.748 106.145C62.3612 105.793 62.1679 105.271 62.1679 104.58C62.1679 104.193 62.2206 103.754 62.3261 103.262L63.4423 97.9707H61.9306L62.0536 97.3291L63.6796 96.6436L64.7782 94.6396H65.6396L65.1562 96.8545H67.5644L67.3358 97.9707H64.9364L63.8026 103.279C63.6972 103.789 63.6444 104.176 63.6444 104.439C63.6444 104.768 63.7294 105.02 63.8993 105.195C64.0692 105.371 64.3065 105.459 64.6112 105.459Z" fill="black"/>
<path d="M70.943 96.8545L69.6246 102.963C69.5191 103.484 69.4664 103.892 69.4664 104.185C69.4664 105.022 69.8971 105.441 70.7584 105.441C71.274 105.441 71.7809 105.266 72.2789 104.914C72.7769 104.562 73.2164 104.059 73.5973 103.402C73.9781 102.746 74.2682 101.955 74.4674 101.029L75.3463 96.8545H76.8053L74.775 106.487H73.5533L73.7467 104.703H73.6412C73.067 105.436 72.5191 105.945 71.9977 106.232C71.4762 106.52 70.9371 106.663 70.3805 106.663C69.6305 106.663 69.0416 106.461 68.6139 106.057C68.1861 105.646 67.9723 105.063 67.9723 104.308C67.9723 103.944 68.0367 103.44 68.1656 102.796L69.4488 96.8545H70.943Z" fill="black"/>
<path d="M79.3295 106.487L78.2309 96.8545H79.7075L80.27 102.242C80.4106 103.754 80.4809 104.814 80.4809 105.424H80.5336C81.2778 103.812 81.8022 102.726 82.1069 102.163L84.9633 96.8545H86.5278L81.3334 106.487H79.3295Z" fill="black"/>
<path d="M92.9859 106.487L92.7047 101.196C92.6812 100.646 92.6695 100.142 92.6695 99.6846V98.3135H92.5904L92.151 99.3506L91.4215 101.012L88.8639 106.487H87.0885L86.7105 96.8545H88.1519L88.3101 102.075V102.849C88.3101 103.71 88.2867 104.498 88.2398 105.213H88.2926C88.568 104.486 88.9693 103.543 89.4967 102.383L92.0894 96.8545H93.689L94.0142 102.075C94.0494 103.06 94.067 103.827 94.067 104.378V104.844L94.0494 105.213H94.1021C94.2662 104.709 94.5094 104.07 94.8316 103.297C95.1539 102.518 96.1002 100.37 97.6705 96.8545H99.2349L94.7877 106.487H92.9859Z" fill="black"/>
<path d="M102.685 102.673L99.6444 106.487H97.9306L102.105 101.521L100.005 96.8545H101.499L103.028 100.476L105.929 96.8545H107.634L103.635 101.592L105.85 106.487H104.373L102.685 102.673Z" fill="black"/>
<path d="M108.057 96.8545H109.534L110.184 101.645C110.243 102.049 110.299 102.646 110.351 103.438C110.41 104.223 110.439 104.855 110.439 105.336H110.492C110.697 104.826 110.952 104.24 111.257 103.578C111.561 102.916 111.787 102.459 111.933 102.207L114.79 96.8545H116.354L110.237 108.122C109.692 109.13 109.153 109.83 108.62 110.223C108.087 110.615 107.445 110.812 106.695 110.812C106.273 110.812 105.863 110.75 105.465 110.627V109.44C105.834 109.546 106.218 109.599 106.616 109.599C107.096 109.599 107.507 109.449 107.846 109.15C108.192 108.857 108.526 108.421 108.848 107.841L109.516 106.646L108.057 96.8545Z" fill="black"/>
<path d="M121.573 106.487H115.254L115.456 105.459L121.556 97.9531H117.346L117.583 96.8545H123.357L123.102 98.085L117.126 105.389H121.793L121.573 106.487Z" fill="black"/>
</g>
<g id="1234567890">
<path d="M10.168 130.487H8.65625L10.3789 122.463C10.7246 120.934 10.9824 119.882 11.1523 119.308C10.8594 119.618 10.4521 119.943 9.93066 120.283L8.36621 121.25L7.66309 120.134L11.6094 117.638H12.9189L10.168 130.487Z" fill="black"/>
<path d="M22.9207 130.487H15.0193L15.2918 129.195L19.3787 125.504C19.9764 124.959 20.492 124.481 20.9256 124.071C21.365 123.655 21.7254 123.266 22.0066 122.902C22.2937 122.533 22.5047 122.17 22.6394 121.812C22.7801 121.449 22.8504 121.048 22.8504 120.608C22.8504 120.028 22.6746 119.568 22.323 119.229C21.9715 118.889 21.4939 118.719 20.8904 118.719C20.4393 118.719 19.9969 118.804 19.5633 118.974C19.1355 119.138 18.6609 119.419 18.1394 119.817L17.4187 118.807C18.5379 117.904 19.7478 117.453 21.0486 117.453C22.0799 117.453 22.8943 117.714 23.492 118.235C24.0955 118.751 24.3973 119.463 24.3973 120.371C24.3973 121.021 24.2801 121.619 24.0457 122.164C23.8172 122.709 23.4334 123.286 22.8943 123.896C22.3611 124.505 21.4998 125.328 20.3103 126.365L17.2166 129.063V129.134H23.1756L22.9207 130.487Z" fill="black"/>
<path d="M34.2584 120.301C34.2584 121.215 33.9625 121.991 33.3707 122.63C32.7789 123.263 31.9586 123.673 30.9098 123.86V123.939C31.6363 124.074 32.2076 124.388 32.6236 124.88C33.0396 125.366 33.2476 125.976 33.2476 126.708C33.2476 127.487 33.066 128.176 32.7027 128.773C32.3394 129.365 31.8092 129.828 31.1119 130.162C30.4146 130.496 29.5855 130.663 28.6246 130.663C27.3941 130.663 26.2662 130.432 25.2408 129.969V128.527C25.7916 128.814 26.3746 129.037 26.9898 129.195C27.6051 129.348 28.1617 129.424 28.6598 129.424C29.609 129.424 30.3473 129.192 30.8746 128.729C31.4019 128.261 31.6656 127.622 31.6656 126.813C31.6656 126.046 31.4342 125.466 30.9713 125.073C30.5084 124.675 29.8639 124.476 29.0377 124.476H27.8863L28.1588 123.219H29.3805C30.3473 123.219 31.15 122.964 31.7887 122.454C32.4273 121.944 32.7467 121.279 32.7467 120.459C32.7467 119.92 32.5767 119.492 32.2369 119.176C31.8971 118.859 31.4371 118.701 30.857 118.701C30.3883 118.701 29.9283 118.78 29.4771 118.938C29.026 119.097 28.5133 119.369 27.9391 119.756L27.2359 118.719C28.3785 117.875 29.6207 117.453 30.9625 117.453C32.0113 117.453 32.8228 117.708 33.3971 118.218C33.9713 118.728 34.2584 119.422 34.2584 120.301Z" fill="black"/>
<path d="M44.1195 127.552H42.0717L41.4389 130.487H39.9974L40.6478 127.552H34.8822L35.1371 126.163L42.4672 117.567H44.1898L42.3705 126.207H44.4096L44.1195 127.552ZM40.9379 126.207C41.2074 124.918 41.4359 123.825 41.6234 122.929C41.8109 122.032 42.1508 120.729 42.643 119.018H42.5726C42.473 119.188 42.2767 119.472 41.9838 119.87C41.6967 120.263 41.4857 120.544 41.351 120.714L36.6664 126.207H40.9379Z" fill="black"/>
<path d="M49.9113 122.639C50.9777 122.639 51.8244 122.946 52.4513 123.562C53.0842 124.171 53.4006 124.997 53.4006 126.04C53.4006 126.983 53.1867 127.812 52.759 128.527C52.3312 129.242 51.7336 129.778 50.966 130.136C50.1984 130.487 49.2961 130.663 48.259 130.663C47.1281 130.663 46.1613 130.432 45.3586 129.969V128.527C46.3195 129.125 47.298 129.424 48.2941 129.424C49.4133 129.424 50.2863 129.143 50.9133 128.58C51.5402 128.018 51.8537 127.232 51.8537 126.225C51.8537 125.486 51.6369 124.903 51.2033 124.476C50.7756 124.042 50.1779 123.825 49.4103 123.825C49.1291 123.825 48.8449 123.846 48.5578 123.887C48.2707 123.922 47.8635 124.01 47.3361 124.15L46.6857 123.649L48.4172 117.638H54.2883L53.9982 118.982H49.4103L48.2941 122.841C48.8039 122.706 49.3429 122.639 49.9113 122.639Z" fill="black"/>
<path d="M55.7383 126.761C55.7383 125.536 55.914 124.32 56.2656 123.113C56.623 121.906 57.1035 120.878 57.707 120.028C58.3105 119.173 59.0312 118.531 59.8691 118.104C60.707 117.67 61.665 117.453 62.7431 117.453C63.3935 117.453 63.9326 117.521 64.3603 117.655L64.0527 118.93C63.6543 118.801 63.1562 118.736 62.5586 118.736C61.3164 118.736 60.2705 119.173 59.4209 120.046C58.5771 120.919 57.956 122.217 57.5576 123.939H57.6279C57.9736 123.477 58.4013 123.107 58.9111 122.832C59.4267 122.557 59.9951 122.419 60.6162 122.419C61.5185 122.419 62.2334 122.709 62.7607 123.289C63.2881 123.863 63.5517 124.654 63.5517 125.662C63.5517 126.605 63.3554 127.47 62.9629 128.255C62.5761 129.034 62.0488 129.632 61.3808 130.048C60.7129 130.458 59.9482 130.663 59.0869 130.663C58.0205 130.663 57.1943 130.326 56.6084 129.652C56.0283 128.979 55.7383 128.015 55.7383 126.761ZM59.2451 129.424C59.7959 129.424 60.2851 129.266 60.7129 128.949C61.1465 128.633 61.4804 128.196 61.7148 127.64C61.9551 127.083 62.0752 126.474 62.0752 125.812C62.0752 124.358 61.4277 123.632 60.1328 123.632C59.7461 123.632 59.3711 123.717 59.0078 123.887C58.6445 124.051 58.3222 124.273 58.041 124.555C57.7597 124.83 57.5488 125.135 57.4082 125.469C57.2676 125.803 57.1972 126.257 57.1972 126.831C57.1972 127.634 57.373 128.267 57.7246 128.729C58.082 129.192 58.5888 129.424 59.2451 129.424Z" fill="black"/>
<path d="M66.0125 130.487L72.7625 118.947H66.4431L66.7156 117.638H74.5466L74.3093 118.859L67.5945 130.487H66.0125Z" fill="black"/>
<path d="M80.9097 117.436C81.9293 117.436 82.7232 117.69 83.2916 118.2C83.8658 118.704 84.1529 119.393 84.1529 120.266C84.1529 121.021 83.9244 121.681 83.4673 122.243C83.0103 122.806 82.231 123.321 81.1295 123.79C81.8736 124.247 82.4009 124.73 82.7115 125.24C83.022 125.75 83.1773 126.342 83.1773 127.016C83.1773 127.73 83.0015 128.369 82.65 128.932C82.2984 129.488 81.7916 129.916 81.1295 130.215C80.4732 130.514 79.6998 130.663 78.8091 130.663C77.6959 130.663 76.8228 130.376 76.19 129.802C75.5572 129.222 75.2408 128.437 75.2408 127.446C75.2408 126.579 75.5191 125.829 76.0757 125.196C76.6324 124.563 77.4996 124.024 78.6773 123.579C78.1207 123.175 77.7222 122.753 77.482 122.313C77.2476 121.868 77.1304 121.364 77.1304 120.802C77.1304 120.151 77.2886 119.571 77.605 119.062C77.9273 118.546 78.3785 118.147 78.9586 117.866C79.5386 117.579 80.189 117.436 80.9097 117.436ZM79.7408 124.335C78.6568 124.687 77.8892 125.108 77.438 125.601C76.9927 126.087 76.7701 126.679 76.7701 127.376C76.7701 128.003 76.9722 128.501 77.3765 128.87C77.7808 129.239 78.3111 129.424 78.9673 129.424C79.7818 129.424 80.4322 129.207 80.9185 128.773C81.4048 128.34 81.648 127.766 81.648 127.051C81.648 126.471 81.4957 125.961 81.191 125.521C80.8863 125.082 80.4029 124.687 79.7408 124.335ZM80.8043 118.701C80.1363 118.701 79.6031 118.895 79.2047 119.281C78.8062 119.662 78.607 120.175 78.607 120.819C78.607 121.3 78.7213 121.722 78.9498 122.085C79.1783 122.448 79.5504 122.788 80.066 123.104C81.0093 122.753 81.6773 122.369 82.0699 121.953C82.4625 121.531 82.6588 121.021 82.6588 120.424C82.6588 119.896 82.4888 119.478 82.149 119.167C81.815 118.856 81.3668 118.701 80.8043 118.701Z" fill="black"/>
<path d="M93.6888 121.399C93.6888 122.536 93.5248 123.729 93.1966 124.977C92.8685 126.219 92.4349 127.273 91.8959 128.141C91.3627 129.002 90.7152 129.638 89.9535 130.048C89.1918 130.458 88.307 130.663 87.2992 130.663C86.5023 130.663 85.7933 130.563 85.1722 130.364V128.976C85.9574 129.251 86.6781 129.389 87.3343 129.389C88.5179 129.389 89.4759 128.976 90.2084 128.149C90.9408 127.323 91.4945 126.031 91.8695 124.273H91.7816C91.4828 124.713 91.0931 125.062 90.6127 125.319C90.138 125.571 89.6107 125.697 89.0306 125.697C88.0404 125.697 87.2757 125.41 86.7367 124.836C86.1976 124.256 85.9281 123.409 85.9281 122.296C85.9281 121.399 86.1156 120.579 86.4906 119.835C86.8714 119.085 87.3988 118.502 88.0726 118.086C88.7523 117.664 89.514 117.453 90.3578 117.453C91.4125 117.453 92.2298 117.79 92.8099 118.464C93.3959 119.132 93.6888 120.11 93.6888 121.399ZM90.305 118.701C89.4261 118.701 88.7201 119.032 88.1869 119.694C87.6537 120.356 87.3871 121.206 87.3871 122.243C87.3871 122.97 87.5453 123.526 87.8617 123.913C88.1839 124.3 88.6615 124.493 89.2943 124.493C89.7396 124.493 90.1498 124.411 90.5248 124.247C90.8998 124.077 91.2162 123.837 91.474 123.526C91.7377 123.216 91.9281 122.882 92.0453 122.524C92.1683 122.167 92.2298 121.725 92.2298 121.197C92.2298 120.43 92.057 119.823 91.7113 119.378C91.3656 118.927 90.8968 118.701 90.305 118.701Z" fill="black"/>
<path d="M103.822 121.575C103.822 123.304 103.591 124.883 103.128 126.312C102.671 127.742 102.044 128.826 101.247 129.564C100.456 130.297 99.5363 130.663 98.4875 130.663C97.4562 130.663 96.6652 130.291 96.1144 129.547C95.5636 128.797 95.2882 127.713 95.2882 126.295C95.2882 124.713 95.5285 123.207 96.0089 121.777C96.4894 120.342 97.1222 119.261 97.9074 118.534C98.6984 117.802 99.6007 117.436 100.614 117.436C102.753 117.436 103.822 118.815 103.822 121.575ZM100.527 118.701C99.8644 118.701 99.2521 119.041 98.6896 119.721C98.1271 120.395 97.6701 121.341 97.3185 122.56C96.9728 123.772 96.8 125.012 96.8 126.277C96.8 127.285 96.9464 128.059 97.2394 128.598C97.5324 129.137 98.0041 129.406 98.6544 129.406C99.3283 129.406 99.9406 129.072 100.491 128.404C101.042 127.736 101.482 126.775 101.81 125.521C102.144 124.268 102.311 122.94 102.311 121.54C102.311 119.647 101.716 118.701 100.527 118.701Z" fill="black"/>
</g>
</g>
<defs>
<clipPath id="clip0">
<rect width="148" height="134.976" fill="white" transform="translate(0 0.511719)"/>
</clipPath>
</defs>
</svg>
