<svg width="175" height="136" viewBox="0 0 175 136" fill="none" xmlns="http://www.w3.org/2000/svg">
<g id="OpenSans_extrabold">
<g id="ExtraBold">
<path d="M1.30566 13.5117V3.39453H6.95898V4.46777H2.74121V7.71484H6.27539V8.77441H2.74121V12.4385H7.25293V13.5117H1.30566Z" fill="black"/>
<path d="M8.17845 13.5117L11.0017 9.67676L8.26048 6.08789H9.86009L12.0271 8.94531L13.989 6.08789H15.3015L12.7312 9.85449L15.5271 13.5117H13.9275L11.6921 10.5723L9.53197 13.5117H8.17845Z" fill="black"/>
<path d="M19.741 13.6826C19.0574 13.6826 18.5242 13.4867 18.1414 13.0947C17.7586 12.7028 17.5672 12.1582 17.5672 11.4609V7.09961H16.6375V6.08789H17.5672V4.74121L18.9139 4.61133V6.08789H20.8553V7.09961H18.9139V11.2148C18.9139 12.1855 19.3331 12.6709 20.1717 12.6709C20.3494 12.6709 20.5659 12.6413 20.8211 12.582V13.5117C20.4064 13.6257 20.0464 13.6826 19.741 13.6826Z" fill="black"/>
<path d="M22.7518 13.5117V6.08789H24.0985V7.48242C24.6317 6.44336 25.4065 5.92383 26.4227 5.92383C26.5595 5.92383 26.703 5.93522 26.8534 5.95801V7.21582C26.621 7.13835 26.4159 7.09961 26.2382 7.09961C25.386 7.09961 24.6727 7.60547 24.0985 8.61719V13.5117H22.7518Z" fill="black"/>
<path d="M32.2975 12.5684C31.4908 13.3112 30.7138 13.6826 29.9664 13.6826C29.3512 13.6826 28.8408 13.4912 28.4352 13.1084C28.0296 12.721 27.8268 12.2334 27.8268 11.6455C27.8268 10.8343 28.1663 10.2122 28.8453 9.7793C29.5289 9.3418 30.5065 9.12305 31.7779 9.12305H32.0992V8.22754C32.0992 7.36621 31.6572 6.93555 30.7731 6.93555C30.0621 6.93555 29.2942 7.1543 28.4694 7.5918V6.47754C29.3763 6.1084 30.2262 5.92383 31.0192 5.92383C31.8486 5.92383 32.4593 6.11068 32.8512 6.48438C33.2477 6.85807 33.4459 7.43913 33.4459 8.22754V11.5908C33.4459 12.361 33.6829 12.7461 34.1569 12.7461C34.2161 12.7461 34.3027 12.737 34.4166 12.7188L34.5123 13.4639C34.207 13.6097 33.8697 13.6826 33.5006 13.6826C32.8717 13.6826 32.4707 13.3112 32.2975 12.5684ZM32.0992 11.8369V9.91602L31.6481 9.90234C30.9098 9.90234 30.3128 10.0436 29.857 10.3262C29.4013 10.6042 29.1735 10.971 29.1735 11.4268C29.1735 11.7503 29.2874 12.0238 29.5152 12.2471C29.7431 12.4704 30.0211 12.582 30.3492 12.582C30.9098 12.582 31.4931 12.3337 32.0992 11.8369Z" fill="black"/>
<path d="M36.1556 13.5117V3.39453H38.7806C39.7923 3.39453 40.5671 3.58594 41.1048 3.96875C41.6472 4.35156 41.9183 4.90299 41.9183 5.62305C41.9183 6.84896 41.2256 7.72168 39.8402 8.24121C41.4945 8.74707 42.3216 9.66081 42.3216 10.9824C42.3216 11.8027 42.0482 12.4294 41.5013 12.8623C40.9544 13.2952 40.166 13.5117 39.1361 13.5117H36.1556ZM37.5775 12.4385H37.8714C38.9242 12.4385 39.6055 12.3724 39.9154 12.2402C40.5078 11.9896 40.8041 11.5247 40.8041 10.8457C40.8041 10.2441 40.5352 9.74512 39.9974 9.34863C39.4597 8.94759 38.7875 8.74707 37.9808 8.74707H37.5775V12.4385ZM37.5775 7.83789H38.0355C38.8011 7.83789 39.3936 7.67383 39.8128 7.3457C40.2367 7.01758 40.4486 6.55501 40.4486 5.95801C40.4486 4.96452 39.6784 4.46777 38.138 4.46777H37.5775V7.83789Z" fill="black"/>
<path d="M47.1576 13.6826C46.0958 13.6826 45.2481 13.3317 44.6147 12.6299C43.9812 11.9235 43.6645 10.9801 43.6645 9.7998C43.6645 8.60579 43.9812 7.66243 44.6147 6.96973C45.2527 6.27246 46.1163 5.92383 47.2055 5.92383C48.2947 5.92383 49.156 6.27246 49.7895 6.96973C50.4275 7.66243 50.7465 8.60124 50.7465 9.78613C50.7465 10.9984 50.4275 11.9508 49.7895 12.6436C49.1515 13.3363 48.2742 13.6826 47.1576 13.6826ZM47.1782 12.6709C48.6046 12.6709 49.3178 11.7093 49.3178 9.78613C49.3178 7.88574 48.6137 6.93555 47.2055 6.93555C45.8018 6.93555 45.1 7.8903 45.1 9.7998C45.1 11.7139 45.7927 12.6709 47.1782 12.6709Z" fill="black"/>
<path d="M52.841 13.5117V2.71777H54.1877V13.5117H52.841Z" fill="black"/>
<path d="M61.6415 13.5117V12.1172C61.0946 13.1608 60.2698 13.6826 59.1669 13.6826C58.2737 13.6826 57.5696 13.3568 57.0546 12.7051C56.5442 12.0534 56.289 11.1624 56.289 10.0322C56.289 8.7972 56.5783 7.80371 57.1571 7.05176C57.7405 6.2998 58.5061 5.92383 59.454 5.92383C60.3336 5.92383 61.0627 6.26107 61.6415 6.93555V2.71777H62.995V13.5117H61.6415ZM61.6415 7.8584C60.9442 7.24316 60.2834 6.93555 59.6591 6.93555C58.3694 6.93555 57.7245 7.9222 57.7245 9.89551C57.7245 11.6318 58.2987 12.5 59.4472 12.5C60.1946 12.5 60.926 12.0921 61.6415 11.2764V7.8584Z" fill="black"/>
</g>
<g id="ABCDEFGHIJKLM">
<path d="M14.2725 34.4873L13.6396 32.0791H9.46484L8.81445 34.4873H5L9.19238 21.585H13.8242L18.0693 34.4873H14.2725ZM12.9189 29.2314L12.3652 27.1221C12.2363 26.6533 12.0781 26.0469 11.8906 25.3027C11.709 24.5586 11.5889 24.0254 11.5303 23.7031C11.4775 24.002 11.3721 24.4941 11.2139 25.1797C11.0615 25.8652 10.7188 27.2158 10.1855 29.2314H12.9189Z" fill="black"/>
<path d="M19.4686 21.6377H23.951C25.6971 21.6377 26.992 21.8984 27.8358 22.4199C28.6854 22.9355 29.1102 23.7412 29.1102 24.8369C29.1102 25.5576 28.9256 26.1729 28.5565 26.6826C28.1873 27.1924 27.701 27.5205 27.0975 27.667V27.7549C27.8944 27.9658 28.4715 28.3174 28.8289 28.8096C29.1864 29.3018 29.3651 29.9404 29.3651 30.7256C29.3651 31.8916 28.9256 32.8115 28.0467 33.4854C27.1737 34.1533 25.9813 34.4873 24.4696 34.4873H19.4686V21.6377ZM22.9403 26.5684H23.9862C24.4842 26.5684 24.868 26.4658 25.1375 26.2607C25.4129 26.0557 25.5506 25.751 25.5506 25.3467C25.5506 24.626 25.0057 24.2656 23.9159 24.2656H22.9403V26.5684ZM22.9403 29.1084V31.8066H24.162C25.2459 31.8066 25.7879 31.3496 25.7879 30.4355C25.7879 30.0078 25.6414 29.6797 25.3485 29.4512C25.0614 29.2227 24.6424 29.1084 24.0916 29.1084H22.9403Z" fill="black"/>
<path d="M37.3156 24.3008C36.4894 24.3008 35.8449 24.6406 35.382 25.3203C34.9191 25.9941 34.6877 26.9258 34.6877 28.1152C34.6877 30.5879 35.6281 31.8242 37.5089 31.8242C38.0773 31.8242 38.6281 31.7451 39.1613 31.5869C39.6945 31.4287 40.2306 31.2383 40.7697 31.0156V33.9512C39.6974 34.4258 38.4845 34.6631 37.131 34.6631C35.1916 34.6631 33.7033 34.1006 32.6662 32.9756C31.6349 31.8506 31.1193 30.2246 31.1193 28.0977C31.1193 26.7676 31.3683 25.5986 31.8664 24.5908C32.3703 23.583 33.091 22.8096 34.0285 22.2705C34.9718 21.7256 36.0793 21.4531 37.3507 21.4531C38.7394 21.4531 40.0666 21.7549 41.3322 22.3584L40.2687 25.0918C39.7941 24.8691 39.3195 24.6816 38.8449 24.5293C38.3703 24.377 37.8605 24.3008 37.3156 24.3008Z" fill="black"/>
<path d="M54.1888 27.79C54.1888 29.9346 53.597 31.5869 52.4134 32.7471C51.2357 33.9072 49.5775 34.4873 47.4388 34.4873H43.2816V21.6377H47.7288C49.7913 21.6377 51.3821 22.165 52.5013 23.2197C53.6263 24.2744 54.1888 25.7979 54.1888 27.79ZM50.5853 27.9131C50.5853 26.7354 50.3509 25.8623 49.8821 25.2939C49.4193 24.7256 48.7132 24.4414 47.764 24.4414H46.7532V31.6396H47.5267C48.5814 31.6396 49.3548 31.335 49.847 30.7256C50.3392 30.1104 50.5853 29.1729 50.5853 27.9131Z" fill="black"/>
<path d="M64.1274 34.4873H56.4985V21.6377H64.1274V24.4238H59.9702V26.4453H63.8198V29.2314H59.9702V31.6572H64.1274V34.4873Z" fill="black"/>
<path d="M69.7928 34.4873H66.3738V21.6377H73.9676V24.4238H69.7928V26.876H73.6424V29.6621H69.7928V34.4873Z" fill="black"/>
<path d="M81.2379 26.9639H86.7838V33.8896C85.278 34.4053 83.6227 34.6631 81.818 34.6631C79.8375 34.6631 78.3053 34.0889 77.2213 32.9404C76.1432 31.792 75.6041 30.1543 75.6041 28.0273C75.6041 25.9531 76.1959 24.3389 77.3795 23.1846C78.5631 22.0303 80.2213 21.4531 82.3541 21.4531C83.1627 21.4531 83.9244 21.5293 84.6393 21.6816C85.36 21.834 85.9869 22.0273 86.5201 22.2617L85.4215 24.9863C84.4957 24.5293 83.4791 24.3008 82.3717 24.3008C81.358 24.3008 80.5729 24.6318 80.0162 25.2939C79.4655 25.9502 79.1901 26.8906 79.1901 28.1152C79.1901 29.3164 79.4391 30.2334 79.9371 30.8662C80.441 31.4932 81.1647 31.8066 82.108 31.8066C82.6237 31.8066 83.0983 31.7568 83.5319 31.6572V29.6445H81.2379V26.9639Z" fill="black"/>
<path d="M100.419 34.4873H96.93V29.249H92.8958V34.4873H89.4066V21.6377H92.8958V26.4014H96.93V21.6377H100.419V34.4873Z" fill="black"/>
<path d="M103.207 34.4873V21.6377H106.696V34.4873H103.207Z" fill="black"/>
<path d="M108.474 38.5215C107.841 38.5215 107.24 38.46 106.672 38.3369V35.6387C106.859 35.6738 107.059 35.7119 107.27 35.7529C107.48 35.7998 107.709 35.8232 107.955 35.8232C108.529 35.8232 108.939 35.6504 109.186 35.3047C109.432 34.959 109.555 34.3672 109.555 33.5293V21.6377H113.044V33.2305C113.044 34.9707 112.663 36.2861 111.901 37.1768C111.14 38.0732 109.997 38.5215 108.474 38.5215Z" fill="black"/>
<path d="M126.809 34.4873H122.889L120.349 29.5742L119.321 30.1895V34.4873H115.832V21.6377H119.321V27.2188C119.497 26.873 119.851 26.3252 120.385 25.5752L123.083 21.6377H126.88L122.828 27.3945L126.809 34.4873Z" fill="black"/>
<path d="M128.209 34.4873V21.6377H131.68V31.6836H136.629V34.4873H128.209Z" fill="black"/>
<path d="M144.286 34.4873L141.658 25.2324H141.579C141.702 26.8086 141.763 28.0332 141.763 28.9062V34.4873H138.687V21.6377H143.31L145.991 30.7607H146.061L148.689 21.6377H153.321V34.4873H150.13V28.8535C150.13 28.5605 150.133 28.2354 150.139 27.8779C150.151 27.5205 150.192 26.6445 150.262 25.25H150.183L147.59 34.4873H144.286Z" fill="black"/>
</g>
<g id="NOPQRSTUVWXYZ">
<path d="M18.623 58.4873H14.0703L9.37695 49.4346H9.29785C9.40918 50.8584 9.46484 51.9453 9.46484 52.6953V58.4873H6.38867V45.6377H10.9238L15.5996 54.5674H15.6523C15.5703 53.2725 15.5293 52.2324 15.5293 51.4473V45.6377H18.623V58.4873Z" fill="black"/>
<path d="M33.4238 52.0449C33.4238 54.207 32.8936 55.8506 31.833 56.9756C30.7725 58.1006 29.2197 58.6631 27.1748 58.6631C25.1592 58.6631 23.6123 58.0977 22.5342 56.9668C21.4619 55.8359 20.9258 54.1895 20.9258 52.0273C20.9258 49.8887 21.459 48.2568 22.5254 47.1318C23.5977 46.001 25.1533 45.4355 27.1924 45.4355C29.2373 45.4355 30.7871 45.9951 31.8418 47.1143C32.8965 48.2334 33.4238 49.877 33.4238 52.0449ZM24.582 52.0449C24.582 54.5293 25.4463 55.7715 27.1748 55.7715C28.0537 55.7715 28.7041 55.4697 29.126 54.8662C29.5537 54.2627 29.7676 53.3223 29.7676 52.0449C29.7676 50.7617 29.5508 49.8154 29.1172 49.2061C28.6895 48.5908 28.0479 48.2832 27.1924 48.2832C25.4521 48.2832 24.582 49.5371 24.582 52.0449Z" fill="black"/>
<path d="M45.0675 49.7246C45.0675 51.1602 44.6427 52.2705 43.7931 53.0557C42.9494 53.835 41.7482 54.2246 40.1896 54.2246H39.214V58.4873H35.7423V45.6377H40.1896C41.8127 45.6377 43.0314 45.9922 43.8459 46.7012C44.6603 47.4102 45.0675 48.418 45.0675 49.7246ZM39.214 51.3945H39.8468C40.3683 51.3945 40.7814 51.248 41.0861 50.9551C41.3966 50.6621 41.5519 50.2578 41.5519 49.7422C41.5519 48.875 41.0714 48.4414 40.1105 48.4414H39.214V51.3945Z" fill="black"/>
<path d="M59.1352 52.0449C59.1352 54.957 58.2094 56.9199 56.3579 57.9336L59.4956 61.5459H55.1714L52.9038 58.6895L52.895 58.6807V58.6719L52.8862 58.6631C50.8706 58.6631 49.3237 58.0977 48.2456 56.9668C47.1733 55.8359 46.6372 54.1895 46.6372 52.0273C46.6372 49.8887 47.1704 48.2568 48.2368 47.1318C49.3091 46.001 50.8647 45.4355 52.9038 45.4355C54.9487 45.4355 56.4985 45.9951 57.5532 47.1143C58.6079 48.2334 59.1352 49.877 59.1352 52.0449ZM50.2934 52.0449C50.2934 54.5293 51.1577 55.7715 52.8862 55.7715C53.7651 55.7715 54.4155 55.4697 54.8374 54.8662C55.2651 54.2627 55.479 53.3223 55.479 52.0449C55.479 50.7617 55.2622 49.8154 54.8286 49.2061C54.4008 48.5908 53.7592 48.2832 52.9038 48.2832C51.1635 48.2832 50.2934 49.5371 50.2934 52.0449Z" fill="black"/>
<path d="M64.9254 53.8115V58.4873H61.4537V45.6377H65.6637C69.1559 45.6377 70.902 46.9033 70.902 49.4346C70.902 50.9229 70.1754 52.0742 68.7223 52.8887L72.4664 58.4873H68.5289L65.8043 53.8115H64.9254ZM64.9254 51.2012H65.5758C66.7887 51.2012 67.3951 50.665 67.3951 49.5928C67.3951 48.708 66.8004 48.2656 65.611 48.2656H64.9254V51.2012Z" fill="black"/>
<path d="M82.0341 54.585C82.0341 55.3818 81.832 56.0908 81.4277 56.7119C81.0234 57.3271 80.4404 57.8076 79.6786 58.1533C78.9169 58.4932 78.0234 58.6631 76.998 58.6631C76.1425 58.6631 75.4247 58.6045 74.8447 58.4873C74.2646 58.3643 73.6611 58.1533 73.0341 57.8545V54.7607C73.6962 55.1006 74.3847 55.3672 75.0995 55.5605C75.8144 55.748 76.4706 55.8418 77.0683 55.8418C77.5839 55.8418 77.9619 55.7539 78.2021 55.5781C78.4423 55.3965 78.5624 55.165 78.5624 54.8838C78.5624 54.708 78.5126 54.5557 78.413 54.4268C78.3193 54.292 78.164 54.1572 77.9472 54.0225C77.7363 53.8877 77.1679 53.6123 76.2421 53.1963C75.4042 52.8154 74.7744 52.4463 74.3525 52.0889C73.9365 51.7314 73.6259 51.3213 73.4208 50.8584C73.2216 50.3955 73.122 49.8477 73.122 49.2148C73.122 48.0312 73.5527 47.1084 74.414 46.4463C75.2753 45.7842 76.4589 45.4531 77.9648 45.4531C79.2949 45.4531 80.6513 45.7607 82.0341 46.376L80.9706 49.0566C79.7695 48.5059 78.7324 48.2305 77.8593 48.2305C77.4081 48.2305 77.08 48.3096 76.8749 48.4678C76.6699 48.626 76.5673 48.8223 76.5673 49.0566C76.5673 49.3086 76.6962 49.5342 76.954 49.7334C77.2177 49.9326 77.9267 50.2959 79.081 50.8232C80.1884 51.3213 80.956 51.8574 81.3837 52.4316C81.8173 53 82.0341 53.7178 82.0341 54.585Z" fill="black"/>
<path d="M89.6912 58.4873H86.2195V48.4766H83.0818V45.6377H92.8201V48.4766H89.6912V58.4873Z" fill="black"/>
<path d="M105.578 45.6377V53.3721C105.578 55.0537 105.101 56.3574 104.146 57.2832C103.196 58.2031 101.825 58.6631 100.032 58.6631C98.2804 58.6631 96.9327 58.2148 95.9893 57.3184C95.0518 56.4219 94.5831 55.1328 94.5831 53.4512V45.6377H98.0724V53.1787C98.0724 54.0869 98.2423 54.7461 98.5821 55.1562C98.922 55.5664 99.4229 55.7715 100.085 55.7715C100.794 55.7715 101.307 55.5693 101.623 55.165C101.945 54.7549 102.107 54.0869 102.107 53.1611V45.6377H105.578Z" fill="black"/>
<path d="M115.489 45.6377H119.373L115.163 58.4873H111.077L106.884 45.6377H110.787L112.536 52.1504C112.899 53.5977 113.098 54.6055 113.133 55.1738C113.174 54.7637 113.256 54.251 113.379 53.6357C113.502 53.0205 113.611 52.5371 113.705 52.1855L115.489 45.6377Z" fill="black"/>
<path d="M134.645 58.4873H130.541L129.31 52.8887C129.252 52.6543 129.158 52.1885 129.029 51.4912C128.906 50.7939 128.815 50.2109 128.757 49.7422C128.71 50.123 128.634 50.5977 128.528 51.166C128.423 51.7285 128.317 52.2471 128.212 52.7217C128.112 53.1963 127.687 55.1182 126.937 58.4873H122.833L119.651 45.6377H123L124.397 52.0801C124.714 53.5039 124.93 54.6377 125.048 55.4814C125.124 54.8838 125.259 54.0723 125.452 53.0469C125.651 52.0215 125.836 51.1719 126.006 50.498L127.139 45.6377H130.356L131.455 50.498C131.642 51.2773 131.833 52.1768 132.026 53.1963C132.219 54.2158 132.348 54.9775 132.413 55.4814C132.489 54.8311 132.697 53.7031 133.037 52.0977L134.461 45.6377H137.809L134.645 58.4873Z" fill="black"/>
<path d="M151.047 58.4873H147.031L144.526 54.4707L142.047 58.4873H138.119L142.381 51.9131L138.374 45.6377H142.223L144.544 49.6104L146.776 45.6377H150.74L146.67 52.1855L151.047 58.4873Z" fill="black"/>
<path d="M157.087 50.4014L159.302 45.6377H163.064L158.836 53.4688V58.4873H155.338V53.5742L151.111 45.6377H154.89L157.087 50.4014Z" fill="black"/>
<path d="M173.613 58.4873H163.602V56.3428L169.165 48.4414H163.734V45.6377H173.472V47.7734L167.908 55.6836H173.613V58.4873Z" fill="black"/>
</g>
<g id="abcdefghijklm">
<path d="M12.6816 82.4873L12.0225 81.1689H11.9521C11.4893 81.7432 11.0176 82.1357 10.5371 82.3467C10.0566 82.5576 9.43555 82.6631 8.67383 82.6631C7.73633 82.6631 6.99805 82.3818 6.45898 81.8193C5.91992 81.2568 5.65039 80.4658 5.65039 79.4463C5.65039 78.3857 6.01953 77.5977 6.75781 77.082C7.49609 76.5605 8.56543 76.2676 9.96582 76.2031L11.627 76.1504V76.0098C11.627 75.1895 11.2227 74.7793 10.4141 74.7793C9.6875 74.7793 8.76465 75.0254 7.64551 75.5176L6.65234 73.25C7.8125 72.6523 9.27734 72.3535 11.0469 72.3535C12.3242 72.3535 13.3115 72.6699 14.0088 73.3027C14.7119 73.9355 15.0635 74.8203 15.0635 75.957V82.4873H12.6816ZM10.1328 80.2373C10.5488 80.2373 10.9033 80.1055 11.1963 79.8418C11.4951 79.5781 11.6445 79.2354 11.6445 78.8135V78.04L10.8535 78.0752C9.72266 78.1162 9.15723 78.5322 9.15723 79.3232C9.15723 79.9326 9.48242 80.2373 10.1328 80.2373Z" fill="black"/>
<path d="M23.4834 72.3535C24.5674 72.3535 25.4258 72.8076 26.0586 73.7158C26.6973 74.624 27.0166 75.8809 27.0166 77.4863C27.0166 79.1035 26.6943 80.3721 26.0498 81.292C25.4111 82.2061 24.5205 82.6631 23.3779 82.6631C23.0088 82.6631 22.6807 82.6221 22.3936 82.54C22.1064 82.4639 21.8486 82.3555 21.6201 82.2148C21.3975 82.0742 21.1367 81.8398 20.8379 81.5117H20.627L20.082 82.4873H17.4014V68.8115H20.8379V71.9053C20.8379 72.2744 20.7969 72.9102 20.7148 73.8125H20.8379C21.1719 73.2969 21.5557 72.9248 21.9893 72.6963C22.4287 72.4678 22.9268 72.3535 23.4834 72.3535ZM22.2266 75.0518C21.7461 75.0518 21.3945 75.2188 21.1719 75.5527C20.9492 75.8867 20.8379 76.4111 20.8379 77.126V77.6094C20.8379 78.4238 20.9492 79.0098 21.1719 79.3672C21.3945 79.7188 21.7578 79.8945 22.2617 79.8945C22.666 79.8945 22.9766 79.6895 23.1934 79.2793C23.4102 78.8633 23.5186 78.2539 23.5186 77.4512C23.5186 75.8516 23.0879 75.0518 22.2266 75.0518Z" fill="black"/>
<path d="M33.5223 82.6631C31.8934 82.6631 30.6571 82.2236 29.8133 81.3447C28.9754 80.4658 28.5565 79.2031 28.5565 77.5566C28.5565 75.9043 29.0106 74.624 29.9188 73.7158C30.827 72.8076 32.119 72.3535 33.7948 72.3535C34.9491 72.3535 36.036 72.6055 37.0555 73.1094L36.0448 75.6494C35.6288 75.4678 35.245 75.3242 34.8934 75.2188C34.5418 75.1074 34.1756 75.0518 33.7948 75.0518C33.2381 75.0518 32.8075 75.2686 32.5028 75.7021C32.1981 76.1357 32.0457 76.748 32.0457 77.5391C32.0457 79.1328 32.6346 79.9297 33.8123 79.9297C34.8202 79.9297 35.787 79.6367 36.7127 79.0508V81.7842C35.828 82.3701 34.7645 82.6631 33.5223 82.6631Z" fill="black"/>
<path d="M41.7858 82.6631C41.0768 82.6631 40.4557 82.4609 39.9225 82.0566C39.3952 81.6523 38.985 81.0576 38.6921 80.2725C38.405 79.4873 38.2614 78.5703 38.2614 77.5215C38.2614 75.9043 38.5866 74.6387 39.237 73.7246C39.8874 72.8105 40.7809 72.3535 41.9177 72.3535C42.4743 72.3535 42.9606 72.4648 43.3766 72.6875C43.7985 72.9102 44.1823 73.2852 44.528 73.8125H44.5983C44.487 73.0332 44.4313 72.2539 44.4313 71.4746V68.8115H47.8942V82.4873H45.3015L44.5632 81.2305H44.4313C43.8395 82.1855 42.9577 82.6631 41.7858 82.6631ZM43.1921 79.9473C43.7429 79.9473 44.1296 79.7744 44.3522 79.4287C44.5807 79.083 44.7038 78.5498 44.7214 77.8291V77.5566C44.7214 76.6777 44.5954 76.0537 44.3434 75.6846C44.0915 75.3096 43.696 75.1221 43.1569 75.1221C42.7057 75.1221 42.3542 75.3359 42.1022 75.7637C41.8561 76.1855 41.7331 76.7891 41.7331 77.5742C41.7331 78.3477 41.8591 78.9365 42.111 79.3408C42.363 79.7451 42.7233 79.9473 43.1921 79.9473Z" fill="black"/>
<path d="M55.0855 82.6631C53.4273 82.6631 52.1382 82.2236 51.2183 81.3447C50.3042 80.46 49.8472 79.2031 49.8472 77.5742C49.8472 75.8926 50.272 74.6035 51.1216 73.707C51.9712 72.8047 53.1841 72.3535 54.7603 72.3535C56.2603 72.3535 57.4175 72.7461 58.232 73.5312C59.0523 74.3105 59.4624 75.4355 59.4624 76.9062V78.4355H53.3189C53.3423 78.9922 53.5445 79.4287 53.9253 79.7451C54.312 80.0615 54.8365 80.2197 55.4986 80.2197C56.1021 80.2197 56.6558 80.1641 57.1597 80.0527C57.6695 79.9355 58.2202 79.7393 58.812 79.4639V81.9336C58.273 82.209 57.7163 82.3994 57.1421 82.5049C56.5679 82.6104 55.8824 82.6631 55.0855 82.6631ZM54.8833 74.6914C54.479 74.6914 54.1392 74.8203 53.8638 75.0781C53.5943 75.3301 53.4361 75.7285 53.3892 76.2734H56.3423C56.3306 75.793 56.1929 75.4092 55.9292 75.1221C55.6714 74.835 55.3228 74.6914 54.8833 74.6914Z" fill="black"/>
<path d="M67.4904 75.1045H65.3723V82.4873H61.9358V75.1045H60.6174V73.417L62.0061 72.5732V72.4062C62.0061 71.0938 62.2727 70.1504 62.8059 69.5762C63.3449 69.002 64.2063 68.7148 65.3899 68.7148C65.8469 68.7148 66.2776 68.75 66.6819 68.8203C67.092 68.8906 67.5666 69.0137 68.1057 69.1895L67.3674 71.4131C66.9455 71.2959 66.5324 71.2373 66.1281 71.2373C65.8645 71.2373 65.6711 71.3193 65.5481 71.4834C65.4309 71.6416 65.3723 71.9023 65.3723 72.2656V72.5293H67.4904V75.1045Z" fill="black"/>
<path d="M78.2413 72.5293V74.1904L76.879 74.6914C77.0665 75.0312 77.1602 75.4268 77.1602 75.8779C77.1602 76.9502 76.7823 77.7822 76.0264 78.374C75.2764 78.9658 74.1544 79.2617 72.6602 79.2617C72.2911 79.2617 71.9981 79.2383 71.7813 79.1914C71.6993 79.3438 71.6583 79.4873 71.6583 79.6221C71.6583 79.792 71.796 79.9238 72.0714 80.0176C72.3467 80.1055 72.7071 80.1494 73.1524 80.1494H74.8047C77.0372 80.1494 78.1534 81.0898 78.1534 82.9707C78.1534 84.1836 77.6348 85.127 76.5977 85.8008C75.5665 86.4746 74.1163 86.8115 72.2471 86.8115C70.835 86.8115 69.7452 86.5742 68.9776 86.0996C68.2159 85.6309 67.835 84.9541 67.835 84.0693C67.835 82.8799 68.5733 82.1123 70.0499 81.7666C69.7452 81.6377 69.4786 81.4297 69.2501 81.1426C69.0274 80.8555 68.9161 80.5713 68.9161 80.29C68.9161 79.9795 69.001 79.707 69.171 79.4727C69.3409 79.2324 69.6954 78.9482 70.2344 78.6201C69.7188 78.3916 69.3116 78.0342 69.0128 77.5479C68.7198 77.0615 68.5733 76.4697 68.5733 75.7725C68.5733 74.6885 68.9424 73.8477 69.6807 73.25C70.419 72.6523 71.4737 72.3535 72.8448 72.3535C73.0264 72.3535 73.3399 72.374 73.7852 72.415C74.2305 72.4561 74.5587 72.4941 74.7696 72.5293H78.2413ZM70.7354 83.7266C70.7354 84.0078 70.8878 84.2334 71.1924 84.4033C71.4971 84.5791 71.9044 84.667 72.4141 84.667C73.2462 84.667 73.9112 84.5615 74.4092 84.3506C74.9131 84.1455 75.1651 83.8789 75.1651 83.5508C75.1651 83.2871 75.0128 83.0996 74.7081 82.9883C74.4034 82.8828 73.9669 82.8301 73.3985 82.8301H72.0538C71.6846 82.8301 71.3712 82.915 71.1133 83.085C70.8614 83.2607 70.7354 83.4746 70.7354 83.7266ZM71.8165 75.79C71.8165 76.8096 72.171 77.3193 72.8799 77.3193C73.2081 77.3193 73.46 77.1934 73.6358 76.9414C73.8174 76.6895 73.9083 76.3115 73.9083 75.8076C73.9083 74.7764 73.5655 74.2607 72.8799 74.2607C72.171 74.2607 71.8165 74.7705 71.8165 75.79Z" fill="black"/>
<path d="M86.0284 82.4873V77.0557C86.0284 75.7197 85.6329 75.0518 84.8419 75.0518C84.2794 75.0518 83.8633 75.2891 83.5938 75.7637C83.3301 76.2324 83.1983 77.0146 83.1983 78.1104V82.4873H79.7618V68.8115H83.1983V70.7539C83.1983 71.6328 83.1514 72.6348 83.0577 73.7598H83.2159C83.544 73.2441 83.9337 72.8809 84.3848 72.6699C84.836 72.459 85.3604 72.3535 85.9581 72.3535C87.0714 72.3535 87.9356 72.6758 88.5508 73.3203C89.1719 73.959 89.4825 74.8555 89.4825 76.0098V82.4873H86.0284Z" fill="black"/>
<path d="M95.2727 82.4873H91.8362V72.5293H95.2727V82.4873ZM91.7483 70.0508C91.7483 69.5352 91.8918 69.1514 92.1789 68.8994C92.466 68.6475 92.9289 68.5215 93.5676 68.5215C94.2063 68.5215 94.6721 68.6504 94.9651 68.9082C95.258 69.166 95.4045 69.5469 95.4045 70.0508C95.4045 71.0586 94.7922 71.5625 93.5676 71.5625C92.3547 71.5625 91.7483 71.0586 91.7483 70.0508Z" fill="black"/>
<path d="M97.4208 86.8115C97.1396 86.8115 96.8173 86.7881 96.454 86.7412C96.0849 86.7002 95.7919 86.6504 95.5751 86.5918V83.9111C95.9501 84.0166 96.3017 84.0693 96.6298 84.0693C97.3271 84.0693 97.6757 83.5713 97.6757 82.5752V72.5293H101.112V83.2959C101.112 84.3916 100.79 85.25 100.145 85.8711C99.5067 86.498 98.5985 86.8115 97.4208 86.8115ZM97.5878 70.0508C97.5878 69.5352 97.7314 69.1514 98.0185 68.8994C98.3056 68.6475 98.7685 68.5215 99.4071 68.5215C100.046 68.5215 100.512 68.6504 100.805 68.9082C101.098 69.166 101.244 69.5469 101.244 70.0508C101.244 71.0586 100.632 71.5625 99.4071 71.5625C98.1942 71.5625 97.5878 71.0586 97.5878 70.0508Z" fill="black"/>
<path d="M106.846 76.8887C107.262 76.2266 107.617 75.7109 107.91 75.3418L110.142 72.5293H113.974L110.52 76.7656L114.194 82.4873H110.265L108.086 78.9189L106.969 79.7715V82.4873H103.515V68.8115H106.969V74.1904C106.969 75.1104 106.905 76.0098 106.776 76.8887H106.846Z" fill="black"/>
<path d="M118.821 82.4873H115.384V68.8115H118.821V82.4873Z" fill="black"/>
<path d="M133.432 82.4873V77.0732C133.432 76.3994 133.338 75.8955 133.15 75.5615C132.969 75.2217 132.679 75.0518 132.28 75.0518C131.753 75.0518 131.366 75.2773 131.12 75.7285C130.874 76.1797 130.751 76.8857 130.751 77.8467V82.4873H127.306V77.0732C127.306 76.3994 127.218 75.8955 127.042 75.5615C126.866 75.2217 126.582 75.0518 126.189 75.0518C125.65 75.0518 125.258 75.292 125.012 75.7725C124.766 76.2529 124.643 77.0381 124.643 78.1279V82.4873H121.206V72.5293H123.799L124.229 73.7598H124.432C124.695 73.3027 125.076 72.9541 125.574 72.7139C126.078 72.4736 126.649 72.3535 127.288 72.3535C128.724 72.3535 129.731 72.79 130.311 73.6631H130.584C130.865 73.2529 131.255 72.9336 131.753 72.7051C132.257 72.4707 132.811 72.3535 133.414 72.3535C134.592 72.3535 135.462 72.6553 136.024 73.2588C136.587 73.8623 136.868 74.7793 136.868 76.0098V82.4873H133.432Z" fill="black"/>
</g>
<g id="nopqrstuvwxyz">
<path d="M12.4707 106.487V101.056C12.4707 100.394 12.374 99.8955 12.1807 99.5615C11.9932 99.2217 11.6885 99.0518 11.2666 99.0518C10.6865 99.0518 10.2676 99.2832 10.0098 99.7461C9.75195 100.209 9.62305 101.003 9.62305 102.128V106.487H6.18652V96.5293H8.7793L9.20996 97.7598H9.41211C9.70508 97.291 10.1094 96.9395 10.625 96.7051C11.1465 96.4707 11.7441 96.3535 12.418 96.3535C13.5195 96.3535 14.375 96.6729 14.9844 97.3115C15.5996 97.9502 15.9072 98.8496 15.9072 100.01V106.487H12.4707Z" fill="black"/>
<path d="M27.7531 101.486C27.7531 103.115 27.3136 104.387 26.4347 105.301C25.5617 106.209 24.3371 106.663 22.7609 106.663C21.2492 106.663 20.0451 106.197 19.1486 105.266C18.258 104.334 17.8127 103.074 17.8127 101.486C17.8127 99.8633 18.2492 98.6035 19.1222 97.707C20.0011 96.8047 21.2316 96.3535 22.8136 96.3535C23.7921 96.3535 24.6564 96.5615 25.4064 96.9775C26.1564 97.3936 26.7336 97.9912 27.1378 98.7705C27.548 99.5439 27.7531 100.449 27.7531 101.486ZM21.3019 101.486C21.3019 102.342 21.4162 102.995 21.6447 103.446C21.8732 103.892 22.257 104.114 22.7961 104.114C23.3293 104.114 23.7043 103.892 23.9211 103.446C24.1437 102.995 24.255 102.342 24.255 101.486C24.255 100.637 24.1437 99.9951 23.9211 99.5615C23.6984 99.1279 23.3175 98.9111 22.7785 98.9111C22.2511 98.9111 21.8732 99.1279 21.6447 99.5615C21.4162 99.9893 21.3019 100.631 21.3019 101.486Z" fill="black"/>
<path d="M35.702 106.663C35.1981 106.663 34.7469 106.581 34.3485 106.417C33.95 106.247 33.5545 105.945 33.162 105.512H33.0038C33.1092 106.209 33.162 106.643 33.162 106.812V110.812H29.7254V96.5293H32.5204L33.0038 97.7949H33.162C33.8006 96.834 34.6825 96.3535 35.8075 96.3535C36.909 96.3535 37.7733 96.8105 38.4002 97.7246C39.0272 98.6387 39.3407 99.8926 39.3407 101.486C39.3407 103.092 39.0125 104.357 38.3563 105.283C37.7059 106.203 36.8211 106.663 35.702 106.663ZM34.5506 99.0518C34.0467 99.0518 33.6922 99.2334 33.4872 99.5967C33.2879 99.9541 33.1795 100.487 33.162 101.196V101.469C33.162 102.324 33.2762 102.942 33.5047 103.323C33.7332 103.704 34.0936 103.895 34.5858 103.895C35.0252 103.895 35.3446 103.707 35.5438 103.332C35.743 102.951 35.8426 102.324 35.8426 101.451C35.8426 100.596 35.743 99.9834 35.5438 99.6143C35.3446 99.2393 35.0135 99.0518 34.5506 99.0518Z" fill="black"/>
<path d="M44.4489 106.663C43.3356 106.663 42.4626 106.206 41.8298 105.292C41.197 104.378 40.8806 103.121 40.8806 101.521C40.8806 99.9043 41.2028 98.6387 41.8474 97.7246C42.4977 96.8105 43.3825 96.3535 44.5016 96.3535C45.7028 96.3535 46.6081 96.8223 47.2175 97.7598H47.2878L47.5427 96.5293H50.5134V110.812H47.0768V106.689C47.0768 106.49 47.112 106.004 47.1823 105.23H47.0768C46.5143 106.186 45.6384 106.663 44.4489 106.663ZM45.8464 104C46.3679 104 46.7458 103.839 46.9802 103.517C47.2204 103.194 47.3405 102.649 47.3405 101.882V101.469C47.3405 100.59 47.2204 99.9629 46.9802 99.5879C46.7399 99.207 46.3444 99.0166 45.7936 99.0166C44.8444 99.0166 44.3698 99.8691 44.3698 101.574C44.3698 102.441 44.4899 103.062 44.7302 103.438C44.9704 103.812 45.3425 104 45.8464 104Z" fill="black"/>
<path d="M58.9087 96.3535C59.2076 96.3535 59.4917 96.377 59.7613 96.4238L59.9546 96.459L59.647 99.7021C59.3658 99.6318 58.9761 99.5967 58.4781 99.5967C57.7281 99.5967 57.1831 99.7695 56.8433 100.115C56.5034 100.455 56.3335 100.947 56.3335 101.592V106.487H52.897V96.5293H55.4546L55.9908 98.1201H56.1577C56.4449 97.5928 56.8433 97.168 57.3531 96.8457C57.8687 96.5176 58.3872 96.3535 58.9087 96.3535Z" fill="black"/>
<path d="M69.0461 103.429C69.0461 104.495 68.6828 105.301 67.9563 105.846C67.2297 106.391 66.1867 106.663 64.8274 106.663C64.0891 106.663 63.4475 106.622 62.9026 106.54C62.3576 106.464 61.801 106.32 61.2326 106.109V103.358C61.7658 103.593 62.3488 103.786 62.9817 103.938C63.6203 104.091 64.1887 104.167 64.6867 104.167C65.4309 104.167 65.8029 103.997 65.8029 103.657C65.8029 103.481 65.6975 103.326 65.4865 103.191C65.2815 103.051 64.6779 102.781 63.676 102.383C62.7619 102.008 62.1233 101.583 61.76 101.108C61.3967 100.628 61.2151 100.021 61.2151 99.2891C61.2151 98.3633 61.5725 97.6426 62.2873 97.127C63.0022 96.6113 64.0129 96.3535 65.3195 96.3535C65.9758 96.3535 66.591 96.4268 67.1652 96.5732C67.7453 96.7139 68.3459 96.9219 68.967 97.1973L68.0354 99.4121C67.5783 99.207 67.0949 99.0342 66.5852 98.8936C66.0754 98.7471 65.6594 98.6738 65.3371 98.6738C64.7746 98.6738 64.4934 98.8115 64.4934 99.0869C64.4934 99.2568 64.5901 99.4033 64.7834 99.5264C64.9826 99.6436 65.551 99.8867 66.4885 100.256C67.1858 100.543 67.7043 100.824 68.0442 101.1C68.3899 101.375 68.6418 101.7 68.8 102.075C68.9641 102.444 69.0461 102.896 69.0461 103.429Z" fill="black"/>
<path d="M75.8349 103.947C76.2978 103.947 76.8515 103.833 77.496 103.604V106.109C77.0331 106.309 76.5907 106.449 76.1689 106.531C75.7528 106.619 75.2636 106.663 74.7011 106.663C73.5468 106.663 72.7148 106.382 72.205 105.819C71.6952 105.251 71.4403 104.381 71.4403 103.209V99.1045H70.2362V97.707L71.7655 96.626L72.6532 94.5342H74.9032V96.5293H77.3466V99.1045H74.9032V102.98C74.9032 103.625 75.2138 103.947 75.8349 103.947Z" fill="black"/>
<path d="M86.3272 106.487L85.8965 105.248H85.6944C85.4073 105.705 85.0059 106.057 84.4903 106.303C83.9805 106.543 83.3799 106.663 82.6885 106.663C81.5928 106.663 80.7403 106.347 80.1309 105.714C79.5215 105.075 79.2169 104.176 79.2169 103.016V96.5293H82.6534V101.97C82.6534 102.62 82.7442 103.112 82.9258 103.446C83.1133 103.78 83.418 103.947 83.8399 103.947C84.4317 103.947 84.8536 103.716 85.1055 103.253C85.3575 102.784 85.4835 101.996 85.4835 100.889V96.5293H88.92V106.487H86.3272Z" fill="black"/>
<path d="M93.9016 106.487L90.1047 96.5293H93.6906L95.3781 102.418C95.384 102.447 95.3957 102.497 95.4133 102.567C95.4309 102.638 95.4485 102.723 95.466 102.822C95.4836 102.916 95.4983 103.019 95.51 103.13C95.5276 103.235 95.5363 103.335 95.5363 103.429H95.5979C95.5979 103.124 95.6506 102.793 95.7561 102.436L97.5227 96.5293H101.1L97.3029 106.487H93.9016Z" fill="black"/>
<path d="M110.861 106.487L109.736 101.741L109.472 100.309L109.296 99.1572H109.244C108.957 100.798 108.763 101.832 108.664 102.26L107.653 106.487H104.041L101.325 96.5293H104.709L105.517 100.353C105.775 101.665 105.924 102.755 105.965 103.622H106.018C106.036 103.083 106.197 102.058 106.501 100.546L107.424 96.5293H111.221L112.065 100.599C112.335 101.894 112.504 102.901 112.575 103.622H112.627C112.663 103.177 112.721 102.623 112.803 101.961C112.885 101.293 112.976 100.757 113.076 100.353L113.955 96.5293H117.268L114.535 106.487H110.861Z" fill="black"/>
<path d="M120.787 101.407L117.746 96.5293H121.649L123.16 99.3242L124.707 96.5293H128.618L125.498 101.407L128.741 106.487H124.839L123.16 103.464L121.49 106.487H117.579L120.787 101.407Z" fill="black"/>
<path d="M128.81 96.5293H132.431L134.119 102.242C134.201 102.541 134.256 102.901 134.286 103.323H134.356C134.403 102.919 134.473 102.564 134.567 102.26L136.298 96.5293H139.805L135.868 107.12C135.364 108.468 134.743 109.42 134.004 109.977C133.272 110.533 132.314 110.812 131.13 110.812C130.673 110.812 130.204 110.762 129.724 110.662V107.964C130.035 108.034 130.389 108.069 130.787 108.069C131.092 108.069 131.359 108.011 131.587 107.894C131.816 107.776 132.015 107.609 132.185 107.393C132.355 107.182 132.536 106.833 132.73 106.347L128.81 96.5293Z" fill="black"/>
<path d="M148.487 106.487H140.243V104.527L144.365 99.1572H140.48V96.5293H148.293V98.6562L144.347 103.859H148.487V106.487Z" fill="black"/>
</g>
<g id="1234567890">
<path d="M13.2793 130.487H9.75488V123.685C9.75488 122.858 9.77246 122.103 9.80762 121.417C9.59082 121.681 9.32129 121.956 8.99902 122.243L7.54004 123.447L5.73828 121.232L10.1504 117.638H13.2793V130.487Z" fill="black"/>
<path d="M25.4081 130.487H16.0829V128.202L19.2206 125.029C20.1171 124.092 20.703 123.453 20.9784 123.113C21.2538 122.768 21.4442 122.472 21.5497 122.226C21.661 121.979 21.7167 121.722 21.7167 121.452C21.7167 121.118 21.6083 120.854 21.3915 120.661C21.1747 120.468 20.87 120.371 20.4774 120.371C20.0731 120.371 19.663 120.488 19.247 120.723C18.8368 120.951 18.371 121.291 17.8495 121.742L15.9423 119.51C16.6044 118.918 17.161 118.496 17.6122 118.244C18.0634 117.986 18.5526 117.79 19.08 117.655C19.6132 117.521 20.2108 117.453 20.8729 117.453C21.705 117.453 22.4462 117.6 23.0966 117.893C23.7528 118.186 24.2597 118.604 24.6171 119.149C24.9804 119.688 25.162 120.295 25.162 120.969C25.162 121.473 25.0976 121.938 24.9687 122.366C24.8456 122.794 24.6522 123.216 24.3886 123.632C24.1249 124.042 23.7733 124.476 23.3339 124.933C22.9003 125.39 21.9716 126.257 20.5478 127.534V127.622H25.4081V130.487Z" fill="black"/>
<path d="M35.5242 120.424C35.5242 121.221 35.281 121.906 34.7947 122.48C34.3084 123.049 33.6053 123.462 32.6853 123.72V123.772C34.8299 124.042 35.9021 125.056 35.9021 126.813C35.9021 128.009 35.4275 128.949 34.4783 129.635C33.535 130.32 32.2225 130.663 30.5408 130.663C29.8494 130.663 29.2078 130.613 28.616 130.514C28.0301 130.414 27.3943 130.232 26.7088 129.969V127.086C27.2713 127.373 27.8426 127.587 28.4227 127.728C29.0086 127.862 29.5477 127.93 30.0398 127.93C30.8016 127.93 31.3553 127.824 31.701 127.613C32.0525 127.396 32.2283 127.06 32.2283 126.603C32.2283 126.251 32.1375 125.981 31.9559 125.794C31.7742 125.601 31.4812 125.457 31.0769 125.363C30.6727 125.264 30.1453 125.214 29.4949 125.214H28.7039V122.604H29.5125C31.2762 122.604 32.158 122.152 32.158 121.25C32.158 120.91 32.0262 120.658 31.7625 120.494C31.5047 120.33 31.156 120.248 30.7166 120.248C29.8963 120.248 29.0467 120.523 28.1678 121.074L26.7264 118.754C27.406 118.285 28.1004 117.951 28.8094 117.752C29.5242 117.553 30.3416 117.453 31.2615 117.453C32.5916 117.453 33.6346 117.717 34.3904 118.244C35.1463 118.771 35.5242 119.498 35.5242 120.424Z" fill="black"/>
<path d="M46.9147 128H45.4997V130.487H42.072V128H36.9479V125.451L42.2917 117.638H45.4997V125.407H46.9147V128ZM42.072 125.407V123.913C42.072 123.632 42.0808 123.254 42.0983 122.779C42.1218 122.299 42.1394 122.047 42.1511 122.023H42.0544C41.8552 122.475 41.6296 122.896 41.3776 123.289L39.9538 125.407H42.072Z" fill="black"/>
<path d="M53.023 122.067C53.7613 122.067 54.4264 122.24 55.0182 122.586C55.6158 122.926 56.0787 123.409 56.4068 124.036C56.7408 124.663 56.9078 125.387 56.9078 126.207C56.9078 127.643 56.4742 128.744 55.607 129.512C54.7457 130.279 53.4391 130.663 51.6871 130.663C50.1871 130.663 48.9625 130.432 48.0133 129.969V127.121C48.523 127.355 49.0973 127.549 49.7359 127.701C50.3805 127.854 50.9342 127.93 51.3971 127.93C52.0416 127.93 52.5367 127.795 52.8824 127.525C53.2281 127.25 53.401 126.846 53.401 126.312C53.401 125.82 53.2252 125.437 52.8736 125.161C52.5221 124.886 51.9889 124.748 51.274 124.748C50.7291 124.748 50.1402 124.851 49.5074 125.056L48.233 124.423L48.7164 117.638H56.0465V120.529H51.6695L51.5113 122.226C51.9683 122.138 52.2935 122.091 52.4869 122.085C52.6803 122.073 52.859 122.067 53.023 122.067Z" fill="black"/>
<path d="M58.3491 125.056C58.3491 123.263 58.604 121.812 59.1138 120.705C59.6294 119.592 60.3852 118.771 61.3813 118.244C62.3833 117.717 63.6167 117.453 65.0815 117.453C65.603 117.453 66.2124 117.503 66.9097 117.603V120.318C66.3237 120.207 65.688 120.151 65.0024 120.151C63.8423 120.151 62.978 120.406 62.4097 120.916C61.8413 121.426 61.5308 122.258 61.478 123.412H61.5835C62.1108 122.416 62.9575 121.918 64.1235 121.918C65.2661 121.918 66.1509 122.287 66.7778 123.025C67.4106 123.758 67.727 124.78 67.727 126.093C67.727 127.505 67.3286 128.621 66.5317 129.441C65.7349 130.256 64.6216 130.663 63.1919 130.663C61.6743 130.663 60.4878 130.171 59.6323 129.187C58.7768 128.202 58.3491 126.825 58.3491 125.056ZM63.1128 127.912C63.4819 127.912 63.7808 127.774 64.0093 127.499C64.2436 127.218 64.3608 126.772 64.3608 126.163C64.3608 125.12 63.9565 124.599 63.1479 124.599C62.7495 124.599 62.4243 124.733 62.1724 125.003C61.9263 125.272 61.8032 125.601 61.8032 125.987C61.8032 126.55 61.9233 127.013 62.1636 127.376C62.4038 127.733 62.7202 127.912 63.1128 127.912Z" fill="black"/>
<path d="M70.1176 130.487L74.5297 120.529H68.9662V117.655H78.2387V119.703L73.7123 130.487H70.1176Z" fill="black"/>
<path d="M84.136 117.453C85.4895 117.453 86.5413 117.726 87.2913 118.271C88.0471 118.815 88.4251 119.589 88.4251 120.591C88.4251 121.271 88.2464 121.868 87.8889 122.384C87.5374 122.894 86.9778 123.339 86.2102 123.72C87.1595 124.259 87.8274 124.798 88.2141 125.337C88.6067 125.87 88.803 126.447 88.803 127.068C88.803 128.211 88.3899 129.096 87.5638 129.723C86.7376 130.35 85.5833 130.663 84.1009 130.663C82.5891 130.663 81.4319 130.358 80.6292 129.749C79.8264 129.134 79.4251 128.252 79.4251 127.104C79.4251 126.359 79.6038 125.727 79.9612 125.205C80.3186 124.678 80.9192 124.2 81.763 123.772C81.0833 123.315 80.5852 122.826 80.2688 122.305C79.9583 121.777 79.803 121.2 79.803 120.573C79.803 119.589 80.1868 118.824 80.9544 118.279C81.722 117.729 82.7825 117.453 84.136 117.453ZM82.6067 126.963C82.6067 127.326 82.7356 127.619 82.9934 127.842C83.2513 128.059 83.6087 128.167 84.0657 128.167C85.097 128.167 85.6126 127.789 85.6126 127.033C85.6126 126.746 85.4983 126.465 85.2698 126.189C85.0471 125.908 84.6458 125.595 84.0657 125.249C83.5442 125.524 83.1692 125.803 82.9407 126.084C82.718 126.359 82.6067 126.652 82.6067 126.963ZM84.1184 119.958C83.8196 119.958 83.5677 120.046 83.3626 120.222C83.1575 120.392 83.055 120.614 83.055 120.89C83.055 121.394 83.3977 121.839 84.0833 122.226C84.4993 121.985 84.7835 121.766 84.9358 121.566C85.0882 121.367 85.1643 121.142 85.1643 120.89C85.1643 120.608 85.0618 120.383 84.8567 120.213C84.6516 120.043 84.4055 119.958 84.1184 119.958Z" fill="black"/>
<path d="M99.3322 123.518C99.3322 126.031 98.7902 127.851 97.7062 128.976C96.6222 130.101 94.8879 130.663 92.5031 130.663C91.7179 130.663 91.1203 130.634 90.7101 130.575V127.824C91.214 127.918 91.7179 127.965 92.2219 127.965C93.464 127.965 94.4221 127.71 95.0959 127.2C95.7697 126.685 96.1359 125.873 96.1945 124.766H96.089C95.8605 125.188 95.6349 125.492 95.4123 125.68C95.1896 125.867 94.9172 126.011 94.5949 126.11C94.2726 126.21 93.8713 126.26 93.3908 126.26C92.2775 126.26 91.4074 125.888 90.7804 125.144C90.1535 124.399 89.84 123.374 89.84 122.067C89.84 120.644 90.2443 119.527 91.0529 118.719C91.8674 117.91 92.9806 117.506 94.3928 117.506C95.9631 117.506 97.1789 118.027 98.0402 119.07C98.9015 120.113 99.3322 121.596 99.3322 123.518ZM94.4894 120.283C94.1086 120.283 93.798 120.421 93.5578 120.696C93.3234 120.972 93.2062 121.414 93.2062 122.023C93.2062 122.504 93.3088 122.888 93.5138 123.175C93.7189 123.456 94.0324 123.597 94.4543 123.597C94.8351 123.597 95.1662 123.459 95.4474 123.184C95.7287 122.908 95.8693 122.577 95.8693 122.19C95.8693 121.669 95.7375 121.221 95.4738 120.846C95.216 120.471 94.8879 120.283 94.4894 120.283Z" fill="black"/>
<path d="M109.835 124.08C109.835 126.354 109.454 128.021 108.692 129.081C107.931 130.136 106.765 130.663 105.194 130.663C103.659 130.663 102.502 130.112 101.723 129.011C100.943 127.903 100.554 126.26 100.554 124.08C100.554 121.795 100.935 120.119 101.696 119.053C102.458 117.986 103.624 117.453 105.194 117.453C106.724 117.453 107.878 118.01 108.657 119.123C109.442 120.23 109.835 121.883 109.835 124.08ZM104.008 124.08C104.008 125.533 104.099 126.532 104.28 127.077C104.462 127.622 104.767 127.895 105.194 127.895C105.628 127.895 105.933 127.613 106.108 127.051C106.29 126.488 106.381 125.498 106.381 124.08C106.381 122.656 106.29 121.66 106.108 121.092C105.927 120.518 105.622 120.23 105.194 120.23C104.767 120.23 104.462 120.506 104.28 121.057C104.099 121.607 104.008 122.615 104.008 124.08Z" fill="black"/>
</g>
</g>
</svg>
