<svg width="144" height="136" viewBox="0 0 144 136" fill="none" xmlns="http://www.w3.org/2000/svg">
<g id="OpenSans_light_italic" clip-path="url(#clip0)">
<g id="Light Italic">
<path d="M1.30566 13.5117V3.39453H2.74121V12.4385H7.29395V13.5117H1.30566Z" fill="black"/>
<path d="M8.80062 13.5117V6.08789H10.1473V13.5117H8.80062ZM8.80062 4.74121V3.39453H10.1473V4.74121H8.80062Z" fill="black"/>
<path d="M12.8639 15.9795L13.0212 14.8105C13.8005 15.1797 14.5684 15.3643 15.3249 15.3643C16.8425 15.3643 17.6012 14.5599 17.6012 12.9512V11.7822C17.1045 12.8213 16.2887 13.3408 15.154 13.3408C14.2653 13.3408 13.5589 13.0173 13.0348 12.3701C12.5108 11.723 12.2487 10.8503 12.2487 9.75195C12.2487 8.62174 12.5472 7.70117 13.1442 6.99023C13.7412 6.2793 14.5137 5.92383 15.4616 5.92383C16.291 5.92383 17.0042 6.26107 17.6012 6.93555V6.08789H18.9548V11.4883C18.9548 12.6504 18.8932 13.5094 18.7702 14.0654C18.6517 14.626 18.4261 15.084 18.0934 15.4395C17.5055 16.0638 16.5918 16.376 15.3522 16.376C14.4863 16.376 13.6569 16.2438 12.8639 15.9795ZM17.6012 10.9414V7.8584C17.0088 7.24316 16.3639 6.93555 15.6667 6.93555C15.0469 6.93555 14.5615 7.18392 14.2106 7.68066C13.8597 8.17741 13.6843 8.85872 13.6843 9.72461C13.6843 11.3516 14.2562 12.165 15.4001 12.165C16.1794 12.165 16.9131 11.7572 17.6012 10.9414Z" fill="black"/>
<path d="M21.576 13.5117V2.71777H22.9227V7.48242C23.6336 6.44336 24.5041 5.92383 25.534 5.92383C26.1766 5.92383 26.6893 6.12891 27.0721 6.53906C27.4549 6.94466 27.6463 7.49154 27.6463 8.17969V13.5117H26.2997V8.61719C26.2997 8.06576 26.2176 7.67383 26.0536 7.44141C25.8941 7.20443 25.6275 7.08594 25.2538 7.08594C24.4289 7.08594 23.6519 7.62598 22.9227 8.70605V13.5117H21.576Z" fill="black"/>
<path d="M32.503 13.6826C31.8194 13.6826 31.2862 13.4867 30.9033 13.0947C30.5205 12.7028 30.3291 12.1582 30.3291 11.4609V7.09961H29.3994V6.08789H30.3291V4.74121L31.6758 4.61133V6.08789H33.6172V7.09961H31.6758V11.2148C31.6758 12.1855 32.0951 12.6709 32.9336 12.6709C33.1114 12.6709 33.3278 12.6413 33.583 12.582V13.5117C33.1683 13.6257 32.8083 13.6826 32.503 13.6826Z" fill="black"/>
<path d="M39.8708 13.5117V3.39453H41.3064V13.5117H39.8708Z" fill="black"/>
<path d="M46.1695 13.6826C45.4859 13.6826 44.9527 13.4867 44.5699 13.0947C44.187 12.7028 43.9956 12.1582 43.9956 11.4609V7.09961H43.066V6.08789H43.9956V4.74121L45.3423 4.61133V6.08789H47.2837V7.09961H45.3423V11.2148C45.3423 12.1855 45.7616 12.6709 46.6001 12.6709C46.7779 12.6709 46.9943 12.6413 47.2495 12.582V13.5117C46.8348 13.6257 46.4748 13.6826 46.1695 13.6826Z" fill="black"/>
<path d="M52.9945 12.5684C52.1879 13.3112 51.4109 13.6826 50.6635 13.6826C50.0482 13.6826 49.5378 13.4912 49.1322 13.1084C48.7266 12.721 48.5238 12.2334 48.5238 11.6455C48.5238 10.8343 48.8633 10.2122 49.5424 9.7793C50.226 9.3418 51.2035 9.12305 52.475 9.12305H52.7963V8.22754C52.7963 7.36621 52.3542 6.93555 51.4701 6.93555C50.7592 6.93555 49.9913 7.1543 49.1664 7.5918V6.47754C50.0733 6.1084 50.9232 5.92383 51.7162 5.92383C52.5456 5.92383 53.1563 6.11068 53.5482 6.48438C53.9447 6.85807 54.1429 7.43913 54.1429 8.22754V11.5908C54.1429 12.361 54.3799 12.7461 54.8539 12.7461C54.9131 12.7461 54.9997 12.737 55.1137 12.7188L55.2094 13.4639C54.904 13.6097 54.5668 13.6826 54.1976 13.6826C53.5687 13.6826 53.1677 13.3112 52.9945 12.5684ZM52.7963 11.8369V9.91602L52.3451 9.90234C51.6068 9.90234 51.0098 10.0436 50.5541 10.3262C50.0984 10.6042 49.8705 10.971 49.8705 11.4268C49.8705 11.7503 49.9844 12.0238 50.2123 12.2471C50.4401 12.4704 50.7181 12.582 51.0463 12.582C51.6068 12.582 52.1901 12.3337 52.7963 11.8369Z" fill="black"/>
<path d="M56.8938 13.5117V2.71777H58.2404V13.5117H56.8938Z" fill="black"/>
<path d="M60.9297 13.5117V6.08789H62.2764V13.5117H60.9297ZM60.9297 4.74121V3.39453H62.2764V4.74121H60.9297Z" fill="black"/>
<path d="M67.8642 13.6826C66.8615 13.6826 66.0298 13.3112 65.369 12.5684C64.7082 11.8255 64.3778 10.889 64.3778 9.75879C64.3778 8.55111 64.7037 7.61003 65.3554 6.93555C66.0116 6.26107 66.9253 5.92383 68.0966 5.92383C68.6753 5.92383 69.3225 6.00358 70.038 6.16309V7.29102C69.2769 7.06771 68.6571 6.95605 68.1786 6.95605C67.4905 6.95605 66.9367 7.21582 66.5175 7.73535C66.1028 8.25033 65.8954 8.93848 65.8954 9.7998C65.8954 10.6338 66.1096 11.3083 66.538 11.8232C66.9664 12.3382 67.5269 12.5957 68.2196 12.5957C68.8349 12.5957 69.4683 12.4385 70.12 12.124V13.2861C69.2496 13.5505 68.4976 13.6826 67.8642 13.6826Z" fill="black"/>
</g>
<g id="ABCDEFGHIJKLM">
<path d="M12.0752 29.917H7.5752L5.05273 34.4873H4.02441L11.249 21.585H11.8379L13.6045 34.4873H12.6816L12.0752 29.917ZM11.9697 29.1084L11.627 26.5508C11.4453 25.1328 11.3311 23.9551 11.2842 23.0176C11.1084 23.3867 10.918 23.7676 10.7129 24.1602C10.5137 24.5527 9.61719 26.2021 8.02344 29.1084H11.9697Z" fill="black"/>
<path d="M17.9393 21.6377H21.2704C22.3836 21.6377 23.2332 21.8838 23.8192 22.376C24.411 22.8682 24.7069 23.5742 24.7069 24.4941C24.7069 25.3906 24.4432 26.1201 23.9159 26.6826C23.3885 27.2451 22.6444 27.6084 21.6834 27.7725V27.8076C22.4159 27.9893 22.9666 28.3232 23.3358 28.8096C23.7108 29.29 23.8983 29.8877 23.8983 30.6025C23.8983 31.8037 23.4852 32.7529 22.659 33.4502C21.8387 34.1416 20.6961 34.4873 19.2313 34.4873H15.2147L17.9393 21.6377ZM17.6317 27.3594H20.075C21.2821 27.3594 22.1991 27.1221 22.826 26.6475C23.453 26.1729 23.7664 25.4756 23.7664 24.5557C23.7664 23.8584 23.5379 23.3311 23.0809 22.9736C22.6239 22.6104 21.953 22.4287 21.0682 22.4287H18.6776L17.6317 27.3594ZM17.4647 28.1504L16.2782 33.6963H19.284C20.4618 33.6963 21.367 33.4414 21.9998 32.9316C22.6385 32.416 22.9579 31.6631 22.9579 30.6729C22.9579 29.8232 22.6942 29.1904 22.1668 28.7744C21.6395 28.3584 20.8338 28.1504 19.7498 28.1504H17.4647Z" fill="black"/>
<path d="M33.3271 22.2793C32.1729 22.2793 31.1416 22.5869 30.2334 23.2021C29.3311 23.8115 28.6133 24.7021 28.0801 25.874C27.5527 27.0459 27.2891 28.3379 27.2891 29.75C27.2891 31.0684 27.6113 32.082 28.2559 32.791C28.9062 33.5 29.8379 33.8545 31.0508 33.8545C31.8711 33.8545 32.7617 33.7051 33.7227 33.4062V34.2324C32.8086 34.5195 31.8828 34.6631 30.9453 34.6631C29.4688 34.6631 28.3379 34.2383 27.5527 33.3887C26.7676 32.5391 26.375 31.3379 26.375 29.7852C26.375 28.2266 26.6797 26.7969 27.2891 25.4961C27.9043 24.1953 28.7393 23.1963 29.7939 22.499C30.8486 21.8018 32.0264 21.4531 33.3271 21.4531C34.3643 21.4531 35.2637 21.6523 36.0254 22.0508L35.6299 22.8418C35.3076 22.666 34.9414 22.5283 34.5312 22.4287C34.127 22.3291 33.7256 22.2793 33.3271 22.2793Z" fill="black"/>
<path d="M46.4808 26.7617C46.4808 28.2441 46.1585 29.5977 45.514 30.8223C44.8753 32.041 43.9964 32.958 42.8773 33.5732C41.7581 34.1826 40.4515 34.4873 38.9573 34.4873H36.0569L38.7816 21.6377H41.4622C43.1146 21.6377 44.3626 22.0713 45.2064 22.9385C46.056 23.7998 46.4808 25.0742 46.4808 26.7617ZM38.9398 33.6963C40.264 33.6963 41.4183 33.4209 42.4026 32.8701C43.3929 32.3135 44.1575 31.5049 44.6966 30.4443C45.2415 29.3838 45.514 28.1768 45.514 26.8232C45.514 23.9053 44.1194 22.4463 41.3304 22.4463H39.5198L37.1028 33.6963H38.9398Z" fill="black"/>
<path d="M54.3154 34.4873H47.9258L50.6504 21.6377H57.04L56.8555 22.4639H51.3711L50.3428 27.3242H55.5283L55.3438 28.1504H50.1758L48.9893 33.6611H54.5L54.3154 34.4873Z" fill="black"/>
<path d="M58.2196 34.4873H57.3143L60.0389 21.6377H66.2616L66.0858 22.4639H60.7772L59.5995 27.9131H64.6092L64.4247 28.748H59.4237L58.2196 34.4873Z" fill="black"/>
<path d="M72.5739 28.0273H76.1423L74.8239 34.0215C73.5876 34.4492 72.4011 34.6631 71.2643 34.6631C69.7585 34.6631 68.5954 34.2354 67.7751 33.3799C66.9548 32.5244 66.5446 31.291 66.5446 29.6797C66.5446 28.127 66.8522 26.7119 67.4675 25.4346C68.0827 24.1514 68.9118 23.167 69.9548 22.4814C71.0036 21.7959 72.1638 21.4531 73.4352 21.4531C74.0974 21.4531 74.6921 21.5088 75.2194 21.6201C75.7468 21.7314 76.2858 21.9043 76.8366 22.1387L76.5026 22.9648C75.8581 22.6953 75.3015 22.5137 74.8327 22.4199C74.3698 22.3262 73.8806 22.2793 73.3649 22.2793C72.2868 22.2793 71.2936 22.5957 70.3854 23.2285C69.4772 23.8555 68.7624 24.7373 68.2409 25.874C67.7194 27.0107 67.4587 28.2793 67.4587 29.6797C67.4587 31.0215 67.7927 32.0527 68.4606 32.7734C69.1345 33.4941 70.0925 33.8545 71.3347 33.8545C72.2429 33.8545 73.1481 33.7168 74.0505 33.4414L75.0788 28.8184H72.4157L72.5739 28.0273Z" fill="black"/>
<path d="M86.4676 34.4873H85.5887L86.9159 28.168H80.2362L78.9266 34.4873H78.0213L80.7459 21.6377H81.6424L80.4207 27.3418H87.1004L88.3045 21.6377H89.1834L86.4676 34.4873Z" fill="black"/>
<path d="M90.029 34.4873L92.7536 21.6377H93.6149L90.8991 34.4873H90.029Z" fill="black"/>
<path d="M91.982 37.6514C91.7007 37.6514 91.4429 37.6279 91.2085 37.5811C90.9742 37.5342 90.8101 37.4873 90.7163 37.4404L90.813 36.6318C91.147 36.749 91.5484 36.8076 92.0171 36.8076C93.2652 36.8076 94.0327 36.1016 94.3199 34.6895L97.0357 21.6377H97.9585L95.1988 34.7422C94.9937 35.7383 94.6275 36.4707 94.1001 36.9395C93.5728 37.4141 92.8667 37.6514 91.982 37.6514Z" fill="black"/>
<path d="M106.368 34.4873H105.392L102.386 27.5615L100.716 28.9062L99.5651 34.4873H98.6599L101.384 21.6377H102.281L100.892 27.9922L102.061 26.9287L108.038 21.6377H109.251L103.107 26.999L106.368 34.4873Z" fill="black"/>
<path d="M108.519 34.4873L111.244 21.6377H112.14L109.6 33.6436H115.058L114.856 34.4873H108.519Z" fill="black"/>
<path d="M122.654 32.6855L129.096 21.6377H130.415L127.769 34.4873H126.882L128.56 26.5684C129.023 24.4062 129.316 23.0967 129.439 22.6396H129.386L122.531 34.4873H122.083L120.132 22.6396H120.079C119.962 23.542 119.733 24.79 119.393 26.3838L117.671 34.4873H116.827L119.543 21.6377H120.799L122.601 32.6855H122.654Z" fill="black"/>
</g>
<g id="NOPQRSTUVWXYZ">
<path d="M14.3955 58.4873H13.6396L9.10449 47.2021H9.03418C8.89941 48.0752 8.75879 48.875 8.6123 49.6016C8.46582 50.3281 7.83887 53.29 6.73145 58.4873H5.89648L8.62109 45.6377H9.32422L13.9121 57.0107H13.9824C14.1172 55.9795 14.334 54.7607 14.6328 53.3545L16.2852 45.6377H17.1113L14.3955 58.4873Z" fill="black"/>
<path d="M29.3878 50.4805C29.3878 51.9746 29.1125 53.3867 28.5617 54.7168C28.0109 56.041 27.2726 57.0312 26.3468 57.6875C25.4211 58.3379 24.3517 58.6631 23.1388 58.6631C21.674 58.6631 20.5461 58.2266 19.755 57.3535C18.964 56.4805 18.5685 55.2207 18.5685 53.5742C18.5685 52.0391 18.841 50.6416 19.3859 49.3818C19.9308 48.1162 20.6779 47.1465 21.6271 46.4727C22.5763 45.793 23.6691 45.4531 24.9054 45.4531C26.3527 45.4531 27.4601 45.8896 28.2277 46.7627C29.0011 47.6299 29.3878 48.8691 29.3878 50.4805ZM24.7824 46.2793C23.7628 46.2793 22.8576 46.5752 22.0666 47.167C21.2814 47.7588 20.6545 48.6318 20.1857 49.7861C19.717 50.9404 19.4826 52.1621 19.4826 53.4512C19.4826 54.8867 19.8019 55.9795 20.4406 56.7295C21.0851 57.4795 22.0226 57.8545 23.2531 57.8545C24.2433 57.8545 25.1222 57.5674 25.8898 56.9932C26.6574 56.4131 27.2726 55.5342 27.7355 54.3564C28.1984 53.1729 28.4298 51.9102 28.4298 50.5684C28.4298 49.1621 28.1222 48.0957 27.507 47.3691C26.8976 46.6426 25.9894 46.2793 24.7824 46.2793Z" fill="black"/>
<path d="M39.9839 48.8018C39.9839 51.7314 38.1967 53.1963 34.6225 53.1963H32.8559L31.7221 58.4873H30.8169L33.5415 45.6377H36.31C37.4936 45.6377 38.4018 45.9102 39.0346 46.4551C39.6674 46.9941 39.9839 47.7764 39.9839 48.8018ZM32.9966 52.3877H34.6753C36.1518 52.3877 37.2446 52.1064 37.9536 51.5439C38.6684 50.9756 39.0258 50.0791 39.0258 48.8545C39.0258 47.249 38.062 46.4463 36.1342 46.4463H34.2798L32.9966 52.3877Z" fill="black"/>
<path d="M52.3255 50.4805C52.3255 51.7461 52.1204 52.9707 51.7103 54.1543C51.3001 55.3379 50.7523 56.2871 50.0667 57.002C49.387 57.7168 48.5843 58.2061 47.6585 58.4697L50.0052 61.5459H48.7571L46.7269 58.6279L46.0765 58.6631C44.6116 58.6631 43.4837 58.2266 42.6927 57.3535C41.9017 56.4805 41.5062 55.2207 41.5062 53.5742C41.5062 52.0391 41.7786 50.6416 42.3235 49.3818C42.8685 48.1162 43.6155 47.1465 44.5648 46.4727C45.514 45.793 46.6068 45.4531 47.8431 45.4531C49.2903 45.4531 50.3978 45.8896 51.1653 46.7627C51.9388 47.6299 52.3255 48.8691 52.3255 50.4805ZM47.72 46.2793C46.7005 46.2793 45.7952 46.5752 45.0042 47.167C44.2191 47.7588 43.5921 48.6318 43.1234 49.7861C42.6546 50.9404 42.4202 52.1621 42.4202 53.4512C42.4202 54.8867 42.7396 55.9795 43.3782 56.7295C44.0228 57.4795 44.9603 57.8545 46.1907 57.8545C47.181 57.8545 48.0599 57.5674 48.8275 56.9932C49.595 56.4131 50.2103 55.5342 50.6732 54.3564C51.136 53.1729 51.3675 51.9102 51.3675 50.5684C51.3675 49.1621 51.0599 48.0957 50.4446 47.3691C49.8353 46.6426 48.9271 46.2793 47.72 46.2793Z" fill="black"/>
<path d="M55.8112 52.9238L54.6598 58.4873H53.7545L56.4791 45.6377H59.1422C61.6617 45.6377 62.9215 46.6924 62.9215 48.8018C62.9215 49.8682 62.6168 50.7559 62.0075 51.4648C61.4039 52.1738 60.5807 52.6191 59.5377 52.8008C60.7155 56.2637 61.3629 58.1592 61.4801 58.4873H60.5045L58.65 52.9238H55.8112ZM56.0045 52.1152H58.2194C59.4381 52.1152 60.3668 51.8369 61.0055 51.2803C61.6442 50.7178 61.9635 49.8916 61.9635 48.8018C61.9635 47.2314 60.9996 46.4463 59.0719 46.4463H57.2174L56.0045 52.1152Z" fill="black"/>
<path d="M70.7983 54.9453C70.7983 55.6836 70.6049 56.3428 70.2182 56.9229C69.8374 57.4971 69.313 57.9307 68.645 58.2236C67.977 58.5166 67.1889 58.6631 66.2807 58.6631C65.7651 58.6631 65.2583 58.6133 64.7602 58.5137C64.268 58.4141 63.7671 58.2441 63.2573 58.0039V57.0459C64.2124 57.585 65.2319 57.8545 66.3159 57.8545C67.4174 57.8545 68.2817 57.6025 68.9087 57.0986C69.5415 56.5889 69.8579 55.9062 69.8579 55.0508C69.8579 54.6934 69.8081 54.3887 69.7085 54.1367C69.6089 53.8789 69.4536 53.6475 69.2426 53.4424C69.0376 53.2373 68.771 53.0381 68.4428 52.8447C68.1206 52.6514 67.7368 52.4316 67.2915 52.1855C66.4126 51.7402 65.7973 51.2598 65.4458 50.7441C65.1001 50.2285 64.9272 49.625 64.9272 48.9336C64.9272 48.2422 65.1001 47.6357 65.4458 47.1143C65.7915 46.5869 66.2749 46.1797 66.896 45.8926C67.5171 45.5996 68.2114 45.4531 68.979 45.4531C69.5591 45.4531 70.0864 45.5059 70.561 45.6113C71.0356 45.7109 71.5278 45.8867 72.0376 46.1387L71.7563 46.9648C71.3696 46.7305 70.9243 46.5459 70.4204 46.4111C69.9223 46.2764 69.4419 46.209 68.979 46.209C68.0239 46.209 67.2622 46.4521 66.6938 46.9385C66.1313 47.4189 65.8501 48.0576 65.8501 48.8545C65.8501 49.458 65.9936 49.9561 66.2807 50.3486C66.5678 50.7412 67.101 51.1309 67.8803 51.5176C68.7827 51.9805 69.4067 52.3613 69.7524 52.6602C70.104 52.959 70.3647 53.29 70.5346 53.6533C70.7104 54.0166 70.7983 54.4473 70.7983 54.9453Z" fill="black"/>
<path d="M75.7448 58.4873H74.8483L77.3883 46.4639H73.5914L73.7672 45.6377H82.319L82.152 46.4639H78.2848L75.7448 58.4873Z" fill="black"/>
<path d="M92.8201 45.6377L91.0008 54.2246C90.6609 55.8066 90.0838 56.9434 89.2693 57.6348C88.4549 58.3203 87.3562 58.6631 85.9734 58.6631C83.3953 58.6631 82.1062 57.4883 82.1062 55.1387C82.1062 54.6523 82.1853 54.0635 82.3435 53.3721L83.9783 45.6377H84.8836L83.1873 53.5391C83.0701 54.0605 83.0115 54.5996 83.0115 55.1562C83.0115 56.9668 84.0135 57.8721 86.0174 57.8721C87.1599 57.8721 88.0594 57.5908 88.7156 57.0283C89.3777 56.46 89.8435 55.5254 90.1131 54.2246L91.9324 45.6377H92.8201Z" fill="black"/>
<path d="M96.6152 57.1953C96.914 56.5449 97.2773 55.8213 97.705 55.0244L102.732 45.6377H103.761L96.7382 58.4873H95.9648L94.3652 45.6377H95.2441L96.2724 53.9873C96.4247 55.2588 96.5273 56.3281 96.58 57.1953H96.6152Z" fill="black"/>
<path d="M111.036 46.7012C110.878 47.1465 110.696 47.5977 110.491 48.0547C110.286 48.5059 108.637 51.9834 105.543 58.4873H104.822L104.181 45.6377H105.06L105.473 54.6992L105.508 56.1494L105.49 56.9053H105.543C106.041 55.5811 106.539 54.415 107.037 53.4072L110.852 45.6377H111.775L112.311 53.3545C112.422 54.9131 112.478 56.1143 112.478 56.958H112.53C112.706 56.4541 112.885 55.9766 113.066 55.5254C113.254 55.0742 114.701 51.7783 117.408 45.6377H118.358C117.367 47.7764 116.398 49.918 115.448 52.0625C114.505 54.207 113.544 56.3486 112.566 58.4873H111.88L111.194 49.0391C111.13 48.207 111.098 47.5654 111.098 47.1143L111.107 46.7012H111.036Z" fill="black"/>
<path d="M124.775 58.4873H123.835L121.602 52.5283L116.979 58.4873H115.863L121.207 51.7549L118.816 45.6377H119.748L121.857 51.1396L126.102 45.6377H127.148L122.27 51.957L124.775 58.4873Z" fill="black"/>
<path d="M129.936 52.8184L134.718 45.6377H135.746L130.2 53.8291L129.251 58.4873H128.328L129.374 53.6973L127.291 45.6377H128.17L129.936 52.8184Z" fill="black"/>
<path d="M142.113 58.4873H133.983L134.176 57.6787L143.572 46.4639H136.857L137.059 45.6377H144.855L144.688 46.4111L135.292 57.6611H142.315L142.113 58.4873Z" fill="black"/>
</g>
<g id="abcdefghijklm">
<path d="M10.7568 72.7842C12.1162 72.7842 12.9336 73.4258 13.209 74.709H13.2617L13.7803 72.9336H14.4834L12.4707 82.4873H11.75L12.1455 80.0791H12.0928C11.6006 80.9111 11.0527 81.5498 10.4492 81.9951C9.8457 82.4404 9.15137 82.6631 8.36621 82.6631C6.71973 82.6631 5.89648 81.5674 5.89648 79.376C5.89648 78.2217 6.11621 77.1201 6.55566 76.0713C6.99512 75.0225 7.58105 74.2139 8.31348 73.6455C9.05176 73.0713 9.86621 72.7842 10.7568 72.7842ZM8.56836 81.8721C9.08984 81.8721 9.6084 81.6904 10.124 81.3271C10.6455 80.9639 11.1113 80.4775 11.5215 79.8682C11.9375 79.2588 12.2539 78.585 12.4707 77.8467C12.6875 77.1084 12.7959 76.4844 12.7959 75.9746C12.7959 75.5117 12.7197 75.0986 12.5674 74.7354C12.415 74.3662 12.1895 74.0762 11.8906 73.8652C11.5918 73.6484 11.2197 73.54 10.7744 73.54C10.0479 73.54 9.3916 73.7803 8.80566 74.2607C8.21973 74.7412 7.73926 75.4619 7.36426 76.4229C6.98926 77.3779 6.80176 78.3301 6.80176 79.2793C6.80176 80.1699 6.94824 80.8262 7.24121 81.248C7.53418 81.6641 7.97656 81.8721 8.56836 81.8721Z" fill="black"/>
<path d="M19.3649 82.6279C18.7028 82.6279 18.1579 82.4551 17.7302 82.1094C17.3024 81.7637 17.0182 81.2773 16.8776 80.6504H16.8249L16.3415 82.4873H15.6384L18.5124 68.8115H19.3474C18.5798 72.4912 18.1052 74.6914 17.9235 75.4121H17.9763C18.5212 74.498 19.1042 73.8271 19.7253 73.3994C20.3464 72.9658 21.0231 72.749 21.7556 72.749C23.402 72.749 24.2253 73.8477 24.2253 76.0449C24.2253 77.2344 24.0026 78.3477 23.5573 79.3848C23.112 80.4219 22.5231 81.2217 21.7907 81.7842C21.0583 82.3467 20.2497 82.6279 19.3649 82.6279ZM21.5622 73.54C21.029 73.54 20.5016 73.7217 19.9802 74.085C19.4587 74.4424 18.987 74.9375 18.5651 75.5703C18.1491 76.2031 17.8386 76.8916 17.6335 77.6357C17.4284 78.3799 17.3259 78.9834 17.3259 79.4463C17.3259 80.2021 17.5134 80.7969 17.8884 81.2305C18.2634 81.6582 18.7497 81.8721 19.3474 81.8721C20.0739 81.8721 20.7302 81.6289 21.3161 81.1426C21.902 80.6562 22.3825 79.9385 22.7575 78.9893C23.1325 78.04 23.32 77.0879 23.32 76.1328C23.32 75.2422 23.1765 74.5889 22.8893 74.1729C22.6022 73.751 22.1599 73.54 21.5622 73.54Z" fill="black"/>
<path d="M29.2914 82.6631C28.2718 82.6631 27.4662 82.3408 26.8744 81.6963C26.2885 81.0459 25.9955 80.1465 25.9955 78.998C25.9955 77.8672 26.2093 76.8096 26.6371 75.8252C27.0707 74.835 27.6537 74.082 28.3861 73.5664C29.1185 73.0449 29.9681 72.7842 30.9349 72.7842C31.7201 72.7842 32.4261 72.9102 33.0531 73.1621L32.807 73.9531C32.1801 73.6777 31.5414 73.54 30.891 73.54C30.1351 73.54 29.4525 73.7656 28.8431 74.2168C28.2396 74.668 27.765 75.3184 27.4193 76.168C27.0736 77.0176 26.9008 77.9551 26.9008 78.9805C26.9008 79.9062 27.1146 80.6211 27.5424 81.125C27.976 81.623 28.5883 81.8721 29.3793 81.8721C29.7953 81.8721 30.1791 81.834 30.5306 81.7578C30.8881 81.6816 31.2748 81.5469 31.6908 81.3535V82.1621C31.0111 82.4961 30.2113 82.6631 29.2914 82.6631Z" fill="black"/>
<path d="M38.6623 72.7842C40.01 72.7842 40.8274 73.4258 41.1145 74.709H41.1496C41.2199 74.3223 41.6389 72.3564 42.4065 68.8115H43.2766L40.3762 82.4873H39.6555L40.051 80.0791H39.9983C38.9846 81.8018 37.7424 82.6631 36.2717 82.6631C34.6252 82.6631 33.802 81.5674 33.802 79.376C33.802 78.2451 34.01 77.1611 34.426 76.124C34.8479 75.0869 35.4279 74.2725 36.1662 73.6807C36.9045 73.083 37.7365 72.7842 38.6623 72.7842ZM36.4738 81.8721C36.9953 81.8721 37.5168 81.6904 38.0383 81.3271C38.5656 80.958 39.0344 80.4658 39.4445 79.8506C39.8606 79.2295 40.174 78.5527 40.385 77.8203C40.5959 77.082 40.7014 76.4668 40.7014 75.9746C40.7014 75.2363 40.5197 74.6475 40.1565 74.208C39.799 73.7627 39.3069 73.54 38.6799 73.54C37.9533 73.54 37.2971 73.7832 36.7111 74.2695C36.1252 74.7559 35.6447 75.4678 35.2697 76.4053C34.8947 77.3369 34.7072 78.2949 34.7072 79.2793C34.7072 81.0078 35.2961 81.8721 36.4738 81.8721Z" fill="black"/>
<path d="M46.998 82.6631C45.9843 82.6631 45.1933 82.3438 44.6249 81.7051C44.0565 81.0605 43.7724 80.1641 43.7724 79.0156C43.7724 77.9551 43.9804 76.9385 44.3964 75.9658C44.8124 74.9932 45.3837 74.2197 46.1103 73.6455C46.8427 73.0713 47.6483 72.7842 48.5272 72.7842C49.1952 72.7842 49.7284 72.9629 50.1269 73.3203C50.5253 73.6777 50.7245 74.1641 50.7245 74.7793C50.7245 75.8398 50.244 76.6484 49.2831 77.2051C48.328 77.7617 46.9071 78.04 45.0204 78.04H44.7304C44.6952 78.2979 44.6776 78.585 44.6776 78.9014C44.6776 79.8682 44.8944 80.6064 45.328 81.1162C45.7616 81.6201 46.3856 81.8721 47.2001 81.8721C47.9735 81.8721 48.7821 81.6582 49.6259 81.2305V82.0566C48.8056 82.4609 47.9296 82.6631 46.998 82.6631ZM48.4218 73.54C47.6542 73.54 46.9394 73.8799 46.2772 74.5596C45.621 75.2334 45.1464 76.1357 44.8534 77.2666H45.2841C48.3134 77.2666 49.828 76.4756 49.828 74.8936C49.828 74.501 49.6991 74.1787 49.4413 73.9268C49.1894 73.6689 48.8495 73.54 48.4218 73.54Z" fill="black"/>
<path d="M49.8826 86.8115C49.6013 86.8115 49.3025 86.7559 48.9861 86.6445V85.8535C49.2966 85.9473 49.5896 85.9941 49.865 85.9941C50.3806 85.9941 50.7732 85.8389 51.0427 85.5283C51.3123 85.2178 51.532 84.6729 51.7019 83.8936L53.864 73.6455H52.0623L52.1853 73.0566L53.9871 72.9336L54.2947 71.5273C54.4998 70.543 54.8396 69.8281 55.3142 69.3828C55.7947 68.9375 56.4626 68.7148 57.3181 68.7148C57.7458 68.7148 58.2322 68.8057 58.7771 68.9873L58.5574 69.6904C58.0476 69.5322 57.6169 69.4531 57.2654 69.4531C56.7029 69.4531 56.2517 69.6113 55.9119 69.9277C55.5779 70.2383 55.3318 70.7598 55.1736 71.4922L54.866 72.9336H57.0457L56.905 73.6455H54.7253L52.5105 84.1045C52.3171 85.0479 52.0124 85.7334 51.5964 86.1611C51.1804 86.5947 50.6091 86.8115 49.8826 86.8115Z" fill="black"/>
<path d="M65.7856 72.9336L65.6362 73.6279L63.5004 73.7246C63.6528 73.8887 63.7787 74.1348 63.8784 74.4629C63.9838 74.791 64.0366 75.125 64.0366 75.4648C64.0366 76.1035 63.8754 76.71 63.5532 77.2842C63.2368 77.8525 62.8032 78.2773 62.2524 78.5586C61.7075 78.8398 61.0834 78.9805 60.3803 78.9805C60.0112 78.9805 59.7856 78.9541 59.7035 78.9014C59.2348 79.0947 58.8715 79.3086 58.6137 79.543C58.3559 79.7773 58.227 80.0146 58.227 80.2549C58.227 80.4951 58.3178 80.6855 58.4994 80.8262C58.6869 80.9609 59.0209 81.0518 59.5014 81.0986L60.5649 81.1953C62.5922 81.377 63.6059 82.1504 63.6059 83.5156C63.6059 84.1719 63.4155 84.749 63.0346 85.2471C62.6537 85.751 62.1059 86.1377 61.391 86.4072C60.6762 86.6768 59.8237 86.8115 58.8334 86.8115C57.7436 86.8115 56.8881 86.6006 56.267 86.1787C55.6518 85.7568 55.3442 85.1621 55.3442 84.3945C55.3442 83.0117 56.2494 82.0332 58.06 81.459C57.603 81.2129 57.3744 80.8525 57.3744 80.3779C57.3744 79.6572 57.934 79.0654 59.0532 78.6025C58.6371 78.3916 58.3119 78.084 58.0776 77.6797C57.8491 77.2695 57.7348 76.8066 57.7348 76.291C57.7348 75.6406 57.8901 75.043 58.2006 74.498C58.517 73.9531 58.9506 73.5254 59.5014 73.2148C60.058 72.9043 60.6645 72.749 61.3207 72.749C61.725 72.749 62.1557 72.8105 62.6127 72.9336H65.7856ZM56.2407 84.3066C56.2407 84.8984 56.478 85.3379 56.9526 85.625C57.4272 85.9121 58.0834 86.0557 58.9213 86.0557C60.1108 86.0557 61.0395 85.8359 61.7075 85.3965C62.3754 84.9629 62.7094 84.3652 62.7094 83.6035C62.7094 83.1055 62.5248 82.7246 62.1557 82.4609C61.7924 82.1914 61.1537 82.0215 60.2397 81.9512L58.8334 81.8193C57.9135 82.083 57.2514 82.417 56.8471 82.8213C56.4428 83.2314 56.2407 83.7266 56.2407 84.3066ZM58.6225 76.2383C58.6225 76.8945 58.7924 77.3926 59.1323 77.7324C59.478 78.0723 59.9614 78.2422 60.5825 78.2422C61.0981 78.2422 61.5493 78.1338 61.936 77.917C62.3227 77.7002 62.6215 77.3662 62.8325 76.915C63.0493 76.4639 63.1576 75.9688 63.1576 75.4297C63.1576 74.8203 62.9936 74.3486 62.6655 74.0146C62.3373 73.6748 61.8774 73.5049 61.2856 73.5049C60.7407 73.5049 60.269 73.6309 59.8705 73.8828C59.4721 74.1348 59.1645 74.4746 58.9477 74.9023C58.7309 75.3301 58.6225 75.7754 58.6225 76.2383Z" fill="black"/>
<path d="M71.9695 82.4873L73.2791 76.4053C73.4021 75.8662 73.4636 75.4092 73.4636 75.0342C73.4636 74.5654 73.3347 74.1992 73.0769 73.9355C72.825 73.6719 72.4324 73.54 71.8992 73.54C71.2429 73.54 70.6248 73.7363 70.0447 74.1289C69.4705 74.5215 68.9841 75.0723 68.5857 75.7812C68.1931 76.4902 67.8914 77.3281 67.6804 78.2949L66.7839 82.4873H65.9226L68.8406 68.8115H69.6843L68.9285 72.4238C68.6707 73.5957 68.4773 74.4131 68.3484 74.876H68.4011C68.8582 74.2139 69.4031 73.7012 70.0359 73.3379C70.6746 72.9688 71.3484 72.7842 72.0574 72.7842C72.7839 72.7842 73.3464 72.9746 73.7449 73.3555C74.1433 73.7363 74.3425 74.2725 74.3425 74.9639C74.3425 75.374 74.2722 75.9072 74.1316 76.5635L72.8308 82.4873H71.9695Z" fill="black"/>
<path d="M76.8404 82.4873H75.9791L78.0094 72.9336H78.8531L76.8404 82.4873ZM78.3873 70.4814C78.3873 70.1592 78.4517 69.9014 78.5807 69.708C78.7096 69.5146 78.8853 69.418 79.108 69.418C79.442 69.418 79.609 69.6289 79.609 70.0508C79.609 70.3848 79.5445 70.6484 79.4156 70.8418C79.2867 71.0352 79.1197 71.1318 78.9146 71.1318C78.7447 71.1318 78.6129 71.0762 78.5191 70.9648C78.4312 70.8477 78.3873 70.6865 78.3873 70.4814Z" fill="black"/>
<path d="M78.0339 86.8115C77.6706 86.8115 77.3396 86.7559 77.0408 86.6445V85.8359C77.3162 85.9648 77.6472 86.0293 78.0339 86.0293C78.5144 86.0293 78.8923 85.877 79.1677 85.5723C79.4372 85.2734 79.6482 84.7549 79.8005 84.0166L82.1384 72.9336H82.9822L80.6267 84.1045C80.4216 85.0713 80.1081 85.7627 79.6863 86.1787C79.2703 86.6006 78.7195 86.8115 78.0339 86.8115ZM82.5691 70.4814C82.5691 70.1592 82.6335 69.9014 82.7624 69.708C82.8913 69.5146 83.0671 69.418 83.2898 69.418C83.6238 69.418 83.7908 69.6289 83.7908 70.0508C83.7908 70.3848 83.7263 70.6484 83.5974 70.8418C83.4685 71.0352 83.3015 71.1318 83.0964 71.1318C82.9265 71.1318 82.7947 71.0762 82.7009 70.9648C82.613 70.8477 82.5691 70.6865 82.5691 70.4814Z" fill="black"/>
<path d="M86.0478 78.2949L91.4003 72.9336H92.4989L88.3329 77.0557L90.9433 82.4873H90.0116L87.6913 77.5742L85.8896 79.2266L85.1864 82.4873H84.3427L87.2431 68.8115H88.0868L86.6278 75.667L86.0126 78.2949H86.0478Z" fill="black"/>
<path d="M93.4639 82.4873H92.6378L95.5733 68.8115H96.3995L93.4639 82.4873Z" fill="black"/>
<path d="M102.401 82.4873L103.693 76.5635C103.839 75.8311 103.912 75.3564 103.912 75.1396C103.912 74.0732 103.461 73.54 102.559 73.54C101.938 73.54 101.352 73.7393 100.801 74.1377C100.25 74.5303 99.7844 75.0811 99.4035 75.79C99.0227 76.499 98.7297 77.3398 98.5246 78.3125L97.6457 82.4873H96.7844L98.8147 72.9336H99.5178L99.2278 74.7793H99.2805C99.7492 74.1172 100.28 73.6191 100.871 73.2852C101.469 72.9512 102.093 72.7842 102.743 72.7842C103.364 72.7842 103.842 72.9805 104.176 73.373C104.51 73.7656 104.686 74.3369 104.703 75.0869H104.756C105.207 74.3311 105.738 73.7598 106.347 73.373C106.956 72.9805 107.607 72.7842 108.298 72.7842C108.984 72.7842 109.517 72.9658 109.898 73.3291C110.284 73.6865 110.478 74.2021 110.478 74.876C110.478 75.0459 110.469 75.2129 110.451 75.377C110.44 75.5352 110.384 75.8838 110.284 76.4229L108.948 82.4873H108.07L109.379 76.5107C109.526 75.8076 109.599 75.292 109.599 74.9639C109.599 74.5127 109.473 74.1641 109.221 73.918C108.969 73.666 108.62 73.54 108.175 73.54C107.255 73.54 106.441 73.9443 105.732 74.7529C105.029 75.5557 104.536 76.6162 104.255 77.9346L103.297 82.4873H102.401Z" fill="black"/>
</g>
<g id="nopqrstuvwxyz">
<path d="M11.7148 106.487L13.0244 100.405C13.1475 99.8662 13.209 99.4092 13.209 99.0342C13.209 98.5654 13.0801 98.1992 12.8223 97.9355C12.5703 97.6719 12.1777 97.54 11.6445 97.54C10.9883 97.54 10.3701 97.7363 9.79004 98.1289C9.21582 98.5215 8.72949 99.0723 8.33105 99.7812C7.93848 100.484 7.63672 101.322 7.42578 102.295L6.5293 106.487H5.66797L7.69824 96.9336H8.41895L8.09375 98.876H8.14648C9.10742 97.4814 10.3262 96.7842 11.8027 96.7842C12.5645 96.7842 13.1357 96.9717 13.5166 97.3467C13.8975 97.7217 14.0879 98.2607 14.0879 98.9639C14.0879 99.374 14.0176 99.9072 13.877 100.563L12.5762 106.487H11.7148Z" fill="black"/>
<path d="M20.7606 96.749C21.8153 96.749 22.6297 97.0684 23.2039 97.707C23.784 98.3398 24.0741 99.2158 24.0741 100.335C24.0741 101.489 23.8631 102.57 23.4413 103.578C23.0252 104.58 22.4539 105.345 21.7274 105.872C21.0008 106.399 20.1629 106.663 19.2137 106.663C18.1356 106.663 17.3153 106.344 16.7528 105.705C16.1961 105.061 15.9178 104.141 15.9178 102.945C15.9178 101.826 16.1317 100.777 16.5594 99.7988C16.9872 98.8203 17.5643 98.0674 18.2909 97.54C19.0174 97.0127 19.8407 96.749 20.7606 96.749ZM20.6903 97.5049C19.9637 97.5049 19.3104 97.7363 18.7303 98.1992C18.1502 98.6562 17.6873 99.3154 17.3416 100.177C16.9959 101.032 16.8231 101.94 16.8231 102.901C16.8231 104.905 17.6493 105.907 19.3016 105.907C20.0457 105.907 20.7049 105.682 21.2791 105.23C21.8592 104.773 22.3192 104.105 22.659 103.227C23.0047 102.342 23.1776 101.372 23.1776 100.317C23.1776 99.415 22.9637 98.7207 22.536 98.2344C22.1082 97.748 21.493 97.5049 20.6903 97.5049Z" fill="black"/>
<path d="M29.3087 106.628C27.9611 106.628 27.1437 105.986 26.8566 104.703H26.8214C26.7453 105.125 26.3087 107.161 25.5119 110.812H24.6418L27.5949 96.9336H28.3156L27.9201 99.3418H27.9728C28.506 98.4453 29.0773 97.7891 29.6867 97.373C30.3019 96.957 30.9728 96.749 31.6994 96.749C32.4904 96.749 33.0998 97.0215 33.5275 97.5664C33.9552 98.1055 34.1691 98.9316 34.1691 100.045C34.1691 101.188 33.9582 102.274 33.5363 103.306C33.1144 104.337 32.5343 105.148 31.7961 105.74C31.0636 106.332 30.2345 106.628 29.3087 106.628ZM31.506 97.54C30.9962 97.54 30.4865 97.7129 29.9767 98.0586C29.4669 98.3984 28.9923 98.8877 28.5529 99.5264C28.1193 100.165 27.797 100.862 27.5861 101.618C27.3752 102.368 27.2697 102.978 27.2697 103.446C27.2697 104.179 27.4484 104.768 27.8058 105.213C28.1691 105.652 28.6642 105.872 29.2912 105.872C30.0177 105.872 30.6769 105.626 31.2687 105.134C31.8605 104.642 32.341 103.93 32.7101 102.998C33.0793 102.061 33.2638 101.105 33.2638 100.133C33.2638 98.4043 32.6779 97.54 31.506 97.54Z" fill="black"/>
<path d="M40.7627 96.7842C41.4014 96.7842 41.9375 96.9541 42.3711 97.2939C42.8105 97.6338 43.1035 98.123 43.25 98.7617H43.3027L43.7861 96.9336H44.4893L41.6152 110.609H40.7803L41.6416 106.479L42.2041 104H42.1514C41.6064 104.914 41.0234 105.588 40.4023 106.021C39.7812 106.449 39.1045 106.663 38.3721 106.663C36.7256 106.663 35.9023 105.567 35.9023 103.376C35.9023 102.198 36.1221 101.088 36.5615 100.045C37.0068 99.002 37.5957 98.1992 38.3281 97.6367C39.0605 97.0684 39.8721 96.7842 40.7627 96.7842ZM38.5654 105.872C39.1045 105.872 39.6377 105.69 40.165 105.327C40.6924 104.958 41.1611 104.454 41.5713 103.815C41.9873 103.177 42.2949 102.485 42.4941 101.741C42.6992 100.991 42.8018 100.402 42.8018 99.9746C42.8018 99.2129 42.6143 98.6182 42.2393 98.1904C41.8701 97.7568 41.3838 97.54 40.7803 97.54C40.0537 97.54 39.3975 97.7832 38.8115 98.2695C38.2256 98.7559 37.7451 99.4736 37.3701 100.423C36.9951 101.372 36.8076 102.324 36.8076 103.279C36.8076 104.117 36.9395 104.759 37.2031 105.204C37.4727 105.649 37.9268 105.872 38.5654 105.872Z" fill="black"/>
<path d="M51.4836 96.7666C51.8878 96.7666 52.2482 96.8076 52.5646 96.8896L52.38 97.707C52.1046 97.6191 51.7736 97.5752 51.3869 97.5752C50.8361 97.5752 50.3117 97.7627 49.8136 98.1377C49.3156 98.5127 48.8673 99.0752 48.4689 99.8252C48.0705 100.575 47.7775 101.387 47.59 102.26L46.7111 106.487H45.8498L47.88 96.9336H48.5832L48.3283 98.7266H48.381C48.8087 98.1758 49.1691 97.7803 49.4621 97.54C49.755 97.2939 50.0656 97.1035 50.3937 96.9688C50.7277 96.834 51.091 96.7666 51.4836 96.7666Z" fill="black"/>
<path d="M58.0965 103.895C58.0965 104.738 57.7948 105.412 57.1913 105.916C56.5877 106.414 55.7674 106.663 54.7303 106.663C53.7166 106.663 52.8231 106.443 52.0497 106.004V105.063C52.4832 105.333 52.9315 105.541 53.3944 105.688C53.8573 105.834 54.2909 105.907 54.6952 105.907C55.5038 105.907 56.1219 105.74 56.5497 105.406C56.9774 105.066 57.1913 104.586 57.1913 103.965C57.1913 103.719 57.1444 103.502 57.0506 103.314C56.9627 103.127 56.8163 102.948 56.6112 102.778C56.412 102.603 56.0252 102.351 55.451 102.022C54.5838 101.554 53.9979 101.129 53.6932 100.748C53.3885 100.361 53.2362 99.8926 53.2362 99.3418C53.2362 98.5918 53.5233 97.9795 54.0975 97.5049C54.6776 97.0244 55.4393 96.7842 56.3827 96.7842C56.8221 96.7842 57.285 96.8369 57.7713 96.9424C58.2635 97.042 58.6766 97.1768 59.0106 97.3467L58.703 98.1201C57.9061 97.7451 57.1327 97.5576 56.3827 97.5576C55.703 97.5576 55.1581 97.7129 54.7479 98.0234C54.3377 98.334 54.1327 98.7383 54.1327 99.2363C54.1327 99.5586 54.1825 99.8164 54.2821 100.01C54.3817 100.203 54.5575 100.405 54.8094 100.616C55.0672 100.821 55.4188 101.044 55.8641 101.284C56.5321 101.653 57.0038 101.958 57.2791 102.198C57.5604 102.433 57.7655 102.685 57.8944 102.954C58.0291 103.224 58.0965 103.537 58.0965 103.895Z" fill="black"/>
<path d="M65.2033 96.9336L65.0451 97.6455H62.5578L61.3712 103.227C61.2423 103.807 61.1779 104.287 61.1779 104.668C61.1779 105.482 61.547 105.89 62.2853 105.89C62.6837 105.89 63.1291 105.813 63.6212 105.661V106.417C63.0294 106.581 62.5314 106.663 62.1271 106.663C61.547 106.663 61.0988 106.505 60.7824 106.188C60.466 105.866 60.3078 105.4 60.3078 104.791C60.3078 104.363 60.3927 103.76 60.5627 102.98L61.6964 97.6455H60.0968L60.2199 97.0566L61.8371 96.9072L62.6896 94.6836H63.173L62.6896 96.9336H65.2033Z" fill="black"/>
<path d="M67.8628 96.9336L66.5268 103.068C66.3979 103.689 66.3335 104.152 66.3335 104.457C66.3335 104.891 66.4712 105.236 66.7466 105.494C67.0278 105.746 67.435 105.872 67.9682 105.872C68.6128 105.872 69.2192 105.682 69.7876 105.301C70.3618 104.914 70.8423 104.366 71.229 103.657C71.6216 102.942 71.9145 102.122 72.1079 101.196L73.0307 96.9336H73.8921L71.8618 106.487H71.1587L71.4048 104.686H71.352C70.3735 105.98 69.1928 106.628 67.81 106.628C67.0424 106.628 66.4594 106.446 66.061 106.083C65.6684 105.72 65.4721 105.189 65.4721 104.492C65.4721 104.141 65.5366 103.643 65.6655 102.998L66.9839 96.9336H67.8628Z" fill="black"/>
<path d="M76.9964 106.487L75.4847 96.9336H76.3724L77.3216 103.394C77.4739 104.36 77.5706 105.104 77.6116 105.626H77.6644C77.9632 104.952 78.3411 104.202 78.7982 103.376L82.3665 96.9336H83.263L77.9896 106.487H76.9964Z" fill="black"/>
<path d="M89.8127 106.487L89.2853 100.458C89.2033 99.1455 89.1623 98.3662 89.1623 98.1201H89.1095C88.9103 98.6592 88.4884 99.5088 87.8439 100.669L84.715 106.487H83.6867L83.5109 96.9336H84.3195L84.4337 104.149L84.4074 105.529H84.4601C84.8175 104.744 85.257 103.874 85.7785 102.919L89.0568 96.9336H89.7336L90.2961 102.919C90.3781 103.78 90.4191 104.65 90.4191 105.529H90.4718L90.6828 104.993L91.5705 102.919L94.383 96.9336H95.2267L90.7619 106.487H89.8127Z" fill="black"/>
<path d="M98.5877 102.242L95.1336 106.487H94.0702L98.2098 101.574L96.0565 96.9336H96.9354L98.7547 100.994L102.033 96.9336H103.088L99.1502 101.627L101.418 106.487H100.556L98.5877 102.242Z" fill="black"/>
<path d="M103.891 96.9336H104.77L105.491 101.75C105.79 103.807 105.951 105.122 105.974 105.696H106.071C106.323 105.081 106.868 104.006 107.706 102.471L110.764 96.9336H111.669L105.403 108.271C104.981 109.016 104.621 109.537 104.322 109.836C104.029 110.135 103.695 110.372 103.32 110.548C102.951 110.724 102.523 110.812 102.037 110.812C101.638 110.812 101.26 110.75 100.903 110.627V109.818C101.319 109.977 101.72 110.056 102.107 110.056C102.576 110.056 103.006 109.909 103.399 109.616C103.792 109.329 104.172 108.849 104.542 108.175C104.911 107.501 105.204 106.962 105.42 106.558L103.891 96.9336Z" fill="black"/>
<path d="M117.052 106.487H110.645L110.777 105.854L117.597 97.6631H112.824L112.974 96.9336H118.766L118.608 97.6631L111.91 105.749H117.201L117.052 106.487Z" fill="black"/>
</g>
<g id="1234567890">
<path d="M9.71973 130.487H8.79688L10.7744 121.215C10.8857 120.676 11.1025 119.817 11.4248 118.64C11.1787 118.851 10.9561 119.029 10.7568 119.176C10.5635 119.322 9.83398 119.794 8.56836 120.591L8.11133 119.905L11.6797 117.638H12.4707L9.71973 130.487Z" fill="black"/>
<path d="M22.9031 130.487H15.2566L15.45 129.573L19.3963 126.04C20.5564 125.003 21.3885 124.194 21.8924 123.614C22.3963 123.028 22.7654 122.48 22.9998 121.971C23.24 121.461 23.3602 120.934 23.3602 120.389C23.3602 119.732 23.1668 119.211 22.7801 118.824C22.3934 118.438 21.8162 118.244 21.0486 118.244C20.0174 118.244 19.0418 118.622 18.1219 119.378L17.6473 118.736C18.7019 117.881 19.8562 117.453 21.1102 117.453C22.1238 117.453 22.909 117.702 23.4656 118.2C24.0281 118.698 24.3094 119.393 24.3094 120.283C24.3094 120.928 24.1805 121.54 23.9227 122.12C23.6707 122.694 23.2576 123.312 22.6834 123.975C22.1092 124.637 21.198 125.524 19.95 126.638L16.5838 129.608V129.644H23.0525L22.9031 130.487Z" fill="black"/>
<path d="M34.0475 120.169C34.0475 121.118 33.7369 121.924 33.1158 122.586C32.4947 123.248 31.6568 123.667 30.6021 123.843V123.878C31.2877 124.019 31.8297 124.358 32.2281 124.897C32.6324 125.431 32.8346 126.093 32.8346 126.884C32.8346 127.669 32.6471 128.352 32.2721 128.932C31.8971 129.512 31.3697 129.945 30.69 130.232C30.0162 130.52 29.2135 130.663 28.2818 130.663C27.7193 130.663 27.1773 130.604 26.6558 130.487C26.1402 130.364 25.692 130.209 25.3111 130.021V129.134C26.3189 129.638 27.3267 129.89 28.3346 129.89C29.4889 129.89 30.3766 129.629 30.9976 129.107C31.6246 128.58 31.9381 127.839 31.9381 126.884C31.9381 126.034 31.6773 125.381 31.1558 124.924C30.6344 124.467 29.9107 124.238 28.985 124.238H27.9566L28.1412 123.395H29.108C30.3326 123.395 31.3082 123.116 32.0348 122.56C32.7613 121.997 33.1246 121.238 33.1246 120.283C33.1246 119.615 32.9371 119.103 32.5621 118.745C32.193 118.388 31.6422 118.209 30.9098 118.209C29.9312 118.209 28.9234 118.593 27.8863 119.36L27.4557 118.701C27.9478 118.309 28.4986 118.004 29.108 117.787C29.7174 117.564 30.356 117.453 31.024 117.453C31.9674 117.453 32.7057 117.696 33.2389 118.183C33.7779 118.663 34.0475 119.325 34.0475 120.169Z" fill="black"/>
<path d="M44.1547 127.227H41.8344L41.1312 130.487H40.2875L40.9906 127.227H34.9437L35.1195 126.383L42.8627 117.506H43.8998L42.0101 126.453H44.3392L44.1547 127.227ZM41.1488 126.453C41.6117 124.291 41.9603 122.656 42.1947 121.549C42.4291 120.436 42.681 119.396 42.9506 118.429H42.9154C42.5287 118.962 42.1508 119.448 41.7816 119.888L36.0599 126.453H41.1488Z" fill="black"/>
<path d="M49.7707 122.762C50.8722 122.762 51.7277 123.061 52.3371 123.658C52.9523 124.256 53.2599 125.073 53.2599 126.11C53.2599 127.499 52.8263 128.606 51.9592 129.433C51.092 130.253 49.8996 130.663 48.382 130.663C47.8898 130.663 47.3683 130.604 46.8176 130.487C46.2726 130.37 45.8097 130.221 45.4289 130.039V129.099C46.425 129.626 47.4211 129.89 48.4172 129.89C49.6359 129.89 50.5969 129.556 51.3 128.888C52.009 128.214 52.3635 127.294 52.3635 126.128C52.3635 125.308 52.1144 124.666 51.6164 124.203C51.1183 123.734 50.4592 123.5 49.6388 123.5C48.8596 123.5 48.1476 123.62 47.5031 123.86L46.923 123.43L48.6193 117.638H54.1037L53.9455 118.481H49.1906L47.881 123.017C48.4553 122.847 49.0851 122.762 49.7707 122.762Z" fill="black"/>
<path d="M56.0635 126.726C56.0635 125.067 56.3711 123.474 56.9863 121.944C57.6015 120.409 58.3896 119.281 59.3506 118.561C60.3174 117.834 61.4424 117.471 62.7256 117.471C63.4463 117.471 63.9795 117.532 64.3252 117.655L64.167 118.446C63.6631 118.312 63.165 118.244 62.6728 118.244C61.3076 118.244 60.1533 118.754 59.2099 119.773C58.2724 120.793 57.5898 122.264 57.1621 124.186H57.2324C57.6308 123.635 58.1113 123.216 58.6738 122.929C59.2363 122.642 59.8545 122.498 60.5283 122.498C61.4717 122.498 62.2041 122.794 62.7256 123.386C63.2529 123.972 63.5166 124.798 63.5166 125.864C63.5166 126.778 63.3408 127.602 62.9892 128.334C62.6377 129.066 62.1367 129.638 61.4863 130.048C60.8359 130.458 60.083 130.663 59.2275 130.663C58.2256 130.663 57.4463 130.314 56.8896 129.617C56.3388 128.92 56.0635 127.956 56.0635 126.726ZM59.3418 129.89C59.998 129.89 60.5722 129.72 61.0644 129.38C61.5625 129.034 61.9433 128.56 62.207 127.956C62.4765 127.347 62.6113 126.673 62.6113 125.935C62.6113 125.079 62.415 124.423 62.0224 123.966C61.6299 123.503 61.0586 123.271 60.3086 123.271C59.834 123.271 59.3828 123.365 58.9551 123.553C58.5273 123.734 58.1494 123.989 57.8213 124.317C57.4931 124.64 57.2646 124.977 57.1357 125.328C57.0068 125.674 56.9424 126.181 56.9424 126.849C56.9424 127.81 57.1533 128.557 57.5752 129.09C58.0029 129.623 58.5918 129.89 59.3418 129.89Z" fill="black"/>
<path d="M66.6277 130.487L73.6238 118.481H66.8914L67.0935 117.638H74.6345L74.4588 118.604L67.6121 130.487H66.6277Z" fill="black"/>
<path d="M80.8746 117.436C81.8297 117.436 82.5855 117.685 83.1422 118.183C83.6988 118.681 83.9771 119.352 83.9771 120.195C83.9771 121.004 83.731 121.692 83.2388 122.261C82.7466 122.823 81.9117 123.327 80.7339 123.772C81.4957 124.229 82.0523 124.73 82.4039 125.275C82.7554 125.814 82.9312 126.424 82.9312 127.104C82.9312 127.783 82.7613 128.393 82.4214 128.932C82.0816 129.471 81.5953 129.896 80.9625 130.206C80.3355 130.511 79.5738 130.663 78.6773 130.663C77.6343 130.663 76.8023 130.394 76.1812 129.854C75.566 129.31 75.2584 128.565 75.2584 127.622C75.2584 126.69 75.5513 125.905 76.1373 125.267C76.7291 124.622 77.6724 124.071 78.9673 123.614C78.3814 123.192 77.9595 122.747 77.7017 122.278C77.4439 121.81 77.315 121.282 77.315 120.696C77.315 119.765 77.649 118.988 78.317 118.367C78.9849 117.746 79.8375 117.436 80.8746 117.436ZM79.7584 124.045C78.481 124.473 77.5611 124.965 76.9986 125.521C76.442 126.072 76.1636 126.731 76.1636 127.499C76.1636 128.296 76.3892 128.902 76.8404 129.318C77.2974 129.729 77.942 129.934 78.774 129.934C79.7584 129.934 80.5494 129.667 81.147 129.134C81.7447 128.601 82.0435 127.918 82.0435 127.086C82.0435 126.477 81.8619 125.923 81.4986 125.425C81.1353 124.927 80.5552 124.467 79.7584 124.045ZM80.7867 118.191C80.025 118.191 79.3951 118.432 78.897 118.912C78.4048 119.393 78.1588 119.987 78.1588 120.696C78.1588 121.229 78.2789 121.695 78.5191 122.094C78.7652 122.492 79.2281 122.908 79.9078 123.342C81.0328 122.979 81.8502 122.557 82.3599 122.076C82.8697 121.596 83.1246 120.992 83.1246 120.266C83.1246 119.627 82.9166 119.123 82.5005 118.754C82.0904 118.379 81.5191 118.191 80.7867 118.191Z" fill="black"/>
<path d="M93.6185 121.417C93.6185 123.104 93.3197 124.71 92.722 126.233C92.1302 127.757 91.3597 128.876 90.4105 129.591C89.4613 130.306 88.3099 130.663 86.9564 130.663C86.2884 130.663 85.7435 130.599 85.3216 130.47V129.679C85.8314 129.849 86.3939 129.934 87.0091 129.934C89.7865 129.934 91.6234 127.959 92.5199 124.01H92.4496C91.6293 125.135 90.5541 125.697 89.224 125.697C88.2748 125.697 87.5277 125.39 86.9828 124.774C86.4379 124.159 86.1654 123.327 86.1654 122.278C86.1654 121.37 86.3382 120.547 86.6839 119.809C87.0355 119.07 87.5365 118.496 88.1869 118.086C88.8373 117.676 89.5902 117.471 90.4457 117.471C91.4652 117.471 92.2474 117.811 92.7923 118.49C93.3431 119.164 93.6185 120.14 93.6185 121.417ZM90.3402 118.244C89.6839 118.244 89.1039 118.417 88.6 118.763C88.1019 119.103 87.7211 119.577 87.4574 120.187C87.1937 120.796 87.0619 121.47 87.0619 122.208C87.0619 123.058 87.2582 123.717 87.6507 124.186C88.0492 124.654 88.6146 124.889 89.347 124.889C89.8334 124.889 90.2933 124.795 90.7269 124.607C91.1664 124.414 91.5443 124.156 91.8607 123.834C92.183 123.512 92.4086 123.178 92.5375 122.832C92.6664 122.486 92.7308 121.971 92.7308 121.285C92.7308 120.312 92.5228 119.562 92.1068 119.035C91.6908 118.508 91.1019 118.244 90.3402 118.244Z" fill="black"/>
<path d="M103.673 121.558C103.673 122.735 103.553 123.922 103.313 125.117C103.072 126.312 102.73 127.326 102.284 128.158C101.845 128.99 101.309 129.617 100.676 130.039C100.043 130.455 99.3341 130.663 98.549 130.663C97.5177 130.663 96.7414 130.294 96.2199 129.556C95.7043 128.812 95.4464 127.675 95.4464 126.146C95.4464 125.056 95.5753 123.939 95.8332 122.797C96.0968 121.648 96.4601 120.67 96.923 119.861C97.3918 119.047 97.9396 118.44 98.5666 118.042C99.1994 117.638 99.9054 117.436 100.685 117.436C102.677 117.436 103.673 118.81 103.673 121.558ZM100.579 118.209C99.7941 118.209 99.0851 118.54 98.4523 119.202C97.8253 119.864 97.3185 120.828 96.9318 122.094C96.5451 123.359 96.3517 124.681 96.3517 126.058C96.3517 127.358 96.5334 128.322 96.8966 128.949C97.2658 129.576 97.8459 129.89 98.6369 129.89C99.4513 129.89 100.166 129.562 100.781 128.905C101.397 128.249 101.883 127.262 102.24 125.943C102.598 124.625 102.777 123.192 102.777 121.646C102.777 120.479 102.601 119.615 102.249 119.053C101.903 118.49 101.347 118.209 100.579 118.209Z" fill="black"/>
</g>
</g>
<defs>
<clipPath id="clip0">
<rect width="144" height="134.976" fill="white" transform="translate(0 0.511719)"/>
</clipPath>
</defs>
</svg>
