<svg width="152" height="136" viewBox="0 0 152 136" fill="none" xmlns="http://www.w3.org/2000/svg">
<g id="OpenSans_semibold_italic" clip-path="url(#clip0)">
<g id="SemiBold Italic">
<path d="M3.28809 13.7646C2.60905 13.7646 1.74089 13.6165 0.683594 13.3203V11.8984C1.82292 12.4271 2.75944 12.6914 3.49316 12.6914C4.05827 12.6914 4.51172 12.5433 4.85352 12.2471C5.19987 11.9508 5.37305 11.5612 5.37305 11.0781C5.37305 10.6816 5.25911 10.3444 5.03125 10.0664C4.80794 9.78841 4.39323 9.47852 3.78711 9.13672L3.08984 8.7334C2.22852 8.24121 1.62012 7.77865 1.26465 7.3457C0.913737 6.9082 0.738281 6.40007 0.738281 5.82129C0.738281 5.04199 1.02083 4.40169 1.58594 3.90039C2.15104 3.39453 2.87109 3.1416 3.74609 3.1416C4.52539 3.1416 5.34798 3.27148 6.21387 3.53125V4.84375C5.14746 4.42448 4.35221 4.21484 3.82812 4.21484C3.33138 4.21484 2.92122 4.34701 2.59766 4.61133C2.27409 4.87565 2.1123 5.20833 2.1123 5.60938C2.1123 5.94661 2.23079 6.24512 2.46777 6.50488C2.70475 6.76465 3.1377 7.07454 3.7666 7.43457L4.49121 7.84473C5.36621 8.34147 5.97689 8.81087 6.32324 9.25293C6.6696 9.69499 6.84277 10.2259 6.84277 10.8457C6.84277 11.7253 6.51693 12.4316 5.86523 12.9648C5.2181 13.498 4.35905 13.7646 3.28809 13.7646Z" fill="black"/>
<path d="M14.3245 13.2725C13.4221 13.5459 12.6497 13.6826 12.0071 13.6826C10.9133 13.6826 10.0201 13.3203 9.32739 12.5957C8.63924 11.8665 8.29516 10.9232 8.29516 9.76562C8.29516 8.63997 8.59822 7.71712 9.20434 6.99707C9.81502 6.27702 10.5943 5.91699 11.5422 5.91699C12.44 5.91699 13.1327 6.236 13.6204 6.87402C14.1125 7.51204 14.3586 8.41895 14.3586 9.59473L14.3518 10.0117H9.66919C9.86515 11.7754 10.7288 12.6572 12.26 12.6572C12.8206 12.6572 13.5087 12.5068 14.3245 12.2061V13.2725ZM9.73071 9H13.0051C13.0051 7.61914 12.4902 6.92871 11.4602 6.92871C10.4257 6.92871 9.8492 7.61914 9.73071 9Z" fill="black"/>
<path d="M16.6792 13.5117V6.08789H18.0259V7.48242C18.6821 6.44336 19.5252 5.92383 20.5552 5.92383C21.5487 5.92383 22.2254 6.44336 22.5854 7.48242C23.2235 6.4388 24.0529 5.91699 25.0737 5.91699C25.73 5.91699 26.2381 6.11068 26.5981 6.49805C26.9582 6.88086 27.1382 7.41862 27.1382 8.11133V13.5117H25.7847V8.32324C25.7847 7.47559 25.4497 7.05176 24.7798 7.05176C24.0825 7.05176 23.3511 7.54622 22.5854 8.53516V13.5117H21.2319V8.32324C21.2319 7.47103 20.8901 7.04492 20.2065 7.04492C19.5275 7.04492 18.8006 7.54167 18.0259 8.53516V13.5117H16.6792Z" fill="black"/>
<path d="M29.739 13.5117V6.08789H31.0857V13.5117H29.739ZM29.739 4.74121V3.39453H31.0857V4.74121H29.739Z" fill="black"/>
<path d="M33.7344 13.5117V3.39453H36.3594C37.3711 3.39453 38.1458 3.58594 38.6836 3.96875C39.2259 4.35156 39.4971 4.90299 39.4971 5.62305C39.4971 6.84896 38.8044 7.72168 37.4189 8.24121C39.0732 8.74707 39.9004 9.66081 39.9004 10.9824C39.9004 11.8027 39.6269 12.4294 39.0801 12.8623C38.5332 13.2952 37.7448 13.5117 36.7148 13.5117H33.7344ZM35.1562 12.4385H35.4502C36.5029 12.4385 37.1842 12.3724 37.4941 12.2402C38.0866 11.9896 38.3828 11.5247 38.3828 10.8457C38.3828 10.2441 38.1139 9.74512 37.5762 9.34863C37.0384 8.94759 36.3662 8.74707 35.5596 8.74707H35.1562V12.4385ZM35.1562 7.83789H35.6143C36.3799 7.83789 36.9723 7.67383 37.3916 7.3457C37.8154 7.01758 38.0273 6.55501 38.0273 5.95801C38.0273 4.96452 37.2572 4.46777 35.7168 4.46777H35.1562V7.83789Z" fill="black"/>
<path d="M44.7229 13.6826C43.661 13.6826 42.8134 13.3317 42.1799 12.6299C41.5465 11.9235 41.2297 10.9801 41.2297 9.7998C41.2297 8.60579 41.5465 7.66243 42.1799 6.96973C42.8179 6.27246 43.6815 5.92383 44.7707 5.92383C45.8599 5.92383 46.7213 6.27246 47.3547 6.96973C47.9927 7.66243 48.3118 8.60124 48.3118 9.78613C48.3118 10.9984 47.9927 11.9508 47.3547 12.6436C46.7167 13.3363 45.8394 13.6826 44.7229 13.6826ZM44.7434 12.6709C46.1698 12.6709 46.883 11.7093 46.883 9.78613C46.883 7.88574 46.1789 6.93555 44.7707 6.93555C43.3671 6.93555 42.6653 7.8903 42.6653 9.7998C42.6653 11.7139 43.358 12.6709 44.7434 12.6709Z" fill="black"/>
<path d="M50.4067 13.5117V2.71777H51.7534V13.5117H50.4067Z" fill="black"/>
<path d="M59.2077 13.5117V12.1172C58.6609 13.1608 57.836 13.6826 56.7331 13.6826C55.8399 13.6826 55.1358 13.3568 54.6208 12.7051C54.1104 12.0534 53.8552 11.1624 53.8552 10.0322C53.8552 8.7972 54.1446 7.80371 54.7234 7.05176C55.3067 6.2998 56.0723 5.92383 57.0202 5.92383C57.8998 5.92383 58.629 6.26107 59.2077 6.93555V2.71777H60.5613V13.5117H59.2077ZM59.2077 7.8584C58.5105 7.24316 57.8497 6.93555 57.2253 6.93555C55.9356 6.93555 55.2908 7.9222 55.2908 9.89551C55.2908 11.6318 55.865 12.5 57.0134 12.5C57.7608 12.5 58.4923 12.0921 59.2077 11.2764V7.8584Z" fill="black"/>
<path d="M67.6223 13.5117V3.39453H69.0578V13.5117H67.6223Z" fill="black"/>
<path d="M73.9074 13.6826C73.2238 13.6826 72.6906 13.4867 72.3078 13.0947C71.9249 12.7028 71.7335 12.1582 71.7335 11.4609V7.09961H70.8038V6.08789H71.7335V4.74121L73.0802 4.61133V6.08789H75.0216V7.09961H73.0802V11.2148C73.0802 12.1855 73.4995 12.6709 74.338 12.6709C74.5158 12.6709 74.7322 12.6413 74.9874 12.582V13.5117C74.5727 13.6257 74.2127 13.6826 73.9074 13.6826Z" fill="black"/>
<path d="M80.7328 12.5684C79.9262 13.3112 79.1491 13.6826 78.4017 13.6826C77.7865 13.6826 77.2761 13.4912 76.8705 13.1084C76.4649 12.721 76.2621 12.2334 76.2621 11.6455C76.2621 10.8343 76.6016 10.2122 77.2807 9.7793C77.9642 9.3418 78.9418 9.12305 80.2133 9.12305H80.5346V8.22754C80.5346 7.36621 80.0925 6.93555 79.2084 6.93555C78.4975 6.93555 77.7295 7.1543 76.9047 7.5918V6.47754C77.8116 6.1084 78.6615 5.92383 79.4545 5.92383C80.2839 5.92383 80.8946 6.11068 81.2865 6.48438C81.683 6.85807 81.8812 7.43913 81.8812 8.22754V11.5908C81.8812 12.361 82.1182 12.7461 82.5922 12.7461C82.6514 12.7461 82.738 12.737 82.8519 12.7188L82.9476 13.4639C82.6423 13.6097 82.3051 13.6826 81.9359 13.6826C81.307 13.6826 80.906 13.3112 80.7328 12.5684ZM80.5346 11.8369V9.91602L80.0834 9.90234C79.3451 9.90234 78.7481 10.0436 78.2924 10.3262C77.8366 10.6042 77.6088 10.971 77.6088 11.4268C77.6088 11.7503 77.7227 12.0238 77.9506 12.2471C78.1784 12.4704 78.4564 12.582 78.7846 12.582C79.3451 12.582 79.9284 12.3337 80.5346 11.8369Z" fill="black"/>
<path d="M84.6185 13.5117V2.71777H85.9651V13.5117H84.6185Z" fill="black"/>
<path d="M88.6548 13.5117V6.08789H90.0015V13.5117H88.6548ZM88.6548 4.74121V3.39453H90.0015V4.74121H88.6548Z" fill="black"/>
<path d="M95.5896 13.6826C94.587 13.6826 93.7553 13.3112 93.0945 12.5684C92.4337 11.8255 92.1033 10.889 92.1033 9.75879C92.1033 8.55111 92.4292 7.61003 93.0809 6.93555C93.7371 6.26107 94.6508 5.92383 95.8221 5.92383C96.4008 5.92383 97.048 6.00358 97.7635 6.16309V7.29102C97.0024 7.06771 96.3826 6.95605 95.9041 6.95605C95.2159 6.95605 94.6622 7.21582 94.243 7.73535C93.8283 8.25033 93.6209 8.93848 93.6209 9.7998C93.6209 10.6338 93.8351 11.3083 94.2635 11.8232C94.6919 12.3382 95.2524 12.5957 95.9451 12.5957C96.5603 12.5957 97.1938 12.4385 97.8455 12.124V13.2861C96.9751 13.5505 96.2231 13.6826 95.5896 13.6826Z" fill="black"/>
</g>
<g id="ABCDEFGHIJKLM">
<path d="M12.2686 30.9189H8.00586L6.16895 34.4873H3.93652L10.8184 21.6201H13.2266L14.6855 34.4873H12.6289L12.2686 30.9189ZM12.1279 29.0908C11.8936 26.6533 11.7588 25.1797 11.7236 24.6699C11.6943 24.1543 11.6797 23.7441 11.6797 23.4395C11.3574 24.2539 10.9414 25.1533 10.4316 26.1377L8.91992 29.0908H12.1279Z" fill="black"/>
<path d="M22.4691 21.6377C23.7698 21.6377 24.7513 21.8838 25.4134 22.376C26.0814 22.8682 26.4153 23.5947 26.4153 24.5557C26.4153 25.4111 26.1605 26.123 25.6507 26.6914C25.1468 27.2598 24.4466 27.6318 23.5501 27.8076V27.8779C24.1829 28.042 24.6722 28.3467 25.0179 28.792C25.3694 29.2314 25.5452 29.7676 25.5452 30.4004C25.5452 31.6719 25.1058 32.6709 24.2269 33.3975C23.348 34.124 22.1263 34.4873 20.5618 34.4873H16.2464L18.9622 21.6377H22.4691ZM19.929 26.9463H21.678C22.4925 26.9463 23.1224 26.7705 23.5677 26.4189C24.013 26.0615 24.2357 25.5576 24.2357 24.9072C24.2357 23.8994 23.5823 23.3955 22.2757 23.3955H20.6849L19.929 26.9463ZM18.6898 32.7207H20.6497C21.511 32.7207 22.1849 32.5215 22.6712 32.123C23.1634 31.7246 23.4095 31.1562 23.4095 30.418C23.4095 29.8438 23.2337 29.4072 22.8821 29.1084C22.5306 28.8037 22.015 28.6514 21.3353 28.6514H19.5775L18.6898 32.7207Z" fill="black"/>
<path d="M34.7192 23.2549C33.8169 23.2549 33.0112 23.5156 32.3022 24.0371C31.5932 24.5586 31.0249 25.3203 30.5971 26.3223C30.1753 27.3184 29.9643 28.4141 29.9643 29.6094C29.9643 30.6641 30.2046 31.4727 30.685 32.0352C31.1714 32.5918 31.8862 32.8701 32.8296 32.8701C33.6557 32.8701 34.6196 32.6709 35.7212 32.2725V34.0742C34.6665 34.4668 33.5708 34.6631 32.4341 34.6631C30.9809 34.6631 29.8413 34.2295 29.0151 33.3623C28.1948 32.4893 27.7846 31.2676 27.7846 29.6973C27.7846 28.1738 28.0923 26.7588 28.7075 25.4521C29.3286 24.1455 30.1548 23.1523 31.186 22.4727C32.2173 21.793 33.395 21.4531 34.7192 21.4531C35.9907 21.4531 37.1303 21.7227 38.1382 22.2617L37.312 23.9756C36.9428 23.7764 36.5503 23.6064 36.1342 23.4658C35.7182 23.3252 35.2466 23.2549 34.7192 23.2549Z" fill="black"/>
<path d="M48.8978 26.6387C48.8978 28.2266 48.6048 29.6123 48.0189 30.7959C47.4329 31.9795 46.5804 32.8906 45.4612 33.5293C44.3421 34.168 43.0267 34.4873 41.515 34.4873H37.9905L40.7064 21.6377H43.9495C45.5374 21.6377 46.7591 22.0625 47.6146 22.9121C48.47 23.7617 48.8978 25.0039 48.8978 26.6387ZM41.6204 32.7207C42.6575 32.7207 43.5628 32.4688 44.3362 31.9648C45.1097 31.4609 45.7015 30.752 46.1116 29.8379C46.5276 28.9238 46.7357 27.8809 46.7357 26.709C46.7357 25.6309 46.4778 24.8105 45.9622 24.248C45.4466 23.6797 44.6966 23.3955 43.7122 23.3955H42.429L40.4339 32.7207H41.6204Z" fill="black"/>
<path d="M56.8852 34.4873H50.0649L52.7807 21.6377H59.601L59.2231 23.4395H54.4858L53.7475 26.9111H58.1596L57.7993 28.6953H53.3696L52.5258 32.7031H57.2632L56.8852 34.4873Z" fill="black"/>
<path d="M61.6207 34.4873H59.5377L62.2535 21.6377H69.0563L68.6783 23.4395H63.9586L63.1149 27.4297H67.527L67.1315 29.2139H62.7369L61.6207 34.4873Z" fill="black"/>
<path d="M74.8447 27.5176H79.3447L77.9648 33.9863C77.3085 34.2207 76.6669 34.3906 76.04 34.4961C75.4189 34.6074 74.7216 34.6631 73.9482 34.6631C72.4189 34.6631 71.2324 34.2354 70.3886 33.3799C69.5449 32.5244 69.123 31.3145 69.123 29.75C69.123 28.2031 69.4218 26.7881 70.0195 25.5049C70.623 24.2217 71.4726 23.2256 72.5683 22.5166C73.6699 21.8076 74.9208 21.4531 76.3212 21.4531C76.9716 21.4531 77.5956 21.5146 78.1933 21.6377C78.791 21.7549 79.3915 21.957 79.9951 22.2441L79.204 24.0283C78.1845 23.5244 77.206 23.2725 76.2685 23.2725C75.3427 23.2725 74.5019 23.5391 73.746 24.0723C72.9902 24.5996 72.3925 25.3555 71.9531 26.3398C71.5195 27.3184 71.3027 28.4082 71.3027 29.6094C71.3027 30.6816 71.5634 31.4932 72.0849 32.0439C72.6064 32.5947 73.3476 32.8701 74.3085 32.8701C74.9472 32.8701 75.5771 32.7734 76.1982 32.5801L76.9013 29.3193H74.4667L74.8447 27.5176Z" fill="black"/>
<path d="M89.9988 34.4873H87.907L89.1375 28.6953H84.1629L82.9412 34.4873H80.8582L83.574 21.6377H85.657L84.5408 26.8936H89.5154L90.6316 21.6377H92.7146L89.9988 34.4873Z" fill="black"/>
<path d="M93.2647 34.4873L95.9981 21.6377H98.0636L95.3302 34.4873H93.2647Z" fill="black"/>
<path d="M96.6555 38.0732C96.0462 38.0732 95.5481 38 95.1614 37.8535L95.2053 36.0869C95.6975 36.21 96.1458 36.2715 96.5501 36.2715C97.7278 36.2715 98.4719 35.5391 98.7825 34.0742L101.41 21.6377H103.502L100.822 34.3467C100.552 35.6182 100.077 36.5557 99.3977 37.1592C98.7239 37.7686 97.8098 38.0732 96.6555 38.0732Z" fill="black"/>
<path d="M112.92 34.4873H110.618L108.403 28.7305L107.093 29.6094L106.065 34.4873H103.982L106.698 21.6377H108.781L107.454 27.8428L108.693 26.3838L113.017 21.6377H115.513L110.099 27.5176L112.92 34.4873Z" fill="black"/>
<path d="M114.508 34.4873L117.224 21.6377H119.307L116.969 32.6855H121.706L121.328 34.4873H114.508Z" fill="black"/>
<path d="M128.51 34.4873L127.5 23.8174H127.447C127.394 24.5088 127.233 25.5049 126.964 26.8057L125.346 34.4873H123.422L126.137 21.6377H128.976L129.934 31.7363H129.987L135.313 21.6377H138.337L135.656 34.4873H133.661L135.26 26.8232C135.489 25.7334 135.741 24.7314 136.016 23.8174H135.964L130.312 34.4873H128.51Z" fill="black"/>
</g>
<g id="NOPQRSTUVWXYZ">
<path d="M15.4766 58.4873H13.1914L9.58789 48.2656H9.53516L9.44727 48.8721C9.30664 49.7451 9.20117 50.3691 9.13086 50.7441C9.06641 51.1133 8.53027 53.6943 7.52246 58.4873H5.59766L8.31348 45.6377H10.6689L14.1758 55.7363H14.2373C14.2725 55.4199 14.3633 54.8574 14.5098 54.0488C14.6562 53.2344 14.7734 52.6367 14.8613 52.2559L16.2676 45.6377H18.1924L15.4766 58.4873Z" fill="black"/>
<path d="M30.6025 50.3838C30.6025 52.0186 30.3242 53.4746 29.7676 54.752C29.2109 56.0293 28.4434 57.002 27.4648 57.6699C26.4922 58.332 25.3613 58.6631 24.0723 58.6631C22.5547 58.6631 21.3799 58.2266 20.5479 57.3535C19.7158 56.4746 19.2998 55.2617 19.2998 53.7148C19.2998 52.1504 19.5869 50.7236 20.1611 49.4346C20.7412 48.1396 21.5322 47.1494 22.5342 46.4639C23.5361 45.7783 24.6729 45.4355 25.9443 45.4355C27.415 45.4355 28.5576 45.8721 29.3721 46.7451C30.1924 47.6182 30.6025 48.8311 30.6025 50.3838ZM25.7773 47.2373C24.9688 47.2373 24.2363 47.5186 23.5801 48.0811C22.9238 48.6436 22.4082 49.4258 22.0332 50.4277C21.6641 51.4238 21.4795 52.5137 21.4795 53.6973C21.4795 54.7109 21.7168 55.4932 22.1914 56.0439C22.6719 56.5947 23.3398 56.8701 24.1953 56.8701C25.0039 56.8701 25.7305 56.5918 26.375 56.0352C27.0254 55.4727 27.5293 54.6963 27.8867 53.7061C28.25 52.71 28.4316 51.6084 28.4316 50.4014C28.4316 49.4053 28.2002 48.6289 27.7373 48.0723C27.2744 47.5156 26.6211 47.2373 25.7773 47.2373Z" fill="black"/>
<path d="M35.2625 51.9131H36.0887C37.1317 51.9131 37.9373 51.6816 38.5057 51.2188C39.0799 50.75 39.367 50.0879 39.367 49.2324C39.367 48.5938 39.1942 48.1279 38.8485 47.835C38.5086 47.542 37.9842 47.3955 37.2752 47.3955H36.2293L35.2625 51.9131ZM41.494 49.1621C41.494 50.6152 40.9959 51.7314 39.9998 52.5107C39.0096 53.29 37.6268 53.6797 35.8514 53.6797H34.8846L33.8739 58.4873H31.7909L34.5067 45.6377H37.4422C38.784 45.6377 39.7948 45.9336 40.4745 46.5254C41.1541 47.1113 41.494 47.9902 41.494 49.1621Z" fill="black"/>
<path d="M53.9868 50.3838C53.9868 52.2705 53.606 53.9199 52.8443 55.332C52.0826 56.7441 51.0425 57.7168 49.7242 58.25L52.0445 61.5459H49.5044L47.729 58.6631H47.4566C45.939 58.6631 44.7642 58.2266 43.9322 57.3535C43.1001 56.4746 42.6841 55.2617 42.6841 53.7148C42.6841 52.1504 42.9712 50.7236 43.5454 49.4346C44.1255 48.1396 44.9165 47.1494 45.9185 46.4639C46.9204 45.7783 48.0572 45.4355 49.3286 45.4355C50.7993 45.4355 51.9419 45.8721 52.7564 46.7451C53.5767 47.6182 53.9868 48.8311 53.9868 50.3838ZM49.1617 47.2373C48.3531 47.2373 47.6206 47.5186 46.9644 48.0811C46.3081 48.6436 45.7925 49.4258 45.4175 50.4277C45.0484 51.4238 44.8638 52.5137 44.8638 53.6973C44.8638 54.7109 45.1011 55.4932 45.5757 56.0439C46.0562 56.5947 46.7242 56.8701 47.5796 56.8701C48.3882 56.8701 49.1148 56.5947 49.7593 56.0439C50.4097 55.4932 50.9136 54.7227 51.271 53.7324C51.6343 52.7363 51.8159 51.626 51.8159 50.4014C51.8159 49.4053 51.5845 48.6289 51.1216 48.0723C50.6587 47.5156 50.0054 47.2373 49.1617 47.2373Z" fill="black"/>
<path d="M58.3392 53.3545L57.2582 58.4873H55.1752L57.891 45.6377H60.8617C62.1683 45.6377 63.1703 45.916 63.8675 46.4727C64.5648 47.0234 64.9134 47.873 64.9134 49.0215C64.9134 49.9883 64.6586 50.8057 64.1488 51.4736C63.6449 52.1357 62.892 52.6191 61.89 52.9238L64.0785 58.4873H61.7933L59.974 53.3545H58.3392ZM58.7172 51.6143H59.7982C60.7943 51.6143 61.5384 51.3945 62.0306 50.9551C62.5228 50.5156 62.7689 49.9121 62.7689 49.1445C62.7689 48.5293 62.5961 48.0869 62.2504 47.8174C61.9047 47.5479 61.3685 47.4131 60.642 47.4131H59.5961L58.7172 51.6143Z" fill="black"/>
<path d="M73.3316 54.7256C73.3316 55.9561 72.9068 56.9199 72.0572 57.6172C71.2134 58.3145 70.0474 58.6631 68.5591 58.6631C67.3286 58.6631 66.3091 58.4434 65.5005 58.0039V56.0352C66.5142 56.6035 67.5396 56.8877 68.5767 56.8877C69.3794 56.8877 70.0122 56.7178 70.4751 56.3779C70.938 56.0322 71.1695 55.5547 71.1695 54.9453C71.1695 54.541 71.0493 54.1836 70.8091 53.873C70.5689 53.5566 70.065 53.1553 69.2974 52.6689C68.6822 52.2764 68.2281 51.9189 67.9351 51.5967C67.6421 51.2744 67.4165 50.9229 67.2583 50.542C67.106 50.1553 67.0298 49.7305 67.0298 49.2676C67.0298 48.5176 67.2085 47.8525 67.5659 47.2725C67.9292 46.6924 68.439 46.2441 69.0952 45.9277C69.7574 45.6113 70.5015 45.4531 71.3277 45.4531C72.5288 45.4531 73.6451 45.7227 74.6763 46.2617L73.9204 47.9404C72.9771 47.4834 72.1128 47.2549 71.3277 47.2549C70.689 47.2549 70.1763 47.4277 69.7896 47.7734C69.4029 48.1133 69.2095 48.5586 69.2095 49.1094C69.2095 49.3848 69.2534 49.6279 69.3413 49.8389C69.4292 50.0439 69.564 50.2373 69.7456 50.4189C69.9331 50.5947 70.3286 50.873 70.9322 51.2539C71.8404 51.8223 72.4673 52.373 72.813 52.9062C73.1587 53.4336 73.3316 54.04 73.3316 54.7256Z" fill="black"/>
<path d="M79.099 58.4873H77.016L79.3363 47.4395H76.0052L76.4008 45.6377H85.1722L84.7943 47.4395H81.4457L79.099 58.4873Z" fill="black"/>
<path d="M96.1973 45.6377L94.4219 54.04C94.0938 55.6045 93.4844 56.7676 92.5938 57.5293C91.7032 58.2852 90.5225 58.6631 89.0518 58.6631C87.7803 58.6631 86.796 58.3525 86.0987 57.7314C85.4073 57.1104 85.0616 56.2168 85.0616 55.0508C85.0616 54.5645 85.1202 54.0664 85.2374 53.5566L86.9337 45.6377H89.0167L87.3292 53.5918C87.2061 54.1074 87.1446 54.5703 87.1446 54.9805C87.1446 55.5781 87.3174 56.0439 87.6631 56.3779C88.0147 56.7061 88.545 56.8701 89.254 56.8701C90.1036 56.8701 90.7774 56.6357 91.2755 56.167C91.7735 55.6924 92.1368 54.9248 92.3653 53.8643L94.1143 45.6377H96.1973Z" fill="black"/>
<path d="M100.479 56.3076C100.89 55.2646 101.291 54.3594 101.684 53.5918L105.683 45.6377H107.915L101.2 58.4873H98.9325L97.6669 45.6377H99.706L100.356 53.5918C100.409 54.1953 100.441 54.8779 100.453 55.6396L100.444 56.3076H100.479Z" fill="black"/>
<path d="M117.852 58.4873H115.584L115.259 51.0869L115.206 49.4609L115.241 48.5293H115.189C114.913 49.373 114.571 50.2256 114.16 51.0869L110.777 58.4873H108.527L108.061 45.6377H110.073L110.24 53.1084C110.24 53.9053 110.202 54.9189 110.126 56.1494H110.179C110.665 54.8545 111.081 53.8145 111.427 53.0293L114.828 45.6377H116.806L117.078 53.0117L117.105 54.4971L117.078 56.1494H117.149C117.313 55.6338 117.518 55.0566 117.764 54.418C118.01 53.7734 118.189 53.3252 118.3 53.0732L121.447 45.6377H123.609L117.852 58.4873Z" fill="black"/>
<path d="M131.132 58.4873H128.882L127.195 53.2842L123.345 58.4873H121.016L126.166 51.7197L123.969 45.6377H126.131L127.696 50.3838L131.229 45.6377H133.567L128.724 51.8779L131.132 58.4873Z" fill="black"/>
<path d="M137.232 51.5176L141.029 45.6377H143.366L137.891 53.6621L136.889 58.4873H134.797L135.843 53.627L133.751 45.6377H135.878L137.232 51.5176Z" fill="black"/>
<path d="M149.637 58.4873H141.375L141.665 57.0107L149.136 47.457H143.88L144.258 45.6377H152.142L151.834 47.1494L144.346 56.6855H150.015L149.637 58.4873Z" fill="black"/>
</g>
<g id="abcdefghijklm">
<path d="M8.50684 82.6631C7.68066 82.6631 7.02734 82.3672 6.54688 81.7754C6.06641 81.1777 5.82617 80.3398 5.82617 79.2617C5.82617 78.0781 6.02832 76.9707 6.43262 75.9395C6.84277 74.9082 7.40527 74.0938 8.12012 73.4961C8.83496 72.8926 9.62012 72.5908 10.4756 72.5908C11.0439 72.5908 11.5332 72.7256 11.9434 72.9951C12.3535 73.2588 12.6729 73.6455 12.9014 74.1553H12.9893L13.5342 72.7666H15.1162L13.042 82.4873H11.4424L11.627 80.9404H11.5742C10.6484 82.0889 9.62598 82.6631 8.50684 82.6631ZM9.2627 80.9932C9.74316 80.9932 10.2148 80.7676 10.6777 80.3164C11.1406 79.8594 11.5215 79.25 11.8203 78.4883C12.1191 77.7266 12.2686 76.8945 12.2686 75.9922C12.2686 75.4766 12.1309 75.0635 11.8555 74.7529C11.5801 74.4365 11.2197 74.2783 10.7744 74.2783C10.2764 74.2783 9.80762 74.5039 9.36816 74.9551C8.92871 75.4062 8.57715 76.0215 8.31348 76.8008C8.0498 77.5742 7.91797 78.377 7.91797 79.209C7.91797 79.8066 8.03516 80.2549 8.26953 80.5537C8.50977 80.8467 8.84082 80.9932 9.2627 80.9932Z" fill="black"/>
<path d="M20.5057 82.6631C19.9315 82.6631 19.4364 82.5312 19.0204 82.2676C18.6102 82.0039 18.2879 81.6201 18.0536 81.1162H17.9657L17.4032 82.4873H15.8387L18.7391 68.8115H20.8045L20.1805 71.7383C20.1043 72.1074 19.993 72.5674 19.8465 73.1182C19.7 73.6631 19.5829 74.0732 19.495 74.3486H19.5653C20.0926 73.6865 20.576 73.2295 21.0155 72.9775C21.4549 72.7197 21.9266 72.5908 22.4305 72.5908C23.2801 72.5908 23.9422 72.8955 24.4168 73.5049C24.8914 74.1084 25.1288 74.9434 25.1288 76.0098C25.1288 77.1934 24.9237 78.3066 24.5135 79.3496C24.1092 80.3867 23.5526 81.1982 22.8436 81.7842C22.1346 82.3701 21.3553 82.6631 20.5057 82.6631ZM21.6747 74.2783C21.2 74.2783 20.7254 74.5127 20.2508 74.9814C19.7762 75.4502 19.3924 76.0684 19.0995 76.8359C18.8123 77.5977 18.6688 78.3887 18.6688 79.209C18.6688 79.7715 18.8036 80.2109 19.0731 80.5273C19.3485 80.8379 19.7352 80.9932 20.2332 80.9932C20.7313 80.9932 21.1971 80.7646 21.6307 80.3076C22.0643 79.8447 22.4071 79.2295 22.659 78.4619C22.911 77.6885 23.037 76.8828 23.037 76.0449C23.037 74.8672 22.5829 74.2783 21.6747 74.2783Z" fill="black"/>
<path d="M30.418 82.6631C29.2695 82.6631 28.3789 82.3525 27.7461 81.7314C27.1133 81.1104 26.7969 80.2227 26.7969 79.0684C26.7969 77.8555 27.0107 76.7539 27.4385 75.7637C27.8721 74.7676 28.4785 73.9912 29.2578 73.4346C30.0371 72.8721 30.9219 72.5908 31.9121 72.5908C32.873 72.5908 33.7432 72.7695 34.5225 73.127L33.9072 74.7441C33.1924 74.4336 32.5449 74.2783 31.9648 74.2783C31.0859 74.2783 30.3535 74.7295 29.7676 75.6318C29.1816 76.5283 28.8887 77.6387 28.8887 78.9629C28.8887 79.6133 29.0527 80.1143 29.3809 80.4658C29.709 80.8174 30.1631 80.9932 30.7432 80.9932C31.1768 80.9932 31.5811 80.9287 31.9561 80.7998C32.3369 80.6709 32.7178 80.5127 33.0986 80.3252V82.0391C32.2783 82.4551 31.3848 82.6631 30.418 82.6631Z" fill="black"/>
<path d="M39.8275 72.5908C40.8763 72.5908 41.6614 73.1123 42.1829 74.1553H42.2532C42.3294 73.2998 42.4378 72.5674 42.5784 71.958L43.2464 68.8115H45.2943L42.3939 82.4873H40.7767L40.9437 80.9404H40.8821C40.3665 81.5615 39.8685 82.0039 39.388 82.2676C38.9075 82.5312 38.3978 82.6631 37.8587 82.6631C37.0208 82.6631 36.3646 82.3672 35.89 81.7754C35.4153 81.1777 35.178 80.334 35.178 79.2441C35.178 78.043 35.386 76.9209 35.8021 75.8779C36.2239 74.835 36.7864 74.0264 37.4896 73.4521C38.1927 72.8779 38.972 72.5908 39.8275 72.5908ZM38.6497 80.9932C39.1302 80.9932 39.6048 80.7529 40.0735 80.2725C40.5482 79.792 40.9261 79.165 41.2073 78.3916C41.4944 77.6182 41.638 76.8359 41.638 76.0449C41.638 75.5117 41.5091 75.084 41.2513 74.7617C40.9993 74.4395 40.6126 74.2783 40.0911 74.2783C39.5931 74.2783 39.1273 74.5039 38.6937 74.9551C38.2601 75.4062 37.9144 76.0244 37.6566 76.8096C37.3987 77.5947 37.2698 78.3945 37.2698 79.209C37.2698 80.3984 37.7298 80.9932 38.6497 80.9932Z" fill="black"/>
<path d="M50.7189 74.1729C50.1564 74.1729 49.6261 74.4248 49.1281 74.9287C48.6359 75.4326 48.2814 76.0977 48.0646 76.9238H48.3195C49.4211 76.9238 50.2824 76.7686 50.9035 76.458C51.5246 76.1416 51.8351 75.6963 51.8351 75.1221C51.8351 74.8232 51.7414 74.5918 51.5539 74.4277C51.3664 74.2578 51.088 74.1729 50.7189 74.1729ZM49.383 82.6631C48.2287 82.6631 47.3263 82.3379 46.6759 81.6875C46.0314 81.0371 45.7091 80.1289 45.7091 78.9629C45.7091 77.8027 45.9347 76.7246 46.3859 75.7285C46.8429 74.7266 47.4582 73.9531 48.2316 73.4082C49.0109 72.8633 49.881 72.5908 50.8419 72.5908C51.7853 72.5908 52.5177 72.8047 53.0392 73.2324C53.5666 73.6543 53.8302 74.2549 53.8302 75.0342C53.8302 76.1006 53.341 76.9355 52.3625 77.5391C51.3898 78.1367 50.0011 78.4355 48.1964 78.4355H47.8185L47.8009 78.708V78.9629C47.8009 79.6133 47.965 80.123 48.2931 80.4922C48.6271 80.8613 49.1222 81.0459 49.7785 81.0459C50.2003 81.0459 50.6193 80.9902 51.0353 80.8789C51.4513 80.7676 51.9435 80.5771 52.5119 80.3076V81.9512C51.9494 82.209 51.4308 82.3906 50.9562 82.4961C50.4875 82.6074 49.963 82.6631 49.383 82.6631Z" fill="black"/>
<path d="M53.6702 86.8115C53.1429 86.8115 52.7064 86.7441 52.3607 86.6094V84.9395C52.7357 85.0566 53.0696 85.1152 53.3626 85.1152C54.1478 85.1152 54.6663 84.5146 54.9183 83.3135L56.8255 74.3311H55.2523L55.4368 73.3994L57.1419 72.7314L57.3265 71.9229C57.5843 70.7627 57.9769 69.9395 58.5042 69.4531C59.0374 68.9609 59.7903 68.7148 60.763 68.7148C61.4368 68.7148 62.055 68.8408 62.6175 69.0928L62.0814 70.6396C61.6478 70.4756 61.2493 70.3936 60.886 70.3936C60.4818 70.3936 60.1566 70.5195 59.9105 70.7715C59.6702 71.0234 59.4857 71.4365 59.3568 72.0107L59.1985 72.7666H61.2112L60.886 74.3311H58.8734L56.9134 83.5859C56.679 84.6934 56.2952 85.5078 55.762 86.0293C55.2288 86.5508 54.5316 86.8115 53.6702 86.8115Z" fill="black"/>
<path d="M70.5504 72.7666L70.278 73.9707L68.5905 74.2607C68.7545 74.6006 68.8366 75.002 68.8366 75.4648C68.8366 76.5957 68.4879 77.4951 67.7907 78.1631C67.0934 78.8252 66.1588 79.1562 64.9869 79.1562C64.6823 79.1562 64.4127 79.1328 64.1783 79.0859C63.528 79.3203 63.2028 79.625 63.2028 80C63.2028 80.2227 63.2936 80.375 63.4752 80.457C63.6627 80.5391 63.9323 80.6035 64.2838 80.6504L65.4 80.791C66.4313 80.9199 67.1696 81.1777 67.6149 81.5645C68.0602 81.9453 68.2828 82.4932 68.2828 83.208C68.2828 84.3564 67.8405 85.2441 66.9557 85.8711C66.0709 86.498 64.8141 86.8115 63.1852 86.8115C61.9957 86.8115 61.0758 86.5918 60.4254 86.1523C59.7692 85.7129 59.441 85.1094 59.441 84.3418C59.441 83.7383 59.6461 83.2168 60.0563 82.7773C60.4606 82.3379 61.1139 81.9658 62.0162 81.6611C61.5709 81.3975 61.3483 81.0254 61.3483 80.5449C61.3483 80.1406 61.483 79.792 61.7526 79.499C62.028 79.2002 62.4586 78.9131 63.0446 78.6377C62.2535 78.1631 61.858 77.4248 61.858 76.4229C61.858 75.2744 62.2155 74.3486 62.9303 73.6455C63.651 72.9424 64.6002 72.5908 65.778 72.5908C66.2467 72.5908 66.7155 72.6494 67.1842 72.7666H70.5504ZM63.3522 82.3291C62.6959 82.4346 62.192 82.6426 61.8405 82.9531C61.4889 83.2637 61.3131 83.6475 61.3131 84.1045C61.3131 84.4854 61.4742 84.7871 61.7965 85.0098C62.1246 85.2383 62.6227 85.3525 63.2907 85.3525C64.2457 85.3525 64.9928 85.1943 65.5319 84.8779C66.0709 84.5615 66.3405 84.1074 66.3405 83.5156C66.3405 83.2168 66.2086 82.9824 65.945 82.8125C65.6813 82.6426 65.2184 82.5225 64.5563 82.4521L63.3522 82.3291ZM65.7252 73.9707C65.3444 73.9707 65.0104 74.085 64.7233 74.3135C64.4362 74.5361 64.2135 74.8438 64.0553 75.2363C63.8971 75.623 63.818 76.0479 63.818 76.5107C63.818 76.9268 63.9205 77.249 64.1256 77.4775C64.3366 77.7002 64.6354 77.8115 65.0221 77.8115C65.403 77.8115 65.7311 77.6973 66.0065 77.4688C66.2877 77.2402 66.5045 76.9268 66.6569 76.5283C66.8151 76.1299 66.8942 75.6934 66.8942 75.2188C66.8942 74.3867 66.5045 73.9707 65.7252 73.9707Z" fill="black"/>
<path d="M76.063 82.4873L77.311 76.5811C77.4165 76.0537 77.4692 75.6816 77.4692 75.4648C77.4692 74.6738 77.0913 74.2783 76.3354 74.2783C75.6792 74.2783 75.0639 74.6445 74.4897 75.377C73.9214 76.1094 73.5053 77.1113 73.2417 78.3828L72.3803 82.4873H70.3061L73.2065 68.8115H75.2719L74.771 71.1143C74.6128 71.8525 74.3989 72.7109 74.1294 73.6895L73.9624 74.3486H74.0327C74.5249 73.7275 75.0171 73.2793 75.5092 73.0039C76.0073 72.7285 76.5288 72.5908 77.0737 72.5908C77.8706 72.5908 78.4799 72.8193 78.9018 73.2764C79.3296 73.7275 79.5434 74.375 79.5434 75.2188C79.5434 75.6641 79.476 76.1738 79.3413 76.748L78.1196 82.4873H76.063Z" fill="black"/>
<path d="M83.407 70.376C83.407 69.9775 83.5213 69.6553 83.7498 69.4092C83.9783 69.1631 84.3006 69.04 84.7166 69.04C85.0271 69.04 85.2791 69.1191 85.4724 69.2773C85.6658 69.4297 85.7625 69.6641 85.7625 69.9805C85.7625 70.3965 85.6453 70.7246 85.4109 70.9648C85.1765 71.2051 84.8689 71.3252 84.4881 71.3252C84.1775 71.3252 83.9197 71.249 83.7146 71.0967C83.5096 70.9443 83.407 70.7041 83.407 70.376ZM82.9939 82.4873H80.9197L82.9939 72.7666H85.0594L82.9939 82.4873Z" fill="black"/>
<path d="M84.4687 86.8115C83.9413 86.8115 83.5048 86.7441 83.1591 86.6094V84.9395C83.5341 85.0566 83.8769 85.1152 84.1874 85.1152C84.955 85.1152 85.4531 84.5703 85.6816 83.4805L87.9667 72.7666H90.0146L87.6767 83.7266C87.454 84.7871 87.079 85.5664 86.5517 86.0645C86.0302 86.5625 85.3359 86.8115 84.4687 86.8115ZM88.3798 70.376C88.3798 69.9775 88.4911 69.6553 88.7138 69.4092C88.9365 69.1631 89.2558 69.04 89.6718 69.04C89.9882 69.04 90.2402 69.1191 90.4277 69.2773C90.621 69.4297 90.7177 69.6641 90.7177 69.9805C90.7177 70.3965 90.6005 70.7246 90.3661 70.9648C90.1318 71.2051 89.8242 71.3252 89.4433 71.3252C89.1328 71.3252 88.8779 71.252 88.6786 71.1055C88.4794 70.9531 88.3798 70.71 88.3798 70.376Z" fill="black"/>
<path d="M98.213 72.7666H100.604L96.3585 77.0293L98.9161 82.4873H96.6134L94.7765 78.3477L93.5811 79.1914L92.9044 82.4873H90.8302L93.7306 68.8115H95.796C95.005 72.4854 94.5362 74.624 94.3897 75.2275C94.2491 75.8252 94.0763 76.4873 93.8712 77.2139H93.9063L98.213 72.7666Z" fill="black"/>
<path d="M102.393 82.4873H100.336L103.237 68.8115H105.302L102.393 82.4873Z" fill="black"/>
<path d="M111.971 72.5908C113.26 72.5908 114.004 73.2793 114.204 74.6562H114.274C114.713 73.9766 115.211 73.4639 115.768 73.1182C116.331 72.7666 116.914 72.5908 117.517 72.5908C118.296 72.5908 118.888 72.8164 119.293 73.2676C119.703 73.7129 119.908 74.3428 119.908 75.1572C119.908 75.5322 119.843 76.0625 119.714 76.748L118.484 82.4873H116.419L117.675 76.5811C117.787 76.0244 117.842 75.6348 117.842 75.4121C117.842 74.6562 117.488 74.2783 116.779 74.2783C116.146 74.2783 115.554 74.6416 115.003 75.3682C114.459 76.0947 114.06 77.0586 113.808 78.2598L112.92 82.4873H110.855L112.112 76.5811C112.211 76.1006 112.261 75.7285 112.261 75.4648C112.261 74.6738 111.919 74.2783 111.233 74.2783C110.588 74.2783 109.991 74.6504 109.44 75.3945C108.895 76.1387 108.491 77.1289 108.227 78.3652L107.366 82.4873H105.292L107.366 72.7666H108.983L108.798 74.5684H108.878C109.745 73.25 110.776 72.5908 111.971 72.5908Z" fill="black"/>
</g>
<g id="nopqrstuvwxyz">
<path d="M11.1699 106.487L12.418 100.581C12.5234 100.054 12.5762 99.6699 12.5762 99.4297C12.5762 98.6621 12.1982 98.2783 11.4424 98.2783C11.0205 98.2783 10.6045 98.4453 10.1943 98.7793C9.78418 99.1133 9.41504 99.5967 9.08691 100.229C8.75879 100.856 8.5127 101.568 8.34863 102.365L7.4873 106.487H5.41309L7.4873 96.7666H9.10449L8.91992 98.5684H8.99902C9.48535 97.877 9.98633 97.376 10.502 97.0654C11.0176 96.749 11.5771 96.5908 12.1807 96.5908C12.9658 96.5908 13.5723 96.8135 14 97.2588C14.4336 97.7041 14.6504 98.3369 14.6504 99.1572C14.6504 99.5615 14.583 100.092 14.4482 100.748L13.2441 106.487H11.1699Z" fill="black"/>
<path d="M23.014 100.317C23.014 99.6904 22.8704 99.2012 22.5833 98.8496C22.2962 98.4922 21.886 98.3135 21.3528 98.3135C20.8079 98.3135 20.3187 98.5244 19.8851 98.9463C19.4573 99.3623 19.1234 99.9307 18.8831 100.651C18.6487 101.366 18.5316 102.131 18.5316 102.945C18.5316 103.596 18.6751 104.094 18.9622 104.439C19.2552 104.785 19.6859 104.958 20.2542 104.958C20.7816 104.958 21.2562 104.759 21.678 104.36C22.0999 103.962 22.428 103.405 22.6624 102.69C22.8968 101.97 23.014 101.179 23.014 100.317ZM25.097 100.405C25.097 101.589 24.8831 102.667 24.4554 103.64C24.0276 104.606 23.4388 105.351 22.6888 105.872C21.9446 106.388 21.0862 106.646 20.1136 106.646C18.9886 106.646 18.095 106.312 17.4329 105.644C16.7708 104.97 16.4398 104.056 16.4398 102.901C16.4398 101.735 16.6478 100.666 17.0638 99.6934C17.4857 98.7207 18.0745 97.9648 18.8304 97.4258C19.5862 96.8809 20.4593 96.6084 21.4495 96.6084C22.5921 96.6084 23.4857 96.9482 24.1302 97.6279C24.7747 98.3076 25.097 99.2334 25.097 100.405Z" fill="black"/>
<path d="M31.0156 106.663C29.9551 106.663 29.167 106.147 28.6514 105.116H28.5635C28.5225 105.685 28.4492 106.227 28.3438 106.742L27.5 110.812H25.4521L28.4229 96.7666H30.04L29.8555 98.4189H29.9346C30.8545 97.2002 31.8623 96.5908 32.958 96.5908C33.7959 96.5908 34.4521 96.8926 34.9268 97.4961C35.4014 98.0996 35.6387 98.9375 35.6387 100.01C35.6387 101.205 35.4336 102.324 35.0234 103.367C34.6133 104.404 34.0537 105.213 33.3447 105.793C32.6416 106.373 31.8652 106.663 31.0156 106.663ZM32.1846 98.2783C31.71 98.2783 31.2383 98.5127 30.7695 98.9814C30.3008 99.4443 29.917 100.06 29.6182 100.827C29.3252 101.595 29.1787 102.389 29.1787 103.209C29.1787 103.771 29.3135 104.211 29.583 104.527C29.8584 104.838 30.2451 104.993 30.7432 104.993C31.2412 104.993 31.707 104.765 32.1406 104.308C32.5742 103.845 32.917 103.229 33.1689 102.462C33.4209 101.688 33.5469 100.883 33.5469 100.045C33.5469 98.8672 33.0928 98.2783 32.1846 98.2783Z" fill="black"/>
<path d="M41.9738 96.5908C43.0461 96.5908 43.8488 97.1123 44.382 98.1553H44.4699L45.0324 96.7666H46.5968L43.6086 110.812H41.5607L42.2199 107.744C42.2902 107.416 42.4162 106.889 42.5978 106.162C42.7853 105.436 42.8996 105.022 42.9406 104.923H42.8703C42.3781 105.556 41.8976 106.004 41.4289 106.268C40.9601 106.531 40.4621 106.663 39.9347 106.663C39.1203 106.663 38.4787 106.364 38.0099 105.767C37.5412 105.163 37.3068 104.328 37.3068 103.262C37.3068 102.043 37.5207 100.909 37.9484 99.8604C38.3761 98.8115 38.9386 98.0059 39.6359 97.4434C40.339 96.875 41.1183 96.5908 41.9738 96.5908ZM40.8048 104.993C41.2736 104.993 41.7394 104.756 42.2023 104.281C42.6652 103.807 43.0373 103.183 43.3185 102.409C43.6056 101.636 43.7492 100.848 43.7492 100.045C43.7492 99.4941 43.6144 99.0635 43.3449 98.7529C43.0812 98.4365 42.7121 98.2783 42.2375 98.2783C41.7336 98.2783 41.2648 98.5068 40.8312 98.9639C40.3976 99.415 40.049 100.027 39.7853 100.801C39.5275 101.574 39.3986 102.377 39.3986 103.209C39.3986 104.398 39.8673 104.993 40.8048 104.993Z" fill="black"/>
<path d="M54.0112 96.5908C54.3745 96.5908 54.6909 96.626 54.9604 96.6963L54.5122 98.6211C54.1958 98.5391 53.8969 98.498 53.6157 98.498C52.8774 98.498 52.2182 98.8291 51.6382 99.4912C51.0581 100.153 50.6538 101.021 50.4253 102.093L49.4936 106.487H47.4194L49.4936 96.7666H51.1108L50.9262 98.5684H51.0053C51.4917 97.8652 51.978 97.3613 52.4643 97.0566C52.9507 96.7461 53.4663 96.5908 54.0112 96.5908Z" fill="black"/>
<path d="M61.2306 103.499C61.2306 104.513 60.8849 105.295 60.1935 105.846C59.5021 106.391 58.5412 106.663 57.3107 106.663C56.1974 106.663 55.2541 106.467 54.4806 106.074V104.29C55.3771 104.817 56.2912 105.081 57.2228 105.081C57.7912 105.081 58.2511 104.964 58.6027 104.729C58.9543 104.495 59.13 104.176 59.13 103.771C59.13 103.473 59.0275 103.218 58.8224 103.007C58.6232 102.79 58.2101 102.503 57.5832 102.146C56.8507 101.753 56.3322 101.354 56.0275 100.95C55.7287 100.54 55.5793 100.057 55.5793 99.5C55.5793 98.5918 55.8927 97.8799 56.5197 97.3643C57.1466 96.8486 57.9933 96.5908 59.0597 96.5908C60.2082 96.5908 61.2218 96.8369 62.1007 97.3291L61.4328 98.876C60.6125 98.4307 59.8332 98.208 59.0949 98.208C58.6671 98.208 58.3185 98.3047 58.049 98.498C57.7853 98.6914 57.6535 98.9609 57.6535 99.3066C57.6535 99.5703 57.7502 99.8047 57.9435 100.01C58.1369 100.215 58.5324 100.479 59.13 100.801C59.7453 101.146 60.1818 101.442 60.4396 101.688C60.6974 101.935 60.8937 102.204 61.0285 102.497C61.1632 102.784 61.2306 103.118 61.2306 103.499Z" fill="black"/>
<path d="M66.4637 104.993C66.8622 104.993 67.3045 104.902 67.7909 104.721V106.285C67.5858 106.385 67.3075 106.473 66.9559 106.549C66.6043 106.625 66.2528 106.663 65.9012 106.663C64.2957 106.663 63.493 105.939 63.493 104.492C63.493 104.158 63.5399 103.774 63.6336 103.341L64.6971 98.3311H63.2733L63.4579 97.3643L65.1278 96.6436L66.2616 94.6045H67.5448L67.0877 96.7666H69.5399L69.1971 98.3311H66.7625L65.6903 103.358C65.6141 103.681 65.576 103.95 65.576 104.167C65.576 104.419 65.6493 104.621 65.7957 104.773C65.9422 104.92 66.1649 104.993 66.4637 104.993Z" fill="black"/>
<path d="M73.5249 96.7666L72.3911 102.128C72.2095 102.954 72.1187 103.52 72.1187 103.824C72.1187 104.604 72.4908 104.993 73.2349 104.993C73.6568 104.993 74.0757 104.826 74.4917 104.492C74.9077 104.158 75.2769 103.684 75.5992 103.068C75.9214 102.447 76.1704 101.721 76.3462 100.889L77.2163 96.7666H79.2642L77.2163 106.487H75.5904L75.7749 104.686H75.7046C75.2242 105.365 74.7232 105.866 74.2017 106.188C73.6802 106.505 73.1177 106.663 72.5142 106.663C71.729 106.663 71.1226 106.44 70.6949 105.995C70.2671 105.55 70.0533 104.911 70.0533 104.079C70.0533 103.71 70.0884 103.347 70.1587 102.989C70.229 102.626 70.2993 102.263 70.3697 101.899L71.4507 96.7666H73.5249Z" fill="black"/>
<path d="M81.7215 106.487L80.5702 96.7666H82.6092L83.0926 102.022C83.1747 102.954 83.2157 103.824 83.2157 104.633H83.2772C83.4413 104.199 83.6463 103.716 83.8924 103.183C84.1385 102.649 84.3289 102.263 84.4637 102.022L87.1971 96.7666H89.3944L84.1385 106.487H81.7215Z" fill="black"/>
<path d="M95.8771 106.487L95.7101 100.977L95.7013 100.361L95.7277 98.6035C95.5812 98.9668 95.4289 99.333 95.2707 99.7021C95.1183 100.071 94.1076 102.333 92.2384 106.487H89.9357L89.5226 96.7666H91.465L91.5793 102.444C91.5675 102.954 91.5353 103.672 91.4826 104.598H91.5353C91.922 103.566 92.2414 102.77 92.4933 102.207L94.9367 96.7666H97.1691L97.3361 102.075L97.3449 102.541L97.3185 104.598H97.3712C97.4709 104.305 97.6378 103.842 97.8722 103.209C98.1066 102.57 98.2912 102.09 98.4259 101.768C98.5666 101.445 99.3048 99.7783 100.641 96.7666H102.785L98.2326 106.487H95.8771Z" fill="black"/>
<path d="M106.289 103.086L103.608 106.487H101.235L105.41 101.486L103.379 96.7666H105.533L106.798 100.045L109.321 96.7666H111.729L107.677 101.592L109.857 106.487H107.695L106.289 103.086Z" fill="black"/>
<path d="M111.938 96.7666H113.977L114.531 101.434C114.584 101.797 114.63 102.31 114.672 102.972C114.713 103.628 114.733 104.158 114.733 104.562H114.786C115.29 103.303 115.685 102.386 115.972 101.812L118.547 96.7666H120.78L114.733 108.017C114.206 108.983 113.631 109.689 113.01 110.135C112.389 110.586 111.66 110.812 110.822 110.812C110.377 110.812 109.958 110.756 109.565 110.645V108.992C110.005 109.086 110.371 109.133 110.664 109.133C111.097 109.133 111.49 109.004 111.841 108.746C112.193 108.494 112.556 108.04 112.931 107.384L113.38 106.575L111.938 96.7666Z" fill="black"/>
<path d="M126.206 106.487H119.544L119.799 105.195L125.38 98.3311H121.522L121.865 96.7666H128.061L127.736 98.2607L122.26 104.923H126.532L126.206 106.487Z" fill="black"/>
</g>
<g id="1234567890">
<path d="M10.5986 130.487H8.50684L10.168 122.841C10.332 121.962 10.5723 121.013 10.8887 119.993C10.5547 120.315 10.1592 120.614 9.70215 120.89L8.05859 121.918L7.12695 120.424L11.5918 117.638H13.332L10.5986 130.487Z" fill="black"/>
<path d="M22.9207 130.487H14.7557L15.0721 128.905L19.2117 125.196C20.243 124.265 20.9402 123.588 21.3035 123.166C21.6727 122.744 21.9393 122.354 22.1033 121.997C22.2674 121.634 22.3494 121.247 22.3494 120.837C22.3494 120.339 22.2029 119.946 21.91 119.659C21.6228 119.366 21.2156 119.22 20.6883 119.22C20.2781 119.22 19.8709 119.308 19.4666 119.483C19.0623 119.659 18.5643 119.979 17.9725 120.441L16.9617 119.035C17.6648 118.467 18.3416 118.062 18.992 117.822C19.6424 117.576 20.3103 117.453 20.9959 117.453C22.0564 117.453 22.9002 117.726 23.5271 118.271C24.1541 118.815 24.4676 119.551 24.4676 120.477C24.4676 121.109 24.3533 121.698 24.1248 122.243C23.8963 122.788 23.5359 123.348 23.0437 123.922C22.5516 124.49 21.7195 125.275 20.5477 126.277L17.8143 128.598V128.668H23.281L22.9207 130.487Z" fill="black"/>
<path d="M34.3814 120.354C34.3814 121.279 34.0914 122.053 33.5113 122.674C32.9312 123.295 32.1432 123.696 31.1471 123.878V123.939C31.8912 124.08 32.4654 124.391 32.8697 124.871C33.2799 125.352 33.485 125.952 33.485 126.673C33.485 127.452 33.2857 128.146 32.8873 128.756C32.4889 129.359 31.9117 129.828 31.1558 130.162C30.4058 130.496 29.5152 130.663 28.484 130.663C27.1656 130.663 26.0377 130.432 25.1002 129.969V128.079C25.5924 128.366 26.1344 128.589 26.7262 128.747C27.3238 128.899 27.898 128.976 28.4488 128.976C29.3687 128.976 30.0865 128.768 30.6021 128.352C31.1178 127.93 31.3756 127.353 31.3756 126.62C31.3756 125.337 30.5611 124.695 28.9322 124.695H27.7633L28.0885 123.087H29.0201C29.981 123.087 30.7633 122.87 31.3668 122.437C31.9762 121.997 32.2808 121.411 32.2808 120.679C32.2808 120.216 32.1344 119.853 31.8414 119.589C31.5543 119.319 31.1471 119.185 30.6197 119.185C30.1978 119.185 29.7672 119.261 29.3277 119.413C28.8941 119.56 28.4195 119.806 27.9039 120.151L26.9898 118.736C27.693 118.262 28.3521 117.931 28.9674 117.743C29.5885 117.55 30.2535 117.453 30.9625 117.453C32.0348 117.453 32.8726 117.714 33.4762 118.235C34.0797 118.751 34.3814 119.457 34.3814 120.354Z" fill="black"/>
<path d="M43.9437 127.701H42.1771L41.5795 130.487H39.5668L40.1732 127.701H34.7064L35.0316 125.97L42.0892 117.603H44.3217L42.5551 125.97H44.3217L43.9437 127.701ZM40.5336 125.97L41.1312 123.254C41.3129 122.457 41.6058 121.353 42.0101 119.94H41.9398C41.641 120.444 41.2455 120.989 40.7533 121.575L37.0443 125.97H40.5336Z" fill="black"/>
<path d="M50.0168 122.516C51.0773 122.516 51.9211 122.82 52.548 123.43C53.1808 124.033 53.4972 124.868 53.4972 125.935C53.4972 126.878 53.2922 127.707 52.882 128.422C52.4719 129.137 51.8742 129.69 51.089 130.083C50.3039 130.47 49.3547 130.663 48.2414 130.663C46.9875 130.663 45.9474 130.432 45.1213 129.969V128.062C46.0998 128.647 47.1017 128.94 48.1271 128.94C49.1408 128.94 49.9318 128.697 50.5002 128.211C51.0685 127.725 51.3527 127.051 51.3527 126.189C51.3527 125.574 51.1711 125.082 50.8078 124.713C50.4445 124.338 49.8937 124.15 49.1554 124.15C48.5988 124.15 47.9396 124.253 47.1779 124.458L46.4045 123.86L48.1623 117.638H54.4289L54.0334 119.475H49.5861L48.6545 122.674C49.1994 122.568 49.6535 122.516 50.0168 122.516Z" fill="black"/>
<path d="M55.5449 126.567C55.5449 125.366 55.7207 124.177 56.0722 122.999C56.4297 121.821 56.9131 120.816 57.5224 119.984C58.1377 119.152 58.873 118.522 59.7285 118.095C60.5898 117.667 61.5947 117.453 62.7431 117.453C63.4287 117.453 64.0234 117.526 64.5273 117.673L64.1494 119.378C63.7275 119.249 63.1972 119.185 62.5586 119.185C61.3574 119.185 60.3701 119.565 59.5967 120.327C58.8232 121.083 58.2461 122.231 57.8652 123.772H57.9179C58.6504 122.776 59.6054 122.278 60.7832 122.278C61.6972 122.278 62.4092 122.568 62.9189 123.148C63.4345 123.729 63.6924 124.525 63.6924 125.539C63.6924 126.488 63.4902 127.37 63.0859 128.185C62.6875 128.999 62.1455 129.617 61.4599 130.039C60.7744 130.455 59.9834 130.663 59.0869 130.663C57.9502 130.663 57.0742 130.312 56.459 129.608C55.8496 128.905 55.5449 127.892 55.5449 126.567ZM59.2275 128.958C59.7021 128.958 60.1211 128.817 60.4844 128.536C60.8476 128.249 61.1289 127.854 61.3281 127.35C61.5273 126.846 61.6269 126.295 61.6269 125.697C61.6269 124.525 61.1054 123.939 60.0625 123.939C59.7636 123.939 59.4824 123.995 59.2187 124.106C58.9609 124.218 58.7295 124.358 58.5244 124.528C58.3252 124.698 58.1553 124.889 58.0146 125.1C57.874 125.305 57.7597 125.545 57.6719 125.82C57.584 126.09 57.5459 126.421 57.5576 126.813C57.5576 127.458 57.7011 127.977 57.9883 128.369C58.2812 128.762 58.6943 128.958 59.2275 128.958Z" fill="black"/>
<path d="M65.5818 130.487L72.2088 119.439H66.2849L66.6629 117.638H74.8543L74.5642 119.114L67.9021 130.487H65.5818Z" fill="black"/>
<path d="M80.8218 117.436C81.8707 117.436 82.6998 117.696 83.3091 118.218C83.9185 118.739 84.2232 119.439 84.2232 120.318C84.2232 121.092 83.9918 121.766 83.5289 122.34C83.066 122.908 82.3394 123.386 81.3492 123.772C82.0523 124.229 82.5562 124.716 82.8609 125.231C83.1714 125.741 83.3267 126.33 83.3267 126.998C83.3267 127.707 83.1451 128.343 82.7818 128.905C82.4244 129.462 81.9117 129.896 81.2437 130.206C80.5757 130.511 79.7818 130.663 78.8619 130.663C77.6724 130.663 76.7408 130.37 76.067 129.784C75.399 129.198 75.065 128.413 75.065 127.429C75.065 125.688 76.1431 124.423 78.2994 123.632C77.7662 123.222 77.3824 122.797 77.148 122.357C76.9195 121.918 76.8052 121.443 76.8052 120.934C76.8052 119.885 77.1773 119.041 77.9214 118.402C78.6656 117.758 79.6324 117.436 80.8218 117.436ZM79.6177 124.581C78.7447 124.897 78.1119 125.27 77.7193 125.697C77.3267 126.119 77.1304 126.635 77.1304 127.244C77.1304 127.789 77.3033 128.226 77.649 128.554C77.9947 128.882 78.4576 129.046 79.0377 129.046C79.7115 129.046 80.2505 128.858 80.6548 128.483C81.065 128.108 81.2701 127.619 81.2701 127.016C81.2701 126.482 81.1265 126.022 80.8394 125.636C80.5582 125.243 80.1509 124.892 79.6177 124.581ZM80.6461 119.062C80.1011 119.062 79.6617 119.226 79.3277 119.554C78.9937 119.882 78.8267 120.315 78.8267 120.854C78.8267 121.341 78.941 121.742 79.1695 122.059C79.398 122.375 79.7027 122.647 80.0836 122.876C80.7574 122.624 81.2759 122.316 81.6392 121.953C82.0084 121.59 82.1929 121.13 82.1929 120.573C82.1929 120.099 82.0523 119.729 81.7711 119.466C81.4898 119.196 81.1148 119.062 80.6461 119.062Z" fill="black"/>
<path d="M93.7943 121.54C93.7943 122.741 93.6244 123.957 93.2845 125.188C92.9447 126.412 92.4964 127.435 91.9398 128.255C91.389 129.069 90.7269 129.676 89.9535 130.074C89.1859 130.467 88.2777 130.663 87.2289 130.663C86.4496 130.663 85.7464 130.569 85.1195 130.382V128.562C85.8285 128.814 86.5199 128.94 87.1937 128.94C88.2953 128.94 89.1918 128.58 89.8832 127.859C90.5746 127.139 91.0931 125.999 91.4388 124.44H91.3861C90.724 125.378 89.8304 125.847 88.7054 125.847C87.7386 125.847 86.9886 125.548 86.4554 124.95C85.9281 124.353 85.6644 123.509 85.6644 122.419C85.6644 121.505 85.8607 120.658 86.2533 119.879C86.6459 119.1 87.1908 118.502 87.888 118.086C88.5912 117.664 89.3968 117.453 90.305 117.453C91.43 117.453 92.2914 117.805 92.889 118.508C93.4925 119.205 93.7943 120.216 93.7943 121.54ZM90.1468 119.167C89.6664 119.167 89.2386 119.305 88.8636 119.58C88.4945 119.855 88.2103 120.236 88.0111 120.723C87.8119 121.209 87.7123 121.733 87.7123 122.296C87.7123 122.911 87.847 123.38 88.1166 123.702C88.3861 124.024 88.7787 124.186 89.2943 124.186C89.9798 124.186 90.5599 123.91 91.0345 123.359C91.5091 122.809 91.7464 122.105 91.7464 121.25C91.7464 120.617 91.6058 120.113 91.3246 119.738C91.0433 119.357 90.6507 119.167 90.1468 119.167Z" fill="black"/>
<path d="M103.893 121.593C103.893 123.386 103.661 124.988 103.198 126.4C102.736 127.807 102.094 128.87 101.274 129.591C100.453 130.306 99.5011 130.663 98.4171 130.663C97.2804 130.663 96.4308 130.291 95.8683 129.547C95.3117 128.797 95.0334 127.73 95.0334 126.348C95.0334 124.684 95.2765 123.143 95.7628 121.725C96.2492 120.307 96.8996 119.237 97.714 118.517C98.5343 117.796 99.4777 117.436 100.544 117.436C101.64 117.436 102.472 117.784 103.04 118.481C103.609 119.173 103.893 120.21 103.893 121.593ZM100.377 119.167C99.8087 119.167 99.2814 119.495 98.7951 120.151C98.3087 120.808 97.9074 121.725 97.591 122.902C97.2804 124.074 97.1252 125.229 97.1252 126.365C97.1252 127.203 97.2394 127.842 97.4679 128.281C97.6964 128.721 98.0744 128.94 98.6017 128.94C99.1877 128.94 99.7209 128.609 100.201 127.947C100.688 127.279 101.074 126.351 101.361 125.161C101.654 123.972 101.801 122.759 101.801 121.522C101.801 119.952 101.326 119.167 100.377 119.167Z" fill="black"/>
</g>
</g>
<defs>
<clipPath id="clip0">
<rect width="152" height="134.976" fill="white" transform="translate(0 0.511719)"/>
</clipPath>
</defs>
</svg>
