<svg width="155" height="136" viewBox="0 0 155 136" fill="none" xmlns="http://www.w3.org/2000/svg">
<g id="OpenSans_light">
<g id="Light">
<path d="M1.30566 13.5117V3.39453H2.74121V12.4385H7.29395V13.5117H1.30566Z" fill="black"/>
<path d="M8.80062 13.5117V6.08789H10.1473V13.5117H8.80062ZM8.80062 4.74121V3.39453H10.1473V4.74121H8.80062Z" fill="black"/>
<path d="M12.8639 15.9795L13.0212 14.8105C13.8005 15.1797 14.5684 15.3643 15.3249 15.3643C16.8425 15.3643 17.6012 14.5599 17.6012 12.9512V11.7822C17.1045 12.8213 16.2887 13.3408 15.154 13.3408C14.2653 13.3408 13.5589 13.0173 13.0348 12.3701C12.5108 11.723 12.2487 10.8503 12.2487 9.75195C12.2487 8.62174 12.5472 7.70117 13.1442 6.99023C13.7412 6.2793 14.5137 5.92383 15.4616 5.92383C16.291 5.92383 17.0042 6.26107 17.6012 6.93555V6.08789H18.9548V11.4883C18.9548 12.6504 18.8932 13.5094 18.7702 14.0654C18.6517 14.626 18.4261 15.084 18.0934 15.4395C17.5055 16.0638 16.5918 16.376 15.3522 16.376C14.4863 16.376 13.6569 16.2438 12.8639 15.9795ZM17.6012 10.9414V7.8584C17.0088 7.24316 16.3639 6.93555 15.6667 6.93555C15.0469 6.93555 14.5615 7.18392 14.2106 7.68066C13.8597 8.17741 13.6843 8.85872 13.6843 9.72461C13.6843 11.3516 14.2562 12.165 15.4001 12.165C16.1794 12.165 16.9131 11.7572 17.6012 10.9414Z" fill="black"/>
<path d="M21.576 13.5117V2.71777H22.9227V7.48242C23.6336 6.44336 24.5041 5.92383 25.534 5.92383C26.1766 5.92383 26.6893 6.12891 27.0721 6.53906C27.4549 6.94466 27.6463 7.49154 27.6463 8.17969V13.5117H26.2997V8.61719C26.2997 8.06576 26.2176 7.67383 26.0536 7.44141C25.8941 7.20443 25.6275 7.08594 25.2538 7.08594C24.4289 7.08594 23.6519 7.62598 22.9227 8.70605V13.5117H21.576Z" fill="black"/>
<path d="M32.503 13.6826C31.8194 13.6826 31.2862 13.4867 30.9033 13.0947C30.5205 12.7028 30.3291 12.1582 30.3291 11.4609V7.09961H29.3994V6.08789H30.3291V4.74121L31.6758 4.61133V6.08789H33.6172V7.09961H31.6758V11.2148C31.6758 12.1855 32.0951 12.6709 32.9336 12.6709C33.1114 12.6709 33.3278 12.6413 33.583 12.582V13.5117C33.1683 13.6257 32.8083 13.6826 32.503 13.6826Z" fill="black"/>
</g>
<g id="ABCDEFGHIJKLM">
<path d="M13.0068 29.9521H7.78613L5.99316 34.4873H5L10.168 21.585H10.7393L15.8018 34.4873H14.791L13.0068 29.9521ZM8.11133 29.1436H12.708L10.959 24.5117C10.8125 24.1484 10.6367 23.6445 10.4316 23C10.2734 23.5625 10.1006 24.0723 9.91309 24.5293L8.11133 29.1436Z" fill="black"/>
<path d="M17.6317 21.6377H21.1561C22.744 21.6377 23.91 21.9072 24.6541 22.4463C25.3983 22.9854 25.7704 23.7998 25.7704 24.8896C25.7704 25.6338 25.5418 26.2549 25.0848 26.7529C24.6336 27.2451 23.9715 27.5615 23.0985 27.7021V27.7549C24.1239 27.9072 24.8768 28.2324 25.3573 28.7305C25.8436 29.2227 26.0868 29.9111 26.0868 30.7959C26.0868 31.9795 25.6942 32.8906 24.909 33.5293C24.1239 34.168 23.0106 34.4873 21.5692 34.4873H17.6317V21.6377ZM18.5282 27.3594H21.3582C22.5653 27.3594 23.4413 27.1602 23.9862 26.7617C24.537 26.3574 24.8123 25.7275 24.8123 24.8721C24.8123 24.0166 24.5018 23.3955 23.8807 23.0088C23.2655 22.6221 22.3456 22.4287 21.1209 22.4287H18.5282V27.3594ZM18.5282 28.1504V33.6963H21.5516C23.9305 33.6963 25.12 32.7295 25.12 30.7959C25.12 29.0322 23.8661 28.1504 21.3582 28.1504H18.5282Z" fill="black"/>
<path d="M34.403 22.2617C32.7917 22.2617 31.5231 22.7773 30.5973 23.8086C29.6716 24.8398 29.2087 26.252 29.2087 28.0449C29.2087 29.8789 29.6452 31.3027 30.5182 32.3164C31.3913 33.3301 32.6393 33.8369 34.2624 33.8369C35.3405 33.8369 36.3307 33.6992 37.2331 33.4238V34.2148C36.3835 34.5137 35.3229 34.6631 34.0515 34.6631C32.2468 34.6631 30.8259 34.0801 29.7888 32.9141C28.7516 31.748 28.2331 30.1191 28.2331 28.0273C28.2331 26.7207 28.4792 25.5693 28.9714 24.5732C29.4694 23.5771 30.1813 22.8096 31.1071 22.2705C32.0388 21.7256 33.1198 21.4531 34.3503 21.4531C35.6042 21.4531 36.7263 21.6875 37.7165 22.1562L37.3561 22.9648C36.4186 22.4961 35.4343 22.2617 34.403 22.2617Z" fill="black"/>
<path d="M49.856 27.9395C49.856 30.0957 49.2906 31.7275 48.1597 32.835C47.0288 33.9365 45.3677 34.4873 43.1763 34.4873H40.1001V21.6377H43.5718C45.6226 21.6377 47.1812 22.1738 48.2476 23.2461C49.3199 24.3184 49.856 25.8828 49.856 27.9395ZM48.8804 27.9746C48.8804 26.1348 48.4117 24.752 47.4742 23.8262C46.5425 22.8945 45.1714 22.4287 43.3609 22.4287H40.9966V33.6963H43.1236C46.9615 33.6963 48.8804 31.7891 48.8804 27.9746Z" fill="black"/>
<path d="M59.8334 34.4873H52.8109V21.6377H59.8334V22.4639H53.7074V27.3242H59.4906V28.1504H53.7074V33.6611H59.8334V34.4873Z" fill="black"/>
<path d="M63.6354 34.4873H62.739V21.6377H69.779V22.4639H63.6354V27.9131H69.4362V28.748H63.6354V34.4873Z" fill="black"/>
<path d="M76.8296 28.0098H81.5669V33.8721C80.3247 34.3994 78.9273 34.6631 77.3745 34.6631C75.3472 34.6631 73.7915 34.0918 72.7076 32.9492C71.6294 31.8008 71.0904 30.1777 71.0904 28.0801C71.0904 26.7734 71.357 25.6162 71.8902 24.6084C72.4292 23.5947 73.1968 22.8125 74.1929 22.2617C75.1949 21.7109 76.3433 21.4355 77.6382 21.4355C79.0386 21.4355 80.2954 21.6934 81.4087 22.209L81.0484 23.0176C79.9351 22.502 78.7808 22.2441 77.5855 22.2441C75.8921 22.2441 74.5474 22.7686 73.5513 23.8174C72.5611 24.8604 72.0659 26.2695 72.0659 28.0449C72.0659 29.9785 72.5376 31.4346 73.481 32.4131C74.4243 33.3857 75.8101 33.8721 77.6382 33.8721C78.8218 33.8721 79.8267 33.7051 80.6529 33.3711V28.8535H76.8296V28.0098Z" fill="black"/>
<path d="M94.1107 34.4873H93.2054V28.168H85.6996V34.4873H84.8031V21.6377H85.6996V27.3418H93.2054V21.6377H94.1107V34.4873Z" fill="black"/>
<path d="M97.7618 34.4873V21.6377H98.6583V34.4873H97.7618Z" fill="black"/>
<path d="M100.189 37.7305C99.6503 37.7305 99.2079 37.6514 98.8622 37.4932V36.7197C99.3192 36.8369 99.7558 36.8955 100.172 36.8955C101.59 36.8955 102.299 36.1221 102.299 34.5752V21.6377H103.195V34.4873C103.195 36.6494 102.193 37.7305 100.189 37.7305Z" fill="black"/>
<path d="M115.387 34.4873H114.289L109.358 27.7021L107.644 29.2139V34.4873H106.748V21.6377H107.644V28.3174L109.068 26.8936L114.104 21.6377H115.247L109.982 27.0693L115.387 34.4873Z" fill="black"/>
<path d="M117.209 34.4873V21.6377H118.105V33.6436H124.231V34.4873H117.209Z" fill="black"/>
<path d="M132.11 34.4873L127.32 22.6221H127.249C127.296 23.3486 127.32 24.0928 127.32 24.8545V34.4873H126.458V21.6377H127.847L132.4 32.9404H132.452L137.005 21.6377H138.359V34.4873H137.453V24.749C137.453 24.0693 137.489 23.3662 137.559 22.6396H137.489L132.681 34.4873H132.11Z" fill="black"/>
</g>
<g id="NOPQRSTUVWXYZ">
<path d="M16.1621 58.4873H15.2568L7.64551 47.0791H7.5752C7.64551 48.4385 7.68066 49.4639 7.68066 50.1553V58.4873H6.81934V45.6377H7.71582L15.3184 57.0283H15.3711C15.3184 55.9736 15.292 54.9717 15.292 54.0225V45.6377H16.1621V58.4873Z" fill="black"/>
<path d="M30.6149 52.0449C30.6149 54.084 30.1052 55.6982 29.0856 56.8877C28.0661 58.0713 26.6599 58.6631 24.8669 58.6631C23.0798 58.6631 21.6765 58.0713 20.6569 56.8877C19.6374 55.6982 19.1276 54.0781 19.1276 52.0273C19.1276 49.9824 19.6403 48.374 20.6657 47.2021C21.697 46.0244 23.1032 45.4355 24.8845 45.4355C26.6774 45.4355 28.0807 46.0273 29.0944 47.2109C30.1081 48.3887 30.6149 50 30.6149 52.0449ZM20.1032 52.0449C20.1032 53.8848 20.5134 55.3086 21.3337 56.3164C22.154 57.3184 23.3317 57.8193 24.8669 57.8193C26.4138 57.8193 27.5944 57.3213 28.4089 56.3252C29.2292 55.3291 29.6393 53.9023 29.6393 52.0449C29.6393 50.1934 29.2292 48.7754 28.4089 47.791C27.5944 46.8008 26.4196 46.3057 24.8845 46.3057C23.3552 46.3057 22.1745 46.8037 21.3425 47.7998C20.5163 48.7959 20.1032 50.2109 20.1032 52.0449Z" fill="black"/>
<path d="M41.3148 49.3291C41.3148 50.5713 40.8929 51.5234 40.0492 52.1855C39.2054 52.8477 38.0101 53.1787 36.4633 53.1787H34.4769V58.4873H33.5804V45.6377H36.7269C39.7855 45.6377 41.3148 46.8682 41.3148 49.3291ZM34.4769 52.4053H36.2435C37.6908 52.4053 38.7367 52.168 39.3812 51.6934C40.0258 51.2129 40.348 50.4365 40.348 49.3643C40.348 48.374 40.0433 47.6416 39.434 47.167C38.8246 46.6865 37.8812 46.4463 36.6039 46.4463H34.4769V52.4053Z" fill="black"/>
<path d="M54.9151 52.0449C54.9151 53.7676 54.546 55.1943 53.8077 56.3252C53.0694 57.4502 52.0469 58.1709 50.7403 58.4873L53.667 61.5459H52.2081L49.7295 58.6455L49.4395 58.6631H49.167C47.3799 58.6631 45.9766 58.0713 44.9571 56.8877C43.9376 55.6982 43.4278 54.0781 43.4278 52.0273C43.4278 49.9824 43.9405 48.374 44.9659 47.2021C45.9971 46.0244 47.4034 45.4355 49.1846 45.4355C50.9776 45.4355 52.3809 46.0273 53.3946 47.2109C54.4083 48.3887 54.9151 50 54.9151 52.0449ZM44.4034 52.0449C44.4034 53.8848 44.8135 55.3086 45.6338 56.3164C46.4542 57.3184 47.6319 57.8193 49.167 57.8193C50.7139 57.8193 51.8946 57.3213 52.709 56.3252C53.5294 55.3291 53.9395 53.9023 53.9395 52.0449C53.9395 50.1934 53.5294 48.7754 52.709 47.791C51.8946 46.8008 50.7198 46.3057 49.1846 46.3057C47.6553 46.3057 46.4747 46.8037 45.6426 47.7998C44.8165 48.7959 44.4034 50.2109 44.4034 52.0449Z" fill="black"/>
<path d="M58.7771 52.8887V58.4873H57.8806V45.6377H60.9392C62.533 45.6377 63.7107 45.9336 64.4724 46.5254C65.2341 47.1113 65.615 47.9961 65.615 49.1797C65.615 50.041 65.3865 50.7676 64.9294 51.3594C64.4783 51.9512 63.7898 52.376 62.864 52.6338L66.3533 58.4873H65.281L61.9675 52.8887H58.7771ZM58.7771 52.1152H61.2292C62.3132 52.1152 63.154 51.875 63.7517 51.3945C64.3494 50.9082 64.6482 50.1934 64.6482 49.25C64.6482 48.2715 64.3552 47.5596 63.7693 47.1143C63.1833 46.6689 62.2283 46.4463 60.904 46.4463H58.7771V52.1152Z" fill="black"/>
<path d="M75.6821 55.1738C75.6821 56.2461 75.2866 57.0957 74.4955 57.7227C73.7104 58.3496 72.6645 58.6631 71.3578 58.6631C69.7875 58.6631 68.5834 58.4902 67.7455 58.1445V57.248C68.6713 57.6406 69.852 57.8369 71.2875 57.8369C72.3422 57.8369 73.1772 57.5967 73.7924 57.1162C74.4135 56.6299 74.7241 55.9941 74.7241 55.209C74.7241 54.7227 74.6215 54.3213 74.4164 54.0049C74.2114 53.6826 73.8774 53.3896 73.4145 53.126C72.9516 52.8623 72.2719 52.5781 71.3754 52.2734C70.0629 51.8223 69.1547 51.3359 68.6508 50.8145C68.1528 50.2871 67.9037 49.5869 67.9037 48.7139C67.9037 47.7529 68.2787 46.9707 69.0287 46.3672C69.7846 45.7578 70.7543 45.4531 71.9379 45.4531C73.145 45.4531 74.2787 45.6816 75.3393 46.1387L75.0141 46.9121C73.9477 46.4668 72.9282 46.2441 71.9555 46.2441C71.0063 46.2441 70.2504 46.4639 69.6879 46.9033C69.1254 47.3428 68.8442 47.9404 68.8442 48.6963C68.8442 49.1709 68.9291 49.5605 69.0991 49.8652C69.2748 50.1699 69.559 50.4453 69.9516 50.6914C70.3442 50.9316 71.018 51.2217 71.9731 51.5615C72.975 51.9072 73.728 52.2441 74.2319 52.5723C74.7358 52.8945 75.102 53.2637 75.3305 53.6797C75.5649 54.0898 75.6821 54.5879 75.6821 55.1738Z" fill="black"/>
<path d="M81.7447 58.4873H80.8394V46.4814H76.6646V45.6377H85.9195V46.4814H81.7447V58.4873Z" fill="black"/>
<path d="M97.282 45.6377V53.9521C97.282 55.4287 96.8542 56.583 95.9988 57.415C95.1433 58.2471 93.9509 58.6631 92.4216 58.6631C90.9333 58.6631 89.7703 58.2471 88.9324 57.415C88.1003 56.5771 87.6843 55.4111 87.6843 53.917V45.6377H88.5896V53.9521C88.5896 55.1885 88.9324 56.1523 89.6179 56.8438C90.3035 57.5293 91.2732 57.8721 92.5271 57.8721C93.7517 57.8721 94.7009 57.5352 95.3747 56.8613C96.0486 56.1816 96.3855 55.2412 96.3855 54.04V45.6377H97.282Z" fill="black"/>
<path d="M108.386 45.6377H109.362L104.554 58.4873H103.763L98.9731 45.6377H99.9311L103.165 54.3828C103.658 55.7012 103.989 56.6914 104.159 57.3535C104.276 56.9141 104.507 56.2314 104.853 55.3057L108.386 45.6377Z" fill="black"/>
<path d="M121.422 58.4873H120.684L117.863 48.5732C117.628 47.7588 117.452 47.0908 117.335 46.5693C117.241 47.0791 117.107 47.665 116.931 48.3271C116.761 48.9893 115.818 52.376 114.101 58.4873H113.345L109.812 45.6377H110.752L113.002 53.917C113.09 54.251 113.172 54.5615 113.248 54.8486C113.324 55.1299 113.392 55.3965 113.45 55.6484C113.515 55.8945 113.571 56.1348 113.617 56.3691C113.67 56.5977 113.717 56.8291 113.758 57.0635C113.899 56.2666 114.198 55.0566 114.655 53.4336L116.852 45.6377H117.845L120.42 54.585C120.719 55.6162 120.933 56.4482 121.062 57.0811C121.138 56.6592 121.235 56.2109 121.352 55.7363C121.475 55.2617 122.38 51.8955 124.068 45.6377H124.973L121.422 58.4873Z" fill="black"/>
<path d="M135.117 58.4873H134.089L130.292 52.4932L126.425 58.4873H125.432L129.756 51.79L125.827 45.6377H126.838L130.31 51.1396L133.834 45.6377H134.792L130.811 51.7725L135.117 58.4873Z" fill="black"/>
<path d="M139.892 52.6689L143.653 45.6377H144.62L140.34 53.5215V58.4873H139.417V53.5918L135.119 45.6377H136.147L139.892 52.6689Z" fill="black"/>
<path d="M154.276 58.4873H145.346V57.8193L152.869 46.4814H145.689V45.6377H154.074V46.3057L146.533 57.6436H154.276V58.4873Z" fill="black"/>
</g>
<g id="abcdefghijklm">
<path d="M12.4004 82.4873L12.1807 80.9756H12.1104C11.6299 81.5908 11.1348 82.0273 10.625 82.2852C10.1211 82.5371 9.52344 82.6631 8.83203 82.6631C7.89453 82.6631 7.16504 82.4229 6.64355 81.9424C6.12207 81.4619 5.86133 80.7969 5.86133 79.9473C5.86133 79.0156 6.24805 78.292 7.02148 77.7764C7.80078 77.2607 8.92578 76.9883 10.3965 76.959L12.2158 76.9062V76.2734C12.2158 75.3652 12.0312 74.6797 11.6621 74.2168C11.293 73.7539 10.6982 73.5225 9.87793 73.5225C8.99316 73.5225 8.07617 73.7686 7.12695 74.2607L6.80176 73.5049C7.85059 73.0127 8.8877 72.7666 9.91309 72.7666C10.9619 72.7666 11.7441 73.0391 12.2598 73.584C12.7812 74.1289 13.042 74.9785 13.042 76.1328V82.4873H12.4004ZM8.88477 81.8721C9.9043 81.8721 10.707 81.582 11.293 81.002C11.8848 80.416 12.1807 79.6045 12.1807 78.5674V77.627L10.5107 77.6973C9.16895 77.7617 8.21094 77.9727 7.63672 78.3301C7.06836 78.6816 6.78418 79.2324 6.78418 79.9824C6.78418 80.5801 6.96582 81.0459 7.3291 81.3799C7.69824 81.708 8.2168 81.8721 8.88477 81.8721Z" fill="black"/>
<path d="M20.1785 72.749C21.5144 72.749 22.5193 73.1709 23.1932 74.0146C23.8728 74.8525 24.2127 76.0801 24.2127 77.6973C24.2127 79.2852 23.8553 80.5098 23.1404 81.3711C22.4314 82.2324 21.4324 82.6631 20.1434 82.6631C19.4637 82.6631 18.8514 82.5225 18.3064 82.2412C17.7615 81.96 17.3309 81.5615 17.0144 81.0459H16.9353L16.6893 82.4873H16.1443V68.8115H17.0144V72.248C17.0144 72.7637 17.0027 73.2383 16.9793 73.6719L16.9529 74.4189H17.0144C17.3777 73.8447 17.8143 73.4229 18.324 73.1533C18.8396 72.8838 19.4578 72.749 20.1785 72.749ZM20.1609 73.54C19.0359 73.54 18.2303 73.8623 17.7439 74.5068C17.2576 75.1514 17.0144 76.2148 17.0144 77.6973V77.8467C17.0144 79.2881 17.2664 80.3223 17.7703 80.9492C18.2801 81.5762 19.0711 81.8896 20.1434 81.8896C21.1863 81.8896 21.9715 81.5264 22.4988 80.7998C23.0262 80.0674 23.2898 79.0273 23.2898 77.6797C23.2898 74.9199 22.2469 73.54 20.1609 73.54Z" fill="black"/>
<path d="M30.6812 82.6631C29.316 82.6631 28.2467 82.2324 27.4732 81.3711C26.6998 80.5098 26.3131 79.3086 26.3131 77.7676C26.3131 76.1855 26.7144 74.9551 27.5172 74.0762C28.3199 73.1914 29.4185 72.749 30.8131 72.749C31.6392 72.749 32.4303 72.8926 33.1861 73.1797L32.9488 73.9531C32.1226 73.6777 31.4049 73.54 30.7955 73.54C29.6236 73.54 28.7359 73.9033 28.1324 74.6299C27.5289 75.3506 27.2271 76.3906 27.2271 77.75C27.2271 79.0391 27.5289 80.0498 28.1324 80.7822C28.7359 81.5088 29.5797 81.8721 30.6637 81.8721C31.5308 81.8721 32.3365 81.7168 33.0807 81.4062V82.2148C32.4713 82.5137 31.6715 82.6631 30.6812 82.6631Z" fill="black"/>
<path d="M38.9252 72.749C39.6166 72.749 40.2142 72.875 40.7181 73.127C41.2221 73.3789 41.6732 73.8096 42.0717 74.4189H42.1244C42.0892 73.6807 42.0717 72.957 42.0717 72.248V68.8115H42.933V82.4873H42.3617L42.142 81.0283H42.0717C41.3451 82.1182 40.3021 82.6631 38.9428 82.6631C37.6244 82.6631 36.6166 82.2529 35.9193 81.4326C35.2221 80.6123 34.8734 79.417 34.8734 77.8467C34.8734 76.1943 35.2191 74.9316 35.9105 74.0586C36.6019 73.1855 37.6068 72.749 38.9252 72.749ZM38.9252 73.54C37.8822 73.54 37.0971 73.9062 36.5697 74.6387C36.0482 75.3711 35.7875 76.4346 35.7875 77.8291C35.7875 80.5361 36.8392 81.8896 38.9428 81.8896C40.0209 81.8896 40.8119 81.5762 41.3158 80.9492C41.8197 80.3223 42.0717 79.2881 42.0717 77.8467V77.6973C42.0717 76.2207 41.8226 75.1602 41.3246 74.5156C40.8324 73.8652 40.0326 73.54 38.9252 73.54Z" fill="black"/>
<path d="M50.008 82.6631C48.6193 82.6631 47.5353 82.2354 46.756 81.3799C45.9826 80.5244 45.5959 79.3262 45.5959 77.7852C45.5959 76.2617 45.9709 75.043 46.7209 74.1289C47.4709 73.209 48.4816 72.749 49.7531 72.749C50.8781 72.749 51.7658 73.1416 52.4162 73.9268C53.0666 74.7119 53.3918 75.7783 53.3918 77.126V77.8291H46.5099C46.5217 79.1416 46.8263 80.1436 47.424 80.835C48.0275 81.5264 48.8888 81.8721 50.008 81.8721C50.5529 81.8721 51.0304 81.834 51.4406 81.7578C51.8566 81.6816 52.381 81.5176 53.0138 81.2656V82.0566C52.4748 82.291 51.9767 82.4492 51.5197 82.5312C51.0627 82.6191 50.5588 82.6631 50.008 82.6631ZM49.7531 73.5225C48.8332 73.5225 48.0949 73.8271 47.5383 74.4365C46.9816 75.04 46.6564 75.9131 46.5627 77.0557H52.4689C52.4689 75.9482 52.2287 75.084 51.7482 74.4629C51.2678 73.8359 50.6027 73.5225 49.7531 73.5225Z" fill="black"/>
<path d="M59.5791 73.6895H57.3291V82.4873H56.459V73.6895H54.6836V73.1797L56.459 72.8545V72.1162C56.459 70.9443 56.6728 70.0859 57.1006 69.541C57.5342 68.9902 58.2402 68.7148 59.2187 68.7148C59.7461 68.7148 60.2734 68.7939 60.8008 68.9521L60.5986 69.708C60.1299 69.5615 59.664 69.4883 59.2011 69.4883C58.5215 69.4883 58.0381 69.6904 57.751 70.0947C57.4697 70.4932 57.3291 71.1436 57.3291 72.0459V72.9336H59.5791V73.6895Z" fill="black"/>
<path d="M68.8777 72.9336V73.54L66.9002 73.6631C67.4275 74.3193 67.6912 75.04 67.6912 75.8252C67.6912 76.7451 67.3836 77.4922 66.7683 78.0664C66.159 78.6348 65.3386 78.9189 64.3074 78.9189C63.8738 78.9189 63.5691 78.9014 63.3933 78.8662C63.0476 79.0479 62.784 79.2617 62.6023 79.5078C62.4207 79.7539 62.3299 80.0146 62.3299 80.29C62.3299 80.5947 62.4441 80.8174 62.6726 80.958C62.907 81.0986 63.2966 81.1689 63.8416 81.1689H65.5115C66.5486 81.1689 67.3425 81.3799 67.8933 81.8018C68.4441 82.2178 68.7195 82.8359 68.7195 83.6562C68.7195 84.6641 68.3093 85.4404 67.489 85.9854C66.6746 86.5361 65.5115 86.8115 63.9998 86.8115C62.7986 86.8115 61.867 86.5801 61.2049 86.1172C60.5486 85.6543 60.2205 85.0098 60.2205 84.1836C60.2205 83.5273 60.4226 82.9824 60.8269 82.5488C61.2371 82.1152 61.7908 81.8193 62.4881 81.6611C62.2009 81.5381 61.9695 81.3652 61.7937 81.1426C61.6238 80.9141 61.5388 80.6533 61.5388 80.3604C61.5388 79.7217 61.9461 79.1592 62.7605 78.6729C62.2039 78.4443 61.7703 78.0869 61.4597 77.6006C61.1492 77.1084 60.9939 76.5459 60.9939 75.9131C60.9939 74.958 61.2957 74.1934 61.8992 73.6191C62.5086 73.0391 63.3289 72.749 64.3601 72.749C64.9871 72.749 65.4734 72.8105 65.8191 72.9336H68.8777ZM61.1433 84.1045C61.1433 85.417 62.1189 86.0732 64.0701 86.0732C66.5779 86.0732 67.8318 85.2734 67.8318 83.6738C67.8318 83.0996 67.6355 82.6836 67.2429 82.4258C66.8504 82.168 66.2146 82.0391 65.3357 82.0391H63.7713C62.0193 82.0391 61.1433 82.7275 61.1433 84.1045ZM61.8728 75.9131C61.8728 76.6514 62.0955 77.2256 62.5408 77.6357C62.992 78.04 63.5925 78.2422 64.3425 78.2422C65.1394 78.2422 65.7488 78.04 66.1707 77.6357C66.5984 77.2314 66.8123 76.6455 66.8123 75.8779C66.8123 75.0635 66.5925 74.4541 66.1531 74.0498C65.7195 73.6396 65.1101 73.4346 64.325 73.4346C63.5633 73.4346 62.9627 73.6543 62.5232 74.0938C62.0896 74.5273 61.8728 75.1338 61.8728 75.9131Z" fill="black"/>
<path d="M77.5084 82.4873V76.291C77.5084 75.3301 77.3062 74.6328 76.9019 74.1992C76.4976 73.7598 75.8707 73.54 75.0211 73.54C73.8785 73.54 73.0406 73.8301 72.5074 74.4102C71.98 74.9844 71.7164 75.9189 71.7164 77.2139V82.4873H70.8463V68.8115H71.7164V73.1621L71.6724 74.3838H71.7339C72.0914 73.8096 72.5425 73.3936 73.0875 73.1357C73.6324 72.8779 74.3091 72.749 75.1177 72.749C77.2857 72.749 78.3697 73.9121 78.3697 76.2383V82.4873H77.5084Z" fill="black"/>
<path d="M82.3334 82.4873H81.4632V72.9336H82.3334V82.4873ZM81.3402 70.2793C81.3402 69.7168 81.5248 69.4355 81.8939 69.4355C82.0755 69.4355 82.2162 69.5088 82.3158 69.6553C82.4212 69.8018 82.474 70.0098 82.474 70.2793C82.474 70.543 82.4212 70.751 82.3158 70.9033C82.2162 71.0557 82.0755 71.1318 81.8939 71.1318C81.5248 71.1318 81.3402 70.8477 81.3402 70.2793Z" fill="black"/>
<path d="M84.2668 86.8115C83.798 86.8115 83.4025 86.7383 83.0802 86.5918V85.8359C83.4845 85.9531 83.8625 86.0117 84.214 86.0117C85.0988 86.0117 85.5412 85.4961 85.5412 84.4648V72.9336H86.4113V84.3418C86.4113 85.1328 86.2238 85.7422 85.8488 86.1699C85.4796 86.5977 84.9523 86.8115 84.2668 86.8115ZM85.4181 70.2793C85.4181 69.7168 85.6027 69.4355 85.9718 69.4355C86.1535 69.4355 86.2941 69.5088 86.3937 69.6553C86.4992 69.8018 86.5519 70.0098 86.5519 70.2793C86.5519 70.543 86.4992 70.751 86.3937 70.9033C86.2941 71.0557 86.1535 71.1318 85.9718 71.1318C85.6027 71.1318 85.4181 70.8477 85.4181 70.2793Z" fill="black"/>
<path d="M90.4716 78.2949L95.3496 72.9336H96.4043L92.6425 77.0117L96.7294 82.4873H95.6835L92.0537 77.6621L90.4892 79.0859V82.4873H89.6191V68.8115H90.4892V75.667L90.4277 78.2949H90.4716Z" fill="black"/>
<path d="M99.2078 82.4873H98.3376V68.8115H99.2078V82.4873Z" fill="black"/>
<path d="M114.351 82.4873V76.2207C114.351 75.2891 114.169 74.6094 113.806 74.1816C113.443 73.7539 112.886 73.54 112.136 73.54C111.158 73.54 110.434 73.8096 109.965 74.3486C109.497 74.8877 109.262 75.7344 109.262 76.8887V82.4873H108.375V75.957C108.375 74.3457 107.636 73.54 106.16 73.54C105.158 73.54 104.428 73.833 103.971 74.4189C103.514 74.999 103.286 75.9307 103.286 77.2139V82.4873H102.416V72.9336H103.136L103.321 74.2432H103.374C103.637 73.7686 104.012 73.4023 104.499 73.1445C104.985 72.8809 105.521 72.749 106.107 72.749C107.613 72.749 108.58 73.3145 109.007 74.4453H109.043C109.353 73.9004 109.769 73.4814 110.291 73.1885C110.818 72.8955 111.416 72.749 112.084 72.749C113.127 72.749 113.909 73.0273 114.43 73.584C114.952 74.1406 115.212 75.0254 115.212 76.2383V82.4873H114.351Z" fill="black"/>
</g>
<g id="nopqrstuvwxyz">
<path d="M13.2617 106.487V100.291C13.2617 99.3301 13.0596 98.6328 12.6553 98.1992C12.251 97.7598 11.624 97.54 10.7744 97.54C9.63184 97.54 8.79395 97.8301 8.26074 98.4102C7.7334 98.9844 7.46973 99.9189 7.46973 101.214V106.487H6.59961V96.9336H7.33789L7.50488 98.2432H7.55762C8.17871 97.2471 9.2832 96.749 10.8711 96.749C13.0391 96.749 14.123 97.9121 14.123 100.238V106.487H13.2617Z" fill="black"/>
<path d="M25.1146 101.697C25.1146 103.256 24.7366 104.475 23.9808 105.354C23.2249 106.227 22.1819 106.663 20.8519 106.663C20.014 106.663 19.2757 106.461 18.637 106.057C17.9984 105.652 17.5091 105.072 17.1693 104.316C16.8294 103.561 16.6595 102.688 16.6595 101.697C16.6595 100.139 17.0374 98.9258 17.7933 98.0586C18.5491 97.1855 19.5862 96.749 20.9046 96.749C22.2171 96.749 23.2454 97.1914 23.9896 98.0762C24.7396 98.9551 25.1146 100.162 25.1146 101.697ZM17.5735 101.697C17.5735 103.01 17.8607 104.035 18.4349 104.773C19.015 105.506 19.8323 105.872 20.887 105.872C21.9417 105.872 22.7562 105.506 23.3304 104.773C23.9105 104.035 24.2005 103.01 24.2005 101.697C24.2005 100.379 23.9075 99.3564 23.3216 98.6299C22.7415 97.9033 21.9241 97.54 20.8694 97.54C19.8148 97.54 19.0003 97.9033 18.4261 98.6299C17.8577 99.3506 17.5735 100.373 17.5735 101.697Z" fill="black"/>
<path d="M31.8452 106.663C30.3745 106.663 29.3022 106.112 28.6284 105.011H28.5669L28.5932 105.749C28.6167 106.183 28.6284 106.657 28.6284 107.173V110.812H27.7583V96.9336H28.4966L28.6635 98.2959H28.7163C29.3725 97.2646 30.4214 96.749 31.8628 96.749C33.1518 96.749 34.1333 97.1738 34.8071 98.0234C35.4868 98.8672 35.8266 100.098 35.8266 101.715C35.8266 103.285 35.4692 104.504 34.7544 105.371C34.0454 106.232 33.0757 106.663 31.8452 106.663ZM31.8276 105.89C32.8061 105.89 33.562 105.526 34.0952 104.8C34.6342 104.073 34.9038 103.057 34.9038 101.75C34.9038 98.9434 33.8901 97.54 31.8628 97.54C30.7495 97.54 29.9321 97.8477 29.4106 98.4629C28.8891 99.0723 28.6284 100.068 28.6284 101.451V101.732C28.6284 103.227 28.8774 104.293 29.3755 104.932C29.8794 105.57 30.6967 105.89 31.8276 105.89Z" fill="black"/>
<path d="M41.8859 106.663C40.632 106.663 39.6593 106.247 38.9679 105.415C38.2765 104.583 37.9308 103.382 37.9308 101.812C37.9308 100.2 38.2765 98.9551 38.9679 98.0762C39.6593 97.1914 40.6496 96.749 41.9386 96.749C43.3214 96.749 44.3556 97.2588 45.0412 98.2783H45.0939L45.2521 96.9336H45.9904V110.812H45.1291V107.173C45.1291 106.458 45.1466 105.731 45.1818 104.993H45.1291C44.4377 106.106 43.3566 106.663 41.8859 106.663ZM41.9035 105.89C43.0636 105.89 43.8898 105.57 44.382 104.932C44.88 104.293 45.1291 103.221 45.1291 101.715V101.609C45.1291 100.174 44.88 99.1367 44.382 98.498C43.8839 97.8594 43.09 97.54 42.0002 97.54C40.9689 97.54 40.1837 97.9033 39.6447 98.6299C39.1115 99.3564 38.8449 100.423 38.8449 101.829C38.8449 103.171 39.1056 104.185 39.6271 104.87C40.1544 105.55 40.9132 105.89 41.9035 105.89Z" fill="black"/>
<path d="M52.9725 96.749C53.3768 96.749 53.8104 96.79 54.2733 96.8721L54.1063 97.707C53.7079 97.6074 53.2948 97.5576 52.867 97.5576C52.0526 97.5576 51.3846 97.9033 50.8631 98.5947C50.3416 99.2861 50.0809 100.159 50.0809 101.214V106.487H49.2108V96.9336H49.9491L50.037 98.6562H50.0985C50.4911 97.9531 50.91 97.4609 51.3553 97.1797C51.8006 96.8926 52.3397 96.749 52.9725 96.749Z" fill="black"/>
<path d="M62.1519 104C62.1519 104.855 61.8267 105.515 61.1763 105.978C60.5259 106.435 59.6031 106.663 58.4077 106.663C57.1304 106.663 56.1167 106.467 55.3667 106.074V105.134C56.3277 105.614 57.3413 105.854 58.4077 105.854C59.3511 105.854 60.0659 105.699 60.5523 105.389C61.0445 105.072 61.2906 104.653 61.2906 104.132C61.2906 103.651 61.0943 103.247 60.7017 102.919C60.315 102.591 59.6763 102.269 58.7857 101.952C57.8306 101.606 57.1597 101.311 56.773 101.064C56.3863 100.812 56.0933 100.531 55.8941 100.221C55.7007 99.9043 55.604 99.5205 55.604 99.0693C55.604 98.3545 55.9029 97.7891 56.5005 97.373C57.104 96.957 57.9449 96.749 59.023 96.749C60.0542 96.749 61.0327 96.9424 61.9585 97.3291L61.6333 98.1201C60.6958 97.7334 59.8257 97.54 59.023 97.54C58.2437 97.54 57.6255 97.6689 57.1685 97.9268C56.7115 98.1846 56.4829 98.542 56.4829 98.999C56.4829 99.4971 56.6587 99.8955 57.0103 100.194C57.3677 100.493 58.062 100.827 59.0933 101.196C59.9546 101.507 60.5816 101.788 60.9742 102.04C61.3667 102.286 61.6597 102.567 61.8531 102.884C62.0523 103.2 62.1519 103.572 62.1519 104Z" fill="black"/>
<path d="M67.1317 105.89C67.6825 105.89 68.1629 105.843 68.5731 105.749V106.452C68.1512 106.593 67.6649 106.663 67.1141 106.663C66.2704 106.663 65.6463 106.438 65.242 105.986C64.8436 105.535 64.6444 104.826 64.6444 103.859V97.6895H63.2293V97.1797L64.6444 96.7842L65.0838 94.6221H65.5321V96.9336H68.3358V97.6895H65.5321V103.736C65.5321 104.469 65.661 105.011 65.9188 105.362C66.1766 105.714 66.5809 105.89 67.1317 105.89Z" fill="black"/>
<path d="M71.3908 96.9336V103.121C71.3908 104.082 71.5929 104.782 71.9972 105.222C72.4015 105.655 73.0285 105.872 73.8781 105.872C75.0148 105.872 75.8498 105.585 76.383 105.011C76.922 104.437 77.1916 103.502 77.1916 102.207V96.9336H78.0529V106.487H77.3146L77.1564 105.169H77.1037C76.4826 106.165 75.3781 106.663 73.7902 106.663C71.6164 106.663 70.5294 105.5 70.5294 103.174V96.9336H71.3908Z" fill="black"/>
<path d="M83.3403 106.487L79.6489 96.9336H80.5454L83.0151 103.429C83.3432 104.261 83.5893 104.987 83.7534 105.608H83.8061C84.0464 104.812 84.2924 104.079 84.5444 103.411L87.0141 96.9336H87.9106L84.2192 106.487H83.3403Z" fill="black"/>
<path d="M97.1443 106.487L95.0525 100.098C94.9178 99.6641 94.7449 99.0283 94.534 98.1904H94.4812L94.2967 98.8408L93.9012 100.115L91.7742 106.487H90.9129L88.1795 96.9336H89.1111L90.6404 102.471C90.9978 103.842 91.2322 104.85 91.3435 105.494H91.3963C91.742 104.123 91.9939 103.212 92.1521 102.761L94.1209 96.9336H94.9119L96.784 102.743C97.2058 104.12 97.4637 105.031 97.5574 105.477H97.6101C97.657 105.096 97.8914 104.076 98.3133 102.418L99.7722 96.9336H100.651L98.0584 106.487H97.1443Z" fill="black"/>
<path d="M104.88 101.574L101.549 96.9336H102.551L105.399 100.959L108.22 96.9336H109.178L105.9 101.574L109.416 106.487H108.405L105.399 102.225L102.376 106.487H101.418L104.88 101.574Z" fill="black"/>
<path d="M109.895 96.9336H110.792L112.813 102.295C113.429 103.941 113.818 105.052 113.982 105.626H114.035C114.281 104.87 114.683 103.742 115.239 102.242L117.261 96.9336H118.157L113.877 108.034C113.531 108.937 113.241 109.546 113.007 109.862C112.772 110.179 112.497 110.416 112.181 110.574C111.87 110.732 111.492 110.812 111.047 110.812C110.713 110.812 110.341 110.75 109.931 110.627V109.871C110.27 109.965 110.637 110.012 111.029 110.012C111.328 110.012 111.592 109.941 111.82 109.801C112.049 109.66 112.254 109.44 112.435 109.142C112.623 108.849 112.837 108.38 113.077 107.735C113.323 107.097 113.481 106.681 113.552 106.487L109.895 96.9336Z" fill="black"/>
<path d="M125.695 106.487H118.874V105.934L124.543 97.707H119.287V96.9336H125.677V97.4873L119.973 105.714H125.695V106.487Z" fill="black"/>
</g>
<g id="1234567890">
<path d="M10.9941 130.487H10.1328V121.127C10.1328 120.277 10.168 119.396 10.2383 118.481C10.1504 118.569 10.0596 118.654 9.96582 118.736C9.87207 118.818 8.9668 119.53 7.25 120.872L6.74902 120.248L10.2383 117.638H10.9941V130.487Z" fill="black"/>
<path d="M24.3182 130.487H16.2762V129.714L19.6951 126.146C20.656 125.149 21.3299 124.388 21.7166 123.86C22.1033 123.333 22.3875 122.829 22.5691 122.349C22.7508 121.868 22.8416 121.364 22.8416 120.837C22.8416 120.069 22.5896 119.445 22.0857 118.965C21.5818 118.484 20.9285 118.244 20.1258 118.244C19.0535 118.244 18.0281 118.634 17.0496 119.413L16.575 118.807C17.6473 117.904 18.8367 117.453 20.1434 117.453C21.2625 117.453 22.1414 117.752 22.7801 118.35C23.4246 118.947 23.7469 119.771 23.7469 120.819C23.7469 121.669 23.5301 122.492 23.0965 123.289C22.6687 124.08 21.8836 125.059 20.741 126.225L17.4451 129.608V129.644H24.3182V130.487Z" fill="black"/>
<path d="M34.1705 120.661C34.1705 121.458 33.9185 122.129 33.4146 122.674C32.9166 123.219 32.2457 123.567 31.4019 123.72V123.772C32.4332 123.901 33.2183 124.229 33.7574 124.757C34.2965 125.284 34.566 125.993 34.566 126.884C34.566 128.085 34.1558 129.017 33.3355 129.679C32.5211 130.335 31.3463 130.663 29.8111 130.663C28.5045 130.663 27.3648 130.42 26.3922 129.934V129.063C26.8844 129.321 27.4351 129.523 28.0445 129.67C28.6598 129.816 29.2369 129.89 29.776 129.89C31.0709 129.89 32.0435 129.629 32.6939 129.107C33.3443 128.58 33.6695 127.839 33.6695 126.884C33.6695 126.034 33.3355 125.381 32.6676 124.924C32.0055 124.467 31.0299 124.238 29.7408 124.238H28.3521V123.395H29.7584C30.8248 123.395 31.6685 123.143 32.2896 122.639C32.9166 122.129 33.2301 121.44 33.2301 120.573C33.2301 119.858 32.9752 119.287 32.4654 118.859C31.9615 118.426 31.2994 118.209 30.4791 118.209C29.8404 118.209 29.2574 118.3 28.7301 118.481C28.2027 118.657 27.6109 118.962 26.9547 119.396L26.524 118.807C27.0221 118.391 27.6226 118.062 28.3258 117.822C29.0289 117.576 29.7408 117.453 30.4615 117.453C31.6451 117.453 32.5592 117.734 33.2037 118.297C33.8482 118.854 34.1705 119.642 34.1705 120.661Z" fill="black"/>
<path d="M45.8773 127.209H43.6625V130.487H42.8363V127.209H36.2269V126.62L42.599 117.567H43.6625V126.453H45.8773V127.209ZM42.8363 126.453V122.779C42.8363 121.01 42.8773 119.524 42.9594 118.323H42.889C42.7719 118.54 42.4115 119.091 41.808 119.976L37.2728 126.453H42.8363Z" fill="black"/>
<path d="M50.8517 122.762C52.2228 122.762 53.301 123.093 54.0861 123.755C54.8771 124.417 55.2726 125.328 55.2726 126.488C55.2726 127.807 54.8625 128.832 54.0422 129.564C53.2219 130.297 52.091 130.663 50.6496 130.663C50.0109 130.663 49.4045 130.602 48.8303 130.479C48.256 130.35 47.7756 130.168 47.3888 129.934V129.028C48.0217 129.351 48.5842 129.576 49.0763 129.705C49.5685 129.828 50.0929 129.89 50.6496 129.89C51.7746 129.89 52.6769 129.594 53.3566 129.002C54.0363 128.404 54.3762 127.599 54.3762 126.585C54.3762 125.63 54.0451 124.88 53.383 124.335C52.7209 123.79 51.8215 123.518 50.6847 123.518C49.923 123.518 49.1262 123.632 48.2941 123.86L47.7668 123.518L48.2765 117.638H54.464V118.481H49.1027L48.7072 123.017C49.6213 122.847 50.3361 122.762 50.8517 122.762Z" fill="black"/>
<path d="M57.5664 125.012C57.5664 123.342 57.792 121.938 58.2431 120.802C58.7002 119.659 59.3447 118.812 60.1767 118.262C61.0146 117.711 62.0224 117.436 63.2002 117.436C63.751 117.436 64.2549 117.503 64.7119 117.638V118.411C64.2842 118.253 63.7685 118.174 63.165 118.174C61.7178 118.174 60.5898 118.695 59.7812 119.738C58.9785 120.781 58.5273 122.299 58.4277 124.291H58.542C58.9873 123.717 59.497 123.283 60.0713 122.99C60.6455 122.697 61.2519 122.551 61.8906 122.551C63.0918 122.551 64.0293 122.894 64.7031 123.579C65.3828 124.265 65.7226 125.211 65.7226 126.418C65.7226 127.73 65.3652 128.768 64.6504 129.529C63.9414 130.285 62.9834 130.663 61.7763 130.663C60.4756 130.663 59.4472 130.168 58.6914 129.178C57.9414 128.182 57.5664 126.793 57.5664 125.012ZM61.7763 129.89C62.7373 129.89 63.4844 129.588 64.0176 128.984C64.5508 128.381 64.8174 127.52 64.8174 126.4C64.8174 125.416 64.5537 124.648 64.0263 124.098C63.499 123.547 62.7812 123.271 61.873 123.271C61.2754 123.271 60.7187 123.403 60.2031 123.667C59.6933 123.931 59.2861 124.282 58.9814 124.722C58.6767 125.155 58.5244 125.601 58.5244 126.058C58.5244 126.708 58.6679 127.335 58.9551 127.938C59.248 128.536 59.6406 129.011 60.1328 129.362C60.6308 129.714 61.1787 129.89 61.7763 129.89Z" fill="black"/>
<path d="M69.6336 130.487L74.9246 118.481H67.656V117.638H75.9705V118.279L70.6619 130.487H69.6336Z" fill="black"/>
<path d="M82.0963 117.418C83.1861 117.418 84.0621 117.696 84.7242 118.253C85.3922 118.81 85.7261 119.562 85.7261 120.512C85.7261 121.168 85.5181 121.748 85.1021 122.252C84.692 122.756 84.024 123.222 83.0982 123.649C84.2232 124.112 85.0142 124.619 85.4713 125.17C85.9283 125.721 86.1568 126.389 86.1568 127.174C86.1568 128.234 85.7847 129.081 85.0406 129.714C84.3023 130.347 83.3091 130.663 82.0611 130.663C80.7662 130.663 79.773 130.367 79.0816 129.775C78.3902 129.184 78.0445 128.322 78.0445 127.191C78.0445 126.424 78.2877 125.75 78.774 125.17C79.2603 124.59 80.0132 124.095 81.0328 123.685C80.0894 123.239 79.4244 122.771 79.0377 122.278C78.6509 121.78 78.4576 121.186 78.4576 120.494C78.4576 119.879 78.6129 119.34 78.9234 118.877C79.2339 118.408 79.6675 118.048 80.2242 117.796C80.7867 117.544 81.4107 117.418 82.0963 117.418ZM78.941 127.323C78.941 128.132 79.2134 128.759 79.7584 129.204C80.3091 129.649 81.0767 129.872 82.0611 129.872C83.022 129.872 83.7955 129.638 84.3814 129.169C84.9673 128.694 85.2603 128.053 85.2603 127.244C85.2603 126.518 85.0289 125.929 84.566 125.478C84.1089 125.021 83.2242 124.543 81.9117 124.045C80.8336 124.461 80.0689 124.921 79.6177 125.425C79.1666 125.929 78.941 126.562 78.941 127.323ZM82.0787 118.209C81.2525 118.209 80.5875 118.414 80.0836 118.824C79.5855 119.229 79.3365 119.785 79.3365 120.494C79.3365 120.904 79.4273 121.268 79.6089 121.584C79.7964 121.895 80.063 122.179 80.4088 122.437C80.7603 122.688 81.3463 122.984 82.1666 123.324C83.1216 122.955 83.8072 122.548 84.2232 122.103C84.6392 121.657 84.8472 121.121 84.8472 120.494C84.8472 119.791 84.5982 119.234 84.1002 118.824C83.608 118.414 82.9341 118.209 82.0787 118.209Z" fill="black"/>
<path d="M96.3695 123.087C96.3695 124.774 96.1468 126.187 95.7015 127.323C95.2621 128.46 94.6175 129.301 93.7679 129.846C92.9242 130.391 91.9017 130.663 90.7005 130.663C90.0912 130.663 89.5287 130.587 89.013 130.435V129.679C89.265 129.761 89.5668 129.825 89.9183 129.872C90.2757 129.913 90.5482 129.934 90.7357 129.934C92.183 129.934 93.3168 129.412 94.1371 128.369C94.9574 127.32 95.4144 125.794 95.5082 123.79H95.4027C94.975 124.353 94.4652 124.786 93.8734 125.091C93.2816 125.39 92.6634 125.539 92.0189 125.539C90.8295 125.539 89.9007 125.211 89.2328 124.555C88.5707 123.898 88.2396 122.967 88.2396 121.76C88.2396 120.471 88.6029 119.428 89.3295 118.631C90.0619 117.834 91.0111 117.436 92.1771 117.436C93.0209 117.436 93.7591 117.658 94.392 118.104C95.0248 118.543 95.5111 119.19 95.8509 120.046C96.1966 120.901 96.3695 121.915 96.3695 123.087ZM92.1771 118.209C91.2513 118.209 90.513 118.522 89.9623 119.149C89.4115 119.771 89.1361 120.623 89.1361 121.707C89.1361 122.727 89.391 123.5 89.9007 124.027C90.4105 124.555 91.14 124.818 92.0892 124.818C92.681 124.818 93.2318 124.687 93.7416 124.423C94.2572 124.159 94.6644 123.811 94.9632 123.377C95.2679 122.938 95.4203 122.492 95.4203 122.041C95.4203 121.355 95.2826 120.714 95.0072 120.116C94.7377 119.519 94.3568 119.053 93.8646 118.719C93.3783 118.379 92.8158 118.209 92.1771 118.209Z" fill="black"/>
<path d="M106.819 124.027C106.819 126.283 106.474 127.953 105.782 129.037C105.097 130.121 104.057 130.663 102.662 130.663C101.32 130.663 100.301 130.106 99.6037 128.993C98.9064 127.874 98.5578 126.219 98.5578 124.027C98.5578 121.789 98.8947 120.131 99.5685 119.053C100.248 117.975 101.279 117.436 102.662 117.436C104.016 117.436 105.047 117.995 105.756 119.114C106.465 120.228 106.819 121.865 106.819 124.027ZM99.507 124.027C99.507 126.02 99.7677 127.493 100.289 128.448C100.811 129.397 101.602 129.872 102.662 129.872C103.77 129.872 104.575 129.38 105.079 128.396C105.589 127.411 105.844 125.955 105.844 124.027C105.844 122.129 105.589 120.688 105.079 119.703C104.575 118.719 103.77 118.227 102.662 118.227C101.555 118.227 100.752 118.719 100.254 119.703C99.756 120.688 99.507 122.129 99.507 124.027Z" fill="black"/>
</g>
</g>
</svg>
