<svg width="162" height="136" viewBox="0 0 162 136" fill="none" xmlns="http://www.w3.org/2000/svg">
<g id="OpenSans_extrabold_italic" clip-path="url(#clip0)">
<g id="ExtraBold Italic">
<path d="M1.30566 13.5117V3.39453H6.95898V4.46777H2.74121V7.71484H6.27539V8.77441H2.74121V12.4385H7.25293V13.5117H1.30566Z" fill="black"/>
<path d="M8.17845 13.5117L11.0017 9.67676L8.26048 6.08789H9.86009L12.0271 8.94531L13.989 6.08789H15.3015L12.7312 9.85449L15.5271 13.5117H13.9275L11.6921 10.5723L9.53197 13.5117H8.17845Z" fill="black"/>
<path d="M19.741 13.6826C19.0574 13.6826 18.5242 13.4867 18.1414 13.0947C17.7586 12.7028 17.5672 12.1582 17.5672 11.4609V7.09961H16.6375V6.08789H17.5672V4.74121L18.9139 4.61133V6.08789H20.8553V7.09961H18.9139V11.2148C18.9139 12.1855 19.3331 12.6709 20.1717 12.6709C20.3494 12.6709 20.5659 12.6413 20.8211 12.582V13.5117C20.4064 13.6257 20.0464 13.6826 19.741 13.6826Z" fill="black"/>
<path d="M22.7518 13.5117V6.08789H24.0985V7.48242C24.6317 6.44336 25.4065 5.92383 26.4227 5.92383C26.5595 5.92383 26.703 5.93522 26.8534 5.95801V7.21582C26.621 7.13835 26.4159 7.09961 26.2382 7.09961C25.386 7.09961 24.6727 7.60547 24.0985 8.61719V13.5117H22.7518Z" fill="black"/>
<path d="M32.2975 12.5684C31.4908 13.3112 30.7138 13.6826 29.9664 13.6826C29.3512 13.6826 28.8408 13.4912 28.4352 13.1084C28.0296 12.721 27.8268 12.2334 27.8268 11.6455C27.8268 10.8343 28.1663 10.2122 28.8453 9.7793C29.5289 9.3418 30.5065 9.12305 31.7779 9.12305H32.0992V8.22754C32.0992 7.36621 31.6572 6.93555 30.7731 6.93555C30.0621 6.93555 29.2942 7.1543 28.4694 7.5918V6.47754C29.3763 6.1084 30.2262 5.92383 31.0192 5.92383C31.8486 5.92383 32.4593 6.11068 32.8512 6.48438C33.2477 6.85807 33.4459 7.43913 33.4459 8.22754V11.5908C33.4459 12.361 33.6829 12.7461 34.1569 12.7461C34.2161 12.7461 34.3027 12.737 34.4166 12.7188L34.5123 13.4639C34.207 13.6097 33.8697 13.6826 33.5006 13.6826C32.8717 13.6826 32.4707 13.3112 32.2975 12.5684ZM32.0992 11.8369V9.91602L31.6481 9.90234C30.9098 9.90234 30.3128 10.0436 29.857 10.3262C29.4013 10.6042 29.1735 10.971 29.1735 11.4268C29.1735 11.7503 29.2874 12.0238 29.5152 12.2471C29.7431 12.4704 30.0211 12.582 30.3492 12.582C30.9098 12.582 31.4931 12.3337 32.0992 11.8369Z" fill="black"/>
<path d="M36.1556 13.5117V3.39453H38.7806C39.7923 3.39453 40.5671 3.58594 41.1048 3.96875C41.6472 4.35156 41.9183 4.90299 41.9183 5.62305C41.9183 6.84896 41.2256 7.72168 39.8402 8.24121C41.4945 8.74707 42.3216 9.66081 42.3216 10.9824C42.3216 11.8027 42.0482 12.4294 41.5013 12.8623C40.9544 13.2952 40.166 13.5117 39.1361 13.5117H36.1556ZM37.5775 12.4385H37.8714C38.9242 12.4385 39.6055 12.3724 39.9154 12.2402C40.5078 11.9896 40.8041 11.5247 40.8041 10.8457C40.8041 10.2441 40.5352 9.74512 39.9974 9.34863C39.4597 8.94759 38.7875 8.74707 37.9808 8.74707H37.5775V12.4385ZM37.5775 7.83789H38.0355C38.8011 7.83789 39.3936 7.67383 39.8128 7.3457C40.2367 7.01758 40.4486 6.55501 40.4486 5.95801C40.4486 4.96452 39.6784 4.46777 38.138 4.46777H37.5775V7.83789Z" fill="black"/>
<path d="M47.1576 13.6826C46.0958 13.6826 45.2481 13.3317 44.6147 12.6299C43.9812 11.9235 43.6645 10.9801 43.6645 9.7998C43.6645 8.60579 43.9812 7.66243 44.6147 6.96973C45.2527 6.27246 46.1163 5.92383 47.2055 5.92383C48.2947 5.92383 49.156 6.27246 49.7895 6.96973C50.4275 7.66243 50.7465 8.60124 50.7465 9.78613C50.7465 10.9984 50.4275 11.9508 49.7895 12.6436C49.1515 13.3363 48.2742 13.6826 47.1576 13.6826ZM47.1782 12.6709C48.6046 12.6709 49.3178 11.7093 49.3178 9.78613C49.3178 7.88574 48.6137 6.93555 47.2055 6.93555C45.8018 6.93555 45.1 7.8903 45.1 9.7998C45.1 11.7139 45.7927 12.6709 47.1782 12.6709Z" fill="black"/>
<path d="M52.841 13.5117V2.71777H54.1877V13.5117H52.841Z" fill="black"/>
<path d="M61.6415 13.5117V12.1172C61.0946 13.1608 60.2698 13.6826 59.1669 13.6826C58.2737 13.6826 57.5696 13.3568 57.0546 12.7051C56.5442 12.0534 56.289 11.1624 56.289 10.0322C56.289 8.7972 56.5783 7.80371 57.1571 7.05176C57.7405 6.2998 58.5061 5.92383 59.454 5.92383C60.3336 5.92383 61.0627 6.26107 61.6415 6.93555V2.71777H62.995V13.5117H61.6415ZM61.6415 7.8584C60.9442 7.24316 60.2834 6.93555 59.6591 6.93555C58.3694 6.93555 57.7245 7.9222 57.7245 9.89551C57.7245 11.6318 58.2987 12.5 59.4472 12.5C60.1946 12.5 60.926 12.0921 61.6415 11.2764V7.8584Z" fill="black"/>
<path d="M70.083 13.5117V3.39453H71.5186V13.5117H70.083Z" fill="black"/>
<path d="M76.3816 13.6826C75.698 13.6826 75.1648 13.4867 74.782 13.0947C74.3992 12.7028 74.2078 12.1582 74.2078 11.4609V7.09961H73.2781V6.08789H74.2078V4.74121L75.5545 4.61133V6.08789H77.4959V7.09961H75.5545V11.2148C75.5545 12.1855 75.9737 12.6709 76.8123 12.6709C76.99 12.6709 77.2065 12.6413 77.4617 12.582V13.5117C77.047 13.6257 76.687 13.6826 76.3816 13.6826Z" fill="black"/>
<path d="M83.2206 12.5684C82.4139 13.3112 81.6369 13.6826 80.8895 13.6826C80.2743 13.6826 79.7639 13.4912 79.3583 13.1084C78.9527 12.721 78.7499 12.2334 78.7499 11.6455C78.7499 10.8343 79.0894 10.2122 79.7684 9.7793C80.452 9.3418 81.4295 9.12305 82.701 9.12305H83.0223V8.22754C83.0223 7.36621 82.5803 6.93555 81.6961 6.93555C80.9852 6.93555 80.2173 7.1543 79.3924 7.5918V6.47754C80.2993 6.1084 81.1493 5.92383 81.9422 5.92383C82.7717 5.92383 83.3823 6.11068 83.7743 6.48438C84.1708 6.85807 84.369 7.43913 84.369 8.22754V11.5908C84.369 12.361 84.606 12.7461 85.0799 12.7461C85.1392 12.7461 85.2258 12.737 85.3397 12.7188L85.4354 13.4639C85.1301 13.6097 84.7928 13.6826 84.4237 13.6826C83.7948 13.6826 83.3937 13.3112 83.2206 12.5684ZM83.0223 11.8369V9.91602L82.5711 9.90234C81.8329 9.90234 81.2359 10.0436 80.7801 10.3262C80.3244 10.6042 80.0965 10.971 80.0965 11.4268C80.0965 11.7503 80.2105 12.0238 80.4383 12.2471C80.6662 12.4704 80.9442 12.582 81.2723 12.582C81.8329 12.582 82.4162 12.3337 83.0223 11.8369Z" fill="black"/>
<path d="M87.1197 13.5117V2.71777H88.4664V13.5117H87.1197Z" fill="black"/>
<path d="M91.1556 13.5117V6.08789H92.5023V13.5117H91.1556ZM91.1556 4.74121V3.39453H92.5023V4.74121H91.1556Z" fill="black"/>
<path d="M98.0899 13.6826C97.0873 13.6826 96.2556 13.3112 95.5948 12.5684C94.934 11.8255 94.6036 10.889 94.6036 9.75879C94.6036 8.55111 94.9294 7.61003 95.5811 6.93555C96.2374 6.26107 97.1511 5.92383 98.3223 5.92383C98.9011 5.92383 99.5482 6.00358 100.264 6.16309V7.29102C99.5027 7.06771 98.8829 6.95605 98.4044 6.95605C97.7162 6.95605 97.1625 7.21582 96.7432 7.73535C96.3285 8.25033 96.1211 8.93848 96.1211 9.7998C96.1211 10.6338 96.3353 11.3083 96.7637 11.8232C97.1921 12.3382 97.7527 12.5957 98.4454 12.5957C99.0606 12.5957 99.6941 12.4385 100.346 12.124V13.2861C99.4753 13.5505 98.7234 13.6826 98.0899 13.6826Z" fill="black"/>
</g>
<g id="ABCDEFGHIJKLM">
<path d="M12.541 32.0791H8.60352L7.50488 34.4873H3.93652L10.4756 21.6377H14.8965L15.9775 34.4873H12.6289L12.541 32.0791ZM9.86035 29.3369H12.4355L12.2861 25.6104L12.2686 24.8545C12.2686 24.415 12.2803 24.0312 12.3037 23.7031C12.1631 24.207 11.9844 24.6934 11.7676 25.1621L9.86035 29.3369Z" fill="black"/>
<path d="M20.1663 21.6377H24.4466C25.7181 21.6377 26.6819 21.8809 27.3382 22.3672C27.9944 22.8477 28.3226 23.5391 28.3226 24.4414C28.3226 26.1289 27.4525 27.2334 25.7122 27.7549V27.8252C26.2278 27.9951 26.638 28.2939 26.9427 28.7217C27.2474 29.1436 27.3997 29.6621 27.3997 30.2773C27.3997 31.6191 26.9515 32.6562 26.055 33.3887C25.1644 34.1211 23.8987 34.4873 22.2581 34.4873H17.4505L20.1663 21.6377ZM22.5569 26.5684H23.1898C23.7054 26.5684 24.095 26.457 24.3587 26.2344C24.6224 26.0117 24.7542 25.6543 24.7542 25.1621C24.7542 24.5645 24.3821 24.2656 23.638 24.2656H23.0843L22.5569 26.5684ZM22.0384 29.1084L21.4583 31.8066H22.179C22.6829 31.8066 23.1019 31.666 23.4359 31.3848C23.7757 31.0977 23.9456 30.7402 23.9456 30.3125C23.9456 29.9082 23.8489 29.6064 23.6556 29.4072C23.4622 29.208 23.1224 29.1084 22.636 29.1084H22.0384Z" fill="black"/>
<path d="M36.3082 24.3008C35.6754 24.3008 35.1041 24.5293 34.5944 24.9863C34.0846 25.4434 33.6832 26.0732 33.3903 26.876C33.1032 27.6787 32.9596 28.5488 32.9596 29.4863C32.9596 30.2715 33.1237 30.8574 33.4518 31.2441C33.7799 31.6309 34.2516 31.8242 34.8668 31.8242C35.3532 31.8242 35.8453 31.7656 36.3434 31.6484C36.8414 31.5254 37.4274 31.3203 38.1012 31.0332V33.8721C36.9117 34.3994 35.6227 34.6631 34.234 34.6631C32.7106 34.6631 31.5358 34.2295 30.7096 33.3623C29.8893 32.4893 29.4791 31.2559 29.4791 29.6621C29.4791 28.1035 29.775 26.6738 30.3668 25.373C30.9645 24.0723 31.7731 23.0908 32.7926 22.4287C33.818 21.7666 34.9899 21.4355 36.3082 21.4355C37.861 21.4355 39.2701 21.8193 40.5358 22.5869L39.235 25.2676C38.6901 24.9453 38.1891 24.7051 37.7321 24.5469C37.275 24.3828 36.8004 24.3008 36.3082 24.3008Z" fill="black"/>
<path d="M51.6521 26.498C51.6521 28.1387 51.3621 29.5625 50.782 30.7695C50.2019 31.9707 49.3582 32.8906 48.2508 33.5293C47.1492 34.168 45.8426 34.4873 44.3308 34.4873H40.1912L42.907 21.6377H46.5633C48.1805 21.6377 49.4314 22.0625 50.3162 22.9121C51.2068 23.7559 51.6521 24.9512 51.6521 26.498ZM44.8494 31.6396C45.4939 31.6396 46.0681 31.4346 46.5721 31.0244C47.0818 30.6143 47.4773 30.0312 47.7586 29.2754C48.0398 28.5137 48.1805 27.6465 48.1805 26.6738C48.1805 25.9414 48.0223 25.3877 47.7058 25.0127C47.3894 24.6318 46.9471 24.4414 46.3787 24.4414H45.7547L44.243 31.6396H44.8494Z" fill="black"/>
<path d="M60.1442 34.4873H52.5153L55.2311 21.6377H62.86L62.2887 24.4238H58.0963L57.6832 26.4453H61.5856L60.9528 29.2314H57.0504L56.5494 31.6572H60.7418L60.1442 34.4873Z" fill="black"/>
<path d="M66.0732 34.4873H62.6367L65.3525 21.6377H72.9286L72.3398 24.4238H68.2001L67.6904 26.876H71.5224L70.916 29.6797H67.0663L66.0732 34.4873Z" fill="black"/>
<path d="M79.0159 26.9639H84.3772L82.9094 33.9512C81.4446 34.4258 79.9182 34.6631 78.3303 34.6631C76.801 34.6631 75.6145 34.2178 74.7708 33.3271C73.927 32.4365 73.5051 31.1738 73.5051 29.5391C73.5051 27.9746 73.8274 26.5625 74.4719 25.3027C75.1165 24.043 75.9983 23.085 77.1174 22.4287C78.2424 21.7666 79.5491 21.4355 81.0374 21.4355C82.596 21.4355 83.9085 21.749 84.9749 22.376L83.6829 25.0918C82.7864 24.5645 81.8899 24.3008 80.9934 24.3008C80.22 24.3008 79.5344 24.5146 78.9368 24.9424C78.345 25.3643 77.8704 25.9912 77.5129 26.8232C77.1614 27.6553 76.9856 28.543 76.9856 29.4863C76.9856 31.0332 77.5979 31.8066 78.8225 31.8066C79.1917 31.8066 79.5813 31.7656 79.9915 31.6836L80.4397 29.6445H78.427L79.0159 26.9639Z" fill="black"/>
<path d="M95.3847 34.4873H91.9482L93.0468 29.249H90.0058L88.8896 34.4873H85.4531L88.1689 21.6377H91.6054L90.621 26.4014H93.6796L94.664 21.6377H98.1093L95.3847 34.4873Z" fill="black"/>
<path d="M98.2833 34.4873L100.999 21.6377H104.488L101.773 34.4873H98.2833Z" fill="black"/>
<path d="M103.395 38.5391C102.774 38.5391 102.15 38.4541 101.523 38.2842V35.4805C102.103 35.6211 102.613 35.6914 103.052 35.6914C103.679 35.6914 104.154 35.5186 104.476 35.1729C104.798 34.8271 105.044 34.2559 105.214 33.459L107.754 21.6377H111.191L108.563 33.8896C108.311 35.0615 107.98 35.9756 107.57 36.6318C107.16 37.2939 106.623 37.7773 105.961 38.082C105.305 38.3867 104.45 38.5391 103.395 38.5391Z" fill="black"/>
<path d="M122.024 34.4873H118.175L116.645 29.4072L115.793 29.8994L114.843 34.4873H111.407L114.123 21.6377H117.559L116.373 27.1221L116.707 26.6035C117.222 25.7656 117.603 25.1943 117.849 24.8896L120.46 21.6377H124.494L119.651 27.5615L122.024 34.4873Z" fill="black"/>
<path d="M123.446 34.4873L126.162 21.6377H129.599L127.48 31.6836H131.673L131.075 34.4873H123.446Z" fill="black"/>
<path d="M137.814 34.4873V25.2676H137.744C137.352 27.7109 137.1 29.2109 136.988 29.7676L135.995 34.4873H132.937L135.652 21.6377H140.205V30.7607H140.275L144.477 21.6377H149.1L146.349 34.4873H143.264L144.292 29.6621C144.585 28.3262 144.901 27.0488 145.241 25.8301L145.373 25.2676H145.303L141.066 34.4873H137.814Z" fill="black"/>
</g>
<g id="NOPQRSTUVWXYZ">
<path d="M16.5928 58.4873H12.5938L10.0537 49.4521H9.9834C9.81348 51.1572 9.64648 52.3818 9.48242 53.126L8.34863 58.4873H5.29004L8.00586 45.6377H12.0049L14.5186 54.2773H14.5977C14.7676 52.8945 14.9346 51.8076 15.0986 51.0166L16.25 45.6377H19.3086L16.5928 58.4873Z" fill="black"/>
<path d="M27.1045 45.4355C28.6279 45.4355 29.8115 45.8721 30.6553 46.7451C31.5049 47.6123 31.9297 48.8252 31.9297 50.3838C31.9297 51.9424 31.6367 53.3691 31.0508 54.6641C30.4707 55.9531 29.668 56.9434 28.6426 57.6348C27.6172 58.3203 26.4277 58.6631 25.0742 58.6631C23.498 58.6631 22.2793 58.2266 21.418 57.3535C20.5625 56.4805 20.1348 55.2676 20.1348 53.7148C20.1348 52.1621 20.4365 50.7354 21.04 49.4346C21.6436 48.1338 22.4639 47.1436 23.501 46.4639C24.5439 45.7783 25.7451 45.4355 27.1045 45.4355ZM28.458 50.4189C28.458 49.751 28.3174 49.2295 28.0361 48.8545C27.7549 48.4736 27.3477 48.2832 26.8145 48.2832C26.2344 48.2832 25.7012 48.5293 25.2148 49.0215C24.7285 49.5137 24.3389 50.1904 24.0459 51.0518C23.7588 51.9131 23.6152 52.7949 23.6152 53.6973C23.6152 55.1152 24.2012 55.8242 25.373 55.8242C25.9297 55.8242 26.4453 55.5811 26.9199 55.0947C27.4004 54.6084 27.7754 53.9521 28.0449 53.126C28.3203 52.2998 28.458 51.3975 28.458 50.4189Z" fill="black"/>
<path d="M43.4837 49.4873C43.4837 50.9639 42.9798 52.124 41.972 52.9678C40.97 53.8057 39.596 54.2246 37.8499 54.2246H37.0941L36.2152 58.4873H32.7786L35.4944 45.6377H38.7728C40.2903 45.6377 41.4534 45.9717 42.262 46.6396C43.0765 47.3018 43.4837 48.251 43.4837 49.4873ZM37.7093 51.4121H38.263C38.7962 51.4121 39.2269 51.2422 39.555 50.9023C39.8831 50.5566 40.0472 50.1201 40.0472 49.5928C40.0472 49.2471 39.9417 48.9688 39.7308 48.7578C39.5198 48.5469 39.2298 48.4414 38.8607 48.4414H38.3421L37.7093 51.4121Z" fill="black"/>
<path d="M51.64 45.4355C53.1517 45.4355 54.3235 45.875 55.1556 46.7539C55.9935 47.627 56.4124 48.8369 56.4124 50.3838C56.4124 52.0244 56.0784 53.5156 55.4105 54.8574C54.7425 56.1992 53.8343 57.1924 52.6859 57.8369L54.7776 61.5459H50.9193L49.4954 58.6631H49.39C47.8782 58.6631 46.7034 58.2266 45.8655 57.3535C45.0335 56.4746 44.6175 55.2617 44.6175 53.7148C44.6175 52.1621 44.9163 50.7383 45.514 49.4434C46.1175 48.1484 46.9437 47.1582 47.9925 46.4727C49.0472 45.7812 50.263 45.4355 51.64 45.4355ZM51.3499 48.3184C50.7464 48.3184 50.1927 48.5615 49.6888 49.0479C49.1907 49.5342 48.8011 50.1963 48.5198 51.0342C48.2386 51.8721 48.098 52.7773 48.098 53.75C48.098 54.4238 48.2357 54.9307 48.511 55.2705C48.7923 55.6045 49.1878 55.7715 49.6976 55.7715C50.2952 55.7715 50.8401 55.5342 51.3323 55.0596C51.8304 54.585 52.223 53.9287 52.5101 53.0908C52.7972 52.2471 52.9407 51.333 52.9407 50.3486C52.9407 49.6807 52.803 49.1768 52.5276 48.8369C52.2523 48.4912 51.8597 48.3184 51.3499 48.3184Z" fill="black"/>
<path d="M61.691 53.8115L60.6979 58.4873H57.2614L59.9772 45.6377H63.3785C64.8551 45.6377 65.986 45.9307 66.7711 46.5166C67.5563 47.1025 67.9489 47.9844 67.9489 49.1621C67.9489 50.0762 67.7408 50.873 67.3248 51.5527C66.9088 52.2324 66.2907 52.751 65.4703 53.1084L67.4391 57.6436L67.7907 58.4873H64.0465L62.3326 53.8115H61.691ZM62.2448 51.2012H62.693C63.2496 51.2012 63.692 51.043 64.0201 50.7266C64.3483 50.4043 64.5123 49.9561 64.5123 49.3818C64.5123 49.0186 64.4098 48.7432 64.2047 48.5557C64.0055 48.3623 63.7125 48.2656 63.3258 48.2656H62.86L62.2448 51.2012Z" fill="black"/>
<path d="M77.2635 54.541C77.2635 55.8418 76.8328 56.8555 75.9715 57.582C75.1101 58.3027 73.909 58.6631 72.368 58.6631C71.7234 58.6631 71.114 58.5928 70.5398 58.4521C69.9656 58.3057 69.4705 58.0947 69.0545 57.8193V54.7432C69.5467 55.0537 70.1092 55.3145 70.742 55.5254C71.3806 55.7363 71.9578 55.8418 72.4734 55.8418C72.907 55.8418 73.2351 55.751 73.4578 55.5693C73.6805 55.3877 73.7918 55.1299 73.7918 54.7959C73.7918 54.6377 73.7566 54.4912 73.6863 54.3564C73.616 54.2158 73.5164 54.0781 73.3875 53.9434C73.2586 53.8027 72.9129 53.498 72.3504 53.0293C71.6648 52.4785 71.1668 51.916 70.8562 51.3418C70.5457 50.7676 70.3904 50.1377 70.3904 49.4521C70.3904 48.6846 70.5808 47.9961 70.9617 47.3867C71.3484 46.7715 71.8904 46.2969 72.5877 45.9629C73.2908 45.623 74.076 45.4531 74.9431 45.4531C76.3435 45.4531 77.6033 45.7666 78.7224 46.3936L77.5359 49.0039C76.534 48.4883 75.6814 48.2305 74.9783 48.2305C74.6033 48.2305 74.3133 48.3125 74.1082 48.4766C73.909 48.6406 73.8094 48.8809 73.8094 49.1973C73.8094 49.4844 73.906 49.7539 74.0994 50.0059C74.2986 50.252 74.6736 50.583 75.2244 50.999C75.9158 51.5088 76.4285 52.0449 76.7625 52.6074C77.0965 53.1699 77.2635 53.8145 77.2635 54.541Z" fill="black"/>
<path d="M84.0468 58.4873H80.6103L82.6933 48.4766H79.9072L80.5136 45.6377H89.5488L88.9247 48.4766H86.1298L84.0468 58.4873Z" fill="black"/>
<path d="M101.208 45.6377L99.4592 53.8291C99.1135 55.4756 98.4544 56.6943 97.4817 57.4854C96.509 58.2705 95.1878 58.6631 93.5178 58.6631C92.7327 58.6631 92.0383 58.502 91.4348 58.1797C90.8372 57.8574 90.3743 57.4062 90.0462 56.8262C89.7239 56.2461 89.5628 55.5986 89.5628 54.8838C89.5628 54.5088 89.5979 54.1309 89.6682 53.75L91.4172 45.6377H94.8538L93.1399 53.6621C93.0579 54.0605 93.0169 54.3975 93.0169 54.6729C93.0169 55.417 93.3713 55.7891 94.0803 55.7891C94.6311 55.7891 95.0618 55.6016 95.3723 55.2266C95.6887 54.8457 95.929 54.2656 96.093 53.4863L97.7717 45.6377H101.208Z" fill="black"/>
<path d="M109.887 45.6377H113.525L107.153 58.4873H103.321L102.407 45.6377H105.765L106.002 52.6777V53.126C106.002 53.9697 105.955 54.7197 105.861 55.376H105.932C106.014 55.001 106.143 54.541 106.318 53.9961C106.5 53.4453 106.664 53.0176 106.81 52.7129L109.887 45.6377Z" fill="black"/>
<path d="M116.482 55.376L116.834 54.4619L117.66 52.4229L120.604 45.6377H123.557V52.5986C123.557 53.5127 123.481 54.4385 123.329 55.376C123.387 55.2119 123.777 54.1982 124.498 52.335L127.161 45.6377H130.562L124.981 58.4873H120.929V53.0381C120.929 52.1299 120.967 51.1807 121.044 50.1904C120.85 50.9697 120.505 51.9922 120.006 53.2578L117.783 58.4873H113.968L113.538 45.6377H116.79L116.702 52.0801C116.667 53.6445 116.593 54.7432 116.482 55.376Z" fill="black"/>
<path d="M139.898 58.4873H136.101L134.818 54.1104L131.847 58.4873H127.945L132.893 51.667L130.933 45.6377H134.589L135.67 49.7598L138.386 45.6377H142.324L137.595 52.0098L139.898 58.4873Z" fill="black"/>
<path d="M146.755 50.4014L149.497 45.6377H153.329L147.951 53.5039L146.887 58.4873H143.451L144.505 53.5039L142.422 45.6377H145.964L146.755 50.4014Z" fill="black"/>
<path d="M160.141 58.4873H151.053L151.466 56.3604L157.531 48.4414H153.321L153.909 45.6377H162.576L162.118 47.791L155.966 55.6836H160.739L160.141 58.4873Z" fill="black"/>
</g>
<g id="abcdefghijklm">
<path d="M9.96582 79.9297C10.2588 79.9297 10.5371 79.7598 10.8008 79.4199C11.0703 79.0742 11.2842 78.6143 11.4424 78.04C11.6006 77.4658 11.6797 76.9033 11.6797 76.3525C11.6797 75.9717 11.6211 75.667 11.5039 75.4385C11.3867 75.2041 11.2051 75.0869 10.959 75.0869C10.5137 75.0869 10.1094 75.459 9.74609 76.2031C9.38867 76.9414 9.20996 77.7646 9.20996 78.6729C9.20996 79.5107 9.46191 79.9297 9.96582 79.9297ZM13.6221 82.4873H10.9062L10.9941 81.4062H10.9238C10.5957 81.8633 10.2412 82.1885 9.86035 82.3818C9.47949 82.5693 9.04883 82.6631 8.56836 82.6631C7.64258 82.6631 6.93945 82.3379 6.45898 81.6875C5.97852 81.0312 5.73828 80.0908 5.73828 78.8662C5.73828 77.8174 5.95215 76.748 6.37988 75.6582C6.80762 74.5684 7.34668 73.7451 7.99707 73.1885C8.65332 72.6318 9.37695 72.3535 10.168 72.3535C10.6602 72.3535 11.0938 72.4648 11.4688 72.6875C11.8438 72.9043 12.1777 73.2617 12.4707 73.7598H12.541L13.0068 72.5293H15.7314L13.6221 82.4873Z" fill="black"/>
<path d="M21.7062 82.6631C21.2199 82.6631 20.7951 82.5693 20.4318 82.3818C20.0685 82.1943 19.7023 81.8633 19.3332 81.3887H19.2628L18.8322 82.4873H16.1339L19.0255 68.8115H22.4269L21.9962 70.8418C21.7736 71.8672 21.5099 72.749 21.2052 73.4873H21.2755C21.5568 73.1416 21.7824 72.9043 21.9523 72.7754C22.1281 72.6406 22.3244 72.5381 22.5412 72.4678C22.758 72.3916 23.0099 72.3535 23.297 72.3535C24.2052 72.3535 24.9025 72.6816 25.3888 73.3379C25.8752 73.9883 26.1183 74.9258 26.1183 76.1504C26.1183 77.1934 25.9103 78.2539 25.4943 79.332C25.0841 80.4102 24.5509 81.2363 23.8947 81.8105C23.2384 82.3789 22.5089 82.6631 21.7062 82.6631ZM21.8908 75.0869C21.5978 75.0869 21.3195 75.2539 21.0558 75.5879C20.7921 75.9219 20.5812 76.373 20.423 76.9414C20.2707 77.5098 20.1945 78.0869 20.1945 78.6729C20.1945 79.0537 20.2502 79.3584 20.3615 79.5869C20.4728 79.8154 20.6457 79.9297 20.88 79.9297C21.1671 79.9297 21.4484 79.7568 21.7238 79.4111C21.9992 79.0654 22.2218 78.6084 22.3918 78.04C22.5617 77.4717 22.6466 76.9092 22.6466 76.3525C22.6466 75.5088 22.3947 75.0869 21.8908 75.0869Z" fill="black"/>
<path d="M31.3109 82.6631C30.1448 82.6631 29.2337 82.3115 28.5775 81.6084C27.9271 80.8994 27.6019 79.8975 27.6019 78.6025C27.6019 77.4248 27.8245 76.3584 28.2698 75.4033C28.721 74.4424 29.3509 73.6953 30.1595 73.1621C30.9739 72.623 31.8968 72.3535 32.928 72.3535C34.0706 72.3535 35.1458 72.5879 36.1536 73.0566L35.0726 75.5791C34.2933 75.2275 33.6341 75.0518 33.095 75.0518C32.7318 75.0518 32.3948 75.1924 32.0843 75.4736C31.7737 75.7549 31.5189 76.1768 31.3196 76.7393C31.1204 77.2959 31.0208 77.8438 31.0208 78.3828C31.0208 78.916 31.1087 79.3086 31.2845 79.5605C31.4603 79.8066 31.7386 79.9297 32.1194 79.9297C32.5413 79.9297 32.9485 79.8623 33.3411 79.7275C33.7396 79.5928 34.1614 79.4082 34.6068 79.1738V81.8721C34.138 82.1299 33.6429 82.3262 33.1214 82.4609C32.6058 82.5957 32.0023 82.6631 31.3109 82.6631Z" fill="black"/>
<path d="M41.0825 72.3535C41.5219 72.3535 41.8911 72.4443 42.1899 72.626C42.4887 72.8018 42.8139 73.1562 43.1655 73.6895H43.2358L43.2534 73.3643C43.2944 72.5557 43.3676 71.9199 43.4731 71.457L44.018 68.8115H47.4546L44.5542 82.4873H41.8383L41.9262 81.4062H41.8559C41.5219 81.8691 41.1704 82.1943 40.8012 82.3818C40.4321 82.5693 39.9985 82.6631 39.5005 82.6631C38.5747 82.6631 37.8716 82.3379 37.3911 81.6875C36.9106 81.0312 36.6704 80.0908 36.6704 78.8662C36.6704 77.8232 36.8784 76.7598 37.2944 75.6758C37.7163 74.5918 38.2553 73.7686 38.9116 73.2061C39.5678 72.6377 40.2915 72.3535 41.0825 72.3535ZM40.8979 79.9297C41.1909 79.9297 41.4692 79.7598 41.7329 79.4199C42.0024 79.0742 42.2163 78.6143 42.3745 78.04C42.5327 77.4658 42.6118 76.9033 42.6118 76.3525C42.6118 75.5088 42.3774 75.0869 41.9087 75.0869C41.6216 75.0869 41.3403 75.2598 41.0649 75.6055C40.7895 75.9512 40.5669 76.4082 40.3969 76.9766C40.227 77.5391 40.1421 78.1045 40.1421 78.6729C40.1421 79.5107 40.394 79.9297 40.8979 79.9297Z" fill="black"/>
<path d="M51.4869 82.6631C50.2448 82.6631 49.278 82.3174 48.5866 81.626C47.8951 80.9287 47.5494 79.9619 47.5494 78.7256C47.5494 77.4893 47.7926 76.376 48.2789 75.3857C48.7711 74.3896 49.442 73.6367 50.2916 73.127C51.1471 72.6113 52.1344 72.3535 53.2535 72.3535C54.3668 72.3535 55.2428 72.6055 55.8815 73.1094C56.5201 73.6133 56.8395 74.2842 56.8395 75.1221C56.8395 76.2998 56.3795 77.2051 55.4596 77.8379C54.5455 78.4648 53.2213 78.7783 51.4869 78.7783H50.9684V78.9189C50.9684 79.7861 51.4489 80.2197 52.4098 80.2197C52.8727 80.2197 53.3268 80.1523 53.7721 80.0176C54.2174 79.877 54.7242 79.6572 55.2926 79.3584V81.7666C54.6364 82.1006 54.0241 82.335 53.4557 82.4697C52.8873 82.5986 52.2311 82.6631 51.4869 82.6631ZM52.8756 74.6562C52.5182 74.6562 52.1842 74.8613 51.8737 75.2715C51.5631 75.6758 51.3756 76.1357 51.3112 76.6514H51.566C52.2047 76.6514 52.7057 76.5312 53.069 76.291C53.4323 76.0449 53.6139 75.7227 53.6139 75.3242C53.6139 75.1367 53.5553 74.9785 53.4381 74.8496C53.3209 74.7207 53.1334 74.6562 52.8756 74.6562Z" fill="black"/>
<path d="M57.2192 86.8115C56.5747 86.8115 55.9682 86.7324 55.3999 86.5742V83.9111C55.769 84.0166 56.1118 84.0693 56.4282 84.0693C56.8618 84.0693 57.1899 83.9814 57.4126 83.8057C57.6352 83.6299 57.7876 83.3516 57.8696 82.9707L59.5395 75.0869H58.0805L58.4585 73.417L60.1196 72.5732L60.2602 71.9229C60.5122 70.7979 60.9399 69.9834 61.5434 69.4795C62.1528 68.9697 62.9614 68.7148 63.9692 68.7148C64.438 68.7148 64.8921 68.7617 65.3315 68.8555C65.771 68.9492 66.146 69.0723 66.4565 69.2246L65.5864 71.5449C65.2114 71.3633 64.8335 71.2725 64.4526 71.2725C64.2475 71.2725 64.0717 71.3281 63.9253 71.4395C63.7846 71.5449 63.6909 71.7002 63.644 71.9053L63.5034 72.5293H65.3579L64.7778 75.0869H62.9409L61.1391 83.5156C60.8872 84.6406 60.436 85.4697 59.7856 86.0029C59.1411 86.542 58.2856 86.8115 57.2192 86.8115Z" fill="black"/>
<path d="M75.4777 72.5293L75.1173 74.3486L73.7111 74.8057C73.7697 75.04 73.799 75.3154 73.799 75.6318C73.799 76.751 73.4181 77.6562 72.6564 78.3477C71.8947 79.0332 70.9015 79.376 69.6769 79.376C69.2316 79.376 68.8683 79.3379 68.5871 79.2617C68.4699 79.3262 68.3703 79.3906 68.2882 79.4551C68.2062 79.5195 68.1652 79.6074 68.1652 79.7188C68.1652 79.9707 68.4904 80.1436 69.1408 80.2373L70.3449 80.3955C71.3644 80.542 72.0968 80.8115 72.5421 81.2041C72.9875 81.5908 73.2101 82.1445 73.2101 82.8652C73.2101 84.125 72.715 85.0977 71.7248 85.7832C70.7404 86.4688 69.34 86.8115 67.5236 86.8115C66.2814 86.8115 65.2941 86.5889 64.5617 86.1436C63.8234 85.7041 63.4543 85.0918 63.4543 84.3066C63.4543 83.7324 63.6535 83.2373 64.0519 82.8213C64.4503 82.4053 65.0714 82.0596 65.9152 81.7842C65.6984 81.6494 65.5197 81.4736 65.3791 81.2568C65.2443 81.04 65.1769 80.8086 65.1769 80.5625C65.1769 80.1465 65.3263 79.7773 65.6252 79.4551C65.924 79.1328 66.3693 78.8369 66.9611 78.5674C66.1935 77.9639 65.8097 77.1406 65.8097 76.0977C65.8097 74.9492 66.2082 74.0381 67.005 73.3643C67.8019 72.6904 68.88 72.3535 70.2394 72.3535C70.5382 72.3535 70.8517 72.3711 71.1798 72.4062C71.5138 72.4414 71.7775 72.4824 71.9709 72.5293H75.4777ZM66.3546 83.8232C66.3546 84.3271 66.8527 84.5791 67.8488 84.5791C68.5812 84.5791 69.1378 84.4941 69.5187 84.3242C69.9054 84.1543 70.0988 83.9141 70.0988 83.6035C70.0988 83.3926 70.0021 83.2314 69.8087 83.1201C69.6154 83.0146 69.2785 82.9355 68.798 82.8828L67.7873 82.7773C67.3302 82.8418 66.9757 82.9619 66.7238 83.1377C66.4777 83.3193 66.3546 83.5479 66.3546 83.8232ZM69.0177 76.4053C69.0177 76.9561 69.214 77.2314 69.6066 77.2314C69.9113 77.2314 70.1603 77.0322 70.3537 76.6338C70.5529 76.2295 70.6525 75.7637 70.6525 75.2363C70.6525 74.6797 70.4738 74.4014 70.1164 74.4014C69.8937 74.4014 69.7003 74.501 69.5363 74.7002C69.3722 74.8936 69.2433 75.1484 69.1496 75.4648C69.0617 75.7812 69.0177 76.0947 69.0177 76.4053Z" fill="black"/>
<path d="M80.3135 82.4873L81.4473 77.0557C81.5527 76.5986 81.6055 76.1826 81.6055 75.8076C81.6055 75.5557 81.541 75.3682 81.4121 75.2451C81.2832 75.1162 81.1279 75.0518 80.9463 75.0518C80.2139 75.0518 79.6719 75.9102 79.3203 77.627L78.3008 82.4873H74.8994L77.791 68.8115H81.1924L80.7266 71C80.5215 71.9258 80.2637 72.7549 79.9531 73.4873H80.0234C80.6152 72.7314 81.415 72.3535 82.4229 72.3535C83.249 72.3535 83.8936 72.6055 84.3564 73.1094C84.8193 73.6074 85.0508 74.2988 85.0508 75.1836C85.0508 75.8047 84.9775 76.4756 84.8311 77.1963L83.7148 82.4873H80.3135Z" fill="black"/>
<path d="M89.4998 82.4873H86.0985L88.1991 72.5293H91.618L89.4998 82.4873ZM88.6122 70.3408C88.6122 69.7373 88.785 69.2803 89.1307 68.9697C89.4823 68.6592 89.9715 68.5039 90.5985 68.5039C91.1317 68.5039 91.5418 68.6123 91.8289 68.8291C92.1219 69.04 92.2684 69.3447 92.2684 69.7432C92.2684 70.3291 92.0985 70.7832 91.7586 71.1055C91.4188 71.4219 90.9295 71.5801 90.2909 71.5801C89.1717 71.5801 88.6122 71.167 88.6122 70.3408Z" fill="black"/>
<path d="M91.2525 86.8115C90.6079 86.8115 90.0015 86.7324 89.4331 86.5742V83.9111C89.7613 84.0166 90.0894 84.0693 90.4175 84.0693C91.2495 84.0693 91.7622 83.6387 91.9556 82.7773L94.1265 72.5293H97.5279L95.2427 83.3135C95.0083 84.4443 94.5484 85.3086 93.8628 85.9062C93.1773 86.5098 92.3072 86.8115 91.2525 86.8115ZM94.5396 70.3408C94.5396 69.7373 94.7124 69.2803 95.0581 68.9697C95.4097 68.6592 95.899 68.5039 96.5259 68.5039C97.0591 68.5039 97.4693 68.6123 97.7564 68.8291C98.0493 69.04 98.1958 69.3447 98.1958 69.7432C98.1958 70.2939 98.0347 70.7393 97.7124 71.0791C97.3902 71.4131 96.8921 71.5801 96.2183 71.5801C95.0992 71.5801 94.5396 71.167 94.5396 70.3408Z" fill="black"/>
<path d="M100.669 68.8115H104.071L102.849 74.6387C102.749 75.0898 102.55 75.7432 102.251 76.5986H102.33C102.822 75.8545 103.271 75.2686 103.675 74.8408L105.802 72.5293H109.687L105.371 77.0293L107.78 82.4873H103.93L102.708 79.0508L101.821 79.5166L101.214 82.4873H97.8127L100.669 68.8115Z" fill="black"/>
<path d="M112.327 82.4873H108.926L111.817 68.8115H115.219L112.327 82.4873Z" fill="black"/>
<path d="M120.25 82.4873L121.401 76.9414C121.489 76.4141 121.533 76.0596 121.533 75.8779C121.533 75.3271 121.322 75.0518 120.9 75.0518C120.502 75.0518 120.168 75.2715 119.898 75.7109C119.634 76.1445 119.409 76.7891 119.221 77.6445L118.184 82.4873H114.783L116.883 72.5293H119.599L119.459 74.1729H119.529C119.886 73.5049 120.288 73.0361 120.733 72.7666C121.178 72.4912 121.738 72.3535 122.412 72.3535C123.097 72.3535 123.625 72.5117 123.994 72.8281C124.369 73.1387 124.632 73.5869 124.785 74.1729H124.855C125.236 73.5518 125.672 73.0947 126.165 72.8018C126.657 72.5029 127.228 72.3535 127.879 72.3535C128.705 72.3535 129.332 72.6025 129.759 73.1006C130.187 73.5928 130.401 74.3223 130.401 75.2891C130.401 75.8574 130.337 76.458 130.208 77.0908L129.109 82.4873H125.708L126.841 76.9414C126.923 76.6133 126.964 76.2236 126.964 75.7725C126.964 75.5381 126.909 75.3594 126.797 75.2363C126.686 75.1133 126.537 75.0518 126.349 75.0518C125.916 75.0518 125.564 75.2744 125.295 75.7197C125.031 76.165 124.808 76.8301 124.627 77.7148L123.651 82.4873H120.25Z" fill="black"/>
</g>
<g id="nopqrstuvwxyz">
<path d="M11.9082 99.8076C11.9082 99.5557 11.8438 99.3682 11.7148 99.2451C11.5859 99.1162 11.4307 99.0518 11.249 99.0518C10.915 99.0518 10.6045 99.2598 10.3174 99.6758C10.0361 100.092 9.80469 100.742 9.62305 101.627L8.60352 106.487H5.20215L7.30273 96.5293H10.0186L9.91309 97.918H9.9834C10.3057 97.3613 10.6836 96.9629 11.1172 96.7227C11.5566 96.4766 12.0928 96.3535 12.7256 96.3535C13.5518 96.3535 14.1963 96.6055 14.6592 97.1094C15.1221 97.6074 15.3535 98.2988 15.3535 99.1836C15.3535 99.8047 15.2803 100.476 15.1338 101.196L14.0176 106.487H10.6162L11.75 101.056C11.8555 100.599 11.9082 100.183 11.9082 99.8076Z" fill="black"/>
<path d="M20.7694 106.663C19.5448 106.663 18.5985 106.332 17.9305 105.67C17.2684 105.008 16.9373 104.062 16.9373 102.831C16.9373 101.601 17.1688 100.49 17.6317 99.5C18.1004 98.5039 18.7567 97.7305 19.6004 97.1797C20.4442 96.6289 21.4286 96.3535 22.5536 96.3535C23.7782 96.3535 24.7215 96.6846 25.3836 97.3467C26.0516 98.0088 26.3856 98.9551 26.3856 100.186C26.3856 101.416 26.1512 102.529 25.6825 103.525C25.2196 104.516 24.5663 105.286 23.7225 105.837C22.8788 106.388 21.8944 106.663 20.7694 106.663ZM22.1581 98.9111C21.6776 98.9111 21.2645 99.3213 20.9188 100.142C20.5789 100.956 20.409 101.891 20.409 102.945C20.409 103.725 20.6551 104.114 21.1473 104.114C21.6219 104.114 22.035 103.707 22.3866 102.893C22.7381 102.078 22.9139 101.141 22.9139 100.08C22.9139 99.6934 22.8465 99.4033 22.7118 99.21C22.577 99.0107 22.3924 98.9111 22.1581 98.9111Z" fill="black"/>
<path d="M32.8525 106.663C32.0146 106.663 31.3379 106.238 30.8223 105.389H30.752C30.6816 106.361 30.5176 107.448 30.2598 108.649L29.8115 110.812H26.4102L29.4336 96.5293H32.1494L32.0439 97.6455H32.1143C32.6768 96.7842 33.4326 96.3535 34.3818 96.3535C35.2959 96.3535 36.0137 96.6816 36.5352 97.3379C37.0566 97.9883 37.3174 98.8848 37.3174 100.027C37.3174 101.217 37.1123 102.339 36.7021 103.394C36.292 104.442 35.7471 105.251 35.0674 105.819C34.3936 106.382 33.6553 106.663 32.8525 106.663ZM33.0898 99.0869C32.7969 99.0869 32.5186 99.2539 32.2549 99.5879C31.9912 99.9219 31.7803 100.373 31.6221 100.941C31.4697 101.51 31.3936 102.087 31.3936 102.673C31.3936 103.054 31.4609 103.358 31.5957 103.587C31.7305 103.815 31.9209 103.93 32.167 103.93C32.4482 103.93 32.7178 103.763 32.9756 103.429C33.2334 103.095 33.4414 102.646 33.5996 102.084C33.7637 101.521 33.8457 100.944 33.8457 100.353C33.8457 99.5088 33.5938 99.0869 33.0898 99.0869Z" fill="black"/>
<path d="M43.213 96.3535C43.7345 96.3535 44.1593 96.4502 44.4875 96.6436C44.8214 96.8369 45.1701 97.209 45.5334 97.7598H45.6037L46.0695 96.5293H48.7941L45.7707 110.812H42.3253L42.923 108.236C43.0695 107.557 43.3332 106.648 43.714 105.512H43.6437C43.3214 105.945 42.9875 106.247 42.6418 106.417C42.2961 106.581 41.9035 106.663 41.464 106.663C40.9425 106.663 40.4796 106.517 40.0753 106.224C39.6711 105.925 39.3576 105.491 39.1349 104.923C38.9123 104.349 38.8009 103.675 38.8009 102.901C38.8009 101.841 39.0089 100.769 39.425 99.6846C39.8468 98.5947 40.383 97.7686 41.0334 97.2061C41.6896 96.6377 42.4162 96.3535 43.213 96.3535ZM43.0285 103.93C43.3214 103.93 43.5998 103.76 43.8634 103.42C44.133 103.074 44.3468 102.614 44.505 102.04C44.6632 101.466 44.7423 100.903 44.7423 100.353C44.7423 99.5088 44.508 99.0869 44.0392 99.0869C43.7521 99.0869 43.4709 99.2598 43.1955 99.6055C42.9201 99.9512 42.6974 100.408 42.5275 100.977C42.3576 101.539 42.2726 102.104 42.2726 102.673C42.2726 103.511 42.5246 103.93 43.0285 103.93Z" fill="black"/>
<path d="M56.9134 96.3535C57.2415 96.3535 57.4759 96.377 57.6165 96.4238L56.8782 99.79C56.5618 99.6611 56.2015 99.5967 55.7972 99.5967C55.1937 99.5967 54.7103 99.8047 54.347 100.221C53.9896 100.631 53.7171 101.261 53.5296 102.11L52.598 106.487H49.1966L51.2972 96.5293H54.013L53.8548 98.1904H53.9251C54.306 97.5342 54.7191 97.0654 55.1644 96.7842C55.6097 96.4971 56.1927 96.3535 56.9134 96.3535Z" fill="black"/>
<path d="M64.7023 103.033C64.7023 104.199 64.3214 105.096 63.5597 105.723C62.798 106.35 61.7023 106.663 60.2726 106.663C58.9718 106.663 57.9289 106.479 57.1437 106.109V103.376C57.6828 103.669 58.1837 103.874 58.6466 103.991C59.1095 104.108 59.5783 104.167 60.0529 104.167C60.4513 104.167 60.7502 104.114 60.9494 104.009C61.1486 103.897 61.2482 103.745 61.2482 103.552C61.2482 103.347 61.172 103.171 61.0197 103.024C60.8673 102.872 60.4865 102.623 59.8771 102.277C59.256 101.938 58.8019 101.548 58.5148 101.108C58.2336 100.669 58.0929 100.133 58.0929 99.5C58.0929 98.4922 58.4474 97.7158 59.1564 97.1709C59.8654 96.626 60.8732 96.3535 62.1798 96.3535C62.8361 96.3535 63.4337 96.4297 63.9728 96.582C64.5119 96.7344 65.0363 96.9688 65.5461 97.2852L64.4826 99.5C64.0959 99.248 63.6945 99.0488 63.2785 98.9023C62.8683 98.75 62.5138 98.6738 62.215 98.6738C61.7697 98.6738 61.547 98.873 61.547 99.2715C61.547 99.4414 61.6378 99.5908 61.8195 99.7197C62.007 99.8486 62.3087 100.016 62.7248 100.221C64.0431 100.877 64.7023 101.814 64.7023 103.033Z" fill="black"/>
<path d="M70.8916 103.93C71.2783 103.93 71.8145 103.792 72.5 103.517V106.074C71.7031 106.467 70.707 106.663 69.5117 106.663C68.6445 106.663 67.9854 106.479 67.5342 106.109C67.0889 105.734 66.8662 105.122 66.8662 104.272C66.8662 103.827 66.9365 103.276 67.0771 102.62L67.8154 99.0869H66.4619L66.8223 97.417L68.7383 96.6436L69.9424 94.5342H72.21L71.7793 96.5293H74.3105L73.7568 99.0869H71.2168L70.4785 102.453C70.3848 102.904 70.3379 103.212 70.3379 103.376C70.3379 103.745 70.5225 103.93 70.8916 103.93Z" fill="black"/>
<path d="M78.4168 103.191C78.4168 103.449 78.4813 103.64 78.6102 103.763C78.745 103.886 78.9032 103.947 79.0848 103.947C79.4305 103.947 79.744 103.719 80.0252 103.262C80.3123 102.799 80.5409 102.169 80.7108 101.372L81.7303 96.5293H85.1317L83.0311 106.487H80.3065L80.4207 105.099H80.3504C80.034 105.644 79.6561 106.042 79.2166 106.294C78.7831 106.54 78.2469 106.663 77.6082 106.663C76.7821 106.663 76.1375 106.414 75.6747 105.916C75.2118 105.412 74.9803 104.721 74.9803 103.842C74.9803 103.221 75.0536 102.55 75.2 101.829L76.3163 96.5293H79.7176L78.5838 101.952C78.4725 102.433 78.4168 102.846 78.4168 103.191Z" fill="black"/>
<path d="M87.3835 106.487L86.1091 96.5293H89.4929L89.7302 101.829C89.7302 102.257 89.7067 102.603 89.6599 102.866H89.7302C89.736 102.784 89.7888 102.6 89.8884 102.312C89.988 102.025 90.0934 101.762 90.2048 101.521C90.3161 101.281 91.0925 99.6172 92.5339 96.5293H96.1725L90.7936 106.487H87.3835Z" fill="black"/>
<path d="M102.508 106.487L102.683 102.541C102.695 102.113 102.727 101.501 102.78 100.704C102.839 99.9072 102.903 99.2656 102.973 98.7793H102.903C102.552 100.145 102.197 101.287 101.84 102.207L100.179 106.487H96.6014L96.0213 96.5293H99.2293V101.029C99.2293 102.096 99.2059 102.854 99.159 103.306H99.2293C99.4989 102.269 99.7567 101.404 100.003 100.713L101.514 96.5293H105.276L105.1 100.713C105.048 101.469 104.951 102.333 104.81 103.306H104.881C104.922 103.177 104.966 103.039 105.013 102.893C105.065 102.74 105.209 102.33 105.443 101.662C105.678 100.988 106.384 99.2773 107.561 96.5293H110.945L106.217 106.487H102.508Z" fill="black"/>
<path d="M114.737 103.604L112.882 106.487H108.901L113.058 101.407L111.239 96.5293H114.948L115.616 99.2891L117.251 96.5293H121.285L117.198 101.592L119.202 106.487H115.44L114.737 103.604Z" fill="black"/>
<path d="M120.861 96.5293H124.28L124.658 101.469L124.675 102.014V102.778H124.746C124.963 102.005 125.109 101.521 125.185 101.328C125.261 101.129 125.962 99.5293 127.286 96.5293H130.942L125.053 107.744C124.491 108.828 123.838 109.61 123.093 110.091C122.349 110.571 121.438 110.812 120.36 110.812C119.821 110.812 119.37 110.762 119.007 110.662V107.964C119.276 108.034 119.595 108.069 119.965 108.069C120.474 108.069 120.89 107.961 121.213 107.744C121.541 107.533 121.831 107.199 122.083 106.742L122.285 106.382L120.861 96.5293Z" fill="black"/>
<path d="M136.987 106.487H129.569L129.947 104.545L134.359 99.1572H131.301L131.889 96.5293H139.017L138.552 98.6562L134.192 103.859H137.558L136.987 106.487Z" fill="black"/>
</g>
<g id="1234567890">
<path d="M11.8027 130.487H8.38379L9.91309 123.465C10.0771 122.691 10.2998 121.941 10.5811 121.215C10.124 121.613 9.74023 121.915 9.42969 122.12L7.64551 123.219L6.31836 121.004L11.7676 117.638H14.501L11.8027 130.487Z" fill="black"/>
<path d="M23.7735 130.487H14.9405L15.4064 128.237L19.6515 124.405C21.1046 123.11 21.8312 122.053 21.8312 121.232C21.8312 120.945 21.755 120.731 21.6026 120.591C21.4503 120.444 21.2569 120.371 21.0226 120.371C20.3194 120.371 19.4962 120.802 18.5528 121.663L16.9181 119.396C18.2892 118.101 19.8741 117.453 21.673 117.453C22.7452 117.453 23.6095 117.746 24.2657 118.332C24.922 118.912 25.2501 119.7 25.2501 120.696C25.2501 121.587 24.9952 122.422 24.4855 123.201C23.9757 123.98 23.1026 124.903 21.8663 125.97L20.0646 127.517V127.622H24.3712L23.7735 130.487Z" fill="black"/>
<path d="M35.7795 120.494C35.7795 121.361 35.5158 122.079 34.9885 122.647C34.467 123.216 33.7287 123.597 32.7736 123.79V123.86C33.5295 124.007 34.1213 124.335 34.549 124.845C34.9768 125.349 35.1906 125.97 35.1906 126.708C35.1906 127.974 34.6691 128.949 33.6262 129.635C32.5832 130.32 31.1711 130.663 29.3898 130.663C28.7102 130.663 28.0715 130.604 27.4738 130.487C26.882 130.364 26.3928 130.191 26.0061 129.969V127.051C26.9846 127.637 28.0891 127.93 29.3195 127.93C30.1281 127.93 30.7316 127.795 31.1301 127.525C31.5344 127.25 31.7365 126.857 31.7365 126.348C31.7365 126.031 31.6574 125.794 31.4992 125.636C31.341 125.478 31.0891 125.363 30.7434 125.293C30.3977 125.217 29.9113 125.179 29.2844 125.179H28.5461L29.0119 122.621H29.6975C30.5588 122.621 31.2297 122.486 31.7102 122.217C32.1906 121.941 32.4309 121.566 32.4309 121.092C32.4309 120.822 32.3254 120.605 32.1145 120.441C31.9035 120.277 31.6135 120.195 31.2443 120.195C30.5588 120.195 29.7678 120.441 28.8713 120.934L27.4826 118.754C28.2209 118.279 28.9328 117.945 29.6184 117.752C30.3098 117.553 31.0686 117.453 31.8947 117.453C33.0725 117.453 34.0129 117.726 34.716 118.271C35.425 118.815 35.7795 119.557 35.7795 120.494Z" fill="black"/>
<path d="M45.6849 128H44.3665L43.848 130.487H40.5345L41.0618 128H36.2366L36.6849 125.75L43.3821 117.638H46.5462L44.9114 125.407H46.221L45.6849 128ZM41.598 125.407L42.0286 123.702C42.1985 123.075 42.3743 122.457 42.556 121.848H42.4769C42.178 122.416 41.844 122.92 41.4749 123.359L39.761 125.407H41.598Z" fill="black"/>
<path d="M52.5229 122.067C53.5834 122.067 54.4418 122.413 55.0981 123.104C55.7602 123.79 56.0912 124.716 56.0912 125.882C56.0912 127.411 55.6195 128.592 54.6762 129.424C53.7328 130.25 52.3676 130.663 50.5805 130.663C49.8246 130.663 49.1068 130.599 48.4272 130.47C47.7533 130.341 47.2582 130.162 46.9418 129.934V127.086C47.4047 127.35 47.935 127.558 48.5326 127.71C49.1303 127.856 49.6693 127.93 50.1498 127.93C51.7729 127.93 52.5844 127.367 52.5844 126.242C52.5844 125.797 52.435 125.437 52.1361 125.161C51.8432 124.886 51.4447 124.748 50.9408 124.748C50.6303 124.748 50.3051 124.777 49.9652 124.836C49.6254 124.895 49.3559 124.959 49.1567 125.029L48.0844 124.221L49.974 117.638H57.1195L56.5219 120.477H52.3822L51.8637 122.103C52.0688 122.079 52.2885 122.067 52.5229 122.067Z" fill="black"/>
<path d="M65.7417 117.453C66.3394 117.453 67.022 117.544 67.7896 117.726L67.2359 120.389C66.6792 120.242 66.1431 120.169 65.6275 120.169C64.7778 120.169 64.0835 120.269 63.5444 120.468C63.0054 120.667 62.5601 120.986 62.2085 121.426C61.8628 121.859 61.5523 122.516 61.2769 123.395H61.3472C61.9683 122.398 62.8677 121.9 64.0454 121.9C64.9829 121.9 65.6978 122.202 66.19 122.806C66.6821 123.409 66.9282 124.285 66.9282 125.434C66.9282 126.459 66.7261 127.373 66.3218 128.176C65.9234 128.973 65.3462 129.588 64.5903 130.021C63.8403 130.449 62.9702 130.663 61.98 130.663C60.6616 130.663 59.6509 130.3 58.9478 129.573C58.2446 128.847 57.8931 127.771 57.8931 126.348C57.8931 125.732 57.9692 124.988 58.1216 124.115C58.6196 121.818 59.4927 120.134 60.7407 119.062C61.9946 117.989 63.6616 117.453 65.7417 117.453ZM62.1382 127.965C62.5249 127.965 62.8442 127.742 63.0962 127.297C63.3482 126.846 63.4741 126.312 63.4741 125.697C63.4741 124.941 63.2046 124.563 62.6655 124.563C62.2671 124.563 61.936 124.777 61.6724 125.205C61.4087 125.633 61.2769 126.163 61.2769 126.796C61.2769 127.183 61.353 127.476 61.5054 127.675C61.6636 127.868 61.8745 127.965 62.1382 127.965Z" fill="black"/>
<path d="M67.9567 130.487L74.2584 120.512H69.2135L69.8287 117.638H78.8815L78.4332 119.668L71.8941 130.487H67.9567Z" fill="black"/>
<path d="M84.4626 117.436C85.6345 117.436 86.5603 117.708 87.24 118.253C87.9196 118.792 88.2595 119.498 88.2595 120.371C88.2595 121.121 88.031 121.792 87.5739 122.384C87.1228 122.97 86.531 123.38 85.7986 123.614C86.3376 124.03 86.7478 124.493 87.029 125.003C87.3103 125.513 87.4509 126.11 87.4509 126.796C87.4509 128.003 87.0378 128.949 86.2116 129.635C85.3855 130.32 84.2517 130.663 82.8103 130.663C81.4919 130.663 80.446 130.373 79.6726 129.793C78.905 129.213 78.5212 128.454 78.5212 127.517C78.5212 125.753 79.4939 124.528 81.4392 123.843C80.5251 123.134 80.0681 122.229 80.0681 121.127C80.0681 120.418 80.2439 119.785 80.5954 119.229C80.9529 118.666 81.4626 118.227 82.1247 117.91C82.7927 117.594 83.572 117.436 84.4626 117.436ZM83.2234 125.144C82.2273 125.671 81.7292 126.324 81.7292 127.104C81.7292 127.42 81.8347 127.681 82.0456 127.886C82.2624 128.085 82.5466 128.185 82.8982 128.185C83.3083 128.185 83.6364 128.062 83.8825 127.815C84.1345 127.569 84.2605 127.247 84.2605 126.849C84.2605 126.175 83.9148 125.606 83.2234 125.144ZM84.3044 119.923C84.0232 119.923 83.7771 120.04 83.5661 120.274C83.3611 120.503 83.2585 120.787 83.2585 121.127C83.2585 121.35 83.3259 121.575 83.4607 121.804C83.6013 122.032 83.7859 122.202 84.0144 122.313C84.3542 122.185 84.6237 121.977 84.823 121.689C85.028 121.402 85.1306 121.101 85.1306 120.784C85.1306 120.497 85.0456 120.283 84.8757 120.143C84.7116 119.996 84.5212 119.923 84.3044 119.923Z" fill="black"/>
<path d="M98.5252 122.12C98.5252 123.837 98.2235 125.36 97.6199 126.69C97.0164 128.015 96.1785 129.008 95.1063 129.67C94.0399 130.332 92.7772 130.663 91.3182 130.663C90.6444 130.663 90.0262 130.575 89.4637 130.399V127.64C90.0028 127.856 90.5975 127.965 91.2479 127.965C92.3436 127.965 93.1961 127.71 93.8055 127.2C94.4207 126.69 94.8455 125.867 95.0799 124.73H95.0096C94.6639 125.287 94.2772 125.683 93.8494 125.917C93.4217 126.146 92.9266 126.26 92.3641 126.26C91.4793 126.26 90.7791 125.938 90.2635 125.293C89.7479 124.648 89.4901 123.781 89.4901 122.691C89.4901 121.66 89.6805 120.752 90.0613 119.967C90.4481 119.176 91.0047 118.561 91.7313 118.121C92.4637 117.676 93.3367 117.453 94.3504 117.453C95.6981 117.453 96.7293 117.857 97.4442 118.666C98.1649 119.469 98.5252 120.62 98.5252 122.12ZM94.4383 120.151C94.0106 120.151 93.6531 120.359 93.366 120.775C93.0848 121.191 92.9442 121.698 92.9442 122.296C92.9442 123.14 93.2137 123.562 93.7528 123.562C94.1863 123.562 94.5526 123.356 94.8514 122.946C95.1502 122.53 95.2996 122.026 95.2996 121.435C95.2996 121.048 95.2176 120.737 95.0535 120.503C94.8953 120.269 94.6903 120.151 94.4383 120.151Z" fill="black"/>
<path d="M109.143 121.848C109.143 123.594 108.893 125.146 108.395 126.506C107.897 127.859 107.209 128.891 106.33 129.6C105.451 130.309 104.432 130.663 103.271 130.663C102.041 130.663 101.109 130.294 100.476 129.556C99.8437 128.817 99.5273 127.766 99.5273 126.4C99.5273 124.672 99.7763 123.11 100.274 121.716C100.772 120.315 101.461 119.252 102.34 118.525C103.219 117.799 104.238 117.436 105.398 117.436C106.189 117.436 106.863 117.62 107.42 117.989C107.982 118.353 108.41 118.862 108.703 119.519C108.996 120.175 109.143 120.951 109.143 121.848ZM105.003 120.213C104.681 120.213 104.358 120.538 104.036 121.188C103.714 121.839 103.453 122.665 103.254 123.667C103.055 124.669 102.955 125.604 102.955 126.471C102.955 126.963 102.999 127.323 103.087 127.552C103.175 127.78 103.351 127.895 103.614 127.895C103.954 127.895 104.279 127.619 104.59 127.068C104.906 126.512 105.173 125.732 105.39 124.73C105.612 123.729 105.724 122.744 105.724 121.777C105.724 121.279 105.668 120.896 105.557 120.626C105.451 120.351 105.267 120.213 105.003 120.213Z" fill="black"/>
</g>
</g>
<defs>
<clipPath id="clip0">
<rect width="162" height="134.976" fill="white" transform="translate(0 0.511719)"/>
</clipPath>
</defs>
</svg>
