<svg width="169" height="136" viewBox="0 0 169 136" fill="none" xmlns="http://www.w3.org/2000/svg">
<g id="OpenSans_bold">
<g id="Bold">
<path d="M1.30566 13.5117V3.39453H3.93066C4.94238 3.39453 5.71712 3.58594 6.25488 3.96875C6.7972 4.35156 7.06836 4.90299 7.06836 5.62305C7.06836 6.84896 6.37565 7.72168 4.99023 8.24121C6.64453 8.74707 7.47168 9.66081 7.47168 10.9824C7.47168 11.8027 7.19824 12.4294 6.65137 12.8623C6.10449 13.2952 5.31608 13.5117 4.28613 13.5117H1.30566ZM2.72754 12.4385H3.02148C4.07422 12.4385 4.75553 12.3724 5.06543 12.2402C5.65788 11.9896 5.9541 11.5247 5.9541 10.8457C5.9541 10.2441 5.68522 9.74512 5.14746 9.34863C4.6097 8.94759 3.9375 8.74707 3.13086 8.74707H2.72754V12.4385ZM2.72754 7.83789H3.18555C3.95117 7.83789 4.54362 7.67383 4.96289 7.3457C5.38672 7.01758 5.59863 6.55501 5.59863 5.95801C5.59863 4.96452 4.82845 4.46777 3.28809 4.46777H2.72754V7.83789Z" fill="black"/>
<path d="M12.2942 13.6826C11.2323 13.6826 10.3847 13.3317 9.75122 12.6299C9.11776 11.9235 8.80102 10.9801 8.80102 9.7998C8.80102 8.60579 9.11776 7.66243 9.75122 6.96973C10.3892 6.27246 11.2528 5.92383 12.342 5.92383C13.4312 5.92383 14.2926 6.27246 14.926 6.96973C15.564 7.66243 15.8831 8.60124 15.8831 9.78613C15.8831 10.9984 15.564 11.9508 14.926 12.6436C14.288 13.3363 13.4107 13.6826 12.2942 13.6826ZM12.3147 12.6709C13.7411 12.6709 14.4543 11.7093 14.4543 9.78613C14.4543 7.88574 13.7502 6.93555 12.342 6.93555C10.9384 6.93555 10.2366 7.8903 10.2366 9.7998C10.2366 11.7139 10.9293 12.6709 12.3147 12.6709Z" fill="black"/>
<path d="M17.978 13.5117V2.71777H19.3247V13.5117H17.978Z" fill="black"/>
<path d="M26.779 13.5117V12.1172C26.2322 13.1608 25.4073 13.6826 24.3044 13.6826C23.4112 13.6826 22.7071 13.3568 22.1921 12.7051C21.6817 12.0534 21.4265 11.1624 21.4265 10.0322C21.4265 8.7972 21.7159 7.80371 22.2947 7.05176C22.878 6.2998 23.6436 5.92383 24.5915 5.92383C25.4711 5.92383 26.2003 6.26107 26.779 6.93555V2.71777H28.1326V13.5117H26.779ZM26.779 7.8584C26.0818 7.24316 25.421 6.93555 24.7966 6.93555C23.5069 6.93555 22.8621 7.9222 22.8621 9.89551C22.8621 11.6318 23.4363 12.5 24.5847 12.5C25.3321 12.5 26.0636 12.0921 26.779 11.2764V7.8584Z" fill="black"/>
</g>
<g id="ABCDEFGHIJKLM">
<path d="M14.4834 34.4873L13.5518 31.4287H8.86719L7.93555 34.4873H5L9.53516 21.585H12.8662L17.4189 34.4873H14.4834ZM12.9014 29.1436C12.04 26.3721 11.5537 24.8047 11.4424 24.4414C11.3369 24.0781 11.2607 23.791 11.2139 23.5801C11.0205 24.3301 10.4668 26.1846 9.55273 29.1436H12.9014Z" fill="black"/>
<path d="M19.0448 21.6377H23.0438C24.8661 21.6377 26.1874 21.8984 27.0077 22.4199C27.8339 22.9355 28.247 23.7588 28.247 24.8896C28.247 25.6572 28.0653 26.2871 27.702 26.7793C27.3446 27.2715 26.8671 27.5674 26.2694 27.667V27.7549C27.0839 27.9365 27.6698 28.2764 28.0272 28.7744C28.3905 29.2725 28.5722 29.9346 28.5722 30.7607C28.5722 31.9326 28.1474 32.8467 27.2978 33.5029C26.454 34.1592 25.3056 34.4873 23.8524 34.4873H19.0448V21.6377ZM21.7694 26.7266H23.3515C24.0897 26.7266 24.6229 26.6123 24.9511 26.3838C25.2851 26.1553 25.452 25.7773 25.452 25.25C25.452 24.7578 25.2704 24.4062 24.9071 24.1953C24.5497 23.9785 23.9813 23.8701 23.202 23.8701H21.7694V26.7266ZM21.7694 28.8887V32.2373H23.5448C24.2948 32.2373 24.8485 32.0938 25.206 31.8066C25.5634 31.5195 25.7421 31.0801 25.7421 30.4883C25.7421 29.4219 24.9804 28.8887 23.4569 28.8887H21.7694Z" fill="black"/>
<path d="M36.5965 23.7207C35.5711 23.7207 34.7771 24.1074 34.2146 24.8809C33.6521 25.6484 33.3709 26.7207 33.3709 28.0977C33.3709 30.9629 34.4461 32.3955 36.5965 32.3955C37.4988 32.3955 38.5916 32.1699 39.8748 31.7188V34.0039C38.8201 34.4434 37.6424 34.6631 36.3416 34.6631C34.4725 34.6631 33.0428 34.0977 32.0525 32.9668C31.0623 31.8301 30.5672 30.2012 30.5672 28.0801C30.5672 26.7441 30.8103 25.5752 31.2967 24.5732C31.783 23.5654 32.4803 22.7949 33.3885 22.2617C34.3025 21.7227 35.3719 21.4531 36.5965 21.4531C37.8445 21.4531 39.0984 21.7549 40.3582 22.3584L39.4793 24.5732C38.9988 24.3447 38.5154 24.1455 38.0291 23.9756C37.5428 23.8057 37.0652 23.7207 36.5965 23.7207Z" fill="black"/>
<path d="M53.278 27.9395C53.278 30.0547 52.6745 31.6748 51.4675 32.7998C50.2663 33.9248 48.529 34.4873 46.2556 34.4873H42.6169V21.6377H46.6511C48.7487 21.6377 50.3776 22.1914 51.5378 23.2988C52.6979 24.4062 53.278 25.9531 53.278 27.9395ZM50.4479 28.0098C50.4479 25.25 49.2292 23.8701 46.7917 23.8701H45.3415V32.2373H46.5104C49.1354 32.2373 50.4479 30.8281 50.4479 28.0098Z" fill="black"/>
<path d="M63.3414 34.4873H55.941V21.6377H63.3414V23.8701H58.6656V26.6914H63.0162V28.9238H58.6656V32.2373H63.3414V34.4873Z" fill="black"/>
<path d="M68.7114 34.4873H66.0308V21.6377H73.396V23.8701H68.7114V27.1836H73.0708V29.4072H68.7114V34.4873Z" fill="black"/>
<path d="M80.7875 27.2715H85.8851V33.9336C85.059 34.2031 84.2797 34.3906 83.5472 34.4961C82.8207 34.6074 82.0765 34.6631 81.3148 34.6631C79.3754 34.6631 77.893 34.0947 76.8676 32.958C75.848 31.8154 75.3383 30.1777 75.3383 28.0449C75.3383 25.9707 75.9301 24.3535 77.1137 23.1934C78.3031 22.0332 79.9496 21.4531 82.0531 21.4531C83.3715 21.4531 84.643 21.7168 85.8676 22.2441L84.9623 24.4238C84.0248 23.9551 83.0492 23.7207 82.0355 23.7207C80.8578 23.7207 79.9144 24.1162 79.2055 24.9072C78.4965 25.6982 78.142 26.7617 78.142 28.0977C78.142 29.4922 78.4262 30.5586 78.9945 31.2969C79.5687 32.0293 80.4008 32.3955 81.4906 32.3955C82.059 32.3955 82.6361 32.3369 83.2221 32.2197V29.5391H80.7875V27.2715Z" fill="black"/>
<path d="M99.4817 34.4873H96.7659V28.9414H91.677V34.4873H88.9524V21.6377H91.677V26.6738H96.7659V21.6377H99.4817V34.4873Z" fill="black"/>
<path d="M102.734 34.4873V21.6377H105.458V34.4873H102.734Z" fill="black"/>
<path d="M107.348 38.2666C106.732 38.2666 106.196 38.2021 105.739 38.0732V35.8057C106.208 35.9229 106.636 35.9814 107.023 35.9814C107.62 35.9814 108.048 35.7939 108.306 35.4189C108.564 35.0498 108.692 34.4697 108.692 33.6787V21.6377H111.417V33.6611C111.417 35.1611 111.074 36.3037 110.389 37.0889C109.703 37.874 108.69 38.2666 107.348 38.2666Z" fill="black"/>
<path d="M124.987 34.4873H121.894L118.527 29.0732L117.376 29.8994V34.4873H114.651V21.6377H117.376V27.5176L118.448 26.0059L121.929 21.6377H124.952L120.47 27.3242L124.987 34.4873Z" fill="black"/>
<path d="M126.604 34.4873V21.6377H129.329V32.2373H134.541V34.4873H126.604Z" fill="black"/>
<path d="M142.222 34.4873L139.129 24.4062H139.05C139.161 26.457 139.217 27.8252 139.217 28.5107V34.4873H136.782V21.6377H140.491L143.532 31.4639H143.585L146.81 21.6377H150.519V34.4873H147.979V28.4053C147.979 28.1182 147.982 27.7871 147.988 27.4121C148 27.0371 148.041 26.041 148.111 24.4238H148.032L144.719 34.4873H142.222Z" fill="black"/>
</g>
<g id="NOPQRSTUVWXYZ">
<path d="M18.0166 58.4873H14.5537L8.96387 48.7666H8.88477C8.99609 50.4834 9.05176 51.708 9.05176 52.4404V58.4873H6.61719V45.6377H10.0537L15.6348 55.2617H15.6963C15.6084 53.5918 15.5645 52.4111 15.5645 51.7197V45.6377H18.0166V58.4873Z" fill="black"/>
<path d="M32.9229 52.0449C32.9229 54.1719 32.3955 55.8066 31.3408 56.9492C30.2861 58.0918 28.7744 58.6631 26.8057 58.6631C24.8369 58.6631 23.3252 58.0918 22.2705 56.9492C21.2158 55.8066 20.6885 54.166 20.6885 52.0273C20.6885 49.8887 21.2158 48.2568 22.2705 47.1318C23.3311 46.001 24.8486 45.4355 26.8232 45.4355C28.7979 45.4355 30.3066 46.0039 31.3496 47.1406C32.3984 48.2773 32.9229 49.9121 32.9229 52.0449ZM23.5449 52.0449C23.5449 53.4805 23.8174 54.5615 24.3623 55.2881C24.9072 56.0146 25.7217 56.3779 26.8057 56.3779C28.9795 56.3779 30.0664 54.9336 30.0664 52.0449C30.0664 49.1504 28.9854 47.7031 26.8232 47.7031C25.7393 47.7031 24.9219 48.0693 24.3711 48.8018C23.8203 49.5283 23.5449 50.6094 23.5449 52.0449Z" fill="black"/>
<path d="M38.3087 51.6846H39.2052C40.0431 51.6846 40.6701 51.5205 41.0861 51.1924C41.5021 50.8584 41.7101 50.375 41.7101 49.7422C41.7101 49.1035 41.5343 48.6318 41.1828 48.3271C40.8371 48.0225 40.2921 47.8701 39.548 47.8701H38.3087V51.6846ZM44.4611 49.6455C44.4611 51.0283 44.0275 52.0859 43.1603 52.8184C42.299 53.5508 41.0714 53.917 39.4777 53.917H38.3087V58.4873H35.5841V45.6377H39.6886C41.2472 45.6377 42.4308 45.9746 43.2394 46.6484C44.0539 47.3164 44.4611 48.3154 44.4611 49.6455Z" fill="black"/>
<path d="M58.5482 52.0449C58.5482 53.5566 58.2786 54.8252 57.7396 55.8506C57.2064 56.8701 56.4212 57.6172 55.3841 58.0918L58.4778 61.5459H54.9886L52.6331 58.6631H52.431C50.4622 58.6631 48.9505 58.0918 47.8958 56.9492C46.8411 55.8066 46.3138 54.166 46.3138 52.0273C46.3138 49.8887 46.8411 48.2568 47.8958 47.1318C48.9564 46.001 50.4739 45.4355 52.4485 45.4355C54.4232 45.4355 55.9319 46.0039 56.9749 47.1406C58.0237 48.2773 58.5482 49.9121 58.5482 52.0449ZM49.1702 52.0449C49.1702 53.4805 49.4427 54.5615 49.9876 55.2881C50.5325 56.0146 51.347 56.3779 52.431 56.3779C54.6048 56.3779 55.6917 54.9336 55.6917 52.0449C55.6917 49.1504 54.6107 47.7031 52.4485 47.7031C51.3646 47.7031 50.5472 48.0693 49.9964 48.8018C49.4456 49.5283 49.1702 50.6094 49.1702 52.0449Z" fill="black"/>
<path d="M63.9341 51.3418H64.813C65.6743 51.3418 66.31 51.1982 66.7202 50.9111C67.1303 50.624 67.3354 50.1729 67.3354 49.5576C67.3354 48.9482 67.1245 48.5146 66.7026 48.2568C66.2866 47.999 65.6391 47.8701 64.7602 47.8701H63.9341V51.3418ZM63.9341 53.5566V58.4873H61.2094V45.6377H64.9536C66.6997 45.6377 67.9917 45.957 68.8296 46.5957C69.6674 47.2285 70.0864 48.1924 70.0864 49.4873C70.0864 50.2432 69.8784 50.917 69.4624 51.5088C69.0464 52.0947 68.4575 52.5547 67.6958 52.8887C69.6294 55.7773 70.8891 57.6436 71.4751 58.4873H68.4516L65.3842 53.5566H63.9341Z" fill="black"/>
<path d="M80.6808 54.9189C80.6808 56.0791 80.2619 56.9932 79.424 57.6611C78.5919 58.3291 77.4318 58.6631 75.9435 58.6631C74.5724 58.6631 73.3595 58.4053 72.3048 57.8896V55.3584C73.172 55.7451 73.9044 56.0176 74.5021 56.1758C75.1056 56.334 75.6564 56.4131 76.1544 56.4131C76.7521 56.4131 77.2091 56.2988 77.5255 56.0703C77.8478 55.8418 78.0089 55.502 78.0089 55.0508C78.0089 54.7988 77.9386 54.5762 77.798 54.3828C77.6574 54.1836 77.4494 53.9932 77.174 53.8115C76.9044 53.6299 76.3507 53.3398 75.5128 52.9414C74.7277 52.5723 74.1388 52.2178 73.7462 51.8779C73.3537 51.5381 73.0402 51.1426 72.8058 50.6914C72.5714 50.2402 72.4543 49.7129 72.4543 49.1094C72.4543 47.9727 72.838 47.0791 73.6056 46.4287C74.3791 45.7783 75.4455 45.4531 76.8048 45.4531C77.4728 45.4531 78.1086 45.5322 78.7121 45.6904C79.3214 45.8486 79.9572 46.0713 80.6193 46.3584L79.7404 48.4766C79.0548 48.1953 78.4865 47.999 78.0353 47.8877C77.59 47.7764 77.1505 47.7207 76.7169 47.7207C76.2013 47.7207 75.8058 47.8408 75.5304 48.0811C75.255 48.3213 75.1173 48.6348 75.1173 49.0215C75.1173 49.2617 75.173 49.4727 75.2843 49.6543C75.3957 49.8301 75.5714 50.0029 75.8117 50.1729C76.0578 50.3369 76.6349 50.6357 77.5431 51.0693C78.7443 51.6436 79.5675 52.2207 80.0128 52.8008C80.4582 53.375 80.6808 54.0811 80.6808 54.9189Z" fill="black"/>
<path d="M87.9633 58.4873H85.2387V47.9053H81.7495V45.6377H91.4526V47.9053H87.9633V58.4873Z" fill="black"/>
<path d="M103.891 45.6377V53.9521C103.891 54.9014 103.677 55.7334 103.249 56.4482C102.827 57.1631 102.215 57.7109 101.412 58.0918C100.61 58.4727 99.6605 58.6631 98.5648 58.6631C96.9124 58.6631 95.6292 58.2412 94.7151 57.3975C93.8011 56.5479 93.3441 55.3877 93.3441 53.917V45.6377H96.0599V53.5039C96.0599 54.4941 96.2591 55.2207 96.6575 55.6836C97.056 56.1465 97.7151 56.3779 98.6351 56.3779C99.5257 56.3779 100.17 56.1465 100.569 55.6836C100.973 55.2148 101.175 54.4824 101.175 53.4863V45.6377H103.891Z" fill="black"/>
<path d="M114.366 45.6377H117.117L112.749 58.4873H109.778L105.418 45.6377H108.169L110.586 53.2842C110.721 53.7354 110.859 54.2627 110.999 54.8662C111.146 55.4639 111.237 55.8799 111.272 56.1143C111.336 55.5752 111.556 54.6318 111.931 53.2842L114.366 45.6377Z" fill="black"/>
<path d="M131.256 58.4873H128.154L126.414 51.7373C126.349 51.4971 126.238 51.002 126.08 50.252C125.927 49.4961 125.839 48.9893 125.816 48.7314C125.781 49.0479 125.693 49.5576 125.552 50.2607C125.412 50.958 125.303 51.4561 125.227 51.7549L123.496 58.4873H120.402L117.124 45.6377H119.804L121.448 52.6514C121.735 53.9463 121.943 55.0684 122.072 56.0176C122.107 55.6836 122.186 55.168 122.309 54.4707C122.438 53.7676 122.558 53.2227 122.67 52.8359L124.542 45.6377H127.117L128.989 52.8359C129.071 53.1582 129.173 53.6504 129.297 54.3125C129.42 54.9746 129.513 55.543 129.578 56.0176C129.636 55.5605 129.73 54.9922 129.859 54.3125C129.988 53.627 130.105 53.0732 130.211 52.6514L131.845 45.6377H134.526L131.256 58.4873Z" fill="black"/>
<path d="M146.528 58.4873H143.417L140.429 53.627L137.44 58.4873H134.522L138.785 51.8604L134.795 45.6377H137.801L140.569 50.2607L143.285 45.6377H146.221L142.186 52.0098L146.528 58.4873Z" fill="black"/>
<path d="M152.144 50.9287L154.825 45.6377H157.761L153.498 53.4863V58.4873H150.791V53.5742L146.528 45.6377H149.481L152.144 50.9287Z" fill="black"/>
<path d="M167.754 58.4873H158.191V56.7207L164.352 47.8877H158.358V45.6377H167.587V47.3955L161.435 56.2373H167.754V58.4873Z" fill="black"/>
</g>
<g id="abcdefghijklm">
<path d="M12.6465 82.4873L12.1279 81.1514H12.0576C11.6064 81.7197 11.1406 82.1152 10.6602 82.3379C10.1855 82.5547 9.56445 82.6631 8.79688 82.6631C7.85352 82.6631 7.10938 82.3936 6.56445 81.8545C6.02539 81.3154 5.75586 80.5479 5.75586 79.5518C5.75586 78.5088 6.11914 77.7412 6.8457 77.249C7.57812 76.751 8.67969 76.4756 10.1504 76.4229L11.8555 76.3701V75.9395C11.8555 74.9434 11.3457 74.4453 10.3262 74.4453C9.54102 74.4453 8.61816 74.6826 7.55762 75.1572L6.66992 73.3467C7.80078 72.7549 9.05469 72.459 10.4316 72.459C11.75 72.459 12.7607 72.7461 13.4639 73.3203C14.167 73.8945 14.5186 74.7676 14.5186 75.9395V82.4873H12.6465ZM11.8555 77.9346L10.8184 77.9697C10.0391 77.9932 9.45898 78.1338 9.07812 78.3916C8.69727 78.6494 8.50684 79.042 8.50684 79.5693C8.50684 80.3252 8.94043 80.7031 9.80762 80.7031C10.4287 80.7031 10.9238 80.5244 11.293 80.167C11.668 79.8096 11.8555 79.335 11.8555 78.7432V77.9346Z" fill="black"/>
<path d="M22.7539 72.4766C23.9141 72.4766 24.8223 72.9307 25.4785 73.8389C26.1348 74.7412 26.4629 75.9805 26.4629 77.5566C26.4629 79.1797 26.123 80.4365 25.4434 81.3271C24.7695 82.2178 23.8496 82.6631 22.6836 82.6631C21.5293 82.6631 20.624 82.2441 19.9678 81.4062H19.7832L19.335 82.4873H17.2871V68.8115H19.9678V71.9932C19.9678 72.3975 19.9326 73.0449 19.8623 73.9355H19.9678C20.5947 72.9629 21.5234 72.4766 22.7539 72.4766ZM21.8926 74.6211C21.2305 74.6211 20.7471 74.8262 20.4424 75.2363C20.1377 75.6406 19.9795 76.3115 19.9678 77.249V77.5391C19.9678 78.5938 20.123 79.3496 20.4336 79.8066C20.75 80.2637 21.248 80.4922 21.9277 80.4922C22.4785 80.4922 22.915 80.2402 23.2373 79.7363C23.5654 79.2266 23.7295 78.4883 23.7295 77.5215C23.7295 76.5547 23.5654 75.8311 23.2373 75.3506C22.9092 74.8643 22.4609 74.6211 21.8926 74.6211Z" fill="black"/>
<path d="M32.6644 82.6631C29.6058 82.6631 28.0765 80.9844 28.0765 77.627C28.0765 75.957 28.4925 74.6826 29.3245 73.8037C30.1566 72.9189 31.3489 72.4766 32.9017 72.4766C34.0384 72.4766 35.0579 72.6992 35.9603 73.1445L35.1693 75.2188C34.7474 75.0488 34.3548 74.9111 33.9915 74.8057C33.6282 74.6943 33.265 74.6387 32.9017 74.6387C31.5071 74.6387 30.8099 75.6289 30.8099 77.6094C30.8099 79.5312 31.5071 80.4922 32.9017 80.4922C33.4173 80.4922 33.8948 80.4248 34.3343 80.29C34.7737 80.1494 35.2132 79.9326 35.6527 79.6396V81.9336C35.2191 82.209 34.7796 82.3994 34.3343 82.5049C33.8948 82.6104 33.3382 82.6631 32.6644 82.6631Z" fill="black"/>
<path d="M41.0527 82.6631C39.8984 82.6631 38.9902 82.2148 38.3281 81.3184C37.6719 80.4219 37.3438 79.1797 37.3438 77.5918C37.3438 75.9805 37.6777 74.7266 38.3457 73.8301C39.0195 72.9277 39.9453 72.4766 41.123 72.4766C42.3594 72.4766 43.3027 72.957 43.9531 73.918H44.041C43.9062 73.1855 43.8389 72.5322 43.8389 71.958V68.8115H46.5283V82.4873H44.4717L43.9531 81.2129H43.8389C43.2295 82.1797 42.3008 82.6631 41.0527 82.6631ZM41.9932 80.5273C42.6787 80.5273 43.1797 80.3281 43.4961 79.9297C43.8184 79.5312 43.9941 78.8545 44.0234 77.8994V77.6094C44.0234 76.5547 43.8594 75.7988 43.5312 75.3418C43.209 74.8848 42.6816 74.6562 41.9492 74.6562C41.3516 74.6562 40.8857 74.9111 40.5518 75.4209C40.2236 75.9248 40.0596 76.6602 40.0596 77.627C40.0596 78.5938 40.2266 79.3203 40.5605 79.8066C40.8945 80.2871 41.3721 80.5273 41.9932 80.5273Z" fill="black"/>
<path d="M53.3978 74.3838C52.8294 74.3838 52.3841 74.5654 52.0618 74.9287C51.7396 75.2861 51.555 75.7959 51.5081 76.458H55.2698C55.2581 75.7959 55.0853 75.2861 54.7513 74.9287C54.4173 74.5654 53.9661 74.3838 53.3978 74.3838ZM53.7757 82.6631C52.1937 82.6631 50.9573 82.2266 50.0667 81.3535C49.1761 80.4805 48.7308 79.2441 48.7308 77.6445C48.7308 75.998 49.1409 74.7266 49.9612 73.8301C50.7874 72.9277 51.9271 72.4766 53.3802 72.4766C54.7689 72.4766 55.8499 72.8721 56.6234 73.6631C57.3968 74.4541 57.7835 75.5469 57.7835 76.9414V78.2422H51.4466C51.4759 79.0039 51.7015 79.5986 52.1234 80.0264C52.5452 80.4541 53.137 80.668 53.8987 80.668C54.4905 80.668 55.0501 80.6064 55.5775 80.4834C56.1048 80.3604 56.6556 80.1641 57.2298 79.8945V81.9688C56.761 82.2031 56.2601 82.376 55.7269 82.4873C55.1937 82.6045 54.5433 82.6631 53.7757 82.6631Z" fill="black"/>
<path d="M65.3912 74.6738H63.0709V82.4873H60.3903V74.6738H58.9137V73.3818L60.3903 72.6611V71.9404C60.3903 70.8213 60.6657 70.0039 61.2164 69.4883C61.7672 68.9727 62.6491 68.7148 63.8619 68.7148C64.7877 68.7148 65.611 68.8525 66.3317 69.1279L65.6461 71.0967C65.1071 70.9268 64.609 70.8418 64.152 70.8418C63.7711 70.8418 63.4957 70.9561 63.3258 71.1846C63.1559 71.4072 63.0709 71.6943 63.0709 72.0459V72.6611H65.3912V74.6738Z" fill="black"/>
<path d="M75.4935 72.6611V74.0234L73.9554 74.4189C74.2366 74.8584 74.3773 75.3506 74.3773 75.8955C74.3773 76.9502 74.0081 77.7734 73.2698 78.3652C72.5374 78.9512 71.5179 79.2441 70.2112 79.2441L69.7278 79.2178L69.3323 79.1738C69.0569 79.3848 68.9193 79.6191 68.9193 79.877C68.9193 80.2637 69.4114 80.457 70.3958 80.457H72.0657C73.1439 80.457 73.9642 80.6885 74.5267 81.1514C75.095 81.6143 75.3792 82.2939 75.3792 83.1904C75.3792 84.3389 74.8987 85.2295 73.9378 85.8623C72.9827 86.4951 71.6087 86.8115 69.8157 86.8115C68.4446 86.8115 67.3958 86.5713 66.6693 86.0908C65.9485 85.6162 65.5882 84.9482 65.5882 84.0869C65.5882 83.4951 65.7728 83 66.1419 82.6016C66.511 82.2031 67.053 81.9189 67.7679 81.749C67.4925 81.6318 67.2523 81.4414 67.0472 81.1777C66.8421 80.9082 66.7396 80.624 66.7396 80.3252C66.7396 79.9502 66.848 79.6396 67.0648 79.3936C67.2816 79.1416 67.595 78.8955 68.0052 78.6553C67.4896 78.4326 67.0794 78.0752 66.7747 77.583C66.4759 77.0908 66.3265 76.5107 66.3265 75.8428C66.3265 74.7705 66.6751 73.9414 67.3724 73.3555C68.0696 72.7695 69.0657 72.4766 70.3607 72.4766C70.636 72.4766 70.9612 72.5029 71.3362 72.5557C71.7171 72.6025 71.9603 72.6377 72.0657 72.6611H75.4935ZM67.9085 83.876C67.9085 84.2451 68.0843 84.5352 68.4359 84.7461C68.7933 84.957 69.2913 85.0625 69.93 85.0625C70.8909 85.0625 71.6439 84.9307 72.1888 84.667C72.7337 84.4033 73.0062 84.043 73.0062 83.5859C73.0062 83.2168 72.845 82.9619 72.5228 82.8213C72.2005 82.6807 71.7025 82.6104 71.0286 82.6104H69.64C69.1478 82.6104 68.7347 82.7246 68.4007 82.9531C68.0726 83.1875 67.9085 83.4951 67.9085 83.876ZM68.8841 75.8779C68.8841 76.4111 69.0042 76.833 69.2444 77.1436C69.4905 77.4541 69.8626 77.6094 70.3607 77.6094C70.8646 77.6094 71.2337 77.4541 71.4681 77.1436C71.7025 76.833 71.8196 76.4111 71.8196 75.8779C71.8196 74.6943 71.3333 74.1025 70.3607 74.1025C69.3763 74.1025 68.8841 74.6943 68.8841 75.8779Z" fill="black"/>
<path d="M86.188 82.4873H83.5073V76.748C83.5073 75.3301 82.9799 74.6211 81.9253 74.6211C81.1753 74.6211 80.6333 74.876 80.2993 75.3857C79.9653 75.8955 79.7983 76.7217 79.7983 77.8643V82.4873H77.1176V68.8115H79.7983V71.5977C79.7983 71.8145 79.7778 72.3242 79.7368 73.127L79.6753 73.918H79.8159C80.4135 72.957 81.3628 72.4766 82.6635 72.4766C83.8178 72.4766 84.6938 72.7871 85.2915 73.4082C85.8891 74.0293 86.188 74.9199 86.188 76.0801V82.4873Z" fill="black"/>
<path d="M88.8371 70.1211C88.8371 69.248 89.3234 68.8115 90.2961 68.8115C91.2687 68.8115 91.755 69.248 91.755 70.1211C91.755 70.5371 91.632 70.8623 91.3859 71.0967C91.1457 71.3252 90.7824 71.4395 90.2961 71.4395C89.3234 71.4395 88.8371 71 88.8371 70.1211ZM91.632 82.4873H88.9513V72.6611H91.632V82.4873Z" fill="black"/>
<path d="M93.6659 86.8115C92.9803 86.8115 92.3914 86.7383 91.8993 86.5918V84.4824C92.3094 84.5938 92.7284 84.6494 93.1561 84.6494C93.6073 84.6494 93.9354 84.5234 94.1405 84.2715C94.3514 84.0195 94.4569 83.6475 94.4569 83.1553V72.6611H97.1375V83.5508C97.1375 84.5938 96.8358 85.3965 96.2323 85.959C95.6288 86.5273 94.7733 86.8115 93.6659 86.8115ZM94.3426 70.1211C94.3426 69.248 94.8289 68.8115 95.8016 68.8115C96.7743 68.8115 97.2606 69.248 97.2606 70.1211C97.2606 70.5371 97.1375 70.8623 96.8914 71.0967C96.6512 71.3252 96.2879 71.4395 95.8016 71.4395C94.8289 71.4395 94.3426 71 94.3426 70.1211Z" fill="black"/>
<path d="M102.538 77.1436L103.707 75.6494L106.458 72.6611H109.481L105.579 76.9238L109.718 82.4873H106.625L103.794 78.5059L102.643 79.4287V82.4873H99.9624V68.8115H102.643V74.9111L102.502 77.1436H102.538Z" fill="black"/>
<path d="M113.807 82.4873H111.126V68.8115H113.807V82.4873Z" fill="black"/>
<path d="M125.43 82.4873H122.749V76.748C122.749 76.0391 122.629 75.5088 122.389 75.1572C122.154 74.7998 121.782 74.6211 121.273 74.6211C120.587 74.6211 120.089 74.873 119.778 75.377C119.468 75.8809 119.313 76.71 119.313 77.8643V82.4873H116.632V72.6611H118.68L119.04 73.918H119.19C119.453 73.4668 119.834 73.1152 120.332 72.8633C120.83 72.6055 121.401 72.4766 122.046 72.4766C123.517 72.4766 124.513 72.957 125.034 73.918H125.272C125.535 73.4609 125.922 73.1064 126.432 72.8545C126.947 72.6025 127.527 72.4766 128.172 72.4766C129.285 72.4766 130.126 72.7637 130.694 73.3379C131.269 73.9062 131.556 74.8203 131.556 76.0801V82.4873H128.866V76.748C128.866 76.0391 128.746 75.5088 128.506 75.1572C128.272 74.7998 127.899 74.6211 127.39 74.6211C126.733 74.6211 126.241 74.8555 125.913 75.3242C125.591 75.793 125.43 76.5371 125.43 77.5566V82.4873Z" fill="black"/>
</g>
<g id="nopqrstuvwxyz">
<path d="M15.4766 106.487H12.7959V100.748C12.7959 100.039 12.6699 99.5088 12.418 99.1572C12.166 98.7998 11.7646 98.6211 11.2139 98.6211C10.4639 98.6211 9.92188 98.873 9.58789 99.377C9.25391 99.875 9.08691 100.704 9.08691 101.864V106.487H6.40625V96.6611H8.4541L8.81445 97.918H8.96387C9.2627 97.4434 9.67285 97.0859 10.1943 96.8457C10.7217 96.5996 11.3193 96.4766 11.9873 96.4766C13.1299 96.4766 13.9971 96.7871 14.5889 97.4082C15.1807 98.0234 15.4766 98.9141 15.4766 100.08V106.487Z" fill="black"/>
<path d="M20.3757 101.557C20.3757 102.529 20.5339 103.265 20.8503 103.763C21.1725 104.261 21.694 104.51 22.4147 104.51C23.1296 104.51 23.6423 104.264 23.9528 103.771C24.2692 103.273 24.4274 102.535 24.4274 101.557C24.4274 100.584 24.2692 99.8545 23.9528 99.3682C23.6364 98.8818 23.1179 98.6387 22.3972 98.6387C21.6823 98.6387 21.1667 98.8818 20.8503 99.3682C20.5339 99.8486 20.3757 100.578 20.3757 101.557ZM27.1696 101.557C27.1696 103.156 26.7477 104.407 25.904 105.31C25.0602 106.212 23.8854 106.663 22.3796 106.663C21.4362 106.663 20.6042 106.458 19.8835 106.048C19.1628 105.632 18.6091 105.037 18.2224 104.264C17.8356 103.49 17.6423 102.588 17.6423 101.557C17.6423 99.9512 18.0612 98.7031 18.8991 97.8125C19.737 96.9219 20.9147 96.4766 22.4323 96.4766C23.3757 96.4766 24.2077 96.6816 24.9284 97.0918C25.6491 97.502 26.2028 98.0908 26.5895 98.8584C26.9763 99.626 27.1696 100.525 27.1696 101.557Z" fill="black"/>
<path d="M34.7827 106.663C33.6284 106.663 32.7232 106.244 32.0669 105.406H31.9263C32.02 106.227 32.0669 106.701 32.0669 106.83V110.812H29.3863V96.6611H31.5659L31.9439 97.9355H32.0669C32.6939 96.9629 33.6226 96.4766 34.8531 96.4766C36.0132 96.4766 36.9214 96.9248 37.5777 97.8213C38.2339 98.7178 38.562 99.9629 38.562 101.557C38.562 102.605 38.4068 103.517 38.0962 104.29C37.7915 105.063 37.355 105.652 36.7866 106.057C36.2183 106.461 35.5503 106.663 34.7827 106.663ZM33.9917 98.6211C33.3296 98.6211 32.8462 98.8262 32.5415 99.2363C32.2368 99.6406 32.0786 100.312 32.0669 101.249V101.539C32.0669 102.594 32.2222 103.35 32.5327 103.807C32.8491 104.264 33.3472 104.492 34.0269 104.492C35.2281 104.492 35.8286 103.502 35.8286 101.521C35.8286 100.555 35.6792 99.8311 35.3804 99.3506C35.0874 98.8643 34.6245 98.6211 33.9917 98.6211Z" fill="black"/>
<path d="M44.8426 104.562C45.5223 104.562 46.0204 104.369 46.3368 103.982C46.6532 103.59 46.826 102.907 46.8553 101.935V101.609C46.8553 100.555 46.6913 99.7988 46.3631 99.3418C46.0409 98.8848 45.5194 98.6562 44.7987 98.6562C43.5389 98.6562 42.909 99.6465 42.909 101.627C42.909 102.611 43.0643 103.347 43.3748 103.833C43.6913 104.319 44.1805 104.562 44.8426 104.562ZM43.8846 106.663C42.7245 106.663 41.8163 106.218 41.16 105.327C40.5038 104.431 40.1756 103.186 40.1756 101.592C40.1756 99.9863 40.5096 98.7324 41.1776 97.8301C41.8514 96.9277 42.7713 96.4766 43.9373 96.4766C44.5584 96.4766 45.1004 96.5938 45.5633 96.8281C46.0262 97.0625 46.4334 97.4258 46.785 97.918H46.8553L47.0926 96.6611H49.3602V110.812H46.6707V106.689C46.6707 106.332 46.7088 105.84 46.785 105.213H46.6707C46.3836 105.688 46.0028 106.048 45.5282 106.294C45.0536 106.54 44.5057 106.663 43.8846 106.663Z" fill="black"/>
<path d="M57.6447 96.4766C58.008 96.4766 58.3097 96.5029 58.55 96.5557L58.3478 99.0693C58.131 99.0107 57.8673 98.9814 57.5568 98.9814C56.7013 98.9814 56.0334 99.2012 55.5529 99.6406C55.0783 100.08 54.841 100.695 54.841 101.486V106.487H52.1603V96.6611H54.1906L54.5861 98.3135H54.7179C55.0226 97.7627 55.4328 97.3203 55.9484 96.9863C56.4699 96.6465 57.0353 96.4766 57.6447 96.4766Z" fill="black"/>
<path d="M67.1914 103.569C67.1914 104.577 66.8398 105.345 66.1367 105.872C65.4395 106.399 64.3936 106.663 62.999 106.663C62.2842 106.663 61.6748 106.613 61.1709 106.514C60.667 106.42 60.1953 106.279 59.7559 106.092V103.877C60.2539 104.111 60.8135 104.308 61.4346 104.466C62.0615 104.624 62.6123 104.703 63.0869 104.703C64.0596 104.703 64.5459 104.422 64.5459 103.859C64.5459 103.648 64.4814 103.479 64.3525 103.35C64.2236 103.215 64.001 103.065 63.6846 102.901C63.3682 102.731 62.9463 102.535 62.4189 102.312C61.6631 101.996 61.1064 101.703 60.749 101.434C60.3975 101.164 60.1396 100.856 59.9756 100.511C59.8174 100.159 59.7383 99.7285 59.7383 99.2188C59.7383 98.3457 60.0752 97.6719 60.749 97.1973C61.4287 96.7168 62.3896 96.4766 63.6318 96.4766C64.8154 96.4766 65.9668 96.7344 67.0859 97.25L66.2773 99.1836C65.7852 98.9727 65.3252 98.7998 64.8975 98.665C64.4697 98.5303 64.0332 98.4629 63.5879 98.4629C62.7969 98.4629 62.4014 98.6768 62.4014 99.1045C62.4014 99.3447 62.5273 99.5527 62.7793 99.7285C63.0371 99.9043 63.5967 100.165 64.458 100.511C65.2256 100.821 65.7881 101.111 66.1455 101.381C66.5029 101.65 66.7666 101.961 66.9365 102.312C67.1064 102.664 67.1914 103.083 67.1914 103.569Z" fill="black"/>
<path d="M73.4247 104.527C73.8934 104.527 74.4559 104.425 75.1122 104.22V106.215C74.4442 106.514 73.6239 106.663 72.6512 106.663C71.5789 106.663 70.7967 106.394 70.3045 105.854C69.8182 105.31 69.575 104.495 69.575 103.411V98.6738H68.2918V97.54L69.7684 96.6436L70.5418 94.5693H72.2557V96.6611H75.0067V98.6738H72.2557V103.411C72.2557 103.792 72.3612 104.073 72.5721 104.255C72.7889 104.437 73.0731 104.527 73.4247 104.527Z" fill="black"/>
<path d="M84.07 106.487L83.7097 105.23H83.569C83.2819 105.688 82.8747 106.042 82.3474 106.294C81.82 106.54 81.2194 106.663 80.5456 106.663C79.3913 106.663 78.5212 106.355 77.9352 105.74C77.3493 105.119 77.0563 104.229 77.0563 103.068V96.6611H79.737V102.4C79.737 103.109 79.863 103.643 80.1149 104C80.3669 104.352 80.7682 104.527 81.319 104.527C82.069 104.527 82.611 104.278 82.945 103.78C83.279 103.276 83.446 102.444 83.446 101.284V96.6611H86.1266V106.487H84.07Z" fill="black"/>
<path d="M91.2806 106.487L87.5365 96.6611H90.3402L92.2386 102.26C92.4496 102.969 92.5814 103.64 92.6342 104.272H92.6869C92.7162 103.71 92.848 103.039 93.0824 102.26L94.972 96.6611H97.7758L94.0316 106.487H91.2806Z" fill="black"/>
<path d="M107.264 106.487L106.508 103.051L105.489 98.709H105.427L103.634 106.487H100.752L97.9567 96.6611H100.629L101.762 101.012C101.944 101.791 102.129 102.866 102.316 104.237H102.369C102.392 103.792 102.495 103.086 102.676 102.119L102.817 101.372L104.03 96.6611H106.983L108.134 101.372C108.158 101.501 108.193 101.691 108.24 101.943C108.293 102.195 108.342 102.465 108.389 102.752C108.436 103.033 108.477 103.312 108.512 103.587C108.553 103.856 108.577 104.073 108.583 104.237H108.635C108.688 103.815 108.782 103.238 108.917 102.506C109.051 101.768 109.148 101.27 109.207 101.012L110.384 96.6611H113.012L110.182 106.487H107.264Z" fill="black"/>
<path d="M116.62 101.469L113.455 96.6611H116.496L118.404 99.79L120.328 96.6611H123.37L120.17 101.469L123.519 106.487H120.469L118.404 103.121L116.329 106.487H113.288L116.62 101.469Z" fill="black"/>
<path d="M123.609 96.6611H126.544L128.399 102.189C128.557 102.67 128.665 103.238 128.724 103.895H128.777C128.841 103.291 128.967 102.723 129.155 102.189L130.974 96.6611H133.848L129.691 107.744C129.31 108.77 128.765 109.537 128.056 110.047C127.353 110.557 126.53 110.812 125.586 110.812C125.123 110.812 124.669 110.762 124.224 110.662V108.535C124.546 108.611 124.898 108.649 125.279 108.649C125.753 108.649 126.166 108.503 126.518 108.21C126.875 107.923 127.154 107.486 127.353 106.9L127.511 106.417L123.609 96.6611Z" fill="black"/>
<path d="M142.097 106.487H134.336V104.905L138.889 98.709H134.609V96.6611H141.939V98.4014L137.509 104.439H142.097V106.487Z" fill="black"/>
</g>
<g id="1234567890">
<path d="M12.4355 130.487H9.71973V123.052L9.74609 121.83L9.79004 120.494C9.33887 120.945 9.02539 121.241 8.84961 121.382L7.37305 122.568L6.06348 120.934L10.2031 117.638H12.4355V130.487Z" fill="black"/>
<path d="M24.9861 130.487H16.0037V128.598L19.2293 125.337C20.1844 124.358 20.8084 123.682 21.1014 123.307C21.3943 122.926 21.6053 122.574 21.7342 122.252C21.8631 121.93 21.9275 121.596 21.9275 121.25C21.9275 120.734 21.784 120.351 21.4969 120.099C21.2156 119.847 20.8377 119.721 20.3631 119.721C19.865 119.721 19.3816 119.835 18.9129 120.063C18.4441 120.292 17.9549 120.617 17.4451 121.039L15.9685 119.29C16.6014 118.751 17.1258 118.37 17.5418 118.147C17.9578 117.925 18.4119 117.755 18.9041 117.638C19.3963 117.515 19.9471 117.453 20.5564 117.453C21.3592 117.453 22.0682 117.6 22.6834 117.893C23.2986 118.186 23.7762 118.596 24.116 119.123C24.4559 119.65 24.6258 120.254 24.6258 120.934C24.6258 121.525 24.5203 122.082 24.3094 122.604C24.1043 123.119 23.782 123.649 23.3426 124.194C22.909 124.739 22.1414 125.516 21.0398 126.523L19.3875 128.079V128.202H24.9861V130.487Z" fill="black"/>
<path d="M34.7682 120.512C34.7682 121.314 34.525 121.997 34.0387 122.56C33.5523 123.122 32.8697 123.509 31.9908 123.72V123.772C33.0279 123.901 33.8131 124.218 34.3463 124.722C34.8795 125.22 35.1461 125.894 35.1461 126.743C35.1461 127.979 34.6978 128.943 33.8014 129.635C32.9049 130.32 31.6246 130.663 29.9605 130.663C28.566 130.663 27.3297 130.432 26.2516 129.969V127.657C26.7496 127.909 27.2975 128.114 27.8951 128.272C28.4928 128.431 29.0846 128.51 29.6705 128.51C30.567 128.51 31.2291 128.357 31.6568 128.053C32.0846 127.748 32.2984 127.259 32.2984 126.585C32.2984 125.981 32.0523 125.554 31.5601 125.302C31.068 125.05 30.2828 124.924 29.2047 124.924H28.2291V122.841H29.2223C30.2183 122.841 30.9449 122.712 31.4019 122.454C31.8648 122.19 32.0963 121.742 32.0963 121.109C32.0963 120.137 31.4869 119.65 30.2682 119.65C29.8463 119.65 29.4156 119.721 28.9762 119.861C28.5426 120.002 28.0592 120.245 27.526 120.591L26.2691 118.719C27.441 117.875 28.8385 117.453 30.4615 117.453C31.7916 117.453 32.8404 117.723 33.608 118.262C34.3814 118.801 34.7682 119.551 34.7682 120.512Z" fill="black"/>
<path d="M45.8422 127.824H44.2953V130.487H41.641V127.824H36.1566V125.935L41.7904 117.638H44.2953V125.715H45.8422V127.824ZM41.641 125.715V123.535C41.641 123.172 41.6556 122.645 41.6849 121.953C41.7142 121.262 41.7377 120.86 41.7553 120.749H41.6849C41.4681 121.229 41.2074 121.698 40.9027 122.155L38.5472 125.715H41.641Z" fill="black"/>
<path d="M51.5285 122.278C52.7707 122.278 53.758 122.627 54.4904 123.324C55.2287 124.021 55.5978 124.977 55.5978 126.189C55.5978 127.625 55.1554 128.729 54.2707 129.503C53.3859 130.276 52.1203 130.663 50.4738 130.663C49.0441 130.663 47.8898 130.432 47.0109 129.969V127.622C47.4738 127.868 48.0129 128.07 48.6281 128.229C49.2433 128.381 49.8263 128.457 50.3771 128.457C52.0353 128.457 52.8644 127.777 52.8644 126.418C52.8644 125.123 52.006 124.476 50.2892 124.476C49.9787 124.476 49.6359 124.508 49.2609 124.572C48.8859 124.631 48.5812 124.695 48.3469 124.766L47.2658 124.186L47.7492 117.638H54.7189V119.94H50.131L49.8937 122.463L50.2013 122.401C50.5588 122.319 51.0012 122.278 51.5285 122.278Z" fill="black"/>
<path d="M57.0478 125.029C57.0478 122.486 57.584 120.594 58.6562 119.352C59.7344 118.109 61.3457 117.488 63.4902 117.488C64.2226 117.488 64.7969 117.532 65.2129 117.62V119.791C64.6914 119.674 64.1758 119.615 63.666 119.615C62.7344 119.615 61.9726 119.756 61.3808 120.037C60.7949 120.318 60.3554 120.734 60.0625 121.285C59.7695 121.836 59.5967 122.618 59.5439 123.632H59.6582C60.2383 122.636 61.167 122.138 62.4443 122.138C63.5928 122.138 64.4922 122.498 65.1426 123.219C65.7929 123.939 66.1181 124.936 66.1181 126.207C66.1181 127.578 65.7314 128.665 64.958 129.468C64.1845 130.265 63.1123 130.663 61.7412 130.663C60.792 130.663 59.9629 130.443 59.2539 130.004C58.5508 129.564 58.0058 128.923 57.6191 128.079C57.2383 127.235 57.0478 126.219 57.0478 125.029ZM61.6885 128.492C62.2685 128.492 62.7138 128.299 63.0244 127.912C63.3349 127.52 63.4902 126.963 63.4902 126.242C63.4902 125.615 63.3437 125.123 63.0508 124.766C62.7636 124.402 62.3271 124.221 61.7412 124.221C61.1904 124.221 60.7187 124.399 60.3261 124.757C59.9394 125.114 59.7461 125.53 59.7461 126.005C59.7461 126.702 59.9277 127.291 60.291 127.771C60.6601 128.252 61.126 128.492 61.6885 128.492Z" fill="black"/>
<path d="M68.6931 130.487L73.5183 119.94H67.1814V117.655H76.4011V119.36L71.5408 130.487H68.6931Z" fill="black"/>
<path d="M82.1314 117.471C83.3619 117.471 84.3521 117.752 85.1021 118.314C85.858 118.871 86.2359 119.624 86.2359 120.573C86.2359 121.229 86.0543 121.815 85.691 122.331C85.3277 122.841 84.7418 123.298 83.9332 123.702C84.8941 124.218 85.5826 124.757 85.9986 125.319C86.4205 125.876 86.6314 126.488 86.6314 127.156C86.6314 128.211 86.2183 129.061 85.3922 129.705C84.566 130.344 83.4791 130.663 82.1314 130.663C80.7252 130.663 79.6207 130.364 78.8179 129.767C78.0152 129.169 77.6138 128.322 77.6138 127.227C77.6138 126.494 77.8072 125.844 78.1939 125.275C78.5865 124.707 79.2134 124.206 80.0748 123.772C79.3423 123.31 78.815 122.814 78.4927 122.287C78.1705 121.76 78.0093 121.183 78.0093 120.556C78.0093 119.636 78.3902 118.892 79.1519 118.323C79.9136 117.755 80.9068 117.471 82.1314 117.471ZM80.1275 127.068C80.1275 127.572 80.3033 127.965 80.6548 128.246C81.0064 128.527 81.4869 128.668 82.0963 128.668C82.7701 128.668 83.274 128.524 83.608 128.237C83.942 127.944 84.1089 127.561 84.1089 127.086C84.1089 126.693 83.942 126.327 83.608 125.987C83.2798 125.642 82.7437 125.275 81.9996 124.889C80.7515 125.463 80.1275 126.189 80.1275 127.068ZM82.1138 119.457C81.6509 119.457 81.2759 119.577 80.9888 119.817C80.7076 120.052 80.567 120.368 80.567 120.767C80.567 121.118 80.6783 121.435 80.9009 121.716C81.1295 121.991 81.5396 122.275 82.1314 122.568C82.7056 122.299 83.107 122.023 83.3355 121.742C83.564 121.461 83.6783 121.136 83.6783 120.767C83.6783 120.362 83.5318 120.043 83.2388 119.809C82.9459 119.574 82.5709 119.457 82.1138 119.457Z" fill="black"/>
<path d="M96.9144 123.122C96.9144 125.653 96.3812 127.543 95.3148 128.791C94.2484 130.039 92.6341 130.663 90.472 130.663C89.7103 130.663 89.1332 130.622 88.7406 130.54V128.36C89.2328 128.483 89.7484 128.545 90.2875 128.545C91.1957 128.545 91.9427 128.413 92.5287 128.149C93.1146 127.88 93.5629 127.461 93.8734 126.893C94.1839 126.318 94.3627 125.53 94.4095 124.528H94.3041C93.9642 125.079 93.5716 125.466 93.1263 125.688C92.681 125.911 92.1244 126.022 91.4564 126.022C90.3373 126.022 89.4554 125.665 88.8109 124.95C88.1664 124.229 87.8441 123.23 87.8441 121.953C87.8441 120.576 88.2337 119.489 89.013 118.692C89.7982 117.89 90.8646 117.488 92.2123 117.488C93.1615 117.488 93.9906 117.711 94.6996 118.156C95.4144 118.602 95.9623 119.249 96.3431 120.099C96.724 120.942 96.9144 121.95 96.9144 123.122ZM92.265 119.668C91.7025 119.668 91.263 119.861 90.9466 120.248C90.6302 120.635 90.472 121.191 90.472 121.918C90.472 122.539 90.6156 123.031 90.9027 123.395C91.1898 123.758 91.6263 123.939 92.2123 123.939C92.763 123.939 93.2347 123.761 93.6273 123.403C94.0199 123.04 94.2162 122.624 94.2162 122.155C94.2162 121.458 94.0316 120.869 93.6625 120.389C93.2992 119.908 92.8334 119.668 92.265 119.668Z" fill="black"/>
<path d="M107.18 124.062C107.18 126.307 106.811 127.968 106.072 129.046C105.34 130.124 104.209 130.663 102.68 130.663C101.197 130.663 100.078 130.106 99.3224 128.993C98.5724 127.88 98.1974 126.236 98.1974 124.062C98.1974 121.795 98.5636 120.125 99.2961 119.053C100.028 117.975 101.156 117.436 102.68 117.436C104.162 117.436 105.281 117.998 106.037 119.123C106.799 120.248 107.18 121.895 107.18 124.062ZM100.896 124.062C100.896 125.639 101.03 126.77 101.3 127.455C101.575 128.135 102.035 128.475 102.68 128.475C103.313 128.475 103.77 128.129 104.051 127.438C104.332 126.746 104.473 125.621 104.473 124.062C104.473 122.486 104.329 121.355 104.042 120.67C103.761 119.979 103.307 119.633 102.68 119.633C102.041 119.633 101.584 119.979 101.309 120.67C101.033 121.355 100.896 122.486 100.896 124.062Z" fill="black"/>
</g>
</g>
</svg>
