<svg width="160" height="136" viewBox="0 0 160 136" fill="none" xmlns="http://www.w3.org/2000/svg">
<g id="OpenSans_regular">
<g id="Regular">
<path d="M1.30566 13.5117V3.39453H4.36816C5.33887 3.39453 6.08171 3.60872 6.59668 4.03711C7.11621 4.46549 7.37598 5.08757 7.37598 5.90332C7.37598 7.25228 6.69466 8.20931 5.33203 8.77441L8.70898 13.5117H6.94531L4.06738 9.23242H2.72754V13.5117H1.30566ZM2.72754 8.15918H3.19238C4.99707 8.15918 5.89941 7.45052 5.89941 6.0332C5.89941 4.98958 5.1429 4.46777 3.62988 4.46777H2.72754V8.15918Z" fill="black"/>
<path d="M15.6224 13.2725C14.72 13.5459 13.9476 13.6826 13.305 13.6826C12.2112 13.6826 11.318 13.3203 10.6253 12.5957C9.93714 11.8665 9.59306 10.9232 9.59306 9.76562C9.59306 8.63997 9.89612 7.71712 10.5022 6.99707C11.1129 6.27702 11.8922 5.91699 12.8401 5.91699C13.7379 5.91699 14.4306 6.236 14.9183 6.87402C15.4104 7.51204 15.6565 8.41895 15.6565 9.59473L15.6497 10.0117H10.9671C11.1631 11.7754 12.0267 12.6572 13.5579 12.6572C14.1185 12.6572 14.8066 12.5068 15.6224 12.2061V13.2725ZM11.0286 9H14.303C14.303 7.61914 13.7881 6.92871 12.7581 6.92871C11.7236 6.92871 11.1471 7.61914 11.0286 9Z" fill="black"/>
<path d="M18.1998 15.9795L18.3571 14.8105C19.1364 15.1797 19.9043 15.3643 20.6608 15.3643C22.1784 15.3643 22.9371 14.5599 22.9371 12.9512V11.7822C22.4404 12.8213 21.6246 13.3408 20.4899 13.3408C19.6012 13.3408 18.8948 13.0173 18.3707 12.3701C17.8466 11.723 17.5846 10.8503 17.5846 9.75195C17.5846 8.62174 17.8831 7.70117 18.4801 6.99023C19.0771 6.2793 19.8496 5.92383 20.7975 5.92383C21.6269 5.92383 22.3401 6.26107 22.9371 6.93555V6.08789H24.2907V11.4883C24.2907 12.6504 24.2291 13.5094 24.1061 14.0654C23.9876 14.626 23.762 15.084 23.4293 15.4395C22.8414 16.0638 21.9277 16.376 20.6881 16.376C19.8222 16.376 18.9928 16.2438 18.1998 15.9795ZM22.9371 10.9414V7.8584C22.3447 7.24316 21.6998 6.93555 21.0026 6.93555C20.3828 6.93555 19.8974 7.18392 19.5465 7.68066C19.1956 8.17741 19.0202 8.85872 19.0202 9.72461C19.0202 11.3516 19.5921 12.165 20.736 12.165C21.5153 12.165 22.249 11.7572 22.9371 10.9414Z" fill="black"/>
<path d="M31.7353 13.5117V12.1172C31.0198 13.1608 30.1517 13.6826 29.1308 13.6826C28.4837 13.6826 27.9687 13.4798 27.5859 13.0742C27.2031 12.6641 27.0117 12.1126 27.0117 11.4199V6.08789H28.3584V10.9824C28.3584 11.5384 28.4381 11.9349 28.5976 12.1719C28.7617 12.4043 29.0329 12.5205 29.4111 12.5205C30.2314 12.5205 31.0062 11.9805 31.7353 10.9004V6.08789H33.082V13.5117H31.7353Z" fill="black"/>
<path d="M35.9739 13.5117V2.71777H37.3206V13.5117H35.9739Z" fill="black"/>
<path d="M44.0198 12.5684C43.2132 13.3112 42.4362 13.6826 41.6888 13.6826C41.0735 13.6826 40.5631 13.4912 40.1575 13.1084C39.7519 12.721 39.5491 12.2334 39.5491 11.6455C39.5491 10.8343 39.8887 10.2122 40.5677 9.7793C41.2513 9.3418 42.2288 9.12305 43.5003 9.12305H43.8216V8.22754C43.8216 7.36621 43.3795 6.93555 42.4954 6.93555C41.7845 6.93555 41.0166 7.1543 40.1917 7.5918V6.47754C41.0986 6.1084 41.9485 5.92383 42.7415 5.92383C43.5709 5.92383 44.1816 6.11068 44.5735 6.48438C44.97 6.85807 45.1683 7.43913 45.1683 8.22754V11.5908C45.1683 12.361 45.4053 12.7461 45.8792 12.7461C45.9385 12.7461 46.025 12.737 46.139 12.7188L46.2347 13.4639C45.9293 13.6097 45.5921 13.6826 45.223 13.6826C44.5941 13.6826 44.193 13.3112 44.0198 12.5684ZM43.8216 11.8369V9.91602L43.3704 9.90234C42.6321 9.90234 42.0351 10.0436 41.5794 10.3262C41.1237 10.6042 40.8958 10.971 40.8958 11.4268C40.8958 11.7503 41.0097 12.0238 41.2376 12.2471C41.4655 12.4704 41.7435 12.582 42.0716 12.582C42.6321 12.582 43.2155 12.3337 43.8216 11.8369Z" fill="black"/>
<path d="M48.1009 13.5117V6.08789H49.4476V7.48242C49.9808 6.44336 50.7555 5.92383 51.7718 5.92383C51.9085 5.92383 52.0521 5.93522 52.2025 5.95801V7.21582C51.97 7.13835 51.765 7.09961 51.5872 7.09961C50.735 7.09961 50.0218 7.60547 49.4476 8.61719V13.5117H48.1009Z" fill="black"/>
</g>
<g id="ABCDEFGHIJKLM">
<path d="M14.8438 34.4873L13.2441 30.4004H8.09375L6.51172 34.4873H5L10.0801 21.585H11.3369L16.3906 34.4873H14.8438ZM12.7783 29.0557L11.2842 25.0742C11.0908 24.5703 10.8916 23.9521 10.6865 23.2197C10.5576 23.7822 10.373 24.4004 10.1328 25.0742L8.62109 29.0557H12.7783Z" fill="black"/>
<path d="M18.1536 21.6377H21.7835C23.4886 21.6377 24.722 21.8926 25.4837 22.4023C26.2454 22.9121 26.6263 23.7178 26.6263 24.8193C26.6263 25.5811 26.4124 26.2109 25.9847 26.709C25.5628 27.2012 24.9446 27.5205 24.1302 27.667V27.7549C26.0814 28.0889 27.0569 29.1143 27.0569 30.8311C27.0569 31.9795 26.6673 32.876 25.888 33.5205C25.1146 34.165 24.0306 34.4873 22.636 34.4873H18.1536V21.6377ZM19.6478 27.1396H22.1087C23.1634 27.1396 23.9222 26.9756 24.3851 26.6475C24.848 26.3135 25.0794 25.7539 25.0794 24.9688C25.0794 24.248 24.8216 23.7295 24.306 23.4131C23.7903 23.0908 22.97 22.9297 21.845 22.9297H19.6478V27.1396ZM19.6478 28.4053V33.2129H22.3284C23.3655 33.2129 24.1448 33.0137 24.6663 32.6152C25.1937 32.2109 25.4573 31.5811 25.4573 30.7256C25.4573 29.9287 25.1878 29.3428 24.6487 28.9678C24.1155 28.5928 23.3011 28.4053 22.2054 28.4053H19.6478Z" fill="black"/>
<path d="M35.3257 22.7891C33.9135 22.7891 32.7973 23.2607 31.977 24.2041C31.1626 25.1416 30.7553 26.4277 30.7553 28.0625C30.7553 29.7441 31.1479 31.0449 31.9331 31.9648C32.7241 32.8789 33.8491 33.3359 35.3081 33.3359C36.2046 33.3359 37.227 33.1748 38.3755 32.8525V34.1621C37.4848 34.4961 36.3862 34.6631 35.0796 34.6631C33.187 34.6631 31.7251 34.0889 30.6938 32.9404C29.6684 31.792 29.1557 30.1602 29.1557 28.0449C29.1557 26.7207 29.4018 25.5605 29.894 24.5645C30.3921 23.5684 31.1069 22.8008 32.0385 22.2617C32.976 21.7227 34.0776 21.4531 35.3432 21.4531C36.6909 21.4531 37.8686 21.6992 38.8764 22.1914L38.2436 23.4746C37.271 23.0176 36.2983 22.7891 35.3257 22.7891Z" fill="black"/>
<path d="M51.4342 27.9395C51.4342 30.0605 50.8571 31.6836 49.7028 32.8086C48.5543 33.9277 46.8991 34.4873 44.7369 34.4873H41.1774V21.6377H45.1149C47.1129 21.6377 48.6657 22.1914 49.7731 23.2988C50.8805 24.4062 51.4342 25.9531 51.4342 27.9395ZM49.8522 27.9922C49.8522 26.3164 49.4303 25.0537 48.5866 24.2041C47.7487 23.3545 46.5006 22.9297 44.8424 22.9297H42.6715V33.1953H44.4908C46.2721 33.1953 47.611 32.7588 48.5075 31.8857C49.4039 31.0068 49.8522 29.709 49.8522 27.9922Z" fill="black"/>
<path d="M61.4677 34.4873H54.3046V21.6377H61.4677V22.9648H55.7988V27.1045H61.1249V28.4229H55.7988V33.1514H61.4677V34.4873Z" fill="black"/>
<path d="M65.8219 34.4873H64.3278V21.6377H71.4908V22.9648H65.8219V27.667H71.1481V28.9941H65.8219V34.4873Z" fill="black"/>
<path d="M79.2798 27.7549H83.6479V34.0039C82.9682 34.2207 82.2768 34.3848 81.5737 34.4961C80.8706 34.6074 80.0561 34.6631 79.1303 34.6631C77.185 34.6631 75.6704 34.0859 74.5864 32.9316C73.5024 31.7715 72.9604 30.1484 72.9604 28.0625C72.9604 26.7266 73.227 25.5576 73.7602 24.5557C74.2993 23.5479 75.0727 22.7803 76.0805 22.2529C77.0883 21.7197 78.269 21.4531 79.6225 21.4531C80.9936 21.4531 82.271 21.7051 83.4546 22.209L82.8745 23.5273C81.7143 23.0352 80.5981 22.7891 79.5258 22.7891C77.9614 22.7891 76.7397 23.2549 75.8608 24.1865C74.9819 25.1182 74.5424 26.4102 74.5424 28.0625C74.5424 29.7969 74.9643 31.1123 75.8081 32.0088C76.6577 32.9053 77.9028 33.3535 79.5434 33.3535C80.4341 33.3535 81.3042 33.251 82.1538 33.0459V29.0908H79.2798V27.7549Z" fill="black"/>
<path d="M96.4939 34.4873H94.9998V28.4404H88.2322V34.4873H86.7381V21.6377H88.2322V27.1045H94.9998V21.6377H96.4939V34.4873Z" fill="black"/>
<path d="M100.024 34.4873V21.6377H101.518V34.4873H100.024Z" fill="black"/>
<path d="M103.175 37.8711C102.624 37.8711 102.191 37.792 101.874 37.6338V36.3594C102.29 36.4766 102.724 36.5352 103.175 36.5352C103.755 36.5352 104.195 36.3594 104.494 36.0078C104.798 35.6562 104.951 35.1494 104.951 34.4873V21.6377H106.445V34.3643C106.445 35.4775 106.163 36.3389 105.601 36.9482C105.038 37.5635 104.23 37.8711 103.175 37.8711Z" fill="black"/>
<path d="M119.147 34.4873H117.389L112.704 28.2559L111.36 29.4512V34.4873H109.865V21.6377H111.36V28.0098L117.187 21.6377H118.953L113.785 27.2188L119.147 34.4873Z" fill="black"/>
<path d="M120.919 34.4873V21.6377H122.413V33.1338H128.082V34.4873H120.919Z" fill="black"/>
<path d="M135.953 34.4873L131.594 23.0967H131.523C131.605 23.999 131.646 25.0713 131.646 26.3135V34.4873H130.266V21.6377H132.516L136.586 32.2373H136.656L140.761 21.6377H142.993V34.4873H141.499V26.208C141.499 25.2588 141.54 24.2275 141.622 23.1143H141.552L137.157 34.4873H135.953Z" fill="black"/>
</g>
<g id="NOPQRSTUVWXYZ">
<path d="M16.8037 58.4873H15.0986L8.07617 47.7031H8.00586C8.09961 48.9688 8.14648 50.1289 8.14648 51.1836V58.4873H6.7666V45.6377H8.4541L15.459 56.3779H15.5293C15.5176 56.2197 15.4912 55.7129 15.4502 54.8574C15.4092 53.9961 15.3945 53.3809 15.4062 53.0117V45.6377H16.8037V58.4873Z" fill="black"/>
<path d="M31.4884 52.0449C31.4884 54.1016 30.9669 55.7188 29.924 56.8965C28.8869 58.0742 27.4425 58.6631 25.591 58.6631C23.6984 58.6631 22.2365 58.0859 21.2052 56.9316C20.1798 55.7715 19.6671 54.1367 19.6671 52.0273C19.6671 49.9355 20.1828 48.3154 21.214 47.167C22.2453 46.0127 23.7101 45.4355 25.6086 45.4355C27.4543 45.4355 28.8957 46.0215 29.9328 47.1934C30.9699 48.3652 31.4884 49.9824 31.4884 52.0449ZM21.2492 52.0449C21.2492 53.7852 21.6183 55.1064 22.3566 56.0088C23.1007 56.9053 24.1789 57.3535 25.591 57.3535C27.0148 57.3535 28.09 56.9053 28.8166 56.0088C29.5431 55.1123 29.9064 53.791 29.9064 52.0449C29.9064 50.3164 29.5431 49.0068 28.8166 48.1162C28.0959 47.2197 27.0265 46.7715 25.6086 46.7715C24.1847 46.7715 23.1007 47.2227 22.3566 48.125C21.6183 49.0215 21.2492 50.3281 21.2492 52.0449Z" fill="black"/>
<path d="M42.5063 49.3818C42.5063 50.6826 42.061 51.6846 41.1704 52.3877C40.2856 53.085 39.0171 53.4336 37.3647 53.4336H35.853V58.4873H34.3589V45.6377H37.6899C40.9008 45.6377 42.5063 46.8857 42.5063 49.3818ZM35.853 52.1504H37.1977C38.5219 52.1504 39.4799 51.9365 40.0717 51.5088C40.6635 51.0811 40.9594 50.3955 40.9594 49.4521C40.9594 48.6025 40.6811 47.9697 40.1245 47.5537C39.5678 47.1377 38.7007 46.9297 37.5229 46.9297H35.853V52.1504Z" fill="black"/>
<path d="M56.3597 52.0449C56.3597 53.6914 56.0286 55.0596 55.3665 56.1494C54.7044 57.2393 53.7698 57.9775 52.5628 58.3643L55.6214 61.5459H53.4505L50.9456 58.6455L50.4622 58.6631C48.5696 58.6631 47.1077 58.0859 46.0765 56.9316C45.0511 55.7715 44.5384 54.1367 44.5384 52.0273C44.5384 49.9355 45.054 48.3154 46.0853 47.167C47.1165 46.0127 48.5814 45.4355 50.4798 45.4355C52.3255 45.4355 53.7669 46.0215 54.804 47.1934C55.8411 48.3652 56.3597 49.9824 56.3597 52.0449ZM46.1204 52.0449C46.1204 53.7852 46.4896 55.1064 47.2278 56.0088C47.972 56.9053 49.0501 57.3535 50.4622 57.3535C51.886 57.3535 52.9612 56.9053 53.6878 56.0088C54.4144 55.1123 54.7776 53.791 54.7776 52.0449C54.7776 50.3164 54.4144 49.0068 53.6878 48.1162C52.9671 47.2197 51.8978 46.7715 50.4798 46.7715C49.056 46.7715 47.972 47.2227 47.2278 48.125C46.4896 49.0215 46.1204 50.3281 46.1204 52.0449Z" fill="black"/>
<path d="M60.7242 53.1436V58.4873H59.2301V45.6377H62.7545C64.3307 45.6377 65.4938 45.9395 66.2438 46.543C66.9996 47.1465 67.3776 48.0547 67.3776 49.2676C67.3776 50.9668 66.5162 52.1152 64.7936 52.7129L68.2828 58.4873H66.5162L63.4049 53.1436H60.7242ZM60.7242 51.8604H62.7721C63.8268 51.8604 64.6002 51.6523 65.0924 51.2363C65.5846 50.8145 65.8307 50.1846 65.8307 49.3467C65.8307 48.4971 65.5787 47.8848 65.0748 47.5098C64.5768 47.1348 63.7741 46.9473 62.6666 46.9473H60.7242V51.8604Z" fill="black"/>
<path d="M77.6116 55.0684C77.6116 56.1992 77.2015 57.0811 76.3812 57.7139C75.5609 58.3467 74.4476 58.6631 73.0413 58.6631C71.5179 58.6631 70.346 58.4668 69.5257 58.0742V56.6328C70.053 56.8555 70.6273 57.0312 71.2484 57.1602C71.8694 57.2891 72.4847 57.3535 73.0941 57.3535C74.0901 57.3535 74.8401 57.166 75.3441 56.791C75.848 56.4102 76.0999 55.8828 76.0999 55.209C76.0999 54.7637 76.0091 54.4004 75.8275 54.1191C75.6517 53.832 75.3528 53.5684 74.931 53.3281C74.515 53.0879 73.8792 52.8154 73.0237 52.5107C71.8284 52.083 70.973 51.5762 70.4573 50.9902C69.9476 50.4043 69.6927 49.6396 69.6927 48.6963C69.6927 47.7061 70.0648 46.918 70.8089 46.332C71.553 45.7461 72.5374 45.4531 73.762 45.4531C75.0394 45.4531 76.2142 45.6875 77.2864 46.1562L76.8206 47.457C75.7601 47.0117 74.7288 46.7891 73.7269 46.7891C72.9359 46.7891 72.3177 46.959 71.8724 47.2988C71.4271 47.6387 71.2044 48.1104 71.2044 48.7139C71.2044 49.1592 71.2864 49.5254 71.4505 49.8125C71.6146 50.0938 71.89 50.3545 72.2767 50.5947C72.6693 50.8291 73.2669 51.0898 74.0696 51.377C75.4173 51.8574 76.3431 52.373 76.847 52.9238C77.3568 53.4746 77.6116 54.1895 77.6116 55.0684Z" fill="black"/>
<path d="M84.191 58.4873H82.6969V46.9648H78.6276V45.6377H88.2604V46.9648H84.191V58.4873Z" fill="black"/>
<path d="M99.9095 45.6377V53.9521C99.9095 55.417 99.4671 56.5684 98.5823 57.4062C97.6976 58.2441 96.4818 58.6631 94.9349 58.6631C93.388 58.6631 92.1898 58.2412 91.3401 57.3975C90.4964 56.5537 90.0745 55.3936 90.0745 53.917V45.6377H91.5687V54.0225C91.5687 55.0947 91.8616 55.918 92.4476 56.4922C93.0335 57.0664 93.8948 57.3535 95.0316 57.3535C96.1155 57.3535 96.9505 57.0664 97.5364 56.4922C98.1224 55.9121 98.4153 55.083 98.4153 54.0049V45.6377H99.9095Z" fill="black"/>
<path d="M110.657 45.6377H112.265L107.633 58.4873H106.157L101.551 45.6377H103.133L106.086 53.9521C106.426 54.9072 106.696 55.8359 106.895 56.7383C107.106 55.7891 107.381 54.8428 107.721 53.8994L110.657 45.6377Z" fill="black"/>
<path d="M125.259 58.4873H123.782L121.19 49.8828C121.067 49.502 120.929 49.0215 120.777 48.4414C120.624 47.8613 120.545 47.5127 120.539 47.3955C120.41 48.1689 120.205 49.0156 119.924 49.9355L117.41 58.4873H115.934L112.515 45.6377H114.097L116.127 53.5742C116.408 54.6875 116.613 55.6953 116.742 56.5977C116.901 55.5254 117.135 54.4766 117.445 53.4512L119.748 45.6377H121.33L123.747 53.5215C124.028 54.4297 124.266 55.4551 124.459 56.5977C124.57 55.7656 124.781 54.752 125.092 53.5566L127.113 45.6377H128.695L125.259 58.4873Z" fill="black"/>
<path d="M139.256 58.4873H137.56L134.106 52.8359L130.59 58.4873H129.008L133.28 51.7725L129.298 45.6377H130.951L134.141 50.7266L137.358 45.6377H138.949L134.967 51.7197L139.256 58.4873Z" fill="black"/>
<path d="M144.365 52.0625L147.792 45.6377H149.409L145.12 53.5039V58.4873H143.609V53.5742L139.328 45.6377H140.963L144.365 52.0625Z" fill="black"/>
<path d="M158.974 58.4873H150.141V57.3184L156.961 46.9824H150.352V45.6377H158.78V46.8066L151.96 57.1338H158.974V58.4873Z" fill="black"/>
</g>
<g id="abcdefghijklm">
<path d="M12.4707 82.4873L12.1807 81.1162H12.1104C11.6299 81.7197 11.1494 82.1299 10.6689 82.3467C10.1943 82.5576 9.59961 82.6631 8.88477 82.6631C7.92969 82.6631 7.17969 82.417 6.63477 81.9248C6.0957 81.4326 5.82617 80.7324 5.82617 79.8242C5.82617 77.8789 7.38184 76.8594 10.4932 76.7656L12.1279 76.7129V76.1152C12.1279 75.3594 11.9639 74.8027 11.6357 74.4453C11.3135 74.082 10.7949 73.9004 10.0801 73.9004C9.27734 73.9004 8.36914 74.1465 7.35547 74.6387L6.90723 73.5225C7.38184 73.2646 7.90039 73.0625 8.46289 72.916C9.03125 72.7695 9.59961 72.6963 10.168 72.6963C11.3164 72.6963 12.166 72.9512 12.7168 73.4609C13.2734 73.9707 13.5518 74.7881 13.5518 75.9131V82.4873H12.4707ZM9.1748 81.459C10.083 81.459 10.7949 81.21 11.3105 80.7119C11.832 80.2139 12.0928 79.5166 12.0928 78.6201V77.75L10.6338 77.8115C9.47363 77.8525 8.63574 78.0342 8.12012 78.3564C7.61035 78.6729 7.35547 79.168 7.35547 79.8418C7.35547 80.3691 7.51367 80.7705 7.83008 81.0459C8.15234 81.3213 8.60059 81.459 9.1748 81.459Z" fill="black"/>
<path d="M21.0524 72.6963C22.3181 72.6963 23.2995 73.1299 23.9968 73.9971C24.6999 74.8584 25.0515 76.0801 25.0515 77.6621C25.0515 79.2441 24.697 80.4746 23.988 81.3535C23.2849 82.2266 22.3063 82.6631 21.0524 82.6631C20.4255 82.6631 19.8513 82.5488 19.3298 82.3203C18.8141 82.0859 18.3806 81.7285 18.029 81.248H17.9235L17.6159 82.4873H16.57V68.8115H18.029V72.1338C18.029 72.8779 18.0056 73.5459 17.9587 74.1377H18.029C18.7087 73.1768 19.7165 72.6963 21.0524 72.6963ZM20.8415 73.918C19.8454 73.918 19.1276 74.2051 18.6882 74.7793C18.2487 75.3477 18.029 76.3086 18.029 77.6621C18.029 79.0156 18.2546 79.9854 18.7057 80.5713C19.1569 81.1514 19.8806 81.4414 20.8766 81.4414C21.7731 81.4414 22.4411 81.1162 22.8806 80.4658C23.32 79.8096 23.5397 78.8691 23.5397 77.6445C23.5397 76.3906 23.32 75.4561 22.8806 74.8408C22.4411 74.2256 21.7614 73.918 20.8415 73.918Z" fill="black"/>
<path d="M31.4551 82.6631C30.0605 82.6631 28.9795 82.2354 28.2119 81.3799C27.4502 80.5186 27.0693 79.3027 27.0693 77.7324C27.0693 76.1211 27.4561 74.876 28.2295 73.9971C29.0088 73.1182 30.1162 72.6787 31.5518 72.6787C32.0146 72.6787 32.4775 72.7285 32.9404 72.8281C33.4033 72.9277 33.7666 73.0449 34.0303 73.1797L33.582 74.4189C33.2598 74.29 32.9082 74.1846 32.5273 74.1025C32.1465 74.0146 31.8096 73.9707 31.5166 73.9707C29.5596 73.9707 28.5811 75.2188 28.5811 77.7148C28.5811 78.8984 28.8184 79.8066 29.293 80.4395C29.7734 81.0723 30.4824 81.3887 31.4199 81.3887C32.2227 81.3887 33.0459 81.2158 33.8896 80.8701V82.1621C33.2451 82.4961 32.4336 82.6631 31.4551 82.6631Z" fill="black"/>
<path d="M42.742 81.1953H42.6629C41.9891 82.1738 40.9813 82.6631 39.6395 82.6631C38.3797 82.6631 37.3983 82.2324 36.6952 81.3711C35.9979 80.5098 35.6493 79.2852 35.6493 77.6973C35.6493 76.1094 36.0008 74.876 36.7039 73.9971C37.4071 73.1182 38.3856 72.6787 39.6395 72.6787C40.9461 72.6787 41.9481 73.1533 42.6454 74.1025H42.7596L42.6981 73.4082L42.6629 72.7314V68.8115H44.1219V82.4873H42.9354L42.742 81.1953ZM39.8241 81.4414C40.8202 81.4414 41.5409 81.1719 41.9862 80.6328C42.4373 80.0879 42.6629 79.2119 42.6629 78.0049V77.6973C42.6629 76.332 42.4344 75.3594 41.9774 74.7793C41.5262 74.1934 40.8026 73.9004 39.8065 73.9004C38.951 73.9004 38.2948 74.2344 37.8377 74.9023C37.3866 75.5645 37.161 76.502 37.161 77.7148C37.161 78.9453 37.3866 79.874 37.8377 80.501C38.2889 81.1279 38.951 81.4414 39.8241 81.4414Z" fill="black"/>
<path d="M51.2902 82.6631C49.8664 82.6631 48.7414 82.2295 47.9152 81.3623C47.0949 80.4951 46.6847 79.291 46.6847 77.75C46.6847 76.1973 47.0656 74.9639 47.8273 74.0498C48.5949 73.1357 49.6232 72.6787 50.9123 72.6787C52.1193 72.6787 53.0744 73.0771 53.7775 73.874C54.4806 74.665 54.8322 75.7109 54.8322 77.0117V77.9346H48.1964C48.2257 79.0654 48.5099 79.9238 49.049 80.5098C49.5939 81.0957 50.3586 81.3887 51.3429 81.3887C52.38 81.3887 53.4054 81.1719 54.4191 80.7383V82.0391C53.9035 82.2617 53.4142 82.4199 52.9513 82.5137C52.4943 82.6133 51.9406 82.6631 51.2902 82.6631ZM50.8947 73.9004C50.1212 73.9004 49.5031 74.1523 49.0402 74.6562C48.5832 75.1602 48.3136 75.8574 48.2316 76.748H53.2677C53.2677 75.8281 53.0627 75.125 52.6525 74.6387C52.2423 74.1465 51.6564 73.9004 50.8947 73.9004Z" fill="black"/>
<path d="M61.6737 73.9883H59.2215V82.4873H57.7625V73.9883H56.0399V73.3291L57.7625 72.8018V72.2656C57.7625 69.8984 58.7967 68.7148 60.8651 68.7148C61.3748 68.7148 61.9725 68.8174 62.6581 69.0225L62.2801 70.1914C61.7176 70.0098 61.2372 69.9189 60.8387 69.9189C60.2879 69.9189 59.8807 70.1035 59.617 70.4727C59.3534 70.8359 59.2215 71.4219 59.2215 72.2305V72.8545H61.6737V73.9883Z" fill="black"/>
<path d="M71.3135 72.8545V73.7773L69.5293 73.9883C69.6934 74.1934 69.8398 74.4629 69.9688 74.7969C70.0977 75.125 70.1621 75.4971 70.1621 75.9131C70.1621 76.8564 69.8398 77.6094 69.1953 78.1719C68.5508 78.7344 67.666 79.0156 66.541 79.0156C66.2539 79.0156 65.9844 78.9922 65.7324 78.9453C65.1113 79.2734 64.8008 79.6865 64.8008 80.1846C64.8008 80.4482 64.9092 80.6445 65.126 80.7734C65.3428 80.8965 65.7148 80.958 66.2422 80.958H67.9473C68.9902 80.958 69.79 81.1777 70.3467 81.6172C70.9092 82.0566 71.1904 82.6953 71.1904 83.5332C71.1904 84.5996 70.7627 85.4111 69.9072 85.9678C69.0518 86.5303 67.8037 86.8115 66.1631 86.8115C64.9033 86.8115 63.9307 86.5771 63.2451 86.1084C62.5654 85.6396 62.2256 84.9775 62.2256 84.1221C62.2256 83.5361 62.4131 83.0293 62.7881 82.6016C63.1631 82.1738 63.6904 81.8838 64.3701 81.7314C64.124 81.6201 63.916 81.4473 63.7461 81.2129C63.582 80.9785 63.5 80.7061 63.5 80.3955C63.5 80.0439 63.5938 79.7363 63.7812 79.4727C63.9688 79.209 64.2646 78.9541 64.6689 78.708C64.1709 78.5029 63.7637 78.1543 63.4473 77.6621C63.1367 77.1699 62.9814 76.6074 62.9814 75.9746C62.9814 74.9199 63.2979 74.1084 63.9307 73.54C64.5635 72.9658 65.46 72.6787 66.6201 72.6787C67.124 72.6787 67.5781 72.7373 67.9824 72.8545H71.3135ZM63.6318 84.1045C63.6318 84.626 63.8516 85.0215 64.291 85.291C64.7305 85.5605 65.3604 85.6953 66.1807 85.6953C67.4053 85.6953 68.3105 85.5107 68.8965 85.1416C69.4883 84.7783 69.7842 84.2832 69.7842 83.6562C69.7842 83.1348 69.623 82.7715 69.3008 82.5664C68.9785 82.3672 68.3721 82.2676 67.4814 82.2676H65.7324C65.0703 82.2676 64.5547 82.4258 64.1855 82.7422C63.8164 83.0586 63.6318 83.5127 63.6318 84.1045ZM64.4229 75.9395C64.4229 76.6133 64.6133 77.123 64.9941 77.4688C65.375 77.8145 65.9053 77.9873 66.585 77.9873C68.0088 77.9873 68.7207 77.2959 68.7207 75.9131C68.7207 74.4658 68 73.7422 66.5586 73.7422C65.873 73.7422 65.3457 73.9268 64.9766 74.2959C64.6074 74.665 64.4229 75.2129 64.4229 75.9395Z" fill="black"/>
<path d="M79.881 82.4873V76.2559C79.881 75.4707 79.7023 74.8848 79.3449 74.498C78.9875 74.1113 78.4279 73.918 77.6662 73.918C76.6525 73.918 75.9113 74.1934 75.4425 74.7441C74.9796 75.2949 74.7482 76.1973 74.7482 77.4512V82.4873H73.2892V68.8115H74.7482V72.9512C74.7482 73.4492 74.7248 73.8623 74.6779 74.1904H74.7658C75.0529 73.7275 75.4601 73.3643 75.9875 73.1006C76.5207 72.8311 77.1271 72.6963 77.8068 72.6963C78.9845 72.6963 79.8664 72.9775 80.4523 73.54C81.0441 74.0967 81.34 74.9844 81.34 76.2031V82.4873H79.881Z" fill="black"/>
<path d="M85.8012 82.4873H84.3423V72.8545H85.8012V82.4873ZM84.2192 70.2441C84.2192 69.9102 84.3012 69.667 84.4653 69.5146C84.6294 69.3564 84.8344 69.2773 85.0805 69.2773C85.3149 69.2773 85.5171 69.3564 85.687 69.5146C85.8569 69.6729 85.9419 69.916 85.9419 70.2441C85.9419 70.5723 85.8569 70.8184 85.687 70.9824C85.5171 71.1406 85.3149 71.2197 85.0805 71.2197C84.8344 71.2197 84.6294 71.1406 84.4653 70.9824C84.3012 70.8184 84.2192 70.5723 84.2192 70.2441Z" fill="black"/>
<path d="M87.7242 86.8115C87.1676 86.8115 86.7164 86.7383 86.3707 86.5918V85.4053C86.775 85.5225 87.1735 85.5811 87.566 85.5811C88.0231 85.5811 88.3571 85.4551 88.568 85.2031C88.7848 84.957 88.8932 84.5791 88.8932 84.0693V72.8545H90.3522V83.9639C90.3522 85.8623 89.4762 86.8115 87.7242 86.8115ZM88.7701 70.2441C88.7701 69.9102 88.8522 69.667 89.0162 69.5146C89.1803 69.3564 89.3854 69.2773 89.6315 69.2773C89.8658 69.2773 90.068 69.3564 90.2379 69.5146C90.4078 69.6729 90.4928 69.916 90.4928 70.2441C90.4928 70.5723 90.4078 70.8184 90.2379 70.9824C90.068 71.1406 89.8658 71.2197 89.6315 71.2197C89.3854 71.2197 89.1803 71.1406 89.0162 70.9824C88.8522 70.8184 88.7701 70.5723 88.7701 70.2441Z" fill="black"/>
<path d="M94.8855 77.5566C95.1375 77.1992 95.5213 76.7305 96.0369 76.1504L99.1482 72.8545H100.88L96.9773 76.959L101.152 82.4873H99.3855L95.9842 77.9346L94.8855 78.8838V82.4873H93.4441V68.8115H94.8855V76.0625C94.8855 76.3848 94.8621 76.8828 94.8152 77.5566H94.8855Z" fill="black"/>
<path d="M104.358 82.4873H102.899V68.8115H104.358V82.4873Z" fill="black"/>
<path d="M119.729 82.4873V76.2207C119.729 75.4531 119.565 74.8789 119.236 74.498C118.908 74.1113 118.399 73.918 117.707 73.918C116.799 73.918 116.128 74.1787 115.694 74.7002C115.261 75.2217 115.044 76.0244 115.044 77.1084V82.4873H113.585V76.2207C113.585 75.4531 113.421 74.8789 113.093 74.498C112.765 74.1113 112.252 73.918 111.555 73.918C110.641 73.918 109.97 74.1934 109.542 74.7441C109.12 75.2891 108.909 76.1855 108.909 77.4336V82.4873H107.45V72.8545H108.637L108.874 74.1729H108.944C109.22 73.7041 109.607 73.3379 110.105 73.0742C110.608 72.8105 111.171 72.6787 111.792 72.6787C113.298 72.6787 114.282 73.2236 114.745 74.3135H114.816C115.103 73.8096 115.519 73.4111 116.064 73.1182C116.608 72.8252 117.23 72.6787 117.927 72.6787C119.017 72.6787 119.831 72.96 120.37 73.5225C120.915 74.0791 121.188 74.9727 121.188 76.2031V82.4873H119.729Z" fill="black"/>
</g>
<g id="nopqrstuvwxyz">
<path d="M13.1387 106.487V100.256C13.1387 99.4707 12.96 98.8848 12.6025 98.498C12.2451 98.1113 11.6855 97.918 10.9238 97.918C9.91602 97.918 9.17773 98.1904 8.70898 98.7354C8.24023 99.2803 8.00586 100.18 8.00586 101.434V106.487H6.54688V96.8545H7.7334L7.9707 98.1729H8.04102C8.33984 97.6982 8.75879 97.332 9.29785 97.0742C9.83691 96.8105 10.4375 96.6787 11.0996 96.6787C12.2598 96.6787 13.1328 96.96 13.7188 97.5225C14.3047 98.0791 14.5977 98.9727 14.5977 100.203V106.487H13.1387Z" fill="black"/>
<path d="M25.9144 101.662C25.9144 103.232 25.5189 104.46 24.7278 105.345C23.9368 106.224 22.8441 106.663 21.4495 106.663C20.5882 106.663 19.8235 106.461 19.1556 106.057C18.4876 105.652 17.972 105.072 17.6087 104.316C17.2454 103.561 17.0638 102.676 17.0638 101.662C17.0638 100.092 17.4564 98.8701 18.2415 97.9971C19.0267 97.1182 20.1165 96.6787 21.511 96.6787C22.8587 96.6787 23.928 97.127 24.7191 98.0234C25.5159 98.9199 25.9144 100.133 25.9144 101.662ZM18.5755 101.662C18.5755 102.893 18.8216 103.83 19.3138 104.475C19.806 105.119 20.5296 105.441 21.4847 105.441C22.4398 105.441 23.1634 105.122 23.6556 104.483C24.1536 103.839 24.4026 102.898 24.4026 101.662C24.4026 100.438 24.1536 99.5088 23.6556 98.876C23.1634 98.2373 22.4339 97.918 21.4671 97.918C20.512 97.918 19.7913 98.2314 19.305 98.8584C18.8187 99.4854 18.5755 100.42 18.5755 101.662Z" fill="black"/>
<path d="M32.9596 106.663C32.3326 106.663 31.7584 106.549 31.2369 106.32C30.7213 106.086 30.2877 105.729 29.9362 105.248H29.8307C29.901 105.811 29.9362 106.344 29.9362 106.848V110.812H28.4772V96.8545H29.6637L29.8658 98.1729H29.9362C30.3112 97.6455 30.7477 97.2646 31.2457 97.0303C31.7438 96.7959 32.3151 96.6787 32.9596 96.6787C34.2369 96.6787 35.2213 97.1152 35.9127 97.9883C36.61 98.8613 36.9586 100.086 36.9586 101.662C36.9586 103.244 36.6041 104.475 35.8951 105.354C35.192 106.227 34.2135 106.663 32.9596 106.663ZM32.7487 97.918C31.7643 97.918 31.0524 98.1904 30.6129 98.7354C30.1735 99.2803 29.9479 100.147 29.9362 101.337V101.662C29.9362 103.016 30.1617 103.985 30.6129 104.571C31.0641 105.151 31.7877 105.441 32.7838 105.441C33.6158 105.441 34.2662 105.104 34.735 104.431C35.2096 103.757 35.4469 102.828 35.4469 101.645C35.4469 100.443 35.2096 99.5234 34.735 98.8848C34.2662 98.2402 33.6041 97.918 32.7487 97.918Z" fill="black"/>
<path d="M43.1513 105.441C44.124 105.441 44.833 105.181 45.2783 104.659C45.7236 104.138 45.9609 103.259 45.9902 102.022V101.697C45.9902 100.35 45.7617 99.3799 45.3046 98.7881C44.8476 98.1963 44.124 97.9004 43.1337 97.9004C42.2783 97.9004 41.622 98.2344 41.165 98.9023C40.7138 99.5645 40.4882 100.502 40.4882 101.715C40.4882 102.928 40.7109 103.854 41.1562 104.492C41.6074 105.125 42.2724 105.441 43.1513 105.441ZM42.9316 106.663C41.6894 106.663 40.7197 106.227 40.0224 105.354C39.3251 104.48 38.9765 103.262 38.9765 101.697C38.9765 100.121 39.3281 98.8906 40.0312 98.0059C40.7343 97.1211 41.7128 96.6787 42.9667 96.6787C44.2851 96.6787 45.2988 97.1768 46.0078 98.1729H46.0869L46.2978 96.8545H47.4492V110.812H45.9902V106.689C45.9902 106.104 46.0224 105.605 46.0869 105.195H45.9726C45.2988 106.174 44.2851 106.663 42.9316 106.663Z" fill="black"/>
<path d="M54.9426 96.6787C55.3704 96.6787 55.7542 96.7139 56.094 96.7842L55.8918 98.1377C55.4934 98.0498 55.1418 98.0059 54.8372 98.0059C54.0579 98.0059 53.3899 98.3223 52.8333 98.9551C52.2825 99.5879 52.0071 100.376 52.0071 101.319V106.487H50.5481V96.8545H51.7522L51.9192 98.6387H51.9895C52.3469 98.0117 52.7776 97.5283 53.2815 97.1885C53.7854 96.8486 54.3391 96.6787 54.9426 96.6787Z" fill="black"/>
<path d="M64.1132 103.859C64.1132 104.756 63.7792 105.447 63.1113 105.934C62.4433 106.42 61.5058 106.663 60.2988 106.663C59.0214 106.663 58.0253 106.461 57.3105 106.057V104.703C57.7734 104.938 58.2685 105.122 58.7958 105.257C59.329 105.392 59.8417 105.459 60.3339 105.459C61.0956 105.459 61.6816 105.339 62.0917 105.099C62.5019 104.853 62.707 104.48 62.707 103.982C62.707 103.607 62.5429 103.288 62.2148 103.024C61.8925 102.755 61.2597 102.438 60.3163 102.075C59.4199 101.741 58.7812 101.451 58.4003 101.205C58.0253 100.953 57.7441 100.669 57.5566 100.353C57.3749 100.036 57.2841 99.6582 57.2841 99.2188C57.2841 98.4336 57.6035 97.8154 58.2421 97.3643C58.8808 96.9072 59.7568 96.6787 60.8701 96.6787C61.9072 96.6787 62.9208 96.8896 63.9111 97.3115L63.3925 98.498C62.4257 98.0996 61.5497 97.9004 60.7646 97.9004C60.0732 97.9004 59.5517 98.0088 59.2001 98.2256C58.8486 98.4424 58.6728 98.7412 58.6728 99.1221C58.6728 99.3799 58.7372 99.5996 58.8662 99.7812C59.0009 99.9629 59.2148 100.136 59.5078 100.3C59.8007 100.464 60.3632 100.701 61.1953 101.012C62.3378 101.428 63.1083 101.847 63.5068 102.269C63.9111 102.69 64.1132 103.221 64.1132 103.859Z" fill="black"/>
<path d="M69.6082 105.459C69.866 105.459 70.115 105.441 70.3553 105.406C70.5955 105.365 70.7859 105.324 70.9265 105.283V106.399C70.7683 106.476 70.534 106.537 70.2234 106.584C69.9187 106.637 69.6433 106.663 69.3972 106.663C67.534 106.663 66.6023 105.682 66.6023 103.719V97.9883H65.2224V97.2852L66.6023 96.6787L67.2176 94.6221H68.0613V96.8545H70.8562V97.9883H68.0613V103.657C68.0613 104.237 68.199 104.683 68.4744 104.993C68.7498 105.304 69.1277 105.459 69.6082 105.459Z" fill="black"/>
<path d="M74.2276 96.8545V103.104C74.2276 103.889 74.4063 104.475 74.7638 104.861C75.1212 105.248 75.6808 105.441 76.4425 105.441C77.4503 105.441 78.1856 105.166 78.6485 104.615C79.1173 104.064 79.3517 103.165 79.3517 101.917V96.8545H80.8106V106.487H79.6065L79.3956 105.195H79.3165C79.0177 105.67 78.6017 106.033 78.0685 106.285C77.5411 106.537 76.9376 106.663 76.2579 106.663C75.086 106.663 74.2071 106.385 73.6212 105.828C73.0411 105.271 72.7511 104.381 72.7511 103.156V96.8545H74.2276Z" fill="black"/>
<path d="M86.019 106.487L82.3627 96.8545H83.9272L86.0014 102.567C86.4701 103.903 86.7455 104.771 86.8276 105.169H86.8979C86.9623 104.858 87.1645 104.217 87.5043 103.244C87.85 102.266 88.6205 100.136 89.8158 96.8545H91.3803L87.724 106.487H86.019Z" fill="black"/>
<path d="M100.79 106.487L99.0232 100.836C98.9118 100.49 98.7038 99.7051 98.3991 98.4805H98.3288C98.0945 99.5059 97.8894 100.297 97.7136 100.854L95.8943 106.487H94.2068L91.5788 96.8545H93.1081C93.7292 99.2744 94.2009 101.117 94.5232 102.383C94.8513 103.648 95.0388 104.501 95.0857 104.94H95.156C95.2204 104.606 95.323 104.176 95.4636 103.648C95.6101 103.115 95.7361 102.693 95.8415 102.383L97.6081 96.8545H99.1902L100.913 102.383C101.241 103.391 101.464 104.237 101.581 104.923H101.651C101.675 104.712 101.736 104.387 101.836 103.947C101.941 103.508 102.553 101.144 103.673 96.8545H105.184L102.521 106.487H100.79Z" fill="black"/>
<path d="M109.25 101.557L105.901 96.8545H107.563L110.103 100.546L112.634 96.8545H114.277L110.929 101.557L114.453 106.487H112.801L110.103 102.585L107.378 106.487H105.726L109.25 101.557Z" fill="black"/>
<path d="M114.838 96.8545H116.403L118.512 102.348C118.975 103.602 119.262 104.507 119.373 105.063H119.444C119.52 104.765 119.678 104.255 119.918 103.534C120.164 102.808 120.961 100.581 122.309 96.8545H123.873L119.734 107.823C119.323 108.907 118.843 109.675 118.292 110.126C117.747 110.583 117.076 110.812 116.279 110.812C115.834 110.812 115.395 110.762 114.961 110.662V109.493C115.283 109.563 115.644 109.599 116.042 109.599C117.044 109.599 117.759 109.036 118.187 107.911L118.723 106.54L114.838 96.8545Z" fill="black"/>
<path d="M131.597 106.487H124.61V105.494L129.866 97.9883H124.935V96.8545H131.465V97.9883L126.28 105.354H131.597V106.487Z" fill="black"/>
</g>
<g id="1234567890">
<path d="M11.2842 130.487H9.86035V121.329C9.86035 120.567 9.88379 119.847 9.93066 119.167C9.80762 119.29 9.66992 119.419 9.51758 119.554C9.36523 119.688 8.66797 120.26 7.42578 121.268L6.65234 120.266L10.0537 117.638H11.2842V130.487Z" fill="black"/>
<path d="M24.6258 130.487H16.1795V129.23L19.5633 125.829C20.5945 124.786 21.2742 124.042 21.6023 123.597C21.9305 123.151 22.1766 122.718 22.3406 122.296C22.5047 121.874 22.5867 121.42 22.5867 120.934C22.5867 120.248 22.3787 119.706 21.9627 119.308C21.5467 118.903 20.9695 118.701 20.2312 118.701C19.698 118.701 19.1912 118.789 18.7107 118.965C18.2361 119.141 17.7059 119.46 17.1199 119.923L16.3465 118.93C17.5301 117.945 18.8191 117.453 20.2137 117.453C21.4207 117.453 22.367 117.764 23.0525 118.385C23.7381 119 24.0809 119.829 24.0809 120.872C24.0809 121.687 23.8523 122.492 23.3953 123.289C22.9383 124.086 22.0828 125.094 20.8289 126.312L18.0164 129.063V129.134H24.6258V130.487Z" fill="black"/>
<path d="M34.443 120.661C34.443 121.481 34.2115 122.152 33.7486 122.674C33.2916 123.195 32.6412 123.544 31.7975 123.72V123.79C32.8287 123.919 33.5933 124.247 34.0914 124.774C34.5894 125.302 34.8385 125.993 34.8385 126.849C34.8385 128.073 34.4137 129.017 33.5641 129.679C32.7144 130.335 31.5074 130.663 29.943 130.663C29.2633 130.663 28.6392 130.61 28.0709 130.505C27.5084 130.405 26.9605 130.227 26.4273 129.969V128.58C26.984 128.855 27.5758 129.066 28.2027 129.213C28.8355 129.354 29.4332 129.424 29.9957 129.424C32.2164 129.424 33.3267 128.554 33.3267 126.813C33.3267 125.255 32.1021 124.476 29.6529 124.476H28.3873V123.219H29.6705C30.6725 123.219 31.4664 122.999 32.0523 122.56C32.6383 122.114 32.9312 121.499 32.9312 120.714C32.9312 120.087 32.7144 119.595 32.2808 119.237C31.8531 118.88 31.2701 118.701 30.5318 118.701C29.9693 118.701 29.4391 118.777 28.941 118.93C28.443 119.082 27.8746 119.363 27.2359 119.773L26.4976 118.789C27.025 118.373 27.6314 118.048 28.317 117.813C29.0084 117.573 29.735 117.453 30.4967 117.453C31.7447 117.453 32.7144 117.74 33.4058 118.314C34.0973 118.883 34.443 119.665 34.443 120.661Z" fill="black"/>
<path d="M45.8334 127.534H43.9262V130.487H42.5287V127.534H36.2797V126.26L42.3793 117.567H43.9262V126.207H45.8334V127.534ZM42.5287 126.207V121.936C42.5287 121.098 42.558 120.151 42.6166 119.097H42.5463C42.265 119.659 42.0014 120.125 41.7553 120.494L37.7387 126.207H42.5287Z" fill="black"/>
<path d="M51.0978 122.639C52.4513 122.639 53.5148 122.976 54.2883 123.649C55.0676 124.317 55.4572 125.234 55.4572 126.4C55.4572 127.73 55.0324 128.773 54.1828 129.529C53.339 130.285 52.173 130.663 50.6847 130.663C49.2375 130.663 48.133 130.432 47.3713 129.969V128.562C47.7814 128.826 48.2912 129.034 48.9006 129.187C49.5099 129.333 50.1105 129.406 50.7023 129.406C51.7336 129.406 52.5334 129.163 53.1017 128.677C53.676 128.19 53.9631 127.487 53.9631 126.567C53.9631 124.774 52.8644 123.878 50.6672 123.878C50.1105 123.878 49.3664 123.963 48.4347 124.133L47.6789 123.649L48.1623 117.638H54.5519V118.982H49.4103L49.0851 122.841C49.759 122.706 50.4299 122.639 51.0978 122.639Z" fill="black"/>
<path d="M57.5312 124.994C57.5312 122.469 58.0205 120.582 58.999 119.334C59.9834 118.08 61.4365 117.453 63.3584 117.453C64.0205 117.453 64.542 117.509 64.9228 117.62V118.877C64.4717 118.73 63.956 118.657 63.376 118.657C61.999 118.657 60.9472 119.088 60.2207 119.949C59.4941 120.805 59.0957 122.152 59.0254 123.992H59.1308C59.7754 122.984 60.7949 122.48 62.1894 122.48C63.3437 122.48 64.2519 122.829 64.914 123.526C65.582 124.224 65.916 125.17 65.916 126.365C65.916 127.701 65.5498 128.753 64.8174 129.521C64.0908 130.282 63.1064 130.663 61.8642 130.663C60.5342 130.663 59.4795 130.165 58.7002 129.169C57.9209 128.167 57.5312 126.775 57.5312 124.994ZM61.8467 129.424C62.6787 129.424 63.3232 129.163 63.7803 128.642C64.2431 128.114 64.4746 127.355 64.4746 126.365C64.4746 125.516 64.2607 124.848 63.833 124.361C63.4053 123.875 62.7666 123.632 61.917 123.632C61.3896 123.632 60.9062 123.74 60.4668 123.957C60.0273 124.174 59.6758 124.473 59.4121 124.854C59.1543 125.234 59.0254 125.63 59.0254 126.04C59.0254 126.644 59.1426 127.206 59.3769 127.728C59.6113 128.249 59.9424 128.662 60.3701 128.967C60.8037 129.271 61.2959 129.424 61.8467 129.424Z" fill="black"/>
<path d="M69.3084 130.487L74.6345 118.982H67.6297V117.638H76.1814V118.807L70.9256 130.487H69.3084Z" fill="black"/>
<path d="M82.2369 117.453C83.4088 117.453 84.3375 117.726 85.023 118.271C85.7086 118.815 86.0513 119.568 86.0513 120.529C86.0513 121.162 85.855 121.739 85.4625 122.261C85.0699 122.782 84.4429 123.257 83.5816 123.685C84.6246 124.183 85.3658 124.707 85.8052 125.258C86.2447 125.803 86.4644 126.436 86.4644 127.156C86.4644 128.223 86.0923 129.075 85.3482 129.714C84.6041 130.347 83.5845 130.663 82.2896 130.663C80.9185 130.663 79.8638 130.364 79.1255 129.767C78.3873 129.163 78.0181 128.311 78.0181 127.209C78.0181 125.738 78.9146 124.593 80.7076 123.772C79.899 123.315 79.3189 122.823 78.9673 122.296C78.6158 121.763 78.44 121.168 78.44 120.512C78.44 119.58 78.7828 118.839 79.4683 118.288C80.1597 117.731 81.0826 117.453 82.2369 117.453ZM79.4595 127.244C79.4595 127.947 79.7027 128.495 80.189 128.888C80.6812 129.28 81.3697 129.477 82.2545 129.477C83.1275 129.477 83.8072 129.271 84.2935 128.861C84.7798 128.451 85.023 127.889 85.023 127.174C85.023 126.605 84.7945 126.102 84.3375 125.662C83.8804 125.217 83.0836 124.786 81.9468 124.37C81.0738 124.745 80.441 125.161 80.0484 125.618C79.6558 126.069 79.4595 126.611 79.4595 127.244ZM82.2193 118.64C81.4869 118.64 80.9127 118.815 80.4966 119.167C80.0806 119.519 79.8726 119.987 79.8726 120.573C79.8726 121.112 80.0455 121.575 80.3912 121.962C80.7369 122.349 81.3755 122.735 82.3072 123.122C83.1451 122.771 83.7369 122.393 84.0826 121.988C84.4341 121.584 84.6099 121.112 84.6099 120.573C84.6099 119.981 84.3961 119.513 83.9683 119.167C83.5464 118.815 82.9634 118.64 82.2193 118.64Z" fill="black"/>
<path d="M96.7298 123.122C96.7298 128.149 94.7845 130.663 90.8939 130.663C90.2142 130.663 89.6752 130.604 89.2767 130.487V129.23C89.7455 129.383 90.2787 129.459 90.8763 129.459C92.2826 129.459 93.3431 129.025 94.058 128.158C94.7787 127.285 95.1712 125.949 95.2357 124.15H95.1302C94.808 124.637 94.3802 125.009 93.847 125.267C93.3138 125.519 92.7132 125.645 92.0453 125.645C90.9086 125.645 90.0062 125.305 89.3382 124.625C88.6703 123.945 88.3363 122.996 88.3363 121.777C88.3363 120.441 88.7084 119.387 89.4525 118.613C90.2025 117.84 91.1869 117.453 92.4056 117.453C93.2787 117.453 94.0404 117.679 94.6908 118.13C95.347 118.575 95.8509 119.229 96.2025 120.09C96.5541 120.945 96.7298 121.956 96.7298 123.122ZM92.4056 118.701C91.5677 118.701 90.9203 118.971 90.4632 119.51C90.0062 120.049 89.7777 120.799 89.7777 121.76C89.7777 122.604 89.9886 123.269 90.4105 123.755C90.8324 124.235 91.474 124.476 92.3353 124.476C92.8685 124.476 93.3578 124.367 93.8031 124.15C94.2543 123.934 94.6087 123.638 94.8666 123.263C95.1244 122.888 95.2533 122.495 95.2533 122.085C95.2533 121.47 95.1332 120.901 94.8929 120.38C94.6527 119.858 94.3158 119.448 93.8822 119.149C93.4545 118.851 92.9623 118.701 92.4056 118.701Z" fill="black"/>
<path d="M107.101 124.045C107.101 126.266 106.749 127.924 106.046 129.02C105.349 130.115 104.279 130.663 102.838 130.663C101.455 130.663 100.403 130.104 99.6828 128.984C98.9621 127.859 98.6017 126.213 98.6017 124.045C98.6017 121.807 98.9503 120.146 99.6476 119.062C100.345 117.978 101.408 117.436 102.838 117.436C104.233 117.436 105.29 118.001 106.011 119.132C106.737 120.263 107.101 121.9 107.101 124.045ZM100.078 124.045C100.078 125.914 100.298 127.276 100.737 128.132C101.177 128.981 101.877 129.406 102.838 129.406C103.811 129.406 104.514 128.976 104.947 128.114C105.387 127.247 105.607 125.891 105.607 124.045C105.607 122.199 105.387 120.849 104.947 119.993C104.514 119.132 103.811 118.701 102.838 118.701C101.877 118.701 101.177 119.126 100.737 119.976C100.298 120.819 100.078 122.176 100.078 124.045Z" fill="black"/>
</g>
</g>
</svg>
