<svg width="156" height="136" viewBox="0 0 156 136" fill="none" xmlns="http://www.w3.org/2000/svg">
<g id="OpenSans_bold_italic" clip-path="url(#clip0)">
<g id="Bold Italic">
<path d="M1.30566 13.5117V3.39453H3.93066C4.94238 3.39453 5.71712 3.58594 6.25488 3.96875C6.7972 4.35156 7.06836 4.90299 7.06836 5.62305C7.06836 6.84896 6.37565 7.72168 4.99023 8.24121C6.64453 8.74707 7.47168 9.66081 7.47168 10.9824C7.47168 11.8027 7.19824 12.4294 6.65137 12.8623C6.10449 13.2952 5.31608 13.5117 4.28613 13.5117H1.30566ZM2.72754 12.4385H3.02148C4.07422 12.4385 4.75553 12.3724 5.06543 12.2402C5.65788 11.9896 5.9541 11.5247 5.9541 10.8457C5.9541 10.2441 5.68522 9.74512 5.14746 9.34863C4.6097 8.94759 3.9375 8.74707 3.13086 8.74707H2.72754V12.4385ZM2.72754 7.83789H3.18555C3.95117 7.83789 4.54362 7.67383 4.96289 7.3457C5.38672 7.01758 5.59863 6.55501 5.59863 5.95801C5.59863 4.96452 4.82845 4.46777 3.28809 4.46777H2.72754V7.83789Z" fill="black"/>
<path d="M12.2942 13.6826C11.2323 13.6826 10.3847 13.3317 9.75122 12.6299C9.11776 11.9235 8.80102 10.9801 8.80102 9.7998C8.80102 8.60579 9.11776 7.66243 9.75122 6.96973C10.3892 6.27246 11.2528 5.92383 12.342 5.92383C13.4312 5.92383 14.2926 6.27246 14.926 6.96973C15.564 7.66243 15.8831 8.60124 15.8831 9.78613C15.8831 10.9984 15.564 11.9508 14.926 12.6436C14.288 13.3363 13.4107 13.6826 12.2942 13.6826ZM12.3147 12.6709C13.7411 12.6709 14.4543 11.7093 14.4543 9.78613C14.4543 7.88574 13.7502 6.93555 12.342 6.93555C10.9384 6.93555 10.2366 7.8903 10.2366 9.7998C10.2366 11.7139 10.9293 12.6709 12.3147 12.6709Z" fill="black"/>
<path d="M17.978 13.5117V2.71777H19.3247V13.5117H17.978Z" fill="black"/>
<path d="M26.779 13.5117V12.1172C26.2322 13.1608 25.4073 13.6826 24.3044 13.6826C23.4112 13.6826 22.7071 13.3568 22.1921 12.7051C21.6817 12.0534 21.4265 11.1624 21.4265 10.0322C21.4265 8.7972 21.7159 7.80371 22.2947 7.05176C22.878 6.2998 23.6436 5.92383 24.5915 5.92383C25.4711 5.92383 26.2003 6.26107 26.779 6.93555V2.71777H28.1326V13.5117H26.779ZM26.779 7.8584C26.0818 7.24316 25.421 6.93555 24.7966 6.93555C23.5069 6.93555 22.8621 7.9222 22.8621 9.89551C22.8621 11.6318 23.4363 12.5 24.5847 12.5C25.3321 12.5 26.0636 12.0921 26.779 11.2764V7.8584Z" fill="black"/>
<path d="M35.1936 13.5117V3.39453H36.6291V13.5117H35.1936Z" fill="black"/>
<path d="M41.4787 13.6826C40.7951 13.6826 40.2619 13.4867 39.8791 13.0947C39.4962 12.7028 39.3048 12.1582 39.3048 11.4609V7.09961H38.3751V6.08789H39.3048V4.74121L40.6515 4.61133V6.08789H42.5929V7.09961H40.6515V11.2148C40.6515 12.1855 41.0708 12.6709 41.9093 12.6709C42.0871 12.6709 42.3035 12.6413 42.5587 12.582V13.5117C42.144 13.6257 41.784 13.6826 41.4787 13.6826Z" fill="black"/>
<path d="M48.3041 12.5684C47.4975 13.3112 46.7204 13.6826 45.973 13.6826C45.3578 13.6826 44.8474 13.4912 44.4418 13.1084C44.0362 12.721 43.8334 12.2334 43.8334 11.6455C43.8334 10.8343 44.1729 10.2122 44.852 9.7793C45.5355 9.3418 46.5131 9.12305 47.7846 9.12305H48.1059V8.22754C48.1059 7.36621 47.6638 6.93555 46.7797 6.93555C46.0687 6.93555 45.3008 7.1543 44.476 7.5918V6.47754C45.3829 6.1084 46.2328 5.92383 47.0258 5.92383C47.8552 5.92383 48.4659 6.11068 48.8578 6.48438C49.2543 6.85807 49.4525 7.43913 49.4525 8.22754V11.5908C49.4525 12.361 49.6895 12.7461 50.1635 12.7461C50.2227 12.7461 50.3093 12.737 50.4232 12.7188L50.5189 13.4639C50.2136 13.6097 49.8764 13.6826 49.5072 13.6826C48.8783 13.6826 48.4773 13.3112 48.3041 12.5684ZM48.1059 11.8369V9.91602L47.6547 9.90234C46.9164 9.90234 46.3194 10.0436 45.8637 10.3262C45.4079 10.6042 45.1801 10.971 45.1801 11.4268C45.1801 11.7503 45.294 12.0238 45.5219 12.2471C45.7497 12.4704 46.0277 12.582 46.3559 12.582C46.9164 12.582 47.4997 12.3337 48.1059 11.8369Z" fill="black"/>
<path d="M52.1898 13.5117V2.71777H53.5364V13.5117H52.1898Z" fill="black"/>
<path d="M56.2261 13.5117V6.08789H57.5728V13.5117H56.2261ZM56.2261 4.74121V3.39453H57.5728V4.74121H56.2261Z" fill="black"/>
<path d="M63.1609 13.6826C62.1583 13.6826 61.3266 13.3112 60.6658 12.5684C60.005 11.8255 59.6746 10.889 59.6746 9.75879C59.6746 8.55111 60.0005 7.61003 60.6522 6.93555C61.3084 6.26107 62.2221 5.92383 63.3934 5.92383C63.9721 5.92383 64.6193 6.00358 65.3348 6.16309V7.29102C64.5737 7.06771 63.9539 6.95605 63.4754 6.95605C62.7872 6.95605 62.2335 7.21582 61.8143 7.73535C61.3996 8.25033 61.1922 8.93848 61.1922 9.7998C61.1922 10.6338 61.4064 11.3083 61.8348 11.8232C62.2632 12.3382 62.8237 12.5957 63.5164 12.5957C64.1316 12.5957 64.7651 12.4385 65.4168 12.124V13.2861C64.5464 13.5505 63.7944 13.6826 63.1609 13.6826Z" fill="black"/>
</g>
<g id="ABCDEFGHIJKLM">
<path d="M12.4004 31.4287H8.24316L6.73145 34.4873H3.91895L10.6514 21.585H13.9297L15.2217 34.4873H12.6113L12.4004 31.4287ZM12.2686 29.1436L12.04 26.0674C11.9814 25.2998 11.9521 24.5586 11.9521 23.8438V23.5273C11.6943 24.2305 11.375 24.9746 10.9941 25.7598L9.3418 29.1436H12.2686Z" fill="black"/>
<path d="M23.2267 21.6377C24.5685 21.6377 25.5822 21.8779 26.2677 22.3584C26.9533 22.833 27.2961 23.5449 27.2961 24.4941C27.2961 25.373 27.0529 26.0996 26.5666 26.6738C26.0802 27.2422 25.3888 27.6201 24.4923 27.8076V27.8604C25.0783 28.0127 25.5441 28.2969 25.8898 28.7129C26.2414 29.123 26.4171 29.6504 26.4171 30.2949C26.4171 31.6367 25.9689 32.6709 25.0724 33.3975C24.1759 34.124 22.9367 34.4873 21.3546 34.4873H16.7668L19.4826 21.6377H23.2267ZM21.091 26.7266H22.4005C23.1095 26.7266 23.6398 26.5859 23.9914 26.3047C24.3488 26.0176 24.5275 25.6074 24.5275 25.0742C24.5275 24.2715 24.0294 23.8701 23.0334 23.8701H21.6974L21.091 26.7266ZM19.922 32.2373H21.5041C22.1896 32.2373 22.7257 32.0674 23.1125 31.7275C23.505 31.3877 23.7013 30.916 23.7013 30.3125C23.7013 29.3633 23.1652 28.8887 22.0929 28.8887H20.6427L19.922 32.2373Z" fill="black"/>
<path d="M35.4189 23.7031C34.6455 23.7031 33.9482 23.9404 33.3271 24.415C32.7119 24.8896 32.2168 25.5898 31.8418 26.5156C31.4668 27.4355 31.2793 28.4258 31.2793 29.4863C31.2793 30.4648 31.4785 31.1914 31.877 31.666C32.2812 32.1406 32.9229 32.3779 33.8018 32.3779C34.6572 32.3779 35.6475 32.1523 36.7725 31.7012V33.9863C35.6064 34.4375 34.4346 34.6631 33.2568 34.6631C31.7686 34.6631 30.6113 34.2266 29.7852 33.3535C28.959 32.4746 28.5459 31.2324 28.5459 29.627C28.5459 28.0918 28.8506 26.6797 29.46 25.3906C30.0693 24.0957 30.8838 23.1143 31.9033 22.4463C32.9229 21.7725 34.0947 21.4355 35.4189 21.4355C36.1514 21.4355 36.8018 21.5029 37.3701 21.6377C37.9385 21.7666 38.5479 22.0068 39.1982 22.3584L38.1611 24.5557C37.54 24.21 37.0273 23.9814 36.623 23.8701C36.2188 23.7588 35.8174 23.7031 35.4189 23.7031Z" fill="black"/>
<path d="M50.1107 26.498C50.1107 28.1387 49.8235 29.5654 49.2493 30.7783C48.6751 31.9854 47.8431 32.9053 46.7532 33.5381C45.6693 34.1709 44.389 34.4873 42.9124 34.4873H38.9485L41.6644 21.6377H45.1448C46.7269 21.6377 47.9485 22.0566 48.8099 22.8945C49.6771 23.7324 50.1107 24.9336 50.1107 26.498ZM43.0355 32.2373C43.9026 32.2373 44.6585 32.0146 45.303 31.5693C45.9476 31.124 46.4515 30.4707 46.8148 29.6094C47.178 28.7422 47.3597 27.752 47.3597 26.6387C47.3597 25.7363 47.1458 25.0508 46.7181 24.582C46.2962 24.1074 45.6868 23.8701 44.89 23.8701H43.8792L42.1038 32.2373H43.0355Z" fill="black"/>
<path d="M58.3073 34.4873H51.1266L53.8424 21.6377H61.0319L60.5573 23.8701H56.0573L55.4684 26.6914H59.6608L59.1774 28.9238H54.985L54.2819 32.2373H58.7819L58.3073 34.4873Z" fill="black"/>
<path d="M63.5613 34.4873H60.8806L63.5965 21.6377H70.7508L70.2762 23.8701H65.8113L65.117 27.1836H69.2742L68.782 29.4072H64.6248L63.5613 34.4873Z" fill="black"/>
<path d="M76.6007 27.2715H81.5489L80.1251 33.9688C79.3399 34.2383 78.6104 34.4199 77.9366 34.5137C77.2686 34.6133 76.5597 34.6631 75.8097 34.6631C74.2921 34.6631 73.1202 34.2324 72.294 33.3711C71.4679 32.5098 71.0548 31.2734 71.0548 29.6621C71.0548 28.0918 71.3683 26.6738 71.9952 25.4082C72.6222 24.1367 73.504 23.1582 74.6407 22.4727C75.7774 21.7812 77.0899 21.4355 78.5782 21.4355C79.8556 21.4355 81.0567 21.7256 82.1817 22.3057L81.171 24.5117C80.7374 24.2773 80.3038 24.0898 79.8702 23.9492C79.4366 23.8086 78.9649 23.7383 78.4552 23.7383C77.5587 23.7383 76.756 23.9814 76.047 24.4678C75.3438 24.9541 74.7901 25.6484 74.3858 26.5508C73.9874 27.4473 73.7882 28.4141 73.7882 29.4512C73.7882 30.459 73.9991 31.2002 74.421 31.6748C74.8487 32.1436 75.502 32.3779 76.381 32.3779C76.8263 32.3779 77.3243 32.3076 77.8751 32.167L78.4552 29.5391H76.1085L76.6007 27.2715Z" fill="black"/>
<path d="M92.3753 34.4873H89.6858L90.8635 28.9414H86.7239L85.5462 34.4873H82.8655L85.5813 21.6377H88.2708L87.2073 26.6738H91.3469L92.4104 21.6377H95.0911L92.3753 34.4873Z" fill="black"/>
<path d="M95.4726 34.4873L98.2148 21.6377H100.895L98.1533 34.4873H95.4726Z" fill="black"/>
<path d="M99.6174 38.2666C99.0667 38.2666 98.5188 38.1875 97.9739 38.0293V35.8057C98.4895 35.9229 98.97 35.9814 99.4153 35.9814C99.9954 35.9814 100.464 35.8027 100.822 35.4453C101.185 35.0938 101.448 34.5342 101.613 33.7666L104.188 21.6377H106.868L104.205 34.1445C103.901 35.5801 103.385 36.626 102.658 37.2822C101.938 37.9385 100.924 38.2666 99.6174 38.2666Z" fill="black"/>
<path d="M116.793 34.4873H113.822L111.968 29.2842L110.869 29.8994L109.911 34.4873H107.231L109.946 21.6377H112.636L111.3 27.8076L112.689 26.0059L116.283 21.6377H119.456L114.235 27.79L116.793 34.4873Z" fill="black"/>
<path d="M118.266 34.4873L120.982 21.6377H123.671L121.421 32.2373H125.921L125.447 34.4873H118.266Z" fill="black"/>
<path d="M134.501 31.2441L139.344 21.6377H143.062L140.346 34.4873H137.885L139.159 28.4053C139.47 26.958 139.778 25.666 140.082 24.5293H140.038L135.037 34.4873H132.568L132.031 24.5293H131.996C131.932 25.0449 131.821 25.7217 131.662 26.5596C131.504 27.3975 130.956 30.04 130.019 34.4873H127.602L130.318 21.6377H133.868L134.466 31.2441H134.501Z" fill="black"/>
</g>
<g id="NOPQRSTUVWXYZ">
<path d="M15.96 58.4873H12.9541L9.8252 48.7666H9.77246L9.7373 49.0479C9.5498 50.3135 9.35645 51.4443 9.15723 52.4404L7.88281 58.4873H5.46582L8.18164 45.6377H11.3193L14.3076 55.1035H14.3428C14.4131 54.6582 14.5273 54.0225 14.6855 53.1963C14.8438 52.3701 15.3711 49.8506 16.2676 45.6377H18.6758L15.96 58.4873Z" fill="black"/>
<path d="M31.172 50.2432C31.172 51.9014 30.882 53.3867 30.3019 54.6992C29.7218 56.0059 28.9279 56.9932 27.9201 57.6611C26.9123 58.3291 25.7521 58.6631 24.4396 58.6631C22.9396 58.6631 21.7677 58.2324 20.924 57.3711C20.0861 56.5039 19.6671 55.3027 19.6671 53.7676C19.6671 52.2148 19.9572 50.7881 20.5373 49.4873C21.1173 48.1807 21.9171 47.1787 22.9367 46.4814C23.9562 45.7842 25.1339 45.4355 26.4699 45.4355C27.964 45.4355 29.1212 45.8574 29.9416 46.7012C30.7619 47.5449 31.172 48.7256 31.172 50.2432ZM26.2502 47.7031C25.5412 47.7031 24.8908 47.9727 24.299 48.5117C23.7072 49.0449 23.2414 49.7803 22.9015 50.7178C22.5675 51.6553 22.4005 52.6719 22.4005 53.7676C22.4005 54.6289 22.5939 55.2793 22.9806 55.7188C23.3732 56.1582 23.924 56.3779 24.633 56.3779C25.3419 56.3779 25.9865 56.123 26.5666 55.6133C27.1525 55.1035 27.6095 54.3828 27.9377 53.4512C28.2658 52.5195 28.4298 51.4736 28.4298 50.3135C28.4298 49.4814 28.2394 48.8398 27.8586 48.3887C27.4777 47.9316 26.9416 47.7031 26.2502 47.7031Z" fill="black"/>
<path d="M36.3206 51.6846H36.8128C37.6448 51.6846 38.2982 51.4824 38.7728 51.0781C39.2532 50.6738 39.4935 50.1318 39.4935 49.4521C39.4935 48.3975 38.9222 47.8701 37.7796 47.8701H37.1292L36.3206 51.6846ZM42.1917 49.3818C42.1917 50.7939 41.6937 51.9043 40.6976 52.7129C39.7073 53.5156 38.3392 53.917 36.5931 53.917H35.8372L34.8792 58.4873H32.1985L34.9144 45.6377H37.8851C39.303 45.6377 40.3753 45.9512 41.1019 46.5781C41.8284 47.1992 42.1917 48.1338 42.1917 49.3818Z" fill="black"/>
<path d="M54.7619 50.2432C54.7619 52.0947 54.4015 53.7236 53.6808 55.1299C52.966 56.5303 51.9875 57.5176 50.7453 58.0918L52.9777 61.5459H49.8224L48.258 58.6631H48.0294C46.5294 58.6631 45.3576 58.2324 44.5138 57.3711C43.6759 56.5039 43.257 55.3027 43.257 53.7676C43.257 52.2148 43.547 50.7881 44.1271 49.4873C44.7072 48.1807 45.507 47.1787 46.5265 46.4814C47.5461 45.7842 48.7238 45.4355 50.0597 45.4355C51.5539 45.4355 52.7111 45.8574 53.5314 46.7012C54.3517 47.5449 54.7619 48.7256 54.7619 50.2432ZM49.84 47.7031C49.131 47.7031 48.4806 47.9727 47.8888 48.5117C47.297 49.0449 46.8312 49.7803 46.4914 50.7178C46.1574 51.6553 45.9904 52.6719 45.9904 53.7676C45.9904 54.6289 46.1837 55.2793 46.5705 55.7188C46.963 56.1582 47.5138 56.3779 48.2228 56.3779C48.9318 56.3779 49.5763 56.123 50.1564 55.6133C50.7423 55.1035 51.1994 54.3828 51.5275 53.4512C51.8556 52.5195 52.0197 51.4736 52.0197 50.3135C52.0197 49.4814 51.8293 48.8398 51.4484 48.3887C51.0675 47.9316 50.5314 47.7031 49.84 47.7031Z" fill="black"/>
<path d="M59.9808 51.3418H60.6663C61.4339 51.3418 62.0316 51.1748 62.4593 50.8408C62.887 50.5068 63.1009 49.9971 63.1009 49.3115C63.1009 48.8311 62.9603 48.4707 62.679 48.2305C62.4036 47.9902 61.9671 47.8701 61.3694 47.8701H60.7191L59.9808 51.3418ZM59.515 53.5566L58.4691 58.4873H55.7884L58.5042 45.6377H61.6595C63.0482 45.6377 64.0911 45.9365 64.7884 46.5342C65.4857 47.1318 65.8343 48.0078 65.8343 49.1621C65.8343 50.0879 65.5911 50.8848 65.1048 51.5527C64.6185 52.2148 63.9183 52.707 63.0042 53.0293L65.2982 58.4873H62.3802L60.5609 53.5566H59.515Z" fill="black"/>
<path d="M74.604 54.6904C74.604 55.915 74.1704 56.8848 73.3032 57.5996C72.436 58.3086 71.2612 58.6631 69.7788 58.6631C68.4839 58.6631 67.4409 58.3994 66.6499 57.8721V55.4639C67.7807 56.0967 68.8296 56.4131 69.7964 56.4131C70.4526 56.4131 70.9653 56.29 71.3344 56.0439C71.7036 55.792 71.8882 55.4492 71.8882 55.0156C71.8882 54.7637 71.8471 54.5439 71.7651 54.3564C71.6889 54.1631 71.5776 53.9844 71.4311 53.8203C71.2846 53.6562 70.9214 53.3574 70.3413 52.9238C69.5327 52.3438 68.9643 51.7695 68.6362 51.2012C68.3081 50.6328 68.144 50.0205 68.144 49.3643C68.144 48.6084 68.3257 47.9346 68.6889 47.3428C69.0522 46.7451 69.5678 46.2822 70.2358 45.9541C70.9096 45.6201 71.6831 45.4531 72.5561 45.4531C73.8276 45.4531 74.9907 45.7432 76.0454 46.3232L75.0874 48.3711C74.1733 47.9375 73.3296 47.7207 72.5561 47.7207C72.0698 47.7207 71.6714 47.8525 71.3608 48.1162C71.0503 48.3799 70.895 48.7285 70.895 49.1621C70.895 49.5195 70.9917 49.833 71.185 50.1025C71.3784 50.3662 71.812 50.7178 72.4858 51.1572C73.1948 51.626 73.7251 52.1445 74.0766 52.7129C74.4282 53.2754 74.604 53.9346 74.604 54.6904Z" fill="black"/>
<path d="M80.8494 58.4873H78.1687L80.4012 47.9053H77.3074L77.7908 45.6377H86.6678L86.1844 47.9053H83.0818L80.8494 58.4873Z" fill="black"/>
<path d="M97.9933 45.6377L96.2267 53.9521C95.8927 55.5107 95.254 56.6855 94.3106 57.4766C93.3673 58.2676 92.1397 58.6631 90.628 58.6631C89.3858 58.6631 88.4073 58.332 87.6925 57.6699C86.9835 57.002 86.629 56.0996 86.629 54.9629C86.629 54.541 86.6729 54.1367 86.7608 53.75L88.4835 45.6377H91.1642L89.4591 53.7148C89.3595 54.1484 89.3097 54.5146 89.3097 54.8135C89.3097 55.8564 89.8634 56.3779 90.9708 56.3779C91.6915 56.3779 92.2628 56.1553 92.6847 55.71C93.1065 55.2588 93.4112 54.5879 93.5987 53.6973L95.3038 45.6377H97.9933Z" fill="black"/>
<path d="M102.535 55.8594C102.992 54.5645 103.315 53.7354 103.502 53.3721L107.299 45.6377H110.076L103.502 58.4873H100.567L99.4504 45.6377H102.043L102.491 53.3721C102.515 53.6357 102.527 54.0254 102.527 54.541C102.515 55.1445 102.497 55.584 102.474 55.8594H102.535Z" fill="black"/>
<path d="M117.289 49.54C117.019 50.3955 116.682 51.2715 116.278 52.168L113.43 58.4873H110.46L110.064 45.6377H112.586L112.639 52.6514C112.639 52.9561 112.628 53.4629 112.604 54.1719C112.581 54.8809 112.551 55.3906 112.516 55.7012H112.569C112.698 55.3262 112.894 54.7988 113.158 54.1191C113.421 53.4336 113.597 53.0059 113.685 52.8359L116.928 45.6377H119.301L119.486 53.3105C119.486 54.166 119.46 54.9629 119.407 55.7012H119.46C119.711 54.9453 120.095 53.9229 120.611 52.6338L123.511 45.6377H126.227L120.541 58.4873H117.5L117.306 52.1504L117.289 50.9287C117.289 50.4131 117.3 49.9502 117.324 49.54H117.289Z" fill="black"/>
<path d="M134.426 58.4873H131.516L130.005 53.7148L126.524 58.4873H123.518L128.581 51.7725L126.489 45.6377H129.301L130.646 50.1904L133.837 45.6377H136.86L132.07 52.0098L134.426 58.4873Z" fill="black"/>
<path d="M140.972 50.8408L144.259 45.6377H147.265L141.833 53.5742L140.787 58.4873H138.124L139.17 53.5742L137.096 45.6377H139.838L140.972 50.8408Z" fill="black"/>
<path d="M153.705 58.4873H145.083L145.417 56.7207L152.246 47.8877H147.474L147.939 45.6377H156.166L155.806 47.4131L148.933 56.2373H154.171L153.705 58.4873Z" fill="black"/>
</g>
<g id="abcdefghijklm">
<path d="M8.56836 82.6631C7.70703 82.6631 7.02734 82.3525 6.5293 81.7314C6.03711 81.1045 5.79102 80.2285 5.79102 79.1035C5.79102 77.9434 6.00195 76.8389 6.42383 75.79C6.8457 74.7354 7.39941 73.9209 8.08496 73.3467C8.77051 72.7666 9.52344 72.4766 10.3438 72.4766C10.9121 72.4766 11.4014 72.5996 11.8115 72.8457C12.2275 73.0918 12.5498 73.4492 12.7783 73.918H12.8486L13.3496 72.6611H15.3887L13.2969 82.4873H11.2842L11.4072 81.2129H11.3721C10.5869 82.1797 9.65234 82.6631 8.56836 82.6631ZM9.60547 80.5273C10.0098 80.5273 10.3994 80.3311 10.7744 79.9385C11.1494 79.5459 11.4512 79.0156 11.6797 78.3477C11.9082 77.6738 12.0225 76.9121 12.0225 76.0625C12.0225 75.6465 11.9082 75.3037 11.6797 75.0342C11.457 74.7588 11.1611 74.6211 10.792 74.6211C10.3936 74.6211 10.0127 74.832 9.64941 75.2539C9.29199 75.6758 9.00488 76.2324 8.78809 76.9238C8.57715 77.6152 8.47168 78.3008 8.47168 78.9805C8.47168 79.4961 8.56836 79.8828 8.76172 80.1406C8.96094 80.3984 9.24219 80.5273 9.60547 80.5273Z" fill="black"/>
<path d="M22.8542 72.4766C23.7097 72.4766 24.3835 72.793 24.8757 73.4258C25.3737 74.0586 25.6227 74.9316 25.6227 76.0449C25.6227 77.1582 25.4235 78.2363 25.0251 79.2793C24.6266 80.3164 24.0788 81.1396 23.3815 81.749C22.6843 82.3584 21.9138 82.6631 21.07 82.6631C19.9333 82.6631 19.1247 82.1855 18.6442 81.2305H18.5739L18.0641 82.4873H16.0339L18.9343 68.8115H21.5798L21.0349 71.3428C20.7946 72.4092 20.5485 73.2852 20.2966 73.9707H20.3669C20.8239 73.3965 21.2399 73.0039 21.6149 72.793C21.9958 72.582 22.4089 72.4766 22.8542 72.4766ZM21.7907 74.6211C21.3923 74.6211 21.0114 74.8115 20.6481 75.1924C20.2849 75.5732 19.986 76.1035 19.7516 76.7832C19.5173 77.457 19.4001 78.1895 19.4001 78.9805C19.4001 79.4492 19.5085 79.8242 19.7253 80.1055C19.9421 80.3867 20.2409 80.5273 20.6218 80.5273C21.0143 80.5273 21.3893 80.3252 21.7468 79.9209C22.1042 79.5166 22.3913 78.9629 22.6081 78.2598C22.8307 77.5508 22.9421 76.8535 22.9421 76.168C22.9421 75.1367 22.5583 74.6211 21.7907 74.6211Z" fill="black"/>
<path d="M30.8822 82.6631C29.7045 82.6631 28.7992 82.3496 28.1664 81.7227C27.5394 81.0898 27.226 80.1992 27.226 79.0508C27.226 77.8086 27.4427 76.6807 27.8763 75.667C28.3158 74.6475 28.931 73.8623 29.722 73.3115C30.5131 72.7549 31.4154 72.4766 32.4291 72.4766C33.4955 72.4766 34.4564 72.6875 35.3119 73.1094L34.5033 75.1221C34.1869 74.9873 33.8763 74.8701 33.5717 74.7705C33.267 74.6709 32.9213 74.6211 32.5345 74.6211C32.0365 74.6211 31.5853 74.8086 31.181 75.1836C30.7826 75.5586 30.4691 76.0742 30.2406 76.7305C30.0179 77.3809 29.9066 78.0811 29.9066 78.8311C29.9066 79.3936 30.0385 79.8184 30.3021 80.1055C30.5717 80.3867 30.9437 80.5273 31.4183 80.5273C31.8636 80.5273 32.2767 80.46 32.6576 80.3252C33.0385 80.1846 33.431 80.0117 33.8353 79.8066V81.9688C32.9447 82.4316 31.9603 82.6631 30.8822 82.6631Z" fill="black"/>
<path d="M38.7027 82.6631C37.8413 82.6631 37.1616 82.3496 36.6636 81.7227C36.1714 81.0957 35.9253 80.2168 35.9253 79.0859C35.9253 77.9375 36.1333 76.8418 36.5493 75.7988C36.9712 74.75 37.5249 73.9355 38.2105 73.3555C38.896 72.7695 39.6519 72.4766 40.4781 72.4766C40.9585 72.4766 41.3716 72.585 41.7173 72.8018C42.0689 73.0186 42.3999 73.3906 42.7105 73.918H42.7808L42.7984 73.6719C42.8335 73.0273 42.9068 72.4561 43.0181 71.958L43.6861 68.8115H46.3316L43.4312 82.4873H41.4185L41.5415 81.2129H41.5064C41.0904 81.7227 40.6538 82.0918 40.1968 82.3203C39.7456 82.5488 39.2476 82.6631 38.7027 82.6631ZM39.8101 80.5273C40.1968 80.5273 40.5718 80.3281 40.9351 79.9297C41.3042 79.5254 41.6001 78.9893 41.8228 78.3213C42.0454 77.6533 42.1568 76.9355 42.1568 76.168C42.1568 75.6992 42.0454 75.3242 41.8228 75.043C41.606 74.7617 41.3072 74.6211 40.9263 74.6211C40.5279 74.6211 40.147 74.832 39.7837 75.2539C39.4263 75.6758 39.1392 76.2324 38.9224 76.9238C38.7115 77.6152 38.606 78.3008 38.606 78.9805C38.606 80.0117 39.0074 80.5273 39.8101 80.5273Z" fill="black"/>
<path d="M51.9602 74.3838C51.4445 74.3838 50.9582 74.6182 50.5012 75.0869C50.0442 75.5557 49.7453 76.127 49.6047 76.8008H50.0002C50.9084 76.8008 51.6145 76.6602 52.1184 76.3789C52.6281 76.0918 52.883 75.7051 52.883 75.2188C52.883 74.6621 52.5754 74.3838 51.9602 74.3838ZM50.5188 82.6631C49.2883 82.6631 48.3332 82.332 47.6535 81.6699C46.9738 81.0078 46.634 80.0732 46.634 78.8662C46.634 77.6533 46.8742 76.5488 47.3547 75.5527C47.841 74.5508 48.4973 73.7891 49.3235 73.2676C50.1496 72.7402 51.0842 72.4766 52.1272 72.4766C53.1643 72.4766 53.9729 72.7168 54.5529 73.1973C55.133 73.6719 55.4231 74.3252 55.4231 75.1572C55.4231 76.2529 54.9338 77.0996 53.9553 77.6973C52.9768 78.2891 51.5793 78.585 49.7629 78.585H49.3147L49.2971 78.7695V78.9453C49.2971 79.4785 49.4465 79.9004 49.7453 80.2109C50.05 80.5156 50.4836 80.668 51.0461 80.668C51.5559 80.668 52.0188 80.6123 52.4348 80.501C52.8508 80.3896 53.3547 80.1934 53.9465 79.9121V81.9072C52.9387 82.4111 51.7961 82.6631 50.5188 82.6631Z" fill="black"/>
<path d="M55.4864 86.8115C54.877 86.8115 54.3672 86.7383 53.9571 86.5918V84.4648C54.3145 84.5879 54.6514 84.6494 54.9678 84.6494C55.3253 84.6494 55.6387 84.5322 55.9083 84.2979C56.1778 84.0635 56.3682 83.6826 56.4795 83.1553L58.2725 74.6738H56.8399L57.1036 73.3994L58.712 72.6611L58.8702 71.9229C59.1104 70.8096 59.5147 69.998 60.0831 69.4883C60.6573 68.9727 61.46 68.7148 62.4913 68.7148C63.2588 68.7148 63.9473 68.8584 64.5567 69.1455L63.8536 71.1143C63.4493 70.9326 63.0596 70.8418 62.6846 70.8418C62.3506 70.8418 62.0811 70.959 61.876 71.1934C61.671 71.4277 61.5333 71.7354 61.4629 72.1162L61.3575 72.6611H63.2823L62.8516 74.6738H60.918L59.0284 83.5508C58.5772 85.7246 57.3965 86.8115 55.4864 86.8115Z" fill="black"/>
<path d="M73.0242 72.6787L72.7166 74.1377L71.1873 74.498C71.281 74.8027 71.3279 75.1484 71.3279 75.5352C71.3279 76.6777 70.9734 77.583 70.2644 78.251C69.5554 78.9131 68.5915 79.2441 67.3728 79.2441C67.0271 79.2441 66.7371 79.2148 66.5027 79.1562C66.0105 79.3145 65.7644 79.543 65.7644 79.8418C65.7644 80.041 65.8523 80.1846 66.0281 80.2725C66.2039 80.3604 66.4646 80.4277 66.8103 80.4746L68.0144 80.6328C68.9695 80.7559 69.6638 81.0049 70.0974 81.3799C70.5369 81.749 70.7566 82.2852 70.7566 82.9883C70.7566 84.2246 70.2996 85.1709 69.3855 85.8271C68.4714 86.4834 67.1648 86.8115 65.4656 86.8115C64.2468 86.8115 63.2947 86.5889 62.6091 86.1436C61.9294 85.7041 61.5896 85.0977 61.5896 84.3242C61.5896 83.7266 61.7917 83.2109 62.196 82.7773C62.5945 82.3496 63.2214 81.9951 64.0769 81.7139C63.6433 81.4385 63.4265 81.0488 63.4265 80.5449C63.4265 80.1289 63.5554 79.7715 63.8132 79.4727C64.0769 79.168 64.5076 78.8779 65.1052 78.6025C64.7244 78.3154 64.4431 77.9873 64.2615 77.6182C64.0798 77.249 63.989 76.8008 63.989 76.2734C63.989 75.1074 64.3552 74.1846 65.0876 73.5049C65.8259 72.8193 66.8279 72.4766 68.0935 72.4766C68.5798 72.4766 69.0662 72.5439 69.5525 72.6787H73.0242ZM65.8083 82.54C65.1873 82.6221 64.7156 82.7891 64.3933 83.041C64.0769 83.293 63.9187 83.6123 63.9187 83.999C63.9187 84.6729 64.4871 85.0098 65.6238 85.0098C66.5085 85.0098 67.1765 84.8779 67.6277 84.6143C68.0789 84.3506 68.3044 83.9785 68.3044 83.498C68.3044 83.2695 68.2078 83.0938 68.0144 82.9707C67.8269 82.8477 67.4255 82.7451 66.8103 82.6631L65.8083 82.54ZM67.9968 74.1553C67.5457 74.1553 67.1794 74.3809 66.8982 74.832C66.6228 75.2773 66.4851 75.8369 66.4851 76.5107C66.4851 77.208 66.7869 77.5566 67.3904 77.5566C67.8298 77.5566 68.1843 77.334 68.4539 76.8887C68.7292 76.4375 68.8669 75.8691 68.8669 75.1836C68.8669 74.498 68.5769 74.1553 67.9968 74.1553Z" fill="black"/>
<path d="M80.9291 82.4873H78.2836L79.4877 76.748C79.5815 76.3496 79.6283 76.001 79.6283 75.7021C79.6283 74.9814 79.3119 74.6211 78.6791 74.6211C78.1401 74.6211 77.6508 74.9551 77.2114 75.623C76.7719 76.291 76.4262 77.2227 76.1742 78.418L75.3129 82.4873H72.6674L75.5678 68.8115H78.2133C77.9848 69.8721 77.809 70.6865 77.686 71.2549C77.5629 71.8232 77.311 72.7285 76.9301 73.9707H77.0004C77.3637 73.5195 77.768 73.1592 78.2133 72.8896C78.6586 72.6143 79.1742 72.4766 79.7602 72.4766C80.5688 72.4766 81.1928 72.7227 81.6323 73.2148C82.0776 73.7012 82.3002 74.3984 82.3002 75.3066C82.3002 75.7344 82.2328 76.2617 82.0981 76.8887L80.9291 82.4873Z" fill="black"/>
<path d="M86.0568 70.3584C86.0568 69.8486 86.1945 69.4648 86.4698 69.207C86.7511 68.9434 87.1466 68.8115 87.6564 68.8115C88.0841 68.8115 88.4093 68.9023 88.632 69.084C88.8546 69.2656 88.9659 69.5264 88.9659 69.8662C88.9659 70.335 88.837 70.7158 88.5792 71.0088C88.3214 71.2959 87.923 71.4395 87.3839 71.4395C86.4991 71.4395 86.0568 71.0791 86.0568 70.3584ZM86.1974 82.4873H83.5519L85.6349 72.6611H88.2804L86.1974 82.4873Z" fill="black"/>
<path d="M87.7776 86.8115C87.1682 86.8115 86.6585 86.7383 86.2483 86.5918V84.4648C86.6057 84.5879 86.9397 84.6494 87.2503 84.6494C88.053 84.6494 88.5598 84.1514 88.7708 83.1553L90.9944 72.6611H93.6487L91.3196 83.5508C90.8684 85.7246 89.6878 86.8115 87.7776 86.8115ZM91.4163 70.3584C91.4163 69.8486 91.554 69.4648 91.8294 69.207C92.1106 68.9434 92.5061 68.8115 93.0159 68.8115C93.4436 68.8115 93.7688 68.9023 93.9915 69.084C94.2141 69.2656 94.3255 69.5264 94.3255 69.8662C94.3255 70.335 94.1966 70.7158 93.9387 71.0088C93.6809 71.2959 93.2825 71.4395 92.7434 71.4395C91.8587 71.4395 91.4163 71.0791 91.4163 70.3584Z" fill="black"/>
<path d="M101.997 72.6611H105.02L100.643 77.0908L103.148 82.4873H100.195L98.5864 78.7959L97.5317 79.4287L96.8813 82.4873H94.2358L97.1362 68.8115H99.7817L98.4809 74.9111C98.434 75.1514 98.3491 75.4941 98.226 75.9395L97.9799 76.8359H98.0151L101.997 72.6611Z" fill="black"/>
<path d="M107.11 82.4873H104.464L107.365 68.8115H110.01L107.11 82.4873Z" fill="black"/>
<path d="M116.899 72.4766C118.182 72.4766 118.95 73.1445 119.202 74.4805H119.255C119.653 73.8359 120.122 73.3408 120.661 72.9951C121.206 72.6494 121.786 72.4766 122.401 72.4766C123.198 72.4766 123.804 72.7256 124.22 73.2236C124.642 73.7217 124.853 74.416 124.853 75.3066C124.853 75.752 124.786 76.2793 124.651 76.8887L123.482 82.4873H120.837L122.05 76.748C122.143 76.3496 122.19 76.001 122.19 75.7021C122.19 74.9814 121.903 74.6211 121.329 74.6211C120.79 74.6211 120.301 74.9492 119.861 75.6055C119.427 76.2617 119.082 77.1934 118.824 78.4004L117.98 82.4873H115.335L116.539 76.748C116.633 76.3496 116.679 76.001 116.679 75.7021C116.679 74.9814 116.392 74.6211 115.818 74.6211C115.279 74.6211 114.79 74.9551 114.35 75.623C113.911 76.291 113.565 77.2227 113.313 78.418L112.452 82.4873H109.806L111.889 72.6611H113.911L113.726 74.4805H113.779C114.635 73.1445 115.675 72.4766 116.899 72.4766Z" fill="black"/>
</g>
<g id="nopqrstuvwxyz">
<path d="M13.5869 106.487H10.9414L12.1455 100.748C12.2393 100.35 12.2861 100.001 12.2861 99.7021C12.2861 98.9814 11.9697 98.6211 11.3369 98.6211C10.7979 98.6211 10.3086 98.9551 9.86914 99.623C9.42969 100.291 9.08398 101.223 8.83203 102.418L7.9707 106.487H5.3252L7.4082 96.6611H9.42969L9.24512 98.4805H9.29785C10.1533 97.1445 11.1934 96.4766 12.418 96.4766C13.2266 96.4766 13.8506 96.7227 14.29 97.2148C14.7354 97.7012 14.958 98.3984 14.958 99.3066C14.958 99.7344 14.8906 100.262 14.7559 100.889L13.5869 106.487Z" fill="black"/>
<path d="M22.9561 100.37C22.9561 99.2158 22.5371 98.6387 21.6992 98.6387C21.2598 98.6387 20.8643 98.8174 20.5127 99.1748C20.167 99.5322 19.8828 100.057 19.6602 100.748C19.4434 101.439 19.335 102.151 19.335 102.884C19.335 103.968 19.7744 104.51 20.6533 104.51C21.0928 104.51 21.4883 104.331 21.8398 103.974C22.1914 103.61 22.4639 103.109 22.6572 102.471C22.8564 101.826 22.9561 101.126 22.9561 100.37ZM25.6191 100.37C25.6191 101.606 25.4111 102.702 24.9951 103.657C24.585 104.612 23.9902 105.354 23.2109 105.881C22.4316 106.402 21.5059 106.663 20.4336 106.663C19.291 106.663 18.377 106.32 17.6914 105.635C17.0117 104.943 16.6719 104.026 16.6719 102.884C16.6719 101.636 16.8799 100.525 17.2959 99.5527C17.7178 98.5742 18.3242 97.8184 19.1152 97.2852C19.9062 96.7461 20.832 96.4766 21.8926 96.4766C23.041 96.4766 23.9492 96.8223 24.6172 97.5137C25.2852 98.2051 25.6191 99.1572 25.6191 100.37Z" fill="black"/>
<path d="M33.5557 96.4766C34.4111 96.4766 35.085 96.793 35.5771 97.4258C36.0752 98.0527 36.3242 98.9316 36.3242 100.062C36.3242 101.182 36.1221 102.26 35.7178 103.297C35.3193 104.328 34.7715 105.148 34.0742 105.758C33.377 106.361 32.6094 106.663 31.7715 106.663C31.2852 106.663 30.8662 106.555 30.5146 106.338C30.1631 106.121 29.8379 105.752 29.5391 105.23H29.4688C29.3984 106.162 29.2725 107.026 29.0908 107.823L28.458 110.812H25.8125L28.8184 96.6611H30.8398L30.6904 98.1553H30.7695C31.5781 97.0361 32.5068 96.4766 33.5557 96.4766ZM32.4922 98.6211C32.0938 98.6211 31.707 98.8203 31.332 99.2188C30.9629 99.6113 30.6641 100.139 30.4355 100.801C30.2129 101.457 30.1016 102.184 30.1016 102.98C30.1016 103.449 30.21 103.824 30.4268 104.105C30.6436 104.387 30.9424 104.527 31.3232 104.527C31.7158 104.527 32.0908 104.325 32.4482 103.921C32.8057 103.517 33.0928 102.963 33.3096 102.26C33.5322 101.551 33.6436 100.854 33.6436 100.168C33.6436 99.1367 33.2598 98.6211 32.4922 98.6211Z" fill="black"/>
<path d="M40.5729 106.663C40.0573 106.663 39.6003 106.525 39.2018 106.25C38.8034 105.969 38.4899 105.562 38.2614 105.028C38.0388 104.495 37.9274 103.854 37.9274 103.104C37.9274 101.943 38.1384 100.839 38.5602 99.79C38.9821 98.7354 39.5358 97.9209 40.2214 97.3467C40.9069 96.7666 41.6599 96.4766 42.4802 96.4766C42.9841 96.4766 43.4294 96.5879 43.8161 96.8105C44.2087 97.0273 44.5749 97.3965 44.9147 97.918H44.985L45.486 96.6611H47.5251L44.5192 110.812H41.8737C42.1491 109.534 42.363 108.544 42.5153 107.841C42.6677 107.144 42.9138 106.253 43.2536 105.169H43.1833C42.7614 105.72 42.3425 106.106 41.9265 106.329C41.5104 106.552 41.0593 106.663 40.5729 106.663ZM41.8386 104.527C42.2136 104.527 42.5856 104.322 42.9548 103.912C43.3298 103.502 43.6227 102.972 43.8337 102.321C44.0505 101.671 44.1589 100.953 44.1589 100.168C44.1589 99.6992 44.0475 99.3242 43.8249 99.043C43.6081 98.7617 43.3093 98.6211 42.9284 98.6211C42.53 98.6211 42.1491 98.832 41.7858 99.2539C41.4284 99.6758 41.1413 100.232 40.9245 100.924C40.7136 101.615 40.6081 102.301 40.6081 102.98C40.6081 103.496 40.7136 103.883 40.9245 104.141C41.1413 104.398 41.446 104.527 41.8386 104.527Z" fill="black"/>
<path d="M55.2455 96.4766C55.5912 96.4766 55.8724 96.5088 56.0892 96.5732L55.5092 99.1221C55.2455 99.0283 54.9525 98.9814 54.6302 98.9814C53.9506 98.9814 53.3529 99.251 52.8373 99.79C52.3275 100.323 51.9642 101.091 51.7474 102.093L50.8158 106.487H48.1703L50.2533 96.6611H52.2748L52.0902 98.4805H52.1429C53.0043 97.1445 54.0384 96.4766 55.2455 96.4766Z" fill="black"/>
<path d="M62.7056 103.244C62.7056 104.346 62.3394 105.192 61.607 105.784C60.8804 106.37 59.8667 106.663 58.5659 106.663C57.939 106.663 57.3911 106.619 56.9224 106.531C56.4595 106.443 56.0259 106.297 55.6216 106.092V103.912C56.5415 104.439 57.4761 104.703 58.4253 104.703C58.8941 104.703 59.2779 104.609 59.5767 104.422C59.8755 104.229 60.0249 103.968 60.0249 103.64C60.0249 103.388 59.9165 103.162 59.6997 102.963C59.4829 102.764 59.0992 102.512 58.5484 102.207C57.8394 101.809 57.3443 101.413 57.063 101.021C56.7818 100.622 56.6411 100.153 56.6411 99.6143C56.6411 98.6182 56.9634 97.8477 57.6079 97.3027C58.2583 96.752 59.1841 96.4766 60.3853 96.4766C61.563 96.4766 62.6265 96.7549 63.5757 97.3115L62.7056 99.2012C61.8853 98.709 61.1294 98.4629 60.438 98.4629C60.104 98.4629 59.8345 98.5391 59.6294 98.6914C59.4243 98.8379 59.3218 99.0371 59.3218 99.2891C59.3218 99.5176 59.4156 99.7197 59.6031 99.8955C59.7906 100.065 60.1421 100.282 60.6577 100.546C61.3784 100.915 61.8999 101.316 62.2222 101.75C62.5445 102.184 62.7056 102.682 62.7056 103.244Z" fill="black"/>
<path d="M68.4642 104.527C68.8451 104.527 69.3197 104.425 69.8881 104.22V106.197C69.2377 106.508 68.4584 106.663 67.5502 106.663C66.6713 106.663 66.0238 106.479 65.6078 106.109C65.1976 105.74 64.9925 105.169 64.9925 104.396C64.9925 104.103 65.0277 103.774 65.098 103.411L66.1088 98.6738H64.7728L65.0277 97.3818L66.7504 96.6436L67.9105 94.5693H69.6156L69.1849 96.6611H71.6722L71.2328 98.6738H68.7543L67.7435 103.411C67.7084 103.587 67.6908 103.742 67.6908 103.877C67.6908 104.311 67.9486 104.527 68.4642 104.527Z" fill="black"/>
<path d="M73.6358 96.6611H76.2813L75.0772 102.4C74.9835 102.799 74.9366 103.147 74.9366 103.446C74.9366 104.167 75.253 104.527 75.8858 104.527C76.4249 104.527 76.9141 104.193 77.3536 103.525C77.793 102.857 78.1387 101.926 78.3907 100.73L79.252 96.6611H81.8975L79.8145 106.487H77.793L77.9776 104.668H77.9249C77.0753 105.998 76.0352 106.663 74.8047 106.663C73.9962 106.663 73.378 106.423 72.9503 105.942C72.5225 105.456 72.3087 104.756 72.3087 103.842C72.3087 103.297 72.379 102.673 72.5196 101.97L73.6358 96.6611Z" fill="black"/>
<path d="M86.213 103.842C86.5352 102.945 86.8047 102.292 87.0215 101.882L89.6319 96.6611H92.4708L87.1622 106.487H84.3233L83.1104 96.6611H85.7032L86.0987 101.812C86.1397 102.591 86.1602 103.268 86.1602 103.842H86.213Z" fill="black"/>
<path d="M98.9695 98.9287C98.6062 99.9717 98.2458 100.906 97.8884 101.732L95.8406 106.487H92.9929L92.5447 96.6611H95.0144L95.0496 101.012L95.0144 102.479L94.9529 103.982H94.988C95.0232 103.865 95.0642 103.745 95.1111 103.622C95.158 103.493 95.3074 103.092 95.5593 102.418C95.8113 101.744 95.946 101.396 95.9636 101.372L97.9939 96.6611H100.877V101.372C100.877 102.204 100.847 103.074 100.789 103.982H100.842L101.088 103.279C101.515 102.061 101.794 101.305 101.923 101.012L103.847 96.6611H106.546L101.887 106.487H98.9871L98.9343 101.917C98.9343 101.009 98.9636 100.013 99.0222 98.9287H98.9695Z" fill="black"/>
<path d="M108.964 101.451L106.987 96.6611H109.808L110.819 99.5967L112.963 96.6611H116.075L111.97 101.592L114.115 106.487H111.25L110.151 103.481L107.831 106.487H104.754L108.964 101.451Z" fill="black"/>
<path d="M116.089 96.6611H118.682L119.174 101.214C119.256 101.929 119.297 102.787 119.297 103.789H119.35C119.467 103.49 119.596 103.142 119.736 102.743C119.877 102.339 120.067 101.888 120.308 101.39L122.593 96.6611H125.467L119.49 107.894C118.453 109.839 117.038 110.812 115.245 110.812C114.718 110.812 114.287 110.756 113.953 110.645V108.535C114.351 108.611 114.691 108.649 114.973 108.649C115.465 108.649 115.895 108.509 116.265 108.228C116.64 107.946 116.985 107.51 117.302 106.918L117.53 106.487L116.089 96.6611Z" fill="black"/>
<path d="M131.118 106.487H124.131L124.438 104.905L129.492 98.709H126.003L126.451 96.6611H133.043L132.665 98.4189L127.69 104.439H131.549L131.118 106.487Z" fill="black"/>
</g>
<g id="1234567890">
<path d="M11.0469 130.487H8.36621L9.94824 123.201C10.1533 122.311 10.376 121.47 10.6162 120.679C10.5635 120.726 10.3818 120.863 10.0713 121.092C9.7666 121.32 8.99902 121.818 7.76855 122.586L6.59961 120.696L11.5742 117.638H13.7627L11.0469 130.487Z" fill="black"/>
<path d="M22.9383 130.487H14.4832L14.8611 128.615L19.0535 124.889C20.1082 123.957 20.8348 123.213 21.2332 122.656C21.6375 122.094 21.8396 121.566 21.8396 121.074C21.8396 120.635 21.7195 120.301 21.4793 120.072C21.2391 119.838 20.9168 119.721 20.5125 119.721C20.1258 119.721 19.7273 119.82 19.3172 120.02C18.9129 120.213 18.4119 120.559 17.8143 121.057L16.531 119.272C17.3045 118.616 18.0428 118.15 18.7459 117.875C19.449 117.594 20.1814 117.453 20.9432 117.453C22.0564 117.453 22.9383 117.74 23.5887 118.314C24.2391 118.889 24.5643 119.647 24.5643 120.591C24.5643 121.218 24.4441 121.807 24.2039 122.357C23.9637 122.908 23.6033 123.459 23.1228 124.01C22.6482 124.561 21.8689 125.278 20.785 126.163L18.4207 128.114V128.202H23.4129L22.9383 130.487Z" fill="black"/>
<path d="M34.5308 120.389C34.5308 121.303 34.2525 122.07 33.6959 122.691C33.1451 123.312 32.3805 123.708 31.4019 123.878V123.913C32.1695 124.065 32.7496 124.379 33.1422 124.854C33.5406 125.322 33.7398 125.911 33.7398 126.62C33.7398 127.399 33.523 128.097 33.0894 128.712C32.6558 129.327 32.0348 129.808 31.2262 130.153C30.4176 130.493 29.4596 130.663 28.3521 130.663C26.9517 130.663 25.818 130.432 24.9508 129.969V127.622C25.443 127.915 25.9762 128.138 26.5504 128.29C27.1246 128.437 27.6842 128.51 28.2291 128.51C29.1549 128.51 29.8668 128.325 30.3648 127.956C30.8629 127.581 31.1119 127.062 31.1119 126.4C31.1119 125.393 30.356 124.889 28.8443 124.889H27.6314L28.0357 122.946H28.6773C29.6558 122.946 30.4264 122.765 30.9889 122.401C31.5514 122.038 31.8326 121.534 31.8326 120.89C31.8326 120.497 31.7066 120.192 31.4547 119.976C31.2027 119.759 30.8482 119.65 30.3912 119.65C29.606 119.65 28.7652 119.943 27.8687 120.529L26.7525 118.736C27.4791 118.262 28.1588 117.931 28.7916 117.743C29.4303 117.55 30.1539 117.453 30.9625 117.453C32.0758 117.453 32.9488 117.72 33.5816 118.253C34.2144 118.78 34.5308 119.492 34.5308 120.389Z" fill="black"/>
<path d="M43.7767 127.824H42.2826L41.7289 130.487H39.1537L39.7074 127.824H34.5219L34.9437 125.768L41.7113 117.638H44.4447L42.7308 125.715H44.225L43.7767 127.824ZM40.1556 125.715L40.6654 123.535C40.7357 123.195 40.8529 122.715 41.017 122.094C41.181 121.473 41.3041 121.06 41.3861 120.854H41.3334C41.1283 121.224 40.7416 121.754 40.1732 122.445L37.4222 125.715H40.1556Z" fill="black"/>
<path d="M50.131 122.384C51.2033 122.384 52.05 122.686 52.6711 123.289C53.2922 123.893 53.6027 124.733 53.6027 125.812C53.6027 126.79 53.3918 127.646 52.9699 128.378C52.5539 129.11 51.9445 129.676 51.1418 130.074C50.339 130.467 49.3722 130.663 48.2414 130.663C47.5558 130.663 46.9142 130.596 46.3166 130.461C45.7248 130.326 45.2502 130.156 44.8928 129.951V127.587C45.9123 128.167 46.9435 128.457 47.9865 128.457C48.8888 128.457 49.5949 128.249 50.1047 127.833C50.6144 127.417 50.8693 126.849 50.8693 126.128C50.8693 125.577 50.6994 125.164 50.3596 124.889C50.0256 124.613 49.5392 124.476 48.9006 124.476C48.3029 124.476 47.6789 124.572 47.0285 124.766L46.1144 124.08L47.9338 117.638H54.5695L54.0861 119.94H49.7883L49.0148 122.516C49.4367 122.428 49.8088 122.384 50.131 122.384Z" fill="black"/>
<path d="M55.3428 126.365C55.3428 125.182 55.5215 124.024 55.8789 122.894C56.2363 121.757 56.7256 120.775 57.3467 119.949C57.9736 119.117 58.7265 118.49 59.6054 118.068C60.4844 117.646 61.5303 117.436 62.7431 117.436C63.4756 117.436 64.1289 117.515 64.7031 117.673L64.2549 119.835C63.7627 119.688 63.2031 119.615 62.5761 119.615C61.4394 119.615 60.5195 119.932 59.8164 120.564C59.1191 121.197 58.5771 122.208 58.1904 123.597H58.2256C58.8994 122.624 59.8105 122.138 60.959 122.138C61.8789 122.138 62.5879 122.422 63.0859 122.99C63.5898 123.559 63.8418 124.358 63.8418 125.39C63.8418 126.38 63.6338 127.3 63.2178 128.149C62.8017 128.993 62.2422 129.623 61.539 130.039C60.8418 130.455 60.0303 130.663 59.1045 130.663C57.8623 130.663 56.9248 130.291 56.292 129.547C55.6592 128.803 55.3428 127.742 55.3428 126.365ZM59.2275 128.492C59.8076 128.492 60.2793 128.217 60.6426 127.666C61.0117 127.115 61.1963 126.424 61.1963 125.592C61.1963 125.176 61.0967 124.845 60.8974 124.599C60.7041 124.347 60.4053 124.221 60.001 124.221C59.6494 124.221 59.3125 124.326 58.9902 124.537C58.6738 124.742 58.4189 125.021 58.2256 125.372C58.0322 125.724 57.9355 126.192 57.9355 126.778C57.9355 127.312 58.0527 127.73 58.2871 128.035C58.5215 128.34 58.8349 128.492 59.2275 128.492Z" fill="black"/>
<path d="M65.1687 130.487L71.6463 119.923H66.1179L66.6101 117.638H75.1795L74.8191 119.343L68.2097 130.487H65.1687Z" fill="black"/>
<path d="M80.7339 117.436C81.4547 117.436 82.0845 117.559 82.6236 117.805C83.1685 118.051 83.5816 118.396 83.8629 118.842C84.15 119.287 84.2935 119.797 84.2935 120.371C84.2935 121.156 84.0562 121.842 83.5816 122.428C83.1129 123.008 82.439 123.45 81.5601 123.755C82.8316 124.581 83.4673 125.65 83.4673 126.963C83.4673 127.678 83.2798 128.319 82.9048 128.888C82.5357 129.45 82.0054 129.887 81.314 130.197C80.6285 130.508 79.8287 130.663 78.9146 130.663C77.6607 130.663 76.6734 130.37 75.9527 129.784C75.2379 129.198 74.8804 128.407 74.8804 127.411C74.8804 125.665 75.9 124.417 77.939 123.667C76.9722 122.894 76.4888 122.018 76.4888 121.039C76.4888 120.342 76.6588 119.721 76.9986 119.176C77.3384 118.625 77.8306 118.197 78.4752 117.893C79.1197 117.588 79.8726 117.436 80.7339 117.436ZM79.5123 124.836C78.8326 125.1 78.3257 125.413 77.9918 125.776C77.6578 126.14 77.4908 126.588 77.4908 127.121C77.4908 127.596 77.6373 127.974 77.9302 128.255C78.2232 128.53 78.6187 128.668 79.1168 128.668C79.6617 128.668 80.0923 128.513 80.4088 128.202C80.731 127.886 80.8922 127.479 80.8922 126.98C80.8922 126.553 80.7838 126.169 80.567 125.829C80.356 125.483 80.0045 125.152 79.5123 124.836ZM80.4966 119.413C80.0513 119.413 79.6968 119.551 79.4332 119.826C79.1695 120.096 79.0377 120.444 79.0377 120.872C79.0377 121.646 79.398 122.234 80.1187 122.639C81.2027 122.217 81.7447 121.569 81.7447 120.696C81.7447 120.298 81.6275 119.984 81.3931 119.756C81.1646 119.527 80.8658 119.413 80.4966 119.413Z" fill="black"/>
<path d="M93.9086 121.689C93.9086 123.33 93.6185 124.892 93.0384 126.374C92.4584 127.856 91.6849 128.943 90.7181 129.635C89.7513 130.32 88.5707 130.663 87.1761 130.663C86.4261 130.663 85.723 130.569 85.0668 130.382V128.132C85.7171 128.372 86.3822 128.492 87.0619 128.492C87.7709 128.492 88.3773 128.349 88.8812 128.062C89.391 127.774 89.8129 127.37 90.1468 126.849C90.4867 126.321 90.7796 125.565 91.0257 124.581H90.9906C90.3402 125.507 89.4759 125.97 88.3978 125.97C87.4427 125.97 86.7015 125.668 86.1742 125.064C85.6527 124.455 85.392 123.617 85.392 122.551C85.392 121.578 85.6058 120.685 86.0336 119.87C86.4613 119.05 87.0355 118.44 87.7562 118.042C88.4769 117.638 89.3148 117.436 90.2699 117.436C91.4593 117.436 92.3617 117.796 92.9769 118.517C93.598 119.237 93.9086 120.295 93.9086 121.689ZM89.9798 119.615C89.599 119.615 89.2591 119.738 88.9603 119.984C88.6673 120.23 88.4388 120.564 88.2748 120.986C88.1166 121.408 88.0375 121.856 88.0375 122.331C88.0375 122.841 88.1459 123.228 88.3627 123.491C88.5853 123.749 88.8959 123.878 89.2943 123.878C89.6459 123.878 89.9711 123.772 90.2699 123.562C90.5746 123.345 90.8148 123.052 90.9906 122.683C91.1722 122.308 91.263 121.842 91.263 121.285C91.263 120.793 91.1576 120.392 90.9466 120.081C90.7416 119.771 90.4193 119.615 89.9798 119.615Z" fill="black"/>
<path d="M103.981 121.593C103.981 124.347 103.486 126.547 102.495 128.193C101.511 129.84 100.128 130.663 98.3468 130.663C97.1867 130.663 96.3048 130.306 95.7013 129.591C95.1037 128.876 94.8048 127.807 94.8048 126.383C94.8048 124.643 95.0509 123.069 95.5431 121.663C96.0353 120.257 96.7033 119.202 97.547 118.499C98.3908 117.79 99.3664 117.436 100.474 117.436C102.812 117.436 103.981 118.821 103.981 121.593ZM100.236 119.633C99.7677 119.633 99.3283 119.938 98.9181 120.547C98.5138 121.156 98.1711 122.041 97.8898 123.201C97.6086 124.361 97.4679 125.439 97.4679 126.436C97.4679 127.109 97.547 127.619 97.7052 127.965C97.8693 128.305 98.1564 128.475 98.5666 128.475C99.0412 128.475 99.4806 128.164 99.8849 127.543C100.295 126.922 100.635 126.04 100.904 124.897C101.18 123.755 101.318 122.624 101.318 121.505C101.318 120.854 101.227 120.38 101.045 120.081C100.869 119.782 100.6 119.633 100.236 119.633Z" fill="black"/>
</g>
</g>
<defs>
<clipPath id="clip0">
<rect width="156" height="134.976" fill="white" transform="translate(0 0.511719)"/>
</clipPath>
</defs>
</svg>
