<svg width="164" height="136" viewBox="0 0 164 136" fill="none" xmlns="http://www.w3.org/2000/svg">
<g id="OpenSans_semibold">
<g id="SemiBold">
<path d="M3.28809 13.7646C2.60905 13.7646 1.74089 13.6165 0.683594 13.3203V11.8984C1.82292 12.4271 2.75944 12.6914 3.49316 12.6914C4.05827 12.6914 4.51172 12.5433 4.85352 12.2471C5.19987 11.9508 5.37305 11.5612 5.37305 11.0781C5.37305 10.6816 5.25911 10.3444 5.03125 10.0664C4.80794 9.78841 4.39323 9.47852 3.78711 9.13672L3.08984 8.7334C2.22852 8.24121 1.62012 7.77865 1.26465 7.3457C0.913737 6.9082 0.738281 6.40007 0.738281 5.82129C0.738281 5.04199 1.02083 4.40169 1.58594 3.90039C2.15104 3.39453 2.87109 3.1416 3.74609 3.1416C4.52539 3.1416 5.34798 3.27148 6.21387 3.53125V4.84375C5.14746 4.42448 4.35221 4.21484 3.82812 4.21484C3.33138 4.21484 2.92122 4.34701 2.59766 4.61133C2.27409 4.87565 2.1123 5.20833 2.1123 5.60938C2.1123 5.94661 2.23079 6.24512 2.46777 6.50488C2.70475 6.76465 3.1377 7.07454 3.7666 7.43457L4.49121 7.84473C5.36621 8.34147 5.97689 8.81087 6.32324 9.25293C6.6696 9.69499 6.84277 10.2259 6.84277 10.8457C6.84277 11.7253 6.51693 12.4316 5.86523 12.9648C5.2181 13.498 4.35905 13.7646 3.28809 13.7646Z" fill="black"/>
<path d="M14.3245 13.2725C13.4221 13.5459 12.6497 13.6826 12.0071 13.6826C10.9133 13.6826 10.0201 13.3203 9.32739 12.5957C8.63924 11.8665 8.29516 10.9232 8.29516 9.76562C8.29516 8.63997 8.59822 7.71712 9.20434 6.99707C9.81502 6.27702 10.5943 5.91699 11.5422 5.91699C12.44 5.91699 13.1327 6.236 13.6204 6.87402C14.1125 7.51204 14.3586 8.41895 14.3586 9.59473L14.3518 10.0117H9.66919C9.86515 11.7754 10.7288 12.6572 12.26 12.6572C12.8206 12.6572 13.5087 12.5068 14.3245 12.2061V13.2725ZM9.73071 9H13.0051C13.0051 7.61914 12.4902 6.92871 11.4602 6.92871C10.4257 6.92871 9.8492 7.61914 9.73071 9Z" fill="black"/>
<path d="M16.6792 13.5117V6.08789H18.0259V7.48242C18.6821 6.44336 19.5252 5.92383 20.5552 5.92383C21.5487 5.92383 22.2254 6.44336 22.5854 7.48242C23.2235 6.4388 24.0529 5.91699 25.0737 5.91699C25.73 5.91699 26.2381 6.11068 26.5981 6.49805C26.9582 6.88086 27.1382 7.41862 27.1382 8.11133V13.5117H25.7847V8.32324C25.7847 7.47559 25.4497 7.05176 24.7798 7.05176C24.0825 7.05176 23.3511 7.54622 22.5854 8.53516V13.5117H21.2319V8.32324C21.2319 7.47103 20.8901 7.04492 20.2065 7.04492C19.5275 7.04492 18.8006 7.54167 18.0259 8.53516V13.5117H16.6792Z" fill="black"/>
<path d="M29.739 13.5117V6.08789H31.0857V13.5117H29.739ZM29.739 4.74121V3.39453H31.0857V4.74121H29.739Z" fill="black"/>
<path d="M33.7344 13.5117V3.39453H36.3594C37.3711 3.39453 38.1458 3.58594 38.6836 3.96875C39.2259 4.35156 39.4971 4.90299 39.4971 5.62305C39.4971 6.84896 38.8044 7.72168 37.4189 8.24121C39.0732 8.74707 39.9004 9.66081 39.9004 10.9824C39.9004 11.8027 39.6269 12.4294 39.0801 12.8623C38.5332 13.2952 37.7448 13.5117 36.7148 13.5117H33.7344ZM35.1562 12.4385H35.4502C36.5029 12.4385 37.1842 12.3724 37.4941 12.2402C38.0866 11.9896 38.3828 11.5247 38.3828 10.8457C38.3828 10.2441 38.1139 9.74512 37.5762 9.34863C37.0384 8.94759 36.3662 8.74707 35.5596 8.74707H35.1562V12.4385ZM35.1562 7.83789H35.6143C36.3799 7.83789 36.9723 7.67383 37.3916 7.3457C37.8154 7.01758 38.0273 6.55501 38.0273 5.95801C38.0273 4.96452 37.2572 4.46777 35.7168 4.46777H35.1562V7.83789Z" fill="black"/>
<path d="M44.7229 13.6826C43.661 13.6826 42.8134 13.3317 42.1799 12.6299C41.5465 11.9235 41.2297 10.9801 41.2297 9.7998C41.2297 8.60579 41.5465 7.66243 42.1799 6.96973C42.8179 6.27246 43.6815 5.92383 44.7707 5.92383C45.8599 5.92383 46.7213 6.27246 47.3547 6.96973C47.9927 7.66243 48.3118 8.60124 48.3118 9.78613C48.3118 10.9984 47.9927 11.9508 47.3547 12.6436C46.7167 13.3363 45.8394 13.6826 44.7229 13.6826ZM44.7434 12.6709C46.1698 12.6709 46.883 11.7093 46.883 9.78613C46.883 7.88574 46.1789 6.93555 44.7707 6.93555C43.3671 6.93555 42.6653 7.8903 42.6653 9.7998C42.6653 11.7139 43.358 12.6709 44.7434 12.6709Z" fill="black"/>
<path d="M50.4067 13.5117V2.71777H51.7534V13.5117H50.4067Z" fill="black"/>
<path d="M59.2077 13.5117V12.1172C58.6609 13.1608 57.836 13.6826 56.7331 13.6826C55.8399 13.6826 55.1358 13.3568 54.6208 12.7051C54.1104 12.0534 53.8552 11.1624 53.8552 10.0322C53.8552 8.7972 54.1446 7.80371 54.7234 7.05176C55.3067 6.2998 56.0723 5.92383 57.0202 5.92383C57.8998 5.92383 58.629 6.26107 59.2077 6.93555V2.71777H60.5613V13.5117H59.2077ZM59.2077 7.8584C58.5105 7.24316 57.8497 6.93555 57.2253 6.93555C55.9356 6.93555 55.2908 7.9222 55.2908 9.89551C55.2908 11.6318 55.865 12.5 57.0134 12.5C57.7608 12.5 58.4923 12.0921 59.2077 11.2764V7.8584Z" fill="black"/>
</g>
<g id="ABCDEFGHIJKLM">
<path d="M14.668 34.4873L13.3848 30.9189H8.47168L7.21484 34.4873H5L9.80762 21.585H12.0928L16.9004 34.4873H14.668ZM12.8311 29.1084L11.627 25.6104C11.5391 25.376 11.416 25.0068 11.2578 24.5029C11.1055 23.999 11 23.6299 10.9414 23.3955C10.7832 24.1162 10.5518 24.9043 10.2471 25.7598L9.08691 29.1084H12.8311Z" fill="black"/>
<path d="M18.5985 21.6377H22.4129C24.1825 21.6377 25.4598 21.8955 26.245 22.4111C27.036 22.9268 27.4315 23.7412 27.4315 24.8545C27.4315 25.6045 27.2381 26.2285 26.8514 26.7266C26.4647 27.2246 25.9081 27.5381 25.1815 27.667V27.7549C26.0838 27.9248 26.7459 28.2617 27.1678 28.7656C27.5956 29.2637 27.8094 29.9404 27.8094 30.7959C27.8094 31.9502 27.4051 32.8555 26.5965 33.5117C25.7938 34.1621 24.6747 34.4873 23.2391 34.4873H18.5985V21.6377ZM20.6991 26.9463H22.7206C23.5995 26.9463 24.2411 26.8086 24.6454 26.5332C25.0497 26.252 25.2518 25.7773 25.2518 25.1094C25.2518 24.5059 25.0321 24.0693 24.5926 23.7998C24.159 23.5303 23.4676 23.3955 22.5184 23.3955H20.6991V26.9463ZM20.6991 28.6514V32.7207H22.9315C23.8104 32.7207 24.4725 32.5537 24.9178 32.2197C25.369 31.8799 25.5946 31.3467 25.5946 30.6201C25.5946 29.9521 25.3661 29.457 24.909 29.1348C24.452 28.8125 23.7577 28.6514 22.826 28.6514H20.6991Z" fill="black"/>
<path d="M35.9517 23.2549C34.7447 23.2549 33.7954 23.6826 33.104 24.5381C32.4126 25.3936 32.0669 26.5742 32.0669 28.0801C32.0669 29.6562 32.398 30.8486 33.0601 31.6572C33.7281 32.4658 34.6919 32.8701 35.9517 32.8701C36.4966 32.8701 37.024 32.8174 37.5337 32.7119C38.0435 32.6006 38.5738 32.46 39.1245 32.29V34.0918C38.1167 34.4727 36.9741 34.6631 35.6968 34.6631C33.8159 34.6631 32.3716 34.0947 31.3638 32.958C30.356 31.8154 29.8521 30.1836 29.8521 28.0625C29.8521 26.7266 30.0952 25.5576 30.5816 24.5557C31.0738 23.5537 31.7827 22.7861 32.7085 22.2529C33.6343 21.7197 34.7212 21.4531 35.9693 21.4531C37.2818 21.4531 38.4947 21.7285 39.6079 22.2793L38.8521 24.0283C38.4185 23.8232 37.9585 23.6445 37.4722 23.4922C36.9917 23.334 36.4849 23.2549 35.9517 23.2549Z" fill="black"/>
<path d="M52.3397 27.9395C52.3397 30.0605 51.7508 31.6836 50.5731 32.8086C49.3954 33.9277 47.6991 34.4873 45.4842 34.4873H41.8895V21.6377H45.8622C47.9071 21.6377 49.4979 22.1885 50.6346 23.29C51.7713 24.3916 52.3397 25.9414 52.3397 27.9395ZM50.1248 28.0098C50.1248 24.9336 48.6864 23.3955 45.8094 23.3955H43.9901V32.7207H45.4842C48.578 32.7207 50.1248 31.1504 50.1248 28.0098Z" fill="black"/>
<path d="M62.375 34.4873H55.1064V21.6377H62.375V23.4131H57.207V26.9111H62.0498V28.6689H57.207V32.7031H62.375V34.4873Z" fill="black"/>
<path d="M67.2459 34.4873H65.1629V21.6377H72.4139V23.4131H67.2459V27.4297H72.0887V29.2139H67.2459V34.4873Z" fill="black"/>
<path d="M80.0025 27.5176H84.731V33.9688C83.9576 34.2207 83.2134 34.3994 82.4986 34.5049C81.7896 34.6104 81.022 34.6631 80.1958 34.6631C78.2505 34.6631 76.7505 34.0889 75.6958 32.9404C74.6411 31.7861 74.1138 30.1602 74.1138 28.0625C74.1138 25.9941 74.7085 24.377 75.898 23.2109C77.0874 22.0391 78.7251 21.4531 80.8111 21.4531C82.1529 21.4531 83.4243 21.7109 84.6255 22.2266L83.8872 23.9756C82.8443 23.4951 81.8013 23.2549 80.7583 23.2549C79.3872 23.2549 78.3033 23.6855 77.5064 24.5469C76.7095 25.4082 76.3111 26.5859 76.3111 28.0801C76.3111 29.6504 76.6685 30.8457 77.3833 31.666C78.104 32.4805 79.1382 32.8877 80.4859 32.8877C81.1656 32.8877 81.8921 32.8027 82.6656 32.6328V29.3193H80.0025V27.5176Z" fill="black"/>
<path d="M97.9603 34.4873H95.851V28.6953H89.9271V34.4873H87.8265V21.6377H89.9271V26.8936H95.851V21.6377H97.9603V34.4873Z" fill="black"/>
<path d="M101.346 34.4873V21.6377H103.447V34.4873H101.346Z" fill="black"/>
<path d="M105.225 38.0732C104.651 38.0732 104.171 38 103.784 37.8535V36.0869C104.276 36.21 104.704 36.2715 105.067 36.2715C106.216 36.2715 106.79 35.5449 106.79 34.0918V21.6377H108.899V34.0215C108.899 35.334 108.586 36.3359 107.959 37.0273C107.338 37.7246 106.427 38.0732 105.225 38.0732Z" fill="black"/>
<path d="M122.035 34.4873H119.601L115.567 28.6689L114.327 29.6797V34.4873H112.227V21.6377H114.327V27.7725C114.902 27.0693 115.473 26.3926 116.041 25.7422L119.513 21.6377H121.904C119.659 24.2744 118.051 26.1523 117.078 27.2715L122.035 34.4873Z" fill="black"/>
<path d="M123.744 34.4873V21.6377H125.845V32.6855H131.285V34.4873H123.744Z" fill="black"/>
<path d="M139.056 34.4873L135.33 23.7559H135.26C135.359 25.3496 135.409 26.8438 135.409 28.2383V34.4873H133.502V21.6377H136.464L140.032 31.8594H140.085L143.759 21.6377H146.729V34.4873H144.708V28.1328C144.708 27.4941 144.722 26.6621 144.752 25.6367C144.787 24.6113 144.816 23.9902 144.84 23.7734H144.769L140.911 34.4873H139.056Z" fill="black"/>
</g>
<g id="NOPQRSTUVWXYZ">
<path d="M17.4014 58.4873H14.8262L8.50684 48.248H8.43652L8.48047 48.8193C8.5625 49.9092 8.60352 50.9053 8.60352 51.8076V58.4873H6.69629V45.6377H9.24512L15.5469 55.8242H15.5996C15.5879 55.6895 15.5645 55.2002 15.5293 54.3564C15.4941 53.5068 15.4766 52.8447 15.4766 52.3701V45.6377H17.4014V58.4873Z" fill="black"/>
<path d="M32.2023 52.0449C32.2023 54.1367 31.6779 55.7627 30.6291 56.9229C29.5861 58.083 28.1066 58.6631 26.1906 58.6631C24.2512 58.6631 22.76 58.0889 21.717 56.9404C20.6799 55.7861 20.1613 54.1484 20.1613 52.0273C20.1613 49.9062 20.6828 48.2773 21.7258 47.1406C22.7746 46.0039 24.2688 45.4355 26.2082 45.4355C28.1184 45.4355 29.5949 46.0127 30.6379 47.167C31.6809 48.3213 32.2023 49.9473 32.2023 52.0449ZM22.3938 52.0449C22.3938 53.627 22.7131 54.8281 23.3518 55.6484C23.9904 56.4629 24.9367 56.8701 26.1906 56.8701C27.4387 56.8701 28.3791 56.4658 29.0119 55.6572C29.6506 54.8486 29.9699 53.6445 29.9699 52.0449C29.9699 50.4688 29.6535 49.2734 29.0207 48.459C28.3938 47.6445 27.4563 47.2373 26.2082 47.2373C24.9484 47.2373 23.9963 47.6445 23.3518 48.459C22.7131 49.2734 22.3938 50.4688 22.3938 52.0449Z" fill="black"/>
<path d="M43.4701 49.5225C43.4701 50.8643 43.0307 51.8926 42.1518 52.6074C41.2729 53.3223 40.0219 53.6797 38.3988 53.6797H37.0629V58.4873H34.9623V45.6377H38.6625C40.268 45.6377 41.4692 45.9658 42.266 46.6221C43.0688 47.2783 43.4701 48.2451 43.4701 49.5225ZM37.0629 51.9131H38.1791C39.2572 51.9131 40.0483 51.7256 40.5522 51.3506C41.0561 50.9756 41.308 50.3896 41.308 49.5928C41.308 48.8545 41.0824 48.3037 40.6313 47.9404C40.1801 47.5771 39.477 47.3955 38.5219 47.3955H37.0629V51.9131Z" fill="black"/>
<path d="M57.4449 52.0449C57.4449 53.6035 57.1461 54.916 56.5485 55.9824C55.9567 57.0488 55.0924 57.7988 53.9557 58.2324L57.0318 61.5459H54.2018L51.776 58.6631H51.4332C49.4938 58.6631 48.0026 58.0889 46.9596 56.9404C45.9225 55.7861 45.4039 54.1484 45.4039 52.0273C45.4039 49.9062 45.9254 48.2773 46.9684 47.1406C48.0172 46.0039 49.5113 45.4355 51.4508 45.4355C53.361 45.4355 54.8375 46.0127 55.8805 47.167C56.9235 48.3213 57.4449 49.9473 57.4449 52.0449ZM47.6363 52.0449C47.6363 53.627 47.9557 54.8281 48.5943 55.6484C49.233 56.4629 50.1793 56.8701 51.4332 56.8701C52.6813 56.8701 53.6217 56.4658 54.2545 55.6572C54.8932 54.8486 55.2125 53.6445 55.2125 52.0449C55.2125 50.4688 54.8961 49.2734 54.2633 48.459C53.6363 47.6445 52.6988 47.2373 51.4508 47.2373C50.191 47.2373 49.2389 47.6445 48.5943 48.459C47.9557 49.2734 47.6363 50.4688 47.6363 52.0449Z" fill="black"/>
<path d="M62.3055 51.6143H63.7645C64.743 51.6143 65.452 51.4326 65.8914 51.0693C66.3309 50.7061 66.5506 50.167 66.5506 49.4521C66.5506 48.7256 66.3133 48.2041 65.8387 47.8877C65.3641 47.5713 64.6492 47.4131 63.6942 47.4131H62.3055V51.6143ZM62.3055 53.3545V58.4873H60.2049V45.6377H63.8348C65.493 45.6377 66.7205 45.9482 67.5174 46.5693C68.3143 47.1904 68.7127 48.1279 68.7127 49.3818C68.7127 50.9814 67.8807 52.1211 66.2166 52.8008L69.8465 58.4873H67.4559L64.3797 53.3545H62.3055Z" fill="black"/>
<path d="M79.128 54.998C79.128 56.1406 78.7149 57.0371 77.8887 57.6875C77.0625 58.3379 75.9229 58.6631 74.4697 58.6631C73.0166 58.6631 71.8272 58.4375 70.9014 57.9863V56C71.4873 56.2754 72.1084 56.4922 72.7647 56.6504C73.4268 56.8086 74.042 56.8877 74.6104 56.8877C75.4424 56.8877 76.0547 56.7295 76.4473 56.4131C76.8457 56.0967 77.0449 55.6719 77.0449 55.1387C77.0449 54.6582 76.8633 54.251 76.5 53.917C76.1367 53.583 75.3867 53.1875 74.25 52.7305C73.0781 52.2559 72.252 51.7139 71.7715 51.1045C71.291 50.4951 71.0508 49.7627 71.0508 48.9072C71.0508 47.835 71.4317 46.9912 72.1934 46.376C72.9551 45.7607 73.9776 45.4531 75.2608 45.4531C76.4912 45.4531 77.7158 45.7227 78.9346 46.2617L78.2666 47.9756C77.124 47.4951 76.1045 47.2549 75.208 47.2549C74.5283 47.2549 74.0127 47.4043 73.6612 47.7031C73.3096 47.9961 73.1338 48.3857 73.1338 48.8721C73.1338 49.2061 73.2041 49.4932 73.3447 49.7334C73.4854 49.9678 73.7168 50.1904 74.0391 50.4014C74.3614 50.6123 74.9414 50.8906 75.7793 51.2363C76.7227 51.6289 77.4141 51.9951 77.8535 52.335C78.293 52.6748 78.6153 53.0586 78.8203 53.4863C79.0254 53.9141 79.128 54.418 79.128 54.998Z" fill="black"/>
<path d="M86.0539 58.4873H83.9533V47.4395H80.174V45.6377H89.8332V47.4395H86.0539V58.4873Z" fill="black"/>
<path d="M101.883 45.6377V53.9521C101.883 54.9014 101.678 55.7334 101.268 56.4482C100.864 57.1572 100.275 57.7051 99.5014 58.0918C98.7338 58.4727 97.8139 58.6631 96.7416 58.6631C95.1479 58.6631 93.9086 58.2412 93.0239 57.3975C92.1391 56.5537 91.6967 55.3936 91.6967 53.917V45.6377H93.8061V53.7676C93.8061 54.8281 94.0522 55.6104 94.5444 56.1143C95.0366 56.6182 95.7924 56.8701 96.812 56.8701C98.7924 56.8701 99.7827 55.8301 99.7827 53.75V45.6377H101.883Z" fill="black"/>
<path d="M112.492 45.6377H114.672L110.172 58.4873H107.957L103.474 45.6377H105.636L108.317 53.627C108.458 54.0078 108.607 54.5 108.765 55.1035C108.923 55.7012 109.026 56.1465 109.073 56.4395C109.149 55.9941 109.266 55.4785 109.424 54.8926C109.583 54.3066 109.712 53.873 109.811 53.5918L112.492 45.6377Z" fill="black"/>
<path d="M128.224 58.4873H125.939L123.76 50.8232C123.666 50.4893 123.549 50.0088 123.408 49.3818C123.267 48.749 123.182 48.3096 123.153 48.0635C123.095 48.4385 122.998 48.9248 122.863 49.5225C122.734 50.1201 122.626 50.5654 122.538 50.8584L120.411 58.4873H118.126L116.465 52.0537L114.777 45.6377H116.922L118.759 53.126C119.046 54.3271 119.251 55.3877 119.374 56.3076C119.438 55.8096 119.535 55.2529 119.664 54.6377C119.793 54.0225 119.91 53.5244 120.015 53.1436L122.107 45.6377H124.19L126.335 53.1787C126.54 53.876 126.757 54.9189 126.985 56.3076C127.073 55.4697 127.284 54.4033 127.618 53.1084L129.446 45.6377H131.573L128.224 58.4873Z" fill="black"/>
<path d="M142.867 58.4873H140.45L137.233 53.2314L133.99 58.4873H131.74L136.003 51.8252L132.013 45.6377H134.351L137.321 50.498L140.292 45.6377H142.56L138.543 51.8604L142.867 58.4873Z" fill="black"/>
<path d="M148.229 51.5L151.27 45.6377H153.555L149.275 53.5039V58.4873H147.165V53.5742L142.903 45.6377H145.188L148.229 51.5Z" fill="black"/>
<path d="M163.329 58.4873H154.135V57.0283L160.613 47.4395H154.311V45.6377H163.153V47.1143L156.649 56.6855H163.329V58.4873Z" fill="black"/>
</g>
<g id="abcdefghijklm">
<path d="M12.5586 82.4873L12.1455 81.1338H12.0752C11.6064 81.7256 11.1348 82.1299 10.6602 82.3467C10.1855 82.5576 9.57617 82.6631 8.83203 82.6631C7.87695 82.6631 7.12988 82.4053 6.59082 81.8896C6.05762 81.374 5.79102 80.6445 5.79102 79.7012C5.79102 78.6992 6.16309 77.9434 6.90723 77.4336C7.65137 76.9238 8.78516 76.6455 10.3086 76.5986L11.9873 76.5459V76.0273C11.9873 75.4062 11.8408 74.9434 11.5479 74.6387C11.2607 74.3281 10.8125 74.1729 10.2031 74.1729C9.70508 74.1729 9.22754 74.2461 8.77051 74.3926C8.31348 74.5391 7.87402 74.7119 7.45215 74.9111L6.78418 73.4346C7.31152 73.1592 7.88867 72.9512 8.51562 72.8105C9.14258 72.6641 9.73438 72.5908 10.291 72.5908C11.5273 72.5908 12.459 72.8604 13.0859 73.3994C13.7188 73.9385 14.0352 74.7852 14.0352 75.9395V82.4873H12.5586ZM9.48242 81.0811C10.2324 81.0811 10.833 80.873 11.2842 80.457C11.7412 80.0352 11.9697 79.4463 11.9697 78.6904V77.8467L10.7217 77.8994C9.74902 77.9346 9.04004 78.0986 8.59473 78.3916C8.15527 78.6787 7.93555 79.1211 7.93555 79.7188C7.93555 80.1523 8.06445 80.4893 8.32227 80.7295C8.58008 80.9639 8.9668 81.0811 9.48242 81.0811Z" fill="black"/>
<path d="M21.8856 72.5908C23.0985 72.5908 24.0418 73.0303 24.7157 73.9092C25.3954 74.7881 25.7352 76.0215 25.7352 77.6094C25.7352 79.2031 25.3924 80.4453 24.7069 81.3359C24.0213 82.2207 23.0692 82.6631 21.8504 82.6631C20.62 82.6631 19.6649 82.2207 18.9852 81.3359H18.8446L18.4666 82.4873H16.9198V68.8115H18.9852V72.0635C18.9852 72.3037 18.9735 72.6611 18.95 73.1357C18.9266 73.6104 18.909 73.9121 18.8973 74.041H18.9852C19.6414 73.0742 20.6082 72.5908 21.8856 72.5908ZM21.3495 74.2783C20.5174 74.2783 19.9168 74.5244 19.5477 75.0166C19.1844 75.5029 18.9969 76.3203 18.9852 77.4688V77.6094C18.9852 78.793 19.1727 79.6514 19.5477 80.1846C19.9227 80.7119 20.535 80.9756 21.3846 80.9756C22.117 80.9756 22.6707 80.6855 23.0457 80.1055C23.4266 79.5254 23.617 78.6875 23.617 77.5918C23.617 75.3828 22.8612 74.2783 21.3495 74.2783Z" fill="black"/>
<path d="M32.0563 82.6631C30.5856 82.6631 29.4665 82.2354 28.6989 81.3799C27.9372 80.5186 27.5563 79.2852 27.5563 77.6797C27.5563 76.0449 27.9548 74.7881 28.7516 73.9092C29.5544 73.0303 30.7116 72.5908 32.2233 72.5908C33.2487 72.5908 34.1716 72.7812 34.9919 73.1621L34.3679 74.8232C33.4948 74.4834 32.7741 74.3135 32.2057 74.3135C30.5241 74.3135 29.6833 75.4297 29.6833 77.6621C29.6833 78.752 29.8913 79.5723 30.3073 80.123C30.7292 80.668 31.3444 80.9404 32.153 80.9404C33.0729 80.9404 33.9431 80.7119 34.7634 80.2549V82.0566C34.3942 82.2734 33.9987 82.4287 33.5768 82.5225C33.1608 82.6162 32.654 82.6631 32.0563 82.6631Z" fill="black"/>
<path d="M40.3286 82.6631C39.1158 82.6631 38.1695 82.2236 37.4898 81.3447C36.8101 80.4658 36.4702 79.2324 36.4702 77.6445C36.4702 76.0508 36.813 74.8115 37.4986 73.9268C38.19 73.0361 39.1451 72.5908 40.3638 72.5908C41.6411 72.5908 42.6138 73.0625 43.2818 74.0059H43.3872C43.2876 73.3086 43.2378 72.7578 43.2378 72.3535V68.8115H45.312V82.4873H43.6949L43.3345 81.2129H43.2378C42.5757 82.1797 41.606 82.6631 40.3286 82.6631ZM40.8824 80.9932C41.732 80.9932 42.3501 80.7559 42.7368 80.2812C43.1236 79.8008 43.3228 79.0244 43.3345 77.9521V77.6621C43.3345 76.4375 43.1353 75.5674 42.7368 75.0518C42.3384 74.5361 41.7144 74.2783 40.8648 74.2783C40.1382 74.2783 39.5786 74.5742 39.1861 75.166C38.7935 75.752 38.5972 76.5898 38.5972 77.6797C38.5972 78.7578 38.7876 79.5811 39.1685 80.1494C39.5493 80.7119 40.1206 80.9932 40.8824 80.9932Z" fill="black"/>
<path d="M52.5121 82.6631C51.0004 82.6631 49.8168 82.2236 48.9613 81.3447C48.1117 80.46 47.6869 79.2441 47.6869 77.6973C47.6869 76.1094 48.0824 74.8613 48.8734 73.9531C49.6644 73.0449 50.7513 72.5908 52.1342 72.5908C53.4174 72.5908 54.431 72.9805 55.1752 73.7598C55.9193 74.5391 56.2914 75.6113 56.2914 76.9766V78.0928H49.8138C49.8431 79.0361 50.098 79.7627 50.5785 80.2725C51.059 80.7764 51.7357 81.0283 52.6088 81.0283C53.183 81.0283 53.7162 80.9756 54.2084 80.8701C54.7064 80.7588 55.2396 80.5771 55.808 80.3252V82.0039C55.3041 82.2441 54.7943 82.4141 54.2787 82.5137C53.7631 82.6133 53.1742 82.6631 52.5121 82.6631ZM52.1342 74.1553C51.4779 74.1553 50.9506 74.3633 50.5521 74.7793C50.1595 75.1953 49.9252 75.8018 49.849 76.5986H54.2611C54.2494 75.7959 54.056 75.1895 53.681 74.7793C53.306 74.3633 52.7904 74.1553 52.1342 74.1553Z" fill="black"/>
<path d="M63.5196 74.3311H61.1465V82.4873H59.0723V74.3311H57.4727V73.3643L59.0723 72.7314V72.0986C59.0723 70.9502 59.3419 70.1006 59.8809 69.5498C60.42 68.9932 61.2432 68.7148 62.3506 68.7148C63.0772 68.7148 63.792 68.835 64.4952 69.0752L63.9503 70.6396C63.4405 70.4756 62.9542 70.3936 62.4913 70.3936C62.0225 70.3936 61.6797 70.54 61.4629 70.833C61.252 71.1201 61.1465 71.5537 61.1465 72.1338V72.7666H63.5196V74.3311Z" fill="black"/>
<path d="M73.3861 72.7666V73.9004L71.725 74.208C71.8773 74.4131 72.0033 74.665 72.1029 74.9639C72.2025 75.2627 72.2523 75.5791 72.2523 75.9131C72.2523 76.915 71.9066 77.7031 71.2152 78.2773C70.5238 78.8516 69.5717 79.1387 68.3588 79.1387C68.0482 79.1387 67.767 79.1152 67.515 79.0684C67.0697 79.3438 66.847 79.666 66.847 80.0352C66.847 80.2578 66.9496 80.4248 67.1547 80.5361C67.3656 80.6475 67.7494 80.7031 68.306 80.7031H70.0023C71.0746 80.7031 71.889 80.9316 72.4457 81.3887C73.0023 81.8457 73.2806 82.5049 73.2806 83.3662C73.2806 84.4678 72.8265 85.3174 71.9183 85.915C71.0101 86.5127 69.6976 86.8115 67.9808 86.8115C66.6566 86.8115 65.6459 86.5771 64.9486 86.1084C64.2513 85.6396 63.9027 84.9717 63.9027 84.1045C63.9027 83.5068 64.0902 83.0029 64.4652 82.5928C64.8461 82.1885 65.3763 81.9072 66.056 81.749C65.7806 81.6318 65.5521 81.4443 65.3705 81.1865C65.1947 80.9229 65.1068 80.6475 65.1068 80.3604C65.1068 79.9971 65.2093 79.6895 65.4144 79.4375C65.6195 79.1855 65.9242 78.9365 66.3285 78.6904C65.8246 78.4736 65.4144 78.1221 65.098 77.6357C64.7875 77.1436 64.6322 76.5693 64.6322 75.9131C64.6322 74.8584 64.9633 74.041 65.6254 73.4609C66.2933 72.8809 67.2425 72.5908 68.473 72.5908C68.7484 72.5908 69.0355 72.6113 69.3344 72.6523C69.639 72.6875 69.8676 72.7256 70.0199 72.7666H73.3861ZM65.7484 83.999C65.7484 84.4443 65.9476 84.7871 66.3461 85.0273C66.7504 85.2676 67.3158 85.3877 68.0424 85.3877C69.1674 85.3877 70.0052 85.2266 70.556 84.9043C71.1068 84.582 71.3822 84.1543 71.3822 83.6211C71.3822 83.1992 71.2299 82.8975 70.9252 82.7158C70.6263 82.54 70.0668 82.4521 69.2465 82.4521H67.682C67.0902 82.4521 66.6185 82.5898 66.267 82.8652C65.9213 83.1465 65.7484 83.5244 65.7484 83.999ZM66.6361 75.9131C66.6361 76.5225 66.7914 76.9912 67.1019 77.3193C67.4183 77.6475 67.8695 77.8115 68.4554 77.8115C69.6508 77.8115 70.2484 77.1729 70.2484 75.8955C70.2484 75.2627 70.099 74.7764 69.8002 74.4365C69.5072 74.0908 69.059 73.918 68.4554 73.918C67.8578 73.918 67.4037 74.0879 67.0931 74.4277C66.7884 74.7676 66.6361 75.2627 66.6361 75.9131Z" fill="black"/>
<path d="M83.752 82.4873H81.6778V76.5107C81.6778 75.7607 81.5255 75.2012 81.2208 74.832C80.9219 74.4629 80.4444 74.2783 79.7881 74.2783C78.921 74.2783 78.2823 74.5391 77.8721 75.0605C77.4678 75.5762 77.2657 76.4434 77.2657 77.6621V82.4873H75.2003V68.8115H77.2657V72.2832C77.2657 72.8398 77.2305 73.4346 77.1602 74.0674H77.2921C77.5733 73.5986 77.963 73.2354 78.461 72.9775C78.9649 72.7197 79.5508 72.5908 80.2188 72.5908C82.5743 72.5908 83.752 73.7773 83.752 76.1504V82.4873Z" fill="black"/>
<path d="M88.6879 82.4873H86.6224V72.7666H88.6879V82.4873ZM86.4994 70.1914C86.4994 69.8223 86.599 69.5381 86.7982 69.3389C87.0033 69.1396 87.2933 69.04 87.6683 69.04C88.0316 69.04 88.3129 69.1396 88.5121 69.3389C88.7172 69.5381 88.8197 69.8223 88.8197 70.1914C88.8197 70.543 88.7172 70.8213 88.5121 71.0264C88.3129 71.2256 88.0316 71.3252 87.6683 71.3252C87.2933 71.3252 87.0033 71.2256 86.7982 71.0264C86.599 70.8213 86.4994 70.543 86.4994 70.1914Z" fill="black"/>
<path d="M90.653 86.8115C90.0319 86.8115 89.5163 86.7383 89.1061 86.5918V84.957C89.5046 85.0625 89.9118 85.1152 90.3278 85.1152C91.2067 85.1152 91.6462 84.6172 91.6462 83.6211V72.7666H93.7116V83.7617C93.7116 84.7637 93.4479 85.5225 92.9206 86.0381C92.3991 86.5537 91.6432 86.8115 90.653 86.8115ZM91.5231 70.1914C91.5231 69.8223 91.6227 69.5381 91.822 69.3389C92.027 69.1396 92.3171 69.04 92.6921 69.04C93.0554 69.04 93.3366 69.1396 93.5358 69.3389C93.7409 69.5381 93.8434 69.8223 93.8434 70.1914C93.8434 70.543 93.7409 70.8213 93.5358 71.0264C93.3366 71.2256 93.0554 71.3252 92.6921 71.3252C92.3171 71.3252 92.027 71.2256 91.822 71.0264C91.6227 70.8213 91.5231 70.543 91.5231 70.1914Z" fill="black"/>
<path d="M98.665 77.3545L99.834 75.8955L102.77 72.7666H105.151L101.24 76.9414L105.397 82.4873H102.972L99.8516 78.2246L98.7178 79.1562V82.4873H96.6699V68.8115H98.7178V75.4824L98.6123 77.3545H98.665Z" fill="black"/>
<path d="M109.033 82.4873H106.967V68.8115H109.033V82.4873Z" fill="black"/>
<path d="M120.182 82.4873H118.108V76.4932C118.108 75.749 117.967 75.1953 117.686 74.832C117.405 74.4629 116.965 74.2783 116.368 74.2783C115.571 74.2783 114.985 74.5391 114.61 75.0605C114.241 75.5762 114.056 76.4375 114.056 77.6445V82.4873H111.991V72.7666H113.608L113.898 74.041H114.004C114.273 73.5781 114.663 73.2207 115.172 72.9688C115.688 72.7168 116.254 72.5908 116.869 72.5908C118.363 72.5908 119.353 73.1006 119.839 74.1201H119.98C120.267 73.6396 120.672 73.2646 121.193 72.9951C121.714 72.7256 122.312 72.5908 122.986 72.5908C124.146 72.5908 124.99 72.8838 125.517 73.4697C126.05 74.0557 126.317 74.9492 126.317 76.1504V82.4873H124.252V76.4932C124.252 75.749 124.108 75.1953 123.821 74.832C123.54 74.4629 123.1 74.2783 122.503 74.2783C121.7 74.2783 121.111 74.5303 120.736 75.0342C120.367 75.5322 120.182 76.2998 120.182 77.3369V82.4873Z" fill="black"/>
</g>
<g id="nopqrstuvwxyz">
<path d="M15.0283 106.487H12.9541V100.511C12.9541 99.7607 12.8018 99.2012 12.4971 98.832C12.1982 98.4629 11.7207 98.2783 11.0645 98.2783C10.1914 98.2783 9.55273 98.5361 9.14844 99.0518C8.74414 99.5674 8.54199 100.432 8.54199 101.645V106.487H6.47656V96.7666H8.09375L8.38379 98.041H8.48926C8.78223 97.5781 9.19824 97.2207 9.7373 96.9688C10.2764 96.7168 10.874 96.5908 11.5303 96.5908C13.8623 96.5908 15.0283 97.7773 15.0283 100.15V106.487Z" fill="black"/>
<path d="M26.5208 101.609C26.5208 103.197 26.1136 104.437 25.2991 105.327C24.4847 106.218 23.3509 106.663 21.8978 106.663C20.9896 106.663 20.1868 106.458 19.4896 106.048C18.7923 105.638 18.2562 105.049 17.8812 104.281C17.5062 103.514 17.3187 102.623 17.3187 101.609C17.3187 100.033 17.723 98.8027 18.5316 97.918C19.3401 97.0332 20.4798 96.5908 21.9505 96.5908C23.3568 96.5908 24.47 97.0449 25.2903 97.9531C26.1107 98.8555 26.5208 100.074 26.5208 101.609ZM19.4456 101.609C19.4456 103.854 20.2747 104.976 21.9329 104.976C23.5735 104.976 24.3939 103.854 24.3939 101.609C24.3939 99.3887 23.5677 98.2783 21.9153 98.2783C21.0482 98.2783 20.4183 98.5654 20.0257 99.1396C19.639 99.7139 19.4456 100.537 19.4456 101.609Z" fill="black"/>
<path d="M33.8297 106.663C32.5992 106.663 31.6442 106.221 30.9645 105.336H30.8414C30.9235 106.156 30.9645 106.654 30.9645 106.83V110.812H28.899V96.7666H30.569C30.6158 96.9482 30.7125 97.3818 30.859 98.0674H30.9645C31.609 97.083 32.5758 96.5908 33.8649 96.5908C35.0778 96.5908 36.0211 97.0303 36.6949 97.9092C37.3746 98.7881 37.7145 100.021 37.7145 101.609C37.7145 103.197 37.3688 104.437 36.6774 105.327C35.9918 106.218 35.0426 106.663 33.8297 106.663ZM33.3287 98.2783C32.5084 98.2783 31.9078 98.5186 31.527 98.999C31.152 99.4795 30.9645 100.247 30.9645 101.302V101.609C30.9645 102.793 31.152 103.651 31.527 104.185C31.902 104.712 32.5143 104.976 33.3639 104.976C34.0787 104.976 34.6295 104.683 35.0162 104.097C35.403 103.511 35.5963 102.676 35.5963 101.592C35.5963 100.502 35.403 99.6787 35.0162 99.1221C34.6354 98.5596 34.0729 98.2783 33.3287 98.2783Z" fill="black"/>
<path d="M43.9599 105.011C44.8271 105.011 45.4482 104.762 45.8232 104.264C46.204 103.76 46.3945 103.001 46.3945 101.987V101.662C46.3945 100.461 46.1982 99.5967 45.8056 99.0693C45.4189 98.542 44.7919 98.2783 43.9247 98.2783C43.1865 98.2783 42.624 98.5713 42.2372 99.1572C41.8505 99.7432 41.6572 100.584 41.6572 101.68C41.6572 103.9 42.4247 105.011 43.9599 105.011ZM43.371 106.663C42.1699 106.663 41.2294 106.224 40.5497 105.345C39.8701 104.46 39.5302 103.227 39.5302 101.645C39.5302 100.062 39.8759 98.8262 40.5673 97.9355C41.2587 97.0391 42.2109 96.5908 43.4238 96.5908C44.0331 96.5908 44.5781 96.7051 45.0585 96.9336C45.5449 97.1562 45.9785 97.5254 46.3593 98.041H46.4296L46.6581 96.7666H48.372V110.812H46.2978V106.689C46.2978 106.432 46.3095 106.159 46.333 105.872C46.3564 105.585 46.3769 105.365 46.3945 105.213H46.2802C45.6708 106.18 44.7011 106.663 43.371 106.663Z" fill="black"/>
<path d="M56.2522 96.5908C56.6682 96.5908 57.011 96.6201 57.2805 96.6787L57.0784 98.6035C56.7854 98.5332 56.4807 98.498 56.1643 98.498C55.3381 98.498 54.6672 98.7676 54.1516 99.3066C53.6418 99.8457 53.387 100.546 53.387 101.407V106.487H51.3215V96.7666H52.9387L53.2112 98.4805H53.3167C53.6389 97.9004 54.0579 97.4404 54.5735 97.1006C55.095 96.7607 55.6545 96.5908 56.2522 96.5908Z" fill="black"/>
<path d="M65.6249 103.719C65.6249 104.668 65.2792 105.397 64.5878 105.907C63.8964 106.411 62.9062 106.663 61.6171 106.663C60.3222 106.663 59.2822 106.467 58.497 106.074V104.29C59.6396 104.817 60.7031 105.081 61.6874 105.081C62.9589 105.081 63.5947 104.697 63.5947 103.93C63.5947 103.684 63.5244 103.479 63.3837 103.314C63.2431 103.15 63.0117 102.98 62.6894 102.805C62.3671 102.629 61.9189 102.43 61.3447 102.207C60.2255 101.773 59.4667 101.34 59.0683 100.906C58.6757 100.473 58.4794 99.9102 58.4794 99.2188C58.4794 98.3867 58.8134 97.7422 59.4814 97.2852C60.1552 96.8223 61.0693 96.5908 62.2236 96.5908C63.3662 96.5908 64.4472 96.8223 65.4667 97.2852L64.7988 98.8408C63.7499 98.4072 62.8681 98.1904 62.1533 98.1904C61.0634 98.1904 60.5185 98.501 60.5185 99.1221C60.5185 99.4268 60.6591 99.6846 60.9404 99.8955C61.2275 100.106 61.8486 100.396 62.8037 100.766C63.6064 101.076 64.1894 101.36 64.5527 101.618C64.916 101.876 65.1855 102.175 65.3613 102.515C65.5371 102.849 65.6249 103.25 65.6249 103.719Z" fill="black"/>
<path d="M71.4836 104.993C71.9875 104.993 72.4915 104.914 72.9954 104.756V106.312C72.7668 106.411 72.4709 106.493 72.1077 106.558C71.7502 106.628 71.3782 106.663 70.9915 106.663C69.0344 106.663 68.0559 105.632 68.0559 103.569V98.3311H66.7288V97.417L68.1526 96.6611L68.8557 94.6045H70.1301V96.7666H72.8987V98.3311H70.1301V103.534C70.1301 104.032 70.2532 104.401 70.4993 104.642C70.7512 104.876 71.0793 104.993 71.4836 104.993Z" fill="black"/>
<path d="M81.8038 106.487L81.5138 105.213H81.4083C81.1212 105.664 80.711 106.019 80.1778 106.276C79.6505 106.534 79.047 106.663 78.3673 106.663C77.1895 106.663 76.3106 106.37 75.7306 105.784C75.1505 105.198 74.8604 104.311 74.8604 103.121V96.7666H76.9435V102.761C76.9435 103.505 77.0958 104.064 77.4005 104.439C77.7052 104.809 78.1827 104.993 78.8331 104.993C79.7003 104.993 80.336 104.735 80.7403 104.22C81.1505 103.698 81.3556 102.828 81.3556 101.609V96.7666H83.4298V106.487H81.8038Z" fill="black"/>
<path d="M88.5854 106.487L84.894 96.7666H87.0736L89.0512 102.418C89.391 103.367 89.5961 104.135 89.6664 104.721H89.7367C89.7895 104.299 89.9945 103.531 90.352 102.418L92.3295 96.7666H94.5268L90.8178 106.487H88.5854Z" fill="black"/>
<path d="M103.979 106.487L102.722 101.952C102.569 101.472 102.294 100.355 101.896 98.6035H101.816C101.477 100.186 101.207 101.308 101.008 101.97L99.7159 106.487H97.4308L94.7061 96.7666H96.8155L98.0548 101.557C98.336 102.74 98.5352 103.754 98.6524 104.598H98.7052C98.7638 104.17 98.8517 103.681 98.9688 103.13C99.0919 102.573 99.1974 102.157 99.2852 101.882L100.762 96.7666H103.029L104.462 101.882C104.55 102.169 104.658 102.608 104.787 103.2C104.922 103.792 105.001 104.252 105.025 104.58H105.095C105.183 103.859 105.388 102.852 105.71 101.557L106.967 96.7666H109.041L106.299 106.487H103.979Z" fill="black"/>
<path d="M112.88 101.521L109.619 96.7666H111.975L114.19 100.168L116.422 96.7666H118.76L115.49 101.521L118.927 106.487H116.589L114.19 102.849L111.799 106.487H109.461L112.88 101.521Z" fill="black"/>
<path d="M119.152 96.7666H121.402L123.379 102.277C123.678 103.062 123.878 103.801 123.977 104.492H124.047C124.1 104.17 124.197 103.78 124.337 103.323C124.478 102.86 125.222 100.675 126.57 96.7666H128.802L124.645 107.779C123.889 109.801 122.629 110.812 120.866 110.812C120.409 110.812 119.963 110.762 119.53 110.662V109.027C119.84 109.098 120.195 109.133 120.593 109.133C121.589 109.133 122.29 108.556 122.694 107.401L123.054 106.487L119.152 96.7666Z" fill="black"/>
<path d="M136.776 106.487H129.402V105.213L134.315 98.3486H129.701V96.7666H136.635V98.208L131.828 104.905H136.776V106.487Z" fill="black"/>
</g>
<g id="1234567890">
<path d="M11.8555 130.487H9.79004V122.19C9.79004 121.2 9.81348 120.415 9.86035 119.835C9.72559 119.976 9.55859 120.131 9.35938 120.301C9.16602 120.471 8.50977 121.01 7.39062 121.918L6.35352 120.608L10.1328 117.638H11.8555V130.487Z" fill="black"/>
<path d="M24.784 130.487H16.074V128.923L19.3875 125.592C20.366 124.59 21.0135 123.881 21.3299 123.465C21.6521 123.043 21.8865 122.647 22.033 122.278C22.1795 121.909 22.2527 121.514 22.2527 121.092C22.2527 120.512 22.0769 120.055 21.7254 119.721C21.3797 119.387 20.8992 119.22 20.284 119.22C19.7918 119.22 19.3143 119.311 18.8514 119.492C18.3943 119.674 17.8641 120.002 17.2605 120.477L16.1443 119.114C16.8592 118.511 17.5535 118.083 18.2273 117.831C18.9012 117.579 19.6189 117.453 20.3807 117.453C21.576 117.453 22.534 117.767 23.2547 118.394C23.9754 119.015 24.3357 119.853 24.3357 120.907C24.3357 121.487 24.2303 122.038 24.0193 122.56C23.8143 123.081 23.4949 123.62 23.0613 124.177C22.6336 124.728 21.9187 125.475 20.9168 126.418L18.6844 128.58V128.668H24.784V130.487Z" fill="black"/>
<path d="M34.5836 120.591C34.5836 121.405 34.3463 122.085 33.8717 122.63C33.3971 123.169 32.7291 123.532 31.8678 123.72V123.79C32.899 123.919 33.6725 124.241 34.1881 124.757C34.7037 125.267 34.9615 125.946 34.9615 126.796C34.9615 128.032 34.525 128.987 33.6519 129.661C32.7789 130.329 31.5367 130.663 29.9254 130.663C28.5016 130.663 27.3004 130.432 26.3219 129.969V128.132C26.8668 128.401 27.4439 128.609 28.0533 128.756C28.6627 128.902 29.2486 128.976 29.8111 128.976C30.8072 128.976 31.5514 128.791 32.0435 128.422C32.5357 128.053 32.7818 127.481 32.7818 126.708C32.7818 126.022 32.5094 125.519 31.9644 125.196C31.4195 124.874 30.5641 124.713 29.398 124.713H28.2818V123.034H29.4156C31.4664 123.034 32.4918 122.325 32.4918 120.907C32.4918 120.356 32.3131 119.932 31.9557 119.633C31.5982 119.334 31.0709 119.185 30.3736 119.185C29.8873 119.185 29.4185 119.255 28.9674 119.396C28.5162 119.53 27.983 119.797 27.3678 120.195L26.357 118.754C27.5348 117.887 28.9029 117.453 30.4615 117.453C31.7564 117.453 32.7672 117.731 33.4937 118.288C34.2203 118.845 34.5836 119.612 34.5836 120.591Z" fill="black"/>
<path d="M45.807 127.684H44.0756V130.487H42.0629V127.684H36.1918V126.093L42.0629 117.603H44.0756V125.97H45.807V127.684ZM42.0629 125.97V122.744C42.0629 121.596 42.0922 120.655 42.1508 119.923H42.0805C41.9164 120.31 41.6586 120.778 41.307 121.329L38.1166 125.97H42.0629Z" fill="black"/>
<path d="M51.2824 122.463C52.5773 122.463 53.6027 122.806 54.3586 123.491C55.1144 124.177 55.4924 125.111 55.4924 126.295C55.4924 127.666 55.0617 128.738 54.2004 129.512C53.3449 130.279 52.1262 130.663 50.5441 130.663C49.1086 130.663 47.9806 130.432 47.1603 129.969V128.097C47.6349 128.366 48.1799 128.574 48.7951 128.721C49.4103 128.867 49.9816 128.94 50.509 128.94C51.4406 128.94 52.1496 128.732 52.6359 128.316C53.1222 127.9 53.3654 127.291 53.3654 126.488C53.3654 124.953 52.3869 124.186 50.4299 124.186C50.1545 124.186 49.8146 124.215 49.4103 124.273C49.006 124.326 48.6515 124.388 48.3469 124.458L47.424 123.913L47.9162 117.638H54.5959V119.475H49.7355L49.4455 122.656C49.6506 122.621 49.8996 122.58 50.1926 122.533C50.4914 122.486 50.8547 122.463 51.2824 122.463Z" fill="black"/>
<path d="M57.2412 125.012C57.2412 119.984 59.289 117.471 63.3847 117.471C64.0293 117.471 64.5742 117.521 65.0195 117.62V119.343C64.5742 119.214 64.0586 119.149 63.4726 119.149C62.0957 119.149 61.0615 119.519 60.3701 120.257C59.6787 120.995 59.3037 122.179 59.2451 123.808H59.3506C59.626 123.333 60.0127 122.967 60.5107 122.709C61.0088 122.445 61.5947 122.313 62.2685 122.313C63.4345 122.313 64.3428 122.671 64.9931 123.386C65.6435 124.101 65.9687 125.07 65.9687 126.295C65.9687 127.643 65.5908 128.709 64.8349 129.494C64.0849 130.273 63.0595 130.663 61.7588 130.663C60.8388 130.663 60.039 130.443 59.3594 130.004C58.6797 129.559 58.1553 128.914 57.7861 128.07C57.4228 127.221 57.2412 126.201 57.2412 125.012ZM61.7236 128.958C62.4326 128.958 62.9775 128.729 63.3584 128.272C63.7451 127.815 63.9385 127.162 63.9385 126.312C63.9385 125.574 63.7568 124.994 63.3935 124.572C63.0361 124.15 62.497 123.939 61.7763 123.939C61.331 123.939 60.9209 124.036 60.5459 124.229C60.1709 124.417 59.875 124.678 59.6582 125.012C59.4414 125.34 59.333 125.677 59.333 126.022C59.333 126.849 59.5556 127.546 60.001 128.114C60.4521 128.677 61.0263 128.958 61.7236 128.958Z" fill="black"/>
<path d="M68.948 130.487L74.0281 119.475H67.3484V117.655H76.2341V119.097L71.1804 130.487H68.948Z" fill="black"/>
<path d="M82.1138 117.471C83.3326 117.471 84.2964 117.752 85.0054 118.314C85.7144 118.871 86.0689 119.618 86.0689 120.556C86.0689 121.874 85.2779 122.923 83.6959 123.702C84.7037 124.206 85.4185 124.736 85.8404 125.293C86.2681 125.85 86.482 126.471 86.482 127.156C86.482 128.217 86.0923 129.066 85.313 129.705C84.5338 130.344 83.4791 130.663 82.149 130.663C80.7545 130.663 79.6734 130.364 78.9058 129.767C78.1382 129.169 77.7545 128.322 77.7545 127.227C77.7545 126.512 77.9537 125.87 78.3521 125.302C78.7564 124.728 79.4156 124.218 80.3297 123.772C79.5445 123.304 78.9849 122.809 78.6509 122.287C78.317 121.766 78.15 121.18 78.15 120.529C78.15 119.598 78.5162 118.856 79.2486 118.306C79.981 117.749 80.9361 117.471 82.1138 117.471ZM79.732 127.156C79.732 127.766 79.9459 128.24 80.3736 128.58C80.8013 128.914 81.3814 129.081 82.1138 129.081C82.8697 129.081 83.4556 128.908 83.8716 128.562C84.2935 128.211 84.5045 127.736 84.5045 127.139C84.5045 126.664 84.3111 126.23 83.9244 125.838C83.5377 125.445 82.9517 125.082 82.1666 124.748L81.9117 124.634C81.1382 124.974 80.5816 125.349 80.2418 125.759C79.9019 126.163 79.732 126.629 79.732 127.156ZM82.0963 119.062C81.5103 119.062 81.0386 119.208 80.6812 119.501C80.3238 119.788 80.1451 120.181 80.1451 120.679C80.1451 120.983 80.2095 121.256 80.3384 121.496C80.4673 121.736 80.6548 121.956 80.9009 122.155C81.147 122.349 81.563 122.583 82.149 122.858C82.8521 122.548 83.3472 122.223 83.6343 121.883C83.9273 121.537 84.0738 121.136 84.0738 120.679C84.0738 120.181 83.8922 119.788 83.5289 119.501C83.1714 119.208 82.6939 119.062 82.0963 119.062Z" fill="black"/>
<path d="M96.7474 123.122C96.7474 125.653 96.2377 127.543 95.2181 128.791C94.1986 130.039 92.6634 130.663 90.6127 130.663C89.8334 130.663 89.2738 130.616 88.9339 130.522V128.791C89.4554 128.938 89.9798 129.011 90.5072 129.011C91.9017 129.011 92.9418 128.636 93.6273 127.886C94.3129 127.136 94.6879 125.958 94.7523 124.353H94.6468C94.3011 124.88 93.8822 125.261 93.39 125.495C92.9037 125.729 92.3324 125.847 91.6761 125.847C90.5394 125.847 89.6459 125.492 88.9955 124.783C88.3451 124.074 88.0199 123.102 88.0199 121.865C88.0199 120.523 88.3949 119.457 89.1449 118.666C89.9007 117.869 90.9291 117.471 92.2298 117.471C93.1439 117.471 93.9408 117.693 94.6205 118.139C95.3002 118.584 95.8246 119.231 96.1937 120.081C96.5629 120.925 96.7474 121.938 96.7474 123.122ZM92.265 119.185C91.5502 119.185 91.0023 119.419 90.6214 119.888C90.2406 120.351 90.0502 121.004 90.0502 121.848C90.0502 122.58 90.2259 123.157 90.5775 123.579C90.9349 123.995 91.474 124.203 92.1947 124.203C92.892 124.203 93.4779 123.995 93.9525 123.579C94.4271 123.163 94.6644 122.677 94.6644 122.12C94.6644 121.599 94.5619 121.112 94.3568 120.661C94.1576 120.204 93.8763 119.844 93.513 119.58C93.1498 119.316 92.7337 119.185 92.265 119.185Z" fill="black"/>
<path d="M107.048 124.062C107.048 126.295 106.688 127.953 105.967 129.037C105.252 130.121 104.156 130.663 102.68 130.663C101.25 130.663 100.166 130.104 99.4279 128.984C98.6896 127.865 98.3205 126.225 98.3205 124.062C98.3205 121.795 98.6779 120.125 99.3927 119.053C100.113 117.975 101.209 117.436 102.68 117.436C104.115 117.436 105.202 117.998 105.941 119.123C106.679 120.248 107.048 121.895 107.048 124.062ZM100.412 124.062C100.412 125.814 100.591 127.065 100.948 127.815C101.312 128.565 101.889 128.94 102.68 128.94C103.471 128.94 104.048 128.56 104.411 127.798C104.78 127.036 104.965 125.791 104.965 124.062C104.965 122.34 104.78 121.095 104.411 120.327C104.048 119.554 103.471 119.167 102.68 119.167C101.889 119.167 101.312 119.545 100.948 120.301C100.591 121.057 100.412 122.311 100.412 124.062Z" fill="black"/>
</g>
</g>
</svg>
