<svg width="159" height="122" viewBox="0 0 159 122" fill="none" xmlns="http://www.w3.org/2000/svg">
<g id="Roboto_regular">
<g id="Regular">
<path d="M1.30566 13.5117V3.39453H4.36816C5.33887 3.39453 6.08171 3.60872 6.59668 4.03711C7.11621 4.46549 7.37598 5.08757 7.37598 5.90332C7.37598 7.25228 6.69466 8.20931 5.33203 8.77441L8.70898 13.5117H6.94531L4.06738 9.23242H2.72754V13.5117H1.30566ZM2.72754 8.15918H3.19238C4.99707 8.15918 5.89941 7.45052 5.89941 6.0332C5.89941 4.98958 5.1429 4.46777 3.62988 4.46777H2.72754V8.15918Z" fill="black"/>
<path d="M15.6224 13.2725C14.72 13.5459 13.9476 13.6826 13.305 13.6826C12.2112 13.6826 11.318 13.3203 10.6253 12.5957C9.93714 11.8665 9.59306 10.9232 9.59306 9.76562C9.59306 8.63997 9.89612 7.71712 10.5022 6.99707C11.1129 6.27702 11.8922 5.91699 12.8401 5.91699C13.7379 5.91699 14.4306 6.236 14.9183 6.87402C15.4104 7.51204 15.6565 8.41895 15.6565 9.59473L15.6497 10.0117H10.9671C11.1631 11.7754 12.0267 12.6572 13.5579 12.6572C14.1185 12.6572 14.8066 12.5068 15.6224 12.2061V13.2725ZM11.0286 9H14.303C14.303 7.61914 13.7881 6.92871 12.7581 6.92871C11.7236 6.92871 11.1471 7.61914 11.0286 9Z" fill="black"/>
<path d="M18.1998 15.9795L18.3571 14.8105C19.1364 15.1797 19.9043 15.3643 20.6608 15.3643C22.1784 15.3643 22.9371 14.5599 22.9371 12.9512V11.7822C22.4404 12.8213 21.6246 13.3408 20.4899 13.3408C19.6012 13.3408 18.8948 13.0173 18.3707 12.3701C17.8466 11.723 17.5846 10.8503 17.5846 9.75195C17.5846 8.62174 17.8831 7.70117 18.4801 6.99023C19.0771 6.2793 19.8496 5.92383 20.7975 5.92383C21.6269 5.92383 22.3401 6.26107 22.9371 6.93555V6.08789H24.2907V11.4883C24.2907 12.6504 24.2291 13.5094 24.1061 14.0654C23.9876 14.626 23.762 15.084 23.4293 15.4395C22.8414 16.0638 21.9277 16.376 20.6881 16.376C19.8222 16.376 18.9928 16.2438 18.1998 15.9795ZM22.9371 10.9414V7.8584C22.3447 7.24316 21.6998 6.93555 21.0026 6.93555C20.3828 6.93555 19.8974 7.18392 19.5465 7.68066C19.1956 8.17741 19.0202 8.85872 19.0202 9.72461C19.0202 11.3516 19.5921 12.165 20.736 12.165C21.5153 12.165 22.249 11.7572 22.9371 10.9414Z" fill="black"/>
<path d="M31.7353 13.5117V12.1172C31.0198 13.1608 30.1517 13.6826 29.1308 13.6826C28.4837 13.6826 27.9687 13.4798 27.5859 13.0742C27.2031 12.6641 27.0117 12.1126 27.0117 11.4199V6.08789H28.3584V10.9824C28.3584 11.5384 28.4381 11.9349 28.5976 12.1719C28.7617 12.4043 29.0329 12.5205 29.4111 12.5205C30.2314 12.5205 31.0062 11.9805 31.7353 10.9004V6.08789H33.082V13.5117H31.7353Z" fill="black"/>
<path d="M35.9739 13.5117V2.71777H37.3206V13.5117H35.9739Z" fill="black"/>
<path d="M44.0198 12.5684C43.2132 13.3112 42.4362 13.6826 41.6888 13.6826C41.0735 13.6826 40.5631 13.4912 40.1575 13.1084C39.7519 12.721 39.5491 12.2334 39.5491 11.6455C39.5491 10.8343 39.8887 10.2122 40.5677 9.7793C41.2513 9.3418 42.2288 9.12305 43.5003 9.12305H43.8216V8.22754C43.8216 7.36621 43.3795 6.93555 42.4954 6.93555C41.7845 6.93555 41.0166 7.1543 40.1917 7.5918V6.47754C41.0986 6.1084 41.9485 5.92383 42.7415 5.92383C43.5709 5.92383 44.1816 6.11068 44.5735 6.48438C44.97 6.85807 45.1683 7.43913 45.1683 8.22754V11.5908C45.1683 12.361 45.4053 12.7461 45.8792 12.7461C45.9385 12.7461 46.025 12.737 46.139 12.7188L46.2347 13.4639C45.9293 13.6097 45.5921 13.6826 45.223 13.6826C44.5941 13.6826 44.193 13.3112 44.0198 12.5684ZM43.8216 11.8369V9.91602L43.3704 9.90234C42.6321 9.90234 42.0351 10.0436 41.5794 10.3262C41.1237 10.6042 40.8958 10.971 40.8958 11.4268C40.8958 11.7503 41.0097 12.0238 41.2376 12.2471C41.4655 12.4704 41.7435 12.582 42.0716 12.582C42.6321 12.582 43.2155 12.3337 43.8216 11.8369Z" fill="black"/>
<path d="M48.1009 13.5117V6.08789H49.4476V7.48242C49.9808 6.44336 50.7555 5.92383 51.7718 5.92383C51.9085 5.92383 52.0521 5.93522 52.2025 5.95801V7.21582C51.97 7.13835 51.765 7.09961 51.5872 7.09961C50.735 7.09961 50.0218 7.60547 49.4476 8.61719V13.5117H48.1009Z" fill="black"/>
</g>
<g id="ABCDEFGHIJKLM">
<path d="M13.5518 30.5664H8.19043L6.98633 33.9062H5.24609L10.1328 21.1094H11.6094L16.5049 33.9062H14.7734L13.5518 30.5664ZM8.7002 29.1777H13.0508L10.8711 23.1924L8.7002 29.1777Z" fill="black"/>
<path d="M18.2329 33.9062V21.1094H22.4165C23.8052 21.1094 24.8482 21.3965 25.5454 21.9707C26.2486 22.5449 26.6001 23.3945 26.6001 24.5195C26.6001 25.1172 26.4302 25.6475 26.0904 26.1104C25.7505 26.5674 25.2876 26.9219 24.7017 27.1738C25.3931 27.3672 25.938 27.7363 26.3365 28.2812C26.7408 28.8203 26.9429 29.4648 26.9429 30.2148C26.9429 31.3633 26.5708 32.2656 25.8267 32.9219C25.0825 33.5781 24.0308 33.9062 22.6714 33.9062H18.2329ZM19.9204 27.9209V32.5264H22.7066C23.4917 32.5264 24.1099 32.3242 24.5611 31.9199C25.0181 31.5098 25.2466 30.9473 25.2466 30.2324C25.2466 28.6914 24.4087 27.9209 22.7329 27.9209H19.9204ZM19.9204 26.5674H22.4693C23.2075 26.5674 23.7964 26.3828 24.2359 26.0137C24.6812 25.6445 24.9038 25.1436 24.9038 24.5107C24.9038 23.8076 24.6988 23.2979 24.2886 22.9814C23.8784 22.6592 23.2544 22.498 22.4165 22.498H19.9204V26.5674Z" fill="black"/>
<path d="M38.8537 29.8457C38.6955 31.1992 38.1945 32.2451 37.3507 32.9834C36.5128 33.7158 35.3966 34.082 34.0021 34.082C32.4904 34.082 31.2775 33.54 30.3634 32.4561C29.4552 31.3721 29.0011 29.9219 29.0011 28.1055V26.875C29.0011 25.6855 29.2121 24.6396 29.6339 23.7373C30.0617 22.835 30.6652 22.1436 31.4445 21.6631C32.2238 21.1768 33.1261 20.9336 34.1515 20.9336C35.5109 20.9336 36.6007 21.3145 37.4211 22.0762C38.2414 22.832 38.7189 23.8809 38.8537 25.2227H37.1574C37.0109 24.2031 36.6916 23.4648 36.1994 23.0078C35.713 22.5508 35.0304 22.3223 34.1515 22.3223C33.0734 22.3223 32.2267 22.7207 31.6115 23.5176C31.0021 24.3145 30.6974 25.4482 30.6974 26.9189V28.1582C30.6974 29.5469 30.9875 30.6514 31.5675 31.4717C32.1476 32.292 32.9591 32.7021 34.0021 32.7021C34.9396 32.7021 35.6574 32.4912 36.1554 32.0693C36.6593 31.6416 36.9933 30.9004 37.1574 29.8457H38.8537Z" fill="black"/>
<path d="M41.1634 33.9062V21.1094H44.7757C45.889 21.1094 46.8734 21.3555 47.7288 21.8477C48.5843 22.3398 49.2435 23.04 49.7064 23.9482C50.1751 24.8564 50.4124 25.8994 50.4183 27.0771V27.8945C50.4183 29.1016 50.1839 30.1592 49.7151 31.0674C49.2523 31.9756 48.5872 32.6729 47.72 33.1592C46.8587 33.6455 45.8538 33.8945 44.7054 33.9062H41.1634ZM42.8509 22.498V32.5264H44.6263C45.9271 32.5264 46.9378 32.1221 47.6585 31.3135C48.3851 30.5049 48.7484 29.3535 48.7484 27.8594V27.1123C48.7484 25.6592 48.4056 24.5312 47.72 23.7285C47.0403 22.9199 46.0735 22.5098 44.8196 22.498H42.8509Z" fill="black"/>
<path d="M60.2057 27.9912H54.6598V32.5264H61.1022V33.9062H52.9723V21.1094H61.0143V22.498H54.6598V26.6113H60.2057V27.9912Z" fill="black"/>
<path d="M70.2676 28.2549H64.8975V33.9062H63.21V21.1094H71.1377V22.498H64.8975V26.875H70.2676V28.2549Z" fill="black"/>
<path d="M82.602 32.2275C82.1684 32.8486 81.562 33.3145 80.7827 33.625C80.0092 33.9297 79.1069 34.082 78.0757 34.082C77.0327 34.082 76.1069 33.8389 75.2983 33.3525C74.4897 32.8604 73.8628 32.1631 73.4174 31.2607C72.978 30.3584 72.7524 29.3125 72.7407 28.123V27.0068C72.7407 25.0791 73.1889 23.585 74.0854 22.5244C74.9878 21.4639 76.2534 20.9336 77.8823 20.9336C79.2182 20.9336 80.2934 21.2764 81.1079 21.9619C81.9223 22.6416 82.4204 23.6084 82.602 24.8623H80.9145C80.5981 23.1689 79.5903 22.3223 77.8911 22.3223C76.7602 22.3223 75.9018 22.7207 75.3159 23.5176C74.7358 24.3086 74.4428 25.457 74.437 26.9629V28.0088C74.437 29.4443 74.7651 30.5869 75.4214 31.4365C76.0776 32.2803 76.9653 32.7021 78.0844 32.7021C78.7173 32.7021 79.271 32.6318 79.7456 32.4912C80.2202 32.3506 80.6128 32.1133 80.9233 31.7793V28.9053H77.9614V27.5342H82.602V32.2275Z" fill="black"/>
<path d="M95.2619 33.9062H93.5656V27.9912H87.1144V33.9062H85.4269V21.1094H87.1144V26.6113H93.5656V21.1094H95.2619V33.9062Z" fill="black"/>
<path d="M100.068 33.9062H98.3802V21.1094H100.068V33.9062Z" fill="black"/>
<path d="M108.528 21.1094H110.224V30.1709C110.224 31.3955 109.855 32.3535 109.117 33.0449C108.385 33.7363 107.406 34.082 106.181 34.082C104.91 34.082 103.92 33.7568 103.211 33.1064C102.502 32.4561 102.147 31.5449 102.147 30.373H103.835C103.835 31.1055 104.034 31.6768 104.432 32.0869C104.837 32.4971 105.42 32.7021 106.181 32.7021C106.879 32.7021 107.441 32.4824 107.869 32.043C108.303 31.6035 108.522 30.9883 108.528 30.1973V21.1094Z" fill="black"/>
<path d="M116.347 27.9561L114.782 29.582V33.9062H113.095V21.1094H114.782V27.4375L120.469 21.1094H122.508L117.472 26.7607L122.903 33.9062H120.882L116.347 27.9561Z" fill="black"/>
<path d="M126.082 32.5264H132.146V33.9062H124.385V21.1094H126.082V32.5264Z" fill="black"/>
<path d="M136.252 21.1094L140.436 31.5508L144.62 21.1094H146.808V33.9062H145.121V28.9229L145.279 23.5439L141.078 33.9062H139.786L135.593 23.5703L135.76 28.9229V33.9062H134.073V21.1094H136.252Z" fill="black"/>
</g>
<g id="NOPQRSTUVWXYZ">
<path d="M16.3203 54.9062H14.624L8.18164 45.0449V54.9062H6.48535V42.1094H8.18164L14.6416 52.0146V42.1094H16.3203V54.9062Z" fill="black"/>
<path d="M29.1593 48.9209C29.1593 50.1748 28.9484 51.2705 28.5265 52.208C28.1046 53.1396 27.507 53.8516 26.7336 54.3438C25.9601 54.8359 25.0578 55.082 24.0265 55.082C23.0187 55.082 22.1252 54.8359 21.3459 54.3438C20.5666 53.8457 19.9601 53.1396 19.5265 52.2256C19.0988 51.3057 18.8791 50.2422 18.8673 49.0352V48.1123C18.8673 46.8818 19.0812 45.7949 19.5089 44.8516C19.9367 43.9082 20.5402 43.1875 21.3195 42.6895C22.1046 42.1855 23.0011 41.9336 24.0089 41.9336C25.0343 41.9336 25.9367 42.1826 26.716 42.6807C27.5011 43.1729 28.1046 43.8906 28.5265 44.834C28.9484 45.7715 29.1593 46.8643 29.1593 48.1123V48.9209ZM27.4806 48.0947C27.4806 46.5771 27.1759 45.4141 26.5666 44.6055C25.9572 43.791 25.1046 43.3838 24.0089 43.3838C22.9425 43.3838 22.1017 43.791 21.4865 44.6055C20.8771 45.4141 20.5636 46.5391 20.5461 47.9805V48.9209C20.5461 50.3916 20.8537 51.5488 21.4689 52.3926C22.09 53.2305 22.9425 53.6494 24.0265 53.6494C25.1164 53.6494 25.9601 53.2539 26.5578 52.4629C27.1554 51.666 27.463 50.5264 27.4806 49.0439V48.0947Z" fill="black"/>
<path d="M33.3691 49.8965V54.9062H31.6816V42.1094H36.4013C37.8017 42.1094 38.8974 42.4668 39.6884 43.1816C40.4853 43.8965 40.8837 44.8428 40.8837 46.0205C40.8837 47.2627 40.4941 48.2207 39.7148 48.8945C38.9413 49.5625 37.831 49.8965 36.3837 49.8965H33.3691ZM33.3691 48.5166H36.4013C37.3037 48.5166 37.9951 48.3057 38.4755 47.8838C38.956 47.4561 39.1962 46.8408 39.1962 46.0381C39.1962 45.2764 38.956 44.667 38.4755 44.21C37.9951 43.7529 37.3359 43.5156 36.498 43.498H33.3691V48.5166Z" fill="black"/>
<path d="M52.8087 48.9209C52.8087 50.1572 52.6124 51.2236 52.2198 52.1201C51.8272 53.0107 51.2765 53.708 50.5675 54.2119L52.8526 56.0049L51.7013 57.0684L49.003 54.9238C48.5812 55.0293 48.1358 55.082 47.6671 55.082C46.6593 55.082 45.7657 54.8359 44.9864 54.3438C44.2071 53.8457 43.6007 53.1396 43.1671 52.2256C42.7394 51.3057 42.5196 50.2422 42.5079 49.0352V48.1123C42.5079 46.8818 42.7218 45.7949 43.1495 44.8516C43.5772 43.9082 44.1808 43.1875 44.9601 42.6895C45.7452 42.1855 46.6417 41.9336 47.6495 41.9336C48.6808 41.9336 49.586 42.1826 50.3653 42.6807C51.1505 43.1787 51.754 43.8965 52.1759 44.834C52.5978 45.7656 52.8087 46.8555 52.8087 48.1035V48.9209ZM51.1212 48.0947C51.1212 46.5889 50.8194 45.4287 50.2159 44.6143C49.6183 43.7939 48.7628 43.3838 47.6495 43.3838C46.589 43.3838 45.7511 43.791 45.1358 44.6055C44.5265 45.4141 44.213 46.5391 44.1954 47.9805V48.9209C44.1954 50.3857 44.5001 51.54 45.1095 52.3838C45.7247 53.2275 46.5772 53.6494 47.6671 53.6494C48.7569 53.6494 49.6007 53.2539 50.1983 52.4629C50.796 51.666 51.1036 50.5264 51.1212 49.0439V48.0947Z" fill="black"/>
<path d="M60.0946 49.7295H57.0888V54.9062H55.3925V42.1094H59.6288C61.0702 42.1094 62.1776 42.4375 62.9511 43.0938C63.7304 43.75 64.12 44.7051 64.12 45.959C64.12 46.7559 63.9032 47.4502 63.4696 48.042C63.0419 48.6338 62.4442 49.0762 61.6766 49.3691L64.6825 54.8008V54.9062H62.872L60.0946 49.7295ZM57.0888 48.3496H59.6815C60.5194 48.3496 61.1845 48.1328 61.6766 47.6992C62.1747 47.2656 62.4237 46.6855 62.4237 45.959C62.4237 45.168 62.1864 44.5615 61.7118 44.1396C61.243 43.7178 60.5634 43.5039 59.6727 43.498H57.0888V48.3496Z" fill="black"/>
<path d="M70.2582 49.2021C68.8109 48.7861 67.7562 48.2764 67.0941 47.6729C66.4378 47.0635 66.1097 46.3135 66.1097 45.4229C66.1097 44.415 66.5111 43.583 67.3138 42.9268C68.1224 42.2646 69.1712 41.9336 70.4603 41.9336C71.3392 41.9336 72.1214 42.1035 72.807 42.4434C73.4984 42.7832 74.0316 43.252 74.4066 43.8496C74.7875 44.4473 74.9779 45.1006 74.9779 45.8096H73.2816C73.2816 45.0361 73.0355 44.4297 72.5433 43.9902C72.0511 43.5449 71.3568 43.3223 70.4603 43.3223C69.6283 43.3223 68.9779 43.5068 68.5091 43.876C68.0462 44.2393 67.8148 44.7461 67.8148 45.3965C67.8148 45.918 68.0345 46.3604 68.474 46.7236C68.9193 47.0811 69.6722 47.4092 70.7328 47.708C71.7992 48.0068 72.6312 48.3379 73.2289 48.7012C73.8324 49.0586 74.2777 49.4775 74.5648 49.958C74.8578 50.4385 75.0042 51.0039 75.0042 51.6543C75.0042 52.6914 74.6 53.5234 73.7914 54.1504C72.9828 54.7715 71.9017 55.082 70.5482 55.082C69.6693 55.082 68.849 54.915 68.0873 54.5811C67.3255 54.2412 66.7367 53.7783 66.3207 53.1924C65.9105 52.6064 65.7054 51.9414 65.7054 51.1973H67.4017C67.4017 51.9707 67.6859 52.583 68.2542 53.0342C68.8285 53.4795 69.5931 53.7021 70.5482 53.7021C71.4388 53.7021 72.1214 53.5205 72.596 53.1572C73.0707 52.7939 73.308 52.2988 73.308 51.6719C73.308 51.0449 73.0882 50.5615 72.6488 50.2217C72.2093 49.876 71.4125 49.5361 70.2582 49.2021Z" fill="black"/>
<path d="M86.0223 43.498H81.9091V54.9062H80.2304V43.498H76.1259V42.1094H86.0223V43.498Z" fill="black"/>
<path d="M96.9242 42.1094V50.8105C96.9183 52.0176 96.5375 53.0049 95.7816 53.7725C95.0316 54.54 94.0121 54.9707 92.723 55.0645L92.2748 55.082C90.8744 55.082 89.7582 54.7041 88.9261 53.9482C88.0941 53.1924 87.6722 52.1523 87.6605 50.8281V42.1094H89.3304V50.7754C89.3304 51.7012 89.5853 52.4219 90.0951 52.9375C90.6048 53.4473 91.3314 53.7021 92.2748 53.7021C93.2298 53.7021 93.9593 53.4473 94.4632 52.9375C94.973 52.4277 95.2279 51.71 95.2279 50.7842V42.1094H96.9242Z" fill="black"/>
<path d="M103.831 52.665L107.487 42.1094H109.333L104.587 54.9062H103.093L98.3552 42.1094H100.192L103.831 52.665Z" fill="black"/>
<path d="M113.819 50.8721L114.065 52.5596L114.425 51.0391L116.956 42.1094H118.38L120.85 51.0391L121.202 52.5859L121.474 50.8633L123.46 42.1094H125.157L122.054 54.9062H120.516L117.879 45.5811L117.677 44.6055L117.475 45.5811L114.742 54.9062H113.204L110.11 42.1094H111.797L113.819 50.8721Z" fill="black"/>
<path d="M131.216 47.0137L134.283 42.1094H136.27L132.227 48.4551L136.366 54.9062H134.362L131.216 49.9141L128.052 54.9062H126.057L130.205 48.4551L126.153 42.1094H128.131L131.216 47.0137Z" fill="black"/>
<path d="M142.227 48.5342L145.567 42.1094H147.483L143.071 50.1338V54.9062H141.383V50.1338L136.971 42.1094H138.905L142.227 48.5342Z" fill="black"/>
<path d="M150.393 53.5264H157.715V54.9062H148.398V53.6406L155.412 43.498H148.513V42.1094H157.433V43.3486L150.393 53.5264Z" fill="black"/>
</g>
<g id="abcdefghijklm">
<path d="M12.1016 75.9062C12.0078 75.7188 11.9316 75.3848 11.873 74.9043C11.1172 75.6895 10.2148 76.082 9.16602 76.082C8.22852 76.082 7.45801 75.8184 6.85449 75.291C6.25684 74.7578 5.95801 74.084 5.95801 73.2695C5.95801 72.2793 6.33301 71.5117 7.08301 70.9668C7.83887 70.416 8.89941 70.1406 10.2646 70.1406H11.8467V69.3936C11.8467 68.8252 11.6768 68.374 11.3369 68.04C10.9971 67.7002 10.4961 67.5303 9.83398 67.5303C9.25391 67.5303 8.76758 67.6768 8.375 67.9697C7.98242 68.2627 7.78613 68.6172 7.78613 69.0332H6.15137C6.15137 68.5586 6.31836 68.1016 6.65234 67.6621C6.99219 67.2168 7.44922 66.8652 8.02344 66.6074C8.60352 66.3496 9.23926 66.2207 9.93066 66.2207C11.0264 66.2207 11.8848 66.4961 12.5059 67.0469C13.127 67.5918 13.4492 68.3447 13.4727 69.3057V73.6826C13.4727 74.5557 13.584 75.25 13.8066 75.7656V75.9062H12.1016ZM9.40332 74.667C9.91309 74.667 10.3965 74.5352 10.8535 74.2715C11.3105 74.0078 11.6416 73.665 11.8467 73.2432V71.292H10.5723C8.58008 71.292 7.58398 71.875 7.58398 73.041C7.58398 73.5508 7.75391 73.9492 8.09375 74.2363C8.43359 74.5234 8.87012 74.667 9.40332 74.667Z" fill="black"/>
<path d="M24.0705 71.2568C24.0705 72.71 23.7365 73.8789 23.0685 74.7637C22.4005 75.6426 21.5041 76.082 20.3791 76.082C19.1779 76.082 18.2492 75.6572 17.5929 74.8076L17.5138 75.9062H16.0197V62.4062H17.6457V67.4424C18.3019 66.6279 19.2072 66.2207 20.3615 66.2207C21.5158 66.2207 22.4211 66.6572 23.0773 67.5303C23.7394 68.4033 24.0705 69.5986 24.0705 71.1162V71.2568ZM22.4445 71.0723C22.4445 69.9648 22.2306 69.1094 21.8029 68.5059C21.3752 67.9023 20.7599 67.6006 19.9572 67.6006C18.8849 67.6006 18.1144 68.0986 17.6457 69.0947V73.208C18.1437 74.2041 18.9201 74.7021 19.9748 74.7021C20.7541 74.7021 21.3605 74.4004 21.7941 73.7969C22.2277 73.1934 22.4445 72.2852 22.4445 71.0723Z" fill="black"/>
<path d="M29.9398 74.7549C30.5198 74.7549 31.0267 74.5791 31.4603 74.2275C31.8939 73.876 32.1341 73.4365 32.181 72.9092H33.7191C33.6898 73.4541 33.5023 73.9727 33.1566 74.4648C32.8109 74.957 32.348 75.3496 31.7679 75.6426C31.1937 75.9355 30.5843 76.082 29.9398 76.082C28.6448 76.082 27.6136 75.6514 26.846 74.79C26.0843 73.9229 25.7034 72.7393 25.7034 71.2393V70.9668C25.7034 70.041 25.8734 69.2178 26.2132 68.4971C26.553 67.7764 27.0394 67.2168 27.6722 66.8184C28.3109 66.4199 29.0638 66.2207 29.931 66.2207C30.9974 66.2207 31.8821 66.54 32.5853 67.1787C33.2943 67.8174 33.6722 68.6465 33.7191 69.666H32.181C32.1341 69.0508 31.8997 68.5469 31.4778 68.1543C31.0618 67.7559 30.5462 67.5566 29.931 67.5566C29.1048 67.5566 28.4632 67.8555 28.0062 68.4531C27.555 69.0449 27.3294 69.9033 27.3294 71.0283V71.3359C27.3294 72.4316 27.555 73.2754 28.0062 73.8672C28.4573 74.459 29.1019 74.7549 29.9398 74.7549Z" fill="black"/>
<path d="M35.1589 71.0723C35.1589 69.6133 35.5046 68.4414 36.196 67.5566C36.8874 66.666 37.7927 66.2207 38.9118 66.2207C40.0251 66.2207 40.9069 66.6016 41.5573 67.3633V62.4062H43.1833V75.9062H41.6891L41.61 74.8867C40.9597 75.6836 40.0544 76.082 38.8942 76.082C37.7927 76.082 36.8932 75.6309 36.196 74.7285C35.5046 73.8262 35.1589 72.6484 35.1589 71.1953V71.0723ZM36.7848 71.2568C36.7848 72.335 37.0075 73.1787 37.4528 73.7881C37.8981 74.3975 38.5134 74.7021 39.2985 74.7021C40.3298 74.7021 41.0827 74.2393 41.5573 73.3135V68.9453C41.071 68.0488 40.3239 67.6006 39.3161 67.6006C38.5192 67.6006 37.8981 67.9082 37.4528 68.5234C37.0075 69.1387 36.7848 70.0498 36.7848 71.2568Z" fill="black"/>
<path d="M49.659 76.082C48.37 76.082 47.3211 75.6602 46.5125 74.8164C45.7039 73.9668 45.2997 72.833 45.2997 71.415V71.1162C45.2997 70.1729 45.4784 69.332 45.8358 68.5938C46.1991 67.8496 46.703 67.2695 47.3475 66.8535C47.9979 66.4316 48.701 66.2207 49.4569 66.2207C50.6932 66.2207 51.6541 66.6279 52.3397 67.4424C53.0252 68.2568 53.368 69.4229 53.368 70.9404V71.6172H46.9256C46.9491 72.5547 47.2215 73.3135 47.743 73.8936C48.2704 74.4678 48.9383 74.7549 49.7469 74.7549C50.3211 74.7549 50.8075 74.6377 51.2059 74.4033C51.6043 74.1689 51.953 73.8584 52.2518 73.4717L53.245 74.2451C52.4481 75.4697 51.2528 76.082 49.659 76.082ZM49.4569 67.5566C48.8006 67.5566 48.2498 67.7969 47.8045 68.2773C47.3592 68.752 47.0838 69.4199 46.9784 70.2812H51.742V70.1582C51.6952 69.332 51.4725 68.6934 51.0741 68.2422C50.6756 67.7852 50.1366 67.5566 49.4569 67.5566Z" fill="black"/>
<path d="M56.0539 75.9062V67.6533H54.5509V66.3965H56.0539V65.4209C56.0539 64.4014 56.3263 63.6133 56.8712 63.0566C57.4162 62.5 58.1867 62.2217 59.1828 62.2217C59.5578 62.2217 59.9298 62.2715 60.299 62.3711L60.2111 63.6895C59.9357 63.6367 59.6427 63.6104 59.3322 63.6104C58.8048 63.6104 58.3976 63.7656 58.1105 64.0762C57.8234 64.3809 57.6798 64.8203 57.6798 65.3945V66.3965H59.7101V67.6533H57.6798V75.9062H56.0539Z" fill="black"/>
<path d="M60.9164 71.0723C60.9164 69.5898 61.2591 68.4121 61.9447 67.5391C62.6302 66.6602 63.5384 66.2207 64.6693 66.2207C65.8294 66.2207 66.7347 66.6309 67.3851 67.4512L67.4642 66.3965H68.9496V75.6777C68.9496 76.9082 68.5833 77.8779 67.8509 78.5869C67.1244 79.2959 66.1458 79.6504 64.9154 79.6504C64.2298 79.6504 63.5589 79.5039 62.9027 79.2109C62.2464 78.918 61.7455 78.5166 61.3997 78.0068L62.2435 77.0312C62.9408 77.8926 63.7933 78.3232 64.8011 78.3232C65.5921 78.3232 66.2074 78.1006 66.6468 77.6553C67.0921 77.21 67.3148 76.583 67.3148 75.7744V74.957C66.6644 75.707 65.7767 76.082 64.6517 76.082C63.5384 76.082 62.6361 75.6338 61.9447 74.7373C61.2591 73.8408 60.9164 72.6191 60.9164 71.0723ZM62.5511 71.2568C62.5511 72.3291 62.7708 73.1729 63.2103 73.7881C63.6497 74.3975 64.265 74.7021 65.056 74.7021C66.0814 74.7021 66.8343 74.2363 67.3148 73.3047V68.9629C66.8167 68.0547 66.0697 67.6006 65.0736 67.6006C64.2826 67.6006 63.6644 67.9082 63.2191 68.5234C62.7738 69.1387 62.5511 70.0498 62.5511 71.2568Z" fill="black"/>
<path d="M73.0347 67.5479C73.7554 66.6631 74.6929 66.2207 75.8472 66.2207C77.8569 66.2207 78.8706 67.3545 78.8882 69.6221V75.9062H77.2622V69.6133C77.2563 68.9277 77.0981 68.4209 76.7876 68.0928C76.4829 67.7646 76.0054 67.6006 75.355 67.6006C74.8276 67.6006 74.3647 67.7412 73.9663 68.0225C73.5679 68.3037 73.2573 68.6729 73.0347 69.1299V75.9062H71.4087V62.4062H73.0347V67.5479Z" fill="black"/>
<path d="M83.0858 75.9062H81.4598V66.3965H83.0858V75.9062ZM81.3279 63.874C81.3279 63.6104 81.407 63.3877 81.5652 63.2061C81.7293 63.0244 81.9695 62.9336 82.2859 62.9336C82.6024 62.9336 82.8426 63.0244 83.0067 63.2061C83.1707 63.3877 83.2527 63.6104 83.2527 63.874C83.2527 64.1377 83.1707 64.3574 83.0067 64.5332C82.8426 64.709 82.6024 64.7969 82.2859 64.7969C81.9695 64.7969 81.7293 64.709 81.5652 64.5332C81.407 64.3574 81.3279 64.1377 81.3279 63.874Z" fill="black"/>
<path d="M87.3694 66.3965V77.0049C87.3694 78.833 86.5403 79.7471 84.8821 79.7471C84.5247 79.7471 84.1936 79.6943 83.889 79.5889V78.2881C84.0765 78.335 84.3225 78.3584 84.6272 78.3584C84.9905 78.3584 85.2659 78.2588 85.4534 78.0596C85.6468 77.8662 85.7434 77.5264 85.7434 77.04V66.3965H87.3694ZM85.5765 63.874C85.5765 63.6162 85.6556 63.3965 85.8138 63.2148C85.9778 63.0273 86.2151 62.9336 86.5257 62.9336C86.8421 62.9336 87.0823 63.0244 87.2464 63.2061C87.4104 63.3877 87.4925 63.6104 87.4925 63.874C87.4925 64.1377 87.4104 64.3574 87.2464 64.5332C87.0823 64.709 86.8421 64.7969 86.5257 64.7969C86.2093 64.7969 85.972 64.709 85.8138 64.5332C85.6556 64.3574 85.5765 64.1377 85.5765 63.874Z" fill="black"/>
<path d="M92.648 71.5029L91.6285 72.5664V75.9062H90.0025V62.4062H91.6285V70.5713L92.4986 69.5254L95.4605 66.3965H97.4381L93.7379 70.3691L97.8688 75.9062H95.9615L92.648 71.5029Z" fill="black"/>
<path d="M100.88 75.9062H99.2538V62.4062H100.88V75.9062Z" fill="black"/>
<path d="M105.014 66.3965L105.058 67.4512C105.755 66.6309 106.696 66.2207 107.879 66.2207C109.209 66.2207 110.115 66.7305 110.595 67.75C110.912 67.293 111.322 66.9238 111.826 66.6426C112.335 66.3613 112.936 66.2207 113.627 66.2207C115.713 66.2207 116.774 67.3252 116.809 69.5342V75.9062H115.183V69.6309C115.183 68.9512 115.028 68.4443 114.717 68.1104C114.407 67.7705 113.885 67.6006 113.153 67.6006C112.549 67.6006 112.048 67.7822 111.65 68.1455C111.251 68.5029 111.02 68.9863 110.955 69.5957V75.9062H109.321V69.6748C109.321 68.292 108.644 67.6006 107.29 67.6006C106.224 67.6006 105.495 68.0547 105.102 68.9629V75.9062H103.476V66.3965H105.014Z" fill="black"/>
</g>
<g id="nopqrstuvwxyz">
<path d="M7.76855 87.3965L7.82129 88.5918C8.54785 87.6777 9.49707 87.2207 10.6689 87.2207C12.6787 87.2207 13.6924 88.3545 13.71 90.6221V96.9062H12.084V90.6133C12.0781 89.9277 11.9199 89.4209 11.6094 89.0928C11.3047 88.7646 10.8271 88.6006 10.1768 88.6006C9.64941 88.6006 9.18652 88.7412 8.78809 89.0225C8.38965 89.3037 8.0791 89.6729 7.85645 90.1299V96.9062H6.23047V87.3965H7.76855Z" fill="black"/>
<path d="M15.7278 92.0635C15.7278 91.1318 15.9095 90.2939 16.2728 89.5498C16.6419 88.8057 17.1517 88.2314 17.8021 87.8271C18.4583 87.4229 19.2054 87.2207 20.0433 87.2207C21.3382 87.2207 22.3841 87.6689 23.181 88.5654C23.9837 89.4619 24.3851 90.6543 24.3851 92.1426V92.2568C24.3851 93.1826 24.2064 94.0146 23.8489 94.7529C23.4974 95.4854 22.9905 96.0566 22.3284 96.4668C21.6722 96.877 20.9163 97.082 20.0609 97.082C18.7718 97.082 17.7259 96.6338 16.9232 95.7373C16.1263 94.8408 15.7278 93.6543 15.7278 92.1777V92.0635ZM17.3626 92.2568C17.3626 93.3115 17.6058 94.1582 18.0921 94.7969C18.5843 95.4355 19.2405 95.7549 20.0609 95.7549C20.887 95.7549 21.5433 95.4326 22.0296 94.7881C22.5159 94.1377 22.7591 93.2295 22.7591 92.0635C22.7591 91.0205 22.5101 90.1768 22.012 89.5322C21.5198 88.8818 20.8636 88.5566 20.0433 88.5566C19.2405 88.5566 18.5931 88.876 18.1009 89.5146C17.6087 90.1533 17.3626 91.0674 17.3626 92.2568Z" fill="black"/>
<path d="M34.4627 92.2568C34.4627 93.7041 34.1317 94.8701 33.4696 95.7549C32.8075 96.6396 31.911 97.082 30.7801 97.082C29.6258 97.082 28.7176 96.7158 28.0555 95.9834V100.562H26.4295V87.3965H27.9149L27.994 88.4512C28.6561 87.6309 29.576 87.2207 30.7538 87.2207C31.8963 87.2207 32.7987 87.6514 33.4608 88.5127C34.1288 89.374 34.4627 90.5723 34.4627 92.1074V92.2568ZM32.8368 92.0723C32.8368 91 32.6082 90.1533 32.1512 89.5322C31.6942 88.9111 31.0672 88.6006 30.2704 88.6006C29.286 88.6006 28.5477 89.0371 28.0555 89.9102V94.4541C28.5418 95.3213 29.286 95.7549 30.2879 95.7549C31.0672 95.7549 31.6854 95.4473 32.1424 94.832C32.6053 94.2109 32.8368 93.291 32.8368 92.0723Z" fill="black"/>
<path d="M36.1378 92.0723C36.1378 90.5781 36.4806 89.3975 37.1662 88.5303C37.8517 87.6572 38.7716 87.2207 39.9259 87.2207C41.0509 87.2207 41.9386 87.5986 42.589 88.3545L42.6593 87.3965H44.1535V100.562H42.5275V96.0273C41.8712 96.7305 40.9982 97.082 39.9084 97.082C38.7599 97.082 37.8429 96.6367 37.1574 95.7461C36.4777 94.8496 36.1378 93.6631 36.1378 92.1865V92.0723ZM37.7638 92.2568C37.7638 93.3467 37.9923 94.2021 38.4494 94.8232C38.9123 95.4443 39.5334 95.7549 40.3127 95.7549C41.2794 95.7549 42.0177 95.3271 42.5275 94.4717V89.8135C42.0119 88.9756 41.2794 88.5566 40.3302 88.5566C39.5451 88.5566 38.9211 88.8701 38.4582 89.4971C37.9953 90.1182 37.7638 91.0381 37.7638 92.2568Z" fill="black"/>
<path d="M51.3677 88.8555C51.1216 88.8145 50.855 88.7939 50.5679 88.7939C49.5015 88.7939 48.7779 89.248 48.397 90.1562V96.9062H46.771V87.3965H48.3531L48.3794 88.4951C48.9126 87.6455 49.6685 87.2207 50.647 87.2207C50.9634 87.2207 51.2036 87.2617 51.3677 87.3438V88.8555Z" fill="black"/>
<path d="M58.4149 94.3838C58.4149 93.9443 58.248 93.6045 57.914 93.3643C57.5858 93.1182 57.0087 92.9072 56.1825 92.7314C55.3622 92.5557 54.7089 92.3447 54.2226 92.0986C53.7421 91.8525 53.3847 91.5596 53.1503 91.2197C52.9218 90.8799 52.8075 90.4756 52.8075 90.0068C52.8075 89.2275 53.1356 88.5684 53.7919 88.0293C54.454 87.4902 55.2978 87.2207 56.3231 87.2207C57.4013 87.2207 58.2743 87.499 58.9423 88.0557C59.6161 88.6123 59.953 89.3242 59.953 90.1914H58.3183C58.3183 89.7461 58.1278 89.3623 57.747 89.04C57.372 88.7178 56.8974 88.5566 56.3231 88.5566C55.7313 88.5566 55.2685 88.6855 54.9345 88.9434C54.6005 89.2012 54.4335 89.5381 54.4335 89.9541C54.4335 90.3467 54.5888 90.6426 54.8993 90.8418C55.2099 91.041 55.7694 91.2314 56.578 91.4131C57.3925 91.5947 58.0517 91.8115 58.5556 92.0635C59.0595 92.3154 59.4315 92.6201 59.6718 92.9775C59.9179 93.3291 60.0409 93.7598 60.0409 94.2695C60.0409 95.1191 59.7011 95.8018 59.0214 96.3174C58.3417 96.8271 57.4599 97.082 56.3759 97.082C55.6142 97.082 54.9403 96.9473 54.3544 96.6777C53.7685 96.4082 53.3085 96.0332 52.9745 95.5527C52.6464 95.0664 52.4823 94.542 52.4823 93.9795H54.1083C54.1376 94.5244 54.3544 94.958 54.7587 95.2803C55.1688 95.5967 55.7079 95.7549 56.3759 95.7549C56.9911 95.7549 57.4833 95.6318 57.8524 95.3857C58.2274 95.1338 58.4149 94.7998 58.4149 94.3838Z" fill="black"/>
<path d="M64.3579 85.0938V87.3965H66.1333V88.6533H64.3579V94.5508C64.3579 94.9316 64.437 95.2188 64.5952 95.4121C64.7534 95.5996 65.023 95.6934 65.4038 95.6934C65.5913 95.6934 65.8492 95.6582 66.1773 95.5879V96.9062C65.7495 97.0234 65.3335 97.082 64.9292 97.082C64.2027 97.082 63.6548 96.8623 63.2857 96.4229C62.9165 95.9834 62.732 95.3594 62.732 94.5508V88.6533H61.0005V87.3965H62.732V85.0938H64.3579Z" fill="black"/>
<path d="M73.9062 95.9658C73.2734 96.71 72.3447 97.082 71.1201 97.082C70.1064 97.082 69.333 96.7891 68.7998 96.2031C68.2725 95.6113 68.0059 94.7383 68 93.584V87.3965H69.626V93.54C69.626 94.9814 70.2119 95.7021 71.3838 95.7021C72.626 95.7021 73.4521 95.2393 73.8623 94.3135V87.3965H75.4883V96.9062H73.9414L73.9062 95.9658Z" fill="black"/>
<path d="M81.1099 94.7002L83.4654 87.3965H85.1265L81.7163 96.9062H80.4771L77.0318 87.3965H78.6929L81.1099 94.7002Z" fill="black"/>
<path d="M95.1181 94.665L96.9462 87.3965H98.5722L95.8036 96.9062H94.4853L92.1737 89.6992L89.9237 96.9062H88.6054L85.8456 87.3965H87.4628L89.3349 94.5156L91.5497 87.3965H92.8593L95.1181 94.665Z" fill="black"/>
<path d="M103.433 90.8682L105.542 87.3965H107.441L104.329 92.0986L107.537 96.9062H105.656L103.459 93.3467L101.262 96.9062H99.3722L102.58 92.0986L99.4689 87.3965H101.35L103.433 90.8682Z" fill="black"/>
<path d="M112.276 94.5244L114.491 87.3965H116.231L112.408 98.374C111.816 99.9561 110.876 100.747 109.587 100.747L109.279 100.721L108.673 100.606V99.2881L109.112 99.3232C109.663 99.3232 110.091 99.2119 110.395 98.9893C110.706 98.7666 110.961 98.3594 111.16 97.7676L111.52 96.8008L108.128 87.3965H109.903L112.276 94.5244Z" fill="black"/>
<path d="M119.221 95.5791H124.785V96.9062H117.235V95.7109L122.482 88.7412H117.314V87.3965H124.521V88.5479L119.221 95.5791Z" fill="black"/>
</g>
<g id="1234567890">
<path d="M11.4072 117.906H9.77246V107.069L6.49414 108.273V106.797L11.1523 105.048H11.4072V117.906Z" fill="black"/>
<path d="M24.5552 117.906H16.1704V116.737L20.6001 111.815C21.2563 111.071 21.7075 110.468 21.9536 110.005C22.2056 109.536 22.3315 109.053 22.3315 108.555C22.3315 107.887 22.1294 107.339 21.7251 106.911C21.3208 106.483 20.7817 106.27 20.1079 106.27C19.2993 106.27 18.6694 106.501 18.2183 106.964C17.7729 107.421 17.5503 108.06 17.5503 108.88H15.9243C15.9243 107.702 16.3022 106.75 17.0581 106.023C17.8198 105.297 18.8364 104.934 20.1079 104.934C21.2974 104.934 22.2378 105.247 22.9292 105.874C23.6206 106.495 23.9663 107.324 23.9663 108.361C23.9663 109.621 23.1636 111.121 21.5581 112.861L18.1304 116.579H24.5552V117.906Z" fill="black"/>
<path d="M28.6416 110.717H29.8633C30.6308 110.705 31.2344 110.503 31.6738 110.11C32.1133 109.718 32.333 109.188 32.333 108.52C32.333 107.02 31.5859 106.27 30.0918 106.27C29.3886 106.27 28.8261 106.472 28.4043 106.876C27.9883 107.274 27.7803 107.805 27.7803 108.467H26.1543C26.1543 107.453 26.5234 106.612 27.2617 105.944C28.0058 105.271 28.9492 104.934 30.0918 104.934C31.2988 104.934 32.2451 105.253 32.9306 105.892C33.6162 106.53 33.959 107.418 33.959 108.555C33.959 109.111 33.7773 109.65 33.414 110.172C33.0566 110.693 32.5674 111.083 31.9463 111.341C32.6494 111.563 33.1914 111.933 33.5722 112.448C33.959 112.964 34.1523 113.594 34.1523 114.338C34.1523 115.486 33.7773 116.397 33.0273 117.071C32.2773 117.745 31.3017 118.082 30.1006 118.082C28.8994 118.082 27.9209 117.757 27.165 117.106C26.415 116.456 26.04 115.598 26.04 114.531H27.6748C27.6748 115.205 27.8945 115.744 28.334 116.148C28.7734 116.553 29.3623 116.755 30.1006 116.755C30.8857 116.755 31.4863 116.55 31.9023 116.14C32.3183 115.729 32.5263 115.141 32.5263 114.373C32.5263 113.629 32.2978 113.058 31.8408 112.659C31.3838 112.261 30.7246 112.056 29.8633 112.044H28.6416V110.717Z" fill="black"/>
<path d="M43.2485 113.608H45.0239V114.936H43.2485V117.906H41.6137V114.936H35.7866V113.978L41.5171 105.109H43.2485V113.608ZM37.6323 113.608H41.6137V107.333L41.4204 107.685L37.6323 113.608Z" fill="black"/>
<path d="M47.2382 111.49L47.8886 105.109H54.4453V106.612H49.2685L48.8818 110.102C49.5087 109.732 50.2207 109.548 51.0175 109.548C52.1835 109.548 53.1093 109.935 53.7949 110.708C54.4804 111.476 54.8232 112.516 54.8232 113.828C54.8232 115.146 54.4658 116.187 53.7509 116.948C53.0419 117.704 52.0488 118.082 50.7714 118.082C49.6406 118.082 48.7177 117.769 48.0029 117.142C47.288 116.515 46.8808 115.647 46.7812 114.54H48.3193C48.4189 115.272 48.6796 115.826 49.1015 116.201C49.5234 116.57 50.08 116.755 50.7714 116.755C51.5273 116.755 52.1191 116.497 52.5468 115.981C52.9804 115.466 53.1972 114.754 53.1972 113.846C53.1972 112.99 52.9628 112.305 52.4941 111.789C52.0312 111.268 51.413 111.007 50.6396 111.007C49.9306 111.007 49.374 111.162 48.9697 111.473L48.539 111.824L47.2382 111.49Z" fill="black"/>
<path d="M62.9789 105.101V106.48H62.6801C61.4145 106.504 60.4067 106.879 59.6567 107.605C58.9067 108.332 58.4731 109.354 58.3559 110.673C59.0297 109.899 59.9496 109.513 61.1157 109.513C62.2289 109.513 63.1166 109.905 63.7788 110.69C64.4467 111.476 64.7807 112.489 64.7807 113.731C64.7807 115.05 64.4204 116.104 63.6996 116.896C62.9848 117.687 62.0239 118.082 60.8168 118.082C59.5922 118.082 58.5991 117.613 57.8373 116.676C57.0756 115.732 56.6948 114.52 56.6948 113.037V112.413C56.6948 110.058 57.1957 108.259 58.1977 107.017C59.2055 105.769 60.7026 105.13 62.6889 105.101H62.9789ZM60.8432 110.866C60.2866 110.866 59.7739 111.033 59.3051 111.367C58.8364 111.701 58.5112 112.12 58.3295 112.624V113.222C58.3295 114.276 58.5668 115.126 59.0414 115.771C59.5161 116.415 60.1079 116.737 60.8168 116.737C61.5493 116.737 62.1235 116.468 62.5395 115.929C62.9614 115.39 63.1723 114.684 63.1723 113.811C63.1723 112.932 62.9584 112.223 62.5307 111.684C62.1088 111.139 61.5463 110.866 60.8432 110.866Z" fill="black"/>
<path d="M74.9667 106.023L69.6669 117.906H67.9618L73.2441 106.445H66.3183V105.109H74.9667V106.023Z" fill="black"/>
<path d="M84.5727 108.449C84.5727 109.088 84.4027 109.656 84.0629 110.154C83.7289 110.652 83.2748 111.042 82.7006 111.323C83.3686 111.61 83.8959 112.029 84.2826 112.58C84.6752 113.131 84.8715 113.755 84.8715 114.452C84.8715 115.56 84.4965 116.441 83.7465 117.098C83.0024 117.754 82.0209 118.082 80.8022 118.082C79.5717 118.082 78.5844 117.754 77.8402 117.098C77.102 116.436 76.7328 115.554 76.7328 114.452C76.7328 113.761 76.9203 113.137 77.2953 112.58C77.6762 112.023 78.2006 111.602 78.8686 111.314C78.3002 111.033 77.852 110.644 77.5238 110.146C77.1957 109.647 77.0317 109.082 77.0317 108.449C77.0317 107.371 77.3774 106.516 78.0688 105.883C78.7602 105.25 79.6713 104.934 80.8022 104.934C81.9272 104.934 82.8354 105.25 83.5268 105.883C84.224 106.516 84.5727 107.371 84.5727 108.449ZM83.2455 114.417C83.2455 113.702 83.017 113.119 82.56 112.668C82.1088 112.217 81.517 111.991 80.7846 111.991C80.0522 111.991 79.4633 112.214 79.018 112.659C78.5785 113.104 78.3588 113.69 78.3588 114.417C78.3588 115.144 78.5727 115.715 79.0004 116.131C79.434 116.547 80.0346 116.755 80.8022 116.755C81.5639 116.755 82.1615 116.547 82.5951 116.131C83.0287 115.709 83.2455 115.138 83.2455 114.417ZM80.8022 106.27C80.1635 106.27 79.6449 106.469 79.2465 106.867C78.8539 107.26 78.6576 107.796 78.6576 108.476C78.6576 109.126 78.851 109.653 79.2377 110.058C79.6303 110.456 80.1518 110.655 80.8022 110.655C81.4526 110.655 81.9711 110.456 82.3578 110.058C82.7504 109.653 82.9467 109.126 82.9467 108.476C82.9467 107.825 82.7445 107.295 82.3402 106.885C81.936 106.475 81.4233 106.27 80.8022 106.27Z" fill="black"/>
<path d="M93.1503 112.281C92.8105 112.686 92.4032 113.011 91.9286 113.257C91.4599 113.503 90.9442 113.626 90.3817 113.626C89.6435 113.626 88.9989 113.444 88.4482 113.081C87.9032 112.718 87.4814 112.208 87.1825 111.552C86.8837 110.89 86.7343 110.16 86.7343 109.363C86.7343 108.508 86.8954 107.737 87.2177 107.052C87.5458 106.366 88.0087 105.842 88.6064 105.479C89.204 105.115 89.9013 104.934 90.6982 104.934C91.9638 104.934 92.9599 105.408 93.6864 106.357C94.4189 107.301 94.7851 108.59 94.7851 110.225V110.699C94.7851 113.189 94.2929 115.009 93.3085 116.157C92.3241 117.3 90.8388 117.886 88.8524 117.915H88.536V116.544H88.8788C90.2206 116.521 91.2519 116.172 91.9726 115.498C92.6933 114.818 93.0858 113.746 93.1503 112.281ZM90.6454 112.281C91.1903 112.281 91.6913 112.114 92.1483 111.78C92.6112 111.446 92.9482 111.033 93.1591 110.541V109.891C93.1591 108.824 92.9276 107.957 92.4648 107.289C92.0019 106.621 91.4159 106.287 90.7069 106.287C89.9921 106.287 89.4179 106.562 88.9843 107.113C88.5507 107.658 88.3339 108.379 88.3339 109.275C88.3339 110.148 88.5419 110.869 88.9579 111.438C89.3798 112 89.9423 112.281 90.6454 112.281Z" fill="black"/>
<path d="M105.05 112.448C105.05 114.353 104.725 115.768 104.075 116.693C103.424 117.619 102.408 118.082 101.025 118.082C99.6596 118.082 98.6488 117.631 97.9926 116.729C97.3363 115.82 96.9965 114.467 96.973 112.668V110.497C96.973 108.616 97.2982 107.219 97.9486 106.305C98.599 105.391 99.6185 104.934 101.007 104.934C102.384 104.934 103.398 105.376 104.048 106.261C104.699 107.14 105.033 108.499 105.05 110.339V112.448ZM103.424 110.225C103.424 108.848 103.231 107.846 102.844 107.219C102.457 106.586 101.845 106.27 101.007 106.27C100.175 106.27 99.5687 106.583 99.1879 107.21C98.807 107.837 98.6107 108.801 98.599 110.102V112.703C98.599 114.086 98.7982 115.108 99.1967 115.771C99.601 116.427 100.21 116.755 101.025 116.755C101.828 116.755 102.422 116.444 102.809 115.823C103.202 115.202 103.407 114.224 103.424 112.888V110.225Z" fill="black"/>
</g>
</g>
</svg>
