<svg width="160" height="122" viewBox="0 0 160 122" fill="none" xmlns="http://www.w3.org/2000/svg">
<g id="Roboto_medium">
<g id="Medium">
<path d="M1.30566 13.5117V3.39453H3.29492L6.09766 11.2217L8.98242 3.39453H10.7598V13.5117H9.41992V5.28125L6.63086 12.835H5.24316L2.53613 5.26074V13.5117H1.30566Z" fill="black"/>
<path d="M18.836 13.2725C17.9336 13.5459 17.1612 13.6826 16.5186 13.6826C15.4248 13.6826 14.5316 13.3203 13.8389 12.5957C13.1508 11.8665 12.8067 10.9232 12.8067 9.76562C12.8067 8.63997 13.1097 7.71712 13.7159 6.99707C14.3265 6.27702 15.1058 5.91699 16.0538 5.91699C16.9515 5.91699 17.6442 6.236 18.1319 6.87402C18.6241 7.51204 18.8702 8.41895 18.8702 9.59473L18.8633 10.0117H14.1807C14.3767 11.7754 15.2403 12.6572 16.7715 12.6572C17.3321 12.6572 18.0202 12.5068 18.836 12.2061V13.2725ZM14.2422 9H17.5166C17.5166 7.61914 17.0017 6.92871 15.9717 6.92871C14.9372 6.92871 14.3607 7.61914 14.2422 9Z" fill="black"/>
<path d="M25.9552 13.5117V12.1172C25.4083 13.1608 24.5834 13.6826 23.4806 13.6826C22.5873 13.6826 21.8832 13.3568 21.3682 12.7051C20.8578 12.0534 20.6026 11.1624 20.6026 10.0322C20.6026 8.7972 20.892 7.80371 21.4708 7.05176C22.0541 6.2998 22.8197 5.92383 23.7677 5.92383C24.6472 5.92383 25.3764 6.26107 25.9552 6.93555V2.71777H27.3087V13.5117H25.9552ZM25.9552 7.8584C25.2579 7.24316 24.5971 6.93555 23.9727 6.93555C22.683 6.93555 22.0382 7.9222 22.0382 9.89551C22.0382 11.6318 22.6124 12.5 23.7608 12.5C24.5082 12.5 25.2397 12.0921 25.9552 11.2764V7.8584Z" fill="black"/>
<path d="M29.9982 13.5117V6.08789H31.3449V13.5117H29.9982ZM29.9982 4.74121V3.39453H31.3449V4.74121H29.9982Z" fill="black"/>
<path d="M38.6759 13.5117V12.1172C37.9605 13.1608 37.0923 13.6826 36.0715 13.6826C35.4243 13.6826 34.9093 13.4798 34.5265 13.0742C34.1437 12.6641 33.9523 12.1126 33.9523 11.4199V6.08789H35.299V10.9824C35.299 11.5384 35.3787 11.9349 35.5383 12.1719C35.7023 12.4043 35.9735 12.5205 36.3517 12.5205C37.172 12.5205 37.9468 11.9805 38.6759 10.9004V6.08789H40.0226V13.5117H38.6759Z" fill="black"/>
<path d="M42.733 13.5117V6.08789H44.0796V7.48242C44.7359 6.44336 45.579 5.92383 46.6089 5.92383C47.6024 5.92383 48.2792 6.44336 48.6392 7.48242C49.2772 6.4388 50.1067 5.91699 51.1275 5.91699C51.7837 5.91699 52.2919 6.11068 52.6519 6.49805C53.0119 6.88086 53.1919 7.41862 53.1919 8.11133V13.5117H51.8384V8.32324C51.8384 7.47559 51.5035 7.05176 50.8335 7.05176C50.1363 7.05176 49.4048 7.54622 48.6392 8.53516V13.5117H47.2857V8.32324C47.2857 7.47103 46.9439 7.04492 46.2603 7.04492C45.5813 7.04492 44.8544 7.54167 44.0796 8.53516V13.5117H42.733Z" fill="black"/>
</g>
<g id="ABCDEFGHIJKLM">
<path d="M13.4639 30.9268H8.50684L7.46973 33.9062H5.1582L9.99219 21.1094H11.9873L16.8301 33.9062H14.5098L13.4639 30.9268ZM9.13086 29.1338H12.8398L10.9854 23.8252L9.13086 29.1338Z" fill="black"/>
<path d="M18.2801 33.9062V21.1094H22.6658C24.1131 21.1094 25.2146 21.3994 25.9705 21.9795C26.7264 22.5596 27.1043 23.4238 27.1043 24.5723C27.1043 25.1582 26.9461 25.6855 26.6297 26.1543C26.3133 26.623 25.8504 26.9863 25.241 27.2441C25.9324 27.4316 26.4656 27.7861 26.8406 28.3076C27.2215 28.8232 27.4119 29.4443 27.4119 30.1709C27.4119 31.3721 27.0252 32.2949 26.2517 32.9395C25.4842 33.584 24.3826 33.9062 22.9471 33.9062H18.2801ZM20.5037 28.1318V32.1309H22.9734C23.6707 32.1309 24.2156 31.958 24.6082 31.6123C25.0008 31.2666 25.1971 30.7861 25.1971 30.1709C25.1971 28.8408 24.5174 28.1611 23.158 28.1318H20.5037ZM20.5037 26.4971H22.6834C23.3748 26.4971 23.9139 26.3418 24.3006 26.0312C24.6931 25.7148 24.8894 25.2695 24.8894 24.6953C24.8894 24.0625 24.7078 23.6055 24.3445 23.3242C23.9871 23.043 23.4275 22.9023 22.6658 22.9023H20.5037V26.4971Z" fill="black"/>
<path d="M39.3984 29.7402C39.2695 31.1055 38.7656 32.1719 37.8867 32.9395C37.0078 33.7012 35.8388 34.082 34.3798 34.082C33.3603 34.082 32.4609 33.8418 31.6816 33.3613C30.9081 32.875 30.3105 32.1865 29.8886 31.2959C29.4667 30.4053 29.247 29.3711 29.2294 28.1934V26.998C29.2294 25.791 29.4433 24.7275 29.871 23.8076C30.2988 22.8877 30.9111 22.1787 31.708 21.6807C32.5107 21.1826 33.4365 20.9336 34.4853 20.9336C35.8974 20.9336 37.0341 21.3174 37.8955 22.085C38.7568 22.8525 39.2578 23.9365 39.3984 25.3369H37.1835C37.0781 24.417 36.8085 23.7549 36.3749 23.3506C35.9472 22.9404 35.3173 22.7354 34.4853 22.7354C33.5185 22.7354 32.7744 23.0898 32.2529 23.7988C31.7372 24.502 31.4736 25.5361 31.4619 26.9014V28.0352C31.4619 29.418 31.708 30.4727 32.2001 31.1992C32.6982 31.9258 33.4247 32.2891 34.3798 32.2891C35.2529 32.2891 35.9091 32.0928 36.3486 31.7002C36.788 31.3076 37.0663 30.6543 37.1835 29.7402H39.3984Z" fill="black"/>
<path d="M41.3899 33.9062V21.1094H45.1692C46.3001 21.1094 47.302 21.3613 48.1751 21.8652C49.054 22.3691 49.7336 23.084 50.2141 24.0098C50.6946 24.9355 50.9348 25.9961 50.9348 27.1914V27.833C50.9348 29.0459 50.6917 30.1123 50.2053 31.0322C49.7249 31.9521 49.0364 32.6611 48.1399 33.1592C47.2493 33.6572 46.2268 33.9062 45.0725 33.9062H41.3899ZM43.6135 22.9023V32.1309H45.0637C46.2297 32.1309 47.1233 31.7676 47.7444 31.041C48.3713 30.3086 48.6907 29.2598 48.7024 27.8945V27.1826C48.7024 25.7939 48.4006 24.7334 47.7971 24.001C47.1936 23.2686 46.3176 22.9023 45.1692 22.9023H43.6135Z" fill="black"/>
<path d="M60.6346 28.1934H55.3787V32.1309H61.5223V33.9062H53.1551V21.1094H61.4607V22.9023H55.3787V26.4355H60.6346V28.1934Z" fill="black"/>
<path d="M70.714 28.4834H65.5636V33.9062H63.34V21.1094H71.4699V22.9023H65.5636V26.708H70.714V28.4834Z" fill="black"/>
<path d="M83.0505 32.2451C82.5876 32.8486 81.946 33.3057 81.1257 33.6162C80.3054 33.9268 79.3737 34.082 78.3307 34.082C77.2585 34.082 76.3093 33.8389 75.4831 33.3525C74.6569 32.8662 74.0182 32.1719 73.5671 31.2695C73.1218 30.3613 72.8903 29.3037 72.8727 28.0967V27.0947C72.8727 25.1611 73.3356 23.6523 74.2614 22.5684C75.1872 21.4785 76.4792 20.9336 78.1374 20.9336C79.5612 20.9336 80.6921 21.2852 81.53 21.9883C82.3679 22.6914 82.8718 23.7051 83.0417 25.0293H80.862C80.6159 23.4883 79.7224 22.7178 78.1813 22.7178C77.1852 22.7178 76.4265 23.0781 75.905 23.7988C75.3893 24.5137 75.1227 25.5654 75.1052 26.9541V27.9385C75.1052 29.3213 75.3952 30.3965 75.9753 31.1641C76.5612 31.9258 77.3727 32.3066 78.4099 32.3066C79.5466 32.3066 80.3552 32.0488 80.8356 31.5332V29.0283H78.1989V27.3408H83.0505V32.2451Z" fill="black"/>
<path d="M95.6486 33.9062H93.4337V28.2197H87.7121V33.9062H85.4884V21.1094H87.7121V26.4355H93.4337V21.1094H95.6486V33.9062Z" fill="black"/>
<path d="M100.639 33.9062H98.4243V21.1094H100.639V33.9062Z" fill="black"/>
<path d="M108.614 21.1094H110.829V30.083C110.829 31.3076 110.446 32.2803 109.678 33.001C108.916 33.7217 107.908 34.082 106.655 34.082C105.319 34.082 104.287 33.7451 103.561 33.0713C102.834 32.3975 102.471 31.46 102.471 30.2588H104.686C104.686 30.9385 104.853 31.4512 105.187 31.7969C105.527 32.1367 106.016 32.3066 106.655 32.3066C107.252 32.3066 107.727 32.1104 108.078 31.7178C108.436 31.3193 108.614 30.7715 108.614 30.0742V21.1094Z" fill="black"/>
<path d="M117.056 28.3779L115.605 29.916V33.9062H113.382V21.1094H115.605V27.1123L116.836 25.5918L120.58 21.1094H123.269L118.515 26.7783L123.542 33.9062H120.905L117.056 28.3779Z" fill="black"/>
<path d="M126.968 32.1309H132.778V33.9062H124.744V21.1094H126.968V32.1309Z" fill="black"/>
<path d="M137.357 21.1094L141.048 30.918L144.731 21.1094H147.605V33.9062H145.39V29.6875L145.609 24.0449L141.83 33.9062H140.239L136.469 24.0537L136.689 29.6875V33.9062H134.474V21.1094H137.357Z" fill="black"/>
</g>
<g id="NOPQRSTUVWXYZ">
<path d="M16.4521 54.9062H14.2285L8.52441 45.8271V54.9062H6.30078V42.1094H8.52441L14.2461 51.2236V42.1094H16.4521V54.9062Z" fill="black"/>
<path d="M29.293 48.8418C29.293 50.0957 29.0762 51.1973 28.6426 52.1465C28.209 53.0898 27.5879 53.8164 26.7793 54.3262C25.9766 54.8301 25.0508 55.082 24.002 55.082C22.9648 55.082 22.0391 54.8301 21.2246 54.3262C20.416 53.8164 19.7891 53.0928 19.3438 52.1553C18.9043 51.2178 18.6816 50.1367 18.6758 48.9121V48.1914C18.6758 46.9434 18.8955 45.8418 19.335 44.8867C19.7803 43.9316 20.4043 43.2021 21.207 42.6982C22.0156 42.1885 22.9414 41.9336 23.9844 41.9336C25.0273 41.9336 25.9502 42.1855 26.7529 42.6895C27.5615 43.1875 28.1855 43.9082 28.625 44.8516C29.0645 45.7891 29.2871 46.8818 29.293 48.1299V48.8418ZM27.0693 48.1738C27.0693 46.7559 26.7998 45.6689 26.2607 44.9131C25.7275 44.1572 24.9688 43.7793 23.9844 43.7793C23.0234 43.7793 22.2705 44.1572 21.7256 44.9131C21.1865 45.6631 20.9111 46.7266 20.8994 48.1035V48.8418C20.8994 50.248 21.1719 51.335 21.7168 52.1025C22.2676 52.8701 23.0293 53.2539 24.002 53.2539C24.9863 53.2539 25.7422 52.8789 26.2695 52.1289C26.8027 51.3789 27.0693 50.2832 27.0693 48.8418V48.1738Z" fill="black"/>
<path d="M33.7386 50.1514V54.9062H31.515V42.1094H36.4105C37.8402 42.1094 38.974 42.4814 39.8119 43.2256C40.6556 43.9697 41.0775 44.9541 41.0775 46.1787C41.0775 47.4326 40.6644 48.4082 39.8383 49.1055C39.0179 49.8027 37.8666 50.1514 36.3842 50.1514H33.7386ZM33.7386 48.3672H36.4105C37.2015 48.3672 37.8051 48.1826 38.2211 47.8135C38.6371 47.4385 38.8451 46.8994 38.8451 46.1963C38.8451 45.5049 38.6342 44.9541 38.2123 44.5439C37.7904 44.1279 37.2103 43.9141 36.472 43.9023H33.7386V48.3672Z" fill="black"/>
<path d="M53.2012 48.8418C53.2012 50.0547 53.0079 51.1064 52.6212 51.9971C52.2403 52.8818 51.7042 53.585 51.0128 54.1064L53.21 55.8203L51.7686 57.1211L49.044 54.9678C48.6866 55.0439 48.3028 55.082 47.8926 55.082C46.8614 55.082 45.9385 54.8301 45.1241 54.3262C44.3155 53.8164 43.6885 53.0928 43.2432 52.1553C42.8038 51.2178 42.5811 50.1367 42.5753 48.9121V48.1914C42.5753 46.9434 42.795 45.8418 43.2344 44.8867C43.6797 43.9316 44.3038 43.2021 45.1065 42.6982C45.9151 42.1885 46.8379 41.9336 47.8751 41.9336C48.9297 41.9336 49.8585 42.1855 50.6612 42.6895C51.4698 43.1875 52.0938 43.9082 52.5333 44.8516C52.9727 45.7891 53.1954 46.8818 53.2012 48.1299V48.8418ZM50.9688 48.1738C50.9688 46.7324 50.6993 45.6396 50.1602 44.8955C49.6212 44.1514 48.8594 43.7793 47.8751 43.7793C46.92 43.7793 46.17 44.1572 45.6251 44.9131C45.086 45.6631 44.8106 46.7236 44.7989 48.0947V48.8418C44.7989 50.2246 45.0684 51.3057 45.6075 52.085C46.1524 52.8643 46.9141 53.2539 47.8926 53.2539C48.8829 53.2539 49.6417 52.8789 50.169 52.1289C50.7022 51.3789 50.9688 50.2832 50.9688 48.8418V48.1738Z" fill="black"/>
<path d="M60.1694 49.9756H57.6909V54.9062H55.4672V42.1094H59.9672C61.4438 42.1094 62.5834 42.4404 63.3862 43.1025C64.1889 43.7646 64.5903 44.7227 64.5903 45.9766C64.5903 46.832 64.3823 47.5498 63.9662 48.1299C63.5561 48.7041 62.9819 49.1465 62.2436 49.457L65.1176 54.792V54.9062H62.7358L60.1694 49.9756ZM57.6909 48.1914H59.976C60.726 48.1914 61.3119 48.0039 61.7338 47.6289C62.1557 47.248 62.3666 46.7295 62.3666 46.0732C62.3666 45.3877 62.1703 44.8574 61.7778 44.4824C61.391 44.1074 60.811 43.9141 60.0375 43.9023H57.6909V48.1914Z" fill="black"/>
<path d="M73.3881 51.6104C73.3881 51.0479 73.1889 50.6143 72.7905 50.3096C72.3979 50.0049 71.686 49.6973 70.6547 49.3867C69.6235 49.0762 68.8032 48.7305 68.1938 48.3496C67.0278 47.6172 66.4448 46.6621 66.4448 45.4844C66.4448 44.4531 66.8637 43.6035 67.7016 42.9355C68.5453 42.2676 69.6381 41.9336 70.9799 41.9336C71.8705 41.9336 72.6645 42.0977 73.3618 42.4258C74.059 42.7539 74.6069 43.2227 75.0053 43.832C75.4037 44.4355 75.603 45.1064 75.603 45.8447H73.3881C73.3881 45.1768 73.1772 44.6553 72.7553 44.2803C72.3393 43.8994 71.7416 43.709 70.9623 43.709C70.2358 43.709 69.6703 43.8643 69.2661 44.1748C68.8676 44.4854 68.6684 44.9189 68.6684 45.4756C68.6684 45.9443 68.8852 46.3369 69.3188 46.6533C69.7524 46.9639 70.4672 47.2686 71.4633 47.5674C72.4594 47.8604 73.2592 48.1973 73.8627 48.5781C74.4662 48.9531 74.9086 49.3867 75.1899 49.8789C75.4711 50.3652 75.6118 50.9365 75.6118 51.5928C75.6118 52.6592 75.2016 53.5088 74.3813 54.1416C73.5668 54.7686 72.4594 55.082 71.059 55.082C70.1332 55.082 69.2807 54.9121 68.5014 54.5723C67.728 54.2266 67.1244 53.752 66.6909 53.1484C66.2631 52.5449 66.0493 51.8418 66.0493 51.0391H68.2729C68.2729 51.7656 68.5131 52.3281 68.9936 52.7266C69.4741 53.125 70.1625 53.3242 71.059 53.3242C71.8325 53.3242 72.4125 53.1689 72.7993 52.8584C73.1918 52.542 73.3881 52.126 73.3881 51.6104Z" fill="black"/>
<path d="M86.8 43.9023H82.8098V54.9062H80.6037V43.9023H76.6487V42.1094H86.8V43.9023Z" fill="black"/>
<path d="M97.8461 42.1094V50.6611C97.8461 52.0205 97.4095 53.0986 96.5365 53.8955C95.6693 54.6865 94.5121 55.082 93.0648 55.082C91.6 55.082 90.4369 54.6924 89.5756 53.9131C88.7142 53.1279 88.2836 52.041 88.2836 50.6523V42.1094H90.4984V50.6699C90.4984 51.5254 90.7152 52.1787 91.1488 52.6299C91.5824 53.0811 92.2211 53.3066 93.0648 53.3066C94.7758 53.3066 95.6312 52.4043 95.6312 50.5996V42.1094H97.8461Z" fill="black"/>
<path d="M104.735 52.1201L107.987 42.1094H110.43L105.825 54.9062H103.671L99.0835 42.1094H101.518L104.735 52.1201Z" fill="black"/>
<path d="M121.918 51.7422L123.886 42.1094H126.092L123.139 54.9062H121.012L118.578 45.5635L116.09 54.9062H113.955L111.001 42.1094H113.208L115.194 51.7246L117.637 42.1094H119.501L121.918 51.7422Z" fill="black"/>
<path d="M132.12 46.7324L134.809 42.1094H137.376L133.508 48.4551L137.464 54.9062H134.871L132.12 50.2129L129.36 54.9062H126.776L130.74 48.4551L126.864 42.1094H129.43L132.12 46.7324Z" fill="black"/>
<path d="M143.278 48.1738L146.223 42.1094H148.684L144.395 50.1953V54.9062H142.162V50.1953L137.864 42.1094H140.334L143.278 48.1738Z" fill="black"/>
<path d="M152.171 53.1309H159.009V54.9062H149.482V53.4648L156.1 43.9023H149.526V42.1094H158.798V43.5156L152.171 53.1309Z" fill="black"/>
</g>
<g id="abcdefghijklm">
<path d="M11.7764 75.9062C11.6826 75.7246 11.6006 75.4287 11.5303 75.0186C10.8506 75.7275 10.0186 76.082 9.03418 76.082C8.0791 76.082 7.2998 75.8096 6.69629 75.2646C6.09277 74.7197 5.79102 74.0459 5.79102 73.2432C5.79102 72.2295 6.16602 71.4531 6.91602 70.9141C7.67188 70.3691 8.75 70.0967 10.1504 70.0967H11.46V69.4727C11.46 68.9805 11.3223 68.5879 11.0469 68.2949C10.7715 67.9961 10.3525 67.8467 9.79004 67.8467C9.30371 67.8467 8.90527 67.9697 8.59473 68.2158C8.28418 68.4561 8.12891 68.7637 8.12891 69.1387H5.99316C5.99316 68.6172 6.16602 68.1309 6.51172 67.6797C6.85742 67.2227 7.32617 66.8652 7.91797 66.6074C8.51562 66.3496 9.18066 66.2207 9.91309 66.2207C11.0264 66.2207 11.9141 66.502 12.5762 67.0645C13.2383 67.6211 13.5781 68.4062 13.5957 69.4199V73.709C13.5957 74.5645 13.7158 75.2471 13.9561 75.7568V75.9062H11.7764ZM9.42969 74.3682C9.85156 74.3682 10.2471 74.2656 10.6162 74.0605C10.9912 73.8555 11.2725 73.5801 11.46 73.2344V71.4414H10.3086C9.51758 71.4414 8.92285 71.5791 8.52441 71.8545C8.12598 72.1299 7.92676 72.5195 7.92676 73.0234C7.92676 73.4336 8.06152 73.7617 8.33105 74.0078C8.60645 74.248 8.97266 74.3682 9.42969 74.3682Z" fill="black"/>
<path d="M24.1777 71.248C24.1777 72.7246 23.8467 73.8994 23.1846 74.7725C22.5283 75.6455 21.623 76.082 20.4688 76.082C19.3555 76.082 18.4883 75.6807 17.8672 74.8779L17.7617 75.9062H15.8281V62.4062H17.9639V67.3105C18.5791 66.584 19.4082 66.2207 20.4512 66.2207C21.6113 66.2207 22.5225 66.6514 23.1846 67.5127C23.8467 68.374 24.1777 69.5781 24.1777 71.125V71.248ZM22.042 71.0635C22.042 70.0322 21.8604 69.2588 21.4971 68.7432C21.1338 68.2275 20.6064 67.9697 19.915 67.9697C18.9893 67.9697 18.3389 68.374 17.9639 69.1826V73.1025C18.3447 73.9287 19.001 74.3418 19.9326 74.3418C20.6006 74.3418 21.1162 74.0928 21.4795 73.5947C21.8428 73.0967 22.0303 72.3438 22.042 71.3359V71.0635Z" fill="black"/>
<path d="M29.8818 74.377C30.415 74.377 30.8574 74.2217 31.209 73.9111C31.5605 73.6006 31.748 73.2168 31.7715 72.7598H33.7842C33.7607 73.3516 33.5762 73.9053 33.2305 74.4209C32.8848 74.9307 32.416 75.335 31.8242 75.6338C31.2324 75.9326 30.5938 76.082 29.9082 76.082C28.5781 76.082 27.5234 75.6514 26.7441 74.79C25.9648 73.9287 25.5752 72.7393 25.5752 71.2217V71.002C25.5752 69.5547 25.9619 68.3975 26.7354 67.5303C27.5088 66.6572 28.5635 66.2207 29.8994 66.2207C31.0303 66.2207 31.9502 66.5518 32.6592 67.2139C33.374 67.8701 33.749 68.7344 33.7842 69.8066H31.7715C31.748 69.2617 31.5605 68.8135 31.209 68.4619C30.8633 68.1104 30.4209 67.9346 29.8818 67.9346C29.1904 67.9346 28.6572 68.1865 28.2822 68.6904C27.9072 69.1885 27.7168 69.9473 27.7109 70.9668V71.3096C27.7109 72.3408 27.8955 73.1113 28.2646 73.6211C28.6396 74.125 29.1787 74.377 29.8818 74.377Z" fill="black"/>
<path d="M35.0043 71.0811C35.0043 69.6162 35.3441 68.4414 36.0238 67.5566C36.7035 66.666 37.6146 66.2207 38.7572 66.2207C39.765 66.2207 40.5795 66.5723 41.2006 67.2754V62.4062H43.3363V75.9062H41.4027L41.2972 74.9219C40.6586 75.6953 39.806 76.082 38.7396 76.082C37.6263 76.082 36.724 75.6338 36.0326 74.7373C35.347 73.8408 35.0043 72.6221 35.0043 71.0811ZM37.14 71.2656C37.14 72.2324 37.3246 72.9883 37.6937 73.5332C38.0687 74.0723 38.599 74.3418 39.2845 74.3418C40.1576 74.3418 40.7963 73.9521 41.2006 73.1729V69.1123C40.808 68.3506 40.1752 67.9697 39.3021 67.9697C38.6107 67.9697 38.0775 68.2451 37.7025 68.7959C37.3275 69.3408 37.14 70.1641 37.14 71.2656Z" fill="black"/>
<path d="M49.7613 76.082C48.4078 76.082 47.3092 75.6572 46.4654 74.8076C45.6275 73.9521 45.2086 72.8154 45.2086 71.3975V71.1338C45.2086 70.1846 45.3902 69.3379 45.7535 68.5938C46.1226 67.8438 46.6383 67.2607 47.3004 66.8447C47.9625 66.4287 48.7008 66.2207 49.5152 66.2207C50.8101 66.2207 51.8092 66.6338 52.5123 67.46C53.2213 68.2861 53.5758 69.4551 53.5758 70.9668V71.8281H47.3619C47.4264 72.6133 47.6871 73.2344 48.1441 73.6914C48.607 74.1484 49.1871 74.377 49.8844 74.377C50.8629 74.377 51.6598 73.9814 52.275 73.1904L53.4264 74.2891C53.0455 74.8574 52.5357 75.2998 51.8971 75.6162C51.2642 75.9268 50.5523 76.082 49.7613 76.082ZM49.5064 67.9346C48.9205 67.9346 48.4459 68.1396 48.0826 68.5498C47.7252 68.96 47.4967 69.5312 47.3971 70.2637H51.4664V70.1055C51.4195 69.3906 51.2291 68.8516 50.8951 68.4883C50.5611 68.1191 50.0982 67.9346 49.5064 67.9346Z" fill="black"/>
<path d="M55.9856 75.9062V67.9785H54.5354V66.3965H55.9856V65.5264C55.9856 64.4717 56.2785 63.6572 56.8645 63.083C57.4504 62.5088 58.2707 62.2217 59.3254 62.2217C59.7004 62.2217 60.0988 62.2744 60.5207 62.3799L60.468 64.0498C60.2336 64.0029 59.9611 63.9795 59.6506 63.9795C58.6311 63.9795 58.1213 64.5039 58.1213 65.5527V66.3965H60.0549V67.9785H58.1213V75.9062H55.9856Z" fill="black"/>
<path d="M61.0398 71.0811C61.0398 69.6045 61.3855 68.4268 62.0769 67.5479C62.7742 66.6631 63.697 66.2207 64.8455 66.2207C65.9295 66.2207 66.782 66.5986 67.4031 67.3545L67.4998 66.3965H69.4246V75.6162C69.4246 76.8643 69.0349 77.8486 68.2556 78.5693C67.4822 79.29 66.4363 79.6504 65.1179 79.6504C64.4207 79.6504 63.7381 79.5039 63.0701 79.2109C62.408 78.9238 61.9041 78.5459 61.5584 78.0771L62.5691 76.7939C63.2254 77.5732 64.034 77.9629 64.9949 77.9629C65.7039 77.9629 66.2635 77.7695 66.6736 77.3828C67.0838 77.002 67.2888 76.4395 67.2888 75.6953V75.0537C66.6736 75.7393 65.8533 76.082 64.8279 76.082C63.7146 76.082 62.8035 75.6396 62.0945 74.7549C61.3914 73.8701 61.0398 72.6455 61.0398 71.0811ZM63.1668 71.2656C63.1668 72.2207 63.3601 72.9736 63.7469 73.5244C64.1394 74.0693 64.6814 74.3418 65.3728 74.3418C66.2342 74.3418 66.8728 73.9727 67.2888 73.2344V69.0508C66.8845 68.3301 66.2517 67.9697 65.3904 67.9697C64.6873 67.9697 64.1394 68.248 63.7469 68.8047C63.3601 69.3613 63.1668 70.1816 63.1668 71.2656Z" fill="black"/>
<path d="M73.7294 67.4336C74.4267 66.625 75.3085 66.2207 76.3749 66.2207C78.4023 66.2207 79.4306 67.3779 79.4599 69.6924V75.9062H77.3242V69.7715C77.3242 69.1152 77.1806 68.6523 76.8935 68.3828C76.6122 68.1074 76.1962 67.9697 75.6454 67.9697C74.79 67.9697 74.1513 68.3506 73.7294 69.1123V75.9062H71.5937V62.4062H73.7294V67.4336Z" fill="black"/>
<path d="M83.902 75.9062H81.7662V66.3965H83.902V75.9062ZM81.6344 63.9268C81.6344 63.5986 81.7369 63.3262 81.942 63.1094C82.1529 62.8926 82.4518 62.7842 82.8385 62.7842C83.2252 62.7842 83.524 62.8926 83.735 63.1094C83.9459 63.3262 84.0514 63.5986 84.0514 63.9268C84.0514 64.249 83.9459 64.5186 83.735 64.7354C83.524 64.9463 83.2252 65.0518 82.8385 65.0518C82.4518 65.0518 82.1529 64.9463 81.942 64.7354C81.7369 64.5186 81.6344 64.249 81.6344 63.9268Z" fill="black"/>
<path d="M88.4707 66.3965V76.75C88.4707 77.7227 88.2275 78.4639 87.7412 78.9736C87.2607 79.4893 86.5547 79.7471 85.623 79.7471C85.2305 79.7471 84.8525 79.6973 84.4893 79.5977V77.9102C84.7119 77.9629 84.9639 77.9893 85.2451 77.9893C85.9541 77.9893 86.3174 77.6025 86.335 76.8291V66.3965H88.4707ZM86.1504 63.9268C86.1504 63.5986 86.2529 63.3262 86.458 63.1094C86.6689 62.8926 86.9678 62.7842 87.3545 62.7842C87.7412 62.7842 88.04 62.8926 88.251 63.1094C88.4619 63.3262 88.5674 63.5986 88.5674 63.9268C88.5674 64.249 88.4619 64.5186 88.251 64.7354C88.04 64.9463 87.7412 65.0518 87.3545 65.0518C86.9678 65.0518 86.6689 64.9463 86.458 64.7354C86.2529 64.5186 86.1504 64.249 86.1504 63.9268Z" fill="black"/>
<path d="M93.8586 71.8281L92.9094 72.8037V75.9062H90.7736V62.4062H92.9094V70.1934L93.5774 69.3584L96.2053 66.3965H98.7717L95.2385 70.3604L99.1496 75.9062H96.6799L93.8586 71.8281Z" fill="black"/>
<path d="M102.446 75.9062H100.31V62.4062H102.446V75.9062Z" fill="black"/>
<path d="M106.795 66.3965L106.856 67.3896C107.524 66.6104 108.438 66.2207 109.598 66.2207C110.87 66.2207 111.74 66.707 112.209 67.6797C112.9 66.707 113.873 66.2207 115.127 66.2207C116.175 66.2207 116.955 66.5107 117.464 67.0908C117.98 67.6709 118.244 68.5264 118.255 69.6572V75.9062H116.12V69.7188C116.12 69.1152 115.988 68.6729 115.724 68.3916C115.461 68.1104 115.024 67.9697 114.415 67.9697C113.928 67.9697 113.53 68.1016 113.219 68.3652C112.915 68.623 112.701 68.9629 112.578 69.3848L112.587 75.9062H110.451V69.6484C110.421 68.5293 109.85 67.9697 108.737 67.9697C107.881 67.9697 107.275 68.3184 106.918 69.0156V75.9062H104.782V66.3965H106.795Z" fill="black"/>
</g>
<g id="nopqrstuvwxyz">
<path d="M8.07617 87.3965L8.1377 88.4951C8.84082 87.6455 9.76367 87.2207 10.9062 87.2207C12.8867 87.2207 13.8945 88.3545 13.9297 90.6221V96.9062H11.7939V90.7451C11.7939 90.1416 11.6621 89.6963 11.3984 89.4092C11.1406 89.1162 10.7158 88.9697 10.124 88.9697C9.2627 88.9697 8.62109 89.3594 8.19922 90.1387V96.9062H6.06348V87.3965H8.07617Z" fill="black"/>
<path d="M15.7175 92.0635C15.7175 91.1318 15.902 90.2939 16.2712 89.5498C16.6403 88.7998 17.1589 88.2256 17.8268 87.8271C18.4948 87.4229 19.2624 87.2207 20.1296 87.2207C21.4128 87.2207 22.4528 87.6338 23.2497 88.46C24.0524 89.2861 24.486 90.3818 24.5505 91.7471L24.5593 92.248C24.5593 93.1855 24.3776 94.0234 24.0143 94.7617C23.6569 95.5 23.1413 96.0713 22.4675 96.4756C21.7995 96.8799 21.0261 97.082 20.1472 97.082C18.8054 97.082 17.7302 96.6367 16.9216 95.7461C16.1188 94.8496 15.7175 93.6572 15.7175 92.1689V92.0635ZM17.8532 92.248C17.8532 93.2266 18.0554 93.9941 18.4597 94.5508C18.864 95.1016 19.4265 95.377 20.1472 95.377C20.8679 95.377 21.4274 95.0957 21.8259 94.5332C22.2302 93.9707 22.4323 93.1475 22.4323 92.0635C22.4323 91.1025 22.2243 90.3408 21.8083 89.7783C21.3981 89.2158 20.8386 88.9346 20.1296 88.9346C19.4323 88.9346 18.8786 89.2129 18.4684 89.7695C18.0583 90.3203 17.8532 91.1465 17.8532 92.248Z" fill="black"/>
<path d="M34.6985 92.248C34.6985 93.7188 34.3645 94.8936 33.6965 95.7725C33.0285 96.6455 32.132 97.082 31.007 97.082C29.9641 97.082 29.1291 96.7393 28.5022 96.0537V100.562H26.3664V87.3965H28.3352L28.4231 88.3633C29.05 87.6016 29.9026 87.2207 30.9807 87.2207C32.1408 87.2207 33.049 87.6543 33.7053 88.5215C34.3674 89.3828 34.6985 90.5811 34.6985 92.1162V92.248ZM32.5715 92.0635C32.5715 91.1143 32.3811 90.3613 32.0002 89.8047C31.6252 89.248 31.0861 88.9697 30.383 88.9697C29.51 88.9697 28.883 89.3301 28.5022 90.0508V94.2695C28.8889 95.0078 29.5217 95.377 30.4006 95.377C31.0803 95.377 31.6106 95.1045 31.9914 94.5596C32.3781 94.0088 32.5715 93.1768 32.5715 92.0635Z" fill="black"/>
<path d="M36.1171 92.0723C36.1171 90.584 36.4569 89.4033 37.1366 88.5303C37.8163 87.6572 38.7362 87.2207 39.8964 87.2207C40.9569 87.2207 41.7978 87.5928 42.4188 88.3369L42.5419 87.3965H44.4403V100.562H42.3046V96.0977C41.6835 96.7539 40.8749 97.082 39.8788 97.082C38.7421 97.082 37.831 96.6396 37.1454 95.7549C36.4599 94.8643 36.1171 93.6367 36.1171 92.0723ZM38.2528 92.2568C38.2528 93.2295 38.4433 93.9941 38.8241 94.5508C39.2108 95.1016 39.744 95.377 40.4237 95.377C41.2675 95.377 41.8944 95.0166 42.3046 94.2959V89.9717C41.8944 89.2803 41.2733 88.9346 40.4413 88.9346C39.7616 88.9346 39.2255 89.207 38.8329 89.752C38.4462 90.2969 38.2528 91.1318 38.2528 92.2568Z" fill="black"/>
<path d="M51.7247 89.3477C51.4434 89.3008 51.1534 89.2773 50.8545 89.2773C49.876 89.2773 49.2169 89.6523 48.877 90.4023V96.9062H46.7413V87.3965H48.7803L48.8331 88.46C49.3487 87.6338 50.0635 87.2207 50.9776 87.2207C51.2823 87.2207 51.5342 87.2617 51.7335 87.3438L51.7247 89.3477Z" fill="black"/>
<path d="M58.3972 94.3223C58.3972 93.9414 58.239 93.6514 57.9225 93.4521C57.612 93.2529 57.0934 93.0771 56.3669 92.9248C55.6403 92.7725 55.0339 92.5791 54.5475 92.3447C53.4811 91.8291 52.9479 91.082 52.9479 90.1035C52.9479 89.2832 53.2936 88.5977 53.985 88.0469C54.6765 87.4961 55.5554 87.2207 56.6218 87.2207C57.7585 87.2207 58.6755 87.502 59.3727 88.0645C60.0759 88.627 60.4274 89.3564 60.4274 90.2529H58.2917C58.2917 89.8428 58.1393 89.5029 57.8347 89.2334C57.53 88.958 57.1257 88.8203 56.6218 88.8203C56.153 88.8203 55.7692 88.9287 55.4704 89.1455C55.1774 89.3623 55.0309 89.6523 55.0309 90.0156C55.0309 90.3438 55.1686 90.5986 55.444 90.7803C55.7194 90.9619 56.2761 91.1465 57.114 91.334C57.9518 91.5156 58.6081 91.7354 59.0827 91.9932C59.5632 92.2451 59.9177 92.5498 60.1462 92.9072C60.3806 93.2646 60.4977 93.6982 60.4977 94.208C60.4977 95.0635 60.1432 95.7578 59.4343 96.291C58.7253 96.8184 57.7966 97.082 56.6481 97.082C55.8688 97.082 55.1745 96.9414 54.5651 96.6602C53.9557 96.3789 53.4811 95.9922 53.1413 95.5C52.8015 95.0078 52.6315 94.4775 52.6315 93.9092H54.7057C54.735 94.4131 54.9255 94.8027 55.277 95.0781C55.6286 95.3477 56.0944 95.4824 56.6745 95.4824C57.237 95.4824 57.6647 95.377 57.9577 95.166C58.2507 94.9492 58.3972 94.668 58.3972 94.3223Z" fill="black"/>
<path d="M65.0435 85.085V87.3965H66.7222V88.9785H65.0435V94.2871C65.0435 94.6504 65.1138 94.9141 65.2544 95.0781C65.4009 95.2363 65.6587 95.3154 66.0279 95.3154C66.274 95.3154 66.523 95.2861 66.7749 95.2275V96.8799C66.2886 97.0146 65.8199 97.082 65.3687 97.082C63.7281 97.082 62.9077 96.1768 62.9077 94.3662V88.9785H61.3433V87.3965H62.9077V85.085H65.0435Z" fill="black"/>
<path d="M74.1136 95.9746C73.4866 96.7129 72.596 97.082 71.4417 97.082C70.4105 97.082 69.6282 96.7803 69.095 96.1768C68.5677 95.5732 68.304 94.7002 68.304 93.5576V87.3965H70.4398V93.5312C70.4398 94.7383 70.9407 95.3418 71.9427 95.3418C72.9798 95.3418 73.68 94.9697 74.0433 94.2256V87.3965H76.179V96.9062H74.1663L74.1136 95.9746Z" fill="black"/>
<path d="M81.7019 94.1992L83.7146 87.3965H85.9207L82.6248 96.9062H80.7703L77.448 87.3965H79.6629L81.7019 94.1992Z" fill="black"/>
<path d="M95.6078 93.9619L97.1195 87.3965H99.2026L96.6098 96.9062H94.852L92.8129 90.376L90.809 96.9062H89.0512L86.4496 87.3965H88.5326L90.0707 93.8916L92.0219 87.3965H93.6303L95.6078 93.9619Z" fill="black"/>
<path d="M104.049 90.5254L105.859 87.3965H108.233L105.323 92.0811L108.329 96.9062H105.974L104.075 93.6543L102.186 96.9062H99.8126L102.818 92.0811L99.9181 87.3965H102.274L104.049 90.5254Z" fill="black"/>
<path d="M113.012 93.8477L114.946 87.3965H117.222L113.443 98.3477C112.863 99.9473 111.878 100.747 110.49 100.747C110.179 100.747 109.836 100.694 109.461 100.589V98.9365L109.865 98.9629C110.405 98.9629 110.809 98.8633 111.078 98.6641C111.354 98.4707 111.571 98.1426 111.729 97.6797L112.036 96.8623L108.697 87.3965H110.999L113.012 93.8477Z" fill="black"/>
<path d="M120.734 95.2012H125.796V96.9062H118.08V95.5088L122.905 89.1191H118.168V87.3965H125.612V88.75L120.734 95.2012Z" fill="black"/>
</g>
<g id="1234567890">
<path d="M11.7412 117.906H9.61426V107.632L6.47656 108.704V106.902L11.4688 105.065H11.7412V117.906Z" fill="black"/>
<path d="M24.7934 117.906H16.1889V116.438L20.4516 111.789C21.0668 111.104 21.5033 110.532 21.7611 110.075C22.0248 109.612 22.1567 109.149 22.1567 108.687C22.1567 108.077 21.9838 107.585 21.6381 107.21C21.2983 106.835 20.8383 106.647 20.2582 106.647C19.5668 106.647 19.0307 106.858 18.6498 107.28C18.269 107.702 18.0785 108.279 18.0785 109.012H15.9428C15.9428 108.232 16.1186 107.532 16.4701 106.911C16.8275 106.284 17.3344 105.798 17.9906 105.452C18.6527 105.106 19.4145 104.934 20.2758 104.934C21.518 104.934 22.4965 105.247 23.2113 105.874C23.932 106.495 24.2924 107.356 24.2924 108.458C24.2924 109.097 24.1108 109.768 23.7475 110.471C23.39 111.168 22.8012 111.962 21.9809 112.853L18.852 116.201H24.7934V117.906Z" fill="black"/>
<path d="M28.8895 110.532H30.1903C30.8465 110.526 31.3651 110.356 31.7459 110.022C32.1326 109.688 32.326 109.205 32.326 108.572C32.326 107.963 32.1649 107.491 31.8426 107.157C31.5262 106.817 31.0399 106.647 30.3836 106.647C29.8094 106.647 29.3377 106.814 28.9686 107.148C28.5994 107.477 28.4149 107.907 28.4149 108.44H26.2791C26.2791 107.784 26.452 107.187 26.7977 106.647C27.1492 106.108 27.6356 105.689 28.2567 105.391C28.8836 105.086 29.5838 104.934 30.3572 104.934C31.6346 104.934 32.6365 105.256 33.3631 105.9C34.0955 106.539 34.4617 107.43 34.4617 108.572C34.4617 109.146 34.2772 109.688 33.908 110.198C33.5447 110.702 33.0731 111.083 32.493 111.341C33.1961 111.581 33.7293 111.959 34.0926 112.475C34.4617 112.99 34.6463 113.605 34.6463 114.32C34.6463 115.469 34.2508 116.383 33.4598 117.062C32.6746 117.742 31.6404 118.082 30.3572 118.082C29.1268 118.082 28.119 117.754 27.3338 117.098C26.5487 116.441 26.1561 115.568 26.1561 114.479H28.2918C28.2918 115.041 28.4793 115.498 28.8543 115.85C29.2352 116.201 29.7449 116.377 30.3836 116.377C31.0457 116.377 31.5672 116.201 31.9481 115.85C32.3289 115.498 32.5194 114.988 32.5194 114.32C32.5194 113.646 32.3201 113.128 31.9217 112.765C31.5233 112.401 30.9315 112.22 30.1463 112.22H28.8895V110.532Z" fill="black"/>
<path d="M43.8752 113.345H45.466V115.059H43.8752V117.906H41.7395V115.059H36.2112L36.1496 113.758L41.6692 105.109H43.8752V113.345ZM38.3908 113.345H41.7395V108.001L41.5813 108.282L38.3908 113.345Z" fill="black"/>
<path d="M47.4528 111.561L48.1471 105.109H55.0202V106.955H49.9225L49.5709 110.014C50.1627 109.674 50.8307 109.504 51.5748 109.504C52.7936 109.504 53.7399 109.894 54.4137 110.673C55.0934 111.452 55.4332 112.501 55.4332 113.819C55.4332 115.12 55.0582 116.157 54.3082 116.931C53.5582 117.698 52.5299 118.082 51.2233 118.082C50.0514 118.082 49.0787 117.751 48.3053 117.089C47.5377 116.421 47.1217 115.542 47.0573 114.452H49.1227C49.2047 115.073 49.4274 115.551 49.7907 115.885C50.1539 116.213 50.6286 116.377 51.2145 116.377C51.8707 116.377 52.3805 116.143 52.7438 115.674C53.1129 115.205 53.2975 114.566 53.2975 113.758C53.2975 112.979 53.0953 112.363 52.6911 111.912C52.2868 111.455 51.7301 111.227 51.0211 111.227C50.6344 111.227 50.3063 111.279 50.0368 111.385C49.7672 111.484 49.4743 111.684 49.1578 111.982L47.4528 111.561Z" fill="black"/>
<path d="M63.7569 105.048V106.814H63.4932C62.2979 106.832 61.3428 107.16 60.628 107.799C59.9131 108.438 59.4883 109.343 59.3536 110.515C60.0391 109.794 60.9151 109.434 61.9815 109.434C63.1124 109.434 64.003 109.832 64.6534 110.629C65.3096 111.426 65.6377 112.454 65.6377 113.714C65.6377 115.015 65.254 116.069 64.4864 116.878C63.7247 117.681 62.7227 118.082 61.4805 118.082C60.2032 118.082 59.1661 117.61 58.3692 116.667C57.5782 115.724 57.1827 114.487 57.1827 112.958V112.229C57.1827 109.984 57.7276 108.227 58.8174 106.955C59.9131 105.684 61.4864 105.048 63.5372 105.048H63.7569ZM61.4629 111.156C60.9942 111.156 60.5635 111.288 60.1709 111.552C59.7842 111.815 59.5 112.167 59.3184 112.606V113.257C59.3184 114.206 59.5176 114.962 59.9161 115.524C60.3145 116.081 60.8301 116.359 61.4629 116.359C62.0957 116.359 62.5967 116.122 62.9659 115.647C63.335 115.173 63.5196 114.549 63.5196 113.775C63.5196 113.002 63.3321 112.372 62.9571 111.886C62.5821 111.399 62.084 111.156 61.4629 111.156Z" fill="black"/>
<path d="M75.8598 106.296L70.7446 117.906H68.5034L73.6098 106.823H66.9917V105.109H75.8598V106.296Z" fill="black"/>
<path d="M85.6337 108.484C85.6337 109.111 85.4725 109.671 85.1503 110.163C84.828 110.649 84.3885 111.033 83.8319 111.314C84.4999 111.625 85.0126 112.05 85.37 112.589C85.7333 113.128 85.9149 113.737 85.9149 114.417C85.9149 115.542 85.534 116.436 84.7723 117.098C84.0106 117.754 82.9969 118.082 81.7313 118.082C80.4598 118.082 79.4403 117.751 78.6727 117.089C77.911 116.427 77.5301 115.536 77.5301 114.417C77.5301 113.731 77.7118 113.116 78.0751 112.571C78.4383 112.026 78.9481 111.607 79.6044 111.314C79.0536 111.033 78.6171 110.649 78.2948 110.163C77.9784 109.671 77.8202 109.111 77.8202 108.484C77.8202 107.395 78.1717 106.53 78.8749 105.892C79.578 105.253 80.5272 104.934 81.7225 104.934C82.9237 104.934 83.8758 105.253 84.579 105.892C85.2821 106.53 85.6337 107.395 85.6337 108.484ZM83.7792 114.312C83.7792 113.679 83.5887 113.169 83.2079 112.782C82.8329 112.39 82.3348 112.193 81.7137 112.193C81.0926 112.193 80.5946 112.387 80.2196 112.773C79.8505 113.16 79.6659 113.673 79.6659 114.312C79.6659 114.938 79.8475 115.439 80.2108 115.814C80.5799 116.189 81.0868 116.377 81.7313 116.377C82.3758 116.377 82.8768 116.195 83.2342 115.832C83.5975 115.469 83.7792 114.962 83.7792 114.312ZM83.5067 108.563C83.5067 108.007 83.3456 107.55 83.0233 107.192C82.701 106.829 82.2674 106.647 81.7225 106.647C81.1776 106.647 80.7469 106.82 80.4305 107.166C80.1141 107.506 79.9559 107.972 79.9559 108.563C79.9559 109.149 80.1141 109.615 80.4305 109.961C80.7528 110.307 81.1864 110.479 81.7313 110.479C82.2762 110.479 82.7069 110.307 83.0233 109.961C83.3456 109.615 83.5067 109.149 83.5067 108.563Z" fill="black"/>
<path d="M93.8606 112.554C93.1458 113.31 92.3108 113.688 91.3557 113.688C90.2307 113.688 89.3343 113.295 88.6663 112.51C87.9983 111.719 87.6643 110.682 87.6643 109.398C87.6643 108.555 87.8343 107.79 88.1741 107.104C88.5139 106.419 88.9973 105.886 89.6243 105.505C90.2512 105.124 90.9778 104.934 91.804 104.934C93.093 104.934 94.1155 105.414 94.8714 106.375C95.6272 107.336 96.0051 108.622 96.0051 110.233V110.831C96.0051 113.14 95.4837 114.9 94.4407 116.113C93.3977 117.326 91.8421 117.941 89.7737 117.959H89.5188V116.192H89.8264C91.0862 116.175 92.053 115.873 92.7268 115.287C93.4007 114.695 93.7786 113.784 93.8606 112.554ZM91.804 112.018C92.2317 112.018 92.6331 111.895 93.0081 111.648C93.3831 111.402 93.6731 111.062 93.8782 110.629V109.794C93.8782 108.851 93.6848 108.092 93.2981 107.518C92.9114 106.943 92.4104 106.656 91.7952 106.656C91.18 106.656 90.6878 106.911 90.3186 107.421C89.9553 107.925 89.7737 108.563 89.7737 109.337C89.7737 110.14 89.9583 110.787 90.3274 111.279C90.6966 111.771 91.1887 112.018 91.804 112.018Z" fill="black"/>
<path d="M106.377 112.519C106.377 114.358 106.031 115.747 105.34 116.685C104.654 117.616 103.608 118.082 102.202 118.082C100.819 118.082 99.7761 117.628 99.0729 116.72C98.3757 115.806 98.0182 114.455 98.0007 112.668V110.453C98.0007 108.613 98.3434 107.233 99.029 106.313C99.7204 105.394 100.772 104.934 102.184 104.934C103.585 104.934 104.628 105.382 105.313 106.278C106.005 107.175 106.359 108.517 106.377 110.304V112.519ZM104.241 110.128C104.241 108.927 104.077 108.048 103.749 107.491C103.421 106.929 102.899 106.647 102.184 106.647C101.487 106.647 100.974 106.914 100.646 107.447C100.318 107.975 100.145 108.801 100.128 109.926V112.826C100.128 114.021 100.295 114.912 100.629 115.498C100.963 116.084 101.487 116.377 102.202 116.377C102.887 116.377 103.394 116.107 103.722 115.568C104.05 115.023 104.223 114.174 104.241 113.02V110.128Z" fill="black"/>
</g>
</g>
</svg>
