<svg width="155" height="122" viewBox="0 0 155 122" fill="none" xmlns="http://www.w3.org/2000/svg">
<g id="Roboto_light_italic">
<g id="Light Italic">
<path d="M1.30566 13.5117V3.39453H2.74121V12.4385H7.29395V13.5117H1.30566Z" fill="black"/>
<path d="M8.80062 13.5117V6.08789H10.1473V13.5117H8.80062ZM8.80062 4.74121V3.39453H10.1473V4.74121H8.80062Z" fill="black"/>
<path d="M12.8639 15.9795L13.0212 14.8105C13.8005 15.1797 14.5684 15.3643 15.3249 15.3643C16.8425 15.3643 17.6012 14.5599 17.6012 12.9512V11.7822C17.1045 12.8213 16.2887 13.3408 15.154 13.3408C14.2653 13.3408 13.5589 13.0173 13.0348 12.3701C12.5108 11.723 12.2487 10.8503 12.2487 9.75195C12.2487 8.62174 12.5472 7.70117 13.1442 6.99023C13.7412 6.2793 14.5137 5.92383 15.4616 5.92383C16.291 5.92383 17.0042 6.26107 17.6012 6.93555V6.08789H18.9548V11.4883C18.9548 12.6504 18.8932 13.5094 18.7702 14.0654C18.6517 14.626 18.4261 15.084 18.0934 15.4395C17.5055 16.0638 16.5918 16.376 15.3522 16.376C14.4863 16.376 13.6569 16.2438 12.8639 15.9795ZM17.6012 10.9414V7.8584C17.0088 7.24316 16.3639 6.93555 15.6667 6.93555C15.0469 6.93555 14.5615 7.18392 14.2106 7.68066C13.8597 8.17741 13.6843 8.85872 13.6843 9.72461C13.6843 11.3516 14.2562 12.165 15.4001 12.165C16.1794 12.165 16.9131 11.7572 17.6012 10.9414Z" fill="black"/>
<path d="M21.576 13.5117V2.71777H22.9227V7.48242C23.6336 6.44336 24.5041 5.92383 25.534 5.92383C26.1766 5.92383 26.6893 6.12891 27.0721 6.53906C27.4549 6.94466 27.6463 7.49154 27.6463 8.17969V13.5117H26.2997V8.61719C26.2997 8.06576 26.2176 7.67383 26.0536 7.44141C25.8941 7.20443 25.6275 7.08594 25.2538 7.08594C24.4289 7.08594 23.6519 7.62598 22.9227 8.70605V13.5117H21.576Z" fill="black"/>
<path d="M32.503 13.6826C31.8194 13.6826 31.2862 13.4867 30.9033 13.0947C30.5205 12.7028 30.3291 12.1582 30.3291 11.4609V7.09961H29.3994V6.08789H30.3291V4.74121L31.6758 4.61133V6.08789H33.6172V7.09961H31.6758V11.2148C31.6758 12.1855 32.0951 12.6709 32.9336 12.6709C33.1114 12.6709 33.3278 12.6413 33.583 12.582V13.5117C33.1683 13.6257 32.8083 13.6826 32.503 13.6826Z" fill="black"/>
<path d="M39.8708 13.5117V3.39453H41.3064V13.5117H39.8708Z" fill="black"/>
<path d="M46.1695 13.6826C45.4859 13.6826 44.9527 13.4867 44.5699 13.0947C44.187 12.7028 43.9956 12.1582 43.9956 11.4609V7.09961H43.066V6.08789H43.9956V4.74121L45.3423 4.61133V6.08789H47.2837V7.09961H45.3423V11.2148C45.3423 12.1855 45.7616 12.6709 46.6001 12.6709C46.7779 12.6709 46.9943 12.6413 47.2495 12.582V13.5117C46.8348 13.6257 46.4748 13.6826 46.1695 13.6826Z" fill="black"/>
<path d="M52.9945 12.5684C52.1879 13.3112 51.4109 13.6826 50.6635 13.6826C50.0482 13.6826 49.5378 13.4912 49.1322 13.1084C48.7266 12.721 48.5238 12.2334 48.5238 11.6455C48.5238 10.8343 48.8633 10.2122 49.5424 9.7793C50.226 9.3418 51.2035 9.12305 52.475 9.12305H52.7963V8.22754C52.7963 7.36621 52.3542 6.93555 51.4701 6.93555C50.7592 6.93555 49.9913 7.1543 49.1664 7.5918V6.47754C50.0733 6.1084 50.9232 5.92383 51.7162 5.92383C52.5456 5.92383 53.1563 6.11068 53.5482 6.48438C53.9447 6.85807 54.1429 7.43913 54.1429 8.22754V11.5908C54.1429 12.361 54.3799 12.7461 54.8539 12.7461C54.9131 12.7461 54.9997 12.737 55.1137 12.7188L55.2094 13.4639C54.904 13.6097 54.5668 13.6826 54.1976 13.6826C53.5687 13.6826 53.1677 13.3112 52.9945 12.5684ZM52.7963 11.8369V9.91602L52.3451 9.90234C51.6068 9.90234 51.0098 10.0436 50.5541 10.3262C50.0984 10.6042 49.8705 10.971 49.8705 11.4268C49.8705 11.7503 49.9844 12.0238 50.2123 12.2471C50.4401 12.4704 50.7181 12.582 51.0463 12.582C51.6068 12.582 52.1901 12.3337 52.7963 11.8369Z" fill="black"/>
<path d="M56.8938 13.5117V2.71777H58.2404V13.5117H56.8938Z" fill="black"/>
<path d="M60.9297 13.5117V6.08789H62.2764V13.5117H60.9297ZM60.9297 4.74121V3.39453H62.2764V4.74121H60.9297Z" fill="black"/>
<path d="M67.8642 13.6826C66.8615 13.6826 66.0298 13.3112 65.369 12.5684C64.7082 11.8255 64.3778 10.889 64.3778 9.75879C64.3778 8.55111 64.7037 7.61003 65.3554 6.93555C66.0116 6.26107 66.9253 5.92383 68.0966 5.92383C68.6753 5.92383 69.3225 6.00358 70.038 6.16309V7.29102C69.2769 7.06771 68.6571 6.95605 68.1786 6.95605C67.4905 6.95605 66.9367 7.21582 66.5175 7.73535C66.1028 8.25033 65.8954 8.93848 65.8954 9.7998C65.8954 10.6338 66.1096 11.3083 66.538 11.8232C66.9664 12.3382 67.5269 12.5957 68.2196 12.5957C68.8349 12.5957 69.4683 12.4385 70.12 12.124V13.2861C69.2496 13.5505 68.4976 13.6826 67.8642 13.6826Z" fill="black"/>
</g>
<g id="ABCDEFGHIJKLM">
<path d="M12.9893 30.3203H7.38184L5.47461 33.9062H4.30566L11.2227 21.1093H12.251L14.7207 33.9062H13.6572L12.9893 30.3203ZM7.86523 29.3974H12.8135L11.5479 22.4628L7.86523 29.3974Z" fill="black"/>
<path d="M16.6419 33.9062L18.8655 21.1093L22.4691 21.1181C23.6937 21.1474 24.6165 21.4492 25.2376 22.0234C25.8587 22.5976 26.1224 23.3886 26.0286 24.3964C25.9642 25.0644 25.721 25.6474 25.2991 26.1455C24.8773 26.6376 24.306 27.0126 23.5853 27.2705C24.1946 27.458 24.6693 27.8242 25.0091 28.3691C25.3489 28.9082 25.4925 29.5292 25.4398 30.2324C25.3519 31.3457 24.9007 32.2363 24.0862 32.9042C23.2776 33.5722 22.22 33.9062 20.9134 33.9062H16.6419ZM18.7864 27.7539L17.8724 32.9921L20.9485 33.0009C21.8743 33.0009 22.6507 32.7578 23.2776 32.2714C23.9105 31.7851 24.2767 31.1113 24.3763 30.2499C24.4525 29.5058 24.2825 28.9111 23.8665 28.4658C23.4564 28.0205 22.8558 27.7861 22.0648 27.7626L18.7864 27.7539ZM18.9359 26.8486L21.7396 26.8574C22.6536 26.8457 23.3948 26.6142 23.9632 26.163C24.5374 25.7119 24.8655 25.1083 24.9476 24.3525C25.0941 22.8701 24.2591 22.0996 22.4427 22.041L19.7796 22.0322L18.9359 26.8486Z" fill="black"/>
<path d="M36.9025 29.916C36.6037 31.2343 35.9972 32.2685 35.0832 33.0185C34.1691 33.7626 33.0529 34.1171 31.7345 34.082C30.5919 34.0585 29.6808 33.6542 29.0011 32.8691C28.3273 32.0781 27.964 31.0146 27.9113 29.6787C27.8937 29.2216 27.9142 28.7675 27.9728 28.3164L28.2101 26.7695C28.3918 25.5917 28.755 24.5488 29.3 23.6406C29.8507 22.7324 30.5187 22.0498 31.3039 21.5927C32.089 21.1357 32.9533 20.916 33.8966 20.9335C35.1154 20.957 36.0675 21.3437 36.7531 22.0937C37.4386 22.8437 37.7755 23.8544 37.7638 25.1259L36.7003 25.1171C36.7003 24.0917 36.4543 23.2978 35.9621 22.7353C35.4699 22.1669 34.7638 21.871 33.8439 21.8476C32.6837 21.8183 31.6935 22.2519 30.8732 23.1484C30.0587 24.039 29.5285 25.2724 29.2824 26.8486L29.0187 28.6064L28.9836 29.3974C28.9718 30.0888 29.0714 30.7304 29.2824 31.3222C29.4992 31.914 29.8214 32.3652 30.2492 32.6757C30.6769 32.9863 31.1896 33.1503 31.7873 33.1679C32.8068 33.2031 33.6593 32.9482 34.3449 32.4033C35.0304 31.8525 35.5343 31.0263 35.8566 29.9248L36.9025 29.916Z" fill="black"/>
<path d="M38.8589 33.9062L41.0825 21.1093L44.4135 21.1181C45.4038 21.1181 46.2622 21.373 46.9887 21.8828C47.7153 22.3867 48.2397 23.0869 48.562 23.9833C48.8901 24.874 48.9868 25.8554 48.852 26.9277L48.6938 27.9912C48.4243 29.7665 47.7153 31.1962 46.5669 32.2802C45.4184 33.3642 44.0092 33.9062 42.3393 33.9062H38.8589ZM41.9966 22.0322L40.0893 32.9921L42.3745 33.0009C43.271 33.0009 44.0883 32.7958 44.8266 32.3857C45.5649 31.9755 46.1743 31.3984 46.6548 30.6542C47.1411 29.9042 47.4575 29.0605 47.604 28.123C47.7563 27.1796 47.8354 26.5292 47.8413 26.1718C47.853 25.8144 47.8354 25.4687 47.7885 25.1347C47.6538 24.1972 47.2964 23.4531 46.7163 22.9023C46.1362 22.3515 45.3862 22.0644 44.4663 22.041L41.9966 22.0322Z" fill="black"/>
<path d="M58.3372 27.7714H52.5364L51.6224 32.9921H58.3021L58.1439 33.9062H50.3919L52.6155 21.1093H60.3235L60.1566 22.0322H53.5296L52.6859 26.8574H58.4954L58.3372 27.7714Z" fill="black"/>
<path d="M68.3056 27.9296H62.5224L61.4765 33.9062H60.4042L62.6279 21.1093H70.3447L70.1777 22.0322H63.5419L62.6718 27.0068H68.4726L68.3056 27.9296Z" fill="black"/>
<path d="M79.6225 32.3857C79.1889 32.9423 78.5649 33.3701 77.7505 33.6689C76.9419 33.9619 76.0395 34.0996 75.0434 34.082C73.854 34.0703 72.8901 33.663 72.1518 32.8603C71.4135 32.0576 71.0092 30.9882 70.9389 29.6523C70.9096 29.1718 70.9272 28.7031 70.9917 28.246L71.2114 26.7871C71.4868 24.9941 72.1342 23.5644 73.1538 22.498C74.1792 21.4257 75.4507 20.9042 76.9682 20.9335C78.1401 20.957 79.0776 21.3056 79.7807 21.9794C80.4839 22.6533 80.853 23.5673 80.8882 24.7216H79.8335C79.7924 23.831 79.5229 23.1367 79.0249 22.6386C78.5268 22.1406 77.8266 21.8798 76.9243 21.8564C75.729 21.8271 74.7153 22.2578 73.8833 23.1484C73.0571 24.039 72.5239 25.2636 72.2837 26.8222L72.0727 28.1933C72.0141 28.5742 71.9907 28.9667 72.0024 29.371C72.02 30.5312 72.3012 31.4511 72.8462 32.1308C73.3911 32.8046 74.1352 33.1474 75.0786 33.1591C76.5844 33.1884 77.7417 32.8193 78.5503 32.0517L79.1303 28.747H75.7993L75.9575 27.833H80.3608L79.6225 32.3857Z" fill="black"/>
<path d="M91.5633 33.9062H90.4822L91.5545 27.7714H84.4881L83.4158 33.9062H82.3435L84.5672 21.1093H85.6394L84.6375 26.8574H91.7039L92.7058 21.1093H93.7957L91.5633 33.9062Z" fill="black"/>
<path d="M96.0968 33.9062H95.0246L97.2482 21.1093H98.3205L96.0968 33.9062Z" fill="black"/>
<path d="M107.333 21.1093H108.414L106.876 30.1005C106.706 31.29 106.228 32.2597 105.443 33.0097C104.658 33.7539 103.68 34.1142 102.508 34.0908C101.406 34.0673 100.568 33.7275 99.994 33.0712C99.4198 32.4091 99.1854 31.5126 99.2909 30.3818H100.363C100.275 31.2373 100.425 31.9111 100.811 32.4033C101.198 32.8955 101.787 33.1533 102.578 33.1767C103.392 33.2001 104.093 32.9335 104.679 32.3769C105.264 31.8203 105.637 31.0673 105.795 30.1181L107.333 21.1093Z" fill="black"/>
<path d="M113.197 27.5693L111.105 29.371L110.314 33.9062H109.242L111.465 21.1093H112.538L111.351 27.9296L113.399 26.0839L118.831 21.1093H120.263L114.014 26.8574L118.356 33.9062H117.143L113.197 27.5693Z" fill="black"/>
<path d="M121.585 32.9921H127.72L127.561 33.9062H120.346L122.569 21.1093H123.65L121.585 32.9921Z" fill="black"/>
<path d="M133.259 21.1093L135.869 32.3769L142.408 21.1093H143.858L141.635 33.9062H140.562L141.538 28.29L142.584 22.7529L136.071 33.9062H135.245L132.591 22.665L131.685 28.3427L130.719 33.9062H129.646L131.87 21.1093H133.259Z" fill="black"/>
</g>
<g id="NOPQRSTUVWXYZ">
<path d="M14.9141 54.9062H13.877L8.62988 43.9375L6.72266 54.9062H5.6416L7.86523 42.1093H8.90234L14.1582 53.0869L16.0654 42.1093H17.1289L14.9141 54.9062Z" fill="black"/>
<path d="M22.559 55.082C21.3636 55.0586 20.4144 54.6455 19.7113 53.8427C19.014 53.0341 18.6361 51.956 18.5775 50.6084C18.5541 50.1396 18.5746 49.6738 18.639 49.2109L18.8148 47.998C19.0785 46.2109 19.723 44.7519 20.7484 43.6211C21.7972 42.4668 23.0922 41.9043 24.6332 41.9336C25.4183 41.9511 26.1039 42.1445 26.6898 42.5136C27.2816 42.8769 27.7416 43.4101 28.0697 44.1132C28.3978 44.8105 28.5765 45.5781 28.6058 46.416C28.6234 46.9199 28.597 47.4121 28.5267 47.8925L28.3246 49.2461C28.1195 50.4531 27.7386 51.5078 27.182 52.4101C26.6312 53.3125 25.9603 53.9892 25.1693 54.4404C24.3783 54.8857 23.5082 55.0996 22.559 55.082ZM27.472 47.7959C27.5189 47.4267 27.5453 47.0517 27.5511 46.6709C27.5511 45.956 27.4398 45.3056 27.2172 44.7197C26.9945 44.1338 26.6576 43.6855 26.2064 43.375C25.7611 43.0586 25.2191 42.8916 24.5804 42.874C23.4086 42.8447 22.4095 43.2666 21.5834 44.1396C20.7572 45.0068 20.2123 46.1816 19.9486 47.664C19.7377 48.8652 19.6351 49.7529 19.641 50.3271C19.641 51.5107 19.8988 52.4365 20.4144 53.1045C20.9359 53.7724 21.6683 54.1181 22.6117 54.1416C23.8597 54.1709 24.891 53.7197 25.7054 52.788C26.5258 51.8564 27.0502 50.6259 27.2787 49.0966L27.472 47.7959Z" fill="black"/>
<path d="M32.009 49.6943L31.1037 54.9062H30.0315L32.2551 42.1093L36.4211 42.1181C37.6164 42.1533 38.5393 42.5078 39.1897 43.1816C39.8401 43.8496 40.1154 44.7461 40.0158 45.8711C39.8987 47.0664 39.4153 48.0039 38.5656 48.6836C37.716 49.3632 36.6086 49.7031 35.2434 49.7031L32.009 49.6943ZM32.1672 48.7802L35.2873 48.789C36.301 48.789 37.136 48.5312 37.7922 48.0156C38.4485 47.5 38.8322 46.788 38.9436 45.8798C39.0373 45.0127 38.8498 44.33 38.3811 43.832C37.9182 43.3281 37.2561 43.0644 36.3947 43.041L33.1692 43.0322L32.1672 48.7802Z" fill="black"/>
<path d="M47.7169 54.4668L49.6153 56.5146L48.8155 57.1386L46.6885 54.8886C46.1846 55.0117 45.7042 55.0732 45.2471 55.0732C44.4678 55.0673 43.7852 54.8798 43.1993 54.5107C42.6133 54.1416 42.1563 53.6113 41.8282 52.9199C41.5059 52.2226 41.3272 51.4463 41.292 50.5908C41.2686 50.1103 41.2891 49.6474 41.3536 49.2021L41.5469 47.8925C41.7227 46.7148 42.0889 45.6572 42.6456 44.7197C43.2022 43.7822 43.8819 43.0791 44.6846 42.6103C45.4874 42.1416 46.3721 41.916 47.3389 41.9336C48.5342 41.957 49.4835 42.3701 50.1866 43.1728C50.8897 43.9756 51.2676 45.0566 51.3204 46.416C51.3379 46.9199 51.3116 47.4121 51.2413 47.8925L51.0128 49.4043C50.5733 51.8359 49.4747 53.5234 47.7169 54.4668ZM50.1866 47.8047C50.2335 47.4355 50.2598 47.0576 50.2657 46.6709C50.2657 45.9502 50.1514 45.2939 49.9229 44.7021C49.6944 44.1103 49.3545 43.6621 48.9034 43.3574C48.4581 43.0527 47.919 42.8916 47.2862 42.874C46.1026 42.8447 45.0977 43.2724 44.2715 44.1572C43.4512 45.0361 42.9122 46.2226 42.6544 47.7168C42.4493 48.9179 42.3467 49.788 42.3467 50.3271C42.3467 51.4814 42.6016 52.4013 43.1114 53.0869C43.627 53.7666 44.3624 54.1181 45.3174 54.1416C46.5596 54.1709 47.5909 53.7255 48.4112 52.8056C49.2315 51.8857 49.7588 50.6435 49.9932 49.0791L50.1866 47.8047Z" fill="black"/>
<path d="M58.3798 49.58H54.7675L53.8358 54.9062H52.7548L54.9784 42.1093L58.7665 42.1181C60.0438 42.1181 61.0282 42.4521 61.7196 43.1201C62.411 43.7822 62.7011 44.6787 62.5897 45.8095C62.5019 46.665 62.1796 47.4033 61.623 48.0244C61.0722 48.6455 60.3368 49.0966 59.4169 49.3779L61.5966 54.7832L61.5878 54.9062H60.4452L58.3798 49.58ZM54.9257 48.6572L58.0897 48.666C58.9921 48.666 59.7626 48.4023 60.4013 47.875C61.0458 47.3418 61.4179 46.6504 61.5175 45.8007C61.6171 44.9804 61.4355 44.3213 60.9726 43.8232C60.5097 43.3252 59.8271 43.0644 58.9247 43.041L55.9013 43.0322L54.9257 48.6572Z" fill="black"/>
<path d="M71.5386 51.6982C71.6734 50.5966 71.0845 49.7881 69.772 49.2724L68.0933 48.666L67.5484 48.4463C65.8843 47.7373 65.1138 46.6914 65.2368 45.3086C65.2896 44.6289 65.5298 44.0312 65.9576 43.5156C66.3853 43 66.9478 42.6045 67.6451 42.3291C68.3482 42.0478 69.0923 41.916 69.8775 41.9336C70.6333 41.9511 71.3072 42.1269 71.899 42.4609C72.4966 42.789 72.9419 43.2402 73.2349 43.8144C73.5337 44.3886 73.6509 45.0361 73.5865 45.7568H72.5054C72.5874 44.8896 72.3824 44.1953 71.8902 43.6738C71.4038 43.1523 70.7154 42.8798 69.8247 42.8564C68.899 42.8447 68.105 43.0586 67.4429 43.498C66.7867 43.9316 66.4117 44.5263 66.3179 45.2822C66.2417 45.8857 66.4175 46.4013 66.8452 46.8291C67.2788 47.2509 68.0288 47.6201 69.0952 47.9365C70.4546 48.3701 71.398 48.8886 71.9253 49.4922C72.4585 50.0957 72.69 50.8222 72.6197 51.6718C72.5552 52.375 72.3091 52.9873 71.8814 53.5088C71.4536 54.0244 70.8824 54.4199 70.1675 54.6953C69.4527 54.9707 68.6851 55.0996 67.8648 55.082C67.0503 55.0761 66.315 54.9091 65.6587 54.581C65.0083 54.2529 64.5191 53.8047 64.1909 53.2363C63.8687 52.6621 63.7398 52 63.8042 51.25H64.8765C64.7886 52.1406 65.0259 52.8496 65.5884 53.3769C66.1568 53.8984 66.9331 54.165 67.9175 54.1767C68.9019 54.1884 69.7281 53.9658 70.396 53.5088C71.0699 53.0517 71.4507 52.4482 71.5386 51.6982Z" fill="black"/>
<path d="M84.8908 43.0322H80.6457L78.5802 54.9062H77.508L79.5734 43.0322H75.3195L75.4865 42.1093H85.0578L84.8908 43.0322Z" fill="black"/>
<path d="M95.7437 42.1093L94.2583 50.7666C94.0474 52.1142 93.482 53.1777 92.562 53.957C91.6421 54.7363 90.523 55.1142 89.2046 55.0908C88.3784 55.0732 87.6636 54.8828 87.0601 54.5195C86.4624 54.1562 86.0259 53.6464 85.7505 52.9902C85.481 52.3339 85.396 51.5986 85.4956 50.7841L86.981 42.1093H88.0445L86.5679 50.7929C86.4449 51.7832 86.6265 52.5859 87.1128 53.2011C87.5992 53.8105 88.314 54.1328 89.2574 54.1679C90.2417 54.2031 91.0884 53.9306 91.7974 53.3505C92.5064 52.7705 92.9576 51.9648 93.1509 50.9336L94.6626 42.1093H95.7437Z" fill="black"/>
<path d="M100.535 53.3242L100.553 53.5966L100.676 53.3242L106.336 42.1093H107.549L100.922 54.9062H99.8937L97.2834 42.1093H98.3644L100.535 53.3242Z" fill="black"/>
<path d="M110.281 51.4873L110.342 53.3769L111.107 51.5048L115.255 42.1093H116.222L117.418 51.5927L117.567 53.4033L118.288 51.417L121.979 42.1093H123.104L117.918 54.9062H116.89L115.633 44.8515L115.537 43.6738L115.044 44.8955L110.597 54.9062H109.569L108.391 42.1093H109.463L110.281 51.4873Z" fill="black"/>
<path d="M128.078 47.5058L132.411 42.1093H133.747L128.615 48.4726L131.814 54.9062H130.601L127.867 49.3339L123.367 54.9062H122.04L127.34 48.3672L124.229 42.1093H125.442L128.078 47.5058Z" fill="black"/>
<path d="M138.486 49.0703L143.479 42.1093H144.779L138.864 50.1425L138.038 54.9062H136.966L137.819 50.0283L134.742 42.1093H135.946L138.486 49.0703Z" fill="black"/>
<path d="M145.094 53.9922H152.732L152.565 54.9062H143.609L143.758 54.0361L153.004 43.0322H145.885L146.052 42.1093H154.516L154.376 42.9355L145.094 53.9922Z" fill="black"/>
</g>
<g id="abcdefghijklm">
<path d="M11.3193 75.9063C11.29 75.6836 11.2813 75.461 11.293 75.2383L11.3721 74.5791C10.9326 75.0537 10.4287 75.4258 9.86036 75.6953C9.29786 75.9649 8.68848 76.0938 8.03223 76.0821C7.2295 76.0703 6.57618 75.8184 6.07227 75.3262C5.57422 74.8282 5.35157 74.2041 5.4043 73.4541C5.45118 72.8272 5.66504 72.2852 6.0459 71.8282C6.43262 71.3653 6.98047 71.0078 7.68946 70.7559C8.39844 70.4981 9.19239 70.3692 10.0713 70.3692L12.0137 70.378L12.1719 69.2881C12.2422 68.6377 12.1016 68.1162 11.75 67.7237C11.3984 67.3311 10.8799 67.1231 10.1943 67.0996C9.50293 67.0879 8.89942 67.2608 8.38379 67.6182C7.87403 67.9698 7.55469 68.4356 7.42579 69.0157H6.39747C6.51465 68.1836 6.94239 67.5069 7.68067 66.9854C8.41895 66.458 9.292 66.2002 10.2998 66.2119C11.2783 66.2354 12.0313 66.5313 12.5586 67.0996C13.0918 67.668 13.3086 68.4063 13.209 69.3145L12.418 74.0957L12.3477 74.8604C12.3301 75.1768 12.3535 75.4903 12.418 75.8008L12.4004 75.9063H11.3193ZM8.20801 75.1592C8.85254 75.1826 9.46778 75.0303 10.0537 74.7022C10.6455 74.3682 11.1348 73.8965 11.5215 73.2871L11.8818 71.1866L10.2031 71.1778C9.13672 71.1778 8.26661 71.3682 7.59278 71.7491C6.91895 72.1241 6.54688 72.6631 6.47657 73.3662C6.42383 73.8819 6.5586 74.3067 6.88086 74.6407C7.20899 74.9746 7.65137 75.1475 8.20801 75.1592Z" fill="black"/>
<path d="M23.1127 71.1953C22.9076 72.7071 22.4242 73.9082 21.6625 74.7989C20.9066 75.6895 19.9691 76.1201 18.85 76.0908C18.2289 76.0791 17.681 75.9414 17.2064 75.6778C16.7377 75.4141 16.3773 75.0567 16.1254 74.6055L15.8265 75.9063H14.8422L17.1888 62.4063H18.226L17.2328 67.7764C18.0472 66.7041 19.0756 66.1856 20.3178 66.2207C21.226 66.2442 21.9262 66.5811 22.4183 67.2315C22.9105 67.8819 23.1654 68.7813 23.183 69.9297C23.1888 70.3047 23.1713 70.6651 23.1303 71.0108L23.1127 71.1953ZM22.0844 70.9932L22.1459 70.1582C22.1635 69.2032 21.9965 68.4649 21.6449 67.9434C21.2933 67.4219 20.7689 67.1494 20.0717 67.126C18.7885 67.1026 17.7836 67.753 17.057 69.0772L16.3363 73.3838C16.5062 73.9522 16.7963 74.3916 17.2064 74.7022C17.6224 75.0069 18.1263 75.168 18.7181 75.1856C19.5912 75.2032 20.3207 74.8662 20.9066 74.1748C21.4984 73.4776 21.891 72.417 22.0844 70.9932Z" fill="black"/>
<path d="M28.316 75.2032C29.0074 75.2266 29.6168 75.0362 30.1441 74.6319C30.6773 74.2217 31.0318 73.6709 31.2076 72.9795H32.2008C32.025 73.9229 31.5621 74.6846 30.8121 75.2647C30.068 75.8389 29.2184 76.1143 28.2633 76.0908C27.4957 76.0733 26.8512 75.8623 26.3297 75.458C25.8082 75.0537 25.4303 74.4942 25.1959 73.7793C24.9674 73.0645 24.8941 72.2588 24.9762 71.3623L25.0113 70.9844C25.0816 70.3692 25.231 69.7715 25.4596 69.1914C25.6939 68.6114 26.0045 68.0987 26.3912 67.6533C26.7779 67.2022 27.2379 66.8477 27.7711 66.5899C28.3102 66.3262 28.9166 66.2032 29.5904 66.2207C30.5631 66.2442 31.3365 66.5723 31.9107 67.2051C32.485 67.8379 32.7545 68.6407 32.7193 69.6133L31.7262 69.6045C31.7379 68.8721 31.5475 68.2803 31.1549 67.8291C30.7623 67.378 30.2262 67.1407 29.5465 67.1172C28.8199 67.0938 28.1783 67.3047 27.6217 67.75C27.065 68.1953 26.6461 68.8252 26.3648 69.6397C26.0836 70.4541 25.9518 71.3184 25.9693 72.2325C25.9869 73.1758 26.1978 73.9024 26.6021 74.4121C27.0064 74.916 27.5777 75.1797 28.316 75.2032Z" fill="black"/>
<path d="M34.1504 71.125C34.2851 70.1289 34.5576 69.2471 34.9677 68.4795C35.3779 67.7061 35.8789 67.1319 36.4707 66.7569C37.0683 66.3819 37.7363 66.2032 38.4746 66.2207C39.0371 66.2325 39.5498 66.3643 40.0127 66.6162C40.4756 66.8623 40.8418 67.2373 41.1113 67.7412L42.0781 62.4063H43.1152L40.7685 75.9063H39.7929L40.0302 74.6407C39.2041 75.6367 38.1787 76.1172 36.9541 76.0821C36.0693 76.0586 35.375 75.7158 34.8711 75.0537C34.373 74.3858 34.1123 73.4893 34.0888 72.3643C34.0771 72.001 34.0918 71.6494 34.1328 71.3096L34.1504 71.125ZM35.205 71.3008C35.1582 71.6934 35.1406 72.1123 35.1523 72.5576C35.1757 73.3604 35.3603 73.9932 35.706 74.4561C36.0576 74.9131 36.5556 75.1533 37.2002 75.1768C37.8506 75.1944 38.4218 75.045 38.914 74.7285C39.4062 74.4121 39.8222 73.9903 40.1621 73.4629L40.9267 68.9805C40.7568 68.4121 40.4756 67.9668 40.083 67.6446C39.6963 67.3164 39.2011 67.1436 38.5976 67.126C37.707 67.0967 36.9629 67.4395 36.3652 68.1543C35.7734 68.8633 35.3925 69.8506 35.2226 71.1162L35.205 71.3008Z" fill="black"/>
<path d="M47.2882 76.0821C46.5265 76.0703 45.8673 75.8594 45.3107 75.4492C44.754 75.0332 44.3439 74.4707 44.0802 73.7617C43.8224 73.0469 43.7316 72.2764 43.8077 71.4502L43.8341 71.1514C43.9161 70.2725 44.1769 69.4375 44.6163 68.6465C45.0558 67.8496 45.6124 67.2432 46.2863 66.8272C46.9601 66.4053 47.6808 66.2032 48.4484 66.2207C49.1573 66.2325 49.755 66.4258 50.2413 66.8008C50.7335 67.1758 51.0909 67.6973 51.3136 68.3653C51.5363 69.0332 51.6066 69.7715 51.5245 70.5801L51.4542 71.2217H44.8712L44.8448 71.4326C44.757 72.0713 44.8038 72.6836 44.9855 73.2696C45.1671 73.8496 45.463 74.3125 45.8732 74.6582C46.2892 74.9981 46.7872 75.1739 47.3673 75.1856C47.9298 75.2032 48.4366 75.0948 48.8878 74.8604C49.339 74.626 49.755 74.3125 50.1359 73.92L50.7511 74.4209C50.3234 74.9717 49.8136 75.3907 49.2218 75.6778C48.6359 75.959 47.9913 76.0938 47.2882 76.0821ZM48.3956 67.1172C47.6339 67.0879 46.9513 67.3575 46.3478 67.9258C45.7443 68.4942 45.2902 69.294 44.9855 70.3252L50.505 70.334L50.5314 70.2022C50.6368 69.3701 50.4904 68.6553 50.0919 68.0576C49.6935 67.4541 49.128 67.1407 48.3956 67.1172Z" fill="black"/>
<path d="M53.3509 75.9063L54.8538 67.2578H53.3245L53.4827 66.3965H55.0032L55.1878 65.1045C55.3343 64.1729 55.6887 63.4522 56.2512 62.9424C56.8196 62.4326 57.5257 62.1836 58.3694 62.1953C58.7093 62.2071 59.093 62.2657 59.5208 62.3711L59.3362 63.2412C59.0081 63.1533 58.6946 63.1094 58.3958 63.1094C57.8098 63.1094 57.3235 63.2998 56.9368 63.6807C56.5559 64.0616 56.3157 64.5918 56.2161 65.2715L56.0491 66.3965H58.2552L58.097 67.2578H55.9085L54.4055 75.9063H53.3509Z" fill="black"/>
<path d="M63.0228 66.2119C63.5911 66.2295 64.1097 66.3643 64.5784 66.6162C65.0472 66.8682 65.4163 67.252 65.6859 67.7676L66.011 66.3965H66.9866L65.387 75.7393C65.2757 76.5362 65.0237 77.2393 64.6312 77.8487C64.2386 78.458 63.7347 78.9239 63.1194 79.2461C62.5101 79.5742 61.8304 79.7266 61.0804 79.7032C60.4827 79.6914 59.9114 79.542 59.3665 79.2549C58.8157 78.9619 58.3734 78.5547 58.0394 78.0332L58.6898 77.418C59.2933 78.3262 60.0814 78.792 61.054 78.8155C61.9212 78.8389 62.6448 78.5752 63.2249 78.0244C63.8109 77.4795 64.18 76.7354 64.3323 75.792L64.5609 74.6846C63.7171 75.6514 62.7005 76.1172 61.511 76.0821C60.6204 76.0586 59.9261 75.7188 59.428 75.0625C58.9359 74.4004 58.678 73.501 58.6546 72.3643C58.6194 71.3155 58.7952 70.2783 59.1819 69.253C59.5687 68.2276 60.0931 67.46 60.7552 66.9502C61.4232 66.4346 62.179 66.1885 63.0228 66.2119ZM59.7532 71.3096L59.7005 72.127C59.6829 73.0879 59.8499 73.8321 60.2015 74.3594C60.553 74.8809 61.0716 75.1533 61.7571 75.1768C62.3431 75.2002 62.8909 75.0625 63.4007 74.7637C63.9105 74.4649 64.3499 74.0225 64.7191 73.4366L65.4661 68.9981C65.3079 68.4297 65.0325 67.9815 64.64 67.6533C64.2532 67.3194 63.7552 67.1436 63.1458 67.126C62.2493 67.0967 61.5052 67.4424 60.9134 68.1631C60.3275 68.8838 59.9407 69.9326 59.7532 71.3096Z" fill="black"/>
<path d="M70.4128 68.0049C71.3268 66.792 72.405 66.1973 73.6472 66.2207C74.5612 66.2442 75.2263 66.5635 75.6423 67.1787C76.0583 67.794 76.2048 68.6407 76.0817 69.7188L75.0446 75.9063H74.0075L75.0446 69.7012C75.0798 69.3672 75.0856 69.045 75.0622 68.7344C74.9626 67.6914 74.3942 67.1553 73.3571 67.126C72.7419 67.1143 72.1677 67.2989 71.6345 67.6797C71.1013 68.0547 70.6325 68.6231 70.2282 69.3848L69.1032 75.9063H68.0661L70.4128 62.4063H71.4499L70.4128 68.0049Z" fill="black"/>
<path d="M78.9048 75.9063H77.8501L79.5113 66.3965H80.5572L78.9048 75.9063ZM79.8013 63.6455C79.8306 63.2647 80.0826 63.0244 80.5572 62.9248C80.7857 62.9658 80.9468 63.0391 81.0406 63.1446C81.1402 63.2442 81.2046 63.4112 81.2339 63.6455C81.1753 63.8682 81.0904 64.0323 80.979 64.1377C80.8677 64.2373 80.7007 64.3106 80.4781 64.3575C80.0034 64.2871 79.7779 64.0498 79.8013 63.6455Z" fill="black"/>
<path d="M84.5246 66.3965L82.7141 77.0401C82.5969 77.9248 82.2893 78.6075 81.7912 79.0879C81.2932 79.5684 80.6545 79.7969 79.8752 79.7735C79.6233 79.7676 79.3039 79.7061 78.9172 79.5889L79.0403 78.7188C79.3625 78.8067 79.6203 78.8506 79.8137 78.8506C80.8391 78.8741 81.4602 78.2559 81.677 76.9961L83.4875 66.3965H84.5246ZM83.7863 63.6455C83.7981 63.4522 83.8713 63.2852 84.0061 63.1446C84.1467 63.0039 84.3195 62.9307 84.5246 62.9248C84.7297 62.919 84.8967 62.9864 85.0256 63.127C85.1545 63.2676 85.2131 63.4405 85.2014 63.6455C85.1838 63.8448 85.1018 64.0117 84.9553 64.1465C84.8147 64.2813 84.6447 64.3516 84.4455 64.3575C84.2404 64.3633 84.0735 64.2989 83.9445 64.1641C83.8215 64.0235 83.7688 63.8506 83.7863 63.6455Z" fill="black"/>
<path d="M88.9034 71.1338L87.4971 72.3203L86.8731 75.9063H85.8272L88.1739 62.4063H89.2198L87.7256 70.9668L88.8155 69.9649L92.9551 66.3965H94.3526L89.6768 70.4483L92.9551 75.9063H91.795L88.9034 71.1338Z" fill="black"/>
<path d="M95.6518 75.9063H94.5971L96.9438 62.4063H97.9985L95.6518 75.9063Z" fill="black"/>
<path d="M101.105 66.3965L100.806 67.9434C101.661 66.7715 102.736 66.1973 104.031 66.2207C104.699 66.2325 105.253 66.3994 105.692 66.7217C106.138 67.044 106.413 67.4922 106.519 68.0664C106.952 67.4746 107.456 67.0176 108.03 66.6953C108.61 66.3672 109.24 66.209 109.92 66.2207C110.822 66.2383 111.49 66.5371 111.924 67.1172C112.363 67.6914 112.545 68.4883 112.469 69.5078L112.451 69.71L111.405 75.9063H110.359L111.397 69.6924C111.432 69.3467 111.435 69.0186 111.405 68.708C111.288 67.6709 110.696 67.1436 109.63 67.126C108.915 67.1143 108.256 67.3487 107.652 67.8291C107.055 68.3037 106.68 68.8985 106.527 69.6133L105.438 75.9063H104.392L105.446 69.6133C105.616 67.9961 105.022 67.167 103.662 67.126C102.988 67.1143 102.361 67.3252 101.781 67.7588C101.201 68.1924 100.812 68.7315 100.612 69.376L99.4874 75.9063H98.4415L100.094 66.3965H101.105Z" fill="black"/>
</g>
<g id="nopqrstuvwxyz">
<path d="M8.05859 87.3965L7.74219 89.0225C8.16406 88.4365 8.65039 87.9883 9.20117 87.6777C9.75781 87.3613 10.3525 87.209 10.9854 87.2207C11.8994 87.2441 12.5645 87.5635 12.9805 88.1787C13.3965 88.7939 13.543 89.6406 13.4199 90.7188L12.3828 96.9062H11.3457L12.3828 90.7012C12.418 90.3672 12.4238 90.0449 12.4004 89.7344C12.3008 88.6914 11.7324 88.1553 10.6953 88.126C10.0801 88.1143 9.50586 88.2988 8.97266 88.6797C8.43945 89.0547 7.9707 89.623 7.56641 90.3848L6.44141 96.9062H5.4043L7.05664 87.3965H8.05859Z" fill="black"/>
<path d="M15.3443 92.0635C15.4498 91.1436 15.731 90.3027 16.1881 89.541C16.6451 88.7734 17.2135 88.1904 17.8932 87.792C18.5787 87.3936 19.3199 87.2031 20.1168 87.2207C20.9019 87.2324 21.5699 87.4492 22.1207 87.8711C22.6773 88.2871 23.0816 88.8584 23.3336 89.585C23.5914 90.3057 23.6793 91.1055 23.5973 91.9844L23.5797 92.1514C23.4039 93.6514 22.8707 94.8555 21.9801 95.7637C21.0953 96.6719 20.0318 97.1113 18.7896 97.082C17.7232 97.0645 16.8707 96.6719 16.232 95.9043C15.5934 95.1367 15.2799 94.123 15.2916 92.8633L15.318 92.3623L15.3443 92.0635ZM16.3639 92.3623C16.2877 93.0596 16.3375 93.7041 16.5133 94.2959C16.6949 94.8818 16.982 95.3418 17.3746 95.6758C17.7672 96.0098 18.2564 96.1855 18.8424 96.2031C19.4752 96.2148 20.0523 96.0537 20.5738 95.7197C21.1012 95.3857 21.5348 94.9141 21.8746 94.3047C22.2144 93.6953 22.4342 93.0215 22.5338 92.2832L22.5601 91.9932C22.6656 90.8623 22.4898 89.9395 22.0328 89.2246C21.5816 88.5039 20.9254 88.1348 20.0641 88.1172C19.1266 88.0879 18.315 88.4512 17.6295 89.207C16.9498 89.957 16.5338 90.9561 16.3814 92.2041L16.3639 92.3623Z" fill="black"/>
<path d="M28.9762 97.0908C28.4313 97.0791 27.9156 96.9648 27.4293 96.748C26.9488 96.5254 26.5592 96.1797 26.2604 95.7109L25.3815 100.562H24.3443L26.6295 87.3965H27.5963L27.3502 88.7412C28.1764 87.6924 29.2106 87.1855 30.4527 87.2207C31.3434 87.2441 32.0377 87.5752 32.5358 88.2139C33.0338 88.8525 33.2916 89.7578 33.3092 90.9297C33.3151 91.2988 33.2975 91.6562 33.2565 92.002L33.2213 92.248C33.0748 93.2734 32.7994 94.1582 32.3951 94.9023C31.9908 95.6465 31.4986 96.2031 30.9186 96.5723C30.3385 96.9355 29.691 97.1084 28.9762 97.0908ZM32.2106 92.002L32.2633 91.167C32.2809 90.2295 32.111 89.4941 31.7535 88.9609C31.3961 88.4277 30.8658 88.1494 30.1627 88.126C29.5475 88.1143 28.9879 88.2666 28.484 88.583C27.986 88.8936 27.5641 89.3477 27.2184 89.9453L26.4361 94.5244C26.6236 95.0635 26.9195 95.4736 27.3238 95.7549C27.734 96.0361 28.2233 96.1855 28.7916 96.2031C29.6412 96.2324 30.359 95.916 30.9449 95.2539C31.5367 94.5859 31.9352 93.6572 32.1402 92.4678L32.2106 92.002Z" fill="black"/>
<path d="M35.2077 92.1162C35.4127 90.6045 35.8961 89.4033 36.6578 88.5127C37.4254 87.6221 38.3834 87.1914 39.5319 87.2207C40.0885 87.2324 40.5983 87.3584 41.0612 87.5986C41.5241 87.833 41.8961 88.1963 42.1774 88.6885L42.485 87.3965H43.4694L41.1842 100.562H40.1383L41.0348 95.7285C40.2203 96.666 39.2155 97.1172 38.0201 97.082C37.1295 97.0586 36.4323 96.7217 35.9284 96.0713C35.4303 95.415 35.1696 94.5156 35.1461 93.373C35.1344 93.0098 35.1491 92.6553 35.1901 92.3096L35.2077 92.1162ZM36.2535 92.3008L36.192 93.127C36.1744 94.0879 36.3385 94.835 36.6842 95.3682C37.0358 95.9014 37.5602 96.1797 38.2575 96.2031C38.8375 96.2266 39.3766 96.0947 39.8746 95.8076C40.3785 95.5205 40.8151 95.1045 41.1842 94.5596L41.984 89.8838C41.8024 89.3447 41.5153 88.9199 41.1227 88.6094C40.736 88.2988 40.2496 88.1348 39.6637 88.1172C38.7496 88.0879 37.9967 88.4424 37.4049 89.1807C36.8131 89.9189 36.4352 90.8975 36.2711 92.1162L36.2535 92.3008Z" fill="black"/>
<path d="M50.4123 88.2842C50.1838 88.2373 49.9524 88.2109 49.718 88.2051C49.05 88.2051 48.4377 88.4102 47.8811 88.8203C47.3244 89.2246 46.9524 89.7402 46.7649 90.3672L45.6399 96.9062H44.6028L46.2551 87.3965H47.2834L46.967 88.9082C47.3127 88.3457 47.7287 87.918 48.2151 87.625C48.7073 87.332 49.2463 87.1914 49.8323 87.2031C50.0373 87.2031 50.2776 87.2441 50.553 87.3262L50.4123 88.2842Z" fill="black"/>
<path d="M56.5911 94.4277C56.6848 93.6191 56.1926 93.0332 55.1145 92.6699L53.6028 92.2217C52.2141 91.7529 51.5579 90.9707 51.634 89.875C51.675 89.084 52.0383 88.4424 52.7239 87.9502C53.4153 87.4521 54.2356 87.209 55.1848 87.2207C56.1165 87.2324 56.8723 87.4961 57.4524 88.0117C58.0325 88.5215 58.302 89.2041 58.261 90.0596H57.2239C57.259 89.4912 57.0803 89.0283 56.6877 88.6709C56.301 88.3135 55.7854 88.1289 55.1409 88.1172C54.4729 88.1172 53.9104 88.2754 53.4534 88.5918C52.9963 88.9023 52.7385 89.3154 52.6799 89.8311C52.592 90.5869 53.0549 91.1172 54.0686 91.4219L55.1672 91.7383L55.7561 91.9404C57.0803 92.4385 57.7043 93.25 57.6282 94.375C57.5813 95.1367 57.2502 95.7637 56.635 96.2559C56.0256 96.7422 55.2375 97.0146 54.2707 97.0732L53.9104 97.082C53.2717 97.0703 52.6946 96.9473 52.179 96.7129C51.6633 96.4727 51.2678 96.1387 50.9924 95.7109C50.717 95.2832 50.5969 94.791 50.6321 94.2344L51.678 94.2432C51.678 94.8408 51.8801 95.3125 52.2844 95.6582C52.6887 96.0039 53.2454 96.1826 53.9543 96.1943C54.6575 96.1943 55.2551 96.0361 55.7473 95.7197C56.2395 95.3975 56.5207 94.9668 56.5911 94.4277Z" fill="black"/>
<path d="M63.2092 84.9619L62.7874 87.3965H64.6946L64.5452 88.2578H62.638L61.5833 94.6035L61.5657 95.1484C61.5657 95.7871 61.8587 96.1152 62.4446 96.1328C62.6262 96.1387 62.9104 96.1182 63.2971 96.0713L63.2532 96.9326C62.9075 97.0322 62.5559 97.0762 62.1985 97.0645C61.5833 97.0527 61.135 96.8389 60.8538 96.4229C60.5725 96.001 60.47 95.3916 60.5462 94.5947L61.5921 88.2578H59.887L60.0452 87.3965H61.7327L62.1633 84.9619H63.2092Z" fill="black"/>
<path d="M71.5501 95.7109C70.7942 96.6602 69.7513 97.1172 68.4212 97.082C67.5247 97.0645 66.8567 96.7422 66.4173 96.1152C65.9778 95.4824 65.8196 94.6064 65.9427 93.4873L66.9622 87.3965H67.9993L66.9886 93.5137C66.9534 93.8301 66.9505 94.1436 66.9798 94.4541C67.0208 94.9932 67.1819 95.4092 67.4632 95.7021C67.7444 95.9951 68.1311 96.1504 68.6233 96.168C69.3265 96.1973 69.9769 96.0361 70.5745 95.6846C71.1722 95.3271 71.5589 94.8613 71.7347 94.2871L72.9124 87.3965H73.9671L72.3147 96.9062H71.2952L71.5501 95.7109Z" fill="black"/>
<path d="M78.1063 95.4209L82.1669 87.3965H83.2743L78.3436 96.9062H77.4911L75.5136 87.3965H76.5507L78.1063 95.4209Z" fill="black"/>
<path d="M86.0341 94.7178V95.4648L86.3769 94.6475L89.8485 87.3965H90.745L91.6855 94.665L91.7382 95.5615L92.0985 94.6562L95.245 87.3965H96.3612L92.0194 96.9062H91.123L90.0771 89.3652L90.0683 88.8379L89.8661 89.374L86.2274 96.9062H85.331L84.3202 87.3965L85.3046 87.3877L86.0341 94.7178Z" fill="black"/>
<path d="M100.554 91.2373L103.639 87.3965H104.939L101.037 92.1162L103.524 96.9062H102.364L100.378 92.8984L97.1259 96.9062H95.8427L99.9033 92.0107L97.5214 87.3965H98.6816L100.554 91.2373Z" fill="black"/>
<path d="M108.463 95.3594L112.533 87.3965H113.702L107.901 98.4355C107.473 99.291 107.019 99.8975 106.539 100.255C106.064 100.612 105.534 100.785 104.948 100.773C104.725 100.762 104.444 100.715 104.104 100.633L104.209 99.7715L104.737 99.833C105.721 99.874 106.498 99.2939 107.066 98.0928L107.734 96.7656L105.897 87.3965H106.996L108.463 95.3594Z" fill="black"/>
<path d="M114.554 96.0186H120.513L120.355 96.9062H113.077L113.218 96.0801L120.126 88.3018H114.738L114.897 87.3965H121.638L121.488 88.2314L114.554 96.0186Z" fill="black"/>
</g>
<g id="1234567890">
<path d="M10.0186 117.906H8.96387L10.9678 106.41L7.35547 107.693L7.54004 106.656L12.0049 105.065H12.207L10.0186 117.906Z" fill="black"/>
<path d="M22.9038 117.906H15.1079L15.2398 117.054L20.7769 111.578C21.9429 110.4 22.5816 109.34 22.6929 108.397C22.7866 107.664 22.6401 107.058 22.2534 106.577C21.8667 106.097 21.2954 105.845 20.5396 105.821C19.7192 105.798 19.0103 106.059 18.4126 106.604C17.8208 107.143 17.4487 107.872 17.2964 108.792L16.2857 108.801C16.4263 107.658 16.8921 106.724 17.6831 105.997C18.4741 105.271 19.438 104.913 20.5747 104.925C21.6353 104.948 22.4556 105.276 23.0357 105.909C23.6216 106.536 23.8648 107.336 23.7651 108.309C23.648 109.463 22.9214 110.714 21.5855 112.062L16.5581 117.019H23.0532L22.9038 117.906Z" fill="black"/>
<path d="M28.3008 110.937L29.3115 110.954C30.1963 110.954 30.9463 110.723 31.5615 110.26C32.1826 109.797 32.5371 109.173 32.625 108.388C32.7071 107.614 32.5489 106.999 32.1504 106.542C31.7578 106.085 31.1836 105.845 30.4278 105.821C29.6192 105.81 28.9336 106.044 28.3711 106.524C27.8145 107.005 27.4629 107.649 27.3164 108.458L26.2969 108.467C26.4258 107.418 26.8799 106.563 27.6592 105.9C28.4444 105.238 29.3848 104.913 30.4805 104.925C31.5293 104.948 32.3467 105.285 32.9326 105.936C33.5186 106.58 33.7647 107.409 33.6709 108.423C33.6182 109.056 33.3692 109.63 32.9239 110.146C32.4844 110.661 31.875 111.074 31.0957 111.385C31.7403 111.613 32.2237 111.991 32.5459 112.519C32.874 113.046 33.0088 113.661 32.9502 114.364C32.8565 115.483 32.4082 116.389 31.6055 117.08C30.8028 117.772 29.8213 118.105 28.6612 118.082C27.5713 118.059 26.6953 117.71 26.0332 117.036C25.377 116.356 25.0899 115.489 25.1719 114.435H26.209C26.1387 115.22 26.3321 115.87 26.7891 116.386C27.252 116.901 27.8936 117.171 28.7139 117.194C29.5928 117.218 30.3252 116.975 30.9112 116.465C31.4971 115.949 31.8311 115.261 31.9131 114.399C31.9834 113.649 31.8076 113.052 31.3858 112.606C30.9639 112.161 30.3194 111.909 29.4522 111.851L29.2676 111.842L28.1602 111.833L28.3008 110.937Z" fill="black"/>
<path d="M41.5728 113.784H43.5064L43.3482 114.672H41.4234L40.8521 117.906H39.8062L40.3687 114.672H34.5591L34.6294 114.083L41.898 105.109H43.0757L41.5728 113.784ZM35.9917 113.784H40.5181L41.7837 106.577L41.2388 107.307L35.9917 113.784Z" fill="black"/>
<path d="M46.1436 111.332L47.7081 105.109H53.9571L53.7989 106.085H48.4815L47.3213 110.409C48.0186 109.935 48.8155 109.703 49.712 109.715C50.7608 109.727 51.5694 110.116 52.1377 110.884C52.7061 111.646 52.9375 112.606 52.8321 113.767C52.7149 115.073 52.2725 116.128 51.5049 116.931C50.7374 117.728 49.7559 118.114 48.5606 118.091C47.5235 118.067 46.709 117.73 46.1172 117.08C45.5313 116.424 45.2383 115.574 45.2383 114.531H46.2315C46.2432 115.357 46.4541 116.005 46.8643 116.474C47.2745 116.937 47.8575 117.18 48.6133 117.203C49.504 117.227 50.2305 116.922 50.793 116.289C51.3555 115.656 51.6836 114.818 51.7774 113.775C51.8594 112.873 51.6954 112.138 51.2852 111.569C50.875 110.995 50.2745 110.696 49.4834 110.673C48.587 110.649 47.7549 110.951 46.9874 111.578L46.1436 111.332Z" fill="black"/>
<path d="M62.2632 105.004L62.1578 105.927H61.8765C60.482 105.956 59.3072 106.407 58.3521 107.28C57.397 108.147 56.6939 109.396 56.2427 111.024C57.1334 109.987 58.2261 109.48 59.5211 109.504C60.1949 109.516 60.772 109.703 61.2525 110.066C61.733 110.424 62.0845 110.922 62.3072 111.561C62.5298 112.199 62.6031 112.897 62.5269 113.652C62.4742 114.25 62.3277 114.83 62.0875 115.393C61.8531 115.949 61.5455 116.433 61.1646 116.843C60.3677 117.698 59.4039 118.114 58.273 118.091C57.3004 118.062 56.5123 117.722 55.9087 117.071C55.3111 116.415 54.9683 115.565 54.8804 114.522C54.8277 113.983 54.898 113.137 55.0914 111.982C55.4546 109.797 56.2427 108.089 57.4556 106.858C58.6744 105.622 60.23 105.004 62.1226 105.004H62.2632ZM59.3013 110.409C58.6099 110.397 57.939 110.597 57.2886 111.007C56.6441 111.411 56.2339 111.909 56.0582 112.501L55.9439 113.415C55.8677 114.089 55.9087 114.713 56.067 115.287C56.2252 115.855 56.4947 116.313 56.8755 116.658C57.2623 117.004 57.7427 117.183 58.317 117.194C58.8736 117.206 59.3775 117.063 59.8287 116.764C60.2857 116.459 60.6578 116.037 60.9449 115.498C61.2379 114.959 61.4224 114.355 61.4986 113.688C61.5982 112.744 61.4488 111.968 61.0504 111.358C60.6578 110.743 60.0748 110.427 59.3013 110.409Z" fill="black"/>
<path d="M73.5489 105.716L66.3682 117.906H65.2257L72.3624 106.006H65.3223L65.463 105.109H73.6192L73.5489 105.716Z" fill="black"/>
<path d="M82.7076 108.326C82.6432 109.018 82.3883 109.624 81.943 110.146C81.5035 110.661 80.9058 111.071 80.15 111.376C80.7711 111.663 81.2398 112.076 81.5562 112.615C81.8726 113.154 82.0074 113.761 81.9605 114.435C81.8726 115.53 81.4127 116.418 80.5807 117.098C79.7486 117.777 78.7232 118.105 77.5045 118.082C76.4029 118.059 75.5299 117.73 74.8853 117.098C74.2408 116.465 73.9625 115.627 74.0504 114.584C74.1148 113.84 74.3961 113.187 74.8941 112.624C75.3922 112.056 76.0719 111.616 76.9332 111.306C76.4058 111.024 76.0133 110.635 75.7555 110.137C75.4976 109.639 75.3922 109.088 75.439 108.484C75.5152 107.43 75.9371 106.568 76.7047 105.9C77.4781 105.232 78.4244 104.91 79.5435 104.934C80.5514 104.957 81.3512 105.282 81.943 105.909C82.5348 106.53 82.7896 107.336 82.7076 108.326ZM80.9146 114.443C80.9967 113.688 80.8033 113.061 80.3346 112.563C79.8717 112.064 79.2506 111.804 78.4713 111.78C77.5689 111.769 76.8014 112.032 76.1685 112.571C75.5416 113.11 75.1842 113.787 75.0963 114.602C75.0084 115.369 75.193 115.993 75.65 116.474C76.1129 116.948 76.7457 117.191 77.5484 117.203C78.439 117.227 79.2008 116.983 79.8336 116.474C80.4664 115.958 80.8267 115.281 80.9146 114.443ZM81.6529 108.317C81.7232 107.632 81.5533 107.052 81.1432 106.577C80.7389 106.097 80.1851 105.845 79.482 105.821C78.6734 105.81 77.9908 106.056 77.4342 106.56C76.8775 107.063 76.5582 107.702 76.4762 108.476C76.4058 109.167 76.5728 109.741 76.9771 110.198C77.3873 110.655 77.9439 110.89 78.6471 110.901C79.4264 110.925 80.1031 110.69 80.6773 110.198C81.2574 109.7 81.5826 109.073 81.6529 108.317Z" fill="black"/>
<path d="M90.9171 111.991C90.4718 112.548 89.9591 112.981 89.379 113.292C88.7989 113.597 88.2013 113.737 87.586 113.714C86.9181 113.702 86.3438 113.506 85.8634 113.125C85.3829 112.744 85.0313 112.234 84.8087 111.596C84.5919 110.951 84.5186 110.248 84.589 109.486C84.6768 108.637 84.92 107.857 85.3185 107.148C85.7227 106.434 86.2384 105.883 86.8653 105.496C87.4923 105.104 88.1837 104.913 88.9395 104.925C89.9474 104.948 90.7384 105.3 91.3126 105.98C91.8927 106.659 92.2003 107.611 92.2354 108.836C92.253 109.492 92.171 110.362 91.9893 111.446C91.6319 113.556 90.8819 115.17 89.7393 116.289C88.6026 117.408 87.1554 117.982 85.3976 118.012H84.9669L85.0724 117.098H85.4239C86.8653 117.074 88.0372 116.644 88.9395 115.806C89.8477 114.962 90.5069 113.69 90.9171 111.991ZM87.7618 112.809C88.4298 112.832 89.0626 112.642 89.6602 112.237C90.2579 111.827 90.7325 111.265 91.0841 110.55C91.1661 109.835 91.2071 109.334 91.2071 109.047C91.2071 108.045 91.0079 107.266 90.6095 106.709C90.2169 106.147 89.6485 105.854 88.9044 105.83C88.336 105.818 87.8175 105.971 87.3487 106.287C86.8858 106.598 86.4991 107.037 86.1886 107.605C85.8839 108.174 85.6964 108.786 85.6261 109.442C85.5616 110.034 85.6026 110.591 85.7491 111.112C85.9015 111.628 86.1476 112.038 86.4874 112.343C86.8331 112.642 87.2579 112.797 87.7618 112.809Z" fill="black"/>
<path d="M96.9996 118.082C96.3141 118.064 95.734 117.883 95.2594 117.537C94.7848 117.191 94.4391 116.688 94.2223 116.025C94.0055 115.357 93.9088 114.613 93.9322 113.793L93.9938 112.844L94.3717 110.348C94.6471 108.566 95.1774 107.213 95.9625 106.287C96.7477 105.355 97.776 104.904 99.0475 104.934C100.085 104.957 100.861 105.341 101.377 106.085C101.898 106.823 102.141 107.857 102.106 109.188C102.094 109.609 102.062 110.017 102.009 110.409L101.658 112.677C101.347 114.534 100.796 115.911 100.005 116.808C99.2145 117.698 98.2125 118.123 96.9996 118.082ZM101.087 108.379C100.963 106.715 100.266 105.862 98.9947 105.821C98.0455 105.792 97.2691 106.158 96.6656 106.92C96.0621 107.676 95.652 108.774 95.4352 110.216L95.0484 112.694C94.9606 113.403 94.9342 114.033 94.9693 114.584C95.0162 115.422 95.2184 116.063 95.5758 116.509C95.9391 116.954 96.4342 117.186 97.0611 117.203C97.94 117.244 98.6783 116.913 99.276 116.21C99.8736 115.507 100.298 114.461 100.55 113.072L100.972 110.374C101.084 109.659 101.122 108.994 101.087 108.379Z" fill="black"/>
</g>
</g>
</svg>
