<svg width="157" height="122" viewBox="0 0 157 122" fill="none" xmlns="http://www.w3.org/2000/svg">
<g id="Roboto_thin">
<g id="Thin">
<path d="M3.71191 13.5208V4.47681H0.123047V3.40356H8.73633V4.47681H5.14746V13.5208H3.71191Z" fill="black"/>
<path d="M10.1951 13.5208V2.72681H11.5417V7.49146C12.2527 6.45239 13.1231 5.93286 14.1531 5.93286C14.7956 5.93286 15.3083 6.13794 15.6911 6.5481C16.074 6.95369 16.2654 7.50057 16.2654 8.18872V13.5208H14.9187V8.62622C14.9187 8.07479 14.8367 7.68286 14.6726 7.45044C14.5131 7.21346 14.2465 7.09497 13.8728 7.09497C13.0479 7.09497 12.2709 7.63501 11.5417 8.71509V13.5208H10.1951Z" fill="black"/>
<path d="M18.8934 13.5208V6.09692H20.24V13.5208H18.8934ZM18.8934 4.75024V3.40356H20.24V4.75024H18.8934Z" fill="black"/>
<path d="M22.9292 13.5208V6.09692H24.2759V7.49146C24.9869 6.45239 25.8573 5.93286 26.8873 5.93286C27.5298 5.93286 28.0425 6.13794 28.4253 6.5481C28.8081 6.95369 28.9996 7.50057 28.9996 8.18872V13.5208H27.6529V8.62622C27.6529 8.07479 27.5708 7.68286 27.4068 7.45044C27.2473 7.21346 26.9807 7.09497 26.607 7.09497C25.7821 7.09497 25.0051 7.63501 24.2759 8.71509V13.5208H22.9292Z" fill="black"/>
</g>
<g id="ABCDEFGHIJKLM">
<path d="M13.499 30.092H7.23242L5.80859 33.9153H5.29004L10.0801 21.1184H10.6602L15.4502 33.9153H14.9316L13.499 30.092ZM7.4082 29.6174H13.3232L10.3701 21.6897L7.4082 29.6174Z" fill="black"/>
<path d="M17.5192 33.9153V21.1184H20.8854C22.2624 21.1184 23.3024 21.3997 24.0056 21.9622C24.7145 22.5188 25.069 23.3303 25.069 24.3967C25.069 25.1702 24.8727 25.8118 24.4802 26.3215C24.0876 26.8313 23.5339 27.1565 22.819 27.2971C23.6276 27.4026 24.3015 27.7542 24.8405 28.3518C25.3796 28.9436 25.6491 29.6233 25.6491 30.3909C25.6491 31.4807 25.2946 32.342 24.5856 32.9749C23.8825 33.6018 22.9011 33.9153 21.6413 33.9153H17.5192ZM17.9938 27.5959V33.4407H21.694C22.778 33.4407 23.6276 33.1741 24.2429 32.6409C24.864 32.1018 25.1745 31.3577 25.1745 30.4084C25.1745 29.5999 24.8757 28.9348 24.278 28.4133C23.6804 27.886 22.8806 27.6135 21.8786 27.5959H17.9938ZM17.9938 27.1213H21.0612C22.2272 27.1213 23.1061 26.8987 23.6979 26.4534C24.2897 26.0022 24.5856 25.3049 24.5856 24.3616C24.5856 22.5452 23.3874 21.6223 20.9909 21.593H17.9938V27.1213Z" fill="black"/>
<path d="M37.0873 29.9954C36.9642 31.3137 36.5101 32.3274 35.725 33.0364C34.9398 33.7395 33.8734 34.0911 32.5258 34.0911C31.6176 34.0911 30.8119 33.8625 30.1088 33.4055C29.4115 32.9426 28.8695 32.2893 28.4828 31.4456C28.0961 30.5959 27.8998 29.6262 27.8939 28.5364V26.5588C27.8939 25.469 28.0843 24.4963 28.4652 23.6409C28.8461 22.7795 29.3881 22.1145 30.0912 21.6458C30.8002 21.177 31.6117 20.9426 32.5258 20.9426C33.8617 20.9426 34.9252 21.2942 35.7162 21.9973C36.5072 22.7004 36.9642 23.7083 37.0873 25.0208H36.6127C36.4779 23.843 36.0677 22.9495 35.3822 22.3401C34.6967 21.7249 33.7445 21.4172 32.5258 21.4172C31.2836 21.4172 30.2787 21.886 29.5111 22.8235C28.7494 23.761 28.3685 25.0178 28.3685 26.594V28.4749C28.3685 29.4827 28.5385 30.3762 28.8783 31.1555C29.2181 31.929 29.7045 32.5325 30.3373 32.9661C30.976 33.3997 31.7054 33.6165 32.5258 33.6165C33.7504 33.6165 34.7054 33.3147 35.391 32.7112C36.0824 32.1077 36.4896 31.2024 36.6127 29.9954H37.0873Z" fill="black"/>
<path d="M40.0562 33.9153V21.1184H43.5982C44.5884 21.1184 45.4849 21.3528 46.2876 21.8215C47.0904 22.2903 47.7202 22.9495 48.1773 23.7991C48.6343 24.6428 48.8687 25.5891 48.8804 26.6379V28.2991C48.8804 29.3655 48.6548 30.3264 48.2036 31.1819C47.7583 32.0374 47.1343 32.7053 46.3316 33.1858C45.5288 33.6663 44.6324 33.9094 43.6421 33.9153H40.0562ZM40.5308 21.593V33.4407H43.5982C44.4947 33.4407 45.3091 33.2239 46.0415 32.7903C46.7798 32.3508 47.357 31.7415 47.773 30.9622C48.189 30.177 48.3999 29.3069 48.4058 28.3518V26.7083C48.4058 25.7532 48.2007 24.886 47.7906 24.1067C47.3863 23.3274 46.8179 22.718 46.0855 22.2786C45.3589 21.8333 44.5533 21.6047 43.6685 21.593H40.5308Z" fill="black"/>
<path d="M58.7295 27.5696H52.3135V33.4407H59.626V33.9153H51.8389V21.1184H59.626V21.593H52.3135V27.095H58.7295V27.5696Z" fill="black"/>
<path d="M69.1236 27.6223H62.567V33.9153H62.0924V21.1184H70.0201V21.593H62.567V27.1301H69.1236V27.6223Z" fill="black"/>
<path d="M81.4161 32.5442C81.0939 32.9895 80.5284 33.3586 79.7198 33.6516C78.9112 33.9446 78.0206 34.0911 77.048 34.0911C76.0987 34.0911 75.2521 33.8596 74.5079 33.3967C73.7638 32.9338 73.1808 32.2805 72.7589 31.4368C72.3429 30.593 72.129 29.6379 72.1173 28.5715V26.3743C72.1173 25.3254 72.3195 24.385 72.7237 23.553C73.128 22.7209 73.6964 22.0793 74.4288 21.6282C75.1612 21.1711 75.9845 20.9426 76.8986 20.9426C78.17 20.9426 79.2042 21.2678 80.0011 21.9182C80.8038 22.5686 81.2696 23.4563 81.3986 24.5813H80.9239C80.7657 23.5618 80.3409 22.7795 79.6495 22.2346C78.9581 21.6897 78.0411 21.4172 76.8986 21.4172C75.6095 21.4172 74.5695 21.8772 73.7784 22.7971C72.9874 23.717 72.5919 24.927 72.5919 26.427V28.4661C72.5919 29.468 72.7765 30.3616 73.1456 31.1467C73.5206 31.9319 74.045 32.5413 74.7189 32.9749C75.3986 33.4026 76.1749 33.6165 77.048 33.6165C77.9034 33.6165 78.6974 33.4905 79.4298 33.2385C80.1622 32.9866 80.6661 32.6819 80.9415 32.3245V28.5979H77.0304V28.1145H81.4161V32.5442Z" fill="black"/>
<path d="M93.87 33.9153H93.3954V27.5696H85.2216V33.9153H84.747V21.1184H85.2216V27.095H93.3954V21.1184H93.87V33.9153Z" fill="black"/>
<path d="M98.2136 33.9153H97.739V21.1184H98.2136V33.9153Z" fill="black"/>
<path d="M108.017 21.1184H108.491V30.0305C108.491 31.2668 108.155 32.2542 107.481 32.9924C106.807 33.7249 105.913 34.0911 104.8 34.0911C103.605 34.0911 102.691 33.7717 102.058 33.1331C101.425 32.4944 101.109 31.5803 101.109 30.3909H101.583C101.583 31.4338 101.85 32.2336 102.383 32.7903C102.922 33.3411 103.728 33.6165 104.8 33.6165C105.738 33.6165 106.502 33.303 107.094 32.676C107.692 32.0491 107.999 31.1965 108.017 30.1184V21.1184Z" fill="black"/>
<path d="M114.5 27.1829L112.452 29.0725V33.9153H111.977V21.1184H112.452V28.5188L114.561 26.4534L119.87 21.1184H120.555L114.851 26.8577L120.995 33.9153H120.38L114.5 27.1829Z" fill="black"/>
<path d="M123.883 33.4407H130.448V33.9153H123.399V21.1184H123.883V33.4407Z" fill="black"/>
<path d="M133.377 21.1184L138.642 33.2209L143.924 21.1184H144.618V33.9153H144.143V21.8215L138.835 33.9153H138.457L133.175 21.8831V33.9153H132.7V21.1184H133.377Z" fill="black"/>
</g>
<g id="NOPQRSTUVWXYZ">
<path d="M15.9775 54.9153H15.5029L7.24121 42.927V54.9153H6.75781V42.1184H7.24121L15.5029 54.0803V42.1184H15.9775V54.9153Z" fill="black"/>
<path d="M28.5545 49.4749C28.5545 50.5823 28.3553 51.5637 27.9568 52.4192C27.5642 53.2688 27.0017 53.928 26.2693 54.3967C25.5369 54.8596 24.6931 55.0911 23.7381 55.0911C22.2967 55.0911 21.1306 54.5784 20.24 53.553C19.3494 52.5276 18.9041 51.1448 18.9041 49.4045V47.5588C18.9041 46.4573 19.1004 45.4788 19.493 44.6233C19.8914 43.7678 20.4568 43.1086 21.1892 42.6458C21.9275 42.177 22.7713 41.9426 23.7205 41.9426C24.6756 41.9426 25.5193 42.177 26.2517 42.6458C26.99 43.1086 27.5584 43.7708 27.9568 44.6321C28.3553 45.4875 28.5545 46.4631 28.5545 47.5588V49.4749ZM28.0799 47.5413C28.0799 45.9944 27.6873 44.7551 26.9021 43.8235C26.117 42.886 25.0564 42.4172 23.7205 42.4172C22.4021 42.4172 21.3504 42.8831 20.5652 43.8147C19.7801 44.7405 19.3875 46.0032 19.3875 47.6028V49.4749C19.3875 50.4944 19.5633 51.3967 19.9148 52.1819C20.2723 52.9612 20.7791 53.5618 21.4353 53.9836C22.0916 54.4055 22.8592 54.6165 23.7381 54.6165C25.074 54.6165 26.1316 54.1506 26.9109 53.219C27.6902 52.2874 28.0799 51.0159 28.0799 49.4045V47.5413Z" fill="black"/>
<path d="M31.9468 49.51V54.9153H31.4722V42.1184H35.4713C36.7779 42.1184 37.7916 42.4495 38.5123 43.1116C39.2388 43.7678 39.6021 44.6819 39.6021 45.8538C39.6021 47.0139 39.2476 47.9104 38.5386 48.5432C37.8355 49.176 36.8336 49.4983 35.5328 49.51H31.9468ZM31.9468 49.0354H35.4713C36.6256 49.0354 37.522 48.7571 38.1607 48.2004C38.8052 47.6438 39.1275 46.8674 39.1275 45.8713C39.1275 44.8401 38.8052 44.0374 38.1607 43.4631C37.522 42.8831 36.6256 42.593 35.4713 42.593H31.9468V49.0354Z" fill="black"/>
<path d="M51.3371 49.4749C51.3371 50.6702 51.1027 51.719 50.634 52.6213C50.1711 53.5237 49.5061 54.1917 48.6389 54.6252L50.9855 56.9192L50.6428 57.2268L48.1467 54.8274C47.6193 55.0032 47.0773 55.0911 46.5207 55.0911C45.0793 55.0911 43.9133 54.5784 43.0227 53.553C42.132 52.5276 41.6867 51.1448 41.6867 49.4045V47.5588C41.6867 46.4573 41.883 45.4788 42.2756 44.6233C42.674 43.7678 43.2394 43.1086 43.9719 42.6458C44.7102 42.177 45.5539 41.9426 46.5031 41.9426C47.4582 41.9426 48.3019 42.177 49.0344 42.6458C49.7727 43.1086 50.341 43.7708 50.7394 44.6321C51.1379 45.4875 51.3371 46.4631 51.3371 47.5588V49.4749ZM50.8625 47.5413C50.8625 45.9944 50.4699 44.7551 49.6848 43.8235C48.8996 42.886 47.8391 42.4172 46.5031 42.4172C45.1848 42.4172 44.133 42.8831 43.3478 43.8147C42.5627 44.7405 42.1701 46.0032 42.1701 47.6028V49.4749C42.1701 50.4944 42.3459 51.3967 42.6975 52.1819C43.0549 52.9612 43.5617 53.5618 44.218 53.9836C44.8742 54.4055 45.6418 54.6165 46.5207 54.6165C47.8566 54.6165 48.9143 54.1506 49.6936 53.219C50.4728 52.2874 50.8625 51.0159 50.8625 49.4045V47.5413Z" fill="black"/>
<path d="M59.124 49.4397H54.6855V54.9153H54.2109V42.1184H58.289C59.5722 42.1184 60.5918 42.4495 61.3476 43.1116C62.1094 43.7737 62.4902 44.6731 62.4902 45.8098C62.4902 46.6829 62.2178 47.4475 61.6728 48.1038C61.1338 48.7542 60.4453 49.1584 59.6074 49.3167L63.0263 54.7922V54.9153H62.5254L59.124 49.4397ZM54.6855 48.9651H58.7197C59.7041 48.9651 60.498 48.6663 61.1015 48.0686C61.7109 47.4709 62.0156 46.718 62.0156 45.8098C62.0156 44.8137 61.6787 44.0286 61.0049 43.4543C60.3369 42.8801 59.4199 42.593 58.2539 42.593H54.6855V48.9651Z" fill="black"/>
<path d="M73.7017 51.8479C73.7017 51.303 73.5728 50.843 73.3149 50.468C73.063 50.0872 72.6616 49.7532 72.1108 49.4661C71.5659 49.1731 70.7398 48.8743 69.6323 48.5696C68.5249 48.2649 67.6929 47.9573 67.1362 47.6467C66.5855 47.3362 66.1812 46.9758 65.9233 46.5657C65.6655 46.1555 65.5366 45.6575 65.5366 45.0715C65.5366 44.1399 65.9292 43.387 66.7144 42.8127C67.4995 42.2327 68.522 41.9426 69.7817 41.9426C70.6021 41.9426 71.3374 42.1038 71.9878 42.426C72.6441 42.7424 73.1509 43.1907 73.5083 43.7708C73.8657 44.345 74.0444 44.9954 74.0444 45.7219H73.5698C73.5698 44.7668 73.2183 43.9788 72.5151 43.3577C71.812 42.7307 70.9009 42.4172 69.7817 42.4172C68.6567 42.4172 67.7456 42.6692 67.0483 43.1731C66.3569 43.6711 66.0112 44.2981 66.0112 45.054C66.0112 45.8215 66.313 46.4397 66.9165 46.9084C67.52 47.3772 68.5161 47.7932 69.9048 48.1565C71.2935 48.5139 72.3101 48.9299 72.9546 49.4045C73.7749 50.0081 74.1851 50.8167 74.1851 51.8303C74.1851 52.4749 74.0034 53.0461 73.6401 53.5442C73.2769 54.0364 72.7612 54.4172 72.0933 54.6868C71.4253 54.9563 70.6753 55.0911 69.8433 55.0911C68.9175 55.0911 68.0855 54.9387 67.3472 54.634C66.6089 54.3235 66.0523 53.884 65.6773 53.3157C65.3081 52.7473 65.1235 52.0764 65.1235 51.303H65.5982C65.5982 52.3518 65.9907 53.1663 66.7759 53.7463C67.561 54.3264 68.5835 54.6165 69.8433 54.6165C70.9624 54.6165 71.8853 54.3616 72.6118 53.8518C73.3384 53.3362 73.7017 52.6682 73.7017 51.8479Z" fill="black"/>
<path d="M85.212 42.593H80.5537V54.9153H80.0791V42.593H75.4209V42.1184H85.212V42.593Z" fill="black"/>
<path d="M96.061 42.1184V50.7844C96.061 52.1379 95.6685 53.1956 94.8833 53.9573C94.0982 54.7131 93.0347 55.0911 91.6929 55.0911C90.3511 55.0911 89.2876 54.7131 88.5024 53.9573C87.7173 53.1956 87.3218 52.1497 87.3159 50.8196V42.1184H87.7905V50.7668C87.7905 51.9504 88.145 52.8879 88.854 53.5793C89.5689 54.2708 90.5151 54.6165 91.6929 54.6165C92.8706 54.6165 93.814 54.2708 94.523 53.5793C95.2319 52.8879 95.5864 51.9475 95.5864 50.7581V42.1184H96.061Z" fill="black"/>
<path d="M102.811 53.6672L103.066 54.4407L103.321 53.6672L107.618 42.1184H108.137L103.356 54.9153H102.776L97.9944 42.1184H98.513L102.811 53.6672Z" fill="black"/>
<path d="M112.746 54.1243L113.326 52.0149L116.35 42.1184H116.877L119.883 52.0149L120.454 54.1243L121.052 52.0149L123.688 42.1184H124.207L120.762 54.9153H120.226L117.053 44.2454L116.604 42.8918L116.174 44.2454L112.975 54.9153H112.438L108.984 42.1184H109.512L112.166 52.0149L112.746 54.1243Z" fill="black"/>
<path d="M130.127 48.0159L134.258 42.1184H134.856L130.426 48.385L135.023 54.9153H134.434L130.127 48.7542L125.803 54.9153H125.232L129.828 48.385L125.399 42.1184H125.996L130.127 48.0159Z" fill="black"/>
<path d="M140.871 49.6243L145.354 42.1184H145.934L141.108 50.0549V54.9153H140.634V50.0549L135.809 42.1184H136.441L140.871 49.6243Z" fill="black"/>
<path d="M147.757 54.4407H156.212V54.9153H147.106V54.5286L155.271 42.5842H147.458V42.1184H155.93V42.4524L147.757 54.4407Z" fill="black"/>
</g>
<g id="abcdefghijklm">
<path d="M12.6553 75.9153C12.5381 75.511 12.4795 74.9309 12.4795 74.175C12.1045 74.7844 11.5918 75.2561 10.9414 75.5901C10.291 75.9241 9.55566 76.0911 8.73535 76.0911C7.85645 76.0911 7.14746 75.8538 6.6084 75.3792C6.0752 74.8987 5.80859 74.2747 5.80859 73.5071C5.80859 72.634 6.20117 71.9368 6.98633 71.4153C7.77734 70.8879 8.82617 70.6184 10.1328 70.6067H12.4795V69.218C12.4795 68.4211 12.2275 67.803 11.7236 67.3635C11.2256 66.9241 10.5107 66.7043 9.5791 66.7043C8.71191 66.7043 7.98828 66.927 7.4082 67.3723C6.82812 67.8176 6.53809 68.3684 6.53809 69.0247L6.06348 69.0071C6.06348 68.2336 6.40332 67.5774 7.08301 67.0383C7.7627 66.4993 8.59473 66.2297 9.5791 66.2297C10.6045 66.2297 11.4189 66.4875 12.0225 67.0032C12.626 67.5129 12.9365 68.2336 12.9541 69.1653V73.7092C12.9541 74.7522 13.0361 75.4612 13.2002 75.8362V75.9153H12.6553ZM8.73535 75.6252C9.62598 75.6252 10.3906 75.426 11.0293 75.0276C11.6738 74.6292 12.1572 74.0696 12.4795 73.3489V71.0901H10.2822C8.92285 71.0901 7.88281 71.3596 7.16211 71.8987C6.57617 72.3381 6.2832 72.886 6.2832 73.5422C6.2832 74.1223 6.51465 74.6145 6.97754 75.0188C7.44043 75.4231 8.02637 75.6252 8.73535 75.6252Z" fill="black"/>
<path d="M23.2898 71.2483C23.2898 72.7307 22.9705 73.9084 22.3318 74.7815C21.6932 75.6545 20.823 76.0911 19.7215 76.0911C19.0066 76.0911 18.368 75.9446 17.8055 75.6516C17.243 75.3528 16.8006 74.9397 16.4783 74.4124V75.9153H16.0037V62.4153H16.4783V68.137C16.8123 67.51 17.2518 67.0354 17.7967 66.7131C18.3475 66.3909 18.9832 66.2297 19.7039 66.2297C20.8172 66.2297 21.6932 66.6575 22.3318 67.5129C22.9705 68.3625 23.2898 69.5579 23.2898 71.0989V71.2483ZM22.7977 71.0637C22.7977 69.6985 22.5252 68.6321 21.9803 67.8645C21.4412 67.0911 20.6853 66.7043 19.7127 66.7043C18.9158 66.7043 18.2391 66.9094 17.6824 67.3196C17.1316 67.7297 16.7303 68.3391 16.4783 69.1477V73.5071C16.7303 74.1809 17.1316 74.7024 17.6824 75.0715C18.2391 75.4348 18.9217 75.6165 19.7303 75.6165C20.7088 75.6165 21.4646 75.2268 21.9978 74.4475C22.531 73.6682 22.7977 72.5403 22.7977 71.0637Z" fill="black"/>
<path d="M29.126 75.6165C29.9873 75.6165 30.6963 75.3879 31.253 74.9309C31.8155 74.4739 32.1231 73.8411 32.1758 73.0325H32.6504C32.6035 73.9524 32.249 74.6936 31.5869 75.2561C30.9248 75.8127 30.1045 76.0911 29.126 76.0911C27.9365 76.0911 26.9903 75.6604 26.2871 74.7991C25.5899 73.9377 25.2412 72.7688 25.2412 71.2922V70.9758C25.2412 69.5344 25.5899 68.3831 26.2871 67.5217C26.9903 66.6604 27.9307 66.2297 29.1084 66.2297C30.1162 66.2297 30.9483 66.5315 31.6045 67.135C32.2608 67.7385 32.6094 68.5413 32.6504 69.5432H32.1758C32.1348 68.6877 31.833 68.0022 31.2705 67.4866C30.7139 66.9651 29.9932 66.7043 29.1084 66.7043C28.0479 66.7043 27.2158 67.0881 26.6123 67.8557C26.0147 68.6174 25.7158 69.678 25.7158 71.0374V71.345C25.7158 72.675 26.0176 73.7209 26.6211 74.4827C27.2305 75.2385 28.0655 75.6165 29.126 75.6165Z" fill="black"/>
<path d="M34.6194 71.0637C34.6194 69.5461 34.9387 68.3625 35.5774 67.5129C36.2161 66.6575 37.092 66.2297 38.2053 66.2297C38.9202 66.2297 39.55 66.3909 40.095 66.7131C40.6458 67.0354 41.0911 67.5159 41.4309 68.1545V62.4153H41.9055V75.9153H41.4309V74.3948C41.1086 74.9338 40.6663 75.3528 40.1038 75.6516C39.5413 75.9446 38.9026 76.0911 38.1877 76.0911C37.0862 76.0911 36.2161 75.6545 35.5774 74.7815C34.9387 73.9084 34.6194 72.7102 34.6194 71.1868V71.0637ZM35.1116 71.2483C35.1116 72.5959 35.3782 73.6624 35.9114 74.4475C36.4446 75.2268 37.2004 75.6165 38.179 75.6165C38.9641 75.6165 39.635 75.4436 40.1917 75.0979C40.7483 74.7463 41.1614 74.2336 41.4309 73.5598V69.1038C40.886 67.5042 39.8079 66.7043 38.1965 66.7043C37.2239 66.7043 36.4651 67.0881 35.9202 67.8557C35.3811 68.6233 35.1116 69.7542 35.1116 71.2483Z" fill="black"/>
<path d="M48.3569 76.0911C47.5893 76.0911 46.8833 75.886 46.2387 75.4758C45.6001 75.0598 45.0991 74.4915 44.7358 73.7708C44.3725 73.05 44.1909 72.2502 44.1909 71.3713V70.9758C44.1909 70.0969 44.3667 69.2913 44.7182 68.5588C45.0698 67.8264 45.5532 67.2551 46.1684 66.845C46.7837 66.4348 47.4546 66.2297 48.1811 66.2297C49.2417 66.2297 50.1089 66.6077 50.7827 67.3635C51.4565 68.1194 51.7934 69.1125 51.7934 70.343V70.844H44.6655V71.3625C44.6655 72.136 44.8266 72.8538 45.1489 73.5159C45.477 74.1721 45.9253 74.6877 46.4936 75.0627C47.0678 75.4377 47.6889 75.6252 48.3569 75.6252C48.9956 75.6252 49.5376 75.5198 49.9829 75.3088C50.4341 75.092 50.8325 74.761 51.1782 74.3157L51.5122 74.553C50.8032 75.5784 49.7514 76.0911 48.3569 76.0911ZM48.1811 66.7043C47.2553 66.7043 46.4702 67.05 45.8257 67.7415C45.1811 68.427 44.8032 69.303 44.6919 70.3694H51.3188V70.2551C51.3188 69.6106 51.1811 69.0129 50.9057 68.4622C50.6362 67.9055 50.2612 67.4749 49.7807 67.1702C49.3061 66.8596 48.7729 66.7043 48.1811 66.7043Z" fill="black"/>
<path d="M54.7288 75.9153V66.8889H53.0764V66.4055H54.7288V65.0168C54.7346 64.1379 54.9544 63.4553 55.388 62.969C55.8274 62.4768 56.4368 62.2307 57.2161 62.2307C57.6497 62.2307 58.0247 62.2805 58.3411 62.3801L58.2708 62.8372C57.9661 62.7493 57.6175 62.7053 57.2249 62.7053C56.5979 62.7053 56.1028 62.9104 55.7395 63.3206C55.3821 63.7249 55.2034 64.302 55.2034 65.052V66.4055H57.7171V66.8889H55.2034V75.9153H54.7288Z" fill="black"/>
<path d="M59.0214 71.0637C59.0214 69.5461 59.3407 68.3625 59.9794 67.5129C60.618 66.6575 61.494 66.2297 62.6073 66.2297C63.3163 66.2297 63.9462 66.3938 64.497 66.7219C65.0477 67.0442 65.4901 67.5188 65.8241 68.1458V66.4055H66.3075V75.7483C66.3075 77.0022 65.9852 77.9807 65.3407 78.6838C64.6962 79.3928 63.8202 79.7473 62.7128 79.7473C62.0741 79.7473 61.4882 79.6096 60.955 79.3342C60.4276 79.0588 59.9764 78.6633 59.6014 78.1477L59.9354 77.8313C60.3046 78.3 60.7089 78.6575 61.1483 78.9036C61.5878 79.1555 62.1034 79.2815 62.6952 79.2815C63.6737 79.2815 64.4354 78.9827 64.9804 78.385C65.5253 77.7932 65.8065 76.9553 65.8241 75.8713V74.4124C65.496 74.9514 65.0507 75.3674 64.4882 75.6604C63.9315 75.9475 63.2987 76.0911 62.5897 76.0911C61.4882 76.0911 60.618 75.6545 59.9794 74.7815C59.3407 73.9084 59.0214 72.7102 59.0214 71.1868V71.0637ZM59.5048 71.2483C59.5048 72.6077 59.7743 73.677 60.3134 74.4563C60.8524 75.2297 61.6083 75.6165 62.5809 75.6165C63.3837 75.6165 64.0663 75.4319 64.6288 75.0627C65.1913 74.6877 65.5897 74.1633 65.8241 73.4895V69.1741C65.3085 67.5276 64.2333 66.7043 62.5985 66.7043C61.62 66.7043 60.8583 67.0881 60.3134 67.8557C59.7743 68.6233 59.5048 69.7542 59.5048 71.2483Z" fill="black"/>
<path d="M69.8409 68.6204C70.1515 67.8821 70.6085 67.2991 71.212 66.8713C71.8155 66.4436 72.4835 66.2297 73.2159 66.2297C74.2355 66.2297 74.9913 66.5198 75.4835 67.0999C75.9816 67.6741 76.2335 68.5442 76.2394 69.7102V75.9153H75.7648V69.6926C75.7589 68.6731 75.5509 67.9202 75.1407 67.4338C74.7306 66.9417 74.0802 66.6956 73.1896 66.6956C72.3692 66.6956 71.6573 66.9885 71.0538 67.5745C70.4562 68.1545 70.0519 68.9045 69.8409 69.8245V75.9153H69.3663V62.4153H69.8409V68.6204Z" fill="black"/>
<path d="M79.8343 75.9153H79.3597V66.4055H79.8343V75.9153ZM79.1136 63.4348C79.1136 63.3 79.1605 63.1858 79.2542 63.092C79.348 62.9924 79.4622 62.9426 79.597 62.9426C79.7318 62.9426 79.846 62.9924 79.9398 63.092C80.0394 63.1858 80.0892 63.3 80.0892 63.4348C80.0892 63.5696 80.0394 63.6838 79.9398 63.7776C79.846 63.8713 79.7318 63.9182 79.597 63.9182C79.4622 63.9182 79.348 63.8713 79.2542 63.7776C79.1605 63.6838 79.1136 63.5696 79.1136 63.4348Z" fill="black"/>
<path d="M83.5519 66.4055V77.0491C83.5519 77.928 83.3322 78.5989 82.8927 79.0618C82.4533 79.5247 81.838 79.7561 81.047 79.7561C80.7599 79.7561 80.4728 79.6975 80.1857 79.5803L80.212 79.1233C80.4933 79.2288 80.7716 79.2815 81.047 79.2815C81.7033 79.2815 82.2042 79.0852 82.5499 78.6926C82.9015 78.3059 83.0773 77.7581 83.0773 77.0491V66.4055H83.5519ZM82.8751 63.4348C82.8751 63.3 82.922 63.1858 83.0158 63.092C83.1095 62.9924 83.2238 62.9426 83.3585 62.9426C83.4933 62.9426 83.6076 62.9924 83.7013 63.092C83.8009 63.1858 83.8507 63.3 83.8507 63.4348C83.8507 63.5696 83.8009 63.6838 83.7013 63.7776C83.6076 63.8713 83.4933 63.9182 83.3585 63.9182C83.2238 63.9182 83.1095 63.8713 83.0158 63.7776C82.922 63.6838 82.8751 63.5696 82.8751 63.4348Z" fill="black"/>
<path d="M88.764 70.7737L88.7464 70.7913L87.3666 71.9778V75.9153H86.892V62.4153H87.3666V71.4592L88.4828 70.4045L92.807 66.4055H93.4837L89.1156 70.4573L93.7562 75.9153H93.141L88.764 70.7737Z" fill="black"/>
<path d="M96.006 75.9153H95.5314V62.4153H96.006V75.9153Z" fill="black"/>
<path d="M105.929 75.9153H105.454V69.5256C105.448 68.5706 105.237 67.8616 104.821 67.3987C104.411 66.9299 103.755 66.6956 102.852 66.6956C101.81 66.6956 100.957 67.1555 100.295 68.0754C99.9023 68.6262 99.6416 69.2356 99.5126 69.9036V75.9153H99.0293V66.4055H99.5126V68.6555C99.8349 67.8821 100.295 67.2844 100.893 66.8625C101.49 66.4407 102.152 66.2297 102.879 66.2297C103.676 66.2297 104.326 66.4055 104.83 66.7571C105.34 67.1086 105.674 67.6829 105.832 68.4797C106.113 67.7942 106.57 67.2493 107.203 66.845C107.836 66.4348 108.545 66.2297 109.33 66.2297C110.355 66.2297 111.117 66.5198 111.615 67.0999C112.119 67.6799 112.374 68.55 112.38 69.7102V75.9153H111.905V69.7454C111.905 68.7024 111.694 67.9319 111.272 67.4338C110.856 66.9299 110.2 66.6838 109.304 66.6956C108.149 66.7131 107.235 67.1731 106.561 68.0754C106.175 68.5969 105.964 69.1008 105.929 69.5872V75.9153Z" fill="black"/>
</g>
<g id="nopqrstuvwxyz">
<path d="M6.98633 89.6204C7.29688 88.8821 7.75391 88.2991 8.35742 87.8713C8.96094 87.4436 9.62891 87.2297 10.3613 87.2297C11.3809 87.2297 12.1367 87.5198 12.6289 88.0999C13.127 88.6741 13.3789 89.5442 13.3848 90.7102V96.9153H12.9102V90.6926C12.9043 89.6731 12.6963 88.9202 12.2861 88.4338C11.876 87.9417 11.2256 87.6956 10.335 87.6956C9.51465 87.6956 8.80273 87.9885 8.19922 88.5745C7.60156 89.1545 7.19727 89.9045 6.98633 90.8245V96.9153H6.51172V87.4055H6.98633V89.6204Z" fill="black"/>
<path d="M15.6527 91.9758C15.6527 91.0676 15.8256 90.2532 16.1713 89.5325C16.5229 88.8059 17.015 88.2405 17.6479 87.8362C18.2865 87.4319 19.0072 87.2297 19.81 87.2297C20.6068 87.2297 21.3217 87.426 21.9545 87.8186C22.5873 88.2112 23.0795 88.7678 23.4311 89.4885C23.7885 90.2092 23.9701 91.0208 23.976 91.9231V92.345C23.976 93.259 23.8031 94.0764 23.4574 94.7971C23.1117 95.5178 22.6195 96.0803 21.9809 96.4846C21.3481 96.8889 20.6303 97.0911 19.8275 97.0911C19.0248 97.0911 18.3041 96.8918 17.6654 96.4934C17.0326 96.095 16.5404 95.5383 16.1889 94.8235C15.8373 94.1028 15.6586 93.2942 15.6527 92.3977V91.9758ZM16.1274 92.345C16.1274 93.136 16.2826 93.8625 16.5932 94.5247C16.9096 95.1809 17.3461 95.6936 17.9027 96.0627C18.4652 96.4319 19.1068 96.6165 19.8275 96.6165C20.9115 96.6165 21.7934 96.2092 22.4731 95.3948C23.1586 94.5803 23.5014 93.5315 23.5014 92.2483V91.9758C23.5014 91.1965 23.3432 90.4758 23.0268 89.8137C22.7104 89.1516 22.2709 88.636 21.7084 88.2668C21.1518 87.8918 20.519 87.7043 19.81 87.7043C18.726 87.7043 17.8412 88.1174 17.1557 88.9436C16.4701 89.7698 16.1274 90.8098 16.1274 92.0637V92.345Z" fill="black"/>
<path d="M33.5565 92.2483C33.5565 93.7307 33.2371 94.9084 32.5985 95.7815C31.9598 96.6545 31.0897 97.0911 29.9881 97.0911C29.2674 97.0911 28.6258 96.9446 28.0633 96.6516C27.5008 96.3586 27.0613 95.9543 26.7449 95.4387V100.572H26.2703V87.4055H26.7449V89.1018C27.0731 88.4983 27.5154 88.0354 28.0721 87.7131C28.6287 87.3909 29.2615 87.2297 29.9705 87.2297C31.0838 87.2297 31.9598 87.6575 32.5985 88.5129C33.2371 89.3625 33.5565 90.5579 33.5565 92.0989V92.2483ZM33.0731 92.0637C33.0731 90.6985 32.8006 89.6321 32.2557 88.8645C31.7166 88.0911 30.9578 87.7043 29.9793 87.7043C29.1824 87.7043 28.5057 87.9124 27.949 88.3284C27.3924 88.7385 26.991 89.3303 26.7449 90.1038V94.551C26.991 95.2073 27.3924 95.717 27.949 96.0803C28.5115 96.4377 29.1942 96.6165 29.9969 96.6165C30.9695 96.6165 31.7254 96.2297 32.2645 95.4563C32.8035 94.6829 33.0731 93.552 33.0731 92.0637Z" fill="black"/>
<path d="M35.7102 92.0637C35.7102 90.5461 36.0295 89.3625 36.6682 88.5129C37.3069 87.6575 38.1828 87.2297 39.2961 87.2297C40.0051 87.2297 40.6379 87.3909 41.1946 87.7131C41.7512 88.0354 42.1936 88.4983 42.5217 89.1018V87.4055H42.9963V100.572H42.5217V95.4387C42.1819 95.9719 41.7307 96.3821 41.1682 96.6692C40.6115 96.9504 39.9817 97.0911 39.2785 97.0911C38.177 97.0911 37.3069 96.6545 36.6682 95.7815C36.0295 94.9084 35.7102 93.7102 35.7102 92.1868V92.0637ZM36.2024 92.2483C36.2024 93.5959 36.469 94.6624 37.0022 95.4475C37.5354 96.2268 38.2912 96.6165 39.2698 96.6165C40.0549 96.6165 40.7258 96.4436 41.2824 96.0979C41.8391 95.7463 42.2522 95.2336 42.5217 94.5598V90.1038C42.2463 89.3127 41.8303 88.7151 41.2737 88.3108C40.717 87.9065 40.0549 87.7043 39.2873 87.7043C38.3147 87.7043 37.5559 88.0881 37.011 88.8557C36.4719 89.6233 36.2024 90.7542 36.2024 92.2483Z" fill="black"/>
<path d="M50.2037 87.7483L49.5885 87.6956C48.7799 87.6956 48.1032 87.9592 47.5582 88.4866C47.0133 89.0081 46.6559 89.7405 46.486 90.6838V96.9153H46.0114V87.4055H46.486V89.3831C46.7438 88.7209 47.1305 88.1965 47.6461 87.8098C48.1618 87.4231 48.8092 87.2297 49.5885 87.2297C49.8639 87.2297 50.0866 87.262 50.2565 87.3264L50.2037 87.7483Z" fill="black"/>
<path d="M57.9034 94.5862C57.9034 93.4319 56.919 92.6467 54.9502 92.2307C53.7666 91.9788 52.9434 91.6565 52.4805 91.2639C52.0176 90.8655 51.7862 90.3206 51.7862 89.6292C51.7862 88.9319 52.0791 88.3577 52.6651 87.9065C53.2569 87.4553 54.0245 87.2297 54.9678 87.2297C55.9932 87.2297 56.8165 87.4758 57.4375 87.968C58.0586 88.4543 58.3692 89.1135 58.3692 89.9456H57.8858C57.8858 89.3069 57.6163 88.7737 57.0772 88.3459C56.5381 87.9182 55.835 87.7043 54.9678 87.7043C54.1358 87.7043 53.4766 87.886 52.9903 88.2493C52.504 88.6125 52.2608 89.0667 52.2608 89.6116C52.2608 90.0393 52.3516 90.3762 52.5332 90.6223C52.7149 90.8625 53.0108 91.0823 53.4209 91.2815C53.8311 91.4749 54.4288 91.6624 55.2139 91.844C55.9991 92.0256 56.6202 92.2395 57.0772 92.4856C57.5342 92.7317 57.8653 93.0247 58.0704 93.3645C58.2754 93.6985 58.378 94.1086 58.378 94.595C58.378 95.345 58.0704 95.9485 57.4551 96.4055C56.8399 96.8625 56.0342 97.0911 55.0381 97.0911C53.9717 97.0911 53.1104 96.8508 52.4541 96.3704C51.8038 95.884 51.4786 95.26 51.4786 94.4983H51.9532C52 95.1663 52.293 95.6877 52.8321 96.0627C53.377 96.4319 54.1124 96.6165 55.0381 96.6165C55.8877 96.6165 56.5762 96.4202 57.1036 96.0276C57.6368 95.6292 57.9034 95.1487 57.9034 94.5862Z" fill="black"/>
<path d="M62.0518 84.8391V87.4055H64.2139V87.8889H62.0518V94.6389C62.0518 95.3127 62.1602 95.8108 62.377 96.1331C62.5996 96.4553 62.9688 96.6165 63.4844 96.6165C63.7422 96.6165 64.0557 96.5901 64.4248 96.5374L64.5039 96.9856C64.3106 97.0559 63.9795 97.0911 63.5108 97.0911C62.8194 97.0911 62.3242 96.9006 62.0254 96.5198C61.7266 96.1331 61.5742 95.5266 61.5684 94.7004V87.8889H59.8106V87.4055H61.5684V84.8391H62.0518Z" fill="black"/>
<path d="M73.0561 96.9153V95.3772C72.7748 95.9045 72.3647 96.3235 71.8256 96.634C71.2866 96.9387 70.6039 97.0911 69.7778 97.0911C68.7407 97.0911 67.9614 96.7893 67.4399 96.1858C66.9243 95.5764 66.6606 94.6917 66.6489 93.5315V87.4055H67.1235V93.5491C67.1352 94.5569 67.3637 95.3215 67.809 95.843C68.2543 96.3586 68.9047 96.6165 69.7602 96.6165C70.6684 96.6165 71.4067 96.4026 71.975 95.9749C72.5434 95.5471 72.9037 94.9202 73.0561 94.094V87.4055H73.5395V96.9153H73.0561Z" fill="black"/>
<path d="M79.3407 96.1594L82.7596 87.4055H83.2694L79.5692 96.9153H79.1034L75.412 87.4055H75.9217L79.3407 96.1594Z" fill="black"/>
<path d="M86.8289 94.1643L87.3475 96.2122L90.1336 87.4055H90.617L93.3856 96.2122L93.9217 94.1643L95.8553 87.4055H96.409L93.6404 96.9153H93.1658L90.8192 89.7698L90.3709 88.0647L89.8875 89.7698L87.576 96.9153H87.1014L84.3416 87.4055H84.8865L86.8289 94.1643Z" fill="black"/>
<path d="M101.515 91.6243L104.548 87.4055H105.145L101.805 92.0374L105.321 96.9153H104.732L101.507 92.4504L98.2898 96.9153H97.701L101.217 92.0374L97.8768 87.4055H98.4744L101.515 91.6243Z" fill="black"/>
<path d="M110.217 96.177L110.278 96.0012L113.565 87.4055H114.093L109.839 98.5676L109.628 99.095C109.171 100.202 108.415 100.756 107.36 100.756C107.02 100.756 106.786 100.724 106.657 100.659L106.648 100.211C106.836 100.264 107.05 100.29 107.29 100.29C107.788 100.29 108.201 100.144 108.529 99.8508C108.857 99.5637 109.141 99.092 109.382 98.4358L109.962 96.8625L106.174 87.4055H106.692L110.217 96.177Z" fill="black"/>
<path d="M115.78 96.4407H122.548V96.9153H115.138V96.5286L121.387 87.8889H115.411V87.4055H122.029V87.8274L115.78 96.4407Z" fill="black"/>
</g>
<g id="1234567890">
<path d="M10.792 117.915H10.3174V105.716L6.64355 107.096V106.577L10.6953 105.083H10.792V117.915Z" fill="black"/>
<path d="M23.8617 117.915H16.2065V117.441L20.5746 112.405C21.2895 111.567 21.8197 110.823 22.1654 110.172C22.517 109.522 22.6928 108.924 22.6928 108.379C22.6928 107.442 22.4203 106.715 21.8754 106.199C21.3305 105.678 20.5629 105.417 19.5727 105.417C18.975 105.417 18.4301 105.561 17.9379 105.848C17.4457 106.135 17.059 106.533 16.7777 107.043C16.5024 107.547 16.3647 108.11 16.3647 108.731H15.89C15.89 108.045 16.0483 107.409 16.3647 106.823C16.6811 106.238 17.1205 105.778 17.683 105.444C18.2455 105.11 18.8754 104.943 19.5727 104.943C20.7094 104.943 21.5942 105.244 22.227 105.848C22.8598 106.451 23.1762 107.295 23.1762 108.379C23.1762 109.375 22.6166 110.568 21.4975 111.956L20.6977 112.932L16.8305 117.441H23.8617V117.915Z" fill="black"/>
<path d="M28.3885 111.148H29.4608C30.4627 111.13 31.2713 110.864 31.8865 110.348C32.5076 109.832 32.8182 109.176 32.8182 108.379C32.8182 107.471 32.5399 106.75 31.9832 106.217C31.4324 105.684 30.6649 105.417 29.6805 105.417C28.7195 105.417 27.9285 105.698 27.3074 106.261C26.6863 106.823 26.3758 107.562 26.3758 108.476H25.9012C25.9012 107.796 26.0653 107.187 26.3934 106.648C26.7215 106.109 27.1756 105.69 27.7557 105.391C28.3358 105.092 28.9774 104.943 29.6805 104.943C30.7879 104.943 31.6668 105.256 32.3172 105.883C32.9676 106.504 33.2928 107.348 33.2928 108.414C33.2928 109.094 33.076 109.7 32.6424 110.234C32.2147 110.767 31.6346 111.145 30.9022 111.367C31.7401 111.561 32.3934 111.924 32.8621 112.457C33.3367 112.99 33.574 113.679 33.574 114.523C33.574 115.613 33.2254 116.48 32.5281 117.124C31.8309 117.769 30.908 118.091 29.7596 118.091C28.9862 118.091 28.2713 117.924 27.6151 117.59C26.9588 117.256 26.4637 116.814 26.1297 116.263C25.7957 115.712 25.6287 115.076 25.6287 114.356H26.1033C26.1033 115.293 26.449 116.073 27.1404 116.694C27.8319 117.309 28.7049 117.616 29.7596 117.616C30.8084 117.616 31.6258 117.347 32.2117 116.808C32.8035 116.263 33.0994 115.513 33.0994 114.558C33.0994 113.615 32.783 112.894 32.1502 112.396C31.5233 111.898 30.6033 111.646 29.3904 111.64H28.3885V111.148Z" fill="black"/>
<path d="M41.9856 113.951H44.2004V114.426H41.9856V117.915H41.511V114.426H35.3059V114.162L41.4143 105.118H41.9856V113.951ZM36.0442 113.951H41.511V105.69L40.7727 106.903L36.0442 113.951Z" fill="black"/>
<path d="M46.4772 111.218L47.0748 105.118H53.3151V105.584H47.5055L46.9869 110.717C47.2916 110.465 47.693 110.26 48.1911 110.102C48.695 109.944 49.1871 109.865 49.6676 109.865C50.8161 109.865 51.733 110.228 52.4186 110.954C53.1041 111.681 53.4469 112.642 53.4469 113.837C53.4469 115.226 53.1364 116.283 52.5153 117.01C51.8942 117.731 51.0036 118.091 49.8434 118.091C48.7477 118.091 47.8629 117.778 47.1891 117.151C46.5153 116.524 46.1344 115.656 46.0465 114.549H46.5299C46.6237 115.551 46.9518 116.313 47.5143 116.834C48.0768 117.356 48.8532 117.616 49.8434 117.616C50.8981 117.616 51.6803 117.3 52.1901 116.667C52.7057 116.029 52.9635 115.091 52.9635 113.855C52.9635 112.788 52.6647 111.936 52.067 111.297C51.4752 110.658 50.6784 110.339 49.6764 110.339C49.0612 110.339 48.525 110.421 48.068 110.585C47.611 110.749 47.2008 111.007 46.8375 111.359L46.4772 111.218Z" fill="black"/>
<path d="M61.6915 104.943V105.417C59.8985 105.417 58.5069 105.948 57.5166 107.008C56.5264 108.069 55.9932 109.557 55.917 111.473C56.2569 110.869 56.7491 110.392 57.3936 110.04C58.0381 109.683 58.7442 109.504 59.5118 109.504C60.6368 109.504 61.5332 109.888 62.2012 110.656C62.875 111.423 63.212 112.437 63.212 113.697C63.212 114.511 63.0596 115.255 62.7549 115.929C62.4502 116.603 62.0196 117.133 61.4629 117.52C60.9063 117.901 60.2852 118.091 59.5997 118.091C58.8145 118.091 58.1055 117.909 57.4727 117.546C56.8399 117.183 56.3448 116.664 55.9874 115.99C55.6299 115.317 55.4454 114.549 55.4336 113.688V112.115C55.4336 109.841 55.9698 108.077 57.042 106.823C58.1143 105.57 59.6641 104.943 61.6915 104.943ZM59.4502 109.979C58.6299 109.979 57.877 110.216 57.1915 110.691C56.5118 111.159 56.084 111.748 55.9082 112.457V113.582C55.9082 114.789 56.251 115.765 56.9366 116.509C57.6221 117.253 58.5098 117.625 59.5997 117.625C60.5079 117.625 61.2579 117.247 61.8497 116.491C62.4415 115.73 62.7374 114.798 62.7374 113.697C62.7374 112.56 62.4444 111.657 61.8584 110.99C61.2725 110.316 60.4698 109.979 59.4502 109.979Z" fill="black"/>
<path d="M73.021 105.417L67.3872 117.915H66.9038L72.476 105.593H64.8471V105.118H73.021V105.417Z" fill="black"/>
<path d="M82.6981 108.37C82.6981 109.085 82.4755 109.712 82.0301 110.251C81.5907 110.784 81.0194 111.156 80.3163 111.367C81.1542 111.59 81.8221 111.994 82.3202 112.58C82.8182 113.166 83.0673 113.834 83.0673 114.584C83.0673 115.668 82.6952 116.524 81.951 117.151C81.2128 117.778 80.2284 118.091 78.9979 118.091C77.744 118.091 76.7479 117.778 76.0096 117.151C75.2772 116.524 74.911 115.668 74.911 114.584C74.911 113.828 75.1512 113.16 75.6317 112.58C76.118 111.994 76.7801 111.59 77.618 111.367C76.9149 111.156 76.3465 110.784 75.913 110.251C75.4852 109.712 75.2714 109.085 75.2714 108.37C75.2714 107.316 75.6083 106.481 76.2821 105.865C76.9618 105.25 77.8553 104.943 78.9628 104.943C80.076 104.943 80.9755 105.256 81.661 105.883C82.3524 106.51 82.6981 107.339 82.6981 108.37ZM82.5839 114.628C82.5839 113.749 82.2469 113.026 81.5731 112.457C80.8993 111.889 80.035 111.605 78.9803 111.605C77.9198 111.605 77.0555 111.889 76.3876 112.457C75.7196 113.02 75.3856 113.743 75.3856 114.628C75.3856 115.531 75.7108 116.254 76.3612 116.799C77.0174 117.344 77.8964 117.616 78.9979 117.616C80.076 117.616 80.9432 117.344 81.5995 116.799C82.2557 116.248 82.5839 115.525 82.5839 114.628ZM82.2235 108.326C82.2235 107.494 81.91 106.803 81.2831 106.252C80.6561 105.696 79.8827 105.417 78.9628 105.417C78.0194 105.417 77.246 105.684 76.6424 106.217C76.0448 106.75 75.746 107.453 75.746 108.326C75.746 109.158 76.0448 109.835 76.6424 110.357C77.2401 110.872 78.0194 111.13 78.9803 111.13C79.9296 111.13 80.7059 110.869 81.3094 110.348C81.9188 109.821 82.2235 109.147 82.2235 108.326Z" fill="black"/>
<path d="M92.1468 111.552C91.8362 112.226 91.3528 112.771 90.6966 113.187C90.0462 113.597 89.3108 113.802 88.4905 113.802C87.7874 113.802 87.1546 113.615 86.5921 113.24C86.0296 112.859 85.5901 112.337 85.2737 111.675C84.9573 111.013 84.7991 110.286 84.7991 109.495C84.7991 108.657 84.9602 107.89 85.2825 107.193C85.6048 106.49 86.0559 105.939 86.636 105.54C87.2161 105.142 87.8577 104.943 88.5608 104.943C89.8792 104.943 90.8841 105.373 91.5755 106.235C92.2669 107.09 92.6155 108.326 92.6214 109.944V111.411C92.6214 113.573 92.1409 115.223 91.18 116.36C90.219 117.49 88.804 118.068 86.9348 118.091H86.513L86.5305 117.616H86.9085C88.6194 117.599 89.9202 117.077 90.8108 116.052C91.7014 115.027 92.1468 113.527 92.1468 111.552ZM88.4905 113.327C89.3577 113.327 90.1253 113.073 90.7932 112.563C91.4612 112.053 91.9124 111.376 92.1468 110.532V109.988C92.1468 108.505 91.8391 107.374 91.2239 106.595C90.6145 105.81 89.7385 105.417 88.596 105.417C87.969 105.417 87.4007 105.602 86.8909 105.971C86.3811 106.34 85.9827 106.844 85.6956 107.483C85.4143 108.115 85.2737 108.786 85.2737 109.495C85.2737 110.193 85.4114 110.84 85.6868 111.438C85.9622 112.03 86.343 112.492 86.8294 112.826C87.3157 113.16 87.8694 113.327 88.4905 113.327Z" fill="black"/>
<path d="M102.509 112.695C102.509 114.411 102.175 115.741 101.508 116.685C100.84 117.622 99.902 118.091 98.695 118.091C97.4938 118.091 96.5534 117.616 95.8737 116.667C95.194 115.718 94.8542 114.382 94.8542 112.659V110.339C94.8542 108.64 95.1882 107.316 95.8561 106.366C96.53 105.411 97.4704 104.934 98.6774 104.934C99.8903 104.934 100.831 105.411 101.499 106.366C102.173 107.316 102.509 108.652 102.509 110.374V112.695ZM102.035 110.339C102.035 108.786 101.742 107.576 101.156 106.709C100.576 105.842 99.7497 105.408 98.6774 105.408C97.5993 105.408 96.7702 105.845 96.1901 106.718C95.6159 107.585 95.3288 108.807 95.3288 110.383V112.677C95.3288 114.224 95.6247 115.434 96.2165 116.307C96.8083 117.18 97.6345 117.616 98.695 117.616C99.7614 117.616 100.585 117.18 101.165 116.307C101.745 115.434 102.035 114.209 102.035 112.633V110.339Z" fill="black"/>
</g>
</g>
</svg>
