<svg width="158" height="122" viewBox="0 0 158 122" fill="none" xmlns="http://www.w3.org/2000/svg">
<g id="Roboto_bold_italic">
<g id="Bold Italic">
<path d="M1.30566 13.5117V3.39453H3.93066C4.94238 3.39453 5.71712 3.58594 6.25488 3.96875C6.7972 4.35156 7.06836 4.90299 7.06836 5.62305C7.06836 6.84896 6.37565 7.72168 4.99023 8.24121C6.64453 8.74707 7.47168 9.66081 7.47168 10.9824C7.47168 11.8027 7.19824 12.4294 6.65137 12.8623C6.10449 13.2952 5.31608 13.5117 4.28613 13.5117H1.30566ZM2.72754 12.4385H3.02148C4.07422 12.4385 4.75553 12.3724 5.06543 12.2402C5.65788 11.9896 5.9541 11.5247 5.9541 10.8457C5.9541 10.2441 5.68522 9.74512 5.14746 9.34863C4.6097 8.94759 3.9375 8.74707 3.13086 8.74707H2.72754V12.4385ZM2.72754 7.83789H3.18555C3.95117 7.83789 4.54362 7.67383 4.96289 7.3457C5.38672 7.01758 5.59863 6.55501 5.59863 5.95801C5.59863 4.96452 4.82845 4.46777 3.28809 4.46777H2.72754V7.83789Z" fill="black"/>
<path d="M12.2942 13.6826C11.2323 13.6826 10.3847 13.3317 9.75122 12.6299C9.11776 11.9235 8.80102 10.9801 8.80102 9.7998C8.80102 8.60579 9.11776 7.66243 9.75122 6.96973C10.3892 6.27246 11.2528 5.92383 12.342 5.92383C13.4312 5.92383 14.2926 6.27246 14.926 6.96973C15.564 7.66243 15.8831 8.60124 15.8831 9.78613C15.8831 10.9984 15.564 11.9508 14.926 12.6436C14.288 13.3363 13.4107 13.6826 12.2942 13.6826ZM12.3147 12.6709C13.7411 12.6709 14.4543 11.7093 14.4543 9.78613C14.4543 7.88574 13.7502 6.93555 12.342 6.93555C10.9384 6.93555 10.2366 7.8903 10.2366 9.7998C10.2366 11.7139 10.9293 12.6709 12.3147 12.6709Z" fill="black"/>
<path d="M17.978 13.5117V2.71777H19.3247V13.5117H17.978Z" fill="black"/>
<path d="M26.779 13.5117V12.1172C26.2322 13.1608 25.4073 13.6826 24.3044 13.6826C23.4112 13.6826 22.7071 13.3568 22.1921 12.7051C21.6817 12.0534 21.4265 11.1624 21.4265 10.0322C21.4265 8.7972 21.7159 7.80371 22.2947 7.05176C22.878 6.2998 23.6436 5.92383 24.5915 5.92383C25.4711 5.92383 26.2003 6.26107 26.779 6.93555V2.71777H28.1326V13.5117H26.779ZM26.779 7.8584C26.0818 7.24316 25.421 6.93555 24.7966 6.93555C23.5069 6.93555 22.8621 7.9222 22.8621 9.89551C22.8621 11.6318 23.4363 12.5 24.5847 12.5C25.3321 12.5 26.0636 12.0921 26.779 11.2764V7.8584Z" fill="black"/>
<path d="M35.1936 13.5117V3.39453H36.6291V13.5117H35.1936Z" fill="black"/>
<path d="M41.4787 13.6826C40.7951 13.6826 40.2619 13.4867 39.8791 13.0947C39.4962 12.7028 39.3048 12.1582 39.3048 11.4609V7.09961H38.3751V6.08789H39.3048V4.74121L40.6515 4.61133V6.08789H42.5929V7.09961H40.6515V11.2148C40.6515 12.1855 41.0708 12.6709 41.9093 12.6709C42.0871 12.6709 42.3035 12.6413 42.5587 12.582V13.5117C42.144 13.6257 41.784 13.6826 41.4787 13.6826Z" fill="black"/>
<path d="M48.3041 12.5684C47.4975 13.3112 46.7204 13.6826 45.973 13.6826C45.3578 13.6826 44.8474 13.4912 44.4418 13.1084C44.0362 12.721 43.8334 12.2334 43.8334 11.6455C43.8334 10.8343 44.1729 10.2122 44.852 9.7793C45.5355 9.3418 46.5131 9.12305 47.7846 9.12305H48.1059V8.22754C48.1059 7.36621 47.6638 6.93555 46.7797 6.93555C46.0687 6.93555 45.3008 7.1543 44.476 7.5918V6.47754C45.3829 6.1084 46.2328 5.92383 47.0258 5.92383C47.8552 5.92383 48.4659 6.11068 48.8578 6.48438C49.2543 6.85807 49.4525 7.43913 49.4525 8.22754V11.5908C49.4525 12.361 49.6895 12.7461 50.1635 12.7461C50.2227 12.7461 50.3093 12.737 50.4232 12.7188L50.5189 13.4639C50.2136 13.6097 49.8764 13.6826 49.5072 13.6826C48.8783 13.6826 48.4773 13.3112 48.3041 12.5684ZM48.1059 11.8369V9.91602L47.6547 9.90234C46.9164 9.90234 46.3194 10.0436 45.8637 10.3262C45.4079 10.6042 45.1801 10.971 45.1801 11.4268C45.1801 11.7503 45.294 12.0238 45.5219 12.2471C45.7497 12.4704 46.0277 12.582 46.3559 12.582C46.9164 12.582 47.4997 12.3337 48.1059 11.8369Z" fill="black"/>
<path d="M52.1898 13.5117V2.71777H53.5364V13.5117H52.1898Z" fill="black"/>
<path d="M56.2261 13.5117V6.08789H57.5728V13.5117H56.2261ZM56.2261 4.74121V3.39453H57.5728V4.74121H56.2261Z" fill="black"/>
<path d="M63.1609 13.6826C62.1583 13.6826 61.3266 13.3112 60.6658 12.5684C60.005 11.8255 59.6746 10.889 59.6746 9.75879C59.6746 8.55111 60.0005 7.61003 60.6522 6.93555C61.3084 6.26107 62.2221 5.92383 63.3934 5.92383C63.9721 5.92383 64.6193 6.00358 65.3348 6.16309V7.29102C64.5737 7.06771 63.9539 6.95605 63.4754 6.95605C62.7872 6.95605 62.2335 7.21582 61.8143 7.73535C61.3996 8.25033 61.1922 8.93848 61.1922 9.7998C61.1922 10.6338 61.4064 11.3083 61.8348 11.8232C62.2632 12.3382 62.8237 12.5957 63.5164 12.5957C64.1316 12.5957 64.7651 12.4385 65.4168 12.124V13.2861C64.5464 13.5505 63.7944 13.6826 63.1609 13.6826Z" fill="black"/>
</g>
<g id="ABCDEFGHIJKLM">
<path d="M12.708 31.2695H8.24316L6.9248 33.9062H4.08594L10.9238 21.1093H13.3057L15.7402 33.9062H13.1123L12.708 31.2695ZM9.29785 29.1337H12.3828L11.6621 24.3701L9.29785 29.1337Z" fill="black"/>
<path d="M17.0268 33.9062L19.2505 21.1093L23.2407 21.1181C24.7231 21.124 25.8364 21.4257 26.5805 22.0234C27.3247 22.621 27.6616 23.4619 27.5913 24.5458C27.5092 25.8408 26.7622 26.7871 25.3501 27.3847C25.8598 27.5605 26.2553 27.8916 26.5366 28.3779C26.8178 28.8583 26.938 29.4267 26.8969 30.083C26.8149 31.29 26.3403 32.2304 25.4731 32.9042C24.6118 33.5722 23.4341 33.9062 21.9399 33.9062H17.0268ZM20.5776 28.3339L19.9712 31.788L22.0014 31.7968C22.6342 31.7968 23.1645 31.6416 23.5923 31.331C24.02 31.0146 24.2749 30.5898 24.3569 30.0566C24.4389 29.5292 24.3657 29.1191 24.1372 28.8261C23.9145 28.5273 23.5366 28.3662 23.0034 28.3427L20.5776 28.3339ZM20.894 26.4707L22.643 26.4882C23.2934 26.4765 23.8237 26.3242 24.2339 26.0312C24.6499 25.7382 24.8989 25.331 24.9809 24.8095C25.1274 23.7783 24.5854 23.2597 23.355 23.2539L21.4565 23.2451L20.894 26.4707Z" fill="black"/>
<path d="M38.6865 29.6347C38.5869 30.5195 38.2851 31.3046 37.7812 31.9902C37.2773 32.6699 36.621 33.1943 35.8124 33.5634C35.0038 33.9267 34.1308 34.0996 33.1933 34.082C32.3496 34.0644 31.6142 33.871 30.9872 33.5019C30.3603 33.1269 29.8652 32.5878 29.5019 31.8847C29.1445 31.1757 28.9423 30.3613 28.8955 29.4414C28.8544 28.7207 28.9277 27.8242 29.1152 26.7519C29.3085 25.6796 29.6484 24.7275 30.1347 23.8955C30.6269 23.0634 31.2099 22.4042 31.8837 21.9179C32.833 21.2382 33.9169 20.9101 35.1357 20.9335C36.4599 20.957 37.5087 21.3671 38.2822 22.164C39.0615 22.955 39.4892 24.0566 39.5654 25.4687L36.999 25.4599C36.999 24.6513 36.8378 24.0595 36.5156 23.6845C36.1933 23.3095 35.6923 23.1103 35.0126 23.0869C34.1337 23.0576 33.4101 23.371 32.8417 24.0273C32.2792 24.6835 31.9013 25.6416 31.708 26.9013C31.5205 28.1259 31.4384 29.0429 31.4619 29.6523C31.4912 30.4257 31.664 30.997 31.9804 31.3662C32.2968 31.7294 32.7392 31.9199 33.3076 31.9375C34.0927 31.9667 34.7197 31.7822 35.1884 31.3837C35.663 30.9794 35.9765 30.4023 36.1288 29.6523L38.6865 29.6347Z" fill="black"/>
<path d="M39.7603 33.9062L41.984 21.1093L45.6578 21.1181C46.5191 21.1357 47.2925 21.332 47.9781 21.707C48.6695 22.0761 49.2291 22.6093 49.6568 23.3066C50.0845 24.0039 50.3424 24.789 50.4302 25.6621C50.4771 26.1718 50.4713 26.6933 50.4127 27.2265L50.3511 27.6923C50.0933 29.5673 49.355 31.0732 48.1363 32.2099C46.9234 33.3408 45.4498 33.9062 43.7154 33.9062H39.7603ZM44.19 23.2451L42.7047 31.788L43.7769 31.7968C44.9605 31.7968 45.9097 31.3632 46.6246 30.496C47.3453 29.6289 47.7584 28.3193 47.8638 26.5673L47.8814 26.2861C47.899 25.3193 47.7144 24.5781 47.3277 24.0625C46.941 23.5468 46.3638 23.2773 45.5963 23.2539L44.19 23.2451Z" fill="black"/>
<path d="M59.6554 28.3603H54.7511L54.1534 31.788H59.919L59.5499 33.9062H51.2091L53.4327 21.1093H61.756L61.378 23.2451H55.6388L55.1026 26.2949H60.0245L59.6554 28.3603Z" fill="black"/>
<path d="M69.5221 28.6767H64.6178L63.7037 33.9062H61.1285L63.3522 21.1093H71.4557L71.0778 23.2451H65.5582L64.9782 26.5498H69.9L69.5221 28.6767Z" fill="black"/>
<path d="M81.0376 32.289C80.5805 32.8691 79.9096 33.3173 79.0249 33.6337C78.146 33.9443 77.1528 34.0908 76.0454 34.0732C75.1723 34.0673 74.4048 33.8769 73.7426 33.5019C73.0805 33.121 72.5591 32.5761 72.1782 31.8671C71.7973 31.1582 71.5805 30.3496 71.5278 29.4414C71.4692 28.5976 71.5571 27.6074 71.7915 26.4707C72.0317 25.3281 72.4389 24.3291 73.0132 23.4736C73.5932 22.6123 74.2876 21.9707 75.0962 21.5488C75.9048 21.121 76.8012 20.916 77.7856 20.9335C79.1216 20.957 80.1674 21.3349 80.9233 22.0673C81.6792 22.7939 82.1098 23.8369 82.2153 25.1962L79.7368 25.1875C79.6723 24.4726 79.4819 23.9453 79.1655 23.6054C78.8491 23.2656 78.3774 23.0839 77.7505 23.0605C76.6665 23.0253 75.811 23.5029 75.1841 24.4931C74.563 25.4775 74.2085 26.9072 74.1206 28.7822C74.062 29.7841 74.2143 30.5605 74.5776 31.1113C74.9467 31.6621 75.5063 31.9433 76.2563 31.955C77.1294 31.9785 77.8735 31.7705 78.4887 31.331L78.9194 29.125H76.5815L76.9243 27.1826H81.811L81.0376 32.289Z" fill="black"/>
<path d="M92.885 33.9062H90.3098L91.259 28.4218H86.2932L85.3352 33.9062H82.76L84.9837 21.1093H87.5588L86.6536 26.2949H91.6282L92.5247 21.1093H95.0999L92.885 33.9062Z" fill="black"/>
<path d="M97.9371 33.9062H95.3619L97.5768 21.1093H100.152L97.9371 33.9062Z" fill="black"/>
<path d="M107.624 21.1093H110.199L108.697 29.9687C108.591 30.7773 108.322 31.5009 107.888 32.1396C107.454 32.7783 106.898 33.2675 106.218 33.6074C105.538 33.9472 104.791 34.1083 103.977 34.0908C102.77 34.0673 101.838 33.7099 101.182 33.0185C100.526 32.3271 100.215 31.3603 100.25 30.1181L102.843 30.1269C102.755 31.3339 103.18 31.9462 104.117 31.9638C104.627 31.9814 105.061 31.8115 105.418 31.4541C105.776 31.0966 106.007 30.6015 106.113 29.9687L107.624 21.1093Z" fill="black"/>
<path d="M115.093 28.7998L113.406 30.3642L112.79 33.9062H110.215L112.439 21.1093H115.014L114.03 26.7519L115.339 25.2753L119.189 21.1093H122.546L117.018 26.9277L120.314 33.9062H117.378L115.093 28.7998Z" fill="black"/>
<path d="M124.332 31.788H129.764L129.395 33.9062H121.388L123.611 21.1093H126.187L124.332 31.788Z" fill="black"/>
<path d="M136.466 21.1093L138.04 30.3642L142.812 21.1093H146.24L144.016 33.9062H141.432L142.065 30.2587L143.313 24.5634L138.409 33.9062H136.642L134.928 24.2382L134.102 30.54L133.513 33.9062H130.938L133.162 21.1093H136.466Z" fill="black"/>
</g>
<g id="NOPQRSTUVWXYZ">
<path d="M15.3008 54.9062H12.8047L9.24512 46.372L7.75977 54.9062H5.18457L7.4082 42.1093H9.89551L13.4639 50.6611L14.9492 42.1093H17.5156L15.3008 54.9062Z" fill="black"/>
<path d="M22.7521 55.082C21.9025 55.0644 21.1525 54.8652 20.5021 54.4843C19.8576 54.0976 19.3449 53.5439 18.964 52.8232C18.589 52.0966 18.3722 51.2646 18.3136 50.3271C18.2492 49.3662 18.3517 48.3408 18.6212 47.2509C18.8908 46.1611 19.3244 45.2031 19.922 44.3769C20.5197 43.5507 21.2199 42.9326 22.0226 42.5224C22.8312 42.1123 23.7043 41.916 24.6418 41.9336C25.5031 41.9511 26.256 42.1562 26.9005 42.5488C27.5451 42.9355 28.0519 43.4951 28.4211 44.2275C28.7902 44.9541 29.0011 45.7802 29.0539 46.706C29.1125 47.7373 29.0011 48.7978 28.7199 49.8877C28.4386 50.9775 28.0021 51.9209 27.4103 52.7177C26.8185 53.5146 26.1242 54.1123 25.3273 54.5107C24.5363 54.9091 23.6779 55.0996 22.7521 55.082ZM26.3996 48.1562L26.4699 47.3213C26.5285 46.2783 26.3878 45.4873 26.048 44.9482C25.714 44.4091 25.2043 44.1279 24.5187 44.1045C23.4464 44.0693 22.5939 44.5439 21.9611 45.5283C21.3341 46.5127 20.9796 47.8896 20.8976 49.6591C20.839 50.6963 20.9767 51.4961 21.3107 52.0586C21.6447 52.6152 22.1632 52.9052 22.8664 52.9287C23.7863 52.9697 24.548 52.6123 25.1515 51.8564C25.755 51.0947 26.1505 50.0195 26.338 48.6308L26.3996 48.1562Z" fill="black"/>
<path d="M33.1196 50.3974L32.3286 54.9062H29.7534L31.977 42.1093L36.4594 42.1181C37.8423 42.1181 38.9292 42.5019 39.7202 43.2695C40.5112 44.0371 40.8569 45.039 40.7573 46.2754C40.6635 47.5293 40.1391 48.5312 39.1841 49.2812C38.2348 50.0312 37.0219 50.4062 35.5454 50.4062L33.1196 50.3974ZM33.48 48.2617L35.6245 48.2793C36.3159 48.2793 36.8901 48.1006 37.3471 47.7431C37.8042 47.3857 38.0766 46.9023 38.1645 46.2929C38.2524 45.6836 38.1528 45.1972 37.8657 44.8339C37.5844 44.4707 37.1655 44.2773 36.6089 44.2539L34.1831 44.2451L33.48 48.2617Z" fill="black"/>
<path d="M49.3514 54.0713L51.1268 55.8115L49.369 57.1914L47.1278 55.0117C46.7938 55.0644 46.4832 55.0849 46.1961 55.0732C44.9188 55.0615 43.8875 54.6279 43.1024 53.7724C42.3172 52.917 41.8807 51.7656 41.7928 50.3183C41.7401 49.5976 41.7928 48.7949 41.951 47.9101C42.1092 47.0195 42.3729 46.2021 42.742 45.458C43.1112 44.7138 43.5623 44.0752 44.0956 43.542C44.6346 43.0088 45.2469 42.6045 45.9325 42.3291C46.618 42.0478 47.3446 41.916 48.1122 41.9336C48.9676 41.9511 49.7176 42.1533 50.3622 42.54C51.0067 42.9267 51.5164 43.4834 51.8914 44.2099C52.2664 44.9365 52.4803 45.7685 52.5331 46.706C52.5623 47.2158 52.5477 47.7256 52.4891 48.2353L52.3397 49.2461C51.9471 51.4257 50.951 53.0341 49.3514 54.0713ZM49.9491 47.3213C49.9901 46.2373 49.8407 45.4375 49.5008 44.9218C49.1668 44.4004 48.6629 44.1279 47.9891 44.1045C46.9168 44.0693 46.0643 44.5439 45.4315 45.5283C44.8045 46.5127 44.45 47.8896 44.368 49.6591C44.3094 50.6963 44.4471 51.4961 44.7811 52.0586C45.1151 52.6152 45.6336 52.9052 46.3368 52.9287C47.2567 52.9697 48.0184 52.6123 48.6219 51.8564C49.2254 51.0947 49.6209 50.0195 49.8084 48.6308C49.8846 48.0683 49.9315 47.6318 49.9491 47.3213Z" fill="black"/>
<path d="M58.7433 50.2216H56.6515L55.8341 54.9062H53.2589L55.4826 42.1093L59.7189 42.1181C61.1369 42.1181 62.2267 42.4521 62.9884 43.1201C63.756 43.7881 64.0959 44.7168 64.008 45.9062C63.8849 47.664 62.9474 48.8857 61.1955 49.5713L62.9972 54.7656V54.9062H60.255L58.7433 50.2216ZM57.0207 48.0859L58.9367 48.1035C59.6164 48.0918 60.1759 47.9101 60.6154 47.5586C61.0607 47.2011 61.3273 46.7177 61.4152 46.1084C61.4972 45.54 61.4064 45.0947 61.1427 44.7724C60.8791 44.4502 60.4601 44.2773 59.8859 44.2539L57.6886 44.2451L57.0207 48.0859Z" fill="black"/>
<path d="M71.5296 51.4873C71.6526 50.79 71.3099 50.2568 70.5013 49.8877L68.805 49.2109C66.8362 48.332 65.9017 47.122 66.0013 45.581C66.0423 44.8662 66.2767 44.2334 66.7044 43.6826C67.1321 43.1318 67.7327 42.7011 68.5062 42.3906C69.2796 42.0742 70.1146 41.9218 71.011 41.9336C72.2474 41.957 73.2464 42.3261 74.0081 43.041C74.7698 43.75 75.1448 44.7021 75.1331 45.8974H72.5667C72.596 45.3173 72.4671 44.8662 72.18 44.5439C71.8987 44.2216 71.4593 44.0547 70.8616 44.0429C70.2757 44.0312 69.7659 44.166 69.3323 44.4472C68.8987 44.7226 68.6409 45.1035 68.5589 45.5898C68.4476 46.2285 68.8753 46.7353 69.8421 47.1103L71.0023 47.5498L71.6702 47.8574C73.3987 48.7129 74.2073 49.914 74.096 51.4609C74.0433 52.2168 73.8001 52.8701 73.3665 53.4209C72.9388 53.9658 72.3528 54.3847 71.6087 54.6777C70.8704 54.9707 70.056 55.1084 69.1653 55.0908C68.2571 55.0732 67.4485 54.8828 66.7396 54.5195C66.0306 54.1562 65.4915 53.6435 65.1224 52.9814C64.7767 52.3662 64.6155 51.663 64.639 50.872L67.2142 50.8808C67.1321 52.2695 67.8148 52.9755 69.262 52.999C69.889 52.999 70.4046 52.8613 70.8089 52.5859C71.2132 52.3105 71.4534 51.9443 71.5296 51.4873Z" fill="black"/>
<path d="M86.5255 44.2451H82.7287L80.883 54.9062H78.3078L80.1535 44.2451H76.4005L76.7785 42.1093H86.9035L86.5255 44.2451Z" fill="black"/>
<path d="M97.888 42.1093L96.4466 50.5468C96.2474 51.9589 95.6614 53.0752 94.6888 53.8955C93.7161 54.7158 92.5091 55.1142 91.0677 55.0908C90.1653 55.0732 89.3802 54.8769 88.7122 54.5019C88.0501 54.1211 87.5609 53.5879 87.2444 52.9023C86.928 52.2109 86.8196 51.4287 86.9193 50.5556L88.3519 42.1093H90.9271L89.4944 50.5644C89.4534 50.8925 89.4505 51.2002 89.4857 51.4873C89.6028 52.4365 90.1683 52.9287 91.1819 52.9638C91.9085 52.9873 92.5032 52.788 92.9661 52.3662C93.429 51.9443 93.7278 51.3408 93.8626 50.5556L95.304 42.1093H97.888Z" fill="black"/>
<path d="M102.935 51.707L107.241 42.1093H110.194L103.875 54.9062H101.185L98.8828 42.1093H101.651L102.935 51.707Z" fill="black"/>
<path d="M119.629 51.1884L122.714 42.1093H125.341L120.587 54.9062H117.994L117.317 46.3808L113.968 54.9062H111.376L110.62 42.1093H113.133L113.388 51.1445L116.834 42.1093H119.022L119.629 51.1884Z" fill="black"/>
<path d="M130.455 46.5039L133.47 42.1093H136.563L131.861 48.5781L134.515 54.9062H131.668L129.989 50.4414L126.904 54.9062H123.775L128.583 48.332L126.008 42.1093H128.82L130.455 46.5039Z" fill="black"/>
<path d="M141.294 47.8574L144.871 42.1093H147.824L142.234 50.4062L141.461 54.9062H138.841L139.676 50.1162L137.022 42.1181L139.738 42.1093L141.294 47.8574Z" fill="black"/>
<path d="M149.881 52.7705L156.103 52.788L155.734 54.9062H146.26L146.55 53.2275L154.205 44.2627L148.114 44.2451L148.492 42.1093H157.817L157.527 43.7529L149.881 52.7705Z" fill="black"/>
</g>
<g id="abcdefghijklm">
<path d="M10.5283 75.9062C10.4522 75.666 10.4199 75.3789 10.4317 75.0449C9.71682 75.7597 8.90823 76.1055 8.00588 76.082C7.17385 76.0703 6.48244 75.8008 5.93166 75.2734C5.38674 74.7402 5.13186 74.084 5.16701 73.3047C5.20803 72.2676 5.64162 71.4736 6.4678 70.9228C7.29983 70.3662 8.41311 70.0879 9.80764 70.0879L10.9678 70.1055L11.0908 69.5342C11.126 69.3408 11.1348 69.1562 11.1172 68.9805C11.0879 68.7051 10.9824 68.4912 10.8008 68.3388C10.625 68.1806 10.3906 68.0986 10.0977 68.0928C9.71096 68.081 9.38283 68.1777 9.1133 68.3828C8.84377 68.582 8.67092 68.8721 8.59475 69.2529L6.10744 69.2617C6.14846 68.3535 6.56448 67.6181 7.35549 67.0556C8.15237 66.4873 9.13381 66.209 10.2998 66.2207C11.378 66.2441 12.2217 66.5664 12.8311 67.1875C13.4405 67.8027 13.6953 68.5967 13.5957 69.5693L12.8662 74.1221L12.8223 74.6846C12.8106 75.1006 12.8604 75.4521 12.9717 75.7392L12.9629 75.9062H10.5283ZM8.62112 74.1572C9.33596 74.1806 9.95998 73.8701 10.4932 73.2256L10.8008 71.582L9.93948 71.5732C9.02541 71.5967 8.36623 71.875 7.96194 72.4082C7.81545 72.6015 7.72463 72.8388 7.68948 73.1201C7.6426 73.4365 7.70705 73.6885 7.88283 73.876C8.06448 74.0576 8.31057 74.1513 8.62112 74.1572Z" fill="black"/>
<path d="M23.6239 71.1777C23.4482 72.6777 22.9911 73.8789 22.2529 74.7812C21.5146 75.6836 20.5595 76.1201 19.3876 76.0908C18.3857 76.0674 17.6239 75.6631 17.1025 74.8779L16.7421 75.9062H14.4833L16.8212 62.4062H19.3085L18.3505 67.2666C19.0185 66.5459 19.7919 66.1972 20.6708 66.2207C21.5907 66.2324 22.3114 66.5635 22.8329 67.2138C23.3603 67.8584 23.6415 68.7519 23.6767 69.8945C23.6884 70.2578 23.6708 70.6855 23.6239 71.1777ZM21.163 70.9931C21.2157 70.4951 21.2333 70.1084 21.2157 69.833C21.1513 68.8135 20.7294 68.2949 19.9501 68.2773C19.2177 68.2539 18.6112 68.5849 18.1308 69.2705L17.4452 73.0498C17.6679 73.6826 18.1425 74.0107 18.8691 74.0342C20.0878 74.0693 20.8349 73.1846 21.1103 71.3799L21.163 70.9931Z" fill="black"/>
<path d="M28.5633 74.043C29.0203 74.0547 29.4012 73.9316 29.7059 73.6738C30.0106 73.4101 30.2098 73.0615 30.3035 72.6279L32.6326 72.6191C32.5916 73.2871 32.3807 73.8877 31.9998 74.4209C31.6248 74.9541 31.1209 75.3701 30.4881 75.6689C29.8612 75.9678 29.199 76.1084 28.5018 76.0908C27.3475 76.0732 26.4334 75.6748 25.7596 74.8955C25.0858 74.1162 24.7606 73.0791 24.784 71.7842L24.8104 71.3008L24.8192 71.2041C24.9774 69.6572 25.4988 68.4326 26.3836 67.5303C27.2684 66.6221 28.3612 66.1855 29.6619 66.2207C30.7342 66.2441 31.5838 66.5957 32.2108 67.2754C32.8436 67.9492 33.1541 68.8398 33.1424 69.9472H30.8309C30.8309 69.4375 30.7195 69.0361 30.4969 68.7431C30.2742 68.4502 29.9403 68.292 29.4949 68.2685C28.3113 68.2334 27.5936 69.0976 27.3416 70.8613C27.2537 71.5 27.2215 72.039 27.2449 72.4785C27.3035 73.5039 27.743 74.0254 28.5633 74.043Z" fill="black"/>
<path d="M38.3103 66.2119C39.195 66.2353 39.9099 66.5898 40.4548 67.2754L41.3864 62.4062H43.8737L41.5359 75.9062H39.321L39.4616 74.8867C38.7527 75.7129 37.9265 76.1142 36.9831 76.0908C36.3913 76.0849 35.8728 75.9297 35.4275 75.625C34.9821 75.3203 34.6364 74.8838 34.3903 74.3154C34.1501 73.7412 34.0183 73.1025 33.9948 72.3994C33.9773 72.0303 33.9861 71.6728 34.0212 71.3271L34.0739 70.9316C34.2146 69.959 34.4841 69.1035 34.8825 68.3652C35.2868 67.6269 35.779 67.0791 36.3591 66.7217C36.945 66.3642 37.5954 66.1943 38.3103 66.2119ZM36.5085 71.3271C36.4616 71.7724 36.447 72.1474 36.4646 72.4521C36.5232 73.4834 36.9392 74.0078 37.7126 74.0254C38.4099 74.0547 39.0163 73.7265 39.532 73.041L40.2087 69.2617C39.9802 68.6347 39.5232 68.3066 38.8376 68.2773C38.2341 68.2597 37.7302 68.4941 37.3259 68.9805C36.9275 69.4609 36.655 70.2431 36.5085 71.3271Z" fill="black"/>
<path d="M48.0397 76.082C47.2076 76.0762 46.4693 75.874 45.8248 75.4756C45.1861 75.0713 44.7086 74.5205 44.3922 73.8232C44.0758 73.1201 43.9527 72.3467 44.0231 71.5029L44.0494 71.1513C44.1373 70.2256 44.4068 69.376 44.858 68.6025C45.3092 67.8291 45.8893 67.2344 46.5983 66.8183C47.3072 66.3965 48.0924 66.1972 48.9537 66.2207C50.1783 66.2441 51.1041 66.6953 51.7311 67.5742C52.3639 68.4472 52.6041 69.5547 52.4518 70.8965L52.3111 71.9775H46.484C46.4606 72.5928 46.61 73.0849 46.9322 73.4541C47.2545 73.8232 47.694 74.0137 48.2506 74.0254C49.1529 74.0488 49.944 73.7002 50.6236 72.9795L51.7574 74.3857C51.4 74.9248 50.8844 75.3467 50.2106 75.6513C49.5367 75.9502 48.8131 76.0937 48.0397 76.082ZM48.8307 68.2685C48.3736 68.2568 47.9664 68.4004 47.609 68.6992C47.2574 68.998 46.941 69.5166 46.6598 70.2549H50.0699L50.1227 70.0263C50.1578 69.792 50.1608 69.5693 50.1315 69.3584C50.0729 69.0185 49.9293 68.7549 49.7008 68.5674C49.4723 68.374 49.1822 68.2744 48.8307 68.2685Z" fill="black"/>
<path d="M53.7173 75.9062L55.0444 68.2597H53.6734L53.9985 66.3965L55.3696 66.3877L55.4927 65.4385C55.645 64.4248 56.0581 63.6308 56.7319 63.0566C57.4058 62.4765 58.2642 62.1924 59.3071 62.2041C59.6646 62.2158 60.1128 62.2773 60.6519 62.3887L60.4321 64.3662C60.1509 64.2959 59.9077 64.2607 59.7026 64.2607C59.2632 64.2549 58.8853 64.3662 58.5689 64.5947C58.2583 64.8232 58.065 65.166 57.9888 65.623L57.8569 66.3965H59.6939L59.3687 68.2597H57.5405L56.2134 75.9062H53.7173Z" fill="black"/>
<path d="M59.6535 71.1426C59.8293 69.6719 60.3069 68.4795 61.0862 67.5654C61.8713 66.6455 62.8586 66.1943 64.0481 66.2119C65.0617 66.2353 65.8176 66.6015 66.3157 67.3105L66.6408 66.3877L68.9172 66.3965L67.3615 75.581C67.1916 76.8467 66.6526 77.8486 65.7444 78.5869C64.8362 79.3252 63.7112 79.6826 62.3694 79.6592C61.7131 79.6474 61.0862 79.5039 60.4885 79.2285C59.8908 78.959 59.3987 78.5869 59.0119 78.1123L60.2424 76.6006C60.7932 77.2978 61.4846 77.6582 62.3166 77.6816C62.9612 77.7051 63.5119 77.5351 63.969 77.1719C64.426 76.8144 64.7365 76.3076 64.9006 75.6513L65.0412 75.0801C64.3498 75.7715 63.5735 76.1055 62.7121 76.082C61.7864 76.0703 61.051 75.7275 60.5061 75.0537C59.9612 74.374 59.6623 73.4922 59.6096 72.4082C59.592 72.0508 59.6067 71.6289 59.6535 71.1426ZM62.0881 72.1797C62.0881 72.7305 62.2024 73.1728 62.4309 73.5068C62.6653 73.8349 63.0022 74.0078 63.4416 74.0254C64.1155 74.0488 64.7131 73.7617 65.2346 73.164L65.9729 69.1387C65.7209 68.5879 65.2551 68.3008 64.5754 68.2773C63.9426 68.2597 63.4065 68.5146 62.967 69.042C62.5276 69.5693 62.2522 70.2695 62.1408 71.1426C62.0998 71.5703 62.0823 71.916 62.0881 72.1797Z" fill="black"/>
<path d="M73.0128 67.4512C73.757 66.6191 74.6154 66.209 75.588 66.2207C76.5314 66.2441 77.2228 66.584 77.6622 67.2402C78.1075 67.8906 78.2745 68.7812 78.1632 69.9121L77.1613 75.9062H74.6827L75.6935 69.8857C75.7228 69.6572 75.7286 69.4463 75.7111 69.2529C75.6525 68.6201 75.2833 68.2949 74.6036 68.2773C73.9357 68.2539 73.3497 68.541 72.8458 69.1387L71.6505 75.9062H69.172L71.5099 62.4062H73.9972L73.0128 67.4512Z" fill="black"/>
<path d="M81.7139 75.9062H79.2178L80.8701 66.3965H83.3662L81.7139 75.9062ZM81.1602 63.9795C81.1485 63.5869 81.2774 63.2617 81.5469 63.0039C81.8164 62.7461 82.1416 62.6172 82.5225 62.6172C82.8975 62.6055 83.2227 62.7197 83.4981 62.9599C83.7735 63.2002 83.917 63.5107 83.9287 63.8916C83.9405 64.2549 83.8174 64.5713 83.5596 64.8408C83.3076 65.1103 82.9766 65.251 82.5664 65.2627C82.1973 65.2744 81.8721 65.1631 81.5908 64.9287C81.3155 64.6943 81.1719 64.3779 81.1602 63.9795Z" fill="black"/>
<path d="M88.1034 66.3965L86.3984 76.4248C86.2636 77.4853 85.8798 78.3115 85.247 78.9033C84.62 79.4951 83.8085 79.7851 82.8124 79.7734C82.414 79.7617 81.9745 79.706 81.4941 79.6064L81.6962 77.5849C81.9892 77.6494 82.2441 77.6875 82.4609 77.6992C83.2402 77.7109 83.7148 77.289 83.8847 76.4336L85.6073 66.3965H88.1034ZM85.8446 63.9795C85.8329 63.5928 85.956 63.2734 86.2138 63.0215C86.4716 62.7637 86.8027 62.6289 87.2069 62.6172C87.6112 62.6172 87.9423 62.7373 88.2001 62.9775C88.4638 63.2178 88.6015 63.5224 88.6132 63.8916C88.6249 64.2842 88.5019 64.6094 88.2441 64.8672C87.9862 65.1191 87.6552 65.251 87.2509 65.2627C86.8818 65.2744 86.5566 65.1631 86.2753 64.9287C85.9999 64.6943 85.8564 64.3779 85.8446 63.9795Z" fill="black"/>
<path d="M92.5594 72.1181L91.408 73.1201L90.9246 75.9062H88.4461L90.784 62.4062H93.2713L91.9881 69.7363L92.4715 69.2178L95.2928 66.3965H98.4744L94.3172 70.4834L96.9627 75.9062H94.2469L92.5594 72.1181Z" fill="black"/>
<path d="M100.487 75.9062H97.9909L100.338 62.4062H102.825L100.487 75.9062Z" fill="black"/>
<path d="M106.551 66.3877L106.349 67.4687C107.117 66.6133 108.046 66.1972 109.135 66.2207C109.721 66.2324 110.208 66.3672 110.594 66.625C110.981 66.8828 111.242 67.2314 111.377 67.6709C112.214 66.6806 113.199 66.1972 114.33 66.2207C115.203 66.2383 115.859 66.5371 116.298 67.1172C116.744 67.6972 116.931 68.5351 116.861 69.6308L116.843 69.8506L115.833 75.9062H113.345L114.356 69.833C114.38 69.6162 114.388 69.414 114.382 69.2265C114.341 68.6113 113.99 68.2949 113.328 68.2773C112.648 68.2773 112.065 68.6406 111.579 69.3672L111.552 69.5693L110.445 75.9062H107.966L108.977 69.8506C109.001 69.6338 109.009 69.4316 109.004 69.2441C108.963 68.623 108.614 68.3037 107.958 68.2861C107.331 68.2685 106.765 68.5644 106.261 69.1738L105.075 75.9062H102.596L104.24 66.3965L106.551 66.3877Z" fill="black"/>
</g>
<g id="nopqrstuvwxyz">
<path d="M8.94629 87.3877L8.73535 88.5127C9.49707 87.6279 10.4199 87.1973 11.5039 87.2207C12.4004 87.2383 13.0625 87.5664 13.4902 88.2051C13.918 88.8438 14.0732 89.7285 13.9561 90.8594L12.9541 96.9062H10.4756L11.4951 90.833C11.5244 90.6045 11.5303 90.3965 11.5127 90.209C11.4365 89.6113 11.0615 89.3037 10.3877 89.2861C9.7373 89.2627 9.1543 89.5645 8.63867 90.1914L7.45215 96.9062H4.97363L6.62598 87.3965L8.94629 87.3877Z" fill="black"/>
<path d="M20.346 87.2207C21.1839 87.2324 21.9046 87.4492 22.5081 87.8711C23.1175 88.2871 23.5628 88.8643 23.8441 89.6025C24.1312 90.335 24.2337 91.1494 24.1517 92.0459C24.0169 93.5576 23.4896 94.7822 22.5696 95.7197C21.6556 96.6514 20.5247 97.1055 19.1771 97.082C18.3509 97.0703 17.636 96.8594 17.0325 96.4492C16.429 96.0332 15.9837 95.459 15.6966 94.7266C15.4095 93.9941 15.3069 93.1855 15.389 92.3008C15.5413 90.7305 16.0745 89.4824 16.9886 88.5566C17.9026 87.6309 19.0218 87.1855 20.346 87.2207ZM17.8411 93.2061C17.8528 93.7686 17.9847 94.2139 18.2366 94.542C18.4886 94.8643 18.8431 95.0312 19.3001 95.043C20.0618 95.0664 20.6595 94.7178 21.0931 93.9971C21.5267 93.2705 21.7288 92.3184 21.6995 91.1406C21.6761 90.5781 21.5384 90.1299 21.2864 89.7959C21.0403 89.4561 20.6858 89.2803 20.223 89.2686C19.4847 89.2451 18.8929 89.5938 18.4476 90.3145C18.0081 91.0293 17.806 91.9932 17.8411 93.2061Z" fill="black"/>
<path d="M34.0045 92.1777C33.8815 93.1738 33.6207 94.0586 33.2223 94.832C32.8238 95.6055 32.3287 96.1797 31.7369 96.5547C31.1451 96.9297 30.4889 97.1084 29.7682 97.0908C28.8483 97.0674 28.1217 96.7246 27.5885 96.0625L26.7184 100.562H24.2399L26.5162 87.3965L28.8014 87.3877L28.6344 88.3457C29.3199 87.5723 30.1285 87.1973 31.0602 87.2207C31.9918 87.2441 32.7154 87.584 33.2311 88.2402C33.7467 88.8906 34.0221 89.7754 34.0572 90.8945C34.069 91.2578 34.0514 91.6855 34.0045 92.1777ZM31.5436 91.9932L31.5963 91.1494C31.608 90.5811 31.5026 90.1299 31.2799 89.7959C31.0631 89.4619 30.7438 89.2891 30.3219 89.2773C29.6012 89.2539 29.0065 89.5586 28.5377 90.1914L27.8258 94.1113C28.0426 94.7031 28.5084 95.0107 29.2233 95.0342C29.8209 95.0518 30.319 94.8203 30.7174 94.3398C31.1158 93.8594 31.3912 93.0771 31.5436 91.9932Z" fill="black"/>
<path d="M39.4888 87.2119C40.4731 87.2354 41.2261 87.6338 41.7476 88.4072L42.1518 87.3877L44.3667 87.3965L42.0815 100.562H39.5854L40.4731 96.0713C39.811 96.7686 39.0405 97.1055 38.1616 97.082C37.5698 97.0762 37.0513 96.9209 36.6059 96.6162C36.1606 96.3115 35.8149 95.8721 35.5688 95.2979C35.3286 94.7178 35.1968 94.082 35.1733 93.3906C35.1558 93.0215 35.1645 92.6611 35.1997 92.3096L35.2524 91.9229C35.3931 90.9385 35.6626 90.0771 36.061 89.3389C36.4653 88.6006 36.9575 88.0586 37.5376 87.7129C38.1235 87.3613 38.7739 87.1943 39.4888 87.2119ZM37.6518 93.4434C37.7104 94.4863 38.1265 95.0166 38.8999 95.0342C39.5972 95.0576 40.1948 94.75 40.6929 94.1113L41.4136 90.1562C41.1851 89.5879 40.7251 89.292 40.0337 89.2686C39.4126 89.251 38.8999 89.4971 38.4956 90.0068C38.0913 90.5107 37.8306 91.2168 37.7134 92.125C37.6548 92.7285 37.6343 93.168 37.6518 93.4434Z" fill="black"/>
<path d="M51.2132 89.7783C50.8734 89.7197 50.5951 89.6904 50.3783 89.6904C49.4935 89.667 48.7933 89.998 48.2777 90.6836L47.1791 96.9062H44.7006L46.3529 87.3965L48.682 87.3877L48.4535 88.5479C49.0511 87.6514 49.7894 87.2031 50.6683 87.2031C50.9144 87.2031 51.2015 87.2441 51.5297 87.3262L51.2132 89.7783Z" fill="black"/>
<path d="M56.6803 94.2256C56.7741 93.7568 56.4489 93.417 55.7048 93.2061L54.905 93.0039C53.0124 92.4824 52.0925 91.5625 52.1452 90.2441C52.1745 89.3477 52.57 88.6182 53.3317 88.0557C54.0993 87.4873 55.0221 87.209 56.1003 87.2207C57.1725 87.2324 58.0397 87.5166 58.7018 88.0732C59.3639 88.6299 59.7009 89.3711 59.7126 90.2969L57.2516 90.2881C57.2634 89.4736 56.8591 89.0605 56.0387 89.0488C55.652 89.0488 55.3151 89.1455 55.028 89.3389C54.7467 89.5322 54.5739 89.793 54.5094 90.1211C54.4216 90.5898 54.776 90.9209 55.5729 91.1143L55.9245 91.1934C56.7331 91.3867 57.3512 91.6094 57.779 91.8613C58.2067 92.1074 58.5348 92.415 58.7634 92.7842C58.9977 93.1533 59.1061 93.5957 59.0885 94.1113C59.071 94.7148 58.8747 95.2422 58.4997 95.6934C58.1305 96.1445 57.6208 96.4932 56.9704 96.7393C56.3259 96.9854 55.6462 97.0996 54.9313 97.082C53.8766 97.0703 52.9977 96.7686 52.2946 96.1768C51.5915 95.5791 51.2341 94.8086 51.2223 93.8652L53.5602 93.8828C53.5837 94.791 54.07 95.251 55.0192 95.2627C55.4762 95.2627 55.8512 95.1689 56.1442 94.9814C56.443 94.7939 56.6217 94.542 56.6803 94.2256Z" fill="black"/>
<path d="M65.2676 85.0586L64.8545 87.3965H66.4365L66.1113 89.2598H64.5293L63.7207 94.0234C63.6855 94.3223 63.709 94.5508 63.791 94.709C63.873 94.8672 64.0722 94.9521 64.3887 94.9639C64.4824 94.9697 64.7344 94.9551 65.1445 94.9199L64.9687 96.8623C64.5293 97.0088 64.0547 97.0762 63.5449 97.0645C62.7304 97.0527 62.124 96.7979 61.7256 96.2998C61.3271 95.8018 61.1631 95.1279 61.2334 94.2783L62.0508 89.2598H60.706L61.0312 87.3965H62.376L62.7803 85.0586H65.2676Z" fill="black"/>
<path d="M72.1053 95.9219C71.4022 96.7129 70.5292 97.0996 69.4862 97.082C68.5721 97.0703 67.8807 96.7422 67.412 96.0977C66.9432 95.4531 66.7616 94.6035 66.867 93.5488L67.8954 87.3965H70.3739L69.328 93.5752C69.3046 93.7686 69.3016 93.9502 69.3192 94.1201C69.3778 94.7061 69.703 95.0078 70.2948 95.0254C71.0624 95.0488 71.6981 94.7529 72.202 94.1377L73.3885 87.3965H75.8846L74.2323 96.9062H71.9208L72.1053 95.9219Z" fill="black"/>
<path d="M80.0773 93.7686L82.7843 87.3965H85.4562L80.8595 96.9062H78.4865L76.8605 87.3965H79.3742L80.0773 93.7686Z" fill="black"/>
<path d="M93.5776 93.4434L95.8364 87.3965H98.3061L94.3071 96.9062H92.2329L91.5298 90.9561L88.7524 96.9062H86.6782L85.9751 87.3965H88.2954L88.4448 93.3818L91.1606 87.3965H92.9536L93.5776 93.4434Z" fill="black"/>
<path d="M102.472 90.2178L104.467 87.3965H107.253L103.808 92.1777L105.733 96.9062H103.219L102.05 93.9355L99.9496 96.9062H97.1458L100.732 91.9316L98.8949 87.3965H101.409L102.472 90.2178Z" fill="black"/>
<path d="M110.892 93.2852L113.608 87.3965H116.367L110.804 98.3389C110.405 99.1768 109.937 99.792 109.398 100.185C108.864 100.577 108.246 100.773 107.543 100.773C107.268 100.773 106.869 100.712 106.348 100.589L106.532 98.6553L106.875 98.6729C107.684 98.6963 108.276 98.4004 108.651 97.7852L109.196 96.7744L107.64 87.3965H110.206L110.892 93.2852Z" fill="black"/>
<path d="M118.934 94.8408L123.416 94.8584L123.056 96.9062H115.383L115.673 95.2275L120.973 89.4707L116.798 89.4531L117.158 87.3965H124.567L124.286 89.0225L118.934 94.8408Z" fill="black"/>
</g>
<g id="1234567890">
<path d="M10.9238 117.906H8.44531L10.1328 108.168L7.02148 109.108L7.4082 106.938L12.752 105.092L13.0771 105.083L10.9238 117.906Z" fill="black"/>
<path d="M23.6411 117.906H15.1157L15.4058 116.061L19.9497 111.798C20.8813 110.925 21.4995 110.216 21.8042 109.671C22.1089 109.126 22.2231 108.593 22.147 108.071C22.0239 107.345 21.605 106.973 20.8901 106.955C20.3276 106.943 19.8559 107.14 19.4751 107.544C19.1001 107.948 18.8716 108.479 18.7895 109.135L16.311 109.144C16.3579 108.347 16.5952 107.623 17.0229 106.973C17.4507 106.322 18.019 105.818 18.728 105.461C19.4429 105.098 20.2134 104.919 21.0395 104.925C22.229 104.948 23.1548 105.282 23.8169 105.927C24.479 106.571 24.772 107.43 24.6958 108.502C24.602 109.709 23.8901 110.969 22.56 112.281L21.2944 113.485L18.6753 115.841L23.9663 115.858L23.6411 117.906Z" fill="black"/>
<path d="M28.9228 110.383L30.1094 110.392C30.7129 110.392 31.2168 110.225 31.6211 109.891C32.0312 109.557 32.2685 109.108 32.333 108.546C32.3916 108.071 32.3008 107.693 32.0605 107.412C31.8203 107.125 31.4599 106.976 30.9795 106.964C30.499 106.952 30.0859 107.084 29.7402 107.359C29.4004 107.629 29.1924 107.981 29.1162 108.414L26.6377 108.432C26.6904 107.4 27.1328 106.557 27.9648 105.9C28.8027 105.238 29.8193 104.913 31.0146 104.925C32.2217 104.948 33.1767 105.285 33.8799 105.936C34.583 106.586 34.9023 107.447 34.8379 108.52C34.7558 109.738 33.9795 110.693 32.5088 111.385C33.083 111.66 33.5019 112.053 33.7656 112.563C34.0351 113.066 34.1523 113.629 34.1172 114.25C34.0761 115.023 33.8388 115.703 33.4053 116.289C32.9717 116.875 32.3916 117.326 31.665 117.643C30.9385 117.953 30.1533 118.1 29.3095 118.082C28.167 118.07 27.2353 117.728 26.5146 117.054C25.7939 116.38 25.4394 115.492 25.4511 114.391H27.9121C27.9004 114.865 28.0322 115.255 28.3076 115.56C28.5888 115.858 28.9785 116.014 29.4765 116.025C30.0508 116.037 30.5429 115.876 30.9531 115.542C31.3633 115.202 31.6035 114.76 31.6738 114.215C31.75 113.629 31.6445 113.181 31.3574 112.87C31.0761 112.56 30.6455 112.396 30.0654 112.378L28.6064 112.369L28.9228 110.383Z" fill="black"/>
<path d="M43.3891 113.09H44.7954L44.435 115.138H43.0288L42.5454 117.906H40.0669L40.5503 115.138H35.4702L35.646 113.406L42.1762 105.109H44.769L43.3891 113.09ZM38.2212 113.072L40.9106 113.09L41.7807 108.537L41.5522 108.854L38.2212 113.072Z" fill="black"/>
<path d="M46.7812 111.578L48.5039 105.109H55.5L55.166 107.228H50.2529L49.4091 109.996C49.9306 109.668 50.5459 109.504 51.2548 109.504C52.3505 109.504 53.1972 109.894 53.7949 110.673C54.3984 111.446 54.6533 112.469 54.5595 113.74C54.4892 114.584 54.2402 115.343 53.8125 116.017C53.3906 116.69 52.8339 117.209 52.1425 117.572C51.4511 117.936 50.6894 118.108 49.8574 118.091C49.1367 118.085 48.4804 117.921 47.8886 117.599C47.3027 117.271 46.8457 116.822 46.5175 116.254C46.1894 115.68 46.0224 115.041 46.0166 114.338H48.4511C48.4746 114.859 48.6181 115.27 48.8818 115.568C49.1455 115.861 49.5029 116.014 49.9541 116.025C50.54 116.043 51.0205 115.829 51.3955 115.384C51.7763 114.939 52.0048 114.341 52.081 113.591C52.1513 112.923 52.0488 112.396 51.7734 112.009C51.5039 111.622 51.0908 111.423 50.5341 111.411C49.913 111.399 49.3388 111.628 48.8115 112.097L46.7812 111.578Z" fill="black"/>
<path d="M64.2446 104.969L64.0512 107.069L63.5678 107.078C61.558 107.184 60.1079 108.291 59.2172 110.4C59.9496 109.68 60.808 109.331 61.7924 109.355C62.4838 109.366 63.0668 109.56 63.5414 109.935C64.0219 110.31 64.3735 110.822 64.5961 111.473C64.8188 112.123 64.8979 112.841 64.8334 113.626C64.7631 114.464 64.5112 115.232 64.0776 115.929C63.6498 116.62 63.0873 117.159 62.3901 117.546C61.6928 117.927 60.9399 118.108 60.1313 118.091C59.2934 118.067 58.5727 117.833 57.9692 117.388C57.3715 116.937 56.935 116.321 56.6596 115.542C56.3842 114.763 56.2934 113.913 56.3871 112.993L56.4838 112.202C56.7592 109.999 57.5649 108.244 58.9008 106.938C60.2426 105.625 61.9125 104.969 63.9106 104.969H64.2446ZM60.9487 111.376C60.5209 111.364 60.1371 111.47 59.7973 111.692C59.4575 111.915 59.1762 112.199 58.9536 112.545L58.8393 113.336C58.81 113.6 58.7983 113.887 58.8041 114.197C58.8159 114.748 58.9418 115.19 59.1821 115.524C59.4223 115.858 59.7621 116.028 60.2016 116.034C60.6352 116.052 61.0307 115.911 61.3881 115.612C61.7455 115.314 62.0092 114.912 62.1791 114.408C62.3491 113.904 62.4047 113.392 62.3461 112.87C62.2934 112.413 62.144 112.053 61.8979 111.789C61.6577 111.52 61.3413 111.382 60.9487 111.376Z" fill="black"/>
<path d="M75.872 106.665L69.3681 117.906H66.6347L73.121 107.166H67.0038L67.329 105.109H76.1093L75.872 106.665Z" fill="black"/>
<path d="M85.4516 108.44C85.3695 109.689 84.6371 110.664 83.2543 111.367C83.7524 111.713 84.1244 112.141 84.3705 112.65C84.6166 113.16 84.7192 113.717 84.6781 114.32C84.6137 115.469 84.1479 116.389 83.2807 117.08C82.4135 117.772 81.3412 118.106 80.0639 118.082C78.8979 118.07 77.9604 117.736 77.2514 117.08C76.5483 116.424 76.2289 115.557 76.2934 114.479C76.3754 113.061 77.2104 111.988 78.7983 111.262C77.9369 110.576 77.5356 109.683 77.5942 108.581C77.6352 107.855 77.849 107.21 78.2358 106.648C78.6225 106.085 79.141 105.654 79.7914 105.356C80.4477 105.057 81.1625 104.916 81.936 104.934C83.0434 104.957 83.9223 105.288 84.5727 105.927C85.2231 106.56 85.516 107.398 85.4516 108.44ZM82.2348 114.145C82.2992 113.641 82.2084 113.222 81.9623 112.888C81.7162 112.554 81.3529 112.381 80.8725 112.369C80.3393 112.357 79.8793 112.53 79.4926 112.888C79.1117 113.245 78.8832 113.714 78.807 114.294C78.7426 114.798 78.8305 115.214 79.0707 115.542C79.3168 115.864 79.686 116.031 80.1781 116.043C80.7172 116.055 81.1742 115.885 81.5492 115.533C81.9301 115.182 82.1586 114.719 82.2348 114.145ZM82.9467 108.564C82.9994 108.083 82.9233 107.702 82.7182 107.421C82.5131 107.134 82.2084 106.984 81.8041 106.973C81.3412 106.961 80.9486 107.116 80.6264 107.439C80.3041 107.755 80.1108 108.177 80.0463 108.704C79.9936 109.179 80.0639 109.568 80.2572 109.873C80.4565 110.172 80.7641 110.327 81.1801 110.339C81.6371 110.351 82.0297 110.192 82.3578 109.864C82.686 109.53 82.8822 109.097 82.9467 108.564Z" fill="black"/>
<path d="M92.5614 112.782C91.8407 113.45 91.0702 113.778 90.2499 113.767C89.5468 113.761 88.9491 113.573 88.4569 113.204C87.9648 112.835 87.5985 112.322 87.3583 111.666C87.1239 111.004 87.0419 110.289 87.1122 109.522C87.1942 108.578 87.4931 107.726 88.0087 106.964C88.5243 106.202 89.1952 105.64 90.0214 105.276C90.5663 105.036 91.164 104.922 91.8144 104.934C92.869 104.957 93.7099 105.326 94.3368 106.041C94.9638 106.756 95.3183 107.714 95.4003 108.915C95.4237 109.331 95.4149 109.744 95.3739 110.154L95.2773 110.91C94.9901 113.143 94.1933 114.889 92.8866 116.148C91.5858 117.408 89.9159 118.038 87.8769 118.038H87.6923L87.8857 115.911H88.0175C89.1718 115.929 90.121 115.68 90.8651 115.164C91.6093 114.643 92.1747 113.849 92.5614 112.782ZM90.9355 111.833C91.6386 111.857 92.2597 111.496 92.7987 110.752L92.9482 109.689C92.9774 109.442 92.9921 109.164 92.9921 108.854C92.9804 108.291 92.8632 107.84 92.6405 107.5C92.4179 107.16 92.0956 106.984 91.6737 106.973C91.2519 106.967 90.871 107.119 90.5312 107.43C90.1972 107.734 89.9423 108.153 89.7665 108.687C89.5966 109.22 89.5351 109.75 89.5819 110.277C89.623 110.746 89.7607 111.121 89.995 111.402C90.2353 111.684 90.5487 111.827 90.9355 111.833Z" fill="black"/>
<path d="M100.225 118.082C99.1176 118.059 98.2621 117.684 97.6586 116.957C97.0551 116.231 96.7445 115.217 96.7269 113.916C96.7211 113.482 96.7445 113.049 96.7973 112.615L97.1576 110.216C97.4447 108.47 98.0101 107.146 98.8539 106.243C99.6976 105.341 100.779 104.904 102.097 104.934C103.204 104.957 104.06 105.332 104.663 106.059C105.273 106.779 105.586 107.787 105.604 109.082C105.61 109.522 105.586 109.958 105.534 110.392L105.164 112.773C104.871 114.531 104.306 115.864 103.468 116.773C102.636 117.675 101.555 118.111 100.225 118.082ZM103.204 108.783C103.204 107.617 102.794 107.014 101.974 106.973C100.79 106.92 100.037 107.822 99.7152 109.68L99.2758 112.65C99.182 113.272 99.1351 113.787 99.1351 114.197C99.1059 115.387 99.5131 116.002 100.357 116.043C101.546 116.119 102.302 115.19 102.624 113.257L103.09 110.128C103.166 109.618 103.204 109.17 103.204 108.783Z" fill="black"/>
</g>
</g>
</svg>
