<svg width="162" height="122" viewBox="0 0 162 122" fill="none" xmlns="http://www.w3.org/2000/svg">
<g id="Roboto_black">
<g id="Black">
<path d="M1.30566 13.5117V3.39453H3.93066C4.94238 3.39453 5.71712 3.58594 6.25488 3.96875C6.7972 4.35156 7.06836 4.90299 7.06836 5.62305C7.06836 6.84896 6.37565 7.72168 4.99023 8.24121C6.64453 8.74707 7.47168 9.66081 7.47168 10.9824C7.47168 11.8027 7.19824 12.4294 6.65137 12.8623C6.10449 13.2952 5.31608 13.5117 4.28613 13.5117H1.30566ZM2.72754 12.4385H3.02148C4.07422 12.4385 4.75553 12.3724 5.06543 12.2402C5.65788 11.9896 5.9541 11.5247 5.9541 10.8457C5.9541 10.2441 5.68522 9.74512 5.14746 9.34863C4.6097 8.94759 3.9375 8.74707 3.13086 8.74707H2.72754V12.4385ZM2.72754 7.83789H3.18555C3.95117 7.83789 4.54362 7.67383 4.96289 7.3457C5.38672 7.01758 5.59863 6.55501 5.59863 5.95801C5.59863 4.96452 4.82845 4.46777 3.28809 4.46777H2.72754V7.83789Z" fill="black"/>
<path d="M9.38891 13.5117V2.71777H10.7356V13.5117H9.38891Z" fill="black"/>
<path d="M17.2534 12.5684C16.4468 13.3112 15.6698 13.6826 14.9224 13.6826C14.3071 13.6826 13.7967 13.4912 13.3911 13.1084C12.9855 12.721 12.7827 12.2334 12.7827 11.6455C12.7827 10.8343 13.1222 10.2122 13.8013 9.7793C14.4849 9.3418 15.4624 9.12305 16.7339 9.12305H17.0552V8.22754C17.0552 7.36621 16.6131 6.93555 15.729 6.93555C15.0181 6.93555 14.2502 7.1543 13.4253 7.5918V6.47754C14.3322 6.1084 15.1821 5.92383 15.9751 5.92383C16.8045 5.92383 17.4152 6.11068 17.8071 6.48438C18.2036 6.85807 18.4019 7.43913 18.4019 8.22754V11.5908C18.4019 12.361 18.6388 12.7461 19.1128 12.7461C19.172 12.7461 19.2586 12.737 19.3726 12.7188L19.4683 13.4639C19.1629 13.6097 18.8257 13.6826 18.4565 13.6826C17.8276 13.6826 17.4266 13.3112 17.2534 12.5684ZM17.0552 11.8369V9.91602L16.604 9.90234C15.8657 9.90234 15.2687 10.0436 14.813 10.3262C14.3573 10.6042 14.1294 10.971 14.1294 11.4268C14.1294 11.7503 14.2433 12.0238 14.4712 12.2471C14.6991 12.4704 14.977 12.582 15.3052 12.582C15.8657 12.582 16.4491 12.3337 17.0552 11.8369Z" fill="black"/>
<path d="M24.0375 13.6826C23.0349 13.6826 22.2032 13.3112 21.5424 12.5684C20.8816 11.8255 20.5512 10.889 20.5512 9.75879C20.5512 8.55111 20.877 7.61003 21.5287 6.93555C22.185 6.26107 23.0987 5.92383 24.2699 5.92383C24.8487 5.92383 25.4958 6.00358 26.2113 6.16309V7.29102C25.4503 7.06771 24.8305 6.95605 24.352 6.95605C23.6638 6.95605 23.1101 7.21582 22.6908 7.73535C22.2761 8.25033 22.0688 8.93848 22.0688 9.7998C22.0688 10.6338 22.283 11.3083 22.7113 11.8232C23.1397 12.3382 23.7003 12.5957 24.393 12.5957C25.0082 12.5957 25.6417 12.4385 26.2934 12.124V13.2861C25.4229 13.5505 24.671 13.6826 24.0375 13.6826Z" fill="black"/>
<path d="M28.2923 13.5117V2.71777H29.639V9.69043L32.7835 6.08789H34.2327L31.2318 9.55371L34.8548 13.5117H33.1321L29.639 9.7041V13.5117H28.2923Z" fill="black"/>
</g>
<g id="ABCDEFGHIJKLM">
<path d="M13.2354 31.5156H9.00781L8.26953 33.9062H4.97363L9.66699 21.1094H12.5674L17.2959 33.9062H13.9824L13.2354 31.5156ZM9.74609 29.1338H12.4971L11.1172 24.6953L9.74609 29.1338Z" fill="black"/>
<path d="M18.2399 33.9062V21.1094H22.8366C24.4831 21.1094 25.7341 21.4111 26.5895 22.0146C27.4509 22.6182 27.8815 23.4941 27.8815 24.6426C27.8815 25.3047 27.7292 25.8701 27.4245 26.3389C27.1198 26.8076 26.6716 27.1533 26.0798 27.376C26.7477 27.5518 27.2604 27.8799 27.6179 28.3604C27.9753 28.8408 28.154 29.4268 28.154 30.1182C28.154 31.3721 27.7556 32.3154 26.9587 32.9482C26.1677 33.5752 24.9929 33.8945 23.4343 33.9062H18.2399ZM21.3249 28.4658V31.5332H23.3464C23.903 31.5332 24.3307 31.4072 24.6296 31.1553C24.9284 30.8975 25.0778 30.5371 25.0778 30.0742C25.0778 29.0078 24.5475 28.4717 23.487 28.4658H21.3249ZM21.3249 26.4443H22.9333C23.6071 26.4385 24.0876 26.3154 24.3747 26.0752C24.6618 25.835 24.8054 25.4805 24.8054 25.0117C24.8054 24.4727 24.6501 24.0859 24.3395 23.8516C24.029 23.6113 23.528 23.4912 22.8366 23.4912H21.3249V26.4443Z" fill="black"/>
<path d="M40.2162 29.5732C40.1752 30.4639 39.9349 31.252 39.4955 31.9375C39.056 32.6172 38.4379 33.1445 37.641 33.5195C36.85 33.8945 35.9447 34.082 34.9252 34.082C33.2435 34.082 31.9193 33.5342 30.9525 32.4385C29.9857 31.3428 29.5023 29.7959 29.5023 27.7979V27.165C29.5023 25.9111 29.7191 24.8154 30.1527 23.8779C30.5922 22.9346 31.222 22.208 32.0424 21.6982C32.8627 21.1826 33.8119 20.9248 34.89 20.9248C36.4427 20.9248 37.6908 21.335 38.6342 22.1553C39.5775 22.9697 40.1136 24.0947 40.2426 25.5303H37.1664C37.1429 24.751 36.9467 24.1914 36.5775 23.8516C36.2084 23.5117 35.6459 23.3418 34.89 23.3418C34.1224 23.3418 33.5599 23.6289 33.2025 24.2031C32.8451 24.7773 32.6576 25.6943 32.64 26.9541V27.8594C32.64 29.2246 32.8099 30.2002 33.1498 30.7861C33.4955 31.3721 34.0873 31.665 34.9252 31.665C35.6342 31.665 36.1761 31.498 36.5511 31.1641C36.9261 30.8301 37.1254 30.2998 37.1488 29.5732H40.2162Z" fill="black"/>
<path d="M41.6806 33.9062V21.1094H45.8026C46.9335 21.1094 47.9501 21.3672 48.8524 21.8828C49.7548 22.3926 50.4579 23.1162 50.9618 24.0537C51.4716 24.9854 51.7294 26.0312 51.7353 27.1914V27.7803C51.7353 28.9521 51.4862 30.0039 50.9882 30.9355C50.496 31.8613 49.7987 32.5879 48.8964 33.1152C47.9999 33.6367 46.998 33.9004 45.8905 33.9062H41.6806ZM44.7655 23.4912V31.5332H45.8378C46.7226 31.5332 47.4022 31.2197 47.8769 30.5928C48.3515 29.96 48.5888 29.0225 48.5888 27.7803V27.2266C48.5888 25.9902 48.3515 25.0586 47.8769 24.4316C47.4022 23.8047 46.7108 23.4912 45.8026 23.4912H44.7655Z" fill="black"/>
<path d="M61.2628 28.4834H56.4112V31.5332H62.1417V33.9062H53.3263V21.1094H62.1593V23.4912H56.4112V26.1895H61.2628V28.4834Z" fill="black"/>
<path d="M71.4509 28.8086H66.4763V33.9062H63.3914V21.1094H71.9519V23.4912H66.4763V26.4355H71.4509V28.8086Z" fill="black"/>
<path d="M83.7099 32.3242C83.2353 32.8516 82.5409 33.2764 81.6269 33.5986C80.7128 33.9209 79.7108 34.082 78.621 34.082C76.9452 34.082 75.6064 33.5693 74.6044 32.5439C73.6024 31.5186 73.0663 30.0918 72.996 28.2637L72.9872 27.1562C72.9872 25.8965 73.2099 24.7979 73.6552 23.8604C74.1005 22.917 74.7362 22.1934 75.5624 21.6895C76.3944 21.1797 77.3554 20.9248 78.4452 20.9248C80.039 20.9248 81.2753 21.291 82.1542 22.0234C83.039 22.75 83.5546 23.8369 83.7011 25.2842H80.7304C80.6249 24.5693 80.3964 24.0596 80.0448 23.7549C79.6933 23.4502 79.1952 23.2979 78.5507 23.2979C77.7773 23.2979 77.1796 23.626 76.7577 24.2822C76.3358 24.9385 76.122 25.876 76.1161 27.0947V27.8682C76.1161 29.1455 76.3329 30.1064 76.7665 30.751C77.206 31.3896 77.8944 31.709 78.8319 31.709C79.6347 31.709 80.2323 31.5303 80.6249 31.1729V29.1865H78.4804V27.0684H83.7099V32.3242Z" fill="black"/>
<path d="M96.1919 33.9062H93.1245V28.5625H88.5806V33.9062H85.4956V21.1094H88.5806V26.1895H93.1245V21.1094H96.1919V33.9062Z" fill="black"/>
<path d="M101.432 33.9062H98.3556V21.1094H101.432V33.9062Z" fill="black"/>
<path d="M108.67 21.1094H111.747V29.8896C111.747 30.7041 111.556 31.4307 111.175 32.0693C110.8 32.708 110.273 33.2031 109.593 33.5547C108.919 33.9062 108.166 34.082 107.334 34.082C105.94 34.082 104.856 33.7305 104.082 33.0273C103.309 32.3242 102.922 31.3281 102.922 30.0391H106.016C106.016 30.625 106.116 31.0498 106.315 31.3135C106.52 31.5771 106.86 31.709 107.334 31.709C107.762 31.709 108.09 31.5508 108.319 31.2344C108.553 30.9121 108.67 30.4639 108.67 29.8896V21.1094Z" fill="black"/>
<path d="M118.052 29.1426L116.786 30.5312V33.9062H113.701V21.1094H116.786V26.752L117.859 25.126L120.618 21.1094H124.433L120.109 26.7695L124.433 33.9062H120.777L118.052 29.1426Z" fill="black"/>
<path d="M128.293 31.5332H133.663V33.9062H125.208V21.1094H128.293V31.5332Z" fill="black"/>
<path d="M139.019 21.1094L141.875 30.0127L144.723 21.1094H148.784V33.9062H145.69V30.918L145.989 24.8008L142.895 33.9062H140.856L137.753 24.792L138.052 30.918V33.9062H134.967V21.1094H139.019Z" fill="black"/>
</g>
<g id="NOPQRSTUVWXYZ">
<path d="M16.6543 54.9062H13.5869L9.05176 46.9434V54.9062H5.9668V42.1094H9.05176L13.5781 50.0723V42.1094H16.6543V54.9062Z" fill="black"/>
<path d="M29.4442 48.7715C29.4442 50.0195 29.2127 51.124 28.7498 52.085C28.287 53.0459 27.6278 53.7871 26.7723 54.3086C25.9227 54.8242 24.953 55.082 23.8631 55.082C22.7733 55.082 21.8065 54.833 20.9627 54.335C20.119 53.8311 19.4598 53.1133 18.9852 52.1816C18.5164 51.25 18.2704 50.1807 18.2469 48.9736V48.2529C18.2469 46.999 18.4754 45.8945 18.9325 44.9395C19.3954 43.9785 20.0545 43.2373 20.91 42.7158C21.7713 42.1943 22.7498 41.9336 23.8456 41.9336C24.9295 41.9336 25.8963 42.1914 26.7459 42.707C27.5956 43.2227 28.2547 43.958 28.7235 44.9131C29.1981 45.8623 29.4383 46.9521 29.4442 48.1826V48.7715ZM26.3065 48.2354C26.3065 46.9639 26.0926 46 25.6649 45.3438C25.243 44.6816 24.6366 44.3506 23.8456 44.3506C22.2987 44.3506 21.4813 45.5107 21.3934 47.8311L21.3846 48.7715C21.3846 50.0254 21.5926 50.9893 22.0086 51.6631C22.4247 52.3369 23.0428 52.6738 23.8631 52.6738C24.6424 52.6738 25.243 52.3428 25.6649 51.6807C26.0868 51.0186 26.3006 50.0664 26.3065 48.8242V48.2354Z" fill="black"/>
<path d="M34.1272 50.5645V54.9062H31.0422V42.1094H36.1486C37.1272 42.1094 37.9914 42.291 38.7414 42.6543C39.4973 43.0117 40.0803 43.5244 40.4904 44.1924C40.9065 44.8545 41.1145 45.6074 41.1145 46.4512C41.1145 47.6992 40.6662 48.6982 39.7697 49.4482C38.8791 50.1924 37.6545 50.5645 36.0959 50.5645H34.1272ZM34.1272 48.1826H36.1486C36.7463 48.1826 37.2004 48.0332 37.511 47.7344C37.8274 47.4355 37.9856 47.0137 37.9856 46.4688C37.9856 45.8711 37.8244 45.3936 37.5022 45.0361C37.1799 44.6787 36.7404 44.4971 36.1838 44.4912H34.1272V48.1826Z" fill="black"/>
<path d="M53.6195 48.7715C53.6195 49.9551 53.4232 50.9893 53.0306 51.874C52.6381 52.7529 52.0961 53.459 51.4047 53.9922L53.4701 55.627L51.5629 57.2441L48.8119 55.0293C48.5541 55.0645 48.2963 55.082 48.0384 55.082C46.9486 55.082 45.9818 54.8301 45.1381 54.3262C44.2943 53.8223 43.6351 53.1016 43.1605 52.1641C42.6918 51.2266 42.4486 50.1484 42.431 48.9297V48.2529C42.431 46.9932 42.6595 45.8857 43.1166 44.9307C43.5795 43.9756 44.2357 43.2373 45.0853 42.7158C45.9408 42.1943 46.9193 41.9336 48.0209 41.9336C49.1049 41.9336 50.0717 42.1914 50.9213 42.707C51.7709 43.2227 52.43 43.958 52.8988 44.9131C53.3734 45.8623 53.6136 46.9521 53.6195 48.1826V48.7715ZM50.4818 48.2354C50.4818 46.9639 50.2679 46 49.8402 45.3438C49.4183 44.6816 48.8119 44.3506 48.0209 44.3506C47.2064 44.3506 46.5941 44.6758 46.184 45.3262C45.7738 45.9766 45.5658 46.9287 45.5599 48.1826V48.7715C45.5599 50.0312 45.7679 50.998 46.184 51.6719C46.6 52.3398 47.2181 52.6738 48.0384 52.6738C48.8236 52.6738 49.4242 52.3428 49.8402 51.6807C50.2621 51.0186 50.4759 50.0664 50.4818 48.8242V48.2354Z" fill="black"/>
<path d="M59.9548 50.3887H58.2849V54.9062H55.1999V42.1094H60.2361C61.7537 42.1094 62.9402 42.4463 63.7957 43.1201C64.6511 43.7939 65.0789 44.7461 65.0789 45.9766C65.0789 46.8672 64.8972 47.6055 64.5339 48.1914C64.1765 48.7773 63.614 49.252 62.8464 49.6152L65.5183 54.7744V54.9062H62.2136L59.9548 50.3887ZM58.2849 48.0068H60.2361C60.822 48.0068 61.2615 47.8545 61.5544 47.5498C61.8533 47.2393 62.0027 46.8086 62.0027 46.2578C62.0027 45.707 61.8533 45.2764 61.5544 44.9658C61.2556 44.6494 60.8162 44.4912 60.2361 44.4912H58.2849V48.0068Z" fill="black"/>
<path d="M73.5481 51.5049C73.5481 51.0537 73.387 50.7021 73.0647 50.4502C72.7483 50.1982 72.1887 49.9375 71.386 49.668C70.5833 49.3984 69.927 49.1377 69.4173 48.8857C67.7591 48.0713 66.93 46.9521 66.93 45.5283C66.93 44.8193 67.135 44.1953 67.5452 43.6562C67.9612 43.1113 68.5471 42.6895 69.303 42.3906C70.0589 42.0859 70.9085 41.9336 71.8518 41.9336C72.7718 41.9336 73.595 42.0977 74.3216 42.4258C75.054 42.7539 75.6223 43.2227 76.0266 43.832C76.4309 44.4355 76.6331 45.127 76.6331 45.9062H73.5569C73.5569 45.3848 73.3958 44.9805 73.0735 44.6934C72.7571 44.4062 72.3264 44.2627 71.7815 44.2627C71.2307 44.2627 70.7942 44.3857 70.4719 44.6318C70.1555 44.8721 69.9973 45.1797 69.9973 45.5547C69.9973 45.8828 70.1731 46.1816 70.5247 46.4512C70.8762 46.7148 71.4944 46.9902 72.3792 47.2773C73.2639 47.5586 73.9905 47.8633 74.5589 48.1914C75.9417 48.9883 76.6331 50.0869 76.6331 51.4873C76.6331 52.6064 76.2112 53.4854 75.3675 54.124C74.5237 54.7627 73.3665 55.082 71.8958 55.082C70.8587 55.082 69.9182 54.8975 69.0745 54.5283C68.2366 54.1533 67.6038 53.6436 67.176 52.999C66.7542 52.3486 66.5432 51.6016 66.5432 50.7578H69.637C69.637 51.4434 69.8128 51.9502 70.1643 52.2783C70.5218 52.6006 71.0989 52.7617 71.8958 52.7617C72.4055 52.7617 72.8069 52.6533 73.0999 52.4365C73.3987 52.2139 73.5481 51.9033 73.5481 51.5049Z" fill="black"/>
<path d="M88.2628 44.4912H84.422V54.9062H81.337V44.4912H77.5665V42.1094H88.2628V44.4912Z" fill="black"/>
<path d="M99.6167 42.1094V50.4854C99.6167 51.4346 99.4145 52.2578 99.0102 52.9551C98.6059 53.6465 98.0259 54.1738 97.27 54.5371C96.5142 54.9004 95.6206 55.082 94.5893 55.082C93.0308 55.082 91.8032 54.6777 90.9067 53.8691C90.0102 53.0605 89.5532 51.9531 89.5356 50.5469V42.1094H92.6382V50.6084C92.6733 52.0088 93.3237 52.709 94.5893 52.709C95.228 52.709 95.7114 52.5332 96.0395 52.1816C96.3677 51.8301 96.5317 51.2588 96.5317 50.4678V42.1094H99.6167Z" fill="black"/>
<path d="M106.509 51.4258L109.058 42.1094H112.503L108.196 54.9062H104.821L100.55 42.1094H103.969L106.509 51.4258Z" fill="black"/>
<path d="M123.35 50.1338L124.818 42.1094H127.877L125.161 54.9062H121.962L120.248 47.6113L118.569 54.9062H115.379L112.654 42.1094H115.721L117.189 50.1338L118.947 42.1094H121.566L123.35 50.1338Z" fill="black"/>
<path d="M133.855 46.3633L135.947 42.1094H139.471L135.894 48.4551L139.568 54.9062H136.008L133.855 50.5732L131.702 54.9062H128.151L131.816 48.4551L128.248 42.1094H131.763L133.855 46.3633Z" fill="black"/>
<path d="M145.267 47.6641L147.622 42.1094H150.953L146.831 50.3096V54.9062H143.702V50.3096L139.589 42.1094H142.903L145.267 47.6641Z" fill="black"/>
<path d="M155.346 52.5332H161.463V54.9062H151.497V53.2803L157.596 44.4912H151.461V42.1094H161.402V43.6914L155.346 52.5332Z" fill="black"/>
</g>
<g id="abcdefghijklm">
<path d="M11.1875 75.9062C11.082 75.7129 10.9883 75.4287 10.9062 75.0537C10.3613 75.7393 9.59961 76.082 8.62109 76.082C7.72461 76.082 6.96289 75.8125 6.33594 75.2734C5.70898 74.7285 5.39551 74.0459 5.39551 73.2256C5.39551 72.1943 5.77637 71.415 6.53809 70.8877C7.2998 70.3604 8.40723 70.0967 9.86035 70.0967H10.7744V69.5957C10.7744 68.7227 10.3965 68.2861 9.64062 68.2861C8.9375 68.2861 8.58594 68.6318 8.58594 69.3232H5.62402C5.62402 68.4033 6.01367 67.6562 6.79297 67.082C7.57812 66.5078 8.57715 66.2207 9.79004 66.2207C11.0029 66.2207 11.9609 66.5166 12.6641 67.1084C13.3672 67.7002 13.7275 68.5117 13.7451 69.543V73.7529C13.7568 74.626 13.8916 75.2939 14.1494 75.7568V75.9062H11.1875ZM9.33301 73.9727C9.70215 73.9727 10.0068 73.8936 10.2471 73.7354C10.4932 73.5771 10.6689 73.3984 10.7744 73.1992V71.6787H9.91309C8.88184 71.6787 8.36621 72.1416 8.36621 73.0674C8.36621 73.3369 8.45703 73.5566 8.63867 73.7266C8.82031 73.8906 9.05176 73.9727 9.33301 73.9727Z" fill="black"/>
<path d="M24.2181 71.2305C24.2181 72.7891 23.8958 73.9873 23.2513 74.8252C22.6068 75.6631 21.6985 76.082 20.5267 76.082C19.5599 76.082 18.7806 75.6982 18.1888 74.9307L18.0657 75.9062H15.4114V62.4062H18.3734V67.1611C18.9241 66.5342 19.636 66.2207 20.5091 66.2207C21.6927 66.2207 22.6068 66.6455 23.2513 67.4951C23.8958 68.3447 24.2181 69.54 24.2181 71.0811V71.2305ZM21.2474 71.0459C21.2474 70.1318 21.1243 69.4814 20.8782 69.0947C20.638 68.7021 20.2659 68.5059 19.762 68.5059C19.0941 68.5059 18.6312 68.7607 18.3734 69.2705V73.0498C18.6253 73.5537 19.0941 73.8057 19.7796 73.8057C20.4769 73.8057 20.9193 73.4658 21.1068 72.7861C21.2005 72.4521 21.2474 71.8721 21.2474 71.0459Z" fill="black"/>
<path d="M29.5494 73.7969C29.9655 73.7969 30.2877 73.6855 30.5162 73.4629C30.7448 73.2344 30.8561 72.918 30.8502 72.5137H33.6276C33.6276 73.5566 33.2526 74.4121 32.5026 75.0801C31.7584 75.748 30.7975 76.082 29.6198 76.082C28.2369 76.082 27.1471 75.6484 26.3502 74.7812C25.5533 73.9141 25.1549 72.7129 25.1549 71.1777V71.0547C25.1549 70.0938 25.3307 69.2471 25.6823 68.5146C26.0397 67.7764 26.5524 67.2109 27.2203 66.8184C27.8883 66.4199 28.6793 66.2207 29.5934 66.2207C30.8297 66.2207 31.8112 66.5635 32.5377 67.249C33.2643 67.9346 33.6276 68.8633 33.6276 70.0352H30.8502C30.8502 69.543 30.7301 69.165 30.4899 68.9014C30.2496 68.6377 29.9274 68.5059 29.5231 68.5059C28.7555 68.5059 28.3073 68.9951 28.1783 69.9736C28.1373 70.2842 28.1168 70.7119 28.1168 71.2568C28.1168 72.2119 28.2311 72.874 28.4596 73.2432C28.6881 73.6123 29.0514 73.7969 29.5494 73.7969Z" fill="black"/>
<path d="M34.4975 71.0811C34.4975 69.5752 34.8227 68.3887 35.4731 67.5215C36.1234 66.6543 37.0317 66.2207 38.1977 66.2207C39.0473 66.2207 39.7621 66.5547 40.3422 67.2227V62.4062H43.3129V75.9062H40.6498L40.5004 74.8867C39.891 75.6836 39.1176 76.082 38.1801 76.082C37.0492 76.082 36.1527 75.6484 35.4906 74.7812C34.8285 73.9141 34.4975 72.6807 34.4975 71.0811ZM37.4594 71.2656C37.4594 72.9531 37.9516 73.7969 38.936 73.7969C39.5922 73.7969 40.061 73.5215 40.3422 72.9707V69.3496C40.0727 68.7871 39.6098 68.5059 38.9535 68.5059C38.0395 68.5059 37.5443 69.2441 37.4682 70.7207L37.4594 71.2656Z" fill="black"/>
<path d="M49.5881 76.082C48.1291 76.082 46.9484 75.6484 46.0461 74.7812C45.1437 73.9082 44.6926 72.7744 44.6926 71.3799V71.1338C44.6926 70.1611 44.8713 69.3027 45.2287 68.5586C45.592 67.8145 46.1193 67.2402 46.8107 66.8359C47.5021 66.4258 48.3225 66.2207 49.2717 66.2207C50.6076 66.2207 51.6623 66.6367 52.4357 67.4688C53.2092 68.2949 53.5959 69.4492 53.5959 70.9316V72.083H47.7072C47.8127 72.6162 48.0441 73.0352 48.4016 73.3398C48.759 73.6445 49.2219 73.7969 49.7902 73.7969C50.7277 73.7969 51.4602 73.4688 51.9875 72.8125L53.341 74.4121C52.9719 74.9219 52.4475 75.3291 51.7678 75.6338C51.0939 75.9326 50.3674 76.082 49.5881 76.082ZM49.2541 68.5059C48.3869 68.5059 47.8713 69.0801 47.7072 70.2285H50.6955V70C50.7072 69.5254 50.5871 69.1592 50.3352 68.9014C50.0832 68.6377 49.7228 68.5059 49.2541 68.5059Z" fill="black"/>
<path d="M55.4576 75.9062V68.4531H54.0777V66.3965H55.4576V65.6406C55.4576 64.5566 55.7769 63.7158 56.4156 63.1182C57.0543 62.5205 57.9507 62.2217 59.105 62.2217C59.5269 62.2217 59.9898 62.2832 60.4937 62.4062L60.5025 64.5859C60.3209 64.5332 60.0777 64.5068 59.773 64.5068C58.8765 64.5068 58.4283 64.8936 58.4283 65.667V66.3965H60.2828V68.4531H58.4283V75.9062H55.4576Z" fill="black"/>
<path d="M60.7719 71.0811C60.7719 70.1201 60.9301 69.2705 61.2465 68.5322C61.5629 67.7939 62.017 67.2256 62.6088 66.8271C63.2006 66.4229 63.8891 66.2207 64.6743 66.2207C65.6645 66.2207 66.4379 66.5547 66.9946 67.2227L67.1 66.3965H69.7895V75.5459C69.7895 76.3838 69.5932 77.1104 69.2006 77.7256C68.8139 78.3467 68.2514 78.8213 67.5131 79.1494C66.7748 79.4834 65.9194 79.6504 64.9467 79.6504C64.2495 79.6504 63.5727 79.5186 62.9164 79.2549C62.2661 78.9912 61.768 78.6484 61.4223 78.2266L62.6616 76.4863C63.2123 77.1367 63.9389 77.4619 64.8413 77.4619C66.1538 77.4619 66.81 76.7881 66.81 75.4404V75.1416C66.2416 75.7686 65.5239 76.082 64.6567 76.082C63.4965 76.082 62.559 75.6396 61.8442 74.7549C61.1293 73.8643 60.7719 72.6748 60.7719 71.1865V71.0811ZM63.7426 71.2656C63.7426 72.0449 63.8891 72.6631 64.1821 73.1201C64.475 73.5713 64.8852 73.7969 65.4125 73.7969C66.0512 73.7969 66.517 73.583 66.81 73.1553V69.1562C66.5229 68.7227 66.0629 68.5059 65.4301 68.5059C64.9028 68.5059 64.4897 68.7432 64.1909 69.2178C63.892 69.6865 63.7426 70.3691 63.7426 71.2656Z" fill="black"/>
<path d="M74.3722 67.416C75.005 66.6191 75.8136 66.2207 76.798 66.2207C77.8468 66.2207 78.6378 66.5312 79.171 67.1523C79.7042 67.7734 79.9767 68.6904 79.9884 69.9033V75.9062H77.0177V69.9736C77.0177 69.4697 76.9152 69.1006 76.7101 68.8662C76.505 68.626 76.1564 68.5059 75.6642 68.5059C75.0548 68.5059 74.6242 68.6992 74.3722 69.0859V75.9062H71.4103V62.4062H74.3722V67.416Z" fill="black"/>
<path d="M84.7699 75.9062H81.7992V66.3965H84.7699V75.9062ZM81.6234 63.9443C81.6234 63.5225 81.7757 63.1768 82.0804 62.9072C82.3851 62.6377 82.7806 62.5029 83.2669 62.5029C83.7533 62.5029 84.1488 62.6377 84.4535 62.9072C84.7581 63.1768 84.9105 63.5225 84.9105 63.9443C84.9105 64.3662 84.7581 64.7119 84.4535 64.9814C84.1488 65.251 83.7533 65.3857 83.2669 65.3857C82.7806 65.3857 82.3851 65.251 82.0804 64.9814C81.7757 64.7119 81.6234 64.3662 81.6234 63.9443Z" fill="black"/>
<path d="M89.7866 66.3965V76.2314C89.7808 77.3564 89.4585 78.2236 88.8198 78.833C88.1812 79.4424 87.2905 79.7471 86.1479 79.7471C85.6558 79.7471 85.1899 79.6973 84.7505 79.5977V77.3564C85.0903 77.4092 85.3687 77.4355 85.5854 77.4355C86.4058 77.4355 86.8159 77.0283 86.8159 76.2139V66.3965H89.7866ZM86.5962 63.9443C86.5962 63.5225 86.7485 63.1768 87.0532 62.9072C87.3579 62.6377 87.7534 62.5029 88.2397 62.5029C88.7261 62.5029 89.1216 62.6377 89.4263 62.9072C89.731 63.1768 89.8833 63.5225 89.8833 63.9443C89.8833 64.3662 89.731 64.7119 89.4263 64.9814C89.1216 65.251 88.7261 65.3857 88.2397 65.3857C87.7534 65.3857 87.3579 65.251 87.0532 64.9814C86.7485 64.7119 86.5962 64.3662 86.5962 63.9443Z" fill="black"/>
<path d="M95.285 72.3643L94.45 73.1992V75.9062H91.4881V62.3975H94.45V69.5693L94.7488 69.1738L96.9813 66.3965H100.532L97.201 70.3076L100.752 75.9062H97.3592L95.285 72.3643Z" fill="black"/>
<path d="M104.433 75.9062H101.462V62.4062H104.433V75.9062Z" fill="black"/>
<path d="M109.063 66.3965L109.159 67.5127C109.833 66.6514 110.738 66.2207 111.875 66.2207C113.076 66.2207 113.888 66.6982 114.31 67.6533C114.954 66.6982 115.886 66.2207 117.105 66.2207C119.032 66.2207 120.023 67.3867 120.075 69.7188V75.9062H117.105V69.9033C117.105 69.417 117.023 69.0625 116.859 68.8398C116.694 68.6172 116.396 68.5059 115.962 68.5059C115.376 68.5059 114.94 68.7666 114.652 69.2881L114.661 69.4111V75.9062H111.691V69.9209C111.691 69.4229 111.611 69.0625 111.453 68.8398C111.295 68.6172 110.993 68.5059 110.548 68.5059C109.98 68.5059 109.546 68.7666 109.247 69.2881V75.9062H106.285V66.3965H109.063Z" fill="black"/>
</g>
<g id="nopqrstuvwxyz">
<path d="M8.55078 87.3965L8.64746 88.5127C9.30371 87.6514 10.209 87.2207 11.3633 87.2207C12.3535 87.2207 13.0918 87.5166 13.5781 88.1084C14.0703 88.7002 14.3252 89.5908 14.3428 90.7803V96.9062H11.3721V90.9033C11.3721 90.4229 11.2754 90.0713 11.082 89.8486C10.8887 89.6201 10.5371 89.5059 10.0273 89.5059C9.44727 89.5059 9.0166 89.7344 8.73535 90.1914V96.9062H5.77344V87.3965H8.55078Z" fill="black"/>
<path d="M15.6172 92.0635C15.6172 91.1143 15.8018 90.2705 16.1709 89.5322C16.54 88.7881 17.0703 88.2168 17.7617 87.8184C18.4531 87.4199 19.2646 87.2207 20.1963 87.2207C21.6201 87.2207 22.7422 87.6631 23.5625 88.5479C24.3828 89.4268 24.793 90.625 24.793 92.1426V92.248C24.793 93.7305 24.3799 94.9082 23.5537 95.7812C22.7334 96.6484 21.6201 97.082 20.2139 97.082C18.8604 97.082 17.7734 96.6777 16.9531 95.8691C16.1328 95.0547 15.6904 93.9531 15.626 92.5645L15.6172 92.0635ZM18.5791 92.248C18.5791 93.127 18.7168 93.7715 18.9922 94.1816C19.2676 94.5918 19.6748 94.7969 20.2139 94.7969C21.2686 94.7969 21.8076 93.9854 21.8311 92.3623V92.0635C21.8311 90.3584 21.2861 89.5059 20.1963 89.5059C19.2061 89.5059 18.6699 90.2412 18.5879 91.7119L18.5791 92.248Z" fill="black"/>
<path d="M34.9178 92.2217C34.9178 93.6982 34.5838 94.8789 33.9158 95.7637C33.2537 96.6426 32.3572 97.082 31.2264 97.082C30.3533 97.082 29.6355 96.7627 29.073 96.124V100.562H26.1111V87.3965H28.8797L28.9676 88.2754C29.5359 87.5723 30.283 87.2207 31.2088 87.2207C32.3806 87.2207 33.2918 87.6543 33.9422 88.5215C34.5926 89.3828 34.9178 90.5693 34.9178 92.0811V92.2217ZM31.9558 92.0371C31.9558 90.3496 31.4637 89.5059 30.4793 89.5059C29.7762 89.5059 29.3074 89.7578 29.073 90.2617V94.0059C29.3308 94.5332 29.8055 94.7969 30.4969 94.7969C31.4402 94.7969 31.9265 93.9824 31.9558 92.3535V92.0371Z" fill="black"/>
<path d="M35.8582 92.0547C35.8582 90.543 36.1863 89.3594 36.8426 88.5039C37.4988 87.6484 38.4041 87.2207 39.5584 87.2207C40.531 87.2207 41.3103 87.6191 41.8963 88.416L42.1072 87.3965H44.6736V100.562H41.7029V96.1152C41.1346 96.7598 40.4138 97.082 39.5408 97.082C38.4158 97.082 37.5193 96.6484 36.8514 95.7812C36.1892 94.9082 35.8582 93.666 35.8582 92.0547ZM38.8201 92.2393C38.8201 93.9443 39.3123 94.7969 40.2967 94.7969C40.9763 94.7969 41.4451 94.5391 41.7029 94.0234V90.2617C41.4568 89.7578 40.9939 89.5059 40.3142 89.5059C39.3943 89.5059 38.8992 90.2412 38.8289 91.7119L38.8201 92.2393Z" fill="black"/>
<path d="M52.1092 90.0771L51.1336 90.0068C50.2019 90.0068 49.6043 90.2998 49.3406 90.8857V96.9062H46.3787V87.3965H49.156L49.2527 88.6182C49.7508 87.6865 50.4451 87.2207 51.3357 87.2207C51.6521 87.2207 51.9275 87.2559 52.1619 87.3262L52.1092 90.0771Z" fill="black"/>
<path d="M58.1542 94.2344C58.1542 93.9824 58.0224 93.7803 57.7587 93.6279C57.4951 93.4756 56.9941 93.3174 56.2558 93.1533C55.5175 92.9893 54.9081 92.7754 54.4277 92.5117C53.9472 92.2422 53.581 91.917 53.329 91.5361C53.0771 91.1553 52.9511 90.7188 52.9511 90.2266C52.9511 89.3535 53.3115 88.6357 54.0322 88.0732C54.7529 87.5049 55.6962 87.2207 56.8622 87.2207C58.1162 87.2207 59.124 87.5049 59.8857 88.0732C60.6474 88.6416 61.0283 89.3887 61.0283 90.3145H58.0576C58.0576 89.5527 57.6562 89.1719 56.8535 89.1719C56.5429 89.1719 56.2822 89.2598 56.0712 89.4355C55.8603 89.6055 55.7548 89.8193 55.7548 90.0771C55.7548 90.3408 55.8837 90.5547 56.1415 90.7188C56.3994 90.8828 56.8095 91.0176 57.372 91.123C57.9404 91.2285 58.4384 91.3545 58.8662 91.501C60.2958 91.9932 61.0107 92.875 61.0107 94.1465C61.0107 95.0137 60.624 95.7197 59.8505 96.2646C59.083 96.8096 58.0869 97.082 56.8622 97.082C56.0478 97.082 55.3212 96.9355 54.6826 96.6426C54.0439 96.3496 53.5458 95.9512 53.1884 95.4473C52.831 94.9434 52.6523 94.4131 52.6523 93.8564H55.4208C55.4326 94.2959 55.579 94.6182 55.8603 94.8232C56.1415 95.0225 56.5019 95.1221 56.9413 95.1221C57.3456 95.1221 57.6474 95.04 57.8466 94.876C58.0517 94.7119 58.1542 94.498 58.1542 94.2344Z" fill="black"/>
<path d="M65.8571 85.0322V87.3965H67.4215V89.4531H65.8571V93.8037C65.8571 94.1611 65.9215 94.4102 66.0504 94.5508C66.1793 94.6914 66.4342 94.7617 66.8151 94.7617C67.108 94.7617 67.3541 94.7441 67.5533 94.709V96.8271C67.0201 96.9971 66.4635 97.082 65.8834 97.082C64.8639 97.082 64.111 96.8418 63.6246 96.3613C63.1383 95.8809 62.8951 95.1514 62.8951 94.1729V89.4531H61.6823V87.3965H62.8951V85.0322H65.8571Z" fill="black"/>
<path d="M74.2648 95.8779C73.6378 96.6807 72.7912 97.082 71.7248 97.082C70.6818 97.082 69.8908 96.7803 69.3517 96.1768C68.8185 95.5674 68.5519 94.6943 68.5519 93.5576V87.3965H71.5138V93.5752C71.5138 94.3896 71.9093 94.7969 72.7003 94.7969C73.38 94.7969 73.8634 94.5537 74.1505 94.0674V87.3965H77.13V96.9062H74.3527L74.2648 95.8779Z" fill="black"/>
<path d="M82.5529 93.3818L84.0558 87.3965H87.1759L84.0734 96.9062H81.05L77.9474 87.3965H81.0763L82.5529 93.3818Z" fill="black"/>
<path d="M96.2654 93.0039L97.2234 87.3965H100.062L97.8211 96.9062H95.3162L93.743 91.2637L92.1609 96.9062H89.656L87.4148 87.3965H90.2537L91.1941 93.1357L92.7058 87.3965H94.7713L96.2654 93.0039Z" fill="black"/>
<path d="M104.986 90.0156L106.366 87.3965H109.442L106.937 92.0283L109.565 96.9062H106.471L104.977 94.0938L103.509 96.9062H100.398L103.035 92.0283L100.539 87.3965H103.65L104.986 90.0156Z" fill="black"/>
<path d="M114.19 92.7578L115.772 87.3965H118.945L115.069 98.4971L114.902 98.9014C114.351 100.132 113.378 100.747 111.984 100.747C111.597 100.747 111.19 100.688 110.762 100.571V98.4531H111.149C111.565 98.4531 111.881 98.3916 112.098 98.2686C112.321 98.1514 112.485 97.9375 112.59 97.627L112.827 96.9941L109.523 87.3965H112.687L114.19 92.7578Z" fill="black"/>
<path d="M123.218 94.6211H127.551V96.9062H119.474V95.2539L123.692 89.6816H119.658V87.3965H127.454V88.9961L123.218 94.6211Z" fill="black"/>
</g>
<g id="1234567890">
<path d="M12.3477 117.906H9.37695V108.449L6.45898 109.302V107.052L12.0752 105.109H12.3477V117.906Z" fill="black"/>
<path d="M25.1358 117.906H16.2062V115.973L20.3194 111.648C21.3331 110.494 21.8399 109.577 21.8399 108.897C21.8399 108.347 21.7198 107.928 21.4796 107.641C21.2394 107.354 20.8907 107.21 20.4337 107.21C19.9825 107.21 19.6163 107.403 19.3351 107.79C19.0538 108.171 18.9132 108.648 18.9132 109.223H15.9425C15.9425 108.438 16.1388 107.714 16.5314 107.052C16.9239 106.384 17.4689 105.862 18.1661 105.487C18.8634 105.112 19.6427 104.925 20.504 104.925C21.8868 104.925 22.9503 105.244 23.6944 105.883C24.4444 106.521 24.8194 107.438 24.8194 108.634C24.8194 109.138 24.7257 109.63 24.5382 110.11C24.3507 110.585 24.0577 111.086 23.6593 111.613C23.2667 112.135 22.631 112.835 21.7521 113.714L20.0997 115.621H25.1358V117.906Z" fill="black"/>
<path d="M29.3371 110.269H30.7346C31.842 110.269 32.3957 109.727 32.3957 108.643C32.3957 108.221 32.2639 107.878 32.0002 107.614C31.7365 107.345 31.3645 107.21 30.884 107.21C30.4914 107.21 30.1486 107.324 29.8557 107.553C29.5686 107.781 29.425 108.065 29.425 108.405H26.4631C26.4631 107.731 26.6506 107.131 27.0256 106.604C27.4006 106.076 27.9191 105.666 28.5813 105.373C29.2492 105.074 29.9816 104.925 30.7785 104.925C32.2023 104.925 33.3215 105.25 34.1359 105.9C34.9504 106.551 35.3576 107.444 35.3576 108.581C35.3576 109.132 35.1877 109.653 34.8479 110.146C34.5139 110.632 34.0246 111.027 33.3801 111.332C34.0598 111.578 34.593 111.953 34.9797 112.457C35.3664 112.955 35.5598 113.573 35.5598 114.312C35.5598 115.454 35.1203 116.368 34.2414 117.054C33.3625 117.739 32.2082 118.082 30.7785 118.082C29.9406 118.082 29.1613 117.924 28.4406 117.607C27.7258 117.285 27.1838 116.843 26.8147 116.28C26.4455 115.712 26.2609 115.067 26.2609 114.347H29.2404C29.2404 114.739 29.3986 115.079 29.715 115.366C30.0315 115.653 30.4211 115.797 30.884 115.797C31.4055 115.797 31.8215 115.653 32.132 115.366C32.4426 115.073 32.5979 114.701 32.5979 114.25C32.5979 113.605 32.4367 113.148 32.1145 112.879C31.7922 112.609 31.3469 112.475 30.7785 112.475H29.3371V110.269Z" fill="black"/>
<path d="M44.8763 112.905H46.1771V115.19H44.8763V117.906H41.9144V115.19H36.9661L36.7903 113.38L41.9144 105.136V105.109H44.8763V112.905ZM39.6116 112.905H41.9144V108.968L41.7298 109.267L39.6116 112.905Z" fill="black"/>
<path d="M47.6537 111.648L48.4359 105.109H55.9154V107.412H50.8442L50.5541 109.952C50.765 109.829 51.0404 109.721 51.3803 109.627C51.726 109.533 52.0629 109.486 52.391 109.486C53.6625 109.486 54.6381 109.864 55.3178 110.62C56.0033 111.37 56.3461 112.425 56.3461 113.784C56.3461 114.604 56.1615 115.349 55.7924 116.017C55.4291 116.679 54.9164 117.188 54.2543 117.546C53.5922 117.903 52.81 118.082 51.9076 118.082C51.1049 118.082 50.352 117.918 49.6488 117.59C48.9457 117.256 48.3949 116.802 47.9965 116.228C47.5981 115.647 47.4018 114.994 47.4076 114.268H50.3783C50.4076 114.736 50.557 115.108 50.8266 115.384C51.0961 115.659 51.4506 115.797 51.89 115.797C52.8861 115.797 53.3842 115.059 53.3842 113.582C53.3842 112.217 52.7748 111.534 51.5561 111.534C50.8647 111.534 50.349 111.757 50.0092 112.202L47.6537 111.648Z" fill="black"/>
<path d="M65.0562 104.925V107.254H64.9243C63.8169 107.254 62.9058 107.521 62.1909 108.054C61.4819 108.581 61.0454 109.316 60.8814 110.26C61.5493 109.604 62.3931 109.275 63.4126 109.275C64.52 109.275 65.4019 109.68 66.0581 110.488C66.7144 111.297 67.0425 112.357 67.0425 113.67C67.0425 114.484 66.8491 115.231 66.4624 115.911C66.0816 116.591 65.5454 117.124 64.854 117.511C64.1685 117.892 63.4067 118.082 62.5689 118.082C61.6607 118.082 60.8491 117.877 60.1343 117.467C59.4194 117.051 58.8628 116.459 58.4644 115.691C58.0659 114.924 57.8609 114.039 57.8491 113.037V111.851C57.8491 110.532 58.1304 109.349 58.6929 108.3C59.2612 107.245 60.0698 106.419 61.1187 105.821C62.1675 105.224 63.3306 104.925 64.6079 104.925H65.0562ZM62.3843 111.543C61.9917 111.543 61.6636 111.634 61.3999 111.815C61.1362 111.997 60.94 112.22 60.811 112.483V113.371C60.811 114.988 61.3706 115.797 62.4898 115.797C62.9409 115.797 63.3159 115.595 63.6148 115.19C63.9194 114.786 64.0718 114.279 64.0718 113.67C64.0718 113.043 63.9165 112.533 63.606 112.141C63.3013 111.742 62.8941 111.543 62.3843 111.543Z" fill="black"/>
<path d="M77.2203 106.691L72.4391 117.906H69.3102L74.1002 107.395H68.0006V105.109H77.2203V106.691Z" fill="black"/>
<path d="M87.3806 108.528C87.3806 109.149 87.2253 109.697 86.9148 110.172C86.6101 110.646 86.1882 111.027 85.6491 111.314C86.2585 111.613 86.7419 112.023 87.0993 112.545C87.4568 113.061 87.6355 113.673 87.6355 114.382C87.6355 115.524 87.24 116.427 86.4489 117.089C85.6638 117.751 84.5798 118.082 83.197 118.082C81.8083 118.082 80.7126 117.751 79.9099 117.089C79.1071 116.421 78.7058 115.519 78.7058 114.382C78.7058 113.696 78.8816 113.09 79.2331 112.562C79.5847 112.035 80.0827 111.619 80.7273 111.314C80.1823 111.027 79.7546 110.646 79.4441 110.172C79.1335 109.697 78.9782 109.149 78.9782 108.528C78.9782 107.415 79.3562 106.536 80.112 105.892C80.8679 105.247 81.8874 104.925 83.1706 104.925C84.4655 104.925 85.4909 105.247 86.2468 105.892C87.0027 106.536 87.3806 107.415 87.3806 108.528ZM84.6648 114.145C84.6648 113.617 84.5271 113.213 84.2517 112.932C83.9821 112.645 83.6247 112.501 83.1794 112.501C82.7341 112.501 82.3737 112.645 82.0984 112.932C81.823 113.213 81.6853 113.617 81.6853 114.145C81.6853 114.654 81.823 115.059 82.0984 115.357C82.3796 115.65 82.7458 115.797 83.197 115.797C83.6364 115.797 83.9909 115.65 84.2605 115.357C84.53 115.064 84.6648 114.66 84.6648 114.145ZM83.1706 107.21C82.7722 107.21 82.4675 107.342 82.2566 107.605C82.0515 107.863 81.9489 108.224 81.9489 108.687C81.9489 109.144 82.0544 109.513 82.2654 109.794C82.4763 110.075 82.7868 110.216 83.197 110.216C83.6013 110.216 83.903 110.075 84.1023 109.794C84.3073 109.513 84.4099 109.144 84.4099 108.687C84.4099 108.229 84.3044 107.869 84.0935 107.605C83.8884 107.342 83.5808 107.21 83.1706 107.21Z" fill="black"/>
<path d="M95.0096 112.958C94.3709 113.532 93.6561 113.819 92.8651 113.819C91.7049 113.819 90.785 113.427 90.1053 112.642C89.4256 111.856 89.0858 110.808 89.0858 109.495C89.0858 108.675 89.2762 107.913 89.6571 107.21C90.0379 106.507 90.5711 105.95 91.2567 105.54C91.9481 105.13 92.7098 104.925 93.5418 104.925C94.3856 104.925 95.1473 105.139 95.827 105.566C96.5125 105.988 97.0457 106.589 97.4266 107.368C97.8074 108.142 98.0037 109.035 98.0154 110.049V111.183C98.0154 112.595 97.7371 113.819 97.1805 114.856C96.6297 115.894 95.8416 116.69 94.8162 117.247C93.7908 117.804 92.5955 118.082 91.2303 118.082H91.0457V115.709L91.6082 115.7C93.6473 115.601 94.7811 114.687 95.0096 112.958ZM93.6649 111.684C94.3094 111.684 94.7723 111.405 95.0535 110.849V109.618C95.0535 108.798 94.9158 108.191 94.6404 107.799C94.3651 107.406 93.993 107.21 93.5242 107.21C93.1082 107.21 92.7596 107.433 92.4783 107.878C92.1971 108.323 92.0565 108.862 92.0565 109.495C92.0565 110.163 92.2 110.696 92.4871 111.095C92.7742 111.487 93.1668 111.684 93.6649 111.684Z" fill="black"/>
<path d="M108.483 112.677C108.483 114.405 108.094 115.738 107.314 116.676C106.541 117.613 105.448 118.082 104.036 118.082C102.612 118.082 101.511 117.61 100.731 116.667C99.9521 115.724 99.5624 114.394 99.5624 112.677V110.339C99.5624 108.61 99.9491 107.277 100.723 106.34C101.502 105.402 102.601 104.934 104.018 104.934C105.436 104.934 106.535 105.405 107.314 106.349C108.094 107.292 108.483 108.625 108.483 110.348V112.677ZM105.521 109.961C105.521 109.041 105.401 108.355 105.161 107.904C104.921 107.447 104.54 107.219 104.018 107.219C103.509 107.219 103.137 107.43 102.902 107.852C102.674 108.273 102.551 108.912 102.533 109.768V113.037C102.533 113.992 102.653 114.692 102.893 115.138C103.134 115.577 103.515 115.797 104.036 115.797C104.54 115.797 104.912 115.583 105.152 115.155C105.393 114.722 105.516 114.045 105.521 113.125V109.961Z" fill="black"/>
</g>
</g>
</svg>
