<svg width="157" height="122" viewBox="0 0 157 122" fill="none" xmlns="http://www.w3.org/2000/svg">
<g id="Roboto_medium_italic">
<g id="Medium Italic">
<path d="M1.30566 13.5117V3.39453H3.29492L6.09766 11.2217L8.98242 3.39453H10.7598V13.5117H9.41992V5.28125L6.63086 12.835H5.24316L2.53613 5.26074V13.5117H1.30566Z" fill="black"/>
<path d="M18.836 13.2725C17.9336 13.5459 17.1612 13.6826 16.5186 13.6826C15.4248 13.6826 14.5316 13.3203 13.8389 12.5957C13.1508 11.8665 12.8067 10.9232 12.8067 9.76562C12.8067 8.63997 13.1097 7.71712 13.7159 6.99707C14.3265 6.27702 15.1058 5.91699 16.0538 5.91699C16.9515 5.91699 17.6442 6.236 18.1319 6.87402C18.6241 7.51204 18.8702 8.41895 18.8702 9.59473L18.8633 10.0117H14.1807C14.3767 11.7754 15.2403 12.6572 16.7715 12.6572C17.3321 12.6572 18.0202 12.5068 18.836 12.2061V13.2725ZM14.2422 9H17.5166C17.5166 7.61914 17.0017 6.92871 15.9717 6.92871C14.9372 6.92871 14.3607 7.61914 14.2422 9Z" fill="black"/>
<path d="M25.9552 13.5117V12.1172C25.4083 13.1608 24.5834 13.6826 23.4806 13.6826C22.5873 13.6826 21.8832 13.3568 21.3682 12.7051C20.8578 12.0534 20.6026 11.1624 20.6026 10.0322C20.6026 8.7972 20.892 7.80371 21.4708 7.05176C22.0541 6.2998 22.8197 5.92383 23.7677 5.92383C24.6472 5.92383 25.3764 6.26107 25.9552 6.93555V2.71777H27.3087V13.5117H25.9552ZM25.9552 7.8584C25.2579 7.24316 24.5971 6.93555 23.9727 6.93555C22.683 6.93555 22.0382 7.9222 22.0382 9.89551C22.0382 11.6318 22.6124 12.5 23.7608 12.5C24.5082 12.5 25.2397 12.0921 25.9552 11.2764V7.8584Z" fill="black"/>
<path d="M29.9982 13.5117V6.08789H31.3449V13.5117H29.9982ZM29.9982 4.74121V3.39453H31.3449V4.74121H29.9982Z" fill="black"/>
<path d="M38.6759 13.5117V12.1172C37.9605 13.1608 37.0923 13.6826 36.0715 13.6826C35.4243 13.6826 34.9093 13.4798 34.5265 13.0742C34.1437 12.6641 33.9523 12.1126 33.9523 11.4199V6.08789H35.299V10.9824C35.299 11.5384 35.3787 11.9349 35.5383 12.1719C35.7023 12.4043 35.9735 12.5205 36.3517 12.5205C37.172 12.5205 37.9468 11.9805 38.6759 10.9004V6.08789H40.0226V13.5117H38.6759Z" fill="black"/>
<path d="M42.733 13.5117V6.08789H44.0796V7.48242C44.7359 6.44336 45.579 5.92383 46.6089 5.92383C47.6024 5.92383 48.2792 6.44336 48.6392 7.48242C49.2772 6.4388 50.1067 5.91699 51.1275 5.91699C51.7837 5.91699 52.2919 6.11068 52.6519 6.49805C53.0119 6.88086 53.1919 7.41862 53.1919 8.11133V13.5117H51.8384V8.32324C51.8384 7.47559 51.5035 7.05176 50.8335 7.05176C50.1363 7.05176 49.4048 7.54622 48.6392 8.53516V13.5117H47.2857V8.32324C47.2857 7.47103 46.9439 7.04492 46.2603 7.04492C45.5813 7.04492 44.8544 7.54167 44.0796 8.53516V13.5117H42.733Z" fill="black"/>
<path d="M60.1637 13.5117V3.39453H61.5993V13.5117H60.1637Z" fill="black"/>
<path d="M66.4486 13.6826C65.765 13.6826 65.2318 13.4867 64.849 13.0947C64.4662 12.7028 64.2747 12.1582 64.2747 11.4609V7.09961H63.3451V6.08789H64.2747V4.74121L65.6214 4.61133V6.08789H67.5628V7.09961H65.6214V11.2148C65.6214 12.1855 66.0407 12.6709 66.8792 12.6709C67.057 12.6709 67.2734 12.6413 67.5287 12.582V13.5117C67.1139 13.6257 66.7539 13.6826 66.4486 13.6826Z" fill="black"/>
<path d="M73.2738 12.5684C72.4672 13.3112 71.6902 13.6826 70.9428 13.6826C70.3275 13.6826 69.8171 13.4912 69.4115 13.1084C69.0059 12.721 68.8031 12.2334 68.8031 11.6455C68.8031 10.8343 69.1426 10.2122 69.8217 9.7793C70.5053 9.3418 71.4828 9.12305 72.7543 9.12305H73.0756V8.22754C73.0756 7.36621 72.6335 6.93555 71.7494 6.93555C71.0385 6.93555 70.2706 7.1543 69.4457 7.5918V6.47754C70.3526 6.1084 71.2025 5.92383 71.9955 5.92383C72.8249 5.92383 73.4356 6.11068 73.8275 6.48438C74.224 6.85807 74.4223 7.43913 74.4223 8.22754V11.5908C74.4223 12.361 74.6592 12.7461 75.1332 12.7461C75.1924 12.7461 75.279 12.737 75.393 12.7188L75.4887 13.4639C75.1833 13.6097 74.8461 13.6826 74.4769 13.6826C73.848 13.6826 73.447 13.3112 73.2738 12.5684ZM73.0756 11.8369V9.91602L72.6244 9.90234C71.8861 9.90234 71.2891 10.0436 70.8334 10.3262C70.3777 10.6042 70.1498 10.971 70.1498 11.4268C70.1498 11.7503 70.2637 12.0238 70.4916 12.2471C70.7195 12.4704 70.9975 12.582 71.3256 12.582C71.8861 12.582 72.4695 12.3337 73.0756 11.8369Z" fill="black"/>
<path d="M77.1733 13.5117V2.71777H78.52V13.5117H77.1733Z" fill="black"/>
<path d="M81.2094 13.5117V6.08789H82.5561V13.5117H81.2094ZM81.2094 4.74121V3.39453H82.5561V4.74121H81.2094Z" fill="black"/>
<path d="M88.1441 13.6826C87.1415 13.6826 86.3097 13.3112 85.6489 12.5684C84.9881 11.8255 84.6577 10.889 84.6577 9.75879C84.6577 8.55111 84.9836 7.61003 85.6353 6.93555C86.2915 6.26107 87.2053 5.92383 88.3765 5.92383C88.9553 5.92383 89.6024 6.00358 90.3179 6.16309V7.29102C89.5568 7.06771 88.937 6.95605 88.4585 6.95605C87.7704 6.95605 87.2166 7.21582 86.7974 7.73535C86.3827 8.25033 86.1753 8.93848 86.1753 9.7998C86.1753 10.6338 86.3895 11.3083 86.8179 11.8232C87.2463 12.3382 87.8068 12.5957 88.4995 12.5957C89.1148 12.5957 89.7482 12.4385 90.3999 12.124V13.2861C89.5295 13.5505 88.7775 13.6826 88.1441 13.6826Z" fill="black"/>
</g>
<g id="ABCDEFGHIJKLM">
<path d="M12.8486 30.9268H8.05859L6.5293 33.9063H4.19141L11.0996 21.1094H13.0508L15.5293 33.9063H13.3496L12.8486 30.9268ZM8.97266 29.1338H12.5586L11.6885 23.8428L8.97266 29.1338Z" fill="black"/>
<path d="M17.057 33.9063L19.2806 21.1094L23.2093 21.1182C24.5922 21.124 25.6293 21.4258 26.3207 22.0234C27.0179 22.6152 27.3256 23.4385 27.2435 24.4932C27.1381 25.7354 26.3793 26.6699 24.9672 27.2969C25.4945 27.4844 25.9017 27.8272 26.1888 28.3252C26.476 28.8232 26.599 29.418 26.558 30.1094C26.476 31.2813 26.0043 32.207 25.1429 32.8867C24.2875 33.5664 23.1566 33.9063 21.7504 33.9063H17.057ZM20.2299 28.1318L19.5355 32.1309L21.8119 32.1397C22.4974 32.1397 23.0804 31.958 23.5609 31.5947C24.0414 31.2314 24.3256 30.7334 24.4135 30.1006C24.4955 29.4971 24.4047 29.0254 24.141 28.6855C23.8773 28.3457 23.4408 28.1641 22.8314 28.1406L20.2299 28.1318ZM20.5111 26.4971L22.5062 26.5059C23.2211 26.5059 23.8041 26.3359 24.2552 25.9961C24.7064 25.6563 24.973 25.1963 25.0551 24.6162C25.2015 23.5205 24.6478 22.9522 23.3939 22.9111L21.1351 22.9023L20.5111 26.4971Z" fill="black"/>
<path d="M38.3123 29.7314C38.0956 31.0674 37.495 32.1338 36.5106 32.9307C35.5262 33.7217 34.328 34.1055 32.9159 34.082C32.1014 34.0645 31.3866 33.8711 30.7713 33.502C30.162 33.1328 29.6844 32.5967 29.3387 31.8936C28.993 31.1846 28.7997 30.3848 28.7586 29.4941C28.7235 28.8262 28.8055 27.918 29.0047 26.7695C29.2039 25.6152 29.5848 24.5811 30.1473 23.667C30.7157 22.7529 31.41 22.0645 32.2303 21.6016C33.0565 21.1387 33.9735 20.916 34.9813 20.9336C36.2528 20.957 37.2577 21.3584 37.9959 22.1377C38.7401 22.9111 39.1356 23.9805 39.1825 25.3457H37.0291C36.9998 24.4316 36.8065 23.7725 36.4491 23.3682C36.0975 22.958 35.5731 22.7441 34.8758 22.7266C33.9207 22.6973 33.1209 23.04 32.4764 23.7549C31.8319 24.4697 31.3983 25.5098 31.1756 26.875L30.9998 28.0439L30.9207 28.9404C30.8739 29.5439 30.9149 30.1123 31.0438 30.6455C31.1786 31.1729 31.4129 31.5772 31.7469 31.8584C32.0809 32.1338 32.5057 32.2803 33.0213 32.2979C34.6561 32.3623 35.7049 31.5127 36.1678 29.749L38.3123 29.7314Z" fill="black"/>
<path d="M39.6607 33.9063L41.8755 21.1094L45.3384 21.1182C46.4048 21.1182 47.3218 21.3848 48.0894 21.918C48.8628 22.4453 49.4224 23.1777 49.7681 24.1152C50.1138 25.0469 50.2193 26.0752 50.0845 27.2002L49.9878 27.8945C49.812 29.0723 49.4224 30.1182 48.8189 31.0322C48.2212 31.9404 47.4478 32.6465 46.4986 33.1504C45.5493 33.6543 44.5064 33.9063 43.3697 33.9063H39.6607ZM43.7388 22.9023L42.1392 32.1309L43.4224 32.1397C44.5826 32.1397 45.5435 31.7734 46.3052 31.041C47.0728 30.3027 47.565 29.2861 47.7818 27.9912C47.9341 27.1006 47.9898 26.3242 47.9488 25.6621C47.896 24.8125 47.647 24.1475 47.2017 23.667C46.7622 23.1865 46.1499 22.9346 45.3648 22.9111L43.7388 22.9023Z" fill="black"/>
<path d="M59.4131 28.1934H54.3154L53.6299 32.1309H59.5889L59.2812 33.9063H51.1514L53.3662 21.1094H61.4434L61.127 22.9023H55.2295L54.6143 26.4355H59.7207L59.4131 28.1934Z" fill="black"/>
<path d="M69.2253 28.4834H64.2331L63.2927 33.9063H61.1218L63.3366 21.1094H71.2468L70.9304 22.9023H65.1999L64.5407 26.708H69.5417L69.2253 28.4834Z" fill="black"/>
<path d="M80.723 32.2451C80.2542 32.8545 79.5921 33.3174 78.7366 33.6338C77.8812 33.9443 76.9261 34.0938 75.8714 34.082C75.0276 34.0762 74.2835 33.8887 73.639 33.5195C72.9944 33.1445 72.4818 32.6025 72.1009 31.8936C71.7259 31.1787 71.512 30.3672 71.4593 29.459C71.4183 28.7559 71.4915 27.8594 71.679 26.7695C71.8665 25.6797 72.2005 24.7129 72.681 23.8691C73.1673 23.0195 73.7562 22.3545 74.4476 21.874C75.3851 21.2236 76.4573 20.9102 77.6644 20.9336C78.9476 20.957 79.9495 21.3262 80.6702 22.041C81.3968 22.7559 81.8069 23.7578 81.9007 25.0469L79.8001 25.0381C79.6712 23.5322 78.9417 22.7588 77.6116 22.7178C76.6155 22.6885 75.7952 23.04 75.1507 23.7725C74.512 24.499 74.0755 25.5508 73.8411 26.9277C73.7064 27.7305 73.6331 28.3867 73.6214 28.8965C73.5862 29.9453 73.7767 30.7715 74.1927 31.375C74.6146 31.9785 75.2269 32.2861 76.0296 32.2979C77.055 32.3213 77.8987 32.0664 78.5609 31.5332L79.0355 29.0283H76.4691L76.7679 27.3408H81.47L80.723 32.2451Z" fill="black"/>
<path d="M92.6481 33.9063H90.486L91.4704 28.2197H85.9333L84.9489 33.9063H82.778L85.0016 21.1094H87.1725L86.2409 26.4355H91.778L92.7009 21.1094H94.8718L92.6481 33.9063Z" fill="black"/>
<path d="M97.5576 33.9063H95.3955L97.6191 21.1094H99.7812L97.5576 33.9063Z" fill="black"/>
<path d="M107.644 21.1094H109.806L108.277 30.083C108.095 31.3252 107.585 32.3096 106.747 33.0361C105.915 33.7627 104.887 34.1143 103.662 34.0908C102.467 34.0674 101.553 33.7129 100.92 33.0273C100.293 32.3418 100.009 31.416 100.068 30.25L102.23 30.2588C102.148 31.6006 102.669 32.2832 103.794 32.3066C104.38 32.3301 104.881 32.1455 105.297 31.7529C105.719 31.3604 105.992 30.8066 106.115 30.0918L107.644 21.1094Z" fill="black"/>
<path d="M114.702 28.3955L112.944 30.0039L112.267 33.9063H110.096L112.32 21.1094H114.491L113.462 26.9893L114.807 25.5918L119.219 21.1094H121.997L116.301 26.8838L119.896 33.9063H117.47L114.702 28.3955Z" fill="black"/>
<path d="M123.67 32.1309H129.313L128.996 33.9063H121.192L123.415 21.1094H125.586L123.67 32.1309Z" fill="black"/>
<path d="M135.716 21.1094L137.588 30.9004L142.853 21.1094H145.701L143.486 33.9063H141.324L142.071 29.5732L143.205 24.2383L137.931 33.9063H136.367L134.407 23.9482L133.607 29.8018L132.895 33.9063H130.733L132.957 21.1094H135.716Z" fill="black"/>
</g>
<g id="NOPQRSTUVWXYZ">
<path d="M15.2041 54.9062H13.1035L9.10449 45.7393L7.51367 54.9062H5.34277L7.56641 42.1094H9.66699L13.666 51.3115L15.2656 42.1094H17.4277L15.2041 54.9062Z" fill="black"/>
<path d="M22.7523 55.082C21.9203 55.0645 21.1879 54.8652 20.5551 54.4844C19.9281 54.1035 19.4388 53.5527 19.0873 52.832C18.7357 52.1055 18.5365 51.2822 18.4896 50.3623C18.4486 49.6299 18.5131 48.7744 18.683 47.7959C18.8588 46.8174 19.1664 45.9268 19.6058 45.124C20.0511 44.3154 20.5814 43.6562 21.1967 43.1465C22.2103 42.3145 23.3822 41.9102 24.7123 41.9336C25.9779 41.957 26.9857 42.3936 27.7357 43.2432C28.4916 44.0928 28.9047 45.2412 28.975 46.6885C29.0101 47.415 28.9427 48.25 28.7728 49.1934C28.6088 50.1309 28.3217 50.9951 27.9115 51.7861C27.5072 52.5713 27.0033 53.2275 26.3998 53.7549C25.3568 54.6689 24.141 55.1113 22.7523 55.082ZM26.7513 48.165L26.8304 47.2334C26.8656 46.5947 26.8099 46.0059 26.6635 45.4668C26.517 44.9219 26.2679 44.5088 25.9164 44.2275C25.5707 43.9404 25.1312 43.7881 24.598 43.7705C23.8597 43.7471 23.2035 43.9551 22.6293 44.3945C22.0609 44.834 21.598 45.502 21.2406 46.3984C20.889 47.2949 20.684 48.4199 20.6254 49.7734C20.5668 50.8457 20.7308 51.6895 21.1176 52.3047C21.5043 52.9199 22.0843 53.2393 22.8578 53.2627C23.8715 53.292 24.7064 52.9111 25.3627 52.1201C26.0248 51.3291 26.4584 50.2158 26.6635 48.7803L26.7513 48.165Z" fill="black"/>
<path d="M32.9704 50.1514L32.1442 54.9062H29.9733L32.197 42.1094L36.6266 42.1182C37.9626 42.1182 39.0114 42.4844 39.7731 43.2168C40.5349 43.9434 40.8659 44.9072 40.7663 46.1084C40.6608 47.3506 40.154 48.3379 39.2458 49.0703C38.3376 49.7969 37.1481 50.1602 35.6774 50.1602L32.9704 50.1514ZM33.278 48.3672L35.7653 48.3848C36.5505 48.3848 37.1921 48.1855 37.6901 47.7871C38.194 47.3887 38.4958 46.832 38.5954 46.1172C38.6774 45.4668 38.5544 44.9453 38.2263 44.5527C37.904 44.1543 37.4147 43.9404 36.7585 43.9111L34.0515 43.9023L33.278 48.3672Z" fill="black"/>
<path d="M49.1407 54.1504L50.9688 55.9082L49.4395 57.1211L47.1895 54.9766C46.7208 55.0469 46.3487 55.0791 46.0733 55.0732C44.8253 55.0615 43.8204 54.6279 43.0587 53.7725C42.3028 52.917 41.8897 51.7686 41.8194 50.3271C41.7842 49.5947 41.8516 48.748 42.0215 47.7871C42.1973 46.8203 42.5137 45.918 42.9708 45.0801C43.4337 44.2422 44.002 43.5625 44.6758 43.041C45.6602 42.2793 46.7852 41.9102 48.0508 41.9336C48.8946 41.9512 49.6299 42.1504 50.2569 42.5312C50.8838 42.9121 51.376 43.4717 51.7335 44.21C52.0909 44.9424 52.2901 45.7656 52.3311 46.6797C52.3545 47.1836 52.337 47.6875 52.2784 48.1914L52.1729 48.9561C51.8096 51.3115 50.7989 53.043 49.1407 54.1504ZM50.1075 48.1562L50.1866 47.2246C50.2217 46.5801 50.1631 45.9883 50.0108 45.4492C49.8643 44.9102 49.6153 44.5 49.2637 44.2188C48.9122 43.9375 48.4698 43.7881 47.9366 43.7705C46.7881 43.7354 45.8594 44.248 45.1504 45.3086C44.4473 46.3633 44.0547 47.8516 43.9727 49.7734C43.9376 50.4238 43.9962 51.0215 44.1485 51.5664C44.3008 52.1113 44.5499 52.5273 44.8956 52.8145C45.2471 53.0957 45.6837 53.2451 46.2051 53.2627C47.1719 53.3037 47.9864 52.9492 48.6485 52.1992C49.3106 51.4492 49.7588 50.3623 49.9932 48.9385L50.1075 48.1562Z" fill="black"/>
<path d="M58.849 49.9756H56.4056L55.5443 54.9062H53.3734L55.597 42.1094L59.6312 42.1182C61.0199 42.1182 62.0834 42.4521 62.8217 43.1201C63.5599 43.7881 63.8793 44.7168 63.7797 45.9062C63.7152 46.7324 63.4398 47.4502 62.9535 48.0596C62.4672 48.6631 61.7845 49.1377 60.9056 49.4834L62.7953 54.7744L62.7865 54.9062H60.4838L58.849 49.9756ZM56.7045 48.1914L58.805 48.209C59.5609 48.209 60.1908 48.0127 60.6947 47.6201C61.2045 47.2217 61.5033 46.6826 61.5912 46.0029C61.6791 45.3408 61.5619 44.834 61.2396 44.4824C60.9174 44.125 60.4281 43.9346 59.7718 43.9111L57.4515 43.9023L56.7045 48.1914Z" fill="black"/>
<path d="M71.4421 51.5488C71.571 50.7051 71.1111 50.0781 70.0623 49.668L69.3503 49.4043C68.0261 48.9414 67.0857 48.3936 66.529 47.7607C65.9724 47.1279 65.7205 46.3926 65.7732 45.5547C65.8201 44.8281 66.0662 44.1895 66.5115 43.6387C66.9626 43.082 67.5544 42.6543 68.2869 42.3555C69.0193 42.0566 69.7986 41.916 70.6248 41.9336C71.4216 41.9512 72.1306 42.127 72.7517 42.4609C73.3728 42.7891 73.8474 43.249 74.1755 43.8408C74.5037 44.4268 74.656 45.0977 74.6326 45.8535L72.4705 45.8447C72.5115 45.1768 72.3621 44.6582 72.0222 44.2891C71.6882 43.9199 71.1814 43.7266 70.5017 43.709C69.8162 43.6973 69.2361 43.8584 68.7615 44.1924C68.2927 44.5264 68.0173 44.9775 67.9353 45.5459C67.8181 46.29 68.3162 46.876 69.4294 47.3037L70.0886 47.541C71.4304 48.0215 72.3679 48.5869 72.9011 49.2373C73.4343 49.8818 73.6687 50.6465 73.6042 51.5312C73.5457 52.252 73.3083 52.8818 72.8923 53.4209C72.4763 53.9541 71.8992 54.3672 71.1609 54.6602C70.4285 54.9531 69.6199 55.0938 68.7351 55.082C67.8972 55.0762 67.1355 54.9004 66.4499 54.5547C65.7703 54.209 65.2488 53.7314 64.8855 53.1221C64.5222 52.5068 64.3552 51.8096 64.3845 51.0303L66.5554 51.0391C66.5085 51.7656 66.6873 52.3252 67.0915 52.7178C67.4958 53.1104 68.0759 53.3125 68.8318 53.3242C69.5349 53.3359 70.1208 53.1865 70.5896 52.876C71.0642 52.5654 71.3484 52.123 71.4421 51.5488Z" fill="black"/>
<path d="M85.8968 43.9023H82.0296L80.1223 54.9062H77.9602L79.8762 43.9023H76.0354L76.3518 42.1094H86.2132L85.8968 43.9023Z" fill="black"/>
<path d="M97.0095 42.1094L95.5593 50.6611C95.3601 52.0264 94.7742 53.1133 93.8015 53.9219C92.8347 54.7305 91.6628 55.123 90.2859 55.0996C89.0085 55.0762 87.9978 54.6895 87.2537 53.9395C86.5154 53.1895 86.1785 52.2109 86.2429 51.0039L86.2693 50.6699L87.7195 42.1094H89.8816L88.4314 50.6787C88.3259 51.4932 88.446 52.1289 88.7917 52.5859C89.1374 53.043 89.6706 53.2832 90.3913 53.3066C91.1824 53.3301 91.8415 53.1162 92.3689 52.665C92.8962 52.2139 93.2331 51.5664 93.3796 50.7227L94.8474 42.1094H97.0095Z" fill="black"/>
<path d="M102.04 52.1025L106.751 42.1094H109.212L102.744 54.9062H100.643L98.1908 42.1094H100.494L102.04 52.1025Z" fill="black"/>
<path d="M118.868 51.7246L122.278 42.1094H124.484L119.615 54.9062H117.541L116.653 45.5898L112.786 54.9062H110.694L109.833 42.1094H111.934L112.355 51.6807L116.214 42.1094H118.033L118.868 51.7246Z" fill="black"/>
<path d="M129.616 46.7236L132.938 42.1094H135.557L130.732 48.5518L133.527 54.9062H131.118L129.185 50.2217L125.775 54.9062H123.147L128.077 48.3584L125.344 42.1094H127.735L129.616 46.7236Z" fill="black"/>
<path d="M140.333 48.1562L144.235 42.1094H146.749L141.106 50.3096L140.306 54.9062H138.127L138.971 50.0811L136.237 42.1094H138.531L140.333 48.1562Z" fill="black"/>
<path d="M148.326 53.1309H154.9L154.583 54.9062H145.329L145.601 53.3594L153.59 43.9023H147.28L147.596 42.1094H156.596L156.333 43.6211L148.326 53.1309Z" fill="black"/>
</g>
<g id="abcdefghijklm">
<path d="M10.792 75.9062C10.7217 75.6719 10.6924 75.376 10.7041 75.0185C9.91894 75.751 9.07226 76.1055 8.16406 76.082C7.33788 76.0703 6.65234 75.8066 6.10742 75.291C5.56835 74.7695 5.3164 74.1103 5.35156 73.3135C5.39843 72.3115 5.83203 71.5234 6.65234 70.9492C7.47265 70.375 8.57421 70.0879 9.95703 70.0879L11.3105 70.1055L11.4336 69.4551C11.4687 69.2265 11.4687 69.0127 11.4336 68.8135C11.3164 68.1806 10.8975 67.8555 10.1768 67.8379C9.73144 67.8262 9.33886 67.9404 8.99902 68.1806C8.66503 68.415 8.45995 68.7314 8.38378 69.1299L6.30078 69.1474C6.34179 68.5615 6.5498 68.0488 6.9248 67.6094C7.2998 67.164 7.79785 66.8183 8.41894 66.5723C9.04003 66.3262 9.69628 66.209 10.3877 66.2207C11.4248 66.2441 12.2334 66.5576 12.8135 67.1611C13.3935 67.7588 13.6338 68.5351 13.5342 69.4902L12.8047 73.9463L12.7344 74.7373C12.7168 75.083 12.7607 75.4199 12.8662 75.748L12.8574 75.9062H10.792ZM8.64745 74.3769C9.08691 74.3887 9.49413 74.289 9.86913 74.0781C10.2441 73.8613 10.5635 73.583 10.8271 73.2431L11.1523 71.4414L10.1592 71.4326C9.37402 71.4326 8.74706 71.582 8.27831 71.8808C7.80956 72.1738 7.54296 72.5781 7.47851 73.0937C7.43163 73.4863 7.5166 73.7969 7.73339 74.0254C7.95605 74.248 8.26074 74.3652 8.64745 74.3769Z" fill="black"/>
<path d="M23.6028 71.1953C23.4857 72.1621 23.2249 73.0381 22.8206 73.8232C22.4222 74.6025 21.9241 75.1797 21.3265 75.5547C20.7347 75.9297 20.0667 76.1084 19.3226 76.0908C18.262 76.0674 17.4622 75.6601 16.9232 74.8691L16.5892 75.9062H14.6819L17.0198 62.4062H19.1116L18.1624 67.3193C18.8714 66.5635 19.7122 66.1973 20.6849 66.2207C21.6048 66.2441 22.3226 66.581 22.8382 67.2314C23.3597 67.8818 23.6351 68.7724 23.6644 69.9033C23.6702 70.2549 23.6497 70.6855 23.6028 71.1953ZM21.5989 70.0176C21.5989 69.3789 21.4671 68.8808 21.2034 68.5234C20.9398 68.1601 20.5589 67.9726 20.0608 67.9609C19.223 67.9375 18.514 68.3418 17.9339 69.1738L17.2483 73.1113C17.5062 73.9082 18.0599 74.3213 18.9095 74.3506C19.6126 74.3681 20.1898 74.0986 20.6409 73.542C21.098 72.9853 21.3909 72.2002 21.5198 71.1865C21.5667 70.6885 21.5931 70.2988 21.5989 70.0176Z" fill="black"/>
<path d="M28.7408 74.3857C29.2389 74.3974 29.6783 74.2539 30.0592 73.9551C30.4459 73.6504 30.692 73.2549 30.7975 72.7685L32.7662 72.7598C32.7018 73.3867 32.4733 73.958 32.0807 74.4736C31.694 74.9892 31.1959 75.3906 30.5865 75.6777C29.9772 75.9648 29.3414 76.0996 28.6793 76.082C27.8649 76.0703 27.1705 75.8594 26.5963 75.4492C26.0221 75.039 25.6031 74.4736 25.3395 73.7529C25.0758 73.0264 24.9879 72.2178 25.0758 71.3271L25.1022 71.0195C25.2018 70.0996 25.4684 69.2676 25.902 68.5234C26.3414 67.7734 26.9069 67.1963 27.5983 66.792C28.2897 66.3877 29.0572 66.1973 29.901 66.2207C30.9322 66.2441 31.7555 66.5869 32.3707 67.249C32.986 67.9053 33.2936 68.7607 33.2936 69.8154H31.3424C31.3424 69.2705 31.2076 68.8252 30.9381 68.4795C30.6744 68.1338 30.2906 67.9492 29.7867 67.9258C28.9723 67.9023 28.3307 68.248 27.8619 68.9629C27.3932 69.6777 27.1412 70.6855 27.1061 71.9863C27.0651 73.5625 27.61 74.3623 28.7408 74.3857Z" fill="black"/>
<path d="M34.2726 71.1426C34.3897 70.164 34.6534 69.2851 35.0636 68.5058C35.4737 67.7265 35.9806 67.1465 36.5841 66.7656C37.1876 66.3789 37.8585 66.1943 38.5968 66.2119C39.5636 66.2353 40.3194 66.5957 40.8643 67.293L41.7784 62.4062H43.8702L41.5235 75.9062H39.6602L39.8009 74.9219C39.0626 75.7246 38.1954 76.1142 37.1993 76.0908C36.3145 76.0791 35.6056 75.7392 35.0724 75.0713C34.545 74.3974 34.2608 73.5039 34.2198 72.3906C34.2022 72.0273 34.211 71.6728 34.2462 71.3271L34.2726 71.1426ZM36.294 71.9599C36.253 72.6865 36.3643 73.2637 36.628 73.6914C36.8976 74.1191 37.296 74.3389 37.8233 74.3506C38.6261 74.374 39.3204 73.9844 39.9063 73.1816L40.6183 69.0947C40.3429 68.3623 39.8097 67.9844 39.0186 67.9609C38.2218 67.9375 37.5802 68.289 37.0938 69.0156C36.6075 69.7422 36.3409 70.7236 36.294 71.9599Z" fill="black"/>
<path d="M48.075 76.082C47.2488 76.0644 46.531 75.8564 45.9217 75.458C45.3181 75.0596 44.8699 74.5146 44.5769 73.8232C44.2898 73.1318 44.1814 72.3613 44.2517 71.5117L44.2781 71.1514C44.3836 70.1846 44.6648 69.3174 45.1219 68.5498C45.5847 67.7764 46.159 67.1904 46.8445 66.792C47.5301 66.3935 48.2742 66.2031 49.0769 66.2207C50.2664 66.2441 51.157 66.6865 51.7488 67.5478C52.3465 68.4092 52.572 69.5312 52.4256 70.914L52.3025 71.8281H46.3172C46.2644 72.584 46.4168 73.1933 46.7742 73.6562C47.1316 74.1191 47.6238 74.3564 48.2508 74.3681C49.1472 74.3974 49.9734 74.0078 50.7293 73.1992L51.784 74.3066C51.3855 74.875 50.8611 75.3174 50.2107 75.6338C49.5603 75.9443 48.8484 76.0937 48.075 76.082ZM48.9627 67.9258C47.8611 67.8906 47.0349 68.6699 46.4842 70.2637L50.4304 70.2724L50.4656 70.0879C50.5066 69.8183 50.5095 69.5547 50.4744 69.2969C50.4099 68.8808 50.2459 68.5527 49.9822 68.3125C49.7185 68.0723 49.3787 67.9433 48.9627 67.9258Z" fill="black"/>
<path d="M53.9621 75.9062L55.3419 67.9785H53.9269L54.2082 66.3965H55.6144L55.755 65.3769C55.9074 64.3926 56.3029 63.6133 56.9416 63.039C57.5861 62.4648 58.4152 62.1836 59.4289 62.1953C59.7863 62.207 60.1994 62.2656 60.6681 62.3711L60.4396 64.041C60.1818 63.9824 59.921 63.9531 59.6574 63.9531C59.1593 63.9473 58.7521 64.082 58.4357 64.3574C58.1193 64.6328 57.9171 65.0137 57.8292 65.5L57.6974 66.3965H59.5783L59.297 67.9785H57.4249L56.0451 75.9062H53.9621Z" fill="black"/>
<path d="M59.7648 71.1426C59.8761 70.1933 60.131 69.3349 60.5294 68.5674C60.9337 67.7998 61.4405 67.2139 62.0499 66.8096C62.6593 66.3994 63.3566 66.2002 64.1417 66.2119C65.1847 66.2353 65.9728 66.6191 66.506 67.3633L66.8312 66.3877L68.7296 66.3965L67.1564 75.6426C66.9806 76.8848 66.4562 77.8721 65.5831 78.6045C64.7159 79.3428 63.6583 79.6943 62.4103 79.6592C61.7423 79.6474 61.1095 79.4951 60.5118 79.2021C59.9142 78.9092 59.4337 78.5224 59.0704 78.042L60.1779 76.7851C60.7345 77.5527 61.4611 77.9482 62.3575 77.9717C63.0372 77.9951 63.6202 77.8076 64.1066 77.4092C64.5988 77.0166 64.9269 76.4541 65.0909 75.7217L65.2404 75.0537C64.5079 75.7627 63.6759 76.1055 62.7443 76.082C61.8536 76.0703 61.1388 75.7334 60.5997 75.0713C60.0665 74.4092 59.7736 73.5185 59.7208 72.3994C59.7032 72.0478 59.7179 71.6289 59.7648 71.1426ZM61.8302 71.3271C61.795 71.626 61.7833 71.9482 61.795 72.2939C61.8068 72.915 61.9474 73.4072 62.2169 73.7705C62.4864 74.1338 62.8702 74.3242 63.3683 74.3418C64.1593 74.3711 64.8507 74.0049 65.4425 73.2431L66.1896 69.042C65.8849 68.3447 65.3429 67.9844 64.5636 67.9609C63.8605 67.9433 63.2687 68.2158 62.7882 68.7783C62.3077 69.3408 61.9943 70.1289 61.8478 71.1426L61.8302 71.3271Z" fill="black"/>
<path d="M72.7057 67.4424C73.4967 66.6103 74.3961 66.206 75.4039 66.2295C76.3062 66.2412 76.9742 66.5605 77.4078 67.1875C77.8473 67.8144 78.0113 68.6816 77.9 69.789L76.8805 75.9062H74.7975L75.8346 69.7627C75.8639 69.5107 75.8697 69.2764 75.8521 69.0596C75.776 68.3447 75.3541 67.9785 74.5865 67.9609C73.8131 67.9492 73.1217 68.3301 72.5123 69.1035L71.3258 75.9062H69.2428L71.5807 62.4062H73.6725L72.7057 67.4424Z" fill="black"/>
<path d="M81.284 75.9062H79.201L80.8533 66.3965H82.9363L81.284 75.9062ZM81.1522 63.9619C81.1522 63.6396 81.2576 63.3642 81.4686 63.1357C81.6795 62.9072 81.9637 62.7871 82.3211 62.7754C82.6609 62.7637 82.9422 62.8691 83.1648 63.0918C83.3934 63.3086 83.5076 63.5752 83.5076 63.8916C83.5076 64.2256 83.3963 64.501 83.1736 64.7178C82.9568 64.9346 82.6785 65.0488 82.3387 65.0605C82.0047 65.0723 81.7234 64.9726 81.4949 64.7617C81.2664 64.5449 81.1522 64.2783 81.1522 63.9619Z" fill="black"/>
<path d="M87.4523 66.3965L85.7033 76.7412C85.5744 77.7256 85.2346 78.4785 84.6838 79C84.133 79.5273 83.4152 79.7851 82.5304 79.7734C82.1554 79.7617 81.7599 79.706 81.3439 79.6064L81.5197 77.9189C81.7892 77.9834 82.0353 78.0156 82.258 78.0156C83.0021 78.0156 83.4504 77.5791 83.6027 76.706L85.3693 66.3965H87.4523ZM85.6242 63.9619C85.6242 63.6221 85.7297 63.3437 85.9406 63.1269C86.1515 62.9043 86.4328 62.7871 86.7844 62.7754C87.1242 62.7637 87.4054 62.8662 87.6281 63.083C87.8566 63.2939 87.9709 63.5635 87.9709 63.8916C87.9709 64.2256 87.8596 64.501 87.6369 64.7178C87.4201 64.9346 87.1418 65.0488 86.8019 65.0605C86.4504 65.0605 86.1662 64.958 85.9494 64.7529C85.7326 64.542 85.6242 64.2783 85.6242 63.9619Z" fill="black"/>
<path d="M91.8784 71.8457L90.7007 72.8916L90.1821 75.9062H88.0991L90.437 62.4062H92.52L91.1841 70.0703L91.9136 69.3144L94.937 66.3965H97.6001L93.3813 70.457L96.1587 75.9062H93.8999L91.8784 71.8457Z" fill="black"/>
<path d="M99.5197 75.9062H97.4367L99.7834 62.4062H101.866L99.5197 75.9062Z" fill="black"/>
<path d="M105.46 66.3877L105.275 67.3984C106.06 66.5898 106.998 66.1973 108.087 66.2207C108.685 66.2324 109.18 66.3701 109.573 66.6338C109.971 66.8974 110.241 67.2461 110.381 67.6797C111.26 66.6836 112.268 66.1973 113.405 66.2207C114.331 66.2441 115.016 66.5635 115.461 67.1787C115.913 67.7881 116.083 68.6435 115.971 69.7451L114.943 75.9062H112.86L113.897 69.7275C113.926 69.4697 113.929 69.2324 113.906 69.0156C113.812 68.3301 113.378 67.9785 112.605 67.9609C111.744 67.9375 111.064 68.4092 110.566 69.376L110.54 69.5693L109.45 75.9062H107.358L108.395 69.7539C108.424 69.5019 108.427 69.2676 108.404 69.0508C108.31 68.3418 107.877 67.9785 107.103 67.9609C106.324 67.9492 105.673 68.2978 105.152 69.0068L103.948 75.9062H101.865L103.508 66.3965L105.46 66.3877Z" fill="black"/>
</g>
<g id="nopqrstuvwxyz">
<path d="M8.71777 87.3877L8.50684 88.5039C9.32129 87.625 10.2617 87.1973 11.3281 87.2207C12.2188 87.2383 12.8779 87.5576 13.3057 88.1787C13.7334 88.7939 13.8916 89.6553 13.7803 90.7627L12.752 96.9062H10.6689L11.7061 90.7363C11.7354 90.4844 11.7383 90.25 11.7148 90.0332C11.6387 89.3359 11.2227 88.9785 10.4668 88.9609C9.67578 88.9492 8.98145 89.3389 8.38379 90.1299L7.19727 96.9062H5.11426L6.75781 87.3965L8.71777 87.3877Z" fill="black"/>
<path d="M15.4506 92.1162C15.5502 91.1846 15.8227 90.3379 16.268 89.5762C16.7191 88.8145 17.2963 88.2256 17.9994 87.8096C18.7025 87.3936 19.4818 87.1973 20.3373 87.2207C21.1518 87.2324 21.8549 87.4492 22.4467 87.8711C23.0385 88.293 23.4692 88.8701 23.7387 89.6025C24.0141 90.335 24.1108 91.1494 24.0287 92.0459C23.935 93.0537 23.6596 93.9443 23.2025 94.7178C22.7514 95.4912 22.1713 96.0859 21.4623 96.502C20.7592 96.9121 19.977 97.1055 19.1156 97.082C18.307 97.0703 17.6068 96.8564 17.015 96.4404C16.4291 96.0186 15.9984 95.4443 15.7231 94.7178C15.4477 93.9854 15.3481 93.1797 15.4242 92.3008L15.4506 92.1162ZM17.4984 93.3203C17.5277 93.9355 17.6889 94.4307 17.9818 94.8057C18.2807 95.1748 18.6938 95.3682 19.2211 95.3857C19.9359 95.4033 20.5336 95.1279 21.0141 94.5596C21.5004 93.9912 21.8051 93.2148 21.9281 92.2305L21.9809 91.3691C21.9809 90.6191 21.8315 90.0303 21.5326 89.6025C21.2338 89.1748 20.8002 88.9492 20.2318 88.9258C19.3412 88.9023 18.6381 89.3389 18.1225 90.2354C17.8119 90.7803 17.6156 91.4072 17.5336 92.1162C17.4867 92.6084 17.475 93.0098 17.4984 93.3203Z" fill="black"/>
<path d="M33.8904 92.1865C33.7733 93.1357 33.5184 93.9971 33.1258 94.7705C32.7391 95.5439 32.244 96.1299 31.6404 96.5283C31.0428 96.9209 30.3719 97.1084 29.6278 97.0908C28.6375 97.0674 27.8582 96.7158 27.2899 96.0361L26.4373 100.562H24.3455L26.6307 87.3965L28.5379 87.3877L28.3797 88.3721C29.1063 87.5811 29.9705 87.1973 30.9725 87.2207C31.576 87.2266 32.1004 87.3818 32.5457 87.6865C32.991 87.9854 33.3309 88.4219 33.5653 88.9961C33.8055 89.5703 33.9344 90.209 33.952 90.9121C33.9578 91.2695 33.9373 91.6943 33.8904 92.1865ZM31.8338 92.002L31.8778 91.3604C31.8953 90.6045 31.7694 90.0186 31.4998 89.6025C31.2362 89.1865 30.8377 88.9727 30.3045 88.9609C29.5194 88.9375 28.8397 89.2979 28.2654 90.042L27.5272 94.2871C27.7908 94.9961 28.327 95.3623 29.1356 95.3857C29.827 95.4033 30.407 95.1338 30.8758 94.5771C31.3504 94.0205 31.6697 93.1621 31.8338 92.002Z" fill="black"/>
<path d="M35.3406 92.1338C35.4578 91.1318 35.7244 90.2441 36.1404 89.4707C36.5564 88.6914 37.0662 88.1172 37.6697 87.748C38.2732 87.373 38.9471 87.1943 39.6912 87.2119C40.699 87.2354 41.4725 87.6133 42.0115 88.3457L42.3543 87.3877L44.2352 87.3965L41.95 100.562H39.867L40.7283 96.0889C40.0193 96.7744 39.2078 97.1055 38.2937 97.082C37.3855 97.0703 36.6678 96.7334 36.1404 96.0713C35.6131 95.4033 35.3289 94.5127 35.2879 93.3994C35.2703 93.0303 35.2791 92.6699 35.3143 92.3184L35.3406 92.1338ZM37.4061 92.3184L37.3621 92.9512C37.3445 93.7422 37.4676 94.3428 37.7312 94.7529C38.0008 95.1572 38.3934 95.3652 38.909 95.377C39.3484 95.3945 39.7293 95.3037 40.0516 95.1045C40.3797 94.8994 40.6756 94.6328 40.9393 94.3047L41.7127 89.9629C41.408 89.2949 40.8748 88.9492 40.1131 88.9258C39.4451 88.9082 38.8768 89.1602 38.408 89.6816C37.9451 90.2031 37.6316 90.9443 37.4676 91.9053L37.4061 92.3184Z" fill="black"/>
<path d="M51.0906 89.3477C50.8211 89.2891 50.5486 89.2598 50.2732 89.2598C49.3592 89.2363 48.6326 89.6143 48.0935 90.3936L46.951 96.9062H44.8679L46.5115 87.3965L48.489 87.3877L48.2781 88.4688C48.9285 87.6074 49.6785 87.1855 50.5281 87.2031C50.7215 87.2031 50.9881 87.2471 51.3279 87.335L51.0906 89.3477Z" fill="black"/>
<path d="M56.7595 94.2695C56.8591 93.6895 56.4812 93.2881 55.6257 93.0654C54.7761 92.8369 54.196 92.6553 53.8855 92.5205C52.6785 92.0049 52.0955 91.2197 52.1365 90.165C52.1658 89.3096 52.5525 88.6035 53.2966 88.0469C54.0466 87.4844 54.9431 87.209 55.9861 87.2207C56.9939 87.2324 57.8142 87.5166 58.447 88.0732C59.0857 88.6299 59.3992 89.3594 59.3875 90.2617L57.322 90.2529C57.3337 89.8135 57.2136 89.4707 56.9617 89.2246C56.7097 88.9727 56.364 88.8408 55.9246 88.8291C55.4617 88.8291 55.0632 88.9434 54.7293 89.1719C54.4011 89.4004 54.2107 89.6992 54.158 90.0684C54.0759 90.6016 54.4509 90.9736 55.283 91.1846C56.115 91.3896 56.7302 91.5801 57.1287 91.7559C58.2888 92.2656 58.8484 93.0625 58.8074 94.1465C58.7781 94.75 58.5789 95.2773 58.2097 95.7285C57.8464 96.1738 57.3572 96.5166 56.7419 96.7568C56.1267 96.9912 55.4734 97.0996 54.782 97.082C53.7449 97.0703 52.8835 96.7686 52.198 96.1768C51.5183 95.585 51.1843 94.8262 51.196 93.9004L53.2087 93.9092C53.2205 94.4189 53.3728 94.8057 53.6658 95.0693C53.9587 95.333 54.3601 95.4678 54.8699 95.4736C55.3855 95.4736 55.8132 95.3682 56.1531 95.1572C56.4988 94.9404 56.7009 94.6445 56.7595 94.2695Z" fill="black"/>
<path d="M64.8459 85.085L64.4416 87.3965H66.0675L65.7951 88.9785H64.1603L63.2638 94.3047C63.2463 94.4512 63.2433 94.583 63.255 94.7002C63.2902 95.0811 63.5246 95.2803 63.9582 95.2979C64.175 95.2979 64.4211 95.2715 64.6964 95.2188L64.5558 96.8887C64.1222 97.0117 63.6857 97.0732 63.2463 97.0732C62.5197 97.0615 61.9748 96.8154 61.6115 96.335C61.2541 95.8486 61.1134 95.207 61.1896 94.4102L62.0773 88.9785H60.5568L60.838 87.3965H62.3498L62.7541 85.085H64.8459Z" fill="black"/>
<path d="M71.9474 95.9658C71.2267 96.7334 70.3244 97.1055 69.2404 97.082C68.6251 97.0703 68.1124 96.918 67.7023 96.625C67.298 96.332 67.0079 95.9248 66.8322 95.4033C66.6622 94.876 66.6124 94.2578 66.6828 93.5488L67.7111 87.3965H69.7941L68.757 93.5752C68.7335 93.792 68.7306 94.0029 68.7482 94.208C68.8068 94.9346 69.173 95.3125 69.8468 95.3418C70.7667 95.377 71.5109 95.0078 72.0792 94.2344L73.2746 87.3965H75.3576L73.714 96.9062H71.7628L71.9474 95.9658Z" fill="black"/>
<path d="M79.5851 94.1729L82.5909 87.3965H84.8146L80.13 96.9062H78.3195L76.5792 87.3965H78.671L79.5851 94.1729Z" fill="black"/>
<path d="M93.1466 93.9443L95.7569 87.3965H97.8487L93.6827 96.9062H91.9688L91.1339 90.4023L88.0577 96.9062H86.3351L85.4649 87.3965H87.4337L87.794 93.8477L90.7999 87.3965H92.3731L93.1466 93.9443Z" fill="black"/>
<path d="M101.953 90.5078L104.194 87.3965H106.629L102.99 92.1777L105.108 96.9062H102.929L101.602 93.6631L99.2637 96.9062H96.838L100.591 91.9844L98.543 87.3965H100.723L101.953 90.5078Z" fill="black"/>
<path d="M110.189 93.8301L113.177 87.3965H115.48L109.846 98.5498C109.061 100.05 108.026 100.791 106.743 100.773C106.427 100.762 106.066 100.703 105.662 100.598L105.838 98.9453L106.216 98.9805C106.72 98.998 107.136 98.9014 107.464 98.6904C107.792 98.4854 108.067 98.1631 108.29 97.7236L108.791 96.7393L107.2 87.3965H109.362L110.189 93.8301Z" fill="black"/>
<path d="M117.66 95.2012H122.494L122.195 96.9062H114.698L114.961 95.4033L120.657 89.1191H116.13L116.438 87.3965H123.671L123.416 88.8467L117.66 95.2012Z" fill="black"/>
</g>
<g id="1234567890">
<path d="M10.6338 117.906H8.55957L10.335 107.676L7.10059 108.748L7.42578 106.858L12.4883 105.065H12.8047L10.6338 117.906Z" fill="black"/>
<path d="M23.4748 117.906H15.1164L15.3625 116.351L20.6799 111.244C21.6701 110.277 22.215 109.401 22.3147 108.616C22.3908 108.06 22.2971 107.597 22.0334 107.228C21.7697 106.853 21.3742 106.653 20.8469 106.63C20.1965 106.607 19.6486 106.812 19.2033 107.245C18.758 107.673 18.4885 108.259 18.3947 109.003L16.3205 109.012C16.3791 108.227 16.6164 107.521 17.0324 106.894C17.4543 106.267 18.0109 105.78 18.7023 105.435C19.3996 105.083 20.1525 104.916 20.9611 104.934C22.0744 104.957 22.9533 105.279 23.5979 105.9C24.2482 106.522 24.5354 107.354 24.4592 108.397C24.3596 109.592 23.6418 110.855 22.3059 112.185L21.7609 112.721L18.0607 116.201H23.7473L23.4748 117.906Z" fill="black"/>
<path d="M28.6957 110.532L29.8295 110.541C30.515 110.541 31.0863 110.357 31.5434 109.987C32.0004 109.618 32.2611 109.126 32.3256 108.511C32.39 107.931 32.2846 107.477 32.0092 107.148C31.7338 106.815 31.3236 106.642 30.7787 106.63C30.2279 106.618 29.7504 106.779 29.3461 107.113C28.9418 107.447 28.6986 107.887 28.6166 108.432L26.5336 108.44C26.5863 107.755 26.8119 107.143 27.2104 106.604C27.6088 106.065 28.1274 105.651 28.766 105.364C29.4106 105.071 30.1049 104.928 30.849 104.934C31.9916 104.957 32.891 105.291 33.5473 105.936C34.2094 106.574 34.5024 107.433 34.4262 108.511C34.3852 109.097 34.1684 109.636 33.7758 110.128C33.3832 110.614 32.8149 111.033 32.0707 111.385C33.0844 111.854 33.6234 112.668 33.6879 113.828V114.25C33.6117 115.398 33.14 116.33 32.2729 117.045C31.4115 117.76 30.3539 118.106 29.1 118.082C28.3793 118.076 27.7318 117.924 27.1576 117.625C26.5834 117.32 26.141 116.896 25.8305 116.351C25.5258 115.8 25.3852 115.173 25.4086 114.47L27.4828 114.479C27.4594 115.041 27.5971 115.495 27.8959 115.841C28.2006 116.181 28.643 116.359 29.2231 116.377C29.8617 116.4 30.4037 116.213 30.849 115.815C31.3002 115.416 31.5609 114.895 31.6313 114.25C31.7016 113.6 31.5668 113.105 31.227 112.765C30.893 112.425 30.4096 112.246 29.7768 112.229L28.432 112.22L28.6957 110.532Z" fill="black"/>
<path d="M42.8815 113.345H44.4283L44.1295 115.059H42.5914L42.0904 117.906H40.0074L40.4996 115.059H35.1383L35.3229 113.652L42.0904 105.109H44.3141L42.8815 113.345ZM37.6256 113.345H40.7985L41.7916 107.975L41.5807 108.273L37.6256 113.345Z" fill="black"/>
<path d="M46.7137 111.534L48.3924 105.109H55.0897L54.7996 106.955H49.869L48.9637 110.023C49.5613 109.683 50.2117 109.513 50.9149 109.513C51.9988 109.524 52.8309 109.923 53.411 110.708C53.9969 111.493 54.2371 112.51 54.1317 113.758C54.0262 115.041 53.5457 116.09 52.6903 116.904C51.8348 117.719 50.7772 118.114 49.5174 118.091C48.451 118.067 47.5838 117.725 46.9158 117.063C46.2537 116.4 45.9051 115.527 45.8699 114.443H47.8651C47.9061 115.041 48.0731 115.51 48.366 115.85C48.6649 116.184 49.0809 116.357 49.6141 116.368C50.2645 116.386 50.8094 116.148 51.2488 115.656C51.6942 115.164 51.9608 114.508 52.0487 113.688C52.119 112.961 51.9988 112.375 51.6883 111.93C51.3778 111.479 50.9149 111.247 50.2996 111.235C49.9246 111.224 49.5877 111.285 49.2889 111.42C48.9959 111.549 48.7088 111.731 48.4276 111.965L46.7137 111.534Z" fill="black"/>
<path d="M63.6416 105.039L63.4658 106.815L63.3516 106.806C62.2266 106.794 61.251 107.099 60.4248 107.72C59.5987 108.335 58.9512 109.27 58.4824 110.523C59.2559 109.773 60.1377 109.41 61.128 109.434C61.8135 109.445 62.3965 109.639 62.877 110.014C63.3574 110.383 63.709 110.893 63.9317 111.543C64.1543 112.188 64.2305 112.891 64.1602 113.652C64.0899 114.484 63.8467 115.249 63.4307 115.946C63.0147 116.638 62.4697 117.174 61.7959 117.555C61.128 117.93 60.3955 118.108 59.5987 118.091C58.585 118.067 57.7617 117.707 57.1289 117.01C56.4961 116.313 56.1358 115.396 56.0479 114.259C55.9951 113.632 56.0625 112.794 56.25 111.745C56.6309 109.653 57.4424 108.013 58.6846 106.823C59.9326 105.634 61.5176 105.039 63.4395 105.039H63.6416ZM60.5215 111.148C60.0528 111.136 59.6133 111.262 59.2031 111.525C58.793 111.783 58.4473 112.152 58.166 112.633C58.1016 113.225 58.0723 113.647 58.0781 113.898C58.0781 114.648 58.2158 115.243 58.4912 115.683C58.7666 116.122 59.1621 116.348 59.6778 116.359C60.3106 116.377 60.8467 116.14 61.2862 115.648C61.7315 115.155 61.9981 114.511 62.086 113.714C62.1621 112.97 62.0596 112.36 61.7783 111.886C61.4971 111.411 61.0781 111.165 60.5215 111.148Z" fill="black"/>
<path d="M75.2873 106.401L68.5725 117.906H66.2961L72.9846 106.823H66.6037L66.8762 105.109H75.4895L75.2873 106.401Z" fill="black"/>
<path d="M84.6655 108.414C84.56 109.686 83.81 110.67 82.4155 111.367C82.937 111.701 83.3237 112.126 83.5756 112.642C83.8334 113.157 83.9389 113.726 83.892 114.347C83.8159 115.472 83.3559 116.383 82.5121 117.08C81.6684 117.772 80.6225 118.106 79.3745 118.082C78.2377 118.059 77.3325 117.722 76.6586 117.071C75.9907 116.415 75.6948 115.557 75.7709 114.496C75.8764 113.072 76.7289 111.994 78.3286 111.262C77.8891 110.945 77.5639 110.553 77.353 110.084C77.142 109.609 77.0541 109.103 77.0893 108.564C77.1713 107.462 77.6049 106.577 78.3901 105.909C79.1752 105.235 80.1508 104.91 81.3168 104.934C82.0141 104.951 82.6264 105.107 83.1537 105.399C83.687 105.692 84.0854 106.103 84.3491 106.63C84.6127 107.157 84.7182 107.752 84.6655 108.414ZM81.8354 114.241C81.8998 113.649 81.7856 113.163 81.4926 112.782C81.1996 112.396 80.7778 112.196 80.227 112.185C79.6059 112.173 79.0756 112.378 78.6362 112.8C78.1967 113.216 77.9418 113.743 77.8715 114.382C77.8071 114.985 77.9243 115.469 78.2231 115.832C78.5219 116.19 78.9438 116.374 79.4887 116.386C80.1215 116.398 80.6518 116.201 81.0795 115.797C81.5131 115.393 81.7651 114.874 81.8354 114.241ZM82.5737 108.484C82.6264 107.957 82.5268 107.521 82.2748 107.175C82.0287 106.829 81.6625 106.65 81.1762 106.639C80.643 106.627 80.186 106.809 79.8051 107.184C79.4301 107.559 79.2104 108.045 79.1459 108.643C79.0932 109.193 79.1928 109.636 79.4448 109.97C79.6967 110.304 80.06 110.477 80.5346 110.488C81.0737 110.5 81.5307 110.315 81.9057 109.935C82.2866 109.554 82.5092 109.07 82.5737 108.484Z" fill="black"/>
<path d="M87.3288 116.201C88.5709 116.213 89.5817 115.914 90.361 115.305C91.1403 114.69 91.7233 113.77 92.11 112.545C91.3131 113.318 90.4694 113.699 89.5788 113.688C88.9166 113.676 88.3424 113.497 87.8561 113.151C87.3698 112.8 87.0065 112.296 86.7663 111.64C86.526 110.983 86.4411 110.257 86.5114 109.46C86.5875 108.61 86.8336 107.831 87.2496 107.122C87.6715 106.413 88.2164 105.865 88.8844 105.479C89.5524 105.092 90.2819 104.91 91.0729 104.934C91.7584 104.951 92.3532 105.127 92.8571 105.461C93.3668 105.789 93.7623 106.261 94.0436 106.876C94.3248 107.485 94.486 108.168 94.527 108.924C94.5563 109.551 94.4889 110.333 94.3248 111.271C93.9498 113.439 93.1471 115.097 91.9166 116.245C90.6862 117.394 89.1217 117.968 87.2233 117.968H87.0299L87.1969 116.192L87.3288 116.201ZM90.0973 112.026C90.5309 112.038 90.9411 111.921 91.3278 111.675C91.7145 111.423 92.0485 111.077 92.3297 110.638L92.444 109.785L92.4791 109.17C92.4967 108.408 92.3766 107.805 92.1188 107.359C91.861 106.908 91.4743 106.671 90.9586 106.648C90.2262 106.624 89.6256 106.976 89.1569 107.702C88.6881 108.429 88.4977 109.284 88.5856 110.269C88.6266 110.79 88.7789 111.209 89.0426 111.525C89.3063 111.842 89.6579 112.009 90.0973 112.026Z" fill="black"/>
<path d="M99.3875 118.082C98.2801 118.059 97.4422 117.678 96.8739 116.94C96.3055 116.195 96.0301 115.155 96.0477 113.819C96.0536 113.386 96.0829 112.952 96.1356 112.519L96.4784 110.233C96.7655 108.44 97.3192 107.102 98.1395 106.217C98.9598 105.332 100.02 104.904 101.321 104.934C102.423 104.957 103.258 105.332 103.826 106.059C104.4 106.785 104.679 107.816 104.661 109.152C104.655 109.592 104.626 110.025 104.573 110.453L104.23 112.677C103.931 114.511 103.375 115.879 102.56 116.781C101.752 117.678 100.694 118.111 99.3875 118.082ZM102.543 110.11C102.619 109.442 102.657 108.968 102.657 108.687C102.628 107.362 102.144 106.68 101.207 106.639C100.492 106.609 99.9178 106.87 99.4842 107.421C99.0506 107.972 98.7459 108.848 98.5702 110.049L98.1659 112.835C98.0956 113.439 98.0633 113.916 98.0692 114.268C98.0692 115.639 98.5497 116.345 99.5106 116.386C100.835 116.462 101.687 115.428 102.068 113.283L102.543 110.11Z" fill="black"/>
</g>
</g>
</svg>
