<svg width="158" height="122" viewBox="0 0 158 122" fill="none" xmlns="http://www.w3.org/2000/svg">
<g id="Roboto_light">
<g id="Light">
<path d="M1.30566 13.5298V3.4126H2.74121V12.4565H7.29395V13.5298H1.30566Z" fill="black"/>
<path d="M8.80062 13.5298V6.10596H10.1473V13.5298H8.80062ZM8.80062 4.75928V3.4126H10.1473V4.75928H8.80062Z" fill="black"/>
<path d="M12.8639 15.9976L13.0212 14.8286C13.8005 15.1978 14.5684 15.3823 15.3249 15.3823C16.8425 15.3823 17.6012 14.578 17.6012 12.9692V11.8003C17.1045 12.8394 16.2887 13.3589 15.154 13.3589C14.2653 13.3589 13.5589 13.0353 13.0348 12.3882C12.5108 11.741 12.2487 10.8683 12.2487 9.77002C12.2487 8.63981 12.5472 7.71924 13.1442 7.0083C13.7412 6.29736 14.5137 5.94189 15.4616 5.94189C16.291 5.94189 17.0042 6.27913 17.6012 6.95361V6.10596H18.9548V11.5063C18.9548 12.6685 18.8932 13.5275 18.7702 14.0835C18.6517 14.644 18.4261 15.1021 18.0934 15.4575C17.5055 16.0819 16.5918 16.394 15.3522 16.394C14.4863 16.394 13.6569 16.2619 12.8639 15.9976ZM17.6012 10.9595V7.87646C17.0088 7.26123 16.3639 6.95361 15.6667 6.95361C15.0469 6.95361 14.5615 7.20199 14.2106 7.69873C13.8597 8.19548 13.6843 8.87679 13.6843 9.74268C13.6843 11.3696 14.2562 12.1831 15.4001 12.1831C16.1794 12.1831 16.9131 11.7752 17.6012 10.9595Z" fill="black"/>
<path d="M21.576 13.5298V2.73584H22.9227V7.50049C23.6336 6.46143 24.5041 5.94189 25.534 5.94189C26.1766 5.94189 26.6893 6.14697 27.0721 6.55713C27.4549 6.96273 27.6463 7.5096 27.6463 8.19775V13.5298H26.2997V8.63525C26.2997 8.08382 26.2176 7.69189 26.0536 7.45947C25.8941 7.22249 25.6275 7.104 25.2538 7.104C24.4289 7.104 23.6519 7.64404 22.9227 8.72412V13.5298H21.576Z" fill="black"/>
<path d="M32.503 13.7007C31.8194 13.7007 31.2862 13.5047 30.9033 13.1128C30.5205 12.7209 30.3291 12.1763 30.3291 11.479V7.11768H29.3994V6.10596H30.3291V4.75928L31.6758 4.62939V6.10596H33.6172V7.11768H31.6758V11.2329C31.6758 12.2036 32.0951 12.689 32.9336 12.689C33.1114 12.689 33.3278 12.6593 33.583 12.6001V13.5298C33.1683 13.6437 32.8083 13.7007 32.503 13.7007Z" fill="black"/>
</g>
<g id="ABCDEFGHIJKLM">
<path d="M13.5254 30.3384H7.71582L6.39746 33.9243H5.26367L10.1064 21.1274H11.1348L15.9775 33.9243H14.8525L13.5254 30.3384ZM8.0498 29.4155H13.1826L10.6162 22.4458L8.0498 29.4155Z" fill="black"/>
<path d="M17.8667 33.9243V21.1274H21.646C23.0171 21.1274 24.0571 21.4116 24.7661 21.98C25.4751 22.5425 25.8296 23.3745 25.8296 24.4761C25.8296 25.1382 25.6479 25.7153 25.2847 26.2075C24.9272 26.6938 24.435 27.0425 23.8081 27.2534C24.5522 27.4175 25.1499 27.7837 25.6011 28.3521C26.0581 28.9204 26.2866 29.5767 26.2866 30.3208C26.2866 31.4517 25.9204 32.3364 25.188 32.9751C24.4614 33.6079 23.4477 33.9243 22.147 33.9243H17.8667ZM18.9477 27.772V33.0103H22.1909C23.1167 33.0103 23.8491 32.7759 24.3882 32.3071C24.9331 31.8325 25.2056 31.1763 25.2056 30.3384C25.2056 29.5474 24.9448 28.9233 24.4233 28.4663C23.9077 28.0034 23.1929 27.772 22.2788 27.772H18.9477ZM18.9477 26.8667H21.9009C22.8032 26.8491 23.5005 26.6382 23.9927 26.2339C24.4907 25.8237 24.7397 25.229 24.7397 24.4497C24.7397 23.6294 24.4819 23.0259 23.9663 22.6392C23.4565 22.2466 22.6831 22.0503 21.646 22.0503H18.9477V26.8667Z" fill="black"/>
<path d="M37.9668 29.9341C37.8203 31.2817 37.3369 32.313 36.5166 33.0278C35.7021 33.7427 34.6152 34.1001 33.2558 34.1001C32.3066 34.1001 31.4658 33.8628 30.7334 33.3882C30.0068 32.9136 29.4443 32.2427 29.0459 31.3755C28.6474 30.5024 28.4453 29.5063 28.4394 28.3872V26.7261C28.4394 25.5894 28.6386 24.5815 29.0371 23.7026C29.4355 22.8237 30.0068 22.147 30.751 21.6724C31.501 21.1919 32.3623 20.9517 33.3349 20.9517C34.706 20.9517 35.7871 21.3237 36.5781 22.0679C37.375 22.8062 37.8379 23.8286 37.9668 25.1353H36.8769C36.6074 22.9614 35.4267 21.8745 33.3349 21.8745C32.1748 21.8745 31.249 22.3081 30.5576 23.1753C29.872 24.0425 29.5293 25.2407 29.5293 26.77V28.3345C29.5293 29.811 29.8633 30.9888 30.5312 31.8677C31.2051 32.7466 32.1133 33.186 33.2558 33.186C34.3867 33.186 35.2392 32.9165 35.8135 32.3774C36.3877 31.8325 36.7422 31.0181 36.8769 29.9341H37.9668Z" fill="black"/>
<path d="M40.6122 33.9243V21.1274H44.1894C45.2382 21.1274 46.1786 21.3677 47.0106 21.8481C47.8427 22.3228 48.4901 23.0054 48.953 23.896C49.4218 24.7866 49.6561 25.8003 49.6561 26.937V28.1147C49.6561 29.2573 49.4247 30.271 48.9618 31.1558C48.4989 32.0405 47.8456 32.7231 47.0019 33.2036C46.164 33.6841 45.2001 33.9243 44.1102 33.9243H40.6122ZM41.6933 22.0503V33.0103H44.119C45.4667 33.0103 46.5477 32.5649 47.3622 31.6743C48.1767 30.7778 48.5839 29.5679 48.5839 28.0444V26.9194C48.5839 25.4487 48.1825 24.271 47.3798 23.3862C46.577 22.5015 45.5194 22.0562 44.2069 22.0503H41.6933Z" fill="black"/>
<path d="M59.473 27.7896H53.4877V33.0103H60.3695V33.9243H52.4066V21.1274H60.3256V22.0503H53.4877V26.8755H59.473V27.7896Z" fill="black"/>
<path d="M69.703 27.9478H63.7352V33.9243H62.6542V21.1274H70.5819V22.0503H63.7352V27.0249H69.703V27.9478Z" fill="black"/>
<path d="M82.016 32.4038C81.641 32.937 81.0521 33.353 80.2494 33.6519C79.4525 33.9507 78.5589 34.1001 77.5687 34.1001C76.5668 34.1001 75.6761 33.8599 74.8968 33.3794C74.1175 32.8989 73.514 32.2192 73.0863 31.3403C72.6586 30.4614 72.4418 29.4536 72.4359 28.3169V26.6997C72.4359 24.9243 72.8841 23.5239 73.7806 22.4985C74.6771 21.4673 75.8812 20.9517 77.3929 20.9517C78.7113 20.9517 79.7718 21.2886 80.5746 21.9624C81.3773 22.6304 81.8548 23.5532 82.0072 24.731H80.9261C80.7679 23.7935 80.3841 23.0845 79.7748 22.604C79.1712 22.1177 78.3802 21.8745 77.4017 21.8745C76.2064 21.8745 75.2601 22.2993 74.5629 23.1489C73.8656 23.9985 73.517 25.1968 73.517 26.7437V28.2554C73.517 29.228 73.681 30.0894 74.0091 30.8394C74.3431 31.5835 74.8177 32.1606 75.433 32.5708C76.0541 32.981 76.766 33.186 77.5687 33.186C78.5004 33.186 79.3002 33.0396 79.9681 32.7466C80.4017 32.5532 80.724 32.3276 80.9349 32.0698V28.7651H77.4984V27.8511H82.016V32.4038Z" fill="black"/>
<path d="M94.5663 33.9243H93.4764V27.7896H86.1639V33.9243H85.0829V21.1274H86.1639V26.8755H93.4764V21.1274H94.5663V33.9243Z" fill="black"/>
<path d="M99.1449 33.9243H98.0638V21.1274H99.1449V33.9243Z" fill="black"/>
<path d="M108.294 21.1274H109.384V30.1187C109.384 31.3315 109.032 32.2983 108.329 33.019C107.632 33.7397 106.695 34.1001 105.517 34.1001C104.275 34.1001 103.32 33.7749 102.652 33.1245C101.984 32.4741 101.65 31.5659 101.65 30.3999H102.731C102.731 31.3257 102.974 32.0229 103.46 32.4917C103.947 32.9546 104.632 33.186 105.517 33.186C106.331 33.186 106.993 32.9165 107.503 32.3774C108.019 31.8384 108.282 31.106 108.294 30.1802V21.1274Z" fill="black"/>
<path d="M115.457 27.5698L113.655 29.3452V33.9243H112.574V21.1274H113.655V28.0269L120.212 21.1274H121.574L116.213 26.8228L121.987 33.9243H120.669L115.457 27.5698Z" fill="black"/>
<path d="M125.019 33.0103H131.339V33.9243H123.929V21.1274H125.019V33.0103Z" fill="black"/>
<path d="M134.854 21.1274L139.573 32.4214L144.311 21.1274H145.752V33.9243H144.671V28.3521L144.759 22.6392L139.995 33.9243H139.16L134.414 22.6831L134.502 28.3169V33.9243H133.421V21.1274H134.854Z" fill="black"/>
</g>
<g id="NOPQRSTUVWXYZ">
<path d="M16.1445 54.9243H15.0635L7.70703 43.9731V54.9243H6.61719V42.1274H7.70703L15.0723 53.0874V42.1274H16.1445V54.9243Z" fill="black"/>
<path d="M28.8535 49.2202C28.8535 50.3979 28.6484 51.4321 28.2383 52.3228C27.834 53.2134 27.2539 53.8989 26.498 54.3794C25.7422 54.8599 24.8691 55.1001 23.8789 55.1001C22.3848 55.1001 21.1777 54.5669 20.2578 53.5005C19.3379 52.4282 18.8779 50.9839 18.8779 49.1675V47.8491C18.8779 46.6831 19.083 45.6519 19.4932 44.7554C19.9092 43.853 20.4951 43.1616 21.251 42.6812C22.0068 42.1948 22.877 41.9517 23.8613 41.9517C24.8457 41.9517 25.7129 42.189 26.4629 42.6636C27.2188 43.1382 27.8018 43.8091 28.2119 44.6763C28.6221 45.5435 28.8359 46.5483 28.8535 47.6909V49.2202ZM27.7725 47.8315C27.7725 46.2905 27.4238 45.0835 26.7266 44.2104C26.0293 43.3374 25.0742 42.9009 23.8613 42.9009C22.6719 42.9009 21.7227 43.3403 21.0137 44.2192C20.3105 45.0923 19.959 46.314 19.959 47.8843V49.2202C19.959 50.7378 20.3105 51.9419 21.0137 52.8325C21.7168 53.7173 22.6719 54.1597 23.8789 54.1597C25.1035 54.1597 26.0586 53.7231 26.7441 52.8501C27.4297 51.9712 27.7725 50.7495 27.7725 49.1851V47.8315Z" fill="black"/>
<path d="M32.6556 49.7124V54.9243H31.5745V42.1274H35.9339C37.264 42.1274 38.3128 42.4673 39.0804 43.147C39.8538 43.8267 40.2405 44.7612 40.2405 45.9507C40.2405 47.1519 39.8685 48.0806 39.1243 48.7368C38.386 49.3872 37.3138 49.7124 35.9075 49.7124H32.6556ZM32.6556 48.7983H35.9339C36.9827 48.7983 37.7825 48.5493 38.3333 48.0513C38.8841 47.5532 39.1595 46.8589 39.1595 45.9683C39.1595 45.0835 38.8841 44.3804 38.3333 43.8589C37.7884 43.3315 37.012 43.062 36.0042 43.0503H32.6556V48.7983Z" fill="black"/>
<path d="M52.0828 49.2202C52.0828 50.439 51.866 51.5024 51.4324 52.4106C51.0047 53.313 50.3924 53.9956 49.5955 54.4585L51.9246 56.4888L51.1775 57.1567L48.5672 54.8979C48.0867 55.0327 47.5974 55.1001 47.0994 55.1001C46.1267 55.1001 45.2596 54.8599 44.4978 54.3794C43.742 53.8989 43.156 53.2192 42.74 52.3403C42.324 51.4556 42.1131 50.436 42.1072 49.2817V47.8491C42.1072 46.6831 42.3123 45.6519 42.7224 44.7554C43.1385 43.853 43.7244 43.1616 44.4803 42.6812C45.2361 42.1948 46.1033 41.9517 47.0818 41.9517C48.0779 41.9517 48.9539 42.1919 49.7098 42.6724C50.4656 43.1528 51.0486 43.8413 51.4588 44.7378C51.8748 45.6343 52.0828 46.6685 52.0828 47.8403V49.2202ZM51.0017 47.8315C51.0017 46.2905 50.6531 45.0835 49.9558 44.2104C49.2586 43.3374 48.3006 42.9009 47.0818 42.9009C45.8982 42.9009 44.9519 43.3403 44.243 44.2192C43.5398 45.0923 43.1883 46.314 43.1883 47.8843V49.2202C43.1883 50.7378 43.5369 51.9419 44.2342 52.8325C44.9373 53.7173 45.8924 54.1597 47.0994 54.1597C48.3181 54.1597 49.2732 53.7231 49.9646 52.8501C50.656 51.9771 51.0017 50.7583 51.0017 49.1938V47.8315Z" fill="black"/>
<path d="M59.6202 49.5981H55.9024V54.9243H54.8126V42.1274H58.9698C60.3351 42.1274 61.4015 42.4585 62.169 43.1206C62.9366 43.7827 63.3204 44.7085 63.3204 45.8979C63.3204 46.7183 63.0802 47.4419 62.5997 48.0688C62.1192 48.6958 61.4747 49.1294 60.6661 49.3696L63.8653 54.8101V54.9243H62.714L59.6202 49.5981ZM55.9024 48.6753H59.2159C60.1241 48.6753 60.8536 48.4175 61.4044 47.9019C61.9552 47.3862 62.2306 46.7183 62.2306 45.8979C62.2306 44.9956 61.9435 44.2954 61.3692 43.7974C60.795 43.2993 59.9894 43.0503 58.9522 43.0503H55.9024V48.6753Z" fill="black"/>
<path d="M73.5033 51.7778C73.5033 51.0688 73.2543 50.5093 72.7563 50.0991C72.2582 49.6831 71.3471 49.2905 70.0229 48.9214C68.6986 48.5464 67.7318 48.1392 67.1225 47.6997C66.2553 47.0786 65.8217 46.2642 65.8217 45.2563C65.8217 44.2778 66.2231 43.4839 67.0258 42.8745C67.8344 42.2593 68.8656 41.9517 70.1195 41.9517C70.9691 41.9517 71.7279 42.1157 72.3959 42.4438C73.0697 42.772 73.5912 43.229 73.9604 43.8149C74.3295 44.4009 74.5141 45.0542 74.5141 45.7749H73.4242C73.4242 44.9019 73.1254 44.2017 72.5277 43.6743C71.9301 43.1411 71.1273 42.8745 70.1195 42.8745C69.141 42.8745 68.3617 43.0942 67.7817 43.5337C67.2016 43.9673 66.9115 44.5356 66.9115 45.2388C66.9115 45.8892 67.1723 46.4194 67.6938 46.8296C68.2152 47.2397 69.0502 47.603 70.1986 47.9194C71.3471 48.23 72.2172 48.5552 72.809 48.895C73.4008 49.229 73.8461 49.6304 74.1449 50.0991C74.4438 50.5679 74.5932 51.1216 74.5932 51.7603C74.5932 52.7681 74.1889 53.5767 73.3803 54.186C72.5775 54.7954 71.517 55.1001 70.1986 55.1001C69.2963 55.1001 68.4672 54.939 67.7113 54.6167C66.9613 54.2944 66.39 53.8433 65.9975 53.2632C65.6108 52.6831 65.4174 52.0181 65.4174 51.2681H66.4984C66.4984 52.1704 66.8354 52.8823 67.5092 53.4038C68.183 53.9253 69.0795 54.186 70.1986 54.186C71.1947 54.186 71.9945 53.9663 72.5981 53.5269C73.2016 53.0874 73.5033 52.5044 73.5033 51.7778Z" fill="black"/>
<path d="M85.6201 43.0503H81.2343V54.9243H80.1533V43.0503H75.7763V42.1274H85.6201V43.0503Z" fill="black"/>
<path d="M96.5133 42.1274V50.8638C96.5074 51.7251 96.317 52.4751 95.942 53.1138C95.567 53.7524 95.0367 54.2446 94.3512 54.5903C93.6715 54.9302 92.8893 55.1001 92.0045 55.1001C90.6569 55.1001 89.5758 54.7339 88.7614 54.0015C87.9528 53.2632 87.5338 52.2437 87.5045 50.9429V42.1274H88.5768V50.7847C88.5768 51.8628 88.8844 52.7007 89.4996 53.2983C90.1149 53.8901 90.9498 54.186 92.0045 54.186C93.0592 54.186 93.8912 53.8872 94.5006 53.2896C95.1158 52.6919 95.4235 51.8599 95.4235 50.7935V42.1274H96.5133Z" fill="black"/>
<path d="M103.39 53.3423L103.46 53.6147L103.539 53.3423L107.565 42.1274H108.751L103.988 54.9243H102.951L98.1868 42.1274H99.3646L103.39 53.3423Z" fill="black"/>
<path d="M113 51.4702L113.395 53.4565L113.879 51.5581L116.656 42.1274H117.632L120.374 51.5581L120.848 53.4741L121.27 51.4702L123.582 42.1274H124.689L121.411 54.9243H120.374L117.473 44.9136L117.148 43.6479L116.832 44.9136L113.861 54.9243H112.824L109.554 42.1274H110.662L113 51.4702Z" fill="black"/>
<path d="M130.675 47.5415L134.278 42.1274H135.57L131.334 48.438L135.702 54.9243H134.401L130.675 49.3345L126.931 54.9243H125.647L130.024 48.438L125.779 42.1274H127.071L130.675 47.5415Z" fill="black"/>
<path d="M141.552 49.106L145.463 42.1274H146.711L142.088 50.1079V54.9243H141.007V50.1079L136.393 42.1274H137.676L141.552 49.106Z" fill="black"/>
<path d="M149.051 54.0103H156.952V54.9243H147.741V54.1069L155.335 43.0503H147.97V42.1274H156.671V42.9009L149.051 54.0103Z" fill="black"/>
</g>
<g id="abcdefghijklm">
<path d="M12.374 75.9243C12.2686 75.6255 12.2012 75.1831 12.1719 74.5972C11.8027 75.0776 11.3311 75.4497 10.7568 75.7134C10.1885 75.9712 9.58496 76.1001 8.94629 76.1001C8.03223 76.1001 7.29102 75.8452 6.72266 75.3354C6.16016 74.8257 5.87891 74.1812 5.87891 73.4019C5.87891 72.4761 6.2627 71.7437 7.03027 71.2046C7.80371 70.6655 8.87891 70.396 10.2559 70.396H12.1631V69.3149C12.1631 68.6353 11.9521 68.1021 11.5303 67.7153C11.1143 67.3228 10.5049 67.1265 9.70215 67.1265C8.96973 67.1265 8.36328 67.314 7.88281 67.689C7.40234 68.064 7.16211 68.5151 7.16211 69.0425L6.10742 69.0337C6.10742 68.2778 6.45898 67.6245 7.16211 67.0737C7.86523 66.5171 8.72949 66.2388 9.75488 66.2388C10.8154 66.2388 11.6504 66.5054 12.2598 67.0386C12.875 67.5659 13.1914 68.3042 13.209 69.2534V73.7534C13.209 74.6733 13.3057 75.3618 13.499 75.8188V75.9243H12.374ZM9.06934 75.1685C9.77246 75.1685 10.3994 74.9985 10.9502 74.6587C11.5068 74.3188 11.9111 73.8647 12.1631 73.2964V71.2046H10.2822C9.2334 71.2163 8.41309 71.4097 7.82129 71.7847C7.22949 72.1538 6.93359 72.6636 6.93359 73.314C6.93359 73.8472 7.12988 74.2896 7.52246 74.6411C7.9209 74.9927 8.43652 75.1685 9.06934 75.1685Z" fill="black"/>
<path d="M23.6696 71.2661C23.6696 72.7485 23.3414 73.9263 22.6852 74.7993C22.0289 75.6665 21.1471 76.1001 20.0397 76.1001C18.7155 76.1001 17.7135 75.6079 17.0338 74.6235L16.9899 75.9243H16.0055V62.4243H17.0514V67.7944C17.7194 66.7573 18.7096 66.2388 20.0221 66.2388C21.1471 66.2388 22.0348 66.6694 22.6852 67.5308C23.3414 68.3862 23.6696 69.5786 23.6696 71.1079V71.2661ZM22.6149 71.0815C22.6149 69.8276 22.3717 68.8608 21.8854 68.1812C21.399 67.4956 20.7135 67.1528 19.8287 67.1528C19.1549 67.1528 18.5836 67.3198 18.1149 67.6538C17.6461 67.9819 17.2916 68.4653 17.0514 69.104V73.3931C17.5787 74.5884 18.5104 75.186 19.8463 75.186C20.7135 75.186 21.3903 74.8433 21.8766 74.1577C22.3688 73.4722 22.6149 72.4468 22.6149 71.0815Z" fill="black"/>
<path d="M29.5179 75.2124C30.2503 75.2124 30.8626 75.0073 31.3548 74.5972C31.8528 74.1812 32.1224 73.645 32.1634 72.9888H33.1741C33.1448 73.5688 32.9632 74.0991 32.6292 74.5796C32.2952 75.0542 31.8499 75.4263 31.2933 75.6958C30.7425 75.9653 30.1507 76.1001 29.5179 76.1001C28.2698 76.1001 27.2796 75.6665 26.5472 74.7993C25.8206 73.9321 25.4573 72.7661 25.4573 71.3013V70.9849C25.4573 70.0474 25.6214 69.2183 25.9495 68.4976C26.2777 67.7769 26.7464 67.2202 27.3558 66.8276C27.971 66.4351 28.6888 66.2388 29.5091 66.2388C30.5521 66.2388 31.4105 66.5493 32.0843 67.1704C32.764 67.7915 33.1273 68.6089 33.1741 69.6226H32.1634C32.1165 68.8784 31.847 68.2778 31.3548 67.8208C30.8685 67.3638 30.2532 67.1353 29.5091 67.1353C28.5599 67.1353 27.8216 67.478 27.2943 68.1636C26.7728 68.8491 26.512 69.8101 26.512 71.0464V71.354C26.512 72.5669 26.7728 73.5132 27.2943 74.1929C27.8216 74.8726 28.5628 75.2124 29.5179 75.2124Z" fill="black"/>
<path d="M34.8634 71.0815C34.8634 69.605 35.1916 68.4302 35.8478 67.5571C36.5099 66.6782 37.4064 66.2388 38.5373 66.2388C39.8205 66.2388 40.799 66.7456 41.4728 67.7593V62.4243H42.5187V75.9243H41.5343L41.4904 74.6587C40.8166 75.6196 39.8263 76.1001 38.5197 76.1001C37.424 76.1001 36.5392 75.6606 35.8654 74.7817C35.1974 73.897 34.8634 72.7046 34.8634 71.2046V71.0815ZM35.9269 71.2661C35.9269 72.479 36.1701 73.437 36.6564 74.1401C37.1427 74.8374 37.8283 75.186 38.713 75.186C40.008 75.186 40.9279 74.6147 41.4728 73.4722V69.0073C40.9279 67.771 40.0138 67.1528 38.7306 67.1528C37.8459 67.1528 37.1574 67.5015 36.6652 68.1987C36.173 68.8901 35.9269 69.9126 35.9269 71.2661Z" fill="black"/>
<path d="M48.9645 76.1001C48.1559 76.1001 47.4235 75.9009 46.7672 75.5024C46.1168 75.104 45.61 74.5503 45.2467 73.8413C44.8834 73.1265 44.7018 72.3267 44.7018 71.4419V71.064C44.7018 70.1499 44.8776 69.3267 45.2291 68.5942C45.5866 67.8618 46.0817 67.2876 46.7145 66.8716C47.3473 66.4497 48.0328 66.2388 48.7711 66.2388C49.9254 66.2388 50.8395 66.6343 51.5133 67.4253C52.193 68.2104 52.5328 69.2856 52.5328 70.6509V71.2397H45.7477V71.4419C45.7477 72.52 46.0553 73.4194 46.6705 74.1401C47.2916 74.855 48.0709 75.2124 49.0084 75.2124C49.5709 75.2124 50.066 75.1099 50.4938 74.9048C50.9274 74.6997 51.32 74.3716 51.6715 73.9204L52.3307 74.4214C51.5573 75.5405 50.4352 76.1001 48.9645 76.1001ZM48.7711 67.1353C47.9801 67.1353 47.3121 67.4253 46.7672 68.0054C46.2282 68.5854 45.9 69.3647 45.7828 70.3433H51.4869V70.229C51.4576 69.3149 51.1969 68.5708 50.7047 67.9966C50.2125 67.4224 49.568 67.1353 48.7711 67.1353Z" fill="black"/>
<path d="M55.3293 75.9243V67.2759H53.7561V66.4146H55.3293V65.2632C55.3293 64.2905 55.5754 63.5435 56.0676 63.022C56.5657 62.5005 57.2571 62.2397 58.1418 62.2397C58.5403 62.2397 58.9124 62.2896 59.2581 62.3892L59.179 63.2681C58.886 63.1978 58.5667 63.1626 58.221 63.1626C57.6409 63.1626 57.1897 63.3442 56.8674 63.7075C56.5452 64.0649 56.384 64.5747 56.384 65.2368V66.4146H58.6516V67.2759H56.384V75.9243H55.3293Z" fill="black"/>
<path d="M59.9 71.0815C59.9 69.5933 60.2281 68.4155 60.8844 67.5483C61.5465 66.6753 62.443 66.2388 63.5738 66.2388C64.8688 66.2388 65.8531 66.7544 66.527 67.7856L66.5797 66.4146H67.5641V75.731C67.5641 76.9556 67.2213 77.9253 66.5357 78.6401C65.8502 79.355 64.9215 79.7124 63.7496 79.7124C63.0875 79.7124 62.4547 79.563 61.8512 79.2642C61.2535 78.9712 60.7818 78.5786 60.4361 78.0864L61.025 77.4536C61.7691 78.3677 62.6539 78.8247 63.6793 78.8247C64.5582 78.8247 65.2438 78.564 65.7359 78.0425C66.2281 77.5269 66.483 76.8091 66.5006 75.8892V74.6938C65.8268 75.6313 64.8453 76.1001 63.5563 76.1001C62.4547 76.1001 61.5699 75.6606 60.902 74.7817C60.234 73.9028 59.9 72.7163 59.9 71.2222V71.0815ZM60.9635 71.2661C60.9635 72.479 61.2066 73.437 61.693 74.1401C62.1793 74.8374 62.8648 75.186 63.7496 75.186C65.0445 75.186 65.9615 74.606 66.5006 73.4458V69.0249C66.2545 68.4155 65.9 67.9526 65.4371 67.6362C64.9742 67.314 64.4176 67.1528 63.7672 67.1528C62.8824 67.1528 62.1939 67.5015 61.7018 68.1987C61.2096 68.8901 60.9635 69.9126 60.9635 71.2661Z" fill="black"/>
<path d="M71.3467 68.0229C71.6925 67.4546 72.1348 67.0151 72.6739 66.7046C73.213 66.394 73.8018 66.2388 74.4405 66.2388C75.46 66.2388 76.2188 66.5259 76.7169 67.1001C77.2149 67.6743 77.4669 68.5356 77.4727 69.6841V75.9243H76.4268V69.6753C76.421 68.8257 76.2393 68.1929 75.8819 67.7769C75.5303 67.3608 74.9649 67.1528 74.1856 67.1528C73.5352 67.1528 72.9581 67.3579 72.4542 67.7681C71.9561 68.1724 71.587 68.7202 71.3467 69.4116V75.9243H70.3008V62.4243H71.3467V68.0229Z" fill="black"/>
<path d="M81.3539 75.9243H80.2992V66.4146H81.3539V75.9243ZM80.1146 63.6636C80.1146 63.4644 80.1791 63.2974 80.308 63.1626C80.4369 63.022 80.6127 62.9517 80.8353 62.9517C81.058 62.9517 81.2338 63.022 81.3627 63.1626C81.4974 63.2974 81.5648 63.4644 81.5648 63.6636C81.5648 63.8628 81.4974 64.0298 81.3627 64.1646C81.2338 64.2993 81.058 64.3667 80.8353 64.3667C80.6127 64.3667 80.4369 64.2993 80.308 64.1646C80.1791 64.0298 80.1146 63.8628 80.1146 63.6636Z" fill="black"/>
<path d="M85.3547 66.4146V77.0581C85.3547 77.937 85.1438 78.6079 84.7219 79.0708C84.3 79.5337 83.6789 79.7651 82.8586 79.7651C82.5422 79.7651 82.2346 79.7095 81.9358 79.5981L81.9533 78.728C82.2112 78.8042 82.4748 78.8423 82.7444 78.8423C83.7873 78.8423 84.3088 78.2417 84.3088 77.0405V66.4146H85.3547ZM84.8362 62.9517C85.0647 62.9517 85.2434 63.022 85.3723 63.1626C85.5012 63.2974 85.5657 63.4644 85.5657 63.6636C85.5657 63.8628 85.5012 64.0298 85.3723 64.1646C85.2434 64.2993 85.0647 64.3667 84.8362 64.3667C84.6135 64.3667 84.4377 64.2993 84.3088 64.1646C84.1858 64.0298 84.1242 63.8628 84.1242 63.6636C84.1242 63.4644 84.1858 63.2974 84.3088 63.1626C84.4377 63.022 84.6135 62.9517 84.8362 62.9517Z" fill="black"/>
<path d="M90.5858 71.1343L89.3817 72.2944V75.9243H88.327V62.4243H89.3817V71.064L90.3749 69.9917L94.0135 66.4146H95.3407L91.3065 70.4224L95.6922 75.9243H94.4354L90.5858 71.1343Z" fill="black"/>
<path d="M98.3236 75.9243H97.2689V62.4243H98.3236V75.9243Z" fill="black"/>
<path d="M102.149 66.4146L102.184 67.9614C102.535 67.3872 102.975 66.9565 103.502 66.6694C104.029 66.3823 104.615 66.2388 105.26 66.2388C106.76 66.2388 107.712 66.854 108.116 68.0845C108.456 67.4927 108.91 67.0386 109.479 66.7222C110.047 66.3999 110.674 66.2388 111.36 66.2388C113.399 66.2388 114.439 67.3521 114.48 69.5786V75.9243H113.425V69.6577C113.419 68.8081 113.235 68.1782 112.871 67.7681C112.514 67.3579 111.928 67.1528 111.113 67.1528C110.358 67.1646 109.719 67.4106 109.197 67.8911C108.676 68.3657 108.386 68.9458 108.327 69.6313V75.9243H107.273V69.5786C107.267 68.7642 107.073 68.1577 106.693 67.7593C106.318 67.355 105.737 67.1528 104.952 67.1528C104.29 67.1528 103.722 67.3433 103.247 67.7241C102.773 68.0991 102.421 68.6587 102.193 69.4028V75.9243H101.138V66.4146H102.149Z" fill="black"/>
</g>
<g id="nopqrstuvwxyz">
<path d="M7.37305 87.4146L7.4082 89.0405C7.76562 88.4546 8.21094 88.0093 8.74414 87.7046C9.27734 87.394 9.86621 87.2388 10.5107 87.2388C11.5303 87.2388 12.2891 87.5259 12.7871 88.1001C13.2852 88.6743 13.5371 89.5356 13.543 90.6841V96.9243H12.4971V90.6753C12.4912 89.8257 12.3096 89.1929 11.9521 88.7769C11.6006 88.3608 11.0352 88.1528 10.2559 88.1528C9.60547 88.1528 9.02832 88.3579 8.52441 88.7681C8.02637 89.1724 7.65723 89.7202 7.41699 90.4116V96.9243H6.37109V87.4146H7.37305Z" fill="black"/>
<path d="M15.6929 92.0288C15.6929 91.1147 15.8687 90.2915 16.2202 89.5591C16.5777 88.8267 17.0786 88.2583 17.7232 87.854C18.3736 87.4438 19.1089 87.2388 19.9292 87.2388C21.1949 87.2388 22.2202 87.6841 23.0054 88.5747C23.7906 89.4595 24.1831 90.6343 24.1831 92.0991V92.3188C24.1831 93.2388 24.0044 94.0679 23.647 94.8062C23.2954 95.5386 22.7974 96.104 22.1529 96.5024C21.5083 96.9009 20.773 97.1001 19.9468 97.1001C18.687 97.1001 17.6616 96.6577 16.8706 95.7729C16.0855 94.8823 15.6929 93.7046 15.6929 92.2397V92.0288ZM16.7476 92.3188C16.7476 93.4556 17.0406 94.3901 17.6265 95.1226C18.2183 95.8491 18.9917 96.2124 19.9468 96.2124C20.896 96.2124 21.6636 95.8491 22.2495 95.1226C22.8413 94.3901 23.1372 93.4263 23.1372 92.231V92.0288C23.1372 91.3022 23.0025 90.6372 22.7329 90.0337C22.4634 89.4302 22.0855 88.9644 21.5991 88.6362C21.1128 88.3022 20.5562 88.1353 19.9292 88.1353C18.9917 88.1353 18.2271 88.5044 17.6353 89.2427C17.0435 89.9751 16.7476 90.936 16.7476 92.1255V92.3188Z" fill="black"/>
<path d="M34.0111 92.2661C34.0111 93.7485 33.683 94.9263 33.0267 95.7993C32.3705 96.6665 31.4916 97.1001 30.39 97.1001C29.0892 97.1001 28.0931 96.6431 27.4017 95.729V100.581H26.3558V87.4146H27.3314L27.3842 88.7593C28.0697 87.7456 29.0629 87.2388 30.3636 87.2388C31.5004 87.2388 32.391 87.6694 33.0355 88.5308C33.6859 89.3921 34.0111 90.5874 34.0111 92.1167V92.2661ZM32.9564 92.0815C32.9564 90.8687 32.7074 89.9106 32.2093 89.2075C31.7113 88.5044 31.017 88.1528 30.1263 88.1528C29.4818 88.1528 28.9281 88.3081 28.4652 88.6187C28.0023 88.9292 27.6478 89.3804 27.4017 89.9722V94.5337C27.6537 95.0786 28.014 95.4946 28.4828 95.7817C28.9515 96.0688 29.5052 96.2124 30.1439 96.2124C31.0287 96.2124 31.7172 95.8608 32.2093 95.1577C32.7074 94.4487 32.9564 93.4233 32.9564 92.0815Z" fill="black"/>
<path d="M35.9307 92.0815C35.9307 90.5933 36.2588 89.4155 36.9151 88.5483C37.5772 87.6753 38.4795 87.2388 39.6221 87.2388C40.9053 87.2388 41.8809 87.728 42.5489 88.7065L42.6016 87.4146H43.586V100.581H42.5313V95.7466C41.8399 96.6489 40.8643 97.1001 39.6045 97.1001C38.4913 97.1001 37.6006 96.6606 36.9327 95.7817C36.2647 94.9028 35.9307 93.7163 35.9307 92.2222V92.0815ZM36.9942 92.2661C36.9942 93.4966 37.2403 94.4634 37.7325 95.1665C38.2305 95.8638 38.919 96.2124 39.7979 96.2124C41.0577 96.2124 41.9688 95.6646 42.5313 94.5688V89.9106C42.2676 89.3423 41.9014 88.9058 41.4327 88.6011C40.9698 88.2905 40.4307 88.1353 39.8155 88.1353C38.9307 88.1353 38.2393 88.4868 37.7413 89.1899C37.2432 89.8872 36.9942 90.9126 36.9942 92.2661Z" fill="black"/>
<path d="M50.777 88.311C50.5544 88.27 50.3171 88.2495 50.0651 88.2495C49.4089 88.2495 48.8522 88.4341 48.3952 88.8032C47.944 89.1665 47.6218 89.6968 47.4284 90.394V96.9243H46.3825V87.4146H47.4108L47.4284 88.9263C47.985 87.8013 48.8786 87.2388 50.1091 87.2388C50.402 87.2388 50.6335 87.2769 50.8034 87.353L50.777 88.311Z" fill="black"/>
<path d="M58.1495 94.5073C58.1495 93.9858 57.9385 93.5669 57.5167 93.2505C57.1006 92.9341 56.4708 92.688 55.627 92.5122C54.7833 92.3306 54.127 92.1255 53.6583 91.897C53.1954 91.6626 52.8497 91.3784 52.6212 91.0444C52.3985 90.7104 52.2872 90.3062 52.2872 89.8315C52.2872 89.0815 52.6006 88.4634 53.2276 87.9771C53.8545 87.4849 54.6573 87.2388 55.6358 87.2388C56.6963 87.2388 57.546 87.5024 58.1846 88.0298C58.8292 88.5513 59.1514 89.2339 59.1514 90.0776H58.0967C58.0967 89.521 57.8624 89.0581 57.3936 88.689C56.9307 88.3198 56.3448 88.1353 55.6358 88.1353C54.9444 88.1353 54.3878 88.2905 53.9659 88.6011C53.5499 88.9058 53.3419 89.3042 53.3419 89.7964C53.3419 90.271 53.5147 90.6401 53.8604 90.9038C54.212 91.1616 54.8477 91.3989 55.7676 91.6157C56.6934 91.8325 57.3848 92.064 57.8419 92.3101C58.3047 92.5562 58.6475 92.8521 58.8702 93.1978C59.0928 93.5435 59.2042 93.9624 59.2042 94.4546C59.2042 95.2573 58.879 95.8989 58.2286 96.3794C57.584 96.8599 56.7403 97.1001 55.6973 97.1001C54.5899 97.1001 53.6905 96.8335 52.9991 96.3003C52.3135 95.7612 51.9708 95.0815 51.9708 94.2612H53.0254C53.0665 94.8765 53.3243 95.3569 53.7989 95.7026C54.2794 96.0425 54.9122 96.2124 55.6973 96.2124C56.4297 96.2124 57.0215 96.0513 57.4727 95.729C57.9239 95.4067 58.1495 94.9995 58.1495 94.5073Z" fill="black"/>
<path d="M63.2174 84.98V87.4146H65.1861V88.2759H63.2174V94.6128C63.2174 95.1401 63.3111 95.5327 63.4986 95.7905C63.692 96.0483 64.0113 96.1772 64.4566 96.1772C64.6324 96.1772 64.9166 96.1479 65.3092 96.0894L65.3531 96.9507C65.0777 97.0503 64.7027 97.1001 64.2281 97.1001C63.5074 97.1001 62.983 96.8921 62.6549 96.4761C62.3267 96.0542 62.1627 95.436 62.1627 94.6216V88.2759H60.4137V87.4146H62.1627V84.98H63.2174Z" fill="black"/>
<path d="M73.4884 95.7202C72.8556 96.6401 71.8448 97.1001 70.4562 97.1001C69.4425 97.1001 68.672 96.8071 68.1446 96.2212C67.6173 95.6294 67.3478 94.7563 67.3361 93.6021V87.4146H68.382V93.4702C68.382 95.2808 69.1144 96.186 70.5792 96.186C72.1027 96.186 73.0665 95.5562 73.4708 94.2964V87.4146H74.5255V96.9243H73.506L73.4884 95.7202Z" fill="black"/>
<path d="M80.235 95.4741L83.1266 87.4146H84.2077L80.6569 96.9243H79.8043L76.236 87.4146H77.317L80.235 95.4741Z" fill="black"/>
<path d="M88.2209 94.7358L88.3791 95.5532L88.59 94.6919L90.8752 87.4146H91.7717L94.0304 94.6304L94.2765 95.6323L94.4787 94.7095L96.4299 87.4146H97.5197L94.7512 96.9243H93.8547L91.4113 89.3833L91.2971 88.8647L91.1828 89.3921L88.7834 96.9243H87.8869L85.1271 87.4146H86.2082L88.2209 94.7358Z" fill="black"/>
<path d="M102.501 91.2729L105.068 87.4146H106.316L103.09 92.0815L106.456 96.9243H105.217L102.51 92.8989L99.8031 96.9243H98.5638L101.921 92.0815L98.6956 87.4146H99.9349L102.501 91.2729Z" fill="black"/>
<path d="M111.287 95.4126L114.064 87.4146H115.198L111.138 98.5415L110.927 99.0337C110.405 100.188 109.599 100.765 108.51 100.765C108.258 100.765 107.988 100.724 107.701 100.642L107.692 99.772L108.237 99.8247C108.753 99.8247 109.169 99.6958 109.485 99.438C109.807 99.186 110.08 98.7495 110.303 98.1284L110.768 96.8452L107.182 87.4146H108.334L111.287 95.4126Z" fill="black"/>
<path d="M117.529 96.0366H123.708V96.9243H116.228V96.1509L121.994 88.3198H116.404V87.4146H123.321V88.1968L117.529 96.0366Z" fill="black"/>
</g>
<g id="1234567890">
<path d="M11.0996 117.924H10.0449V106.393L6.56445 107.685V106.701L10.9238 105.083H11.0996V117.924Z" fill="black"/>
<path d="M24.2043 117.924H16.1887V117.116L20.5744 112.141C21.301 111.303 21.8049 110.612 22.0861 110.067C22.3674 109.522 22.508 108.992 22.508 108.476C22.508 107.667 22.2707 107.029 21.7961 106.56C21.3215 106.085 20.6682 105.848 19.8361 105.848C18.9748 105.848 18.2775 106.124 17.7443 106.674C17.217 107.225 16.9533 107.94 16.9533 108.819H15.9074C15.9074 108.098 16.0686 107.442 16.3908 106.85C16.719 106.258 17.1818 105.795 17.7795 105.461C18.383 105.122 19.0686 104.952 19.8361 104.952C21.008 104.952 21.9221 105.259 22.5783 105.875C23.2404 106.49 23.5715 107.328 23.5715 108.388C23.5715 108.986 23.384 109.639 23.009 110.348C22.6398 111.057 21.9865 111.942 21.049 113.002L17.4807 117.037H24.2043V117.924Z" fill="black"/>
<path d="M28.5111 110.955H29.601C30.2045 110.955 30.7318 110.849 31.183 110.638C31.6342 110.421 31.977 110.128 32.2113 109.759C32.4516 109.384 32.5717 108.954 32.5717 108.467C32.5717 107.647 32.3402 107.005 31.8774 106.542C31.4145 106.08 30.7494 105.848 29.8822 105.848C29.0619 105.848 28.3881 106.091 27.8608 106.578C27.3393 107.058 27.0785 107.694 27.0785 108.485H26.0238C26.0238 107.823 26.1908 107.219 26.5248 106.674C26.8588 106.124 27.3217 105.699 27.9135 105.4C28.5053 105.101 29.1615 104.952 29.8822 104.952C31.0424 104.952 31.9565 105.268 32.6244 105.901C33.2924 106.534 33.6264 107.401 33.6264 108.502C33.6264 109.118 33.4301 109.686 33.0375 110.208C32.6508 110.723 32.1176 111.11 31.4379 111.368C32.2348 111.59 32.8383 111.974 33.2484 112.519C33.6586 113.058 33.8637 113.703 33.8637 114.453C33.8637 115.548 33.5063 116.43 32.7914 117.098C32.0766 117.766 31.1215 118.1 29.9262 118.1C29.1645 118.1 28.4643 117.948 27.8256 117.643C27.1928 117.338 26.7006 116.914 26.349 116.369C26.0033 115.818 25.8305 115.179 25.8305 114.453H26.8852C26.8852 115.267 27.1693 115.932 27.7377 116.448C28.3061 116.958 29.0356 117.212 29.9262 117.212C30.8344 117.212 31.5404 116.981 32.0443 116.518C32.5541 116.049 32.809 115.373 32.809 114.488C32.809 113.632 32.5336 112.979 31.9828 112.528C31.4379 112.077 30.6322 111.851 29.5658 111.851H28.5111V110.955Z" fill="black"/>
<path d="M42.6178 113.802H44.6129V114.69H42.6178V117.924H41.5631V114.69H35.5426V114.092L41.4664 105.127H42.6178V113.802ZM36.8346 113.802H41.5631V106.49L41.0973 107.298L36.8346 113.802Z" fill="black"/>
<path d="M46.8543 111.368L47.4783 105.127H53.8768V106.103H48.3836L47.9354 110.427C48.6209 109.958 49.4237 109.724 50.3436 109.724C51.4979 109.724 52.4178 110.099 53.1033 110.849C53.7889 111.599 54.1317 112.598 54.1317 113.846C54.1317 115.194 53.7977 116.24 53.1297 116.984C52.4617 117.728 51.5213 118.1 50.3084 118.1C49.1951 118.1 48.2928 117.79 47.6014 117.168C46.91 116.547 46.5145 115.677 46.4149 114.558H47.4256C47.5252 115.431 47.8211 116.093 48.3133 116.544C48.8055 116.99 49.4705 117.212 50.3084 117.212C51.2225 117.212 51.911 116.922 52.3738 116.342C52.8426 115.762 53.077 114.936 53.077 113.864C53.077 112.926 52.8162 112.162 52.2947 111.57C51.7733 110.978 51.0613 110.682 50.159 110.682C49.661 110.682 49.2274 110.747 48.8582 110.875C48.4891 110.999 48.0994 111.242 47.6893 111.605L46.8543 111.368Z" fill="black"/>
<path d="M62.3321 105.031V105.954H62.209C60.6797 105.954 59.4756 106.405 58.5967 107.307C57.7178 108.204 57.2315 109.452 57.1377 111.051C57.4893 110.565 57.9375 110.19 58.4824 109.926C59.0274 109.657 59.6367 109.522 60.3106 109.522C61.4356 109.522 62.3291 109.912 62.9912 110.691C63.6592 111.464 63.9932 112.478 63.9932 113.732C63.9932 114.564 63.8379 115.314 63.5274 115.982C63.2168 116.65 62.7715 117.171 62.1914 117.546C61.6114 117.916 60.9492 118.1 60.2051 118.1C58.9805 118.1 57.9844 117.658 57.2168 116.773C56.4492 115.882 56.0655 114.734 56.0655 113.328V112.273C56.0655 109.982 56.5869 108.209 57.6299 106.956C58.6729 105.696 60.1524 105.054 62.0684 105.031H62.3321ZM60.1436 110.427C59.4756 110.427 58.8516 110.626 58.2715 111.025C57.6973 111.417 57.3135 111.918 57.1201 112.528V113.424C57.1201 114.538 57.4043 115.446 57.9727 116.149C58.5469 116.852 59.291 117.204 60.2051 117.204C61.0254 117.204 61.6875 116.878 62.1914 116.228C62.7012 115.578 62.9561 114.757 62.9561 113.767C62.9561 112.759 62.7012 111.951 62.1914 111.341C61.6875 110.732 61.0049 110.427 60.1436 110.427Z" fill="black"/>
<path d="M73.9953 105.734L68.5285 117.924H67.4299L72.8616 106.024H65.5842V105.127H73.9953V105.734Z" fill="black"/>
<path d="M83.6371 108.423C83.6371 109.085 83.4438 109.68 83.0571 110.208C82.6703 110.729 82.1606 111.113 81.5278 111.359C82.2661 111.611 82.8578 112.018 83.3032 112.581C83.7485 113.143 83.9711 113.793 83.9711 114.532C83.9711 115.627 83.5991 116.498 82.8549 117.142C82.1108 117.781 81.1264 118.1 79.9018 118.1C78.6655 118.1 77.6752 117.781 76.9311 117.142C76.1928 116.503 75.8237 115.633 75.8237 114.532C75.8237 113.805 76.0375 113.158 76.4653 112.589C76.893 112.021 77.4789 111.611 78.2231 111.359C77.5903 111.113 77.0864 110.729 76.7114 110.208C76.3364 109.68 76.1489 109.085 76.1489 108.423C76.1489 107.363 76.4887 106.519 77.1684 105.892C77.8539 105.265 78.7592 104.952 79.8842 104.952C81.0092 104.952 81.9145 105.268 82.6 105.901C83.2914 106.534 83.6371 107.375 83.6371 108.423ZM82.9164 114.541C82.9164 113.744 82.6323 113.09 82.0639 112.581C81.4955 112.065 80.769 111.807 79.8842 111.807C78.9995 111.807 78.2758 112.059 77.7133 112.563C77.1508 113.067 76.8696 113.726 76.8696 114.541C76.8696 115.355 77.142 116.005 77.687 116.492C78.2319 116.972 78.9702 117.212 79.9018 117.212C80.81 117.212 81.5395 116.972 82.0903 116.492C82.6411 116.011 82.9164 115.361 82.9164 114.541ZM82.5825 108.415C82.5825 107.682 82.3276 107.073 81.8178 106.586C81.3139 106.094 80.6694 105.848 79.8842 105.848C79.0873 105.848 78.4399 106.085 77.9418 106.56C77.4496 107.029 77.2036 107.647 77.2036 108.415C77.2036 109.165 77.4496 109.768 77.9418 110.225C78.4399 110.682 79.0903 110.911 79.893 110.911C80.684 110.911 81.3286 110.682 81.8266 110.225C82.3305 109.762 82.5825 109.159 82.5825 108.415Z" fill="black"/>
<path d="M92.6461 112C92.2711 112.551 91.8053 112.979 91.2487 113.284C90.692 113.583 90.0885 113.732 89.4381 113.732C88.7116 113.732 88.07 113.544 87.5133 113.169C86.9567 112.794 86.526 112.276 86.2213 111.614C85.9166 110.952 85.7643 110.228 85.7643 109.443C85.7643 108.599 85.9254 107.832 86.2477 107.14C86.5758 106.449 87.0299 105.913 87.61 105.532C88.1959 105.145 88.8698 104.952 89.6315 104.952C90.9147 104.952 91.9137 105.403 92.6286 106.305C93.3434 107.202 93.7008 108.476 93.7008 110.128V111.078C93.7008 113.386 93.2086 115.121 92.2243 116.281C91.2399 117.441 89.737 118.021 87.7155 118.021H87.5221L87.5309 117.107H87.9C89.4293 117.083 90.5924 116.65 91.3893 115.806C92.1862 114.962 92.6051 113.694 92.6461 112ZM89.57 112.827C90.2731 112.827 90.903 112.619 91.4596 112.203C92.0221 111.781 92.4205 111.236 92.6549 110.568V109.961C92.6549 108.661 92.3825 107.653 91.8375 106.938C91.2985 106.217 90.569 105.857 89.6491 105.857C88.817 105.857 88.1344 106.194 87.6012 106.868C87.068 107.536 86.8014 108.379 86.8014 109.399C86.8014 110.377 87.0563 111.195 87.5661 111.851C88.0817 112.501 88.7496 112.827 89.57 112.827Z" fill="black"/>
<path d="M103.782 112.589C103.782 114.394 103.451 115.765 102.789 116.703C102.127 117.634 101.151 118.1 99.8622 118.1C98.5965 118.1 97.6268 117.643 96.953 116.729C96.2791 115.809 95.9334 114.473 95.9159 112.721V110.427C95.9159 108.628 96.2498 107.266 96.9178 106.34C97.5858 105.415 98.5614 104.952 99.8446 104.952C101.11 104.952 102.077 105.4 102.745 106.296C103.413 107.187 103.759 108.502 103.782 110.243V112.589ZM102.727 110.295C102.727 108.831 102.487 107.723 102.007 106.973C101.532 106.223 100.811 105.848 99.8446 105.848C98.8954 105.848 98.1805 106.214 97.7 106.947C97.2196 107.679 96.9735 108.76 96.9618 110.19V112.704C96.9618 114.163 97.2079 115.279 97.7 116.052C98.1981 116.826 98.9188 117.212 99.8622 117.212C100.8 117.212 101.509 116.834 101.989 116.079C102.475 115.323 102.722 114.215 102.727 112.756V110.295Z" fill="black"/>
</g>
</g>
</svg>
