<svg width="161" height="122" viewBox="0 0 161 122" fill="none" xmlns="http://www.w3.org/2000/svg">
<g id="Roboto_bold">
<g id="Bold">
<path d="M1.30566 13.5117V3.39453H3.93066C4.94238 3.39453 5.71712 3.58594 6.25488 3.96875C6.7972 4.35156 7.06836 4.90299 7.06836 5.62305C7.06836 6.84896 6.37565 7.72168 4.99023 8.24121C6.64453 8.74707 7.47168 9.66081 7.47168 10.9824C7.47168 11.8027 7.19824 12.4294 6.65137 12.8623C6.10449 13.2952 5.31608 13.5117 4.28613 13.5117H1.30566ZM2.72754 12.4385H3.02148C4.07422 12.4385 4.75553 12.3724 5.06543 12.2402C5.65788 11.9896 5.9541 11.5247 5.9541 10.8457C5.9541 10.2441 5.68522 9.74512 5.14746 9.34863C4.6097 8.94759 3.9375 8.74707 3.13086 8.74707H2.72754V12.4385ZM2.72754 7.83789H3.18555C3.95117 7.83789 4.54362 7.67383 4.96289 7.3457C5.38672 7.01758 5.59863 6.55501 5.59863 5.95801C5.59863 4.96452 4.82845 4.46777 3.28809 4.46777H2.72754V7.83789Z" fill="black"/>
<path d="M12.2942 13.6826C11.2323 13.6826 10.3847 13.3317 9.75122 12.6299C9.11776 11.9235 8.80102 10.9801 8.80102 9.7998C8.80102 8.60579 9.11776 7.66243 9.75122 6.96973C10.3892 6.27246 11.2528 5.92383 12.342 5.92383C13.4312 5.92383 14.2926 6.27246 14.926 6.96973C15.564 7.66243 15.8831 8.60124 15.8831 9.78613C15.8831 10.9984 15.564 11.9508 14.926 12.6436C14.288 13.3363 13.4107 13.6826 12.2942 13.6826ZM12.3147 12.6709C13.7411 12.6709 14.4543 11.7093 14.4543 9.78613C14.4543 7.88574 13.7502 6.93555 12.342 6.93555C10.9384 6.93555 10.2366 7.8903 10.2366 9.7998C10.2366 11.7139 10.9293 12.6709 12.3147 12.6709Z" fill="black"/>
<path d="M17.978 13.5117V2.71777H19.3247V13.5117H17.978Z" fill="black"/>
<path d="M26.779 13.5117V12.1172C26.2322 13.1608 25.4073 13.6826 24.3044 13.6826C23.4112 13.6826 22.7071 13.3568 22.1921 12.7051C21.6817 12.0534 21.4265 11.1624 21.4265 10.0322C21.4265 8.7972 21.7159 7.80371 22.2947 7.05176C22.878 6.2998 23.6436 5.92383 24.5915 5.92383C25.4711 5.92383 26.2003 6.26107 26.779 6.93555V2.71777H28.1326V13.5117H26.779ZM26.779 7.8584C26.0818 7.24316 25.421 6.93555 24.7966 6.93555C23.5069 6.93555 22.8621 7.9222 22.8621 9.89551C22.8621 11.6318 23.4363 12.5 24.5847 12.5C25.3321 12.5 26.0636 12.0921 26.779 11.2764V7.8584Z" fill="black"/>
</g>
<g id="ABCDEFGHIJKLM">
<path d="M13.3672 31.2695H8.74414L7.86523 33.9062H5.06152L9.8252 21.1094H12.2686L17.0586 33.9062H14.2549L13.3672 31.2695ZM9.45605 29.1338H12.6553L11.0469 24.3438L9.45605 29.1338Z" fill="black"/>
<path d="M18.2538 33.9062V21.1094H22.7362C24.289 21.1094 25.4667 21.4082 26.2694 22.0059C27.0722 22.5977 27.4735 23.4678 27.4735 24.6162C27.4735 25.2432 27.3124 25.7969 26.9901 26.2773C26.6679 26.752 26.2196 27.1006 25.6454 27.3232C26.3017 27.4873 26.8173 27.8184 27.1923 28.3164C27.5731 28.8145 27.7636 29.4238 27.7636 30.1445C27.7636 31.375 27.371 32.3066 26.5858 32.9395C25.8007 33.5723 24.6815 33.8945 23.2284 33.9062H18.2538ZM20.8905 28.334V31.7881H23.1493C23.7704 31.7881 24.2538 31.6416 24.5995 31.3486C24.9511 31.0498 25.1269 30.6396 25.1269 30.1182C25.1269 28.9463 24.5204 28.3516 23.3075 28.334H20.8905ZM20.8905 26.4707H22.8417C24.1718 26.4473 24.8368 25.917 24.8368 24.8799C24.8368 24.2998 24.6669 23.8838 24.327 23.6318C23.9931 23.374 23.4628 23.2451 22.7362 23.2451H20.8905V26.4707Z" fill="black"/>
<path d="M39.7957 29.6436C39.6961 31.0205 39.1863 32.1045 38.2664 32.8955C37.3523 33.6865 36.1453 34.082 34.6453 34.082C33.0047 34.082 31.7127 33.5312 30.7693 32.4297C29.8318 31.3223 29.3631 29.8047 29.3631 27.877V27.0947C29.3631 25.8643 29.5799 24.7803 30.0135 23.8428C30.4471 22.9053 31.0652 22.1875 31.868 21.6895C32.6766 21.1855 33.6141 20.9336 34.6805 20.9336C36.157 20.9336 37.3465 21.3291 38.2488 22.1201C39.1512 22.9111 39.6727 24.0215 39.8133 25.4512H37.1766C37.1121 24.625 36.8807 24.0273 36.4822 23.6582C36.0896 23.2832 35.4891 23.0957 34.6805 23.0957C33.8016 23.0957 33.1424 23.4121 32.7029 24.0449C32.2693 24.6719 32.0467 25.6475 32.035 26.9717V27.9385C32.035 29.3213 32.243 30.332 32.659 30.9707C33.0809 31.6094 33.743 31.9287 34.6453 31.9287C35.4598 31.9287 36.0662 31.7441 36.4646 31.375C36.8689 31 37.1004 30.4229 37.159 29.6436H39.7957Z" fill="black"/>
<path d="M41.527 33.9062V21.1094H45.4645C46.5895 21.1094 47.5944 21.3643 48.4792 21.874C49.3698 22.3779 50.0642 23.0986 50.5622 24.0361C51.0602 24.9678 51.3093 26.0283 51.3093 27.2178V27.8066C51.3093 28.9961 51.0632 30.0537 50.571 30.9795C50.0847 31.9053 49.3962 32.623 48.5056 33.1328C47.6149 33.6426 46.6101 33.9004 45.4909 33.9062H41.527ZM44.1638 23.2451V31.7881H45.4382C46.4694 31.7881 47.2575 31.4512 47.8024 30.7773C48.3474 30.1035 48.6257 29.1396 48.6374 27.8857V27.209C48.6374 25.9082 48.3679 24.9238 47.8288 24.2559C47.2897 23.582 46.5017 23.2451 45.4645 23.2451H44.1638Z" fill="black"/>
<path d="M60.9332 28.3604H55.8707V31.7881H61.8121V33.9062H53.234V21.1094H61.7945V23.2451H55.8707V26.2949H60.9332V28.3604Z" fill="black"/>
<path d="M71.0581 28.6768H65.9956V33.9062H63.3589V21.1094H71.6909V23.2451H65.9956V26.5498H71.0581V28.6768Z" fill="black"/>
<path d="M83.3451 32.2891C82.8705 32.8574 82.1996 33.2998 81.3324 33.6162C80.4652 33.9268 79.5043 34.082 78.4496 34.082C77.3422 34.082 76.3695 33.8418 75.5316 33.3613C74.6996 32.875 74.0551 32.1719 73.598 31.252C73.1469 30.332 72.9154 29.251 72.9037 28.0088V27.1387C72.9037 25.8613 73.1176 24.7568 73.5453 23.8252C73.9789 22.8877 74.6 22.1729 75.4086 21.6807C76.223 21.1826 77.1752 20.9336 78.265 20.9336C79.7826 20.9336 80.9691 21.2969 81.8246 22.0234C82.6801 22.7441 83.1869 23.7959 83.3451 25.1787H80.7787C80.6615 24.4463 80.4008 23.9102 79.9965 23.5703C79.598 23.2305 79.0472 23.0605 78.3441 23.0605C77.4476 23.0605 76.765 23.3975 76.2963 24.0713C75.8275 24.7451 75.5902 25.7471 75.5844 27.0771V27.8945C75.5844 29.2363 75.8392 30.25 76.349 30.9355C76.8588 31.6211 77.6058 31.9639 78.5902 31.9639C79.5805 31.9639 80.2865 31.7529 80.7084 31.3311V29.125H78.309V27.1826H83.3451V32.2891Z" fill="black"/>
<path d="M95.9046 33.9062H93.2679V28.4219H88.1263V33.9062H85.4895V21.1094H88.1263V26.2949H93.2679V21.1094H95.9046V33.9062Z" fill="black"/>
<path d="M101.02 33.9062H98.383V21.1094H101.02V33.9062Z" fill="black"/>
<path d="M108.631 21.1094H111.268V29.9688C111.268 30.7832 111.086 31.5039 110.723 32.1309C110.365 32.752 109.858 33.2324 109.202 33.5723C108.546 33.9121 107.805 34.082 106.979 34.082C105.625 34.082 104.57 33.7393 103.815 33.0537C103.059 32.3623 102.681 31.3867 102.681 30.127H105.335C105.335 30.7539 105.467 31.2168 105.731 31.5156C105.994 31.8145 106.41 31.9639 106.979 31.9639C107.482 31.9639 107.884 31.791 108.183 31.4453C108.482 31.0996 108.631 30.6074 108.631 29.9688V21.1094Z" fill="black"/>
<path d="M117.534 28.7734L116.163 30.25V33.9062H113.526V21.1094H116.163V26.9102L117.323 25.3193L120.584 21.1094H123.827L119.283 26.7959L123.959 33.9062H120.821L117.534 28.7734Z" fill="black"/>
<path d="M127.589 31.7881H133.187V33.9062H124.952V21.1094H127.589V31.7881Z" fill="black"/>
<path d="M138.153 21.1094L141.44 30.3906L144.71 21.1094H148.173V33.9062H145.527V30.4082L145.791 24.3701L142.337 33.9062H140.526L137.081 24.3789L137.344 30.4082V33.9062H134.708V21.1094H138.153Z" fill="black"/>
</g>
<g id="NOPQRSTUVWXYZ">
<path d="M16.5488 54.9062H13.9121L8.7793 46.4863V54.9062H6.14258V42.1094H8.7793L13.9209 50.5469V42.1094H16.5488V54.9062Z" fill="black"/>
<path d="M29.3651 48.7979C29.3651 50.0576 29.1424 51.1621 28.6971 52.1113C28.2518 53.0605 27.6131 53.793 26.7811 54.3086C25.9549 54.8242 25.0057 55.082 23.9334 55.082C22.8729 55.082 21.9266 54.8271 21.0946 54.3174C20.2625 53.8076 19.618 53.0811 19.161 52.1377C18.7039 51.1885 18.4725 50.0986 18.4666 48.8682V48.2354C18.4666 46.9756 18.6922 45.8682 19.1434 44.9131C19.6004 43.9521 20.242 43.2168 21.0682 42.707C21.9002 42.1914 22.8495 41.9336 23.9159 41.9336C24.9823 41.9336 25.9286 42.1914 26.7547 42.707C27.5868 43.2168 28.2284 43.9521 28.6795 44.9131C29.1366 45.8682 29.3651 46.9727 29.3651 48.2266V48.7979ZM26.6932 48.2178C26.6932 46.876 26.453 45.8564 25.9725 45.1592C25.492 44.4619 24.8065 44.1133 23.9159 44.1133C23.0311 44.1133 22.3485 44.459 21.868 45.1504C21.3875 45.8359 21.1444 46.8438 21.1385 48.1738V48.7979C21.1385 50.1045 21.3788 51.1182 21.8592 51.8389C22.3397 52.5596 23.0311 52.9199 23.9334 52.9199C24.8182 52.9199 25.4979 52.5742 25.9725 51.8828C26.4471 51.1855 26.6873 50.1719 26.6932 48.8418V48.2178Z" fill="black"/>
<path d="M33.925 50.3975V54.9062H31.2883V42.1094H36.2805C37.2414 42.1094 38.0852 42.2852 38.8117 42.6367C39.5442 42.9883 40.1067 43.4893 40.4992 44.1396C40.8918 44.7842 41.0881 45.5195 41.0881 46.3457C41.0881 47.5996 40.6574 48.5898 39.7961 49.3164C38.9406 50.0371 37.7541 50.3975 36.2365 50.3975H33.925ZM33.925 48.2617H36.2805C36.9778 48.2617 37.508 48.0977 37.8713 47.7695C38.2404 47.4414 38.425 46.9727 38.425 46.3633C38.425 45.7363 38.2404 45.2295 37.8713 44.8428C37.5022 44.4561 36.9924 44.2568 36.342 44.2451H33.925V48.2617Z" fill="black"/>
<path d="M53.4034 48.7979C53.4034 49.9932 53.21 51.0332 52.8233 51.918C52.4366 52.7969 51.9004 53.5029 51.2149 54.0361L53.3419 55.7061L51.6631 57.1914L48.9385 55.0029C48.628 55.0557 48.3057 55.082 47.9717 55.082C46.9112 55.082 45.9649 54.8271 45.1329 54.3174C44.3008 53.8076 43.6563 53.0811 43.1993 52.1377C42.7422 51.1885 42.5108 50.0986 42.5049 48.8682V48.2354C42.5049 46.9756 42.7305 45.8682 43.1817 44.9131C43.6387 43.9521 44.2803 43.2168 45.1065 42.707C45.9385 42.1914 46.8878 41.9336 47.9542 41.9336C49.0206 41.9336 49.9669 42.1914 50.793 42.707C51.6251 43.2168 52.2667 43.9521 52.7178 44.9131C53.1749 45.8682 53.4034 46.9727 53.4034 48.2266V48.7979ZM50.7315 48.2178C50.7315 46.876 50.4913 45.8564 50.0108 45.1592C49.5303 44.4619 48.8448 44.1133 47.9542 44.1133C47.0694 44.1133 46.3868 44.459 45.9063 45.1504C45.4258 45.8359 45.1827 46.8438 45.1768 48.1738V48.7979C45.1768 50.1045 45.417 51.1182 45.8975 51.8389C46.378 52.5596 47.0694 52.9199 47.9717 52.9199C48.8565 52.9199 49.5362 52.5742 50.0108 51.8828C50.4854 51.1855 50.7256 50.1719 50.7315 48.8418V48.2178Z" fill="black"/>
<path d="M60.0815 50.2217H57.9809V54.9062H55.3442V42.1094H60.0991C61.6108 42.1094 62.7768 42.4463 63.5971 43.1201C64.4174 43.7939 64.8276 44.7461 64.8276 45.9766C64.8276 46.8496 64.6371 47.5791 64.2563 48.165C63.8813 48.7451 63.31 49.208 62.5424 49.5537L65.311 54.7832V54.9062H62.4809L60.0815 50.2217ZM57.9809 48.0859H60.1078C60.77 48.0859 61.2826 47.9189 61.6459 47.585C62.0092 47.2451 62.1909 46.7793 62.1909 46.1875C62.1909 45.584 62.018 45.1094 61.6723 44.7637C61.3325 44.418 60.808 44.2451 60.0991 44.2451H57.9809V48.0859Z" fill="black"/>
<path d="M73.4796 51.5488C73.4796 51.0508 73.3038 50.6699 72.9523 50.4062C72.6007 50.1367 71.9679 49.8555 71.0538 49.5625C70.1398 49.2637 69.4161 48.9707 68.8829 48.6836C67.4298 47.8984 66.7032 46.8408 66.7032 45.5107C66.7032 44.8193 66.8966 44.2041 67.2833 43.665C67.6759 43.1201 68.2355 42.6953 68.962 42.3906C69.6945 42.0859 70.5148 41.9336 71.423 41.9336C72.337 41.9336 73.1515 42.1006 73.8663 42.4346C74.5812 42.7627 75.1349 43.2285 75.5275 43.832C75.9259 44.4355 76.1251 45.1211 76.1251 45.8887H73.4884C73.4884 45.3027 73.3038 44.8486 72.9347 44.5264C72.5655 44.1982 72.047 44.0342 71.379 44.0342C70.7345 44.0342 70.2335 44.1719 69.8761 44.4473C69.5187 44.7168 69.34 45.0742 69.34 45.5195C69.34 45.9355 69.548 46.2842 69.964 46.5654C70.3859 46.8467 71.004 47.1104 71.8185 47.3564C73.3185 47.8076 74.4112 48.3672 75.0968 49.0352C75.7823 49.7031 76.1251 50.5352 76.1251 51.5312C76.1251 52.6387 75.7062 53.5088 74.8683 54.1416C74.0304 54.7686 72.9025 55.082 71.4845 55.082C70.5001 55.082 69.6036 54.9033 68.795 54.5459C67.9864 54.1826 67.3683 53.6875 66.9405 53.0605C66.5187 52.4336 66.3077 51.707 66.3077 50.8809H68.9532C68.9532 52.293 69.797 52.999 71.4845 52.999C72.1114 52.999 72.6007 52.873 72.9523 52.6211C73.3038 52.3633 73.4796 52.0059 73.4796 51.5488Z" fill="black"/>
<path d="M87.5455 44.2451H83.6256V54.9062H80.9889V44.2451H77.1217V42.1094H87.5455V44.2451Z" fill="black"/>
<path d="M98.7374 42.1094V50.5381C98.7374 51.9385 98.2979 53.0459 97.419 53.8604C96.546 54.6748 95.3506 55.082 93.8331 55.082C92.3389 55.082 91.1524 54.6865 90.2735 53.8955C89.3946 53.1045 88.9464 52.0176 88.9288 50.6348V42.1094H91.5655V50.5557C91.5655 51.3936 91.7647 52.0059 92.1631 52.3926C92.5674 52.7734 93.1241 52.9639 93.8331 52.9639C95.3155 52.9639 96.0684 52.1846 96.0919 50.626V42.1094H98.7374Z" fill="black"/>
<path d="M105.632 51.7334L108.532 42.1094H111.468L107.011 54.9062H104.26L99.822 42.1094H102.749L105.632 51.7334Z" fill="black"/>
<path d="M122.644 51.2148L124.366 42.1094H126.994L124.155 54.9062H121.501L119.418 46.3457L117.335 54.9062H114.681L111.842 42.1094H114.47L116.201 51.1973L118.311 42.1094H120.543L122.644 51.2148Z" fill="black"/>
<path d="M132.997 46.5215L135.396 42.1094H138.429L134.702 48.4551L138.525 54.9062H135.458L132.997 50.4238L130.536 54.9062H127.469L131.292 48.4551L127.565 42.1094H130.598L132.997 46.5215Z" fill="black"/>
<path d="M144.279 47.875L146.942 42.1094H149.825L145.623 50.2656V54.9062H142.943V50.2656L138.742 42.1094H141.633L144.279 47.875Z" fill="black"/>
<path d="M153.792 52.7881H160.243V54.9062H150.496V53.3594L156.824 44.2451H150.505V42.1094H160.103V43.6211L153.792 52.7881Z" fill="black"/>
</g>
<g id="abcdefghijklm">
<path d="M11.4863 75.9062C11.3691 75.6777 11.2842 75.3936 11.2314 75.0537C10.6162 75.7393 9.81641 76.082 8.83203 76.082C7.90039 76.082 7.12695 75.8125 6.51172 75.2734C5.90234 74.7344 5.59766 74.0547 5.59766 73.2344C5.59766 72.2266 5.96973 71.4531 6.71387 70.9141C7.46387 70.375 8.54492 70.1025 9.95703 70.0967H11.126V69.5518C11.126 69.1123 11.0117 68.7607 10.7832 68.4971C10.5605 68.2334 10.2061 68.1016 9.71973 68.1016C9.29199 68.1016 8.95508 68.2041 8.70898 68.4092C8.46875 68.6143 8.34863 68.8955 8.34863 69.2529H5.80859C5.80859 68.7021 5.97852 68.1924 6.31836 67.7236C6.6582 67.2549 7.13867 66.8887 7.75977 66.625C8.38086 66.3555 9.07812 66.2207 9.85156 66.2207C11.0234 66.2207 11.9521 66.5166 12.6377 67.1084C13.3291 67.6943 13.6748 68.5205 13.6748 69.5869V73.709C13.6807 74.6113 13.8066 75.2939 14.0527 75.7568V75.9062H11.4863ZM9.38574 74.1396C9.76074 74.1396 10.1064 74.0576 10.4229 73.8936C10.7393 73.7236 10.9736 73.498 11.126 73.2168V71.582H10.1768C8.90527 71.582 8.22852 72.0215 8.14648 72.9004L8.1377 73.0498C8.1377 73.3662 8.24902 73.627 8.47168 73.832C8.69434 74.0371 8.99902 74.1396 9.38574 74.1396Z" fill="black"/>
<path d="M24.1971 71.2393C24.1971 72.7627 23.8719 73.9521 23.2215 74.8076C22.5711 75.6572 21.6629 76.082 20.4969 76.082C19.4657 76.082 18.6424 75.6865 18.0272 74.8955L17.9129 75.9062H15.6278V62.4062H18.1678V67.249C18.7538 66.5635 19.5243 66.2207 20.4793 66.2207C21.6395 66.2207 22.5477 66.6484 23.2039 67.5039C23.8661 68.3535 24.1971 69.5518 24.1971 71.0986V71.2393ZM21.6571 71.0547C21.6571 70.0938 21.5047 69.3936 21.2 68.9541C20.8954 68.5088 20.4413 68.2861 19.8377 68.2861C19.0291 68.2861 18.4725 68.6172 18.1678 69.2793V73.0322C18.4784 73.7002 19.0409 74.0342 19.8553 74.0342C20.6756 74.0342 21.2147 73.6299 21.4725 72.8213C21.5956 72.4346 21.6571 71.8457 21.6571 71.0547Z" fill="black"/>
<path d="M29.7272 74.0342C30.196 74.0342 30.5768 73.9053 30.8698 73.6475C31.1628 73.3896 31.3151 73.0469 31.3268 72.6191H33.7087C33.7028 73.2637 33.527 73.8555 33.1813 74.3945C32.8356 74.9277 32.361 75.3438 31.7575 75.6426C31.1598 75.9355 30.4977 76.082 29.7712 76.082C28.4118 76.082 27.3395 75.6514 26.5544 74.79C25.7692 73.9229 25.3766 72.7275 25.3766 71.2041V71.0371C25.3766 69.5723 25.7663 68.4033 26.5456 67.5303C27.3249 66.6572 28.3942 66.2207 29.7536 66.2207C30.9431 66.2207 31.8952 66.5605 32.61 67.2402C33.3307 67.9141 33.697 68.8135 33.7087 69.9385H31.3268C31.3151 69.4463 31.1628 69.0479 30.8698 68.7432C30.5768 68.4326 30.1901 68.2773 29.7097 68.2773C29.1179 68.2773 28.6696 68.4941 28.3649 68.9277C28.0661 69.3555 27.9167 70.0527 27.9167 71.0195V71.2832C27.9167 72.2617 28.0661 72.9648 28.3649 73.3926C28.6638 73.8203 29.1179 74.0342 29.7272 74.0342Z" fill="black"/>
<path d="M34.7724 71.0811C34.7724 69.5986 35.1034 68.418 35.7655 67.5391C36.4335 66.6602 37.3446 66.2207 38.4989 66.2207C39.4247 66.2207 40.1894 66.5664 40.7929 67.2578V62.4062H43.3417V75.9062H41.0478L40.9247 74.8955C40.2919 75.6865 39.4774 76.082 38.4813 76.082C37.3622 76.082 36.4628 75.6426 35.7831 74.7637C35.1093 73.8789 34.7724 72.6514 34.7724 71.0811ZM37.3124 71.2656C37.3124 72.1562 37.4677 72.8389 37.7782 73.3135C38.0888 73.7881 38.5399 74.0254 39.1317 74.0254C39.9169 74.0254 40.4706 73.6943 40.7929 73.0322V69.2793C40.4765 68.6172 39.9286 68.2861 39.1493 68.2861C37.9247 68.2861 37.3124 69.2793 37.3124 71.2656Z" fill="black"/>
<path d="M49.6964 76.082C48.3019 76.082 47.1652 75.6543 46.2862 74.7988C45.4132 73.9434 44.9767 72.8037 44.9767 71.3799V71.1338C44.9767 70.1787 45.1612 69.3262 45.5304 68.5762C45.8995 67.8203 46.421 67.2402 47.0948 66.8359C47.7745 66.4258 48.548 66.2207 49.4152 66.2207C50.7159 66.2207 51.7384 66.6309 52.4825 67.4512C53.2325 68.2715 53.6075 69.4346 53.6075 70.9404V71.9775H47.5519C47.6339 72.5986 47.88 73.0967 48.2902 73.4717C48.7062 73.8467 49.2306 74.0342 49.8634 74.0342C50.8419 74.0342 51.6066 73.6797 52.1573 72.9707L53.4054 74.3682C53.0245 74.9072 52.5089 75.3291 51.8585 75.6338C51.2081 75.9326 50.4874 76.082 49.6964 76.082ZM49.4064 68.2773C48.9025 68.2773 48.4923 68.4473 48.1759 68.7871C47.8653 69.127 47.6661 69.6133 47.5782 70.2461H51.1114V70.0439C51.0997 69.4814 50.9474 69.0479 50.6544 68.7432C50.3614 68.4326 49.9454 68.2773 49.4064 68.2773Z" fill="black"/>
<path d="M55.7431 75.9062V68.2598H54.328V66.3965H55.7431V65.5879C55.7431 64.5215 56.0478 63.6953 56.6571 63.1094C57.2724 62.5176 58.1308 62.2217 59.2323 62.2217C59.5839 62.2217 60.0146 62.2803 60.5243 62.3975L60.498 64.3662C60.287 64.3135 60.0292 64.2871 59.7245 64.2871C58.7694 64.2871 58.2919 64.7354 58.2919 65.6318V66.3965H60.1815V68.2598H58.2919V75.9062H55.7431Z" fill="black"/>
<path d="M60.9274 71.0811C60.9274 69.6221 61.2731 68.4473 61.9645 67.5566C62.6617 66.666 63.5992 66.2207 64.777 66.2207C65.8199 66.2207 66.6315 66.5781 67.2115 67.293L67.317 66.3965H69.6198V75.5898C69.6198 76.4219 69.4293 77.1455 69.0485 77.7607C68.6735 78.376 68.1432 78.8447 67.4576 79.167C66.7721 79.4893 65.9694 79.6504 65.0494 79.6504C64.3522 79.6504 63.6725 79.5098 63.0104 79.2285C62.3483 78.9531 61.8473 78.5957 61.5074 78.1562L62.6324 76.6094C63.2653 77.3184 64.0328 77.6729 64.9352 77.6729C65.609 77.6729 66.1334 77.4912 66.5084 77.1279C66.8834 76.7705 67.0709 76.2607 67.0709 75.5986V75.0889C66.485 75.751 65.7145 76.082 64.7594 76.082C63.6168 76.082 62.691 75.6367 61.9821 74.7461C61.2789 73.8496 60.9274 72.6631 60.9274 71.1865V71.0811ZM63.4674 71.2656C63.4674 72.127 63.6403 72.8037 63.986 73.2959C64.3317 73.7822 64.8063 74.0254 65.4098 74.0254C66.1832 74.0254 66.7369 73.7354 67.0709 73.1553V69.1562C66.7311 68.5762 66.1832 68.2861 65.4274 68.2861C64.818 68.2861 64.3375 68.5352 63.986 69.0332C63.6403 69.5312 63.4674 70.2754 63.4674 71.2656Z" fill="black"/>
<path d="M74.0546 67.4336C74.7285 66.625 75.5751 66.2207 76.5947 66.2207C78.6572 66.2207 79.7031 67.4189 79.7324 69.8154V75.9062H77.1923V69.8857C77.1923 69.3408 77.0751 68.9395 76.8408 68.6816C76.6064 68.418 76.2167 68.2861 75.6718 68.2861C74.9277 68.2861 74.3886 68.5732 74.0546 69.1475V75.9062H71.5146V62.4062H74.0546V67.4336Z" fill="black"/>
<path d="M84.3218 75.9062H81.773V66.3965H84.3218V75.9062ZM81.6236 63.9355C81.6236 63.5547 81.7496 63.2412 82.0015 62.9951C82.2593 62.749 82.608 62.626 83.0474 62.626C83.481 62.626 83.8267 62.749 84.0845 62.9951C84.3423 63.2412 84.4713 63.5547 84.4713 63.9355C84.4713 64.3223 84.3394 64.6387 84.0757 64.8848C83.8179 65.1309 83.4752 65.2539 83.0474 65.2539C82.6197 65.2539 82.274 65.1309 82.0103 64.8848C81.7525 64.6387 81.6236 64.3223 81.6236 63.9355Z" fill="black"/>
<path d="M89.1137 66.3965V76.4248C89.1137 77.4736 88.8354 78.2881 88.2787 78.8682C87.7221 79.4541 86.9193 79.7471 85.8705 79.7471C85.4311 79.7471 85.0121 79.6973 84.6137 79.5977V77.585C84.9184 77.6377 85.185 77.6641 85.4135 77.6641C86.1811 77.6641 86.5648 77.2568 86.5648 76.4424V66.3965H89.1137ZM86.3627 63.9355C86.3627 63.5547 86.4887 63.2412 86.7406 62.9951C86.9984 62.749 87.3471 62.626 87.7865 62.626C88.226 62.626 88.5717 62.749 88.8236 62.9951C89.0815 63.2412 89.2104 63.5547 89.2104 63.9355C89.2104 64.3223 89.0785 64.6387 88.8148 64.8848C88.557 65.1309 88.2143 65.2539 87.7865 65.2539C87.3588 65.2539 87.0131 65.1309 86.7494 64.8848C86.4916 64.6387 86.3627 64.3223 86.3627 63.9355Z" fill="black"/>
<path d="M94.5505 72.0918L93.6364 73.0059V75.9062H91.0964V62.4062H93.6364V69.8857L94.1286 69.2529L96.5632 66.3965H99.613L96.1765 70.3604L99.9118 75.9062H96.9939L94.5505 72.0918Z" fill="black"/>
<path d="M103.396 75.9062H100.847V62.4062H103.396V75.9062Z" fill="black"/>
<path d="M107.88 66.3965L107.959 67.46C108.633 66.6338 109.544 66.2207 110.693 66.2207C111.917 66.2207 112.758 66.7041 113.215 67.6709C113.883 66.7041 114.835 66.2207 116.072 66.2207C117.103 66.2207 117.87 66.5225 118.374 67.126C118.878 67.7236 119.13 68.626 119.13 69.833V75.9062H116.581V69.8418C116.581 69.3027 116.476 68.9102 116.265 68.6641C116.054 68.4121 115.682 68.2861 115.149 68.2861C114.387 68.2861 113.86 68.6494 113.567 69.376L113.575 75.9062H111.035V69.8506C111.035 69.2998 110.927 68.9014 110.71 68.6553C110.493 68.4092 110.124 68.2861 109.603 68.2861C108.882 68.2861 108.361 68.585 108.038 69.1826V75.9062H105.498V66.3965H107.88Z" fill="black"/>
</g>
<g id="nopqrstuvwxyz">
<path d="M8.31348 87.3965L8.39258 88.4951C9.07227 87.6455 9.9834 87.2207 11.126 87.2207C12.1338 87.2207 12.8838 87.5166 13.376 88.1084C13.8682 88.7002 14.1201 89.585 14.1318 90.7627V96.9062H11.5918V90.8242C11.5918 90.2852 11.4746 89.8955 11.2402 89.6553C11.0059 89.4092 10.6162 89.2861 10.0713 89.2861C9.35645 89.2861 8.82031 89.5908 8.46289 90.2002V96.9062H5.92285V87.3965H8.31348Z" fill="black"/>
<path d="M15.6717 92.0635C15.6717 91.1201 15.8534 90.2793 16.2166 89.541C16.5799 88.8027 17.1014 88.2314 17.7811 87.8271C18.4666 87.4229 19.2606 87.2207 20.1629 87.2207C21.4461 87.2207 22.492 87.6133 23.3006 88.3984C24.1151 89.1836 24.5692 90.25 24.6629 91.5977L24.6805 92.248C24.6805 93.707 24.2733 94.8789 23.4588 95.7637C22.6444 96.6426 21.5516 97.082 20.1805 97.082C18.8094 97.082 17.7137 96.6426 16.8934 95.7637C16.0789 94.8848 15.6717 93.6895 15.6717 92.1777V92.0635ZM18.2118 92.248C18.2118 93.1504 18.3817 93.8418 18.7215 94.3223C19.0614 94.7969 19.5477 95.0342 20.1805 95.0342C20.7957 95.0342 21.2762 94.7998 21.6219 94.3311C21.9676 93.8564 22.1405 93.1006 22.1405 92.0635C22.1405 91.1787 21.9676 90.4932 21.6219 90.0068C21.2762 89.5205 20.7899 89.2773 20.1629 89.2773C19.5418 89.2773 19.0614 89.5205 18.7215 90.0068C18.3817 90.4873 18.2118 91.2344 18.2118 92.248Z" fill="black"/>
<path d="M34.8127 92.2393C34.8127 93.7041 34.4787 94.8789 33.8108 95.7637C33.1486 96.6426 32.2522 97.082 31.1213 97.082C30.1604 97.082 29.384 96.748 28.7922 96.0801V100.562H26.2522V87.3965H28.6076L28.6955 88.3281C29.3108 87.5898 30.1135 87.2207 31.1037 87.2207C32.2756 87.2207 33.1867 87.6543 33.8371 88.5215C34.4875 89.3887 34.8127 90.584 34.8127 92.1074V92.2393ZM32.2727 92.0547C32.2727 91.1699 32.1145 90.4873 31.7981 90.0068C31.4875 89.5264 31.0334 89.2861 30.4358 89.2861C29.6389 89.2861 29.091 89.5908 28.7922 90.2002V94.0938C29.1028 94.7207 29.6565 95.0342 30.4533 95.0342C31.6662 95.0342 32.2727 94.041 32.2727 92.0547Z" fill="black"/>
<path d="M36.001 92.0635C36.001 90.5693 36.3321 89.3887 36.9942 88.5215C37.6622 87.6543 38.5762 87.2207 39.7364 87.2207C40.7559 87.2207 41.5674 87.6104 42.171 88.3896L42.3379 87.3965H44.5704V100.562H42.0215V96.0889C41.4356 96.751 40.668 97.082 39.7188 97.082C38.5879 97.082 37.6856 96.6426 37.0118 95.7637C36.3379 94.8848 36.001 93.6514 36.001 92.0635ZM38.5411 92.248C38.5411 93.1562 38.6993 93.8477 39.0157 94.3223C39.3379 94.7969 39.7891 95.0342 40.3692 95.0342C41.1485 95.0342 41.6993 94.7236 42.0215 94.1025V90.1738C41.7051 89.5762 41.1602 89.2773 40.3868 89.2773C39.8008 89.2773 39.3467 89.5146 39.0245 89.9893C38.7022 90.4639 38.5411 91.2168 38.5411 92.248Z" fill="black"/>
<path d="M51.9162 89.7783C51.5705 89.7314 51.2658 89.708 51.0022 89.708C50.0412 89.708 49.4113 90.0332 49.1125 90.6836V96.9062H46.5725V87.3965H48.9719L49.0422 88.5303C49.552 87.6572 50.258 87.2207 51.1604 87.2207C51.4416 87.2207 51.7053 87.2588 51.9514 87.335L51.9162 89.7783Z" fill="black"/>
<path d="M58.2917 94.2783C58.2917 93.9678 58.1364 93.7246 57.8259 93.5488C57.5212 93.3672 57.029 93.2061 56.3493 93.0654C54.0876 92.5908 52.9567 91.6299 52.9567 90.1826C52.9567 89.3389 53.3054 88.6357 54.0026 88.0732C54.7057 87.5049 55.6227 87.2207 56.7536 87.2207C57.9606 87.2207 58.9245 87.5049 59.6452 88.0732C60.3718 88.6416 60.735 89.3799 60.735 90.2881H58.195C58.195 89.9248 58.0778 89.626 57.8434 89.3916C57.6091 89.1514 57.2429 89.0312 56.7448 89.0312C56.3171 89.0312 55.986 89.1279 55.7516 89.3213C55.5173 89.5146 55.4001 89.7607 55.4001 90.0596C55.4001 90.3408 55.5319 90.5693 55.7956 90.7451C56.0651 90.915 56.5163 91.0645 57.1491 91.1934C57.7819 91.3164 58.3151 91.457 58.7487 91.6152C60.0905 92.1074 60.7614 92.96 60.7614 94.1729C60.7614 95.04 60.3893 95.7432 59.6452 96.2822C58.9011 96.8154 57.9401 97.082 56.7624 97.082C55.9655 97.082 55.2565 96.9414 54.6354 96.6602C54.0202 96.373 53.5368 95.9834 53.1852 95.4912C52.8337 94.9932 52.6579 94.457 52.6579 93.8828H55.0661C55.0895 94.334 55.2565 94.6797 55.5671 94.9199C55.8776 95.1602 56.2936 95.2803 56.8151 95.2803C57.3015 95.2803 57.6677 95.1895 57.9138 95.0078C58.1657 94.8203 58.2917 94.5771 58.2917 94.2783Z" fill="black"/>
<path d="M65.4496 85.0586V87.3965H67.0756V89.2598H65.4496V94.0059C65.4496 94.3574 65.517 94.6094 65.6517 94.7617C65.7865 94.9141 66.0443 94.9902 66.4252 94.9902C66.7064 94.9902 66.9554 94.9697 67.1722 94.9287V96.8535C66.6742 97.0059 66.1615 97.082 65.6342 97.082C63.8529 97.082 62.9447 96.1826 62.9095 94.3838V89.2598H61.5209V87.3965H62.9095V85.0586H65.4496Z" fill="black"/>
<path d="M74.1841 95.9395C73.5572 96.7012 72.69 97.082 71.5826 97.082C70.563 97.082 69.7837 96.7891 69.2447 96.2031C68.7115 95.6172 68.439 94.7588 68.4273 93.6279V87.3965H70.9673V93.54C70.9673 94.5303 71.4185 95.0254 72.3208 95.0254C73.1822 95.0254 73.774 94.7266 74.0962 94.1289V87.3965H76.6451V96.9062H74.2544L74.1841 95.9395Z" fill="black"/>
<path d="M82.1134 93.8037L83.88 87.3965H86.5343L83.3263 96.9062H80.9005L77.6925 87.3965H80.3468L82.1134 93.8037Z" fill="black"/>
<path d="M95.937 93.4521L97.1851 87.3965H99.6372L97.2115 96.9062H95.0845L93.2827 90.9209L91.481 96.9062H89.3628L86.937 87.3965H89.3892L90.6284 93.4434L92.3687 87.3965H94.2056L95.937 93.4521Z" fill="black"/>
<path d="M104.522 90.2354L106.122 87.3965H108.838L106.131 92.0547L108.952 96.9062H106.227L104.531 93.918L102.843 96.9062H100.11L102.931 92.0547L100.233 87.3965H102.958L104.522 90.2354Z" fill="black"/>
<path d="M113.606 93.3115L115.364 87.3965H118.089L114.266 98.3828L114.055 98.8838C113.486 100.126 112.549 100.747 111.242 100.747C110.873 100.747 110.498 100.691 110.117 100.58V98.6553L110.504 98.6641C110.984 98.6641 111.342 98.5908 111.576 98.4443C111.816 98.2979 112.004 98.0547 112.139 97.7148L112.438 96.9326L109.106 87.3965H111.84L113.606 93.3115Z" fill="black"/>
<path d="M122.011 94.8584H126.66V96.9062H118.767V95.3594L123.241 89.4531H118.899V87.3965H126.519V88.8994L122.011 94.8584Z" fill="black"/>
</g>
<g id="1234567890">
<path d="M12.04 117.906H9.5V108.115L6.46777 109.056V106.99L11.7676 105.092H12.04V117.906Z" fill="black"/>
<path d="M24.9772 117.906H16.2058V116.166L20.3454 111.754C20.9138 111.133 21.3327 110.591 21.6022 110.128C21.8776 109.665 22.0153 109.226 22.0153 108.81C22.0153 108.241 21.8718 107.796 21.5847 107.474C21.2976 107.146 20.8874 106.981 20.3542 106.981C19.78 106.981 19.3259 107.181 18.9919 107.579C18.6638 107.972 18.4997 108.49 18.4997 109.135H15.9509C15.9509 108.355 16.1354 107.644 16.5046 106.999C16.8796 106.354 17.4069 105.851 18.0866 105.487C18.7663 105.118 19.5368 104.934 20.3981 104.934C21.7165 104.934 22.739 105.25 23.4655 105.883C24.1979 106.516 24.5642 107.409 24.5642 108.563C24.5642 109.196 24.4001 109.841 24.072 110.497C23.7438 111.153 23.1813 111.918 22.3845 112.791L19.4753 115.858H24.9772V117.906Z" fill="black"/>
<path d="M29.1254 110.383H30.4789C31.1234 110.383 31.601 110.222 31.9115 109.899C32.2221 109.577 32.3773 109.149 32.3773 108.616C32.3773 108.101 32.2221 107.699 31.9115 107.412C31.6068 107.125 31.1849 106.981 30.6459 106.981C30.1596 106.981 29.7523 107.116 29.4242 107.386C29.0961 107.649 28.932 107.995 28.932 108.423H26.392C26.392 107.755 26.5707 107.157 26.9281 106.63C27.2914 106.097 27.7953 105.681 28.4398 105.382C29.0902 105.083 29.8051 104.934 30.5844 104.934C31.9379 104.934 32.9984 105.259 33.766 105.909C34.5336 106.554 34.9174 107.444 34.9174 108.581C34.9174 109.167 34.7387 109.706 34.3812 110.198C34.0238 110.69 33.5551 111.068 32.975 111.332C33.6957 111.59 34.2318 111.977 34.5834 112.492C34.9408 113.008 35.1195 113.617 35.1195 114.32C35.1195 115.457 34.7035 116.368 33.8715 117.054C33.0453 117.739 31.9496 118.082 30.5844 118.082C29.307 118.082 28.2611 117.745 27.4467 117.071C26.6381 116.397 26.2338 115.507 26.2338 114.399H28.7738C28.7738 114.88 28.9525 115.272 29.3099 115.577C29.6732 115.882 30.1185 116.034 30.6459 116.034C31.2494 116.034 31.7211 115.876 32.0609 115.56C32.4066 115.237 32.5795 114.812 32.5795 114.285C32.5795 113.008 31.8764 112.369 30.4701 112.369H29.1254V110.383Z" fill="black"/>
<path d="M44.3917 113.09H45.8419V115.138H44.3917V117.906H41.8516V115.138H36.6046L36.4903 113.538L41.8253 105.109H44.3917V113.09ZM39.0216 113.09H41.8516V108.572L41.6846 108.862L39.0216 113.09Z" fill="black"/>
<path d="M47.5906 111.613L48.3289 105.109H55.5008V107.228H50.4119L50.0955 109.979C50.699 109.656 51.3406 109.495 52.0203 109.495C53.239 109.495 54.1941 109.873 54.8855 110.629C55.5769 111.385 55.9226 112.442 55.9226 113.802C55.9226 114.628 55.7468 115.369 55.3953 116.025C55.0496 116.676 54.5515 117.183 53.9011 117.546C53.2508 117.903 52.4832 118.082 51.5984 118.082C50.825 118.082 50.1072 117.927 49.4451 117.616C48.783 117.3 48.2586 116.857 47.8718 116.289C47.491 115.721 47.2888 115.073 47.2654 114.347H49.7791C49.8318 114.88 50.0164 115.296 50.3328 115.595C50.655 115.888 51.074 116.034 51.5896 116.034C52.1638 116.034 52.6062 115.829 52.9168 115.419C53.2273 115.003 53.3826 114.417 53.3826 113.661C53.3826 112.935 53.2039 112.378 52.8465 111.991C52.489 111.604 51.9822 111.411 51.3259 111.411C50.7224 111.411 50.2332 111.569 49.8582 111.886L49.6121 112.114L47.5906 111.613Z" fill="black"/>
<path d="M64.4389 104.978V107.069H64.1928C63.0444 107.087 62.1186 107.386 61.4155 107.966C60.7182 108.546 60.2993 109.352 60.1587 110.383C60.8383 109.691 61.6967 109.346 62.7339 109.346C63.8471 109.346 64.7319 109.744 65.3881 110.541C66.0444 111.338 66.3725 112.387 66.3725 113.688C66.3725 114.52 66.1909 115.272 65.8276 115.946C65.4702 116.62 64.9604 117.145 64.2983 117.52C63.6421 117.895 62.8979 118.082 62.0659 118.082C60.7182 118.082 59.6284 117.613 58.7964 116.676C57.9702 115.738 57.5571 114.487 57.5571 112.923V112.009C57.5571 110.62 57.8178 109.396 58.3393 108.335C58.8667 107.269 59.6196 106.445 60.5981 105.865C61.5825 105.279 62.7221 104.983 64.0171 104.978H64.4389ZM61.9604 111.385C61.5503 111.385 61.1782 111.493 60.8442 111.71C60.5102 111.921 60.2641 112.202 60.1059 112.554V113.327C60.1059 114.177 60.2729 114.842 60.6069 115.322C60.9409 115.797 61.4096 116.034 62.0131 116.034C62.5581 116.034 62.9975 115.82 63.3315 115.393C63.6714 114.959 63.8413 114.399 63.8413 113.714C63.8413 113.017 63.6714 112.454 63.3315 112.026C62.9917 111.599 62.5346 111.385 61.9604 111.385Z" fill="black"/>
<path d="M76.5851 106.533L71.6369 117.906H68.9562L73.9132 107.166H67.55V105.109H76.5851V106.533Z" fill="black"/>
<path d="M86.5604 108.511C86.5604 109.132 86.4051 109.683 86.0946 110.163C85.784 110.644 85.3563 111.027 84.8114 111.314C85.4325 111.613 85.9247 112.026 86.2879 112.554C86.6512 113.075 86.8329 113.69 86.8329 114.399C86.8329 115.536 86.4461 116.436 85.6727 117.098C84.8993 117.754 83.8475 118.082 82.5174 118.082C81.1874 118.082 80.1327 117.751 79.3534 117.089C78.5741 116.427 78.1844 115.53 78.1844 114.399C78.1844 113.69 78.3661 113.072 78.7293 112.545C79.0926 112.018 79.5819 111.607 80.1971 111.314C79.6522 111.027 79.2245 110.644 78.9139 110.163C78.6092 109.683 78.4569 109.132 78.4569 108.511C78.4569 107.421 78.8202 106.554 79.5467 105.909C80.2733 105.259 81.2606 104.934 82.5086 104.934C83.7508 104.934 84.7352 105.256 85.4618 105.9C86.1942 106.539 86.5604 107.409 86.5604 108.511ZM84.284 114.215C84.284 113.658 84.1229 113.213 83.8006 112.879C83.4784 112.545 83.0448 112.378 82.4999 112.378C81.9608 112.378 81.5301 112.545 81.2079 112.879C80.8856 113.207 80.7245 113.652 80.7245 114.215C80.7245 114.76 80.8827 115.199 81.1991 115.533C81.5155 115.867 81.9549 116.034 82.5174 116.034C83.0682 116.034 83.4989 115.873 83.8094 115.551C84.1258 115.229 84.284 114.783 84.284 114.215ZM84.0204 108.634C84.0204 108.136 83.8885 107.737 83.6249 107.438C83.3612 107.134 82.9891 106.981 82.5086 106.981C82.034 106.981 81.6649 107.128 81.4012 107.421C81.1376 107.714 81.0057 108.118 81.0057 108.634C81.0057 109.144 81.1376 109.554 81.4012 109.864C81.6649 110.175 82.037 110.33 82.5174 110.33C82.9979 110.33 83.367 110.175 83.6249 109.864C83.8885 109.554 84.0204 109.144 84.0204 108.634Z" fill="black"/>
<path d="M94.4966 112.791C93.8345 113.441 93.0611 113.767 92.1763 113.767C91.0454 113.767 90.1402 113.38 89.4605 112.606C88.7808 111.827 88.441 110.778 88.441 109.46C88.441 108.622 88.6226 107.854 88.9859 107.157C89.355 106.454 89.8677 105.909 90.524 105.522C91.1802 105.13 91.9185 104.934 92.7388 104.934C93.5826 104.934 94.3326 105.145 94.9888 105.566C95.6451 105.988 96.1548 106.595 96.5181 107.386C96.8814 108.177 97.066 109.082 97.0718 110.102V111.042C97.0718 113.175 96.5415 114.851 95.481 116.069C94.4204 117.288 92.9175 117.938 90.9722 118.021L90.3482 118.029V115.911L90.9107 115.902C93.1197 115.803 94.315 114.766 94.4966 112.791ZM92.8003 111.824C93.2105 111.824 93.562 111.719 93.855 111.508C94.1538 111.297 94.3794 111.042 94.5318 110.743V109.697C94.5318 108.836 94.3677 108.168 94.0396 107.693C93.7115 107.219 93.272 106.981 92.7212 106.981C92.2115 106.981 91.7925 107.216 91.4644 107.685C91.1363 108.147 90.9722 108.73 90.9722 109.434C90.9722 110.131 91.1304 110.705 91.4468 111.156C91.7691 111.602 92.2203 111.824 92.8003 111.824Z" fill="black"/>
<path d="M107.504 112.615C107.504 114.385 107.138 115.738 106.406 116.676C105.673 117.613 104.601 118.082 103.189 118.082C101.794 118.082 100.728 117.622 99.9895 116.702C99.2512 115.782 98.8733 114.464 98.8557 112.747V110.392C98.8557 108.604 99.2248 107.248 99.9631 106.322C100.707 105.396 101.777 104.934 103.171 104.934C104.566 104.934 105.632 105.394 106.37 106.313C107.109 107.228 107.487 108.543 107.504 110.26V112.615ZM104.964 110.031C104.964 108.971 104.818 108.2 104.525 107.72C104.238 107.233 103.786 106.99 103.171 106.99C102.573 106.99 102.131 107.222 101.844 107.685C101.563 108.142 101.413 108.859 101.396 109.838V112.949C101.396 113.992 101.536 114.769 101.818 115.278C102.105 115.782 102.562 116.034 103.189 116.034C103.81 116.034 104.258 115.791 104.533 115.305C104.809 114.818 104.952 114.074 104.964 113.072V110.031Z" fill="black"/>
</g>
</g>
</svg>
