<svg width="159" height="122" viewBox="0 0 159 122" fill="none" xmlns="http://www.w3.org/2000/svg">
<g id="Roboto_black_italic" clip-path="url(#clip0)">
<g id="Black Italic">
<path d="M1.30566 13.5117V3.39453H3.93066C4.94238 3.39453 5.71712 3.58594 6.25488 3.96875C6.7972 4.35156 7.06836 4.90299 7.06836 5.62305C7.06836 6.84896 6.37565 7.72168 4.99023 8.24121C6.64453 8.74707 7.47168 9.66081 7.47168 10.9824C7.47168 11.8027 7.19824 12.4294 6.65137 12.8623C6.10449 13.2952 5.31608 13.5117 4.28613 13.5117H1.30566ZM2.72754 12.4385H3.02148C4.07422 12.4385 4.75553 12.3724 5.06543 12.2402C5.65788 11.9896 5.9541 11.5247 5.9541 10.8457C5.9541 10.2441 5.68522 9.74512 5.14746 9.34863C4.6097 8.94759 3.9375 8.74707 3.13086 8.74707H2.72754V12.4385ZM2.72754 7.83789H3.18555C3.95117 7.83789 4.54362 7.67383 4.96289 7.3457C5.38672 7.01758 5.59863 6.55501 5.59863 5.95801C5.59863 4.96452 4.82845 4.46777 3.28809 4.46777H2.72754V7.83789Z" fill="black"/>
<path d="M9.38891 13.5117V2.71777H10.7356V13.5117H9.38891Z" fill="black"/>
<path d="M17.2534 12.5684C16.4468 13.3112 15.6698 13.6826 14.9224 13.6826C14.3071 13.6826 13.7967 13.4912 13.3911 13.1084C12.9855 12.721 12.7827 12.2334 12.7827 11.6455C12.7827 10.8343 13.1222 10.2122 13.8013 9.7793C14.4849 9.3418 15.4624 9.12305 16.7339 9.12305H17.0552V8.22754C17.0552 7.36621 16.6131 6.93555 15.729 6.93555C15.0181 6.93555 14.2502 7.1543 13.4253 7.5918V6.47754C14.3322 6.1084 15.1821 5.92383 15.9751 5.92383C16.8045 5.92383 17.4152 6.11068 17.8071 6.48438C18.2036 6.85807 18.4019 7.43913 18.4019 8.22754V11.5908C18.4019 12.361 18.6388 12.7461 19.1128 12.7461C19.172 12.7461 19.2586 12.737 19.3726 12.7188L19.4683 13.4639C19.1629 13.6097 18.8257 13.6826 18.4565 13.6826C17.8276 13.6826 17.4266 13.3112 17.2534 12.5684ZM17.0552 11.8369V9.91602L16.604 9.90234C15.8657 9.90234 15.2687 10.0436 14.813 10.3262C14.3573 10.6042 14.1294 10.971 14.1294 11.4268C14.1294 11.7503 14.2433 12.0238 14.4712 12.2471C14.6991 12.4704 14.977 12.582 15.3052 12.582C15.8657 12.582 16.4491 12.3337 17.0552 11.8369Z" fill="black"/>
<path d="M24.0375 13.6826C23.0349 13.6826 22.2032 13.3112 21.5424 12.5684C20.8816 11.8255 20.5512 10.889 20.5512 9.75879C20.5512 8.55111 20.877 7.61003 21.5287 6.93555C22.185 6.26107 23.0987 5.92383 24.2699 5.92383C24.8487 5.92383 25.4958 6.00358 26.2113 6.16309V7.29102C25.4503 7.06771 24.8305 6.95605 24.352 6.95605C23.6638 6.95605 23.1101 7.21582 22.6908 7.73535C22.2761 8.25033 22.0688 8.93848 22.0688 9.7998C22.0688 10.6338 22.283 11.3083 22.7113 11.8232C23.1397 12.3382 23.7003 12.5957 24.393 12.5957C25.0082 12.5957 25.6417 12.4385 26.2934 12.124V13.2861C25.4229 13.5505 24.671 13.6826 24.0375 13.6826Z" fill="black"/>
<path d="M28.2923 13.5117V2.71777H29.639V9.69043L32.7835 6.08789H34.2327L31.2318 9.55371L34.8548 13.5117H33.1321L29.639 9.7041V13.5117H28.2923Z" fill="black"/>
<path d="M40.8426 13.5117V3.39453H42.2781V13.5117H40.8426Z" fill="black"/>
<path d="M47.1277 13.6826C46.4441 13.6826 45.9109 13.4867 45.5281 13.0947C45.1452 12.7028 44.9538 12.1582 44.9538 11.4609V7.09961H44.0241V6.08789H44.9538V4.74121L46.3005 4.61133V6.08789H48.2419V7.09961H46.3005V11.2148C46.3005 12.1855 46.7198 12.6709 47.5583 12.6709C47.7361 12.6709 47.9525 12.6413 48.2077 12.582V13.5117C47.793 13.6257 47.433 13.6826 47.1277 13.6826Z" fill="black"/>
<path d="M53.9531 12.5684C53.1465 13.3112 52.3694 13.6826 51.622 13.6826C51.0068 13.6826 50.4964 13.4912 50.0908 13.1084C49.6852 12.721 49.4824 12.2334 49.4824 11.6455C49.4824 10.8343 49.8219 10.2122 50.501 9.7793C51.1845 9.3418 52.1621 9.12305 53.4336 9.12305H53.7549V8.22754C53.7549 7.36621 53.3128 6.93555 52.4287 6.93555C51.7178 6.93555 50.9498 7.1543 50.125 7.5918V6.47754C51.0319 6.1084 51.8818 5.92383 52.6748 5.92383C53.5042 5.92383 54.1149 6.11068 54.5068 6.48438C54.9033 6.85807 55.1015 7.43913 55.1015 8.22754V11.5908C55.1015 12.361 55.3385 12.7461 55.8125 12.7461C55.8717 12.7461 55.9583 12.737 56.0722 12.7188L56.1679 13.4639C55.8626 13.6097 55.5254 13.6826 55.1562 13.6826C54.5273 13.6826 54.1263 13.3112 53.9531 12.5684ZM53.7549 11.8369V9.91602L53.3037 9.90234C52.5654 9.90234 51.9684 10.0436 51.5127 10.3262C51.0569 10.6042 50.8291 10.971 50.8291 11.4268C50.8291 11.7503 50.943 12.0238 51.1709 12.2471C51.3987 12.4704 51.6767 12.582 52.0049 12.582C52.5654 12.582 53.1487 12.3337 53.7549 11.8369Z" fill="black"/>
<path d="M57.8388 13.5117V2.71777H59.1854V13.5117H57.8388Z" fill="black"/>
<path d="M61.8751 13.5117V6.08789H63.2218V13.5117H61.8751ZM61.8751 4.74121V3.39453H63.2218V4.74121H61.8751Z" fill="black"/>
<path d="M68.8099 13.6826C67.8073 13.6826 66.9756 13.3112 66.3148 12.5684C65.654 11.8255 65.3236 10.889 65.3236 9.75879C65.3236 8.55111 65.6495 7.61003 66.3012 6.93555C66.9574 6.26107 67.8711 5.92383 69.0424 5.92383C69.6211 5.92383 70.2683 6.00358 70.9838 6.16309V7.29102C70.2227 7.06771 69.6029 6.95605 69.1244 6.95605C68.4362 6.95605 67.8825 7.21582 67.4633 7.73535C67.0486 8.25033 66.8412 8.93848 66.8412 9.7998C66.8412 10.6338 67.0554 11.3083 67.4838 11.8232C67.9122 12.3382 68.4727 12.5957 69.1654 12.5957C69.7806 12.5957 70.4141 12.4385 71.0658 12.124V13.2861C70.1954 13.5505 69.4434 13.6826 68.8099 13.6826Z" fill="black"/>
</g>
<g id="ABCDEFGHIJKLM">
<path d="M12.5322 31.5156H8.44531L7.31152 33.9062H3.99805L10.7744 21.1094H13.6045L15.9688 33.9062H12.8398L12.5322 31.5156ZM9.57031 29.1338H12.2246L11.6621 24.7217L9.57031 29.1338Z" fill="black"/>
<path d="M16.9969 33.9062L19.2117 21.1094L23.281 21.1181C24.8865 21.124 26.0848 21.4287 26.8758 22.0322C27.6668 22.6357 28.0271 23.4824 27.9568 24.5722C27.8689 25.9199 27.1306 26.875 25.742 27.4375C26.24 27.6133 26.6267 27.9326 26.9021 28.3955C27.1834 28.8525 27.3035 29.4033 27.2625 30.0478C27.1805 31.2842 26.6912 32.2363 25.7947 32.9043C24.9041 33.5722 23.6824 33.9062 22.1297 33.9062H16.9969ZM20.9519 28.4658L20.4158 31.5332L22.2176 31.542C22.7801 31.542 23.2488 31.4043 23.6238 31.1289C23.9988 30.8476 24.2215 30.4756 24.2918 30.0127C24.4558 29.0342 24.0808 28.5215 23.1668 28.4746L20.9519 28.4658ZM21.2947 26.4443L22.7098 26.4531C24.0164 26.4238 24.7488 25.9228 24.907 24.9502C25.0476 23.9892 24.5496 23.5058 23.4129 23.5L21.8133 23.4912L21.2947 26.4443Z" fill="black"/>
<path d="M39.0822 29.5469C39.006 30.4433 38.7101 31.2402 38.1945 31.9375C37.6847 32.6347 37.0109 33.1709 36.173 33.5459C35.341 33.9209 34.4386 34.0996 33.466 34.082C32.13 34.0527 31.0783 33.6221 30.3107 32.79C29.5431 31.958 29.1242 30.8301 29.0539 29.4062C29.0011 28.457 29.1037 27.4228 29.3615 26.3037C29.6252 25.1846 30.05 24.2119 30.6359 23.3857C31.2277 22.5537 31.922 21.9326 32.7189 21.5224C33.5216 21.1064 34.3976 20.9072 35.3468 20.9248C36.7414 20.9482 37.8429 21.3672 38.6515 22.1816C39.466 22.9961 39.9084 24.1181 39.9787 25.5478L36.9816 25.539C36.9933 24.7597 36.8527 24.2031 36.5597 23.8691C36.2668 23.5351 35.8039 23.3564 35.1711 23.333C33.589 23.2803 32.6252 24.5107 32.2794 27.0244C32.1212 28.1611 32.0421 28.9726 32.0421 29.459C32.0128 30.9004 32.5461 31.6416 33.6418 31.6826C34.3507 31.706 34.9162 31.5332 35.338 31.164C35.7599 30.789 36.0294 30.2617 36.1466 29.582L39.0822 29.5469Z" fill="black"/>
<path d="M39.9012 33.9062L42.116 21.1094L45.8777 21.1181C46.9851 21.1181 47.9519 21.4111 48.7781 21.9971C49.6043 22.5771 50.1902 23.3711 50.5359 24.3789C50.8348 25.2637 50.9256 26.2187 50.8084 27.2441L50.7469 27.7803C50.5887 28.9287 50.2078 29.9687 49.6043 30.9004C49.0008 31.832 48.2244 32.5644 47.2752 33.0976C46.326 33.625 45.3006 33.8945 44.199 33.9062H39.9012ZM44.7176 23.4912L43.3201 31.5332L44.199 31.542C45.2303 31.542 46.0564 31.1435 46.6775 30.3467C47.3045 29.5498 47.6765 28.331 47.7937 26.6904L47.8113 26.4004C47.8523 25.4629 47.7058 24.751 47.3719 24.2646C47.0379 23.7783 46.5369 23.5234 45.8689 23.5L44.7176 23.4912Z" fill="black"/>
<path d="M59.9278 28.4834H55.2257L54.6895 31.5332H60.253L59.8399 33.9062H51.2706L53.4854 21.1094H62.0724L61.6593 23.4912H56.087L55.6124 26.1894H60.3233L59.9278 28.4834Z" fill="black"/>
<path d="M69.8489 28.8086H65.0237L64.136 33.9062H61.1301L63.345 21.1094H71.6682L71.2551 23.4912H65.9465L65.4368 26.4355H70.262L69.8489 28.8086Z" fill="black"/>
<path d="M81.3749 32.333C80.8945 32.8955 80.1943 33.332 79.2744 33.6426C78.3544 33.9472 77.3349 34.0908 76.2158 34.0732C75.1435 34.0615 74.2382 33.792 73.4999 33.2646C72.7617 32.7373 72.2343 32.0019 71.9179 31.0586C71.6015 30.1152 71.5165 29.0517 71.663 27.8681L71.7333 27.3408C72.0029 25.3545 72.7001 23.7812 73.8251 22.6211C74.956 21.4609 76.3388 20.8955 77.9736 20.9248C79.4033 20.9482 80.5019 21.332 81.2695 22.0762C82.037 22.8203 82.4648 23.8955 82.5527 25.3017L79.6699 25.293C79.6288 24.6074 79.4589 24.1064 79.1601 23.79C78.8671 23.4736 78.4482 23.3066 77.9033 23.289C77.0947 23.2597 76.4267 23.5791 75.8994 24.2471C75.372 24.9092 75.0117 25.8584 74.8183 27.0947C74.6542 28.1494 74.5956 28.9697 74.6425 29.5556C74.7304 30.9678 75.3661 31.6826 76.5497 31.7002C77.2646 31.7119 77.8915 31.539 78.4306 31.1816L78.8261 29.1865H76.7431L77.1122 27.0683H82.2011L81.3749 32.333Z" fill="black"/>
<path d="M93.1345 33.9062H90.1462L91.0691 28.5625H86.6833L85.7517 33.9062H82.7458L84.9607 21.1094H87.9753L87.0876 26.1894H91.4822L92.3611 21.1094H95.3581L93.1345 33.9062Z" fill="black"/>
<path d="M98.3023 33.9062H95.2964L97.52 21.1094H100.517L98.3023 33.9062Z" fill="black"/>
<path d="M107.652 21.1094H110.658L109.164 29.8896C108.982 31.1728 108.434 32.2012 107.52 32.9746C106.612 33.7422 105.543 34.1142 104.312 34.0908C103.076 34.0674 102.118 33.7041 101.438 33.001C100.765 32.2978 100.445 31.3076 100.48 30.0303L103.513 30.039V30.6455C103.536 31.3428 103.873 31.7002 104.523 31.7178C105.402 31.7353 105.953 31.0937 106.176 29.793L107.652 21.1094Z" fill="black"/>
<path d="M115.497 29.1777L113.933 30.6455L113.362 33.9062H110.356L112.571 21.1094H115.585L114.627 26.5849L115.875 25.0644L119.197 21.1094H123.1L117.791 26.9014L120.736 33.9062H117.299L115.497 29.1777Z" fill="black"/>
<path d="M125.051 31.5332H130.263L129.85 33.9062H121.632L123.847 21.1094H126.862L125.051 31.5332Z" fill="black"/>
<path d="M137.308 21.1094L138.53 29.9863L142.819 21.1094H146.827L144.612 33.9062H141.589L142.134 30.7685L143.434 24.9853L138.952 33.9062H136.957L135.507 24.6514L134.698 31.0674L134.197 33.9062H131.191L133.406 21.1094H137.308Z" fill="black"/>
</g>
<g id="NOPQRSTUVWXYZ">
<path d="M15.3975 54.9063H12.4883L9.42969 46.8291L8.02344 54.9063H5.01758L7.23242 42.1094H10.168L13.2178 50.1866L14.6152 42.1094H17.6211L15.3975 54.9063Z" fill="black"/>
<path d="M22.6572 55.0821C21.3271 55.0528 20.2607 54.6133 19.458 53.7637C18.6553 52.9141 18.2012 51.7774 18.0957 50.3536C18.0371 49.6504 18.0928 48.8243 18.2627 47.875C18.4326 46.92 18.7344 46.0411 19.168 45.2383C19.6016 44.4356 20.1436 43.7676 20.7939 43.2344C21.8838 42.3379 23.1377 41.9043 24.5557 41.9336C25.4287 41.9512 26.1904 42.1534 26.8408 42.5401C27.4971 42.9209 28.0215 43.4717 28.4141 44.1924C28.8066 44.9131 29.0352 45.7334 29.0996 46.6534C29.1465 47.3038 29.1055 48.045 28.9766 48.877C28.8535 49.7032 28.6221 50.4942 28.2822 51.25C27.9482 52 27.5146 52.6622 26.9814 53.2364C26.4482 53.8106 25.8184 54.2676 25.0918 54.6075C24.3711 54.9415 23.5596 55.0997 22.6572 55.0821ZM26.085 46.627C26.0264 45.1622 25.458 44.4004 24.3799 44.3418C23.5479 44.3008 22.8594 44.6319 22.3145 45.335C21.7695 46.0323 21.4092 47.0635 21.2334 48.4288C21.1221 49.2725 21.0811 49.9258 21.1104 50.3887C21.1689 51.877 21.7432 52.6416 22.833 52.6827C23.5479 52.7178 24.1631 52.4629 24.6787 51.918C25.1943 51.3672 25.5664 50.5704 25.7949 49.5274C26.0234 48.4786 26.1201 47.5118 26.085 46.627Z" fill="black"/>
<path d="M33.2796 50.5645L32.5237 54.9063H29.5179L31.7327 42.1094L36.3294 42.1182C37.7532 42.1182 38.8724 42.5137 39.6868 43.3047C40.5071 44.0958 40.8675 45.1211 40.7679 46.3809C40.6976 47.2422 40.4222 47.9893 39.9417 48.6221C39.4612 49.2549 38.8255 49.7383 38.0345 50.0723C37.2493 50.4063 36.3675 50.5733 35.389 50.5733L33.2796 50.5645ZM33.6927 48.1827L35.5032 48.2002C36.265 48.1827 36.848 47.9366 37.2523 47.462C37.6566 46.9815 37.8177 46.3926 37.7357 45.6954C37.6888 45.3379 37.5511 45.0567 37.3226 44.8516C37.0999 44.6407 36.804 44.5235 36.4349 44.5L34.3343 44.4913L33.6927 48.1827Z" fill="black"/>
<path d="M52.6191 48.7627C52.4492 49.9815 52.0977 51.0333 51.5645 51.918C51.0371 52.7969 50.3633 53.503 49.543 54.0362L51.2568 55.7325L49.2617 57.2442L46.9941 55.0381C46.666 55.0674 46.4199 55.0791 46.2559 55.0733C45.3945 55.0674 44.6299 54.8711 43.9619 54.4844C43.2998 54.0977 42.7754 53.5411 42.3887 52.8145C42.002 52.0879 41.7764 51.2559 41.7119 50.3184C41.665 49.6329 41.7148 48.8536 41.8613 47.9805C42.0078 47.1016 42.2686 46.2813 42.6436 45.5196C43.2061 44.377 43.9678 43.4893 44.9287 42.8565C45.8896 42.2178 46.9707 41.9102 48.1719 41.9336C49.0391 41.9512 49.8008 42.1534 50.457 42.5401C51.1133 42.9209 51.6377 43.4805 52.0303 44.2188C52.4287 44.9512 52.6602 45.7774 52.7246 46.6973C52.7598 47.2071 52.7451 47.7256 52.6807 48.253L52.6191 48.7627ZM49.71 46.627C49.6631 45.8594 49.4961 45.294 49.209 44.9307C48.9277 44.5674 48.5234 44.3711 47.9961 44.3418C47.1465 44.3125 46.4551 44.6465 45.9219 45.3438C45.3887 46.0411 45.0312 47.0752 44.8496 48.4463C44.7383 49.2666 44.6973 49.917 44.7266 50.3975C44.7852 51.8799 45.3594 52.6416 46.4492 52.6827C47.2402 52.7237 47.9023 52.4161 48.4355 51.7598C48.9746 51.0977 49.3438 50.1192 49.543 48.8243C49.6777 47.9161 49.7334 47.1836 49.71 46.627Z" fill="black"/>
<path d="M58.5921 50.3887H56.9222L56.1312 54.9063H53.1253L55.3401 42.1094L59.8577 42.1182C61.305 42.1182 62.4183 42.4581 63.1976 43.1377C63.9827 43.8116 64.3343 44.7344 64.2523 45.9063C64.1878 46.8321 63.9212 47.5997 63.4525 48.209C62.9837 48.8125 62.3275 49.2901 61.4837 49.6416L63.2064 54.7569V54.9063H59.9984L58.5921 50.3887ZM57.3265 48.0069L59.0843 48.0245C59.5648 48.0245 59.9808 47.9073 60.3323 47.6729C60.6898 47.4385 60.9446 47.1192 61.097 46.7149C61.2493 46.3047 61.2933 45.9092 61.2288 45.5284C61.1116 44.878 60.6956 44.5352 59.9808 44.5L57.9417 44.4913L57.3265 48.0069Z" fill="black"/>
<path d="M71.6297 51.4434C71.7586 50.7813 71.4012 50.2686 70.5574 49.9053L69.116 49.3077C67.0945 48.3995 66.1336 47.1631 66.2332 45.5987C66.2742 44.8838 66.5203 44.2481 66.9715 43.6915C67.4226 43.129 68.0467 42.6924 68.8435 42.3819C69.6404 42.0713 70.5105 41.9219 71.4539 41.9336C72.7195 41.9571 73.7361 42.3262 74.5037 43.0411C75.2771 43.7559 75.658 44.7139 75.6463 45.9151H72.658C72.6756 45.4229 72.5701 45.0303 72.3416 44.7374C72.1189 44.4385 71.7498 44.2833 71.2342 44.2715C70.7303 44.2598 70.2849 44.377 69.8982 44.6231C69.5115 44.8692 69.283 45.2002 69.2127 45.6163C69.1013 46.2022 69.5349 46.6827 70.5135 47.0577C71.4978 47.4327 72.2127 47.7549 72.658 48.0245C74.0584 48.8624 74.7146 49.9932 74.6267 51.417C74.5799 52.1553 74.3426 52.8028 73.9148 53.3594C73.4871 53.9161 72.8924 54.3467 72.1306 54.6514C71.3748 54.9561 70.5252 55.1026 69.5818 55.0909C68.8904 55.0791 68.2488 54.9708 67.657 54.7657C67.0652 54.5606 66.5584 54.2618 66.1365 53.8692C65.281 53.0782 64.8709 52.0381 64.906 50.7491L67.9207 50.7579C67.8855 51.4141 68.0115 51.9122 68.2986 52.252C68.5857 52.586 69.0691 52.753 69.7488 52.753C70.2527 52.753 70.6717 52.6387 71.0056 52.4102C71.3455 52.1758 71.5535 51.8536 71.6297 51.4434Z" fill="black"/>
<path d="M87.1917 44.4913H83.4651L81.6634 54.9063H78.6487L80.4593 44.4913H76.7943L77.2161 42.1094H87.6048L87.1917 44.4913Z" fill="black"/>
<path d="M98.7266 42.1094L97.3027 50.459C97.0977 51.9063 96.5 53.0459 95.5098 53.878C94.5254 54.71 93.2832 55.1143 91.7832 55.0909C90.8516 55.0733 90.043 54.8741 89.3574 54.4932C88.6719 54.1065 88.165 53.5645 87.8369 52.8672C87.5146 52.1641 87.4062 51.3643 87.5117 50.4678L88.9355 42.1094H91.959L90.5439 50.4766C90.5088 50.7696 90.5029 51.0479 90.5264 51.3116C90.5557 51.7452 90.6904 52.0821 90.9307 52.3223C91.1768 52.5625 91.5225 52.6915 91.9678 52.709C93.2568 52.75 94.0332 52.003 94.2969 50.4678L95.7207 42.1094H98.7266Z" fill="black"/>
<path d="M103.84 51.3907L107.76 42.1094H111.205L105.018 54.9063H101.731L99.5863 42.1094H102.838L103.84 51.3907Z" fill="black"/>
<path d="M120.46 50.0987L123.132 42.1094H126.173L121.532 54.9063H118.421L117.902 47.6553L115.143 54.9063H112.031L111.39 42.1094H114.317L114.492 50.0635L117.428 42.1094H119.986L120.46 50.0987Z" fill="black"/>
<path d="M131.299 46.3458L133.988 42.1094H137.557L133.004 48.5782L135.509 54.9063H132.178L130.771 50.5909L128.012 54.9063H124.417L129.075 48.3321L126.649 42.1094H129.945L131.299 46.3458Z" fill="black"/>
<path d="M142.285 47.6465L145.52 42.1094H148.903L143.384 50.4502L142.619 54.9063H139.561L140.387 50.1602L137.829 42.1182L140.958 42.1094L142.285 47.6465Z" fill="black"/>
<path d="M151.413 52.5157L157.311 52.5333L156.898 54.9063H147.212L147.52 53.1485L154.894 44.5088L148.979 44.4913L149.401 42.1094H159.06L158.761 43.8233L151.413 52.5157Z" fill="black"/>
</g>
<g id="abcdefghijklm">
<path d="M10.2471 75.9062C10.1651 75.6777 10.124 75.3906 10.124 75.0449C9.47366 75.7597 8.69729 76.1054 7.79494 76.082C6.96877 76.0703 6.28323 75.7949 5.7383 75.2558C5.19338 74.7168 4.9385 74.0634 4.97366 73.2959C5.00295 72.2646 5.43362 71.4736 6.26565 70.9228C7.09768 70.3662 8.2344 70.0878 9.6758 70.0878L10.6426 70.1054L10.7481 69.5693L10.7832 69.1035C10.7598 68.5703 10.4932 68.2949 9.98342 68.2773C9.35061 68.2656 8.96096 68.6142 8.81448 69.3232L5.91408 69.332C5.94338 68.6933 6.15139 68.1396 6.53811 67.6709C6.92483 67.1962 7.44924 66.833 8.11135 66.581C8.77932 66.3232 9.4883 66.2031 10.2383 66.2207C10.959 66.2382 11.5889 66.3906 12.128 66.6777C12.6729 66.9589 13.0801 67.3544 13.3496 67.8642C13.6192 68.3681 13.7217 68.9511 13.6572 69.6132L12.9453 74.0869L12.9014 74.6318C12.878 75.0654 12.9336 75.4345 13.0684 75.7392L13.0596 75.9062H10.2471ZM8.59475 73.9902C9.18655 74.0136 9.7051 73.7529 10.1504 73.208L10.4405 71.6787L9.69338 71.6699C9.23049 71.6816 8.83205 71.8193 8.49807 72.083C8.16408 72.3408 7.9678 72.6953 7.9092 73.1464C7.8799 73.3867 7.92385 73.5859 8.04104 73.7441C8.16408 73.8964 8.34865 73.9785 8.59475 73.9902Z" fill="black"/>
<path d="M23.615 71.1689C23.4334 72.7099 22.9793 73.9228 22.2527 74.8076C21.5262 75.6923 20.5711 76.1201 19.3875 76.0908C18.45 76.0673 17.7293 75.6748 17.2254 74.913L16.865 75.9062H14.2459L16.5926 62.4062H19.4842L18.5438 67.1787C19.1824 66.5283 19.8943 66.2089 20.6795 66.2207C21.6111 66.2324 22.3377 66.5664 22.8592 67.2226C23.3807 67.873 23.6561 68.7607 23.6854 69.8857C23.6912 70.2607 23.6766 70.6269 23.6414 70.9843L23.615 71.1689ZM20.741 70.9931C20.7879 70.6357 20.8143 70.2959 20.8201 69.9736C20.8201 69.0302 20.4832 68.538 19.8094 68.497C19.2117 68.4736 18.7107 68.7285 18.3065 69.2617L17.6209 73.0585C17.8025 73.5449 18.201 73.7939 18.8162 73.8056C19.7596 73.8349 20.3543 73.2197 20.6004 71.9599L20.7234 71.1777L20.741 70.9931Z" fill="black"/>
<path d="M28.5421 73.8056C28.9581 73.8173 29.2833 73.7031 29.5177 73.4628C29.7521 73.2168 29.9015 72.9003 29.9659 72.5136L32.673 72.5048C32.6378 73.2021 32.4298 73.8261 32.0489 74.3769C31.6739 74.9277 31.1642 75.3554 30.5196 75.6601C29.881 75.9589 29.1954 76.0996 28.463 76.082C27.1974 76.0585 26.2218 75.6044 25.5363 74.7197C24.8507 73.8291 24.5724 72.6806 24.7013 71.2744L24.7277 71.0634C24.8331 70.1025 25.1027 69.2529 25.5363 68.5146C25.9698 67.7705 26.5382 67.1962 27.2413 66.7919C27.9503 66.3876 28.7413 66.1972 29.6144 66.2207C30.7218 66.2441 31.5948 66.5986 32.2335 67.2841C32.878 67.9638 33.1886 68.8837 33.1652 70.0439L30.4581 70.0351C30.4874 69.0273 30.1271 68.5146 29.3771 68.497C28.3575 68.4619 27.7716 69.3203 27.6193 71.0722L27.5402 71.9687L27.5314 72.3027C27.5314 73.2871 27.8683 73.788 28.5421 73.8056Z" fill="black"/>
<path d="M33.768 71.1337C33.9496 69.6337 34.4067 68.4326 35.1391 67.5302C35.8715 66.6279 36.8266 66.1914 38.0043 66.2207C38.8129 66.2441 39.4838 66.5839 40.017 67.2402L40.9399 62.4062H43.8403L41.5024 75.9062H38.9272L39.0502 74.8779C38.3412 75.7099 37.5532 76.1142 36.686 76.0908C35.7719 76.0791 35.0541 75.7421 34.5327 75.08C34.017 74.4121 33.7416 73.5185 33.7065 72.3994C33.6948 72.0302 33.7065 71.6699 33.7416 71.3183L33.768 71.1337ZM36.6508 71.3271C36.6039 71.7021 36.5834 72.0302 36.5893 72.3115C36.5893 73.2841 36.9174 73.7793 37.5737 73.7968C38.142 73.8144 38.6489 73.5419 39.0942 72.9794L39.7446 69.332C39.5512 68.7929 39.1645 68.5146 38.5844 68.497C38.0453 68.4853 37.6088 68.7197 37.2748 69.2001C36.9467 69.6748 36.7387 70.3837 36.6508 71.3271Z" fill="black"/>
<path d="M47.9414 76.082C47.0918 76.0761 46.333 75.8769 45.665 75.4843C45.0029 75.0859 44.5019 74.5351 44.1621 73.832C43.8222 73.123 43.6875 72.3437 43.7578 71.4941L43.7841 71.248C43.9423 69.6835 44.4843 68.4472 45.4101 67.539C46.3418 66.625 47.4814 66.1855 48.8291 66.2207C49.6435 66.2324 50.3408 66.4404 50.9209 66.8447C51.5009 67.2431 51.9257 67.7968 52.1953 68.5058C52.4648 69.2089 52.5527 70 52.459 70.8789L52.292 72.083H46.6318C46.6435 72.581 46.7841 72.9853 47.0537 73.2959C47.3232 73.6064 47.7158 73.7705 48.2314 73.788C49.0693 73.8115 49.8222 73.4892 50.4902 72.8212L51.7031 74.4296C51.3457 74.9394 50.8447 75.3408 50.2002 75.6337C49.5615 75.9209 48.8613 76.0703 48.0996 76.082H47.9414ZM48.6445 68.497C48.2343 68.4853 47.8769 68.6142 47.5722 68.8837C47.2734 69.1533 47.0127 69.6044 46.79 70.2373H49.6816L49.7343 69.9824C49.7695 69.7773 49.7754 69.5839 49.7519 69.4023C49.6523 68.8164 49.2832 68.5146 48.6445 68.497Z" fill="black"/>
<path d="M53.4469 75.9062L54.7389 68.4531H53.403L53.7545 66.3964L55.0905 66.3876L55.2047 65.5527C55.3512 64.539 55.7555 63.7334 56.4176 63.1357C57.1266 62.5029 58.0495 62.1923 59.1862 62.2041C59.4792 62.2041 59.9567 62.2685 60.6188 62.3974L60.3991 64.5859C60.1295 64.5156 59.901 64.4804 59.7135 64.4804C59.2858 64.4804 58.9313 64.58 58.6501 64.7793C58.3747 64.9726 58.1989 65.2539 58.1227 65.623L57.9909 66.3964H59.7926L59.4411 68.4531H57.6393L56.3473 75.9062H53.4469Z" fill="black"/>
<path d="M59.5189 71.1337C59.6302 70.1787 59.891 69.3144 60.3011 68.541C60.7172 67.7675 61.2357 67.1845 61.8568 66.7919C62.4779 66.3935 63.181 66.2001 63.9662 66.2119C64.9213 66.2353 65.642 66.5781 66.1283 67.2402L66.4359 66.3876L69.1078 66.3964L67.5521 75.5371C67.3763 76.8261 66.8109 77.8427 65.8558 78.5869C64.9007 79.331 63.7113 79.6855 62.2875 79.6503C61.6547 79.6386 61.0424 79.5126 60.4506 79.2724C59.8588 79.0322 59.3519 78.6689 58.93 78.1826L60.3011 76.4775C60.8109 77.122 61.473 77.4531 62.2875 77.4707C63.5707 77.4941 64.3851 76.8115 64.7308 75.4228L64.8011 75.1328C64.1449 75.7773 63.4213 76.0937 62.6302 76.082C62.0209 76.0761 61.4847 75.9238 61.0218 75.625C60.559 75.3203 60.1957 74.8837 59.932 74.3154C59.6683 73.747 59.5189 73.1142 59.4838 72.4169C59.4603 72.0654 59.472 71.6376 59.5189 71.1337ZM62.3754 72.0742C62.3754 72.6132 62.472 73.0322 62.6654 73.331C62.8588 73.6298 63.14 73.7851 63.5091 73.7968C64.0541 73.8203 64.5492 73.6093 64.9945 73.164L65.7416 69.1298C65.5072 68.7197 65.1146 68.5087 64.5638 68.497C64.0013 68.4853 63.5297 68.7255 63.1488 69.2177C62.7679 69.7041 62.5277 70.3457 62.4281 71.1425C62.3929 71.5117 62.3754 71.8222 62.3754 72.0742Z" fill="black"/>
<path d="M73.3439 67.4335C74.0529 66.6074 74.8703 66.2001 75.7961 66.2119C76.7511 66.2353 77.4572 66.5839 77.9142 67.2578C78.3771 67.9316 78.5441 68.8457 78.4152 70L77.4308 75.9062H74.5392L75.5324 69.9648C75.5558 69.7656 75.5617 69.5781 75.55 69.4023C75.5089 68.8222 75.1867 68.5234 74.5832 68.5058C74.0617 68.4941 73.5988 68.6845 73.1945 69.0771L71.9816 75.9062H69.09L71.4367 62.4062H74.3283L73.3439 67.4335Z" fill="black"/>
<path d="M82.1629 75.9062H79.2625L80.9149 66.3964H83.8153L82.1629 75.9062ZM81.1698 63.997C81.158 63.5693 81.3075 63.2119 81.618 62.9248C81.9344 62.6376 82.3153 62.4941 82.7606 62.4941C83.2118 62.4941 83.5868 62.623 83.8856 62.8808C84.1903 63.1386 84.3485 63.4755 84.3602 63.8916C84.3719 64.3251 84.2225 64.6855 83.9119 64.9726C83.6014 65.2539 83.2205 65.3945 82.7694 65.3945C82.3299 65.3945 81.9549 65.2685 81.6444 65.0166C81.3397 64.7587 81.1815 64.4189 81.1698 63.997Z" fill="black"/>
<path d="M88.7637 66.3964L87.1026 76.205C86.962 77.3359 86.5342 78.2148 85.8194 78.8418C85.1045 79.4746 84.1963 79.7851 83.0948 79.7734C82.6553 79.7617 82.1719 79.706 81.6446 79.6064L81.8819 77.3564C82.2042 77.4267 82.4708 77.4619 82.6817 77.4619C83.5313 77.4736 84.0352 77.0224 84.1934 76.1084L85.8633 66.3964H88.7637ZM86.0831 63.997C86.0713 63.5634 86.2237 63.206 86.5401 62.9248C86.8565 62.6435 87.2344 62.5029 87.6739 62.5029C88.1192 62.4912 88.4942 62.6171 88.7989 62.8808C89.1036 63.1386 89.2618 63.4755 89.2735 63.8916C89.2852 64.3076 89.1387 64.6591 88.834 64.9462C88.5352 65.2334 88.1514 65.3828 87.6827 65.3945C87.2374 65.3945 86.8624 65.2656 86.5577 65.0078C86.253 64.7441 86.0948 64.4072 86.0831 63.997Z" fill="black"/>
<path d="M93.2126 72.3994L92.1579 73.3134L91.7096 75.9062H88.818L91.1647 62.3974H94.0563L92.7204 69.6044L93.072 69.1826L95.6999 66.3964H99.3649L95.322 70.4394L97.7741 75.9062H94.6012L93.2126 72.3994Z" fill="black"/>
<path d="M101.487 75.9062H98.5863L100.924 62.4062H103.825L101.487 75.9062Z" fill="black"/>
<path d="M107.692 66.3876L107.499 67.5302C108.26 66.6337 109.186 66.1972 110.276 66.2207C110.85 66.2324 111.322 66.3671 111.691 66.625C112.06 66.8828 112.306 67.2255 112.429 67.6533C113.267 66.6748 114.231 66.1972 115.321 66.2207C116.2 66.2382 116.85 66.5693 117.272 67.2138C117.7 67.8525 117.855 68.7548 117.738 69.9209L116.745 75.9062H113.844L114.855 69.9121L114.89 69.3935C114.89 68.8134 114.618 68.5146 114.073 68.497C113.563 68.497 113.088 68.7578 112.649 69.2793L111.498 75.9062H108.597L109.599 69.9296L109.634 69.4023C109.634 68.7988 109.362 68.497 108.817 68.497C108.319 68.497 107.85 68.7578 107.411 69.2793L106.242 75.9062H103.35L105.003 66.3964L107.692 66.3876Z" fill="black"/>
</g>
<g id="nopqrstuvwxyz">
<path d="M9.1748 87.3877L8.97266 88.5303C9.73438 87.6279 10.6514 87.1885 11.7236 87.2119C12.6025 87.2295 13.2559 87.5576 13.6836 88.1963C14.1172 88.8291 14.2754 89.7373 14.1582 90.9209L13.1562 96.9062H10.2559L11.2666 90.9033C11.29 90.6982 11.2959 90.5107 11.2842 90.3408C11.2432 89.7842 10.915 89.5059 10.2998 89.5059C9.79004 89.4941 9.32422 89.7197 8.90234 90.1826L7.71582 96.9062H4.82422L6.47656 87.3965L9.1748 87.3877Z" fill="black"/>
<path d="M20.3597 87.2207C21.2093 87.2324 21.9446 87.4463 22.5657 87.8623C23.1868 88.2725 23.6409 88.8467 23.928 89.585C24.221 90.3232 24.3265 91.1436 24.2444 92.0459L24.2269 92.2393C24.0628 93.6982 23.5208 94.876 22.6009 95.7725C21.681 96.6689 20.5443 97.1055 19.1907 97.082C18.347 97.0703 17.6175 96.8623 17.0023 96.458C16.387 96.0479 15.93 95.4766 15.6312 94.7441C15.3382 94.0117 15.2327 93.1973 15.3148 92.3008C15.4612 90.7422 15.9944 89.5 16.9144 88.5742C17.8401 87.6484 18.9886 87.1973 20.3597 87.2207ZM18.2064 92.3008L18.18 92.8193C18.098 94.126 18.4964 94.791 19.3753 94.8145C20.512 94.8496 21.1712 93.9268 21.3528 92.0459L21.388 91.2461C21.3997 90.7188 21.3001 90.2998 21.0892 89.9893C20.8841 89.6729 20.5794 89.5088 20.1751 89.4971C19.6419 89.4795 19.2025 89.6992 18.8568 90.1562C18.5169 90.6074 18.3001 91.3223 18.2064 92.3008Z" fill="black"/>
<path d="M34.1022 92.1602C33.9791 93.1562 33.7184 94.0439 33.3199 94.8232C32.9215 95.5967 32.4264 96.1738 31.8346 96.5547C31.2487 96.9297 30.5924 97.1084 29.8658 97.0908C29.0338 97.0674 28.36 96.7393 27.8444 96.1064L26.983 100.562H24.0914L26.3766 87.3965L29.0485 87.3877L28.899 88.293C29.5377 87.5547 30.2907 87.1973 31.1578 87.2207C32.0836 87.2324 32.8043 87.5635 33.3199 88.2139C33.8414 88.8643 34.1198 89.752 34.1549 90.877C34.1666 91.2402 34.149 91.668 34.1022 92.1602ZM31.2897 90.9824C31.2604 90.0156 30.9323 89.5234 30.3053 89.5059C29.6959 89.4707 29.1891 89.7197 28.7848 90.2529L28.108 94.0234C28.2897 94.5332 28.694 94.7939 29.3209 94.8057C30.3463 94.8232 30.9762 93.9414 31.2106 92.1602C31.2633 91.5977 31.2897 91.2051 31.2897 90.9824Z" fill="black"/>
<path d="M35.0917 92.1074C35.2089 91.1348 35.4609 90.2617 35.8476 89.4883C36.2343 88.709 36.7206 88.1318 37.3066 87.7568C37.8984 87.3818 38.5693 87.2031 39.3193 87.2207C40.2685 87.2441 40.9892 87.6484 41.4814 88.4336L41.9296 87.3877L44.4697 87.3965L42.1845 100.562H39.2841L40.1718 96.0977C39.5331 96.7773 38.8095 97.1055 38.0009 97.082C37.1044 97.0703 36.3955 96.7334 35.874 96.0713C35.3525 95.4092 35.0742 94.5098 35.039 93.373C35.0273 93.0332 35.0449 92.6113 35.0917 92.1074ZM37.9218 93.0215C37.8808 93.543 37.9423 93.9678 38.1064 94.2959C38.2705 94.6182 38.5341 94.7852 38.8974 94.7969C39.4892 94.8203 39.9931 94.5654 40.4091 94.0322L41.0859 90.2441C40.9101 89.7637 40.5205 89.5117 39.9169 89.4883C38.8564 89.4707 38.2148 90.3438 37.9921 92.1074L37.9218 93.0215Z" fill="black"/>
<path d="M51.3743 90.0771C51.0637 90.0303 50.7649 90.001 50.4778 89.9893C49.6106 89.9658 48.9485 90.2646 48.4915 90.8857L47.4192 96.9062H44.5276L46.1799 87.3965L48.8782 87.3877L48.6585 88.6357C49.2795 87.6748 50.012 87.1943 50.8557 87.1943C51.096 87.1943 51.3948 87.2354 51.7522 87.3174L51.3743 90.0771Z" fill="black"/>
<path d="M56.579 94.1816C56.6552 93.7949 56.3563 93.5049 55.6825 93.3115L55.0585 93.1533C54.0389 92.8838 53.2919 92.5059 52.8173 92.0195C52.3427 91.5332 52.12 90.9561 52.1493 90.2881C52.1786 89.374 52.5829 88.6328 53.3622 88.0645C54.1473 87.4902 55.1024 87.209 56.2274 87.2207C57.3466 87.2324 58.2518 87.5166 58.9432 88.0732C59.6405 88.6299 59.995 89.3799 60.0067 90.3232L57.1239 90.3145C57.1473 89.5645 56.8163 89.1895 56.1307 89.1895C55.8378 89.1895 55.5653 89.2773 55.3134 89.4531C55.0614 89.623 54.912 89.8516 54.8651 90.1387C54.7655 90.6133 55.1845 90.9385 56.122 91.1143C56.9364 91.3076 57.5663 91.5332 58.0116 91.791C58.4569 92.043 58.7968 92.3564 59.0311 92.7314C59.2655 93.1064 59.3739 93.5576 59.3563 94.085C59.3388 94.6592 59.1513 95.1719 58.7938 95.623C58.4364 96.0742 57.9179 96.4346 57.2382 96.7041C56.5643 96.9736 55.8319 97.0996 55.0409 97.082C54.3554 97.0762 53.7167 96.9326 53.1249 96.6514C52.5389 96.3701 52.079 95.9893 51.745 95.5088C51.4169 95.0225 51.247 94.4658 51.2352 93.8389L53.9247 93.8564C53.9364 94.7002 54.3583 95.1162 55.1903 95.1045C55.5477 95.1045 55.8524 95.0254 56.1044 94.8672C56.3563 94.7031 56.5145 94.4746 56.579 94.1816Z" fill="black"/>
<path d="M65.6721 85.0322L65.259 87.3965H66.7795L66.4191 89.4531H64.8986L64.1603 93.8213C64.1193 94.1201 64.1369 94.3457 64.2131 94.498C64.2951 94.6504 64.4943 94.7324 64.8107 94.7441C64.9338 94.75 65.1857 94.7354 65.5666 94.7002L65.3557 96.8447C64.8693 97.0029 64.3508 97.0762 63.8 97.0645C62.9035 97.0527 62.2326 96.7891 61.7873 96.2734C61.342 95.7578 61.1603 95.0576 61.2424 94.1729L62.0158 89.4531H60.8381L61.1896 87.3965H62.3674L62.7805 85.0322H65.6721Z" fill="black"/>
<path d="M72.2093 95.8691C71.5003 96.707 70.6449 97.1143 69.6429 97.0908C68.7113 97.0791 68.0082 96.7539 67.5335 96.1152C67.0648 95.4766 66.8832 94.6211 66.9886 93.5488L68.0169 87.3965H70.9085L69.8626 93.584C69.8451 93.7539 69.8451 93.9092 69.8626 94.0498C69.9037 94.5303 70.1878 94.7793 70.7152 94.7969C71.3246 94.8203 71.8431 94.5801 72.2709 94.0762L73.4486 87.3965H76.3578L74.7054 96.9062H72.016L72.2093 95.8691Z" fill="black"/>
<path d="M80.5553 93.3467L82.9372 87.3965H86.0573L81.5573 96.9062H78.613L77.0924 87.3965H80.0631L80.5553 93.3467Z" fill="black"/>
<path d="M93.9744 92.9951L95.8817 87.3965H98.7117L94.8885 96.9062H92.4539L91.909 91.2988L89.4041 96.9062H86.952L86.4246 87.3965H89.1404L89.0526 93.0566L91.4871 87.3965H93.4998L93.9744 92.9951Z" fill="black"/>
<path d="M102.962 89.998L104.711 87.3965H107.84L104.597 92.1602L106.337 96.9062H103.454L102.452 94.1113L100.598 96.9062H97.4337L100.844 91.8965L99.1827 87.3965H102.092L102.962 89.998Z" fill="black"/>
<path d="M111.556 92.7227L114.017 87.3965H117.207L111.635 98.3301C111.219 99.1914 110.739 99.8125 110.194 100.193C109.655 100.58 109.01 100.773 108.26 100.773C107.926 100.773 107.501 100.709 106.986 100.58L107.205 98.4619H107.539C107.897 98.4619 108.21 98.4033 108.48 98.2861C108.749 98.1748 108.975 97.9551 109.157 97.627L109.57 96.8359L108.049 87.3965H111.037L111.556 92.7227Z" fill="black"/>
<path d="M120.175 94.6035L124.341 94.6211L123.945 96.9062H116.088L116.395 95.1309L121.396 89.6992L117.52 89.6816L117.916 87.3965H125.501L125.202 89.1279L120.175 94.6035Z" fill="black"/>
</g>
<g id="1234567890">
<path d="M11.2227 117.906H8.32227L9.95703 108.502L6.97754 109.346L7.38184 106.999L13.042 105.109L13.3672 105.101L11.2227 117.906Z" fill="black"/>
<path d="M23.8002 117.906H15.1254L15.4418 115.867L19.9945 111.64L20.6186 111.016C21.5971 110.031 22.0453 109.103 21.9633 108.23C21.8988 107.55 21.5473 107.201 20.9086 107.184C20.4574 107.172 20.0736 107.356 19.7572 107.737C19.4467 108.112 19.2533 108.605 19.1772 109.214L16.3031 109.231C16.35 108.429 16.5932 107.696 17.0326 107.034C17.4721 106.366 18.058 105.845 18.7904 105.47C19.5287 105.095 20.3139 104.91 21.1459 104.916C22.394 104.94 23.3608 105.279 24.0463 105.936C24.7318 106.586 25.0307 107.468 24.9428 108.581C24.89 109.237 24.6733 109.876 24.2924 110.497C23.9174 111.118 23.3695 111.772 22.6488 112.457L21.3129 113.688L19.3266 115.604L24.1606 115.621L23.8002 117.906Z" fill="black"/>
<path d="M29.1356 110.269L30.4276 110.277C30.9549 110.266 31.3885 110.113 31.7283 109.82C32.0682 109.522 32.2703 109.106 32.3348 108.572C32.3817 108.174 32.3026 107.846 32.0975 107.588C31.8924 107.33 31.5848 107.198 31.1746 107.192C30.7938 107.181 30.4569 107.286 30.1639 107.509C29.8709 107.731 29.6834 108.027 29.6014 108.397L26.701 108.414C26.7362 107.723 26.9588 107.11 27.369 106.577C27.7791 106.044 28.324 105.634 29.0037 105.347C29.6893 105.054 30.4246 104.91 31.2098 104.916C32.4988 104.945 33.5125 105.285 34.2508 105.936C34.9891 106.58 35.326 107.441 35.2615 108.52C35.1854 109.727 34.3973 110.682 32.8973 111.385C33.4656 111.666 33.8904 112.056 34.1717 112.554C34.4529 113.052 34.5789 113.614 34.5496 114.241C34.5086 115.026 34.2596 115.712 33.8026 116.298C33.3455 116.878 32.7332 117.326 31.9656 117.643C31.1981 117.953 30.3748 118.1 29.4959 118.082C28.7283 118.076 28.0311 117.915 27.4041 117.599C26.783 117.276 26.3055 116.834 25.9715 116.272C25.6375 115.709 25.4735 115.065 25.4793 114.338H28.3621C28.368 114.754 28.491 115.097 28.7313 115.366C28.9715 115.636 29.3084 115.776 29.742 115.788C30.2283 115.8 30.659 115.656 31.034 115.357C31.409 115.059 31.6317 114.666 31.702 114.18C31.7723 113.658 31.6932 113.251 31.4647 112.958C31.242 112.659 30.867 112.501 30.3397 112.483L28.7928 112.475L29.1356 110.269Z" fill="black"/>
<path d="M43.9016 112.905H45.1584L44.7629 115.19H43.5061L43.0315 117.906H40.1399L40.6145 115.19H35.8244L35.9826 113.239L42.2668 105.136V105.074L45.2551 105.118L43.9016 112.905ZM38.8303 112.888L41.01 112.905L41.7834 108.933L38.8303 112.888Z" fill="black"/>
<path d="M46.8463 111.613L48.6217 105.109H55.9166L55.5475 107.412H50.652L49.8698 109.97C50.3444 109.665 50.9332 109.507 51.6364 109.495C52.7614 109.495 53.6256 109.885 54.2291 110.664C54.8385 111.443 55.0905 112.463 54.985 113.723C54.8795 115.023 54.3727 116.084 53.4645 116.904C52.5563 117.719 51.4577 118.114 50.1686 118.091C49.4127 118.073 48.7243 117.898 48.1032 117.564C47.4879 117.23 47.0104 116.775 46.6705 116.201C46.3307 115.621 46.1637 114.974 46.1696 114.259H49.0524C49.0641 114.716 49.1784 115.082 49.3952 115.357C49.6119 115.633 49.9166 115.776 50.3092 115.788C50.7897 115.806 51.1881 115.627 51.5045 115.252C51.8209 114.871 52.0231 114.294 52.111 113.521C52.1696 112.87 52.0817 112.378 51.8473 112.044C51.6129 111.704 51.2467 111.534 50.7487 111.534C50.11 111.534 49.5914 111.751 49.193 112.185L46.8463 111.613Z" fill="black"/>
<path d="M64.8643 104.916L64.6358 107.254H64.3721C63.376 107.266 62.5 107.529 61.7442 108.045C60.9942 108.561 60.3965 109.305 59.9512 110.277C60.6719 109.592 61.5127 109.261 62.4737 109.284C63.1592 109.296 63.7393 109.492 64.2139 109.873C64.6885 110.248 65.0372 110.77 65.2598 111.438C65.4883 112.1 65.5704 112.823 65.5059 113.608C65.4415 114.399 65.2012 115.132 64.7852 115.806C64.3692 116.48 63.8213 117.019 63.1416 117.423C62.3624 117.886 61.5274 118.108 60.6368 118.091C59.7637 118.079 59.0108 117.845 58.378 117.388C57.7452 116.931 57.2823 116.31 56.9893 115.524C56.6963 114.733 56.5997 113.869 56.6993 112.932L56.8311 111.851C57.001 110.556 57.4317 109.378 58.1231 108.317C58.8204 107.251 59.711 106.422 60.795 105.83C61.8848 105.232 63.0625 104.928 64.3282 104.916H64.8643ZM61.3575 111.534C60.7012 111.511 60.1358 111.824 59.6612 112.475C59.5499 113.295 59.4942 113.857 59.4942 114.162C59.4942 114.678 59.5997 115.079 59.8106 115.366C60.0215 115.648 60.3262 115.791 60.7247 115.797C61.3106 115.809 61.7852 115.516 62.1485 114.918C62.5176 114.315 62.667 113.644 62.5967 112.905C62.5557 112.495 62.4268 112.167 62.21 111.921C61.9932 111.669 61.709 111.54 61.3575 111.534Z" fill="black"/>
<path d="M76.4751 106.823L70.1645 117.906H67.0004L73.2846 107.395H67.4223L67.7915 105.109H76.7475L76.4751 106.823Z" fill="black"/>
<path d="M86.2665 108.458C86.1844 109.7 85.4608 110.67 84.0956 111.367C84.5878 111.719 84.954 112.147 85.1942 112.65C85.4344 113.154 85.534 113.708 85.493 114.312C85.4169 115.489 84.9335 116.418 84.0428 117.098C83.1581 117.777 82.0594 118.106 80.7469 118.082C80.1727 118.076 79.6307 117.988 79.121 117.818C78.6112 117.648 78.1747 117.394 77.8114 117.054C77.0848 116.386 76.7596 115.519 76.8358 114.452C76.9178 113.064 77.7528 112 79.3407 111.262C78.4735 110.588 78.0692 109.703 78.1278 108.607C78.1688 107.863 78.3885 107.21 78.787 106.648C79.1854 106.085 79.7186 105.654 80.3866 105.356C81.0604 105.051 81.8016 104.907 82.6102 104.925C83.7821 104.948 84.702 105.285 85.37 105.936C86.0438 106.586 86.3426 107.427 86.2665 108.458ZM82.6454 114.074C82.6981 113.617 82.6249 113.242 82.4257 112.949C82.2323 112.656 81.9364 112.504 81.538 112.492C81.0868 112.481 80.6971 112.639 80.369 112.967C80.0409 113.289 79.8446 113.705 79.7801 114.215C79.7274 114.695 79.8036 115.079 80.0087 115.366C80.2196 115.648 80.5243 115.794 80.9227 115.806C81.3563 115.817 81.7342 115.665 82.0565 115.349C82.3788 115.032 82.5751 114.607 82.6454 114.074ZM83.3485 108.616C83.3954 108.183 83.3339 107.84 83.1639 107.588C82.994 107.33 82.745 107.201 82.4169 107.201C82.036 107.19 81.7137 107.327 81.4501 107.614C81.1923 107.901 81.034 108.282 80.9755 108.757C80.9286 109.19 80.9901 109.545 81.16 109.82C81.3299 110.09 81.5819 110.225 81.9159 110.225C82.285 110.236 82.6014 110.096 82.8651 109.803C83.1288 109.51 83.2899 109.114 83.3485 108.616Z" fill="black"/>
<path d="M93.0608 112.949C92.3928 113.529 91.6809 113.819 90.9251 113.819C90.2219 113.814 89.6184 113.626 89.1145 113.257C88.6165 112.888 88.2473 112.372 88.0071 111.71C87.7669 111.048 87.6819 110.33 87.7522 109.557C87.8225 108.719 88.0891 107.937 88.552 107.21C89.0149 106.478 89.6038 105.909 90.3186 105.505C91.0393 105.101 91.8069 104.907 92.6214 104.925C93.6995 104.954 94.5637 105.332 95.2141 106.059C95.8645 106.785 96.2366 107.734 96.3303 108.906C96.3596 109.328 96.3538 109.747 96.3128 110.163L96.1897 111.112C95.9143 113.251 95.0852 114.95 93.7024 116.21C92.3255 117.464 90.6145 118.091 88.5696 118.091H88.385L88.6223 115.709H89.0266C90.9837 115.668 92.3284 114.748 93.0608 112.949ZM91.8216 111.692C92.3841 111.704 92.8821 111.426 93.3157 110.857L93.4915 109.609L93.5354 108.88C93.5354 108.353 93.4417 107.942 93.2542 107.649C93.0667 107.356 92.7884 107.207 92.4192 107.201C91.8919 107.19 91.4524 107.497 91.1009 108.124C90.7493 108.745 90.5999 109.457 90.6526 110.26C90.676 110.693 90.7874 111.039 90.9866 111.297C91.1917 111.555 91.47 111.687 91.8216 111.692Z" fill="black"/>
<path d="M101.077 118.082C100.35 118.065 99.7145 117.895 99.1696 117.572C98.6306 117.244 98.2145 116.767 97.9216 116.14C97.6286 115.507 97.4704 114.789 97.447 113.986C97.4294 113.553 97.447 113.116 97.4997 112.677L97.8337 110.444C98.1032 108.646 98.6804 107.272 99.5651 106.322C100.45 105.367 101.578 104.904 102.949 104.934C104.062 104.957 104.932 105.332 105.559 106.059C106.192 106.785 106.532 107.775 106.579 109.029C106.591 109.463 106.57 109.899 106.517 110.339L106.166 112.615C105.884 114.438 105.301 115.812 104.417 116.737C103.538 117.663 102.424 118.111 101.077 118.082ZM103.687 109.943C103.74 109.533 103.769 109.173 103.775 108.862C103.775 107.79 103.435 107.236 102.756 107.201C101.713 107.148 101.065 108.042 100.813 109.882L100.347 113.046C100.289 113.532 100.259 113.893 100.259 114.127C100.23 115.211 100.567 115.773 101.27 115.815C102.331 115.867 102.984 114.95 103.23 113.064L103.687 109.943Z" fill="black"/>
</g>
</g>
<defs>
<clipPath id="clip0">
<rect width="159" height="121.395" fill="white" transform="translate(0 0.511719)"/>
</clipPath>
</defs>
</svg>
