<svg width="154" height="122" viewBox="0 0 154 122" fill="none" xmlns="http://www.w3.org/2000/svg">
<g id="Roboto_thin_italic">
<g id="Thin Italic">
<path d="M3.71191 13.5253V4.48132H0.123047V3.40808H8.73633V4.48132H5.14746V13.5253H3.71191Z" fill="black"/>
<path d="M10.1951 13.5253V2.73132H11.5417V7.49597C12.2527 6.45691 13.1231 5.93738 14.1531 5.93738C14.7956 5.93738 15.3083 6.14246 15.6911 6.55261C16.074 6.95821 16.2654 7.50509 16.2654 8.19324V13.5253H14.9187V8.63074C14.9187 8.0793 14.8367 7.68738 14.6726 7.45496C14.5131 7.21798 14.2465 7.09949 13.8728 7.09949C13.0479 7.09949 12.2709 7.63953 11.5417 8.7196V13.5253H10.1951Z" fill="black"/>
<path d="M18.8934 13.5253V6.10144H20.24V13.5253H18.8934ZM18.8934 4.75476V3.40808H20.24V4.75476H18.8934Z" fill="black"/>
<path d="M22.9292 13.5253V6.10144H24.2759V7.49597C24.9869 6.45691 25.8573 5.93738 26.8873 5.93738C27.5298 5.93738 28.0425 6.14246 28.4253 6.55261C28.8081 6.95821 28.9996 7.50509 28.9996 8.19324V13.5253H27.6529V8.63074C27.6529 8.0793 27.5708 7.68738 27.4068 7.45496C27.2473 7.21798 26.9807 7.09949 26.607 7.09949C25.7821 7.09949 25.0051 7.63953 24.2759 8.7196V13.5253H22.9292Z" fill="black"/>
<path d="M36.0124 13.5253V3.40808H37.4479V13.5253H36.0124Z" fill="black"/>
<path d="M42.311 13.6962C41.6274 13.6962 41.0942 13.5002 40.7114 13.1083C40.3285 12.7163 40.1371 12.1718 40.1371 11.4745V7.11316H39.2074V6.10144H40.1371V4.75476L41.4838 4.62488V6.10144H43.4252V7.11316H41.4838V11.2284C41.4838 12.1991 41.9031 12.6844 42.7416 12.6844C42.9194 12.6844 43.1358 12.6548 43.391 12.5956V13.5253C42.9763 13.6392 42.6163 13.6962 42.311 13.6962Z" fill="black"/>
<path d="M49.1499 12.5819C48.3433 13.3247 47.5662 13.6962 46.8188 13.6962C46.2036 13.6962 45.6932 13.5048 45.2876 13.1219C44.882 12.7346 44.6792 12.2469 44.6792 11.6591C44.6792 10.8479 45.0187 10.2258 45.6978 9.79285C46.3813 9.35535 47.3589 9.1366 48.6304 9.1366H48.9517V8.24109C48.9517 7.37976 48.5096 6.9491 47.6255 6.9491C46.9145 6.9491 46.1466 7.16785 45.3218 7.60535V6.49109C46.2287 6.12195 47.0786 5.93738 47.8716 5.93738C48.701 5.93738 49.3117 6.12423 49.7036 6.49792C50.1001 6.87162 50.2983 7.45268 50.2983 8.24109V11.6044C50.2983 12.3746 50.5353 12.7596 51.0093 12.7596C51.0685 12.7596 51.1551 12.7505 51.269 12.7323L51.3647 13.4774C51.0594 13.6233 50.7222 13.6962 50.353 13.6962C49.7241 13.6962 49.3231 13.3247 49.1499 12.5819ZM48.9517 11.8505V9.92957L48.5005 9.91589C47.7622 9.91589 47.1652 10.0572 46.7095 10.3397C46.2537 10.6177 46.0259 10.9846 46.0259 11.4403C46.0259 11.7639 46.1398 12.0373 46.3677 12.2606C46.5955 12.4839 46.8735 12.5956 47.2017 12.5956C47.7622 12.5956 48.3455 12.3472 48.9517 11.8505Z" fill="black"/>
<path d="M53.0491 13.5253V2.73132H54.3957V13.5253H53.0491Z" fill="black"/>
<path d="M57.0849 13.5253V6.10144H58.4316V13.5253H57.0849ZM57.0849 4.75476V3.40808H58.4316V4.75476H57.0849Z" fill="black"/>
<path d="M64.0192 13.6962C63.0166 13.6962 62.1849 13.3247 61.5241 12.5819C60.8633 11.8391 60.5329 10.9025 60.5329 9.77234C60.5329 8.56466 60.8588 7.62358 61.5105 6.9491C62.1667 6.27462 63.0804 5.93738 64.2517 5.93738C64.8304 5.93738 65.4776 6.01713 66.1931 6.17664V7.30457C65.432 7.08126 64.8122 6.9696 64.3337 6.9696C63.6455 6.9696 63.0918 7.22937 62.6726 7.7489C62.2578 8.26388 62.0505 8.95203 62.0505 9.81335C62.0505 10.6473 62.2647 11.3218 62.6931 11.8368C63.1215 12.3518 63.682 12.6093 64.3747 12.6093C64.9899 12.6093 65.6234 12.452 66.2751 12.1376V13.2997C65.4047 13.564 64.6527 13.6962 64.0192 13.6962Z" fill="black"/>
</g>
<g id="ABCDEFGHIJKLM">
<path d="M13.0068 30.0966H6.94238L4.89453 33.9198H4.36719L11.2051 21.1317L11.7764 21.1229L14.2373 33.9198H13.7363L13.0068 30.0966ZM7.18848 29.6219H12.9102L11.4336 21.7206L7.18848 29.6219Z" fill="black"/>
<path d="M16.2939 33.9198L18.5176 21.1229H21.7432C23.0088 21.1346 23.9551 21.4305 24.582 22.0106C25.2148 22.5907 25.4492 23.3876 25.2852 24.4012C25.1562 25.1512 24.8604 25.7811 24.3975 26.2909C23.9346 26.7948 23.334 27.1346 22.5957 27.3104C23.3457 27.4393 23.9316 27.7968 24.3535 28.3827C24.7754 28.9686 24.9277 29.6395 24.8105 30.3954C24.6406 31.4677 24.1426 32.3231 23.3164 32.9618C22.4902 33.6005 21.4795 33.9198 20.2842 33.9198H16.2939ZM17.8672 27.6005L16.8564 33.4452H20.2754C21.3477 33.4452 22.2471 33.1727 22.9736 32.6278C23.7061 32.0829 24.1602 31.3446 24.3359 30.413C24.4883 29.5809 24.292 28.9042 23.7471 28.3827C23.208 27.8612 22.4404 27.6005 21.4443 27.6005H17.8672ZM17.9463 27.1259H20.7324C21.8809 27.1259 22.8037 26.8915 23.501 26.4227C24.2041 25.9481 24.6406 25.2626 24.8105 24.3661C24.9688 23.5106 24.79 22.8427 24.2744 22.3622C23.7588 21.8817 22.9414 21.6268 21.8223 21.5975H18.9131L17.9463 27.1259Z" fill="black"/>
<path d="M36.0394 30.0087C35.6878 31.2743 35.0667 32.2733 34.1761 33.0057C33.2913 33.7323 32.2161 34.0956 30.9505 34.0956C30.2064 34.0956 29.556 33.9198 28.9993 33.5682C28.4485 33.2167 28.0237 32.7069 27.7249 32.0389C27.4319 31.371 27.2855 30.6239 27.2855 29.7977C27.2796 29.3348 27.3148 28.8778 27.3909 28.4266L27.681 26.7128C27.9681 25.0194 28.6038 23.6366 29.5882 22.5643C30.5726 21.4862 31.7562 20.9471 33.139 20.9471C34.3636 20.9471 35.3128 21.3104 35.9866 22.037C36.6605 22.7577 36.9681 23.7538 36.9095 25.0253H36.4437C36.4905 23.8944 36.2269 23.0126 35.6527 22.3798C35.0784 21.7411 34.2435 21.4218 33.1478 21.4218C32.3743 21.4218 31.6478 21.6268 30.9681 22.037C30.2943 22.4471 29.7054 23.0594 29.2015 23.8739C28.6976 24.6825 28.3548 25.6053 28.1732 26.6425L27.848 28.4794C27.7835 28.8661 27.7513 29.2587 27.7513 29.6571C27.7396 30.4247 27.8568 31.1161 28.1028 31.7313C28.3548 32.3407 28.7239 32.8094 29.2103 33.1376C29.6966 33.4598 30.2737 33.621 30.9417 33.621C32.0902 33.621 33.0599 33.3046 33.8509 32.6718C34.6419 32.0389 35.2132 31.1512 35.5648 30.0087H36.0394Z" fill="black"/>
<path d="M38.3211 33.9198L40.5448 21.1229H43.9461C44.743 21.1346 45.4549 21.3134 46.0819 21.6591C46.7088 22.0048 47.2069 22.4999 47.576 23.1444C47.9452 23.7889 48.1561 24.5126 48.2088 25.3153C48.2381 25.8075 48.2118 26.2997 48.1297 26.7919L47.8924 28.2069C47.7108 29.2792 47.3299 30.2518 46.7498 31.1249C46.1698 31.9979 45.4491 32.6805 44.5877 33.1727C43.7264 33.6649 42.8065 33.9139 41.828 33.9198H38.3211ZM40.9403 21.5975L38.8836 33.4452H41.6873C43.0936 33.4452 44.3299 32.953 45.3963 31.9686C46.4686 30.9784 47.1454 29.6923 47.4266 28.1102L47.6727 26.7128C47.784 26.0624 47.787 25.4325 47.6815 24.8231C47.4998 23.8446 47.078 23.0682 46.4159 22.494C45.7538 21.9139 44.9393 21.6151 43.9725 21.5975H40.9403Z" fill="black"/>
<path d="M57.6411 27.5741H51.4096L50.3901 33.4452H57.4741L57.4038 33.9198H49.8276L52.0512 21.1229H59.6098L59.5395 21.5975H52.4467L51.4887 27.0995H57.7026L57.6411 27.5741Z" fill="black"/>
<path d="M67.803 27.6268H61.4398L60.3499 33.9198H59.8753L62.0901 21.1229H69.7806L69.7191 21.5975H62.4857L61.5189 27.1346H67.8734L67.803 27.6268Z" fill="black"/>
<path d="M78.9757 32.5487C78.548 33.035 77.9386 33.4159 77.1476 33.6913C76.3566 33.9608 75.4718 34.0956 74.4933 34.0956C73.3332 34.0956 72.3986 33.7089 71.6896 32.9354C70.9806 32.162 70.5998 31.1278 70.547 29.8329C70.5294 29.37 70.5587 28.9159 70.6349 28.4706L70.9865 26.4315C71.1681 25.3827 71.5285 24.4364 72.0675 23.5927C72.6066 22.7489 73.2628 22.0985 74.0363 21.6415C74.8097 21.1786 75.6447 20.9471 76.5412 20.9471C77.7013 20.9471 78.6271 21.2753 79.3185 21.9315C80.0158 22.5878 80.3527 23.4725 80.3293 24.5858H79.8634C79.8634 23.578 79.5646 22.7987 78.9669 22.2479C78.3693 21.6971 77.5607 21.4218 76.5412 21.4218C75.2873 21.4218 74.1916 21.8964 73.2541 22.8456C72.3166 23.7948 71.716 25.0194 71.4523 26.5194C71.1886 28.0135 71.048 28.8661 71.0304 29.077C71.0187 29.288 71.0158 29.496 71.0216 29.701C71.0392 30.8905 71.3556 31.8427 71.9709 32.5575C72.5861 33.2665 73.424 33.621 74.4845 33.621C75.3166 33.621 76.0812 33.5126 76.7785 33.2958C77.4816 33.0731 78.0587 32.7509 78.5099 32.329L79.1691 28.6024H75.3898L75.4513 28.119H79.7316L78.9757 32.5487Z" fill="black"/>
<path d="M90.9095 33.9198H90.4349L91.5247 27.5741H83.6146L82.5159 33.9198H82.0413L84.2474 21.1229H84.722L83.6937 27.0995H91.6038L92.6409 21.1229H93.1068L90.9095 33.9198Z" fill="black"/>
<path d="M95.2161 33.9198H94.7415L96.9476 21.1229H97.4222L95.2161 33.9198Z" fill="black"/>
<path d="M107.139 21.1229H107.614L106.102 29.8856C105.88 31.1747 105.379 32.2001 104.599 32.9618C103.826 33.7177 102.903 34.0956 101.831 34.0956C100.717 34.0956 99.8971 33.7557 99.3698 33.076C98.8424 32.3905 98.6637 31.4969 98.8336 30.3954H99.3082C99.2321 30.8641 99.2262 31.2948 99.2906 31.6874C99.3903 32.3143 99.6569 32.7948 100.09 33.1288C100.53 33.4569 101.107 33.621 101.822 33.621C102.777 33.621 103.6 33.2753 104.292 32.5839C104.983 31.8925 105.425 30.993 105.619 29.8856L107.139 21.1229Z" fill="black"/>
<path d="M112.362 27.1962L110.015 29.1034L109.189 33.9198H108.714L110.92 21.1229H111.395L110.12 28.4706L112.476 26.4667L118.558 21.1229L119.296 21.1317L112.722 26.8973L117.477 33.9198H116.897L112.362 27.1962Z" fill="black"/>
<path d="M120.449 33.4452H126.804L126.742 33.9198H119.878L122.093 21.1229H122.576L120.449 33.4452Z" fill="black"/>
<path d="M131.865 21.1229L134.87 33.2079L142.086 21.1229H142.789L140.574 33.9198H140.1L142.183 21.9052L134.976 33.9198H134.607L131.557 21.8876L129.474 33.9198H128.999L131.214 21.1229H131.865Z" fill="black"/>
</g>
<g id="NOPQRSTUVWXYZ">
<path d="M14.7559 54.9198H14.2988L8.35742 42.9139L6.27441 54.9198H5.79102L7.98828 42.1229H8.4541L14.4043 54.1024L16.4785 42.1229H16.9531L14.7559 54.9198Z" fill="black"/>
<path d="M22.3744 55.0956C21.6127 55.0956 20.9418 54.9227 20.3617 54.577C19.7875 54.2313 19.3422 53.7274 19.0258 53.0653C18.7093 52.4032 18.5394 51.6591 18.516 50.8329C18.5043 50.3817 18.5365 49.9305 18.6127 49.4794L18.9115 47.7216C19.1049 46.579 19.474 45.5624 20.0189 44.6718C20.5697 43.7811 21.2347 43.1044 22.014 42.6415C22.7992 42.1786 23.6459 41.9471 24.5541 41.9471C25.3217 41.9471 25.9926 42.1229 26.5668 42.4745C27.1468 42.8202 27.5951 43.327 27.9115 43.995C28.2279 44.6571 28.3949 45.3925 28.4125 46.201C28.4183 46.6932 28.3832 47.1649 28.307 47.6161L28.0082 49.3827C27.8265 50.4608 27.4662 51.4423 26.9271 52.327C26.3939 53.2118 25.7347 53.8944 24.9496 54.3749C24.1644 54.8553 23.306 55.0956 22.3744 55.0956ZM27.9554 46.3153C27.9379 45.1024 27.6302 44.1503 27.0326 43.4589C26.4349 42.7675 25.6088 42.4218 24.5541 42.4218C23.2592 42.4218 22.1429 42.911 21.2054 43.8895C20.2738 44.868 19.6703 46.1512 19.3949 47.7391L19.0873 49.5321C19.0228 49.9247 18.9935 50.3173 18.9994 50.7098C18.9994 51.911 19.2982 52.8632 19.8959 53.5663C20.4935 54.2694 21.3197 54.621 22.3744 54.621C23.1771 54.621 23.9271 54.4218 24.6244 54.0233C25.3275 53.6249 25.931 53.0302 26.4349 52.2391C26.9447 51.4481 27.2992 50.5428 27.4984 49.5233L27.8412 47.5985C27.9174 47.1708 27.9554 46.743 27.9554 46.3153Z" fill="black"/>
<path d="M31.3726 49.5145L30.4409 54.9198H29.9663L32.1812 42.1229H36.022C37.2115 42.1346 38.1226 42.4774 38.7554 43.1512C39.3882 43.8251 39.6138 44.7274 39.4322 45.8583C39.2447 46.9891 38.7349 47.8827 37.9029 48.5389C37.0708 49.1893 36.0015 49.5145 34.6949 49.5145H31.3726ZM31.4517 49.0399H34.7036C35.8169 49.0399 36.7544 48.7616 37.5161 48.205C38.2837 47.6483 38.7642 46.8719 38.9576 45.8759C39.1333 44.8973 38.9576 44.1122 38.4302 43.5204C37.9029 42.9286 37.1031 42.621 36.0308 42.5975H32.5767L31.4517 49.0399Z" fill="black"/>
<path d="M46.787 54.6385L48.6679 56.9413L48.3075 57.2313L46.3036 54.8407C45.7587 55.0106 45.2196 55.0956 44.6864 55.0956C43.9247 55.0956 43.2538 54.9227 42.6737 54.577C42.0995 54.2313 41.6542 53.7274 41.3378 53.0653C41.0214 52.4032 40.8515 51.6591 40.828 50.8329C40.8163 50.3817 40.8485 49.9305 40.9247 49.4794L41.2235 47.7216C41.4169 46.579 41.786 45.5624 42.331 44.6718C42.8817 43.7811 43.5468 43.1044 44.3261 42.6415C45.1112 42.1786 45.9579 41.9471 46.8661 41.9471C47.6337 41.9471 48.3046 42.1229 48.8788 42.4745C49.4589 42.8202 49.9071 43.327 50.2235 43.995C50.5399 44.6571 50.7069 45.3925 50.7245 46.201C50.7304 46.6932 50.6952 47.1649 50.619 47.6161L50.329 49.3212C50.1122 50.5985 49.6991 51.6942 49.0897 52.6083C48.4804 53.5165 47.7128 54.1932 46.787 54.6385ZM50.2675 46.3153C50.2499 45.1024 49.9423 44.1503 49.3446 43.4589C48.747 42.7675 47.9208 42.4218 46.8661 42.4218C45.5712 42.4218 44.455 42.911 43.5175 43.8895C42.5858 44.868 41.9823 46.1512 41.7069 47.7391L41.3993 49.5321C41.3349 49.9247 41.3056 50.3173 41.3114 50.7098C41.3114 51.911 41.6103 52.8632 42.2079 53.5663C42.8056 54.2694 43.6317 54.621 44.6864 54.621C45.4892 54.621 46.2392 54.4218 46.9364 54.0233C47.6396 53.6249 48.2431 53.0302 48.747 52.2391C49.2567 51.4481 49.6112 50.5428 49.8105 49.5233L50.1532 47.5985C50.2294 47.1708 50.2675 46.743 50.2675 46.3153Z" fill="black"/>
<path d="M57.9649 49.4442H53.6583L52.709 54.9198H52.2432L54.4493 42.1229H58.3692C59.1426 42.1288 59.8165 42.2899 60.3907 42.6063C60.9708 42.9169 61.3897 43.3505 61.6475 43.9071C61.9053 44.4637 61.9756 45.0995 61.8585 45.8143C61.712 46.6815 61.3253 47.4374 60.6983 48.0819C60.0772 48.7206 59.3301 49.1366 58.4571 49.33L60.8213 54.7968L60.8038 54.9198H60.3204L57.9649 49.4442ZM53.7374 48.9696H57.4991C58.4659 48.9696 59.3096 48.6737 60.0303 48.0819C60.7569 47.4901 61.2081 46.7343 61.3838 45.8143C61.5596 44.8475 61.3575 44.0712 60.7774 43.4852C60.1973 42.8934 59.3477 42.5975 58.2286 42.5975H54.8448L53.7374 48.9696Z" fill="black"/>
<path d="M71.862 50.9384C71.7448 50.4052 71.4372 49.9628 70.9391 49.6112C70.4411 49.2538 69.6706 48.9198 68.6276 48.6093C67.5847 48.2928 66.8141 47.9764 66.3161 47.66C65.8181 47.3378 65.4665 46.9598 65.2614 46.5262C65.0622 46.0927 65.0095 45.6093 65.1032 45.076C65.2028 44.4491 65.4694 43.9012 65.903 43.4325C66.3366 42.9579 66.8903 42.5917 67.5641 42.3339C68.2438 42.076 68.9645 41.9471 69.7263 41.9471C70.4821 41.9471 71.1501 42.1112 71.7302 42.4393C72.3161 42.7675 72.7409 43.2186 73.0046 43.7928C73.2741 44.3671 73.362 45.0116 73.2682 45.7264H72.7936C72.9401 44.7714 72.7233 43.9833 72.1432 43.3622C71.5632 42.7352 70.7604 42.4218 69.735 42.4218C68.78 42.4218 67.9157 42.6385 67.1423 43.0721C66.3688 43.4999 65.8737 44.0712 65.6569 44.786C65.528 45.2137 65.5046 45.5975 65.5866 45.9374C65.7038 46.4589 66.0231 46.8925 66.5446 47.2382C67.072 47.578 67.7985 47.8798 68.7243 48.1434C70.154 48.5477 71.1501 49.0487 71.7126 49.6464C72.2751 50.244 72.4831 50.9735 72.3366 51.8348C72.237 52.4852 71.9645 53.0565 71.5192 53.5487C71.0798 54.035 70.5114 54.4159 69.8141 54.6913C69.1169 54.9608 68.3786 55.0956 67.5993 55.0956C66.2634 55.0956 65.2263 54.7499 64.488 54.0585C63.7497 53.3671 63.4597 52.4501 63.6179 51.3075H64.0925C63.946 52.3153 64.195 53.121 64.8395 53.7245C65.4841 54.3221 66.4011 54.621 67.5905 54.621C68.5456 54.621 69.4099 54.41 70.1833 53.9882C70.9567 53.5604 71.4724 52.9921 71.7302 52.2831C71.9059 51.7968 71.9499 51.3485 71.862 50.9384Z" fill="black"/>
<path d="M84.6165 42.5975H80.0901L77.9632 54.9198H77.4886L79.6155 42.5975H75.1068L75.1683 42.1229H84.678L84.6165 42.5975Z" fill="black"/>
<path d="M95.3658 42.1229L93.8804 50.745C93.6519 52.0634 93.0894 53.118 92.1929 53.9091C91.2964 54.7001 90.2066 55.0956 88.9234 55.0956C88.1089 55.0956 87.4087 54.9169 86.8228 54.5594C86.2368 54.202 85.815 53.6923 85.5572 53.0302C85.2993 52.368 85.2378 51.6239 85.3726 50.7977L86.8755 42.1229H87.3413L85.8472 50.7977C85.6656 51.9227 85.8618 52.8427 86.4361 53.5575C87.0103 54.2665 87.8394 54.621 88.9234 54.621C90.0601 54.621 91.0415 54.2577 91.8677 53.5311C92.6997 52.8046 93.2183 51.8436 93.4234 50.6483L94.8911 42.1229H95.3658Z" fill="black"/>
<path d="M100.022 53.6718L100.137 54.4188L100.515 53.6366L106.474 42.1317H107.001L100.383 54.9198H99.8114L97.1483 42.1141H97.6493L100.022 53.6718Z" fill="black"/>
<path d="M109.662 54.0936L110.559 51.9843L115.015 42.1229H115.542L116.922 52.0546L117.133 54.0936L118.056 51.9843L122.143 42.1317H122.67L117.344 54.9198H116.817L115.384 44.2147L115.182 42.9227L114.54 44.285L109.794 54.9198H109.258L107.887 42.1229H108.397L109.662 54.0936Z" fill="black"/>
<path d="M127.554 48.0116L132.484 42.1317H133.091L127.808 48.4247L131.263 54.9198H130.7L127.483 48.7675L122.333 54.9198H121.744L127.228 48.3544L123.897 42.1141H124.469L127.554 48.0116Z" fill="black"/>
<path d="M137.809 49.6112L143.451 42.1317L144.049 42.1405L137.985 50.0946L137.158 54.9198H136.684L137.528 50.0155L134.205 42.1141H134.812L137.809 49.6112Z" fill="black"/>
<path d="M143.784 54.4452H151.958L151.887 54.9198H143.045L143.107 54.5331L153.065 42.5887H145.524L145.585 42.1229L153.812 42.1317L153.768 42.4569L143.784 54.4452Z" fill="black"/>
</g>
<g id="abcdefghijklm">
<path d="M11.5918 75.9198C11.5742 75.4042 11.6299 74.8241 11.7588 74.1796C11.2666 74.7831 10.6807 75.2548 10.001 75.5946C9.32714 75.9344 8.59471 76.1014 7.8037 76.0956C7.00682 76.0956 6.37108 75.8495 5.89647 75.3573C5.42186 74.8651 5.24315 74.2499 5.36034 73.5116C5.50682 72.6151 6.00194 71.9149 6.84569 71.411C7.6953 70.9071 8.7705 70.6405 10.0713 70.6112H12.3301L12.5849 69.2225C12.708 68.4432 12.5527 67.8309 12.1191 67.3856C11.6855 66.9344 11.0615 66.7089 10.2471 66.7089C9.45018 66.7089 8.72948 66.9227 8.08495 67.3505C7.44042 67.7723 7.03612 68.329 6.87206 69.0204L6.39745 69.0028C6.56151 68.1884 7.01268 67.5233 7.75096 67.0077C8.48925 66.4921 9.32128 66.2343 10.2471 66.2343C11.2139 66.2343 11.9551 66.5096 12.4707 67.0604C12.9863 67.6053 13.1767 68.3319 13.042 69.2401L12.1719 74.3202L12.1103 74.9178C12.081 75.2284 12.0928 75.536 12.1455 75.8407L12.1367 75.9198H11.5918ZM7.79491 75.6298C8.58007 75.6415 9.32714 75.454 10.0361 75.0673C10.7451 74.6747 11.3486 74.1034 11.8467 73.3534L12.251 71.0946H10.124C8.94042 71.118 7.9619 71.3466 7.18846 71.7802C6.42089 72.2079 5.96678 72.7968 5.82616 73.5468C5.72069 74.1268 5.85839 74.6161 6.23925 75.0145C6.62596 75.413 7.14452 75.618 7.79491 75.6298Z" fill="black"/>
<path d="M18.4737 76.0956C17.8175 76.0956 17.2345 75.952 16.7247 75.6649C16.2208 75.3778 15.8458 74.9618 15.5997 74.4169L15.3272 75.9198H14.8526L17.1817 62.4198H17.6563L16.6368 68.1415C17.0763 67.5262 17.589 67.0546 18.1749 66.7264C18.7667 66.3983 19.4024 66.2343 20.0821 66.2343C20.6974 66.2343 21.2218 66.3866 21.6554 66.6913C22.089 66.996 22.4054 67.4442 22.6046 68.036C22.8097 68.6219 22.9005 69.2723 22.877 69.9872C22.8595 70.3622 22.8243 70.7225 22.7716 71.0682L22.6573 71.6483C22.3526 73.0253 21.8311 74.1122 21.0929 74.9091C20.3546 75.7001 19.4815 76.0956 18.4737 76.0956ZM22.2794 71.0682L22.3849 70.1278C22.4317 69.4891 22.3761 68.8973 22.2179 68.3524C22.0655 67.8075 21.8048 67.3973 21.4356 67.1219C21.0724 66.8466 20.6241 66.7089 20.0909 66.7089C19.3116 66.7089 18.5763 66.9432 17.8849 67.412C17.1993 67.8807 16.7393 68.4608 16.505 69.1522L15.7227 73.5116C15.8634 74.1913 16.1768 74.7128 16.6632 75.076C17.1554 75.4393 17.7589 75.621 18.4737 75.621C19.4171 75.621 20.2169 75.2343 20.8731 74.4608C21.5294 73.6815 21.9864 72.6122 22.2442 71.2528L22.2794 71.0682Z" fill="black"/>
<path d="M27.7283 75.621C28.5603 75.621 29.281 75.3837 29.8904 74.9091C30.5056 74.4344 30.9158 73.8134 31.1209 73.0458H31.5955C31.3845 73.954 30.9246 74.6893 30.2156 75.2518C29.5066 75.8143 28.6804 76.0956 27.7371 76.0956C26.864 76.0956 26.155 75.826 25.6101 75.287C25.0711 74.7421 24.7459 73.9891 24.6345 73.0282C24.5701 72.4716 24.5789 71.912 24.6609 71.3495L24.7136 70.9803C24.866 70.0487 25.156 69.2137 25.5838 68.4755C26.0173 67.7372 26.5388 67.1805 27.1482 66.8055C27.7634 66.4247 28.4402 66.2343 29.1785 66.2343C30.1336 66.2343 30.8836 66.5448 31.4285 67.1659C31.9793 67.787 32.2195 68.5809 32.1492 69.5477H31.6746C31.7507 68.704 31.5545 68.0214 31.0857 67.4999C30.6228 66.9725 29.99 66.7089 29.1873 66.7089C28.0798 66.7089 27.1599 67.163 26.4275 68.0712C25.6951 68.9735 25.2498 70.1835 25.0916 71.701L25.0564 72.3427C25.0564 73.3739 25.2879 74.1796 25.7507 74.7596C26.2136 75.3339 26.8728 75.621 27.7283 75.621Z" fill="black"/>
<path d="M33.8719 71.0682C34.036 70.1132 34.3231 69.2577 34.7333 68.5018C35.1493 67.746 35.6503 67.1805 36.2362 66.8055C36.8221 66.4247 37.4608 66.2343 38.1522 66.2343C38.8202 66.2343 39.4003 66.4012 39.8924 66.7352C40.3905 67.0692 40.7508 67.5438 40.9735 68.1591L41.9755 62.4198H42.4501L40.121 75.9198H39.6464L39.9452 74.3993C39.5233 74.9325 39.0194 75.3485 38.4335 75.6473C37.8475 75.9462 37.2089 76.0956 36.5174 76.0956C35.8964 76.0956 35.3749 75.9432 34.953 75.6385C34.5311 75.328 34.2176 74.8768 34.0126 74.285C33.8133 73.6874 33.7255 73.0311 33.7489 72.3163C33.7606 71.9823 33.8016 71.5663 33.8719 71.0682ZM34.2323 72.1844C34.1854 72.829 34.2352 73.4208 34.3817 73.9598C34.5282 74.4989 34.7801 74.912 35.1376 75.1991C35.5008 75.4803 35.9549 75.621 36.4999 75.621C37.2616 75.6268 37.9442 75.4452 38.5477 75.076C39.1571 74.7069 39.6551 74.203 40.0419 73.5643L40.8329 69.1083C40.7098 68.3466 40.4139 67.7577 39.9452 67.3417C39.4823 66.9198 38.8846 66.7089 38.1522 66.7089C37.4081 66.7089 36.746 66.9579 36.1659 67.4559C35.5858 67.9481 35.1317 68.6337 34.8036 69.5126C34.4755 70.3915 34.285 71.2821 34.2323 72.1844Z" fill="black"/>
<path d="M46.5542 76.0956C45.7925 76.0956 45.1363 75.8817 44.5855 75.454C44.0347 75.0262 43.6363 74.4432 43.3902 73.705C43.1499 72.9608 43.0884 72.1815 43.2056 71.3671L43.2759 70.9276C43.4165 70.0721 43.7154 69.2723 44.1724 68.5282C44.6353 67.7841 45.1831 67.2157 45.816 66.8231C46.4488 66.4305 47.1255 66.2343 47.8462 66.2343C48.8072 66.2343 49.5601 66.5887 50.105 67.2977C50.6499 68.0067 50.8814 68.9149 50.7994 70.0223L50.773 70.2948L50.6939 70.8485H43.7857L43.689 71.3671C43.607 71.8593 43.604 72.3573 43.6802 72.8612C43.8091 73.6991 44.1285 74.37 44.6382 74.8739C45.1538 75.3719 45.7896 75.6239 46.5454 75.6298C47.6411 75.6415 48.6285 75.2079 49.5074 74.329L49.8238 74.5751C48.9566 75.5887 47.8667 76.0956 46.5542 76.0956ZM47.8462 66.7089C46.9439 66.7089 46.1353 67.0487 45.4204 67.7284C44.7115 68.4022 44.1841 69.2841 43.8384 70.3739H50.2544L50.2808 70.2596C50.357 69.8378 50.3628 69.4159 50.2984 68.994C50.1929 68.3026 49.9175 67.7489 49.4722 67.3329C49.0327 66.9169 48.4908 66.7089 47.8462 66.7089Z" fill="black"/>
<path d="M52.6803 75.9198L54.2272 66.8934H52.6452L52.7067 66.41H54.3239L54.5436 65.0565C54.7018 64.1952 55.0328 63.5126 55.5368 63.0087C56.0407 62.5048 56.6705 62.2469 57.4264 62.2352C57.7955 62.2352 58.1647 62.288 58.5338 62.3934L58.402 62.8329C58.0328 62.7391 57.7077 62.6981 57.4264 62.7098C56.8112 62.7216 56.2897 62.9442 55.8619 63.3778C55.4342 63.8055 55.153 64.3944 55.0182 65.1444L54.7897 66.41H57.2243L57.1539 66.8934H54.7106L53.1549 75.9198H52.6803Z" fill="black"/>
<path d="M57.7466 71.0682C57.9107 70.1132 58.1978 69.2577 58.608 68.5018C59.024 67.746 59.525 67.1805 60.1109 66.8055C60.6968 66.4247 61.3355 66.2343 62.0269 66.2343C62.7125 66.2343 63.2984 66.4071 63.7847 66.7528C64.2769 67.0927 64.6285 67.5585 64.8394 68.1503L65.1558 66.41H65.6304L64.0572 75.5858C63.8345 76.8925 63.3453 77.912 62.5894 78.6444C61.8394 79.3827 60.9371 79.7518 59.8824 79.7518C58.6812 79.7518 57.7496 79.2128 57.0875 78.1346L57.4478 77.8358C58.0513 78.8026 58.8541 79.286 59.856 79.286C60.7701 79.286 61.5552 78.9755 62.2115 78.3544C62.8736 77.7391 63.316 76.869 63.5386 75.744L63.8023 74.4169C63.3804 74.9501 62.8765 75.3632 62.2906 75.6561C61.7105 75.9491 61.0777 76.0956 60.3921 76.0956C59.771 76.0956 59.2496 75.9432 58.8277 75.6385C58.4058 75.328 58.0923 74.8768 57.8873 74.285C57.688 73.6874 57.6002 73.0311 57.6236 72.3163C57.6353 71.9823 57.6763 71.5663 57.7466 71.0682ZM58.0982 72.1844C58.022 73.2509 58.1802 74.0917 58.5728 74.7069C58.9712 75.3163 59.5718 75.621 60.3746 75.621C61.1304 75.621 61.813 75.4364 62.4224 75.0673C63.0318 74.6923 63.5298 74.1678 63.9166 73.494L64.69 69.1786C64.5728 68.3759 64.2828 67.7635 63.8199 67.3417C63.3628 66.9198 62.7652 66.7089 62.0269 66.7089C61.2769 66.7089 60.6089 66.9608 60.023 67.4647C59.4371 67.9686 58.983 68.66 58.6607 69.5389C58.3384 70.4178 58.1509 71.2997 58.0982 72.1844Z" fill="black"/>
<path d="M68.6975 68.6249C69.1721 67.8573 69.7317 67.2684 70.3762 66.8583C71.0207 66.4423 71.6858 66.2343 72.3713 66.2343C73.0979 66.2343 73.6692 66.4218 74.0852 66.7968C74.5012 67.1718 74.7414 67.7137 74.8059 68.4227C74.841 68.868 74.8176 69.3339 74.7356 69.8202L73.6809 75.9198H73.2063L74.261 69.8202C74.3313 69.41 74.3606 69.0057 74.3488 68.6073C74.3195 67.9862 74.135 67.5116 73.7951 67.1835C73.4612 66.8553 72.9807 66.6942 72.3537 66.7001C71.551 66.7118 70.7776 67.0253 70.0334 67.6405C69.2951 68.2499 68.7942 68.9794 68.5305 69.829L67.4758 75.9198H67.0012L69.3303 62.4198H69.8049L68.6975 68.6249Z" fill="black"/>
<path d="M77.2225 75.9198H76.7479L78.3827 66.41H78.8573L77.2225 75.9198ZM78.664 63.4218C78.6815 63.3046 78.7431 63.1962 78.8485 63.0966C78.9599 62.9969 79.077 62.9471 79.2001 62.9471C79.3349 62.9471 79.4433 62.9999 79.5253 63.1053C79.6132 63.2108 79.6454 63.328 79.622 63.4569C79.6044 63.5741 79.5399 63.6825 79.4286 63.7821C79.3173 63.8759 79.2001 63.9227 79.077 63.9227C78.9423 63.9169 78.8339 63.8641 78.7518 63.7645C78.6698 63.6649 78.6405 63.5507 78.664 63.4218Z" fill="black"/>
<path d="M82.5396 66.41L80.7203 76.9569C80.5679 77.8417 80.2339 78.5302 79.7183 79.0223C79.2027 79.5145 78.5728 79.7606 77.8287 79.7606C77.606 79.7606 77.3248 79.702 76.9849 79.5848L77.0728 79.1278C77.3482 79.2333 77.6031 79.286 77.8375 79.286C78.4351 79.2977 78.9537 79.0927 79.3931 78.6708C79.8326 78.2489 80.1138 77.6776 80.2369 76.9569L82.065 66.41H82.5396ZM82.3902 63.4218C82.4078 63.3046 82.4693 63.1962 82.5748 63.0966C82.6861 62.9969 82.8033 62.9471 82.9263 62.9471C83.0611 62.9471 83.1695 62.9999 83.2515 63.1053C83.3394 63.2108 83.3716 63.328 83.3482 63.4569C83.3306 63.5741 83.2662 63.6825 83.1548 63.7821C83.0435 63.8759 82.9263 63.9227 82.8033 63.9227C82.6685 63.9169 82.5601 63.8641 82.4781 63.7645C82.3961 63.6649 82.3668 63.5507 82.3902 63.4218Z" fill="black"/>
<path d="M86.943 70.787L86.9167 70.8046L85.3346 72.0087L84.6667 75.9198H84.1921L86.5212 62.4198H86.9958L85.4401 71.411L91.5485 66.4188H92.278L87.2946 70.4882L90.863 75.9198H90.2829L86.943 70.787Z" fill="black"/>
<path d="M93.1306 75.9198H92.656L94.9763 62.4198H95.4509L93.1306 75.9198Z" fill="black"/>
<path d="M102.825 75.9198H102.359L103.449 69.5917C103.513 69.1932 103.534 68.8153 103.51 68.4579C103.463 67.8895 103.264 67.453 102.913 67.1483C102.567 66.8436 102.086 66.6942 101.471 66.7001C100.651 66.7118 99.8686 67.037 99.1245 67.6757C98.3862 68.3085 97.894 69.0526 97.6479 69.9081L96.602 75.9198H96.1274L97.7621 66.41H98.2455L97.8237 68.66C98.2983 67.8807 98.8549 67.2831 99.4936 66.8671C100.132 66.4452 100.797 66.2343 101.489 66.2343C102.274 66.2343 102.877 66.4305 103.299 66.8231C103.727 67.2098 103.953 67.7635 103.976 68.4843C104.398 67.7987 104.943 67.2538 105.611 66.8495C106.279 66.4393 106.991 66.2343 107.747 66.2343C108.479 66.2343 109.056 66.4247 109.478 66.8055C109.9 67.1864 110.143 67.7255 110.207 68.4227C110.243 68.868 110.219 69.3339 110.137 69.8202L109.082 75.9198H108.617L109.671 69.7675C109.742 69.3632 109.768 68.9735 109.75 68.5985C109.721 67.9774 109.534 67.5057 109.188 67.1835C108.848 66.8553 108.362 66.6942 107.729 66.7001C107.178 66.7177 106.63 66.8553 106.085 67.1132C105.546 67.371 105.081 67.7225 104.688 68.1678C104.301 68.6073 104.046 69.0819 103.923 69.5917L102.825 75.9198Z" fill="black"/>
</g>
<g id="nopqrstuvwxyz">
<path d="M7.25 89.6249C7.72461 88.8573 8.28418 88.2684 8.92871 87.8583C9.57324 87.4423 10.2383 87.2343 10.9238 87.2343C11.6504 87.2343 12.2217 87.4218 12.6377 87.7968C13.0537 88.1718 13.2939 88.7137 13.3584 89.4227C13.3936 89.868 13.3701 90.3339 13.2881 90.8202L12.2334 96.9198H11.7588L12.8135 90.8202C12.8838 90.41 12.9131 90.0057 12.9014 89.6073C12.8721 88.9862 12.6875 88.5116 12.3477 88.1835C12.0137 87.8553 11.5332 87.6942 10.9062 87.7001C10.1035 87.7118 9.33008 88.0253 8.58594 88.6405C7.84766 89.2499 7.34668 89.9794 7.08301 90.829L6.02832 96.9198H5.55371L7.18848 87.41H7.66309L7.25 89.6249Z" fill="black"/>
<path d="M15.3463 91.9803C15.4928 91.0956 15.7887 90.2899 16.234 89.5634C16.6793 88.8368 17.236 88.2684 17.9039 87.8583C18.5719 87.4423 19.3014 87.2343 20.0924 87.2343C20.7369 87.2343 21.3082 87.3778 21.8063 87.6649C22.3043 87.952 22.6998 88.3798 22.9928 88.9481C23.2858 89.5106 23.4528 90.1346 23.4938 90.8202C23.5114 91.2186 23.4762 91.7284 23.3883 92.3495C23.2418 93.2343 22.943 94.0428 22.4918 94.7753C22.0465 95.5077 21.4899 96.079 20.8219 96.4891C20.1598 96.8934 19.4362 97.0956 18.651 97.0956C18.0006 97.0956 17.4264 96.952 16.9283 96.6649C16.4362 96.3719 16.0407 95.9471 15.7418 95.3905C15.4489 94.828 15.2848 94.1981 15.2496 93.5009C15.2262 93.1083 15.2584 92.6014 15.3463 91.9803ZM15.7594 93.8612C15.8766 94.7108 16.1901 95.3846 16.6998 95.8827C17.2096 96.3749 17.8571 96.621 18.6422 96.621C19.5621 96.621 20.3912 96.2987 21.1295 95.6542C21.8737 95.0096 22.4098 94.1395 22.7379 93.0438C23.0074 92.1356 23.0865 91.2772 22.9752 90.4686C22.8463 89.619 22.527 88.9481 22.0172 88.4559C21.5133 87.9579 20.8746 87.7089 20.1012 87.7089C19.1813 87.7089 18.3492 88.037 17.6051 88.6932C16.861 89.3436 16.3248 90.2079 15.9967 91.286C15.7272 92.1825 15.6481 93.0409 15.7594 93.8612Z" fill="black"/>
<path d="M28.4963 97.0956C27.8225 97.0956 27.2336 96.9491 26.7297 96.6561C26.2258 96.3632 25.8567 95.9589 25.6223 95.4432L24.717 100.576H24.2424L26.51 87.41H26.9846L26.6594 89.1063C27.0754 88.5438 27.5735 88.0927 28.1536 87.7528C28.7395 87.4071 29.3899 87.2343 30.1047 87.2343C30.72 87.2343 31.2444 87.3866 31.678 87.6913C32.1116 87.996 32.428 88.4442 32.6272 89.036C32.8323 89.6219 32.9231 90.2723 32.8997 90.9872C32.8821 91.3622 32.8469 91.7225 32.7942 92.0682L32.6799 92.6483C32.3752 94.0253 31.8538 95.1122 31.1155 95.9091C30.3772 96.7001 29.5042 97.0956 28.4963 97.0956ZM32.3108 92.0682L32.4163 91.1278C32.4749 90.0145 32.302 89.1678 31.8977 88.5878C31.4934 88.0018 30.8987 87.7089 30.1135 87.7089C29.3401 87.7089 28.6077 87.9403 27.9163 88.4032C27.2307 88.8602 26.7708 89.4286 26.5364 90.1083L25.7454 94.5555C25.8801 95.2177 26.1936 95.7274 26.6858 96.0848C27.1838 96.4423 27.7874 96.621 28.4963 96.621C29.4456 96.621 30.2483 96.2343 30.9045 95.4608C31.5608 94.6815 32.0208 93.6005 32.2844 92.2177L32.3108 92.0682Z" fill="black"/>
<path d="M34.9579 92.0682C35.2274 90.5624 35.7401 89.3817 36.496 88.5262C37.2518 87.6649 38.1659 87.2343 39.2382 87.2343C39.8944 87.2343 40.4686 87.3925 40.9608 87.7089C41.4589 88.0253 41.8251 88.4911 42.0595 89.1063L42.3759 87.41H42.8417L40.5741 100.576H40.0995L41.0223 95.4432C40.5946 95.9647 40.0878 96.3719 39.5018 96.6649C38.9218 96.952 38.2889 97.0956 37.6034 97.0956C36.994 97.0956 36.4755 96.9432 36.0477 96.6385C35.62 96.328 35.3036 95.8768 35.0985 95.285C34.8993 94.6874 34.8114 94.0311 34.8348 93.3163C34.8466 92.9823 34.8876 92.5663 34.9579 92.0682ZM35.3182 93.1844C35.2714 93.829 35.3212 94.4208 35.4677 94.9598C35.6141 95.4989 35.8661 95.912 36.2235 96.1991C36.5868 96.4803 37.0409 96.621 37.5858 96.621C38.3475 96.6268 39.0302 96.4452 39.6337 96.076C40.243 95.7069 40.7411 95.203 41.1278 94.5643L41.9188 90.1083C41.7958 89.3641 41.4999 88.7782 41.0311 88.3505C40.5624 87.9227 39.9647 87.7089 39.2382 87.7089C38.5409 87.7089 37.9139 87.9286 37.3573 88.368C36.8007 88.8016 36.3348 89.4579 35.9598 90.3368C35.5907 91.2098 35.3768 92.1591 35.3182 93.1844Z" fill="black"/>
<path d="M49.8482 87.744L49.2769 87.7001C48.4917 87.7001 47.7622 87.9901 47.0884 88.5702C46.4146 89.1503 45.9634 89.8563 45.7349 90.6884L44.6538 96.9198H44.1792L45.814 87.41H46.2886L45.9194 89.3876C46.3179 88.7079 46.8042 88.1805 47.3784 87.8055C47.9526 87.4247 48.5913 87.2343 49.2944 87.2343C49.5171 87.2343 49.7398 87.2694 49.9624 87.3397L49.8482 87.744Z" fill="black"/>
<path d="M56.2923 94.5907C56.5033 93.4891 55.7005 92.7069 53.8841 92.244L52.9085 91.9628C51.5609 91.5233 50.9691 90.7469 51.1332 89.6337C51.2386 88.913 51.6195 88.3329 52.2757 87.8934C52.932 87.454 53.6937 87.2343 54.5609 87.2343C55.516 87.2343 56.263 87.4803 56.8021 87.9725C57.3412 88.4647 57.5697 89.1239 57.4876 89.9501H57.013C57.0834 89.2821 56.8871 88.743 56.4242 88.3329C55.9613 87.9169 55.3431 87.7089 54.5697 87.7089C53.8197 87.7089 53.1664 87.8817 52.6097 88.2274C52.0531 88.5731 51.7191 89.036 51.6078 89.6161C51.432 90.5477 51.971 91.2098 53.225 91.6024L54.5345 91.9803L54.974 92.1298C56.3392 92.6278 56.9369 93.451 56.7669 94.5995C56.6556 95.3553 56.263 95.9618 55.5892 96.4188C54.9154 96.87 54.1097 97.0956 53.1722 97.0956C52.1937 97.0956 51.4115 96.8583 50.8255 96.3837C50.2396 95.9032 49.9876 95.2762 50.0697 94.5028H50.5355C50.5062 95.1591 50.723 95.6776 51.1859 96.0585C51.6546 96.4335 52.3138 96.621 53.1634 96.621C53.972 96.6034 54.6693 96.41 55.2552 96.0409C55.8412 95.6659 56.1869 95.1825 56.2923 94.5907Z" fill="black"/>
<path d="M62.0106 84.8436L61.5712 87.41H63.6542L63.5927 87.8934H61.4833L60.2792 94.8544L60.244 95.3378C60.2264 95.7362 60.3085 96.0497 60.4901 96.2782C60.6718 96.5009 60.9472 96.6151 61.3163 96.621C61.4804 96.621 61.7997 96.5946 62.2743 96.5419L62.2919 96.9901C62.0223 97.0604 61.703 97.0956 61.3339 97.0956C60.3378 97.0956 59.8192 96.5829 59.7782 95.5575C59.7665 95.2587 59.787 94.954 59.8397 94.6434L60.9999 87.8934H59.3036L59.3739 87.41H61.0878L61.5272 84.8436H62.0106Z" fill="black"/>
<path d="M70.6782 96.9198L70.9771 95.3817C70.561 95.9559 70.0571 96.3866 69.4653 96.6737C68.8735 96.955 68.2232 97.0956 67.5142 97.0956C66.7759 97.0956 66.1899 96.8993 65.7564 96.5067C65.3286 96.1141 65.0796 95.5546 65.0093 94.828C64.9683 94.3651 64.9888 93.8876 65.0708 93.3954L66.0991 87.41H66.5737L65.5278 93.4657C65.4634 93.8641 65.4429 94.2509 65.4663 94.6259C65.4956 95.2587 65.686 95.7509 66.0376 96.1024C66.3892 96.4481 66.8755 96.621 67.4966 96.621C68.3521 96.621 69.1226 96.3895 69.8081 95.9266C70.4937 95.4579 70.9448 94.8485 71.1616 94.0985L72.313 87.41H72.7964L71.1616 96.9198H70.6782Z" fill="black"/>
<path d="M77.0431 96.1464L81.7277 87.4188H82.2462L77.1925 96.9198H76.7267L74.6085 87.4012H75.1007L77.0431 96.1464Z" fill="black"/>
<path d="M84.7214 94.2128L84.8532 96.1815L89.0719 87.41H89.5465L90.4518 94.1688L90.7067 96.1903L91.5944 94.1337L94.6266 87.4188H95.1891L90.8737 96.9198H90.3991L89.3444 89.7303L89.2214 88.1044L88.4479 89.8094L84.9938 96.9198H84.5192L83.4645 87.4012L83.9919 87.41L84.7214 94.2128Z" fill="black"/>
<path d="M99.4924 91.62L103.096 87.4188L103.702 87.4276L99.7297 92.077L102.393 96.9198H101.83L99.4045 92.4637L95.59 96.9198H94.9836L99.1672 92.0067L96.6359 87.4012H97.2072L99.4924 91.62Z" fill="black"/>
<path d="M107.267 96.1815L107.355 95.9969L112.04 87.4188H112.576L106.564 98.5194C106.131 99.3397 105.691 99.9139 105.246 100.242C104.801 100.576 104.305 100.749 103.76 100.761C103.538 100.761 103.303 100.728 103.057 100.664L103.11 100.216C103.409 100.268 103.608 100.295 103.708 100.295C104.487 100.295 105.161 99.8612 105.729 98.994L106.081 98.4139L106.933 96.8231L104.877 87.4012H105.378L107.267 96.1815Z" fill="black"/>
<path d="M112.792 96.4452H119.331L119.261 96.9198H112.063L112.124 96.5331L119.657 87.8934H113.891L113.961 87.41L120.386 87.4188L120.324 87.8319L112.792 96.4452Z" fill="black"/>
</g>
<g id="1234567890">
<path d="M9.71973 117.92H9.24512L11.3545 105.747L7.56641 107.092L7.63672 106.582L11.8027 105.088H11.917L9.71973 117.92Z" fill="black"/>
<path d="M22.5689 117.92H15.1422L15.1949 117.445L20.9342 111.653C22.0826 110.47 22.7389 109.38 22.9029 108.384C23.0553 107.516 22.9029 106.807 22.4459 106.257C21.9889 105.7 21.3033 105.422 20.3892 105.422C19.4986 105.422 18.7135 105.738 18.0338 106.371C17.3541 106.998 16.9205 107.786 16.733 108.735H16.2584C16.4459 107.645 16.9264 106.743 17.6998 106.028C18.4791 105.307 19.3726 104.947 20.3805 104.947C21.4234 104.947 22.2232 105.264 22.7799 105.896C23.3424 106.523 23.5475 107.352 23.3951 108.384C23.2428 109.432 22.5631 110.593 21.356 111.864L15.8453 117.445H22.6305L22.5689 117.92Z" fill="black"/>
<path d="M28.1056 111.152H28.8879C29.9015 111.152 30.7746 110.903 31.507 110.405C32.2394 109.901 32.6818 109.227 32.8342 108.384C32.9865 107.516 32.8254 106.807 32.3508 106.257C31.8762 105.7 31.1935 105.422 30.3029 105.422C29.3888 105.422 28.589 105.703 27.9035 106.266C27.2238 106.822 26.7873 107.56 26.5939 108.48L26.1193 108.472C26.301 107.429 26.7844 106.582 27.5695 105.932C28.3547 105.275 29.2658 104.947 30.3029 104.947C31.3224 104.947 32.1164 105.272 32.6847 105.923C33.2531 106.567 33.4611 107.399 33.3088 108.419C33.215 109.081 32.925 109.673 32.4387 110.194C31.9582 110.716 31.3195 111.111 30.5226 111.381C31.2785 111.592 31.8469 111.978 32.2277 112.541C32.6144 113.098 32.7492 113.76 32.632 114.527C32.4738 115.576 32.0021 116.434 31.217 117.102C30.4318 117.765 29.4943 118.096 28.4045 118.096C27.6838 118.096 27.0392 117.937 26.4709 117.621C25.9084 117.305 25.4894 116.859 25.214 116.285C24.9387 115.705 24.842 115.063 24.924 114.36H25.3986C25.2756 115.286 25.5012 116.062 26.0754 116.689C26.6496 117.31 27.423 117.621 28.3957 117.621C29.3742 117.621 30.2033 117.343 30.883 116.786C31.5685 116.229 31.9904 115.488 32.1486 114.562C32.301 113.637 32.0871 112.919 31.507 112.409C30.9328 111.899 30.051 111.644 28.8615 111.644H28.0441L28.1056 111.152Z" fill="black"/>
<path d="M40.9109 113.956H43.0467L42.9851 114.431H40.8318L40.2254 117.92H39.7595L40.3572 114.431L34.3455 114.422L34.3806 114.167L41.8513 105.132L42.4314 105.123L40.9109 113.956ZM35.1717 113.956H40.4363L41.8601 105.765L40.9636 106.933L35.1717 113.956Z" fill="black"/>
<path d="M45.8324 111.214L47.3529 105.123H53.4086L53.3558 105.589H47.722L46.3773 110.722C47.139 110.165 48.0443 109.881 49.0931 109.869C49.808 109.869 50.4173 110.042 50.9213 110.388C51.431 110.733 51.7943 111.211 52.0111 111.82C52.2338 112.43 52.2923 113.103 52.1869 113.842C51.9935 115.148 51.5336 116.185 50.807 116.953C50.0804 117.715 49.1634 118.096 48.056 118.096C47.0423 118.096 46.2484 117.773 45.6742 117.129C45.1 116.484 44.8363 115.626 44.8832 114.554H45.3578C45.3109 115.509 45.5218 116.259 45.9906 116.804C46.4652 117.349 47.1537 117.621 48.056 117.621C48.8529 117.621 49.5443 117.39 50.1302 116.927C50.7162 116.464 51.1556 115.79 51.4486 114.905C51.7416 114.015 51.8295 113.224 51.7123 112.532C51.5892 111.847 51.2963 111.313 50.8334 110.932C50.3763 110.546 49.8021 110.349 49.1107 110.344C48.0502 110.332 47.0746 110.669 46.1839 111.354L45.8324 111.214Z" fill="black"/>
<path d="M61.6699 104.947L61.6084 105.422C59.956 105.422 58.5615 105.958 57.4248 107.03C56.288 108.097 55.4853 109.579 55.0166 111.477C55.3916 110.974 55.8427 110.555 56.3701 110.221C57.1201 109.746 57.9316 109.509 58.8046 109.509C59.5136 109.509 60.1142 109.693 60.6064 110.062C61.0986 110.432 61.4443 110.935 61.6435 111.574C61.8486 112.213 61.8955 112.922 61.7841 113.701C61.6611 114.51 61.3916 115.26 60.9755 115.951C60.5654 116.642 60.0673 117.173 59.4814 117.542C58.8955 117.911 58.2773 118.096 57.6269 118.096C56.8535 118.096 56.1884 117.899 55.6318 117.507C55.081 117.108 54.6826 116.557 54.4365 115.854C54.1904 115.151 54.1259 114.398 54.2431 113.596L54.4453 112.286C54.7968 110.024 55.5937 108.237 56.8359 106.925C58.0781 105.606 59.6894 104.947 61.6699 104.947ZM58.7431 109.983C57.9228 109.983 57.1259 110.229 56.3525 110.722C55.5849 111.208 55.1015 111.788 54.9023 112.462L54.7177 113.587C54.6064 114.319 54.6533 115.002 54.8584 115.635C55.0634 116.267 55.4033 116.76 55.8779 117.111C56.3525 117.463 56.9326 117.636 57.6181 117.63C58.333 117.624 58.9892 117.372 59.5869 116.874C60.1904 116.376 60.6591 115.696 60.9931 114.835C61.3271 113.974 61.4414 113.139 61.3359 112.33C61.2363 111.592 60.958 111.017 60.5009 110.607C60.0439 110.191 59.458 109.983 58.7431 109.983Z" fill="black"/>
<path d="M72.6207 105.422L65.2203 117.92H64.7281L72.0406 105.598H64.6578L64.7193 105.123H72.6558L72.6207 105.422Z" fill="black"/>
<path d="M81.7433 108.375C81.6261 109.072 81.3185 109.684 80.8204 110.212C80.3224 110.733 79.6867 111.123 78.9132 111.381C79.6515 111.627 80.214 112.04 80.6007 112.62C80.9933 113.194 81.1339 113.85 81.0226 114.589C80.8585 115.638 80.3546 116.484 79.5109 117.129C78.6671 117.773 77.6652 118.096 76.505 118.096C75.7609 118.096 75.1046 117.949 74.5363 117.656C73.9738 117.357 73.5636 116.944 73.3058 116.417C73.048 115.884 72.9777 115.274 73.0949 114.589C73.2238 113.827 73.5636 113.168 74.1144 112.611C74.6652 112.049 75.3859 111.633 76.2765 111.363C75.6261 111.111 75.1427 110.716 74.8263 110.177C74.5158 109.638 74.4132 109.037 74.5187 108.375C74.6769 107.373 75.1427 106.553 75.9161 105.914C76.6896 105.269 77.6036 104.947 78.6583 104.947C79.3204 104.947 79.9093 105.097 80.4249 105.395C80.9464 105.688 81.3214 106.099 81.5499 106.626C81.7843 107.147 81.8488 107.73 81.7433 108.375ZM80.5304 114.633C80.6359 114.07 80.5773 113.56 80.3546 113.103C80.1378 112.646 79.7804 112.283 79.2824 112.014C78.7843 111.744 78.2277 111.609 77.6124 111.609C76.6281 111.609 75.7462 111.891 74.9669 112.453C74.1935 113.016 73.7247 113.742 73.5607 114.633C73.4025 115.517 73.6017 116.238 74.1583 116.795C74.7208 117.346 75.5001 117.621 76.4962 117.621C77.504 117.621 78.3859 117.346 79.1417 116.795C79.9035 116.238 80.3663 115.517 80.5304 114.633ZM81.2775 108.331C81.424 107.516 81.2365 106.828 80.715 106.266C80.1935 105.703 79.5109 105.422 78.6671 105.422C77.7589 105.422 76.9591 105.697 76.2677 106.248C75.5822 106.793 75.1603 107.487 75.0021 108.331C74.8497 109.14 75.0255 109.81 75.5294 110.344C76.0392 110.871 76.7306 111.135 77.6036 111.135C78.4943 111.135 79.2882 110.874 79.9855 110.352C80.6886 109.831 81.1193 109.157 81.2775 108.331Z" fill="black"/>
<path d="M90.4441 111.618L90.4529 111.548C90.0075 112.257 89.4421 112.81 88.7566 113.209C88.0769 113.607 87.3474 113.807 86.5681 113.807C85.7185 113.807 85.0212 113.505 84.4763 112.901C83.9314 112.298 83.6296 111.504 83.571 110.519C83.5124 109.664 83.6853 108.782 84.0896 107.874C84.4939 106.96 85.0329 106.248 85.7068 105.738C86.3865 105.223 87.1335 104.959 87.948 104.947C88.657 104.947 89.2575 105.099 89.7497 105.404C90.2478 105.709 90.6199 106.16 90.8659 106.758C91.112 107.349 91.2351 108.017 91.2351 108.762C91.2234 109.412 91.1032 110.379 90.8747 111.662C90.5056 113.701 89.7527 115.277 88.6159 116.391C87.4792 117.504 86.0525 118.072 84.3357 118.096H83.949L84.0193 117.621H84.2302C85.8298 117.621 87.1628 117.111 88.2292 116.092C89.3015 115.066 90.0398 113.575 90.4441 111.618ZM86.5681 113.332C87.4118 113.332 88.2322 113.059 89.029 112.515C89.8259 111.964 90.3415 111.305 90.5759 110.537C90.6872 109.851 90.7488 109.315 90.7605 108.929C90.7839 108.243 90.6902 107.625 90.4792 107.074C90.2741 106.517 89.9607 106.104 89.5388 105.835C89.1169 105.559 88.5984 105.422 87.9831 105.422C87.239 105.433 86.5593 105.685 85.9441 106.178C85.3288 106.67 84.8396 107.341 84.4763 108.19C84.1599 108.934 84.0134 109.664 84.0368 110.379C84.0544 111.246 84.2917 111.955 84.7488 112.506C85.2116 113.057 85.8181 113.332 86.5681 113.332Z" fill="black"/>
<path d="M95.7698 118.096C95.1019 118.096 94.5394 117.929 94.0823 117.595C93.6253 117.261 93.2884 116.768 93.0716 116.118C92.8607 115.462 92.7728 114.715 92.8079 113.877L92.8782 113.033L93.3001 110.537C93.5989 108.797 94.1468 107.429 94.9437 106.432C95.7405 105.436 96.7396 104.938 97.9407 104.938C98.6204 104.938 99.1888 105.108 99.6458 105.448C100.103 105.782 100.437 106.28 100.648 106.942C100.859 107.604 100.944 108.346 100.903 109.166L100.815 110.115L100.384 112.611C100.079 114.34 99.5286 115.687 98.7318 116.654C97.9349 117.615 96.9476 118.096 95.7698 118.096ZM100.428 108.199C100.352 107.273 100.103 106.579 99.681 106.116C99.2591 105.647 98.6819 105.413 97.9495 105.413C96.8948 105.413 96.0042 105.864 95.2776 106.766C94.5569 107.663 94.053 108.937 93.7659 110.59L93.3616 112.963L93.2913 113.71C93.2327 114.436 93.2825 115.107 93.4407 115.723C93.5989 116.338 93.8743 116.809 94.2669 117.138C94.6595 117.46 95.1575 117.621 95.761 117.621C96.8099 117.621 97.6917 117.179 98.4066 116.294C99.1273 115.403 99.6282 114.167 99.9095 112.585L100.279 110.493C100.431 109.632 100.481 108.867 100.428 108.199Z" fill="black"/>
</g>
</g>
</svg>
