<svg width="155" height="122" viewBox="0 0 155 122" fill="none" xmlns="http://www.w3.org/2000/svg">
<g id="Roboto_Italic" clip-path="url(#clip0)">
<g id="Italic">
<path d="M1.29883 13.5162V3.39905H2.73438V13.5162H1.29883Z" fill="black"/>
<path d="M7.5972 13.6871C6.9136 13.6871 6.3804 13.4912 5.99759 13.0992C5.61478 12.7073 5.42337 12.1627 5.42337 11.4655V7.10413H4.49368V6.09241H5.42337V4.74573L6.77005 4.61584V6.09241H8.71146V7.10413H6.77005V11.2194C6.77005 12.1901 7.18932 12.6754 8.02786 12.6754C8.2056 12.6754 8.42207 12.6458 8.67728 12.5865V13.5162C8.26256 13.6302 7.90254 13.6871 7.5972 13.6871Z" fill="black"/>
<path d="M14.4359 12.5729C13.6293 13.3157 12.8523 13.6871 12.1049 13.6871C11.4896 13.6871 10.9792 13.4957 10.5736 13.1129C10.168 12.7255 9.96523 12.2379 9.96523 11.65C9.96523 10.8388 10.3048 10.2168 10.9838 9.78381C11.6674 9.34631 12.6449 9.12756 13.9164 9.12756H14.2377V8.23206C14.2377 7.37073 13.7956 6.94006 12.9115 6.94006C12.2006 6.94006 11.4327 7.15881 10.6078 7.59631V6.48206C11.5147 6.11292 12.3646 5.92834 13.1576 5.92834C13.987 5.92834 14.5977 6.11519 14.9896 6.48889C15.3861 6.86259 15.5844 7.44364 15.5844 8.23206V11.5953C15.5844 12.3655 15.8214 12.7506 16.2953 12.7506C16.3546 12.7506 16.4411 12.7415 16.5551 12.7233L16.6508 13.4684C16.3454 13.6142 16.0082 13.6871 15.6391 13.6871C15.0102 13.6871 14.6091 13.3157 14.4359 12.5729ZM14.2377 11.8414V9.92053L13.7865 9.90686C13.0482 9.90686 12.4512 10.0481 11.9955 10.3307C11.5398 10.6087 11.3119 10.9755 11.3119 11.4313C11.3119 11.7548 11.4258 12.0283 11.6537 12.2516C11.8816 12.4749 12.1596 12.5865 12.4877 12.5865C13.0482 12.5865 13.6316 12.3382 14.2377 11.8414Z" fill="black"/>
<path d="M18.3349 13.5162V2.72229H19.6816V13.5162H18.3349Z" fill="black"/>
<path d="M22.3706 13.5162V6.09241H23.7172V13.5162H22.3706ZM22.3706 4.74573V3.39905H23.7172V4.74573H22.3706Z" fill="black"/>
<path d="M29.3187 13.6871C28.3161 13.6871 27.4844 13.3157 26.8236 12.5729C26.1628 11.83 25.8324 10.8935 25.8324 9.76331C25.8324 8.55562 26.1582 7.61454 26.8099 6.94006C27.4661 6.26558 28.3799 5.92834 29.5511 5.92834C30.1299 5.92834 30.777 6.0081 31.4925 6.1676V7.29553C30.7314 7.07222 30.1116 6.96057 29.6331 6.96057C28.945 6.96057 28.3913 7.22034 27.972 7.73987C27.5573 8.25484 27.3499 8.94299 27.3499 9.80432C27.3499 10.6383 27.5641 11.3128 27.9925 11.8278C28.4209 12.3427 28.9814 12.6002 29.6741 12.6002C30.2894 12.6002 30.9228 12.443 31.5745 12.1285V13.2906C30.7041 13.555 29.9521 13.6871 29.3187 13.6871Z" fill="black"/>
</g>
<g id="ABCDEFGHIJKLM">
<path d="M12.9893 30.571H7.80371L6.05469 33.9108H4.28809L11.2402 21.1139H12.6904L15.2217 33.9108H13.5957L12.9893 30.571ZM8.5332 29.1823H12.7432L11.6797 23.2145L8.5332 29.1823Z" fill="black"/>
<path d="M16.9917 33.9108L19.2153 21.1139L22.9682 21.1227C24.2749 21.1227 25.2534 21.4157 25.9038 22.0016C26.5542 22.5876 26.8384 23.4049 26.7563 24.4538C26.6509 25.6784 25.8803 26.6012 24.4448 27.2223C25.019 27.445 25.4467 27.8258 25.728 28.3649C26.0151 28.904 26.1323 29.4987 26.0796 30.1491C25.9917 31.3034 25.5288 32.2204 24.6909 32.9001C23.853 33.5739 22.769 33.9108 21.4389 33.9108H16.9917ZM19.6811 27.9254L18.8813 32.5309L21.4917 32.5397C22.2885 32.5397 22.9565 32.3258 23.4956 31.8981C24.0346 31.4704 24.3481 30.8932 24.436 30.1667C24.518 29.4752 24.3979 28.9362 24.0757 28.5495C23.7534 28.1627 23.2466 27.9577 22.5551 27.9342L19.6811 27.9254ZM19.9184 26.5719L22.3003 26.5807C23.0444 26.5807 23.6714 26.3903 24.1811 26.0094C24.6967 25.6286 24.9985 25.1042 25.0864 24.4362C25.1626 23.8151 25.0395 23.3463 24.7173 23.0299C24.4009 22.7135 23.8735 22.5407 23.1352 22.5114L20.6216 22.5026L19.9184 26.5719Z" fill="black"/>
<path d="M37.7145 29.8327C37.4684 31.1569 36.8678 32.2057 35.9127 32.9792C34.9635 33.7526 33.8239 34.1217 32.4938 34.0866C31.7028 34.069 31.0114 33.8756 30.4196 33.5065C29.8278 33.1315 29.3678 32.5954 29.0397 31.8981C28.7115 31.195 28.5299 30.4186 28.4948 29.569C28.4713 29.0885 28.4918 28.6198 28.5563 28.1627L28.7057 27.1081C28.9811 25.1862 29.6549 23.6715 30.7272 22.5641C31.8053 21.4508 33.1149 20.9088 34.6559 20.9381C35.8571 20.9616 36.8092 21.3512 37.5123 22.1071C38.2155 22.8571 38.5875 23.9001 38.6285 25.236H36.985C36.9088 23.443 36.2057 22.4762 34.8756 22.3356L34.5856 22.318C33.4782 22.2887 32.5524 22.7018 31.8082 23.5573C31.0699 24.4069 30.5924 25.57 30.3756 27.0465L30.1823 28.3737L30.1295 29.1471C30.0944 30.2252 30.2848 31.0836 30.7008 31.7223C31.1227 32.3551 31.7467 32.6833 32.5729 32.7067C33.4635 32.736 34.1989 32.5221 34.7789 32.0651C35.3649 31.6081 35.8102 30.8727 36.1149 29.859L37.7145 29.8327Z" fill="black"/>
<path d="M39.4232 33.9108L41.6468 21.1139L44.9691 21.1227C46.012 21.1227 46.9085 21.3835 47.6585 21.9049C48.4144 22.4264 48.9564 23.1471 49.2845 24.067C49.6126 24.9811 49.7093 26.0065 49.5745 27.1432L49.4866 27.7848C49.2288 29.6481 48.5052 31.1364 47.3157 32.2497C46.1263 33.3571 44.6321 33.9108 42.8333 33.9108H39.4232ZM43.053 22.5026L41.3128 32.5309L42.9388 32.5397C44.181 32.5397 45.2327 32.153 46.0941 31.3795C46.9612 30.6061 47.5237 29.5456 47.7816 28.1979C47.9866 27.1198 48.0569 26.2028 47.9925 25.4469C47.9046 24.5387 47.6028 23.8297 47.0872 23.32C46.5716 22.8043 45.8802 22.5348 45.013 22.5114L43.053 22.5026Z" fill="black"/>
<path d="M59.0334 27.9958H53.6544L52.8634 32.5309H59.1212L58.8752 33.9108H50.9738L53.1974 21.1139H61.0109L60.7648 22.5026H54.6037L53.8918 26.6159H59.2707L59.0334 27.9958Z" fill="black"/>
<path d="M68.8368 28.2594H63.6336L62.6493 33.9108H60.9969L63.2206 21.1139H70.9198L70.6737 22.5026H64.6268L63.8709 26.8795H69.0829L68.8368 28.2594Z" fill="black"/>
<path d="M80.2923 32.2233C79.8646 32.8268 79.2405 33.2926 78.4202 33.6208C77.6058 33.943 76.6741 34.0983 75.6253 34.0866C74.7874 34.069 74.055 33.8727 73.428 33.4977C72.8011 33.1227 72.3089 32.5866 71.9515 31.8893C71.5941 31.1862 71.389 30.3893 71.3362 29.4987C71.2952 28.8014 71.3802 27.8581 71.5911 26.6686C71.8079 25.4792 72.1829 24.4508 72.7161 23.5836C73.2493 22.7165 73.9144 22.0543 74.7112 21.5973C75.514 21.1403 76.431 20.9206 77.4622 20.9381C78.6517 20.9616 79.598 21.3161 80.3011 22.0016C81.0101 22.6813 81.4144 23.6393 81.514 24.8756H79.8792C79.8148 24.067 79.5716 23.446 79.1497 23.0124C78.7278 22.5788 78.1448 22.3502 77.4007 22.3268C76.2991 22.2858 75.3763 22.6813 74.6321 23.5133C73.8939 24.3454 73.4075 25.5612 73.1732 27.1608L73.0062 28.3913L72.9798 29.0592C72.9798 30.2135 73.2171 31.1071 73.6917 31.7399C74.1663 32.3668 74.8314 32.6862 75.6868 32.6979C76.9232 32.7272 77.9046 32.4225 78.6312 31.7838L79.1585 28.9098H76.2757L76.5218 27.5387H81.0218L80.2923 32.2233Z" fill="black"/>
<path d="M92.2628 33.9108H90.6104L91.6388 27.9958H85.3897L84.3614 33.9108H82.7091L84.9327 21.1139H86.5851L85.627 26.6159H91.8673L92.8253 21.1139H94.4864L92.2628 33.9108Z" fill="black"/>
<path d="M97.0143 33.9108H95.3707L97.5944 21.1139H99.2379L97.0143 33.9108Z" fill="black"/>
<path d="M107.554 21.1139H109.206L107.668 30.1754C107.498 31.3825 107.009 32.3463 106.2 33.067C105.392 33.7819 104.384 34.1276 103.177 34.1042C102.052 34.0807 101.182 33.7409 100.567 33.0846C99.9514 32.4284 99.679 31.526 99.7493 30.3776H101.393C101.328 31.0807 101.46 31.6432 101.788 32.0651C102.116 32.4811 102.609 32.695 103.265 32.7067C103.986 32.7301 104.595 32.5045 105.093 32.0299C105.591 31.5553 105.896 30.9401 106.007 30.1842L107.554 21.1139Z" fill="black"/>
<path d="M114.052 27.9782L112.18 29.6569L111.442 33.9108H109.79L112.013 21.1139H113.666L112.576 27.3454L119.097 21.1139H121.224L115.274 26.8444L119.256 33.9108H117.419L114.052 27.9782Z" fill="black"/>
<path d="M122.724 32.5309H128.612L128.366 33.9108H120.825L123.049 21.1139H124.71L122.724 32.5309Z" fill="black"/>
<path d="M134.622 21.1139L136.863 31.5377L142.735 21.1139H144.905L142.682 33.9108H141.038L141.917 28.8483L142.963 23.6979L137.162 33.9108H135.897L133.612 23.4958L132.82 29.0153L131.968 33.9108H130.316L132.539 21.1139H134.622Z" fill="black"/>
</g>
<g id="NOPQRSTUVWXYZ">
<path d="M15.0723 54.9108H13.4727L8.90234 44.9791L7.17969 54.9108H5.51855L7.74219 42.1139H9.3418L13.9209 52.0895L15.6523 42.1139H17.2959L15.0723 54.9108Z" fill="black"/>
<path d="M22.7454 55.0865C21.931 55.069 21.222 54.8727 20.6185 54.4977C20.0208 54.1227 19.5491 53.5719 19.2034 52.8453C18.8577 52.1129 18.6673 51.2926 18.6321 50.3844C18.597 49.6754 18.6761 48.7994 18.8694 47.7565C19.0628 46.7135 19.3968 45.7731 19.8714 44.9352C20.346 44.0973 20.9232 43.4264 21.6028 42.9225C22.5228 42.2428 23.5716 41.9147 24.7493 41.9381C25.9974 41.9615 26.9817 42.3951 27.7024 43.2389C28.4232 44.0768 28.8099 45.2135 28.8626 46.649C28.886 47.2643 28.8216 48.0465 28.6692 48.9957C28.5228 49.9449 28.2562 50.8268 27.8694 51.6412C27.4886 52.4557 27.0023 53.1383 26.4105 53.6891C25.3792 54.65 24.1575 55.1158 22.7454 55.0865ZM27.2366 47.0533C27.2718 45.899 27.0696 45.0055 26.6302 44.3727C26.1907 43.734 25.5374 43.403 24.6702 43.3795C23.8851 43.3561 23.1819 43.567 22.5608 44.0123C21.9456 44.4576 21.4388 45.1256 21.0403 46.0162C20.6478 46.901 20.3987 48.0231 20.2933 49.3824L20.2669 49.9537C20.2317 51.1022 20.4368 52.0016 20.8821 52.652C21.3274 53.3024 21.9749 53.6393 22.8245 53.6627C23.9319 53.692 24.8489 53.2936 25.5755 52.4674C26.3079 51.6354 26.7942 50.4694 27.0345 48.9694C27.1517 48.2311 27.2191 47.5924 27.2366 47.0533Z" fill="black"/>
<path d="M32.6686 49.901L31.7985 54.9108H30.1461L32.3697 42.1139L36.6412 42.1227C37.9596 42.1227 38.9762 42.4742 39.691 43.1774C40.4059 43.8746 40.7135 44.8033 40.6139 45.9635C40.5084 47.1881 40.0192 48.152 39.1461 48.8551C38.2789 49.5582 37.1334 49.9098 35.7096 49.9098L32.6686 49.901ZM32.9059 48.5211L35.7535 48.5299C36.65 48.5299 37.3854 48.3043 37.9596 47.8531C38.5338 47.402 38.8707 46.775 38.9703 45.9723C39.0641 45.2516 38.9147 44.6686 38.5221 44.2233C38.1295 43.7721 37.5582 43.5348 36.8082 43.5114L33.776 43.5026L32.9059 48.5211Z" fill="black"/>
<path d="M48.6909 54.2428L50.5981 56.0797L49.3765 57.0729L47.144 54.9371C46.7104 55.0309 46.2768 55.0778 45.8433 55.0778C45.0405 55.0719 44.3345 54.8785 43.7251 54.4977C43.1157 54.111 42.6411 53.5573 42.3013 52.8365C41.9673 52.11 41.7827 51.2897 41.7475 50.3756C41.7124 49.6373 41.7886 48.7584 41.9761 47.7389C42.1694 46.7135 42.4975 45.7906 42.9604 44.9703C43.4233 44.1442 43.9829 43.4791 44.6391 42.9752C45.5766 42.2604 46.6489 41.9147 47.8559 41.9381C48.6821 41.9557 49.3999 42.1549 50.0093 42.5358C50.6186 42.9166 51.0903 43.4703 51.4243 44.1969C51.7583 44.9176 51.9429 45.735 51.978 46.649C51.9956 47.1412 51.9751 47.6305 51.9165 48.1168L51.811 48.8639C51.4477 51.3893 50.4077 53.1823 48.6909 54.2428ZM50.3433 47.0533C50.3843 45.8815 50.1821 44.9821 49.7368 44.3551C49.2915 43.7281 48.6411 43.403 47.7856 43.3795C47.0005 43.3561 46.2974 43.567 45.6763 44.0123C45.061 44.4576 44.5542 45.1256 44.1558 46.0162C43.7632 46.901 43.5141 48.0231 43.4087 49.3824L43.3823 49.9537C43.3589 50.6276 43.438 51.2574 43.6196 51.8434C43.8013 52.4293 44.0884 52.8746 44.4809 53.1793C44.8794 53.484 45.3657 53.6451 45.9399 53.6627C47.0181 53.7037 47.9233 53.3141 48.6558 52.4938C49.394 51.6735 49.8862 50.5162 50.1323 49.0221C50.2554 48.278 50.3257 47.6217 50.3433 47.0533Z" fill="black"/>
<path d="M58.8338 49.734H55.8807L54.9842 54.9108H53.323L55.5467 42.1139L59.3963 42.1227C60.7381 42.1285 61.7605 42.4684 62.4637 43.1422C63.1668 43.816 63.4627 44.733 63.3514 45.8932C63.2869 46.6959 62.9939 47.402 62.4725 48.0114C61.9568 48.6207 61.2684 49.0807 60.407 49.3912L62.3934 54.7965L62.3846 54.9108H60.6268L58.8338 49.734ZM56.118 48.3541L58.5437 48.3629C59.3875 48.3629 60.0994 48.1403 60.6795 47.6949C61.2596 47.2438 61.5994 46.6432 61.699 45.8932C61.7869 45.1608 61.6404 44.5865 61.2596 44.1705C60.8787 43.7545 60.2986 43.5348 59.5193 43.5114L56.9617 43.5026L56.118 48.3541Z" fill="black"/>
<path d="M71.3673 51.6149C71.4962 50.6774 71.0099 49.9918 69.9083 49.5582L68.3878 49.0045L67.878 48.7848C66.1671 48.0055 65.3673 46.9098 65.4786 45.4977C65.5372 44.7887 65.7804 44.1617 66.2081 43.6168C66.6358 43.0719 67.2013 42.653 67.9044 42.36C68.6134 42.0612 69.3663 41.9205 70.1632 41.9381C70.9366 41.9557 71.6251 42.1285 72.2286 42.4567C72.838 42.7848 73.3009 43.2448 73.6173 43.8365C73.9337 44.4225 74.0743 45.0846 74.0392 45.8229L72.378 45.8141C72.4366 45.0289 72.2608 44.4225 71.8507 43.9948C71.4405 43.5612 70.8546 43.3385 70.0929 43.3268C69.2901 43.3151 68.6192 43.5026 68.0802 43.8893C67.5411 44.276 67.2306 44.8033 67.1485 45.4713C67.0314 46.3444 67.5675 47.0065 68.7569 47.4576L70.0665 47.9235L70.7257 48.2047C72.378 48.9664 73.1427 50.0973 73.0196 51.5973C72.9552 52.318 72.712 52.942 72.2901 53.4694C71.8683 53.9908 71.2941 54.3951 70.5675 54.6823C69.8468 54.9694 69.0704 55.1041 68.2384 55.0865C67.4356 55.0807 66.7003 54.9108 66.0323 54.5768C65.3702 54.2369 64.8663 53.774 64.5206 53.1881C64.1749 52.6022 64.0226 51.9371 64.0636 51.193L65.7159 51.2018C65.6632 51.9635 65.8683 52.5699 66.3312 53.0211C66.7999 53.4664 67.4591 53.6949 68.3087 53.7067C69.1583 53.7184 69.8585 53.5338 70.4093 53.153C70.9601 52.7721 71.2794 52.2594 71.3673 51.6149Z" fill="black"/>
<path d="M85.1836 43.5026H81.2021L79.2246 54.9108H77.581L79.5586 43.5026H75.5771L75.8232 42.1139H85.4297L85.1836 43.5026Z" fill="black"/>
<path d="M96.1438 42.1139L94.6673 50.7711C94.4681 52.1012 93.8938 53.1617 92.9446 53.9528C91.9954 54.7379 90.8499 55.1188 89.5081 55.0953C88.6702 55.0778 87.9407 54.8903 87.3196 54.5328C86.7044 54.1696 86.2503 53.6627 85.9573 53.0123C85.6643 52.3561 85.5677 51.6119 85.6673 50.7799L87.1438 42.1139H88.7698L87.302 50.7887C87.2024 51.6852 87.3548 52.3912 87.7591 52.9069C88.1634 53.4166 88.7757 53.6832 89.596 53.7067C90.4866 53.7418 91.2366 53.5016 91.846 52.986C92.4612 52.4645 92.8479 51.735 93.0061 50.7975L94.4827 42.1139H96.1438Z" fill="black"/>
<path d="M101.048 52.652L106.242 42.1139H108.106L101.496 54.9108H100.037L97.4445 42.1139H99.1759L101.048 52.652Z" fill="black"/>
<path d="M111.121 50.9645L111.085 52.5114L111.683 50.9996L115.506 42.1139H116.904L117.915 51.1139L118.002 52.5729L118.556 50.8063L121.826 42.1139H123.522L118.512 54.9108H117.009L115.902 45.5153L115.867 44.6364L115.498 45.6559L111.419 54.9108H109.916L108.915 42.1139H110.523L111.121 50.9645Z" fill="black"/>
<path d="M128.629 47.0094L132.364 42.1139H134.403L129.42 48.5387L132.399 54.9108H130.545L128.277 49.9274L124.428 54.9108H122.388L127.477 48.3805L124.577 42.1139H126.405L128.629 47.0094Z" fill="black"/>
<path d="M139.167 48.5299L143.517 42.1139H145.486L139.747 50.2262L138.929 54.9108H137.286L138.13 50.0416L135.273 42.1139H137.066L139.167 48.5299Z" fill="black"/>
<path d="M146.436 53.5309H153.484L153.238 54.9108H144.194L144.432 53.5573L152.922 43.5026H146.277L146.523 42.1139H155.189L154.961 43.441L146.436 53.5309Z" fill="black"/>
</g>
<g id="abcdefghijklm">
<path d="M11.0908 75.9108C11.0498 75.7408 11.0293 75.5738 11.0293 75.4098L11.0557 74.9088C10.1826 75.7174 9.25684 76.11 8.27832 76.0865C7.44043 76.0748 6.75781 75.8111 6.23047 75.2955C5.70899 74.774 5.47168 74.1236 5.51856 73.3444C5.57715 72.3365 6.0166 71.5514 6.83691 70.9889C7.66309 70.4205 8.74707 70.1363 10.0889 70.1363L11.75 70.1451L11.8555 69.3893C11.9141 68.8209 11.8027 68.3727 11.5215 68.0445C11.2461 67.7106 10.8301 67.5377 10.2734 67.526C9.72852 67.5143 9.24512 67.649 8.82324 67.9303C8.40723 68.2057 8.15234 68.5719 8.05859 69.0289L6.45899 69.0377C6.51172 68.4811 6.72852 67.9889 7.10938 67.5611C7.49023 67.1276 7.97949 66.7936 8.57715 66.5592C9.17481 66.319 9.79297 66.2047 10.4316 66.2164C11.4219 66.2399 12.1924 66.5416 12.7432 67.1217C13.2939 67.6959 13.5254 68.4606 13.4375 69.4156L12.6641 74.1266L12.6201 74.8033C12.6084 75.1256 12.6436 75.4449 12.7256 75.7613L12.708 75.9108H11.0908ZM8.59473 74.6803C9.10449 74.692 9.58496 74.5719 10.0361 74.3199C10.4932 74.0621 10.8857 73.7076 11.2139 73.2565L11.5566 71.2965L10.3525 71.2877C9.35059 71.2877 8.58301 71.4459 8.04981 71.7623C7.5166 72.0787 7.21484 72.527 7.14453 73.107C7.0918 73.5524 7.19434 73.9244 7.45215 74.2233C7.71582 74.5162 8.09668 74.6686 8.59473 74.6803Z" fill="black"/>
<path d="M23.5007 71.1998C23.3835 72.1725 23.1169 73.0485 22.7009 73.8278C22.2849 74.607 21.7809 75.1842 21.1892 75.5592C20.5974 75.9342 19.9411 76.1129 19.2204 76.0953C18.072 76.0719 17.2194 75.6412 16.6628 74.8033L16.3376 75.9108H14.8698L17.2165 62.4108H18.8073L17.8493 67.4557C18.611 66.6119 19.5368 66.2018 20.6267 66.2252C21.5407 66.2486 22.2526 66.5856 22.7624 67.236C23.2722 67.8863 23.5417 68.7828 23.571 69.9254C23.5768 70.3004 23.5593 70.6637 23.5183 71.0153L23.5007 71.1998ZM21.989 70.277C22.0065 69.4215 21.863 68.7682 21.5583 68.317C21.2536 67.86 20.7878 67.6197 20.1608 67.5963C19.1706 67.5729 18.3327 68.0709 17.6472 69.0904L16.9352 73.2301C17.2868 74.1969 17.946 74.692 18.9128 74.7154C19.5339 74.7389 20.0759 74.5543 20.5388 74.1617C21.0075 73.7692 21.362 73.2213 21.6022 72.5182C21.8425 71.8092 21.9714 71.0621 21.989 70.277Z" fill="black"/>
<path d="M28.8006 74.7682C29.369 74.7799 29.8817 74.6158 30.3387 74.276C30.7957 73.9303 31.0945 73.4791 31.2352 72.9225L32.7381 72.9137C32.6502 73.5113 32.41 74.0563 32.0174 74.5485C31.6307 75.0406 31.1414 75.4244 30.5496 75.6998C29.9578 75.9752 29.3514 76.1041 28.7303 76.0865C27.9393 76.0748 27.2684 75.8697 26.7176 75.4713C26.1727 75.067 25.7713 74.5074 25.5135 73.7926C25.2557 73.0719 25.1678 72.2633 25.2498 71.3668L25.2938 70.9274C25.4051 70.0133 25.6717 69.1959 26.0936 68.4752C26.5154 67.7545 27.0662 67.1949 27.7459 66.7965C28.4256 66.3922 29.1756 66.2018 29.9959 66.2252C30.992 66.2486 31.7889 66.5826 32.3865 67.2272C32.9842 67.8717 33.283 68.6891 33.283 69.6793L31.7977 69.6705C31.786 69.0494 31.6131 68.5485 31.2791 68.1676C30.9451 67.7809 30.494 67.5758 29.9256 67.5524C29.0994 67.5348 28.411 67.8424 27.8602 68.4752C27.3153 69.108 26.9754 69.9928 26.8406 71.1295L26.8143 71.358C26.7791 71.733 26.7733 72.1197 26.7967 72.5182C26.8377 73.2037 27.0311 73.7457 27.3768 74.1442C27.7225 74.5426 28.1971 74.7506 28.8006 74.7682Z" fill="black"/>
<path d="M34.4692 71.1383C34.5864 70.1715 34.853 69.2985 35.2691 68.5192C35.6851 67.7399 36.1978 67.1569 36.8071 66.7701C37.4165 66.3834 38.0874 66.1988 38.8198 66.2164C39.8804 66.2399 40.6948 66.6266 41.2632 67.3766L42.1773 62.4108H43.7681L41.4302 75.9108H39.98L40.147 74.8912C39.397 75.7115 38.4712 76.11 37.3696 76.0865C36.4907 76.0631 35.7905 75.7203 35.2691 75.0582C34.7476 74.3903 34.4663 73.4967 34.4253 72.3776C34.4077 72.0319 34.4224 71.6188 34.4692 71.1383ZM35.9985 72.0524C35.981 72.8903 36.1304 73.5406 36.4468 74.0035C36.7632 74.4664 37.2261 74.7037 37.8355 74.7154C38.7554 74.7565 39.5728 74.2936 40.2876 73.3268L41.0435 68.9322C40.6919 68.0651 40.0532 67.6197 39.1274 67.5963C38.5005 67.5787 37.9468 67.7692 37.4663 68.1676C36.9917 68.5602 36.6284 69.1139 36.3765 69.8287C36.1304 70.5377 36.0044 71.2789 35.9985 72.0524Z" fill="black"/>
<path d="M48.0568 76.0865C46.8732 76.0631 45.9475 75.6266 45.2795 74.777C44.6115 73.9274 44.3303 72.8404 44.4357 71.5162L44.4797 71.1383C44.5793 70.1949 44.8576 69.3336 45.3147 68.5543C45.7775 67.775 46.34 67.1891 47.0022 66.7965C47.6643 66.3981 48.3791 66.2076 49.1467 66.2252C50.1252 66.2486 50.8928 66.5738 51.4494 67.2008C52.0061 67.8278 52.3107 68.6774 52.3635 69.7496C52.3811 70.1305 52.3693 70.5113 52.3283 70.8922L52.2316 71.6217H46.0178C45.9123 72.483 46.0529 73.2154 46.4397 73.819C46.8322 74.4225 47.4152 74.736 48.1887 74.7594C49.1262 74.7828 49.9934 74.361 50.7902 73.4938L51.7043 74.2672C51.3059 74.8414 50.7902 75.2926 50.1574 75.6207C49.5305 75.943 48.8303 76.0983 48.0568 76.0865ZM49.0676 67.5524C48.4113 67.5348 47.8371 67.7574 47.3449 68.2203C46.8586 68.6832 46.4719 69.3717 46.1848 70.2858L50.8078 70.2945L50.843 70.1539C50.9367 69.4156 50.8166 68.8033 50.4826 68.317C50.1545 67.8248 49.6828 67.5699 49.0676 67.5524Z" fill="black"/>
<path d="M54.0507 75.9108L55.4921 67.6578H54.0243L54.244 66.401H55.703L55.8612 65.276C56.0136 64.3209 56.3827 63.5738 56.9686 63.0348C57.5839 62.4723 58.369 62.1969 59.3241 62.2086C59.6229 62.2086 60.0009 62.2584 60.4579 62.358L60.2645 63.6852C59.9833 63.6266 59.6991 63.5914 59.412 63.5797C58.8612 63.5797 58.413 63.7526 58.0673 64.0983C57.7274 64.4381 57.5165 64.8922 57.4345 65.4606L57.2938 66.401H59.2626L59.0429 67.6578H57.0741L55.6415 75.9108H54.0507Z" fill="black"/>
<path d="M59.6791 71.1383C59.8197 70.1012 60.0981 69.2018 60.5141 68.4401C60.9359 67.6725 61.4457 67.107 62.0434 66.7438C62.6469 66.3746 63.3061 66.1988 64.0209 66.2164C65.1225 66.2399 65.9545 66.6559 66.517 67.4645L66.8334 66.401H68.2924L66.7104 75.7086C66.5404 76.9215 66.0482 77.8912 65.2338 78.6178C64.4193 79.3502 63.4145 79.6988 62.2191 79.6637C61.5746 79.652 60.9565 79.4996 60.3647 79.2067C59.7787 78.9137 59.3158 78.5123 58.976 78.0026L59.8813 77.027C60.4555 77.8766 61.2143 78.3131 62.1576 78.3365C62.9135 78.36 63.5522 78.149 64.0736 77.7037C64.601 77.2584 64.9496 76.6256 65.1195 75.8053L65.2953 74.9615C64.5219 75.735 63.6166 76.11 62.5795 76.0865C61.9877 76.069 61.4721 75.9108 61.0326 75.6119C60.599 75.3072 60.2621 74.8707 60.0219 74.3024C59.7816 73.7281 59.6498 73.0895 59.6264 72.3863C59.6147 72.0406 59.6322 71.6246 59.6791 71.1383ZM61.2172 72.0436C61.1996 72.8815 61.3432 73.5319 61.6479 73.9947C61.9584 74.4518 62.4242 74.692 63.0453 74.7154C63.9945 74.7389 64.8119 74.2731 65.4975 73.318L66.2445 68.9498C65.893 68.0826 65.2572 67.6315 64.3373 67.5963C63.476 67.5729 62.767 67.9244 62.2104 68.651C61.6596 69.3776 61.3344 70.359 61.2348 71.5953L61.2172 72.0436Z" fill="black"/>
<path d="M72.0982 67.5611C72.9302 66.6529 73.8882 66.2106 74.9722 66.234C75.8628 66.2457 76.522 66.5533 76.9497 67.1569C77.3833 67.7545 77.5445 68.5953 77.4331 69.6793L76.396 75.9108H74.8052L75.8511 69.6529C75.8863 69.3658 75.8892 69.0992 75.8599 68.8531C75.7603 68.0328 75.2769 67.6139 74.4097 67.5963C73.437 67.5729 72.5992 68.0826 71.896 69.1256L70.7183 75.9108H69.1275L71.4742 62.4108H73.065L72.0982 67.5611Z" fill="black"/>
<path d="M80.5529 75.9108H78.9709L80.6233 66.401H82.2053L80.5529 75.9108ZM81.8625 62.9293C82.132 62.9176 82.3547 62.9996 82.5305 63.1754C82.7121 63.3453 82.8029 63.5709 82.8029 63.8522C82.7971 64.1276 82.7063 64.3531 82.5305 64.5289C82.3606 64.7047 82.1379 64.7985 81.8625 64.8102C81.5871 64.8219 81.3615 64.7428 81.1858 64.5729C81.01 64.4029 80.925 64.1803 80.9309 63.9049C80.9367 63.6295 81.0246 63.401 81.1945 63.2194C81.3645 63.0377 81.5871 62.941 81.8625 62.9293Z" fill="black"/>
<path d="M86.4681 66.401L84.6664 77.0445C84.5492 77.941 84.2474 78.6236 83.7611 79.0924C83.2806 79.5611 82.6507 79.7897 81.8714 79.7779C81.5609 79.7662 81.2122 79.7076 80.8255 79.6022L80.9662 78.3014C81.183 78.3541 81.4261 78.3863 81.6956 78.3981C82.4515 78.3981 82.9056 77.9469 83.058 77.0445L84.8773 66.401H86.4681ZM85.1497 63.9049C85.1556 63.6295 85.2406 63.401 85.4046 63.2194C85.5746 63.0377 85.8001 62.941 86.0814 62.9293C86.3509 62.9176 86.5736 63.0026 86.7494 63.1842C86.931 63.36 87.0218 63.5826 87.0218 63.8522C87.016 64.1276 86.9251 64.3531 86.7494 64.5289C86.5736 64.7047 86.348 64.7985 86.0726 64.8102C85.8089 64.8219 85.5892 64.7399 85.4134 64.5641C85.2376 64.3883 85.1497 64.1686 85.1497 63.9049Z" fill="black"/>
<path d="M90.854 71.525L89.6059 72.6412L89.0434 75.9108H87.4526L89.7993 62.4108H91.3901L89.9839 70.4791L90.9594 69.4947L94.3344 66.401H96.3999L92.0317 70.4528L95.0376 75.9108H93.2973L90.854 71.525Z" fill="black"/>
<path d="M98.1134 75.9108H96.5314L98.8693 62.4108H100.46L98.1134 75.9108Z" fill="black"/>
<path d="M103.87 66.3922L103.668 67.4557C104.465 66.6119 105.429 66.2018 106.56 66.2252C107.163 66.2369 107.673 66.3746 108.089 66.6383C108.511 66.902 108.801 67.274 108.959 67.7545C109.85 66.7115 110.902 66.2018 112.115 66.2252C113.064 66.2486 113.764 66.568 114.215 67.1832C114.666 67.7985 114.833 68.6246 114.716 69.6617L113.67 75.9108H112.088L113.125 69.6442C113.16 69.3395 113.16 69.0611 113.125 68.8092C113.014 68.0123 112.492 67.6051 111.561 67.5875C110.981 67.5758 110.453 67.7574 109.979 68.1324C109.51 68.5016 109.208 68.9879 109.074 69.5914L107.992 75.9108H106.393L107.448 69.6529C107.524 69.0026 107.424 68.5016 107.149 68.15C106.879 67.7985 106.457 67.6168 105.883 67.6051C104.893 67.5817 104.105 68.0328 103.519 68.9586L102.315 75.9108H100.724L102.376 66.401L103.87 66.3922Z" fill="black"/>
</g>
<g id="nopqrstuvwxyz">
<path d="M8.42773 87.3922L8.19922 88.5963C9.05469 87.6588 10.0273 87.2018 11.1172 87.2252C12.0137 87.2487 12.6758 87.5592 13.1035 88.1569C13.5312 88.7545 13.6895 89.5953 13.5781 90.6793L12.541 96.9108H10.9502L11.9961 90.653C12.0312 90.3658 12.0342 90.0992 12.0049 89.8531C11.9053 89.0328 11.4219 88.6139 10.5547 88.5963C9.59961 88.5787 8.76172 89.0885 8.04102 90.1256L6.86328 96.9108H5.27246L6.9248 87.401L8.42773 87.3922Z" fill="black"/>
<path d="M20.2754 87.2252C21.0723 87.2369 21.7549 87.4537 22.3232 87.8756C22.8916 88.2975 23.3105 88.8805 23.5801 89.6246C23.8555 90.3629 23.9492 91.1715 23.8613 92.0504L23.8438 92.2438C23.7324 93.1696 23.457 94.0074 23.0176 94.7574C22.5781 95.5016 22.0098 96.0817 21.3125 96.4977C20.6152 96.9137 19.8506 97.11 19.0186 97.0865C18.2275 97.0748 17.5449 96.858 16.9707 96.4362C16.4023 96.0143 15.9863 95.4401 15.7227 94.7135C15.459 93.9869 15.3652 93.1871 15.4414 92.3141C15.5293 91.3297 15.7959 90.4449 16.2412 89.6598C16.6865 88.8746 17.2578 88.2682 17.9551 87.8405C18.6582 87.4069 19.4316 87.2018 20.2754 87.2252ZM17.041 92.3229C17 92.692 17 93.0758 17.041 93.4742C17.0996 94.1656 17.3047 94.7164 17.6562 95.1266C18.0137 95.5367 18.4883 95.7506 19.0801 95.7682C19.6074 95.7858 20.0938 95.6569 20.5391 95.3815C20.9844 95.1002 21.3594 94.6783 21.6641 94.1158C21.9688 93.5533 22.165 92.9293 22.2529 92.2438C22.2998 91.7047 22.3086 91.2506 22.2793 90.8815C22.209 90.1725 21.9951 89.6129 21.6377 89.2028C21.2803 88.7926 20.8057 88.5758 20.2139 88.5524C19.3936 88.5348 18.6963 88.8571 18.1221 89.5192C17.5479 90.1813 17.1934 91.0485 17.0586 92.1207L17.041 92.3229Z" fill="black"/>
<path d="M33.6629 92.1998C33.5457 93.1666 33.285 94.0367 32.8807 94.8102C32.4764 95.5836 31.9754 96.1637 31.3778 96.5504C30.7801 96.9313 30.118 97.1129 29.3914 97.0953C28.2899 97.0719 27.4461 96.6998 26.8602 95.9791L26.0077 100.567H24.4168L26.702 87.401L28.1434 87.3922L27.9676 88.4557C28.7528 87.6119 29.6932 87.2018 30.7889 87.2252C31.703 87.2487 32.4149 87.5856 32.9247 88.236C33.4344 88.8864 33.7039 89.7828 33.7332 90.9254C33.7391 91.3004 33.7245 91.6637 33.6893 92.0153L33.6629 92.1998ZM32.0985 92.0153L32.1424 91.277C32.1424 90.4215 31.9784 89.7682 31.6502 89.317C31.328 88.86 30.8592 88.6198 30.244 88.5963C29.3241 88.5729 28.5301 89.0094 27.8622 89.9059L27.0623 94.4674C27.4198 95.3112 28.0614 95.7448 28.9872 95.7682C29.7782 95.7858 30.4491 95.4781 30.9998 94.8453C31.5565 94.2067 31.9227 93.2633 32.0985 92.0153Z" fill="black"/>
<path d="M39.8207 87.2164C40.8929 87.2399 41.7103 87.6237 42.2728 88.3678L42.5629 87.401H44.0306L41.7455 100.567H40.1635L41.0248 96.0319C40.2631 96.7584 39.3783 97.11 38.3705 97.0865C37.4799 97.0748 36.7679 96.7379 36.2347 96.0758C35.7015 95.4137 35.4144 94.5201 35.3734 93.3951C35.3383 92.6686 35.4232 91.9039 35.6283 91.1012C35.8334 90.2926 36.1381 89.5895 36.5424 88.9918C36.9525 88.3883 37.4359 87.9371 37.9926 87.6383C38.5492 87.3395 39.1586 87.1989 39.8207 87.2164ZM37.0082 92.3229L36.9642 93.0612C36.9467 93.9108 37.099 94.5729 37.4213 95.0475C37.7494 95.5162 38.2181 95.7565 38.8275 95.7682C39.724 95.7916 40.5179 95.3639 41.2094 94.485L42.0355 89.8092C41.6488 88.9948 41.016 88.5758 40.1371 88.5524C39.3344 88.5348 38.6576 88.8424 38.1068 89.4752C37.556 90.108 37.1898 91.0573 37.0082 92.3229Z" fill="black"/>
<path d="M50.8897 88.8512L50.1426 88.7721C49.1231 88.7721 48.3204 89.2321 47.7344 90.152L46.5655 96.9108H44.9747L46.627 87.401L48.1651 87.3922L47.9278 88.4996C48.6016 87.6149 49.3956 87.1842 50.3096 87.2076C50.503 87.2076 50.7549 87.2516 51.0655 87.3395L50.8897 88.8512Z" fill="black"/>
<path d="M56.8575 94.3356C56.9454 93.6793 56.585 93.2164 55.7764 92.9469L54.1241 92.4635C52.7295 91.983 52.0557 91.1862 52.1026 90.0729C52.1436 89.235 52.5245 88.5494 53.2452 88.0162C53.9717 87.4772 54.8243 87.2135 55.8028 87.2252C56.7637 87.2369 57.543 87.5182 58.1407 88.069C58.7442 88.6139 59.0342 89.3258 59.0108 90.2047L57.4288 90.1959C57.4405 89.7213 57.2911 89.3346 56.9805 89.0358C56.67 88.7369 56.2569 88.5817 55.7413 88.5699C55.1905 88.5582 54.7159 88.693 54.3174 88.9742C53.9483 89.2379 53.7344 89.5836 53.6758 90.0114C53.5997 90.5621 53.9366 90.9635 54.6866 91.2155L55.4864 91.4352C56.5762 91.7164 57.3497 92.0826 57.8067 92.5338C58.2637 92.985 58.4747 93.5446 58.4395 94.2125C58.4044 94.8043 58.211 95.3199 57.8594 95.7594C57.5079 96.1989 57.0391 96.5358 56.4532 96.7701C55.8672 96.9987 55.2432 97.1041 54.5811 97.0865C53.5733 97.0748 52.7413 96.7819 52.085 96.2076C51.4288 95.6276 51.1124 94.8834 51.1358 93.9752L52.7266 93.984C52.7266 94.5172 52.8965 94.9449 53.2364 95.2672C53.5762 95.5895 54.042 95.7506 54.6338 95.7506C55.2139 95.7623 55.7149 95.6422 56.1368 95.3903C56.5587 95.1324 56.7989 94.7809 56.8575 94.3356Z" fill="black"/>
<path d="M64.2561 85.0983L63.8518 87.401H65.5832L65.3635 88.6578H63.6408L62.6477 94.5729C62.6301 94.7252 62.6272 94.8658 62.6389 94.9948C62.6799 95.4518 62.9289 95.6803 63.386 95.6803C63.5793 95.6803 63.8371 95.651 64.1594 95.5924L64.0363 96.9196C63.6555 97.025 63.2688 97.0778 62.8762 97.0778C62.2434 97.066 61.7688 96.8346 61.4524 96.3834C61.136 95.9264 61.0129 95.3141 61.0832 94.5465L62.05 88.6578H60.3713L60.591 87.401H62.2697L62.674 85.0983H64.2561Z" fill="black"/>
<path d="M71.8902 95.9703C71.146 96.7379 70.1997 97.11 69.0513 97.0865C68.1431 97.0631 67.4693 96.7379 67.0298 96.111C66.5962 95.484 66.4351 94.6285 66.5464 93.5446L67.5659 87.401H69.1568L68.1284 93.5709C68.0992 93.8287 68.0933 94.0807 68.1109 94.3268C68.1402 94.7487 68.2661 95.0797 68.4888 95.3199C68.7115 95.5602 69.022 95.6891 69.4204 95.7067C70.5572 95.7418 71.4361 95.2819 72.0572 94.3268L73.2525 87.401H74.8433L73.1909 96.9108H71.688L71.8902 95.9703Z" fill="black"/>
<path d="M79.0197 94.6871L82.4474 87.401H84.1261L79.3361 96.9108H78.1232L76.2599 87.401H77.8244L79.0197 94.6871Z" fill="black"/>
<path d="M92.6355 94.6608L95.6678 87.401H97.3113L92.9783 96.9108H91.6863L90.7019 89.7213L87.2742 96.9108H85.9822L84.9539 87.401H86.4744L87.0545 94.485L90.4295 87.401H91.7127L92.6355 94.6608Z" fill="black"/>
<path d="M101.405 90.8639L103.989 87.401H105.94L102.126 92.1823L104.446 96.9108H102.715L101.142 93.36L98.4609 96.9108H96.5185L100.447 92.024L98.1972 87.401H99.9374L101.405 90.8639Z" fill="black"/>
<path d="M109.479 94.5114L112.863 87.401H114.62L108.978 98.4928C108.193 100.034 107.185 100.796 105.954 100.778C105.738 100.772 105.418 100.719 104.996 100.62L105.137 99.3014L105.55 99.3453C106.054 99.3688 106.488 99.2545 106.851 99.0026C107.22 98.7565 107.545 98.3551 107.826 97.7985L108.398 96.7086L106.754 87.401H108.415L109.479 94.5114Z" fill="black"/>
<path d="M116.201 95.5836H121.544L121.307 96.9108H113.977L114.197 95.6364L120.428 88.7457H115.462L115.708 87.401H122.705L122.494 88.6315L116.201 95.5836Z" fill="black"/>
</g>
<g id="1234567890">
<path d="M10.3086 117.911H8.70898L10.5898 107.118L7.18848 108.313L7.46094 106.766L12.207 105.052H12.4883L10.3086 117.911Z" fill="black"/>
<path d="M23.2459 117.911H15.0984L15.2918 116.671L20.0115 112.084L20.8728 111.231C21.8631 110.241 22.4109 109.327 22.5164 108.489C22.5926 107.844 22.4666 107.32 22.1385 106.916C21.8103 106.505 21.3475 106.289 20.7498 106.265C19.9822 106.242 19.3406 106.467 18.825 106.942C18.3094 107.411 17.9959 108.055 17.8846 108.876L16.3113 108.884C16.3875 108.099 16.6277 107.405 17.032 106.801C17.4422 106.192 17.9783 105.726 18.6404 105.404C19.3084 105.076 20.032 104.92 20.8113 104.938C21.8719 104.961 22.7127 105.284 23.3338 105.905C23.9607 106.52 24.2303 107.32 24.1424 108.304C24.0428 109.429 23.3953 110.613 22.2 111.855L21.3914 112.672L17.2781 116.584H23.4568L23.2459 117.911Z" fill="black"/>
<path d="M28.4488 110.721L29.5035 110.73C30.2769 110.73 30.9273 110.528 31.4547 110.124C31.9879 109.713 32.2926 109.16 32.3687 108.462C32.4449 107.783 32.3189 107.25 31.9908 106.863C31.6627 106.47 31.1851 106.268 30.5582 106.256C29.8902 106.245 29.3219 106.441 28.8531 106.845C28.3902 107.244 28.106 107.783 28.0006 108.462L26.4273 108.471C26.5269 107.417 26.9752 106.561 27.7721 105.905C28.5748 105.243 29.5299 104.918 30.6373 104.929C31.7096 104.953 32.5504 105.29 33.1598 105.94C33.775 106.585 34.0416 107.437 33.9596 108.498C33.9068 109.101 33.6754 109.652 33.2652 110.15C32.8551 110.648 32.2867 111.061 31.5601 111.389C32.1402 111.624 32.5738 111.996 32.8609 112.505C33.148 113.009 33.2682 113.601 33.2213 114.281C33.1275 115.435 32.6676 116.364 31.8414 117.067C31.0211 117.77 30.0221 118.11 28.8443 118.086C27.7486 118.063 26.8756 117.723 26.2252 117.067C25.5748 116.411 25.273 115.564 25.3199 114.527L26.9107 114.536C26.8756 115.192 27.0338 115.722 27.3853 116.127C27.7369 116.525 28.2467 116.736 28.9146 116.759C29.6646 116.783 30.2887 116.569 30.7867 116.118C31.2848 115.667 31.5689 115.063 31.6392 114.307C31.7037 113.61 31.5455 113.068 31.1646 112.681C30.7838 112.289 30.2154 112.081 29.4596 112.057L28.2379 112.048L28.4488 110.721Z" fill="black"/>
<path d="M42.2211 113.613H43.9437L43.7064 114.94H41.9926L41.474 117.911H39.8744L40.393 114.94H34.7328L34.9174 113.894L41.9486 105.114H43.6889L42.2211 113.613ZM36.8246 113.613H40.6215L41.764 107.32L41.5092 107.689L36.8246 113.613Z" fill="black"/>
<path d="M46.5099 111.468L48.1359 105.114H54.5168L54.2795 106.617H49.2697L48.2853 110.115C48.9299 109.734 49.6271 109.549 50.3771 109.561C51.4377 109.573 52.2521 109.974 52.8205 110.765C53.3888 111.55 53.6203 112.552 53.5148 113.771C53.4035 115.084 52.9377 116.138 52.1174 116.935C51.2971 117.732 50.2746 118.119 49.05 118.095C48.0304 118.084 47.2072 117.755 46.5803 117.111C45.9533 116.466 45.6222 115.608 45.5871 114.536H47.0724C47.1135 115.239 47.3127 115.784 47.6701 116.17C48.0275 116.557 48.5109 116.756 49.1203 116.768C49.8703 116.792 50.5002 116.525 51.0099 115.968C51.5256 115.412 51.8303 114.682 51.924 113.78C52.006 112.989 51.8683 112.338 51.5109 111.829C51.1535 111.313 50.6291 111.044 49.9377 111.02C49.5099 111.008 49.1291 111.073 48.7951 111.213C48.467 111.354 48.1388 111.556 47.8107 111.82L46.5099 111.468Z" fill="black"/>
<path d="M62.875 105.096L62.7344 106.476H62.4267C61.2549 106.5 60.2529 106.863 59.4209 107.566C58.5888 108.269 57.9443 109.306 57.4873 110.677C58.2842 109.88 59.2158 109.494 60.2822 109.517C60.956 109.529 61.5332 109.716 62.0136 110.08C62.4941 110.437 62.8457 110.935 63.0683 111.574C63.2969 112.207 63.376 112.907 63.3056 113.674C63.1885 114.969 62.7226 116.039 61.9082 116.882C61.0996 117.72 60.1035 118.122 58.9199 118.086C57.9707 118.063 57.1914 117.714 56.582 117.041C55.9726 116.367 55.624 115.464 55.5361 114.334C55.4892 113.718 55.5625 112.886 55.7558 111.837C56.1601 109.652 56.957 107.982 58.1465 106.828C59.3418 105.673 60.8594 105.096 62.6992 105.096H62.875ZM59.9394 110.862C59.3711 110.85 58.8379 111.014 58.3398 111.354C57.8418 111.694 57.458 112.128 57.1885 112.655L57.1269 113.244L57.1094 113.956C57.1094 114.436 57.1826 114.902 57.3291 115.353C57.4756 115.804 57.6924 116.147 57.9795 116.381C58.2666 116.616 58.6035 116.736 58.9902 116.742C59.6992 116.771 60.3056 116.507 60.8095 115.951C61.3193 115.394 61.624 114.662 61.7236 113.753C61.7822 113.226 61.75 112.743 61.6269 112.303C61.5039 111.864 61.2988 111.518 61.0117 111.266C60.7304 111.008 60.373 110.874 59.9394 110.862Z" fill="black"/>
<path d="M74.45 106.116L67.4978 117.911H65.7576L72.6746 106.45H65.9949L66.2058 105.114H74.6082L74.45 106.116Z" fill="black"/>
<path d="M83.6255 108.375C83.5728 109.013 83.3443 109.59 82.94 110.106C82.5416 110.616 81.9966 111.038 81.3052 111.372C81.856 111.688 82.2632 112.113 82.5269 112.646C82.7964 113.173 82.9078 113.751 82.8609 114.378C82.773 115.508 82.3101 116.417 81.4722 117.102C80.6343 117.782 79.6236 118.11 78.44 118.086C77.3326 118.063 76.4566 117.72 75.8121 117.058C75.1675 116.396 74.8892 115.552 74.9771 114.527C75.0416 113.794 75.2994 113.156 75.7505 112.611C76.2017 112.06 76.817 111.615 77.5963 111.275C77.1392 110.959 76.7994 110.56 76.5767 110.08C76.3599 109.599 76.275 109.084 76.3218 108.533C76.4039 107.449 76.8287 106.573 77.5963 105.905C78.3638 105.237 79.3072 104.915 80.4263 104.938C81.4459 104.961 82.2545 105.293 82.8521 105.931C83.4498 106.57 83.7076 107.384 83.6255 108.375ZM81.2877 114.342C81.358 113.68 81.2173 113.129 80.8658 112.69C80.5142 112.245 80.0045 112.01 79.3365 111.987C78.6099 111.975 77.9888 112.207 77.4732 112.681C76.9576 113.15 76.6588 113.756 76.5767 114.501C76.5064 115.18 76.647 115.725 76.9986 116.135C77.356 116.545 77.8599 116.756 78.5103 116.768C79.2486 116.792 79.8755 116.578 80.3912 116.127C80.9068 115.669 81.2056 115.075 81.2877 114.342ZM82.0259 108.401C82.0904 107.809 81.9673 107.311 81.6568 106.907C81.3521 106.503 80.9156 106.289 80.3472 106.265C79.691 106.253 79.1373 106.464 78.6861 106.898C78.2349 107.326 77.9713 107.879 77.8951 108.559C77.8306 109.169 77.9537 109.669 78.2642 110.062C78.5806 110.455 79.023 110.657 79.5914 110.669C80.23 110.68 80.775 110.475 81.2261 110.053C81.6832 109.626 81.9498 109.075 82.0259 108.401Z" fill="black"/>
<path d="M91.4037 112.286C90.9701 112.743 90.5101 113.086 90.0238 113.314C89.5375 113.537 89.0541 113.642 88.5736 113.63C87.8998 113.619 87.3226 113.428 86.8421 113.059C86.3675 112.69 86.0189 112.183 85.7962 111.539C85.5795 110.894 85.5062 110.191 85.5765 109.429C85.6527 108.586 85.89 107.812 86.2884 107.109C86.6869 106.406 87.2054 105.864 87.8441 105.483C88.4886 105.096 89.1976 104.915 89.9711 104.938C90.9906 104.961 91.7904 105.331 92.3705 106.045C92.9505 106.76 93.264 107.718 93.3109 108.919C93.3285 109.546 93.2552 110.326 93.0912 111.257C92.7045 113.449 91.9398 115.101 90.7972 116.214C89.6605 117.322 88.1986 117.893 86.4115 117.928H86.016L86.1566 116.557H86.4818C87.7416 116.534 88.7728 116.182 89.5755 115.503C90.3841 114.817 90.9935 113.745 91.4037 112.286ZM88.9076 112.286C89.4408 112.309 89.9535 112.16 90.4457 111.837C90.9379 111.509 91.3421 111.07 91.6586 110.519L91.7289 109.878L91.7552 109.166C91.7318 108.257 91.5619 107.557 91.2455 107.065C90.9349 106.573 90.4867 106.315 89.9007 106.292C89.1742 106.262 88.5531 106.544 88.0375 107.135C87.5277 107.721 87.2318 108.457 87.1498 109.341C87.1087 109.699 87.1146 110.062 87.1673 110.431C87.2201 110.8 87.3255 111.126 87.4837 111.407C87.8002 111.975 88.2748 112.268 88.9076 112.286Z" fill="black"/>
<path d="M98.215 118.086C97.1369 118.063 96.3283 117.682 95.7892 116.944C95.2502 116.2 95.0041 115.13 95.0509 113.736C95.0627 113.302 95.0949 112.875 95.1476 112.453L95.464 110.317C95.7453 108.495 96.2814 107.135 97.0724 106.239C97.8634 105.342 98.9064 104.909 100.201 104.938C101.291 104.961 102.103 105.336 102.636 106.063C103.175 106.784 103.424 107.833 103.383 109.21C103.365 109.649 103.33 110.08 103.277 110.502L102.97 112.567C102.659 114.495 102.111 115.904 101.326 116.794C100.541 117.685 99.5041 118.116 98.215 118.086ZM101.739 110.211C101.821 109.503 101.86 108.952 101.854 108.559C101.824 107.071 101.247 106.306 100.122 106.265C99.3019 106.236 98.6369 106.541 98.1271 107.179C97.6232 107.812 97.2716 108.808 97.0724 110.168L96.6945 112.716C96.6125 113.396 96.5744 113.95 96.5802 114.378C96.6095 115.93 97.1837 116.727 98.3029 116.768C99.0822 116.803 99.7238 116.516 100.228 115.907C100.737 115.297 101.101 114.331 101.318 113.006L101.739 110.211Z" fill="black"/>
</g>
</g>
<defs>
<clipPath id="clip0">
<rect width="155" height="121.395" fill="white" transform="translate(0 0.516235)"/>
</clipPath>
</defs>
</svg>
