<svg width="24" height="24" viewBox="0 0 24 24" fill="none" xmlns="http://www.w3.org/2000/svg">
<path d="M24 12C24 5.37097 18.629 0 12 0C5.37097 0 0 5.37097 0 12C0 18.629 5.37097 24 12 24C18.629 24 24 18.629 24 12ZM9.87097 6.3871C9.87097 6.04839 10.1613 5.80645 10.4516 5.80645H13.5484C13.8871 5.80645 14.129 6.04839 14.129 6.3871V12H17.5645C18.0968 12 18.3387 12.5806 18 12.9677L12.4355 18.4839C12.1935 18.7258 11.8548 18.7258 11.6129 18.4839L6.04839 12.9677C5.66129 12.629 5.95161 12 6.48387 12H9.87097V6.3871Z" fill="#333333"/>
</svg>
