<svg width="24" height="24" viewBox="0 0 24 24" fill="none" xmlns="http://www.w3.org/2000/svg">
<path d="M0 12C0 18.629 5.37097 24 12 24C18.629 24 24 18.629 24 12C24 5.37097 18.629 0 12 0C5.37097 0 0 5.37097 0 12ZM14.129 17.6129C14.129 17.9516 13.8387 18.1935 13.5484 18.1935H10.4516C10.1129 18.1935 9.87097 17.9516 9.87097 17.6129V12H6.43548C5.90323 12 5.66129 11.4194 6 11.0323L11.5645 5.51613C11.8065 5.27419 12.1452 5.27419 12.3871 5.51613L17.9516 11.0323C18.3387 11.371 18.0484 12 17.5161 12H14.129V17.6129Z" fill="#333333"/>
</svg>
