<svg width="24" height="24" viewBox="0 0 24 24" fill="none" xmlns="http://www.w3.org/2000/svg">
<path d="M13.8865 11.9858L16.7234 9.14894C17.0922 8.80851 17.0922 8.24113 16.7234 7.90071L16.0993 7.2766C15.7589 6.9078 15.1915 6.9078 14.8511 7.2766L12.0142 10.1135L9.14894 7.2766C8.80851 6.9078 8.24113 6.9078 7.90071 7.2766L7.2766 7.90071C6.9078 8.24113 6.9078 8.80851 7.2766 9.14894L10.1135 11.9858L7.2766 14.8511C6.9078 15.1915 6.9078 15.7589 7.2766 16.0993L7.90071 16.7234C8.24113 17.0922 8.80851 17.0922 9.14894 16.7234L12.0142 13.8865L14.8511 16.7234C15.1915 17.0922 15.7589 17.0922 16.0993 16.7234L16.7234 16.0993C17.0922 15.7589 17.0922 15.1915 16.7234 14.8511L13.8865 11.9858Z" fill="black"/>
</svg>
