<svg width="24" height="24" viewBox="0 0 24 24" fill="none" xmlns="http://www.w3.org/2000/svg">
<path d="M15.5521 11.9733L20.8937 6.63174C21.5881 5.99076 21.5881 4.92245 20.8937 4.28147L19.7185 3.10633C19.0775 2.41193 18.0092 2.41193 17.3682 3.10633L12.0267 8.44787L6.63174 3.10633C5.99076 2.41193 4.92245 2.41193 4.28147 3.10633L3.10633 4.28147C2.41193 4.92245 2.41193 5.99076 3.10633 6.63174L8.44787 11.9733L3.10633 17.3682C2.41193 18.0092 2.41193 19.0775 3.10633 19.7185L4.28147 20.8937C4.92245 21.5881 5.99076 21.5881 6.63174 20.8937L12.0267 15.5521L17.3682 20.8937C18.0092 21.5881 19.0775 21.5881 19.7185 20.8937L20.8937 19.7185C21.5881 19.0775 21.5881 18.0092 20.8937 17.3682L15.5521 11.9733Z" fill="#333333"/>
</svg>
