<svg width="24" height="24" viewBox="0 0 24 24" fill="none" xmlns="http://www.w3.org/2000/svg">
<path d="M20.1375 10.9125C20.2875 10.5 20.4 10.0875 20.4 9.60001C20.4 7.61251 18.7875 6.00001 16.8 6.00001C16.05 6.00001 15.3375 6.22501 14.775 6.63751C13.7625 4.83751 11.8125 3.60001 9.6 3.60001C6.2625 3.60001 3.6 6.30001 3.6 9.60001C3.6 9.71251 3.6 9.82501 3.6 9.93751C1.5 10.65 0 12.675 0 15C0 18 2.4 20.4 5.4 20.4H19.2C21.825 20.4 24 18.2625 24 15.6C24 13.3125 22.35 11.3625 20.1375 10.9125ZM14.8875 14.4L11.4375 17.8875C11.0625 18.225 10.5 18.225 10.1625 17.8875L6.675 14.4C6.3375 14.0625 6.3375 13.4625 6.675 13.125L7.0875 12.7125C7.425 12.375 8.025 12.375 8.3625 12.75L9.6 14.025V9.30001C9.6 8.81251 9.975 8.40001 10.5 8.40001H11.1C11.5875 8.40001 12 8.81251 12 9.30001V14.025L13.2 12.75C13.5375 12.375 14.1375 12.375 14.5125 12.7125L14.8875 13.125C15.2625 13.4625 15.2625 14.0625 14.8875 14.4Z" fill="#333333"/>
</svg>
