<svg width="24" height="24" viewBox="0 0 24 24" fill="none" xmlns="http://www.w3.org/2000/svg">
<path d="M21.4286 24C22.8214 24 24 22.875 24 21.4286V2.57143C24 1.17857 22.8214 0 21.4286 0H2.57143C1.125 0 0 1.17857 0 2.57143V21.4286C0 22.875 1.125 24 2.57143 24H21.4286ZM10.4464 18.75C10.125 19.125 9.53571 19.125 9.21429 18.75L3.64286 13.1786C3.32143 12.8571 3.32143 12.3214 3.64286 12L4.875 10.7679C5.19643 10.4464 5.73214 10.4464 6.05357 10.7679L9.85714 14.5179L17.8929 6.48214C18.2143 6.16071 18.75 6.16071 19.0714 6.48214L20.3036 7.71429C20.625 8.03571 20.625 8.57143 20.3036 8.89286L10.4464 18.75Z" fill="#333333"/>
</svg>
