<svg width="24" height="24" viewBox="0 0 24 24" fill="none" xmlns="http://www.w3.org/2000/svg">
<path d="M23.7394 19.3755L13.7307 1.9853C12.98 0.692502 11.02 0.650799 10.2693 1.9853L0.260593 19.3755C-0.490061 20.6683 0.469109 22.3364 2.01212 22.3364H21.9879C23.5309 22.3364 24.4901 20.71 23.7394 19.3755ZM12.0209 15.7473C13.0634 15.7473 13.9392 16.6231 13.9392 17.6656C13.9392 18.7499 13.0634 19.584 12.0209 19.584C10.9366 19.584 10.1025 18.7499 10.1025 17.6656C10.1025 16.6231 10.9366 15.7473 12.0209 15.7473ZM10.1859 8.8663C10.1442 8.57438 10.3944 8.32416 10.6864 8.32416H13.3136C13.6056 8.32416 13.8558 8.57438 13.8141 8.8663L13.5222 14.5379C13.4805 14.8298 13.2719 14.9966 13.0217 14.9966H10.9783C10.7281 14.9966 10.5195 14.8298 10.4778 14.5379L10.1859 8.8663Z" fill="#333333"/>
</svg>
