<svg width="24" height="24" viewBox="0 0 24 24" fill="none" xmlns="http://www.w3.org/2000/svg">
<path fill-rule="evenodd" clip-rule="evenodd" d="M12 24C18.6274 24 24 18.6274 24 12C24 5.37258 18.6274 0 12 0C5.37258 0 0 5.37258 0 12C0 18.6274 5.37258 24 12 24ZM6.75 13.875C6.75 13.4766 7.07812 13.125 7.5 13.125H16.5C16.8984 13.125 17.25 13.4766 17.25 13.875V14.625C17.25 15.0469 16.8984 15.375 16.5 15.375H7.5C7.07812 15.375 6.75 15.0469 6.75 14.625V13.875ZM6.75 9.375C6.75 8.97656 7.07812 8.625 7.5 8.625H16.5C16.8984 8.625 17.25 8.97656 17.25 9.375V10.125C17.25 10.5469 16.8984 10.875 16.5 10.875H7.5C7.07812 10.875 6.75 10.5469 6.75 10.125V9.375Z" fill="#333333"/>
</svg>
