<svg width="24" height="24" viewBox="0 0 24 24" fill="none" xmlns="http://www.w3.org/2000/svg">
<path d="M21.6098 16.1893L17.1458 14.2761C17.0263 14.2363 16.8668 14.1964 16.7473 14.1964C16.5081 14.1964 16.1893 14.3559 16.0298 14.5551L14.037 16.9864C11.4065 15.711 8.21792 12.5623 6.98236 9.93176L9.41362 7.93893C9.61291 7.7795 9.77233 7.46065 9.77233 7.18165C9.77233 7.10193 9.73248 6.94251 9.69262 6.82294L7.7795 2.35899C7.62007 2.04014 7.2215 1.80099 6.86279 1.80099C6.82294 1.80099 6.74322 1.80099 6.66351 1.80099L2.51842 2.75756C2.11985 2.83727 1.80099 3.27569 1.80099 3.67426C1.80099 13.9174 10.0513 22.1678 20.2945 22.1678C20.6931 22.1678 21.1315 21.8489 21.2112 21.4503L22.1678 17.3052C22.1678 17.2255 22.1678 17.1458 22.1678 17.106C22.1678 16.7473 21.9286 16.3487 21.6098 16.1893Z" fill="#333333"/>
</svg>
