<svg width="24" height="24" viewBox="0 0 24 24" fill="none" xmlns="http://www.w3.org/2000/svg">
<path d="M22.9116 18.1679H7.90403V17.3883C7.90403 16.9595 7.58244 16.6087 7.18939 16.6087H5.7601C5.36705 16.6087 5.04546 16.9595 5.04546 17.3883V18.1679H1.47224C1.07918 18.1679 0.757591 18.5187 0.757591 18.9475V20.5067C0.757591 20.9355 1.07918 21.2864 1.47224 21.2864H5.04546V22.066C5.04546 22.4948 5.36705 22.8456 5.7601 22.8456H7.18939C7.58244 22.8456 7.90403 22.4948 7.90403 22.066V21.2864H22.9116C23.3046 21.2864 23.6262 20.9355 23.6262 20.5067V18.9475C23.6262 18.5187 23.3046 18.1679 22.9116 18.1679ZM22.9116 10.3718H19.3383V9.59218C19.3383 9.16339 19.0167 8.81257 18.6237 8.81257H17.1944C16.8014 8.81257 16.4798 9.16339 16.4798 9.59218V10.3718H1.47224C1.07918 10.3718 0.757591 10.7226 0.757591 11.1514V12.7106C0.757591 13.1394 1.07918 13.4902 1.47224 13.4902H16.4798V14.2698C16.4798 14.6986 16.8014 15.0495 17.1944 15.0495H18.6237C19.0167 15.0495 19.3383 14.6986 19.3383 14.2698V13.4902H22.9116C23.3046 13.4902 23.6262 13.1394 23.6262 12.7106V11.1514C23.6262 10.7226 23.3046 10.3718 22.9116 10.3718ZM22.9116 2.57567H13.6212V1.79606C13.6212 1.36727 13.2996 1.01645 12.9065 1.01645H11.4773C11.0842 1.01645 10.7626 1.36727 10.7626 1.79606V2.57567H1.47224C1.07918 2.57567 0.757591 2.9265 0.757591 3.35528V4.91451C0.757591 5.34329 1.07918 5.69412 1.47224 5.69412H10.7626V6.47373C10.7626 6.90252 11.0842 7.25334 11.4773 7.25334H12.9065C13.2996 7.25334 13.6212 6.90252 13.6212 6.47373V5.69412H22.9116C23.3046 5.69412 23.6262 5.34329 23.6262 4.91451V3.35528C23.6262 2.9265 23.3046 2.57567 22.9116 2.57567Z" fill="#333333"/>
</svg>
