<svg width="24" height="24" viewBox="0 0 24 24" fill="none" xmlns="http://www.w3.org/2000/svg">
<path d="M22.3726 19.7859L18.2077 15.6209C17.9994 15.4543 17.7495 15.3294 17.4997 15.3294H16.8333C17.9578 13.8716 18.6658 12.0391 18.6658 9.99823C18.6658 5.25019 14.7508 1.33514 10.0027 1.33514C5.21306 1.33514 1.33966 5.25019 1.33966 9.99823C1.33966 14.7879 5.21306 18.6613 10.0027 18.6613C12.0019 18.6613 13.8345 17.9949 15.3339 16.8287V17.5368C15.3339 17.7867 15.4172 18.0366 15.6254 18.2448L19.7487 22.3681C20.1652 22.7846 20.79 22.7846 21.1648 22.3681L22.331 21.2019C22.7475 20.8271 22.7475 20.2024 22.3726 19.7859ZM10.0027 15.3294C7.04564 15.3294 4.67162 12.9553 4.67162 9.99823C4.67162 7.08277 7.04564 4.6671 10.0027 4.6671C12.9182 4.6671 15.3339 7.08277 15.3339 9.99823C15.3339 12.9553 12.9182 15.3294 10.0027 15.3294Z" fill="#333333"/>
</svg>
