<svg width="116" height="23" viewBox="0 0 116 23" fill="none" xmlns="http://www.w3.org/2000/svg">
<mask id="path-1-outside-1" maskUnits="userSpaceOnUse" x="-0.500389" y="-0.500389" width="117.091" height="23.0179" fill="black">
<rect fill="white" x="-0.500389" y="-0.500389" width="117.091" height="23.0179"/>
<path d="M4.33737 19.8474H10.5252L10.7413 16.713H12.1464V20.4689C12.1464 21.0273 11.8672 21.3065 11.3088 21.3065H0.500389V19.9015L2.17569 19.7123V3.20249L0.500389 2.98632V1.58123H6.55309V2.98632L4.33737 3.20249V19.8474Z"/>
<path d="M27.0371 14.0379H16.3909C16.3909 16.0375 16.8953 17.5957 17.904 18.7125C18.6967 19.5952 19.7775 20.0366 21.1466 20.0366C22.5336 20.0366 24.0198 19.6312 25.605 18.8206L26.2805 20.3878C24.4611 21.2525 22.8399 21.6848 21.4168 21.6848C20.0117 21.6848 18.8498 21.4597 17.9311 21.0093C17.0304 20.5409 16.3188 19.9195 15.7964 19.1449C14.7876 17.5776 14.2832 15.8033 14.2832 13.8217C14.2832 11.5159 14.7696 9.57944 15.7424 8.01222C16.2468 7.21961 16.9313 6.59812 17.796 6.14777C18.6786 5.69742 19.7054 5.47225 20.8764 5.47225C22.8038 5.47225 24.308 6.12976 25.3889 7.44478C26.4877 8.7598 27.0371 10.5162 27.0371 12.7139V14.0379ZM24.9025 12.5247C24.9025 10.8855 24.5422 9.57944 23.8216 8.60668C23.1011 7.61591 22.0653 7.12053 20.7142 7.12053C19.3632 7.12053 18.3454 7.63393 17.6609 8.66073C16.9763 9.68752 16.571 10.9755 16.4449 12.5247H24.9025Z"/>
<path d="M39.6621 18.6315V18.2532C38.4912 20.5409 36.6537 21.6848 34.1498 21.6848C32.9429 21.6848 31.9791 21.3156 31.2586 20.577C30.538 19.8384 30.1777 18.8296 30.1777 17.5506C30.1777 15.8033 30.8983 14.4882 32.3394 13.6056C33.7805 12.7229 36.2214 12.2815 39.6621 12.2815V11.1467C39.6621 9.59745 39.3829 8.53463 38.8244 7.95818C38.266 7.38173 37.3563 7.09351 36.0953 7.09351C34.8523 7.09351 33.4563 7.52584 31.9071 8.39052L31.2045 6.76926C33.06 5.90459 34.8253 5.47225 36.5006 5.47225C39.1127 5.47225 40.7429 6.39096 41.3914 8.22839C41.6616 8.98498 41.7967 9.90369 41.7967 10.9845V18.3883C41.7967 19.379 42.175 19.8744 42.9316 19.8744C43.1838 19.8744 43.5531 19.8204 44.0395 19.7123L44.2827 21.3336C43.5801 21.5677 42.8956 21.6848 42.2291 21.6848C40.5178 21.6848 39.6621 20.667 39.6621 18.6315ZM39.6621 13.6596C34.6902 13.6596 32.2043 14.9026 32.2043 17.3885C32.2043 18.2171 32.4295 18.8656 32.8798 19.334C33.3482 19.7844 33.9967 20.0095 34.8253 20.0095C36.1223 20.0095 37.2392 19.4871 38.1759 18.4423C39.1127 17.3975 39.608 15.9114 39.6621 13.9839V13.6596Z"/>
<path d="M56.029 0.500389H58.9743C59.5508 0.500389 59.821 0.779605 59.7849 1.33804V18.3883C59.7849 19.379 60.1722 19.8744 60.9468 19.8744C61.2711 19.8744 61.6494 19.8204 62.0817 19.7123L62.3249 21.3336C61.6224 21.5677 60.9288 21.6848 60.2443 21.6848C58.6951 21.6848 57.8394 20.8742 57.6773 19.253C56.4884 20.8742 55.0022 21.6848 53.2188 21.6848C52.192 21.6848 51.2823 21.4417 50.4897 20.9553C49.7151 20.4689 49.1207 19.8294 48.7063 19.0368C47.8597 17.4335 47.4363 15.6141 47.4363 13.5785C47.4363 11.4889 47.8236 9.67852 48.5982 8.14733C49.0306 7.31868 49.6701 6.67018 50.5167 6.20182C51.3634 5.71544 52.4352 5.47225 53.7322 5.47225C55.0473 5.47225 56.3533 5.80551 57.6503 6.47203V2.12165L56.029 1.90548V0.500389ZM53.9484 7.12053C51.0301 7.12053 49.571 9.2732 49.571 13.5785C49.571 15.3079 49.8412 16.776 50.3816 17.983C50.6699 18.6315 51.0932 19.1449 51.6516 19.5232C52.2281 19.8834 52.9036 20.0636 53.6782 20.0636C55.2454 20.0636 56.5694 19.2439 57.6503 17.6047V8.03924C56.5334 7.42677 55.2995 7.12053 53.9484 7.12053Z"/>
<path d="M72.7401 21.6848C71.6772 21.6848 70.6774 21.4597 69.7407 21.0093C68.804 20.5409 68.0654 19.9645 67.525 19.28C66.9846 18.5774 66.5432 17.7398 66.201 16.767C65.6245 15.1277 65.3363 13.2723 65.3363 11.2007C65.3363 9.2732 65.6335 7.51684 66.228 5.93161C66.5883 5.01289 67.0476 4.22028 67.6061 3.55376C68.1645 2.86923 68.9121 2.31079 69.8488 1.87846C70.8036 1.42811 71.8934 1.20293 73.1183 1.20293C75.0999 1.20293 77.1805 1.71633 79.3602 2.74313L78.6306 4.36439C76.7752 3.35561 74.9378 2.85121 73.1183 2.85121C71.9835 2.85121 71.0197 3.12142 70.2271 3.66184C69.4345 4.18425 68.858 4.8958 68.4978 5.7965C67.8312 7.39975 67.498 9.17412 67.498 11.1196C67.498 14.0559 67.9844 16.3077 68.9571 17.8749C69.3354 18.4874 69.8668 19.0008 70.5514 19.4151C71.2539 19.8294 72.0645 20.0366 72.9832 20.0366C74.2983 20.0366 75.3881 19.6493 76.2528 18.8747C77.1355 18.082 77.5768 16.8481 77.5768 15.1728V12.903L74.01 12.7139V11.1467H78.6576C79.3062 11.1467 79.6304 11.4169 79.6304 11.9573V15.2538C79.6304 17.6497 78.9459 19.343 77.5768 20.3338C76.3338 21.2345 74.7216 21.6848 72.7401 21.6848Z"/>
<path d="M95.5221 14.0379H84.8759C84.8759 16.0375 85.3803 17.5957 86.3891 18.7125C87.1817 19.5952 88.2625 20.0366 89.6316 20.0366C91.0187 20.0366 92.5048 19.6312 94.09 18.8206L94.7656 20.3878C92.9461 21.2525 91.3249 21.6848 89.9018 21.6848C88.4967 21.6848 87.3348 21.4597 86.4161 21.0093C85.5154 20.5409 84.8038 19.9195 84.2814 19.1449C83.2726 17.5776 82.7682 15.8033 82.7682 13.8217C82.7682 11.5159 83.2546 9.57944 84.2274 8.01222C84.7318 7.21961 85.4163 6.59812 86.281 6.14777C87.1637 5.69742 88.1905 5.47225 89.3614 5.47225C91.2889 5.47225 92.793 6.12976 93.8739 7.44478C94.9727 8.7598 95.5221 10.5162 95.5221 12.7139V14.0379ZM93.3875 12.5247C93.3875 10.8855 93.0272 9.57944 92.3067 8.60668C91.5861 7.61591 90.5503 7.12053 89.1992 7.12053C87.8482 7.12053 86.8304 7.63393 86.1459 8.66073C85.4613 9.68752 85.056 10.9755 84.9299 12.5247H93.3875Z"/>
<path d="M110.768 18.6315V10.309C110.768 9.17412 110.561 8.36349 110.147 7.87712C109.75 7.37272 109.057 7.12053 108.066 7.12053C106.355 7.12053 104.688 7.78705 103.067 9.12008V19.7123L104.959 19.9015V21.3065H99.041V19.9015L100.932 19.7123V7.4718L99.041 7.25563V5.85054H101.905C102.464 5.85054 102.743 6.12075 102.743 6.66117V7.71499C104.634 6.21983 106.544 5.47225 108.471 5.47225C110.021 5.47225 111.146 5.86856 111.849 6.66117C112.552 7.45379 112.903 8.66973 112.903 10.309V18.3883C112.903 19.379 113.29 19.8744 114.065 19.8744C114.389 19.8744 114.767 19.8204 115.2 19.7123L115.443 21.3336C114.74 21.5677 114.047 21.6848 113.362 21.6848C111.633 21.6848 110.768 20.667 110.768 18.6315Z"/>
</mask>
<path d="M4.33737 19.8474H10.5252L10.7413 16.713H12.1464V20.4689C12.1464 21.0273 11.8672 21.3065 11.3088 21.3065H0.500389V19.9015L2.17569 19.7123V3.20249L0.500389 2.98632V1.58123H6.55309V2.98632L4.33737 3.20249V19.8474Z" fill="white"/>
<path d="M27.0371 14.0379H16.3909C16.3909 16.0375 16.8953 17.5957 17.904 18.7125C18.6967 19.5952 19.7775 20.0366 21.1466 20.0366C22.5336 20.0366 24.0198 19.6312 25.605 18.8206L26.2805 20.3878C24.4611 21.2525 22.8399 21.6848 21.4168 21.6848C20.0117 21.6848 18.8498 21.4597 17.9311 21.0093C17.0304 20.5409 16.3188 19.9195 15.7964 19.1449C14.7876 17.5776 14.2832 15.8033 14.2832 13.8217C14.2832 11.5159 14.7696 9.57944 15.7424 8.01222C16.2468 7.21961 16.9313 6.59812 17.796 6.14777C18.6786 5.69742 19.7054 5.47225 20.8764 5.47225C22.8038 5.47225 24.308 6.12976 25.3889 7.44478C26.4877 8.7598 27.0371 10.5162 27.0371 12.7139V14.0379ZM24.9025 12.5247C24.9025 10.8855 24.5422 9.57944 23.8216 8.60668C23.1011 7.61591 22.0653 7.12053 20.7142 7.12053C19.3632 7.12053 18.3454 7.63393 17.6609 8.66073C16.9763 9.68752 16.571 10.9755 16.4449 12.5247H24.9025Z" fill="white"/>
<path d="M39.6621 18.6315V18.2532C38.4912 20.5409 36.6537 21.6848 34.1498 21.6848C32.9429 21.6848 31.9791 21.3156 31.2586 20.577C30.538 19.8384 30.1777 18.8296 30.1777 17.5506C30.1777 15.8033 30.8983 14.4882 32.3394 13.6056C33.7805 12.7229 36.2214 12.2815 39.6621 12.2815V11.1467C39.6621 9.59745 39.3829 8.53463 38.8244 7.95818C38.266 7.38173 37.3563 7.09351 36.0953 7.09351C34.8523 7.09351 33.4563 7.52584 31.9071 8.39052L31.2045 6.76926C33.06 5.90459 34.8253 5.47225 36.5006 5.47225C39.1127 5.47225 40.7429 6.39096 41.3914 8.22839C41.6616 8.98498 41.7967 9.90369 41.7967 10.9845V18.3883C41.7967 19.379 42.175 19.8744 42.9316 19.8744C43.1838 19.8744 43.5531 19.8204 44.0395 19.7123L44.2827 21.3336C43.5801 21.5677 42.8956 21.6848 42.2291 21.6848C40.5178 21.6848 39.6621 20.667 39.6621 18.6315ZM39.6621 13.6596C34.6902 13.6596 32.2043 14.9026 32.2043 17.3885C32.2043 18.2171 32.4295 18.8656 32.8798 19.334C33.3482 19.7844 33.9967 20.0095 34.8253 20.0095C36.1223 20.0095 37.2392 19.4871 38.1759 18.4423C39.1127 17.3975 39.608 15.9114 39.6621 13.9839V13.6596Z" fill="white"/>
<path d="M56.029 0.500389H58.9743C59.5508 0.500389 59.821 0.779605 59.7849 1.33804V18.3883C59.7849 19.379 60.1722 19.8744 60.9468 19.8744C61.2711 19.8744 61.6494 19.8204 62.0817 19.7123L62.3249 21.3336C61.6224 21.5677 60.9288 21.6848 60.2443 21.6848C58.6951 21.6848 57.8394 20.8742 57.6773 19.253C56.4884 20.8742 55.0022 21.6848 53.2188 21.6848C52.192 21.6848 51.2823 21.4417 50.4897 20.9553C49.7151 20.4689 49.1207 19.8294 48.7063 19.0368C47.8597 17.4335 47.4363 15.6141 47.4363 13.5785C47.4363 11.4889 47.8236 9.67852 48.5982 8.14733C49.0306 7.31868 49.6701 6.67018 50.5167 6.20182C51.3634 5.71544 52.4352 5.47225 53.7322 5.47225C55.0473 5.47225 56.3533 5.80551 57.6503 6.47203V2.12165L56.029 1.90548V0.500389ZM53.9484 7.12053C51.0301 7.12053 49.571 9.2732 49.571 13.5785C49.571 15.3079 49.8412 16.776 50.3816 17.983C50.6699 18.6315 51.0932 19.1449 51.6516 19.5232C52.2281 19.8834 52.9036 20.0636 53.6782 20.0636C55.2454 20.0636 56.5694 19.2439 57.6503 17.6047V8.03924C56.5334 7.42677 55.2995 7.12053 53.9484 7.12053Z" fill="white"/>
<path d="M72.7401 21.6848C71.6772 21.6848 70.6774 21.4597 69.7407 21.0093C68.804 20.5409 68.0654 19.9645 67.525 19.28C66.9846 18.5774 66.5432 17.7398 66.201 16.767C65.6245 15.1277 65.3363 13.2723 65.3363 11.2007C65.3363 9.2732 65.6335 7.51684 66.228 5.93161C66.5883 5.01289 67.0476 4.22028 67.6061 3.55376C68.1645 2.86923 68.9121 2.31079 69.8488 1.87846C70.8036 1.42811 71.8934 1.20293 73.1183 1.20293C75.0999 1.20293 77.1805 1.71633 79.3602 2.74313L78.6306 4.36439C76.7752 3.35561 74.9378 2.85121 73.1183 2.85121C71.9835 2.85121 71.0197 3.12142 70.2271 3.66184C69.4345 4.18425 68.858 4.8958 68.4978 5.7965C67.8312 7.39975 67.498 9.17412 67.498 11.1196C67.498 14.0559 67.9844 16.3077 68.9571 17.8749C69.3354 18.4874 69.8668 19.0008 70.5514 19.4151C71.2539 19.8294 72.0645 20.0366 72.9832 20.0366C74.2983 20.0366 75.3881 19.6493 76.2528 18.8747C77.1355 18.082 77.5768 16.8481 77.5768 15.1728V12.903L74.01 12.7139V11.1467H78.6576C79.3062 11.1467 79.6304 11.4169 79.6304 11.9573V15.2538C79.6304 17.6497 78.9459 19.343 77.5768 20.3338C76.3338 21.2345 74.7216 21.6848 72.7401 21.6848Z" fill="white"/>
<path d="M95.5221 14.0379H84.8759C84.8759 16.0375 85.3803 17.5957 86.3891 18.7125C87.1817 19.5952 88.2625 20.0366 89.6316 20.0366C91.0187 20.0366 92.5048 19.6312 94.09 18.8206L94.7656 20.3878C92.9461 21.2525 91.3249 21.6848 89.9018 21.6848C88.4967 21.6848 87.3348 21.4597 86.4161 21.0093C85.5154 20.5409 84.8038 19.9195 84.2814 19.1449C83.2726 17.5776 82.7682 15.8033 82.7682 13.8217C82.7682 11.5159 83.2546 9.57944 84.2274 8.01222C84.7318 7.21961 85.4163 6.59812 86.281 6.14777C87.1637 5.69742 88.1905 5.47225 89.3614 5.47225C91.2889 5.47225 92.793 6.12976 93.8739 7.44478C94.9727 8.7598 95.5221 10.5162 95.5221 12.7139V14.0379ZM93.3875 12.5247C93.3875 10.8855 93.0272 9.57944 92.3067 8.60668C91.5861 7.61591 90.5503 7.12053 89.1992 7.12053C87.8482 7.12053 86.8304 7.63393 86.1459 8.66073C85.4613 9.68752 85.056 10.9755 84.9299 12.5247H93.3875Z" fill="white"/>
<path d="M110.768 18.6315V10.309C110.768 9.17412 110.561 8.36349 110.147 7.87712C109.75 7.37272 109.057 7.12053 108.066 7.12053C106.355 7.12053 104.688 7.78705 103.067 9.12008V19.7123L104.959 19.9015V21.3065H99.041V19.9015L100.932 19.7123V7.4718L99.041 7.25563V5.85054H101.905C102.464 5.85054 102.743 6.12075 102.743 6.66117V7.71499C104.634 6.21983 106.544 5.47225 108.471 5.47225C110.021 5.47225 111.146 5.86856 111.849 6.66117C112.552 7.45379 112.903 8.66973 112.903 10.309V18.3883C112.903 19.379 113.29 19.8744 114.065 19.8744C114.389 19.8744 114.767 19.8204 115.2 19.7123L115.443 21.3336C114.74 21.5677 114.047 21.6848 113.362 21.6848C111.633 21.6848 110.768 20.667 110.768 18.6315Z" fill="white"/>
<path d="M4.33737 19.8474H10.5252L10.7413 16.713H12.1464V20.4689C12.1464 21.0273 11.8672 21.3065 11.3088 21.3065H0.500389V19.9015L2.17569 19.7123V3.20249L0.500389 2.98632V1.58123H6.55309V2.98632L4.33737 3.20249V19.8474Z" stroke="white" mask="url(#path-1-outside-1)"/>
<path d="M27.0371 14.0379H16.3909C16.3909 16.0375 16.8953 17.5957 17.904 18.7125C18.6967 19.5952 19.7775 20.0366 21.1466 20.0366C22.5336 20.0366 24.0198 19.6312 25.605 18.8206L26.2805 20.3878C24.4611 21.2525 22.8399 21.6848 21.4168 21.6848C20.0117 21.6848 18.8498 21.4597 17.9311 21.0093C17.0304 20.5409 16.3188 19.9195 15.7964 19.1449C14.7876 17.5776 14.2832 15.8033 14.2832 13.8217C14.2832 11.5159 14.7696 9.57944 15.7424 8.01222C16.2468 7.21961 16.9313 6.59812 17.796 6.14777C18.6786 5.69742 19.7054 5.47225 20.8764 5.47225C22.8038 5.47225 24.308 6.12976 25.3889 7.44478C26.4877 8.7598 27.0371 10.5162 27.0371 12.7139V14.0379ZM24.9025 12.5247C24.9025 10.8855 24.5422 9.57944 23.8216 8.60668C23.1011 7.61591 22.0653 7.12053 20.7142 7.12053C19.3632 7.12053 18.3454 7.63393 17.6609 8.66073C16.9763 9.68752 16.571 10.9755 16.4449 12.5247H24.9025Z" stroke="white" mask="url(#path-1-outside-1)"/>
<path d="M39.6621 18.6315V18.2532C38.4912 20.5409 36.6537 21.6848 34.1498 21.6848C32.9429 21.6848 31.9791 21.3156 31.2586 20.577C30.538 19.8384 30.1777 18.8296 30.1777 17.5506C30.1777 15.8033 30.8983 14.4882 32.3394 13.6056C33.7805 12.7229 36.2214 12.2815 39.6621 12.2815V11.1467C39.6621 9.59745 39.3829 8.53463 38.8244 7.95818C38.266 7.38173 37.3563 7.09351 36.0953 7.09351C34.8523 7.09351 33.4563 7.52584 31.9071 8.39052L31.2045 6.76926C33.06 5.90459 34.8253 5.47225 36.5006 5.47225C39.1127 5.47225 40.7429 6.39096 41.3914 8.22839C41.6616 8.98498 41.7967 9.90369 41.7967 10.9845V18.3883C41.7967 19.379 42.175 19.8744 42.9316 19.8744C43.1838 19.8744 43.5531 19.8204 44.0395 19.7123L44.2827 21.3336C43.5801 21.5677 42.8956 21.6848 42.2291 21.6848C40.5178 21.6848 39.6621 20.667 39.6621 18.6315ZM39.6621 13.6596C34.6902 13.6596 32.2043 14.9026 32.2043 17.3885C32.2043 18.2171 32.4295 18.8656 32.8798 19.334C33.3482 19.7844 33.9967 20.0095 34.8253 20.0095C36.1223 20.0095 37.2392 19.4871 38.1759 18.4423C39.1127 17.3975 39.608 15.9114 39.6621 13.9839V13.6596Z" stroke="white" mask="url(#path-1-outside-1)"/>
<path d="M56.029 0.500389H58.9743C59.5508 0.500389 59.821 0.779605 59.7849 1.33804V18.3883C59.7849 19.379 60.1722 19.8744 60.9468 19.8744C61.2711 19.8744 61.6494 19.8204 62.0817 19.7123L62.3249 21.3336C61.6224 21.5677 60.9288 21.6848 60.2443 21.6848C58.6951 21.6848 57.8394 20.8742 57.6773 19.253C56.4884 20.8742 55.0022 21.6848 53.2188 21.6848C52.192 21.6848 51.2823 21.4417 50.4897 20.9553C49.7151 20.4689 49.1207 19.8294 48.7063 19.0368C47.8597 17.4335 47.4363 15.6141 47.4363 13.5785C47.4363 11.4889 47.8236 9.67852 48.5982 8.14733C49.0306 7.31868 49.6701 6.67018 50.5167 6.20182C51.3634 5.71544 52.4352 5.47225 53.7322 5.47225C55.0473 5.47225 56.3533 5.80551 57.6503 6.47203V2.12165L56.029 1.90548V0.500389ZM53.9484 7.12053C51.0301 7.12053 49.571 9.2732 49.571 13.5785C49.571 15.3079 49.8412 16.776 50.3816 17.983C50.6699 18.6315 51.0932 19.1449 51.6516 19.5232C52.2281 19.8834 52.9036 20.0636 53.6782 20.0636C55.2454 20.0636 56.5694 19.2439 57.6503 17.6047V8.03924C56.5334 7.42677 55.2995 7.12053 53.9484 7.12053Z" stroke="white" mask="url(#path-1-outside-1)"/>
<path d="M72.7401 21.6848C71.6772 21.6848 70.6774 21.4597 69.7407 21.0093C68.804 20.5409 68.0654 19.9645 67.525 19.28C66.9846 18.5774 66.5432 17.7398 66.201 16.767C65.6245 15.1277 65.3363 13.2723 65.3363 11.2007C65.3363 9.2732 65.6335 7.51684 66.228 5.93161C66.5883 5.01289 67.0476 4.22028 67.6061 3.55376C68.1645 2.86923 68.9121 2.31079 69.8488 1.87846C70.8036 1.42811 71.8934 1.20293 73.1183 1.20293C75.0999 1.20293 77.1805 1.71633 79.3602 2.74313L78.6306 4.36439C76.7752 3.35561 74.9378 2.85121 73.1183 2.85121C71.9835 2.85121 71.0197 3.12142 70.2271 3.66184C69.4345 4.18425 68.858 4.8958 68.4978 5.7965C67.8312 7.39975 67.498 9.17412 67.498 11.1196C67.498 14.0559 67.9844 16.3077 68.9571 17.8749C69.3354 18.4874 69.8668 19.0008 70.5514 19.4151C71.2539 19.8294 72.0645 20.0366 72.9832 20.0366C74.2983 20.0366 75.3881 19.6493 76.2528 18.8747C77.1355 18.082 77.5768 16.8481 77.5768 15.1728V12.903L74.01 12.7139V11.1467H78.6576C79.3062 11.1467 79.6304 11.4169 79.6304 11.9573V15.2538C79.6304 17.6497 78.9459 19.343 77.5768 20.3338C76.3338 21.2345 74.7216 21.6848 72.7401 21.6848Z" stroke="white" mask="url(#path-1-outside-1)"/>
<path d="M95.5221 14.0379H84.8759C84.8759 16.0375 85.3803 17.5957 86.3891 18.7125C87.1817 19.5952 88.2625 20.0366 89.6316 20.0366C91.0187 20.0366 92.5048 19.6312 94.09 18.8206L94.7656 20.3878C92.9461 21.2525 91.3249 21.6848 89.9018 21.6848C88.4967 21.6848 87.3348 21.4597 86.4161 21.0093C85.5154 20.5409 84.8038 19.9195 84.2814 19.1449C83.2726 17.5776 82.7682 15.8033 82.7682 13.8217C82.7682 11.5159 83.2546 9.57944 84.2274 8.01222C84.7318 7.21961 85.4163 6.59812 86.281 6.14777C87.1637 5.69742 88.1905 5.47225 89.3614 5.47225C91.2889 5.47225 92.793 6.12976 93.8739 7.44478C94.9727 8.7598 95.5221 10.5162 95.5221 12.7139V14.0379ZM93.3875 12.5247C93.3875 10.8855 93.0272 9.57944 92.3067 8.60668C91.5861 7.61591 90.5503 7.12053 89.1992 7.12053C87.8482 7.12053 86.8304 7.63393 86.1459 8.66073C85.4613 9.68752 85.056 10.9755 84.9299 12.5247H93.3875Z" stroke="white" mask="url(#path-1-outside-1)"/>
<path d="M110.768 18.6315V10.309C110.768 9.17412 110.561 8.36349 110.147 7.87712C109.75 7.37272 109.057 7.12053 108.066 7.12053C106.355 7.12053 104.688 7.78705 103.067 9.12008V19.7123L104.959 19.9015V21.3065H99.041V19.9015L100.932 19.7123V7.4718L99.041 7.25563V5.85054H101.905C102.464 5.85054 102.743 6.12075 102.743 6.66117V7.71499C104.634 6.21983 106.544 5.47225 108.471 5.47225C110.021 5.47225 111.146 5.86856 111.849 6.66117C112.552 7.45379 112.903 8.66973 112.903 10.309V18.3883C112.903 19.379 113.29 19.8744 114.065 19.8744C114.389 19.8744 114.767 19.8204 115.2 19.7123L115.443 21.3336C114.74 21.5677 114.047 21.6848 113.362 21.6848C111.633 21.6848 110.768 20.667 110.768 18.6315Z" stroke="white" mask="url(#path-1-outside-1)"/>
</svg>
