<svg width="110" height="28" viewBox="0 0 110 28" fill="none" xmlns="http://www.w3.org/2000/svg">
<path fill-rule="evenodd" clip-rule="evenodd" d="M7.75975 2.6593C6.64722 2.6593 5.70143 2.93644 4.92269 3.4894C4.14395 4.0427 3.569 4.78831 3.19848 5.72592C2.5491 7.43281 2.22506 9.28041 2.22506 11.2677C2.22506 13.3497 2.5491 15.3285 3.19848 17.2037C3.569 18.2166 4.14395 19.0322 4.92269 19.6513C5.70143 20.2703 6.64722 20.5797 7.75975 20.5797C10.4109 20.5797 12.0704 18.7137 12.738 14.9813L14.6569 15.4314C13.6741 20.008 11.3658 22.2958 7.7318 22.2958C6.52632 22.2958 5.45571 22.0568 4.51934 21.5784C3.58297 21.1001 2.83674 20.4952 2.28064 19.7641C1.72453 19.0322 1.26984 18.1601 0.917844 17.1475C0.30584 15.4222 0 13.4904 0 11.3522C0 9.36457 0.30584 7.53604 0.917844 5.8663C1.26984 4.90995 1.72453 4.08017 2.28064 3.37697C2.83674 2.67344 3.58785 2.09253 4.53332 1.6326C5.47912 1.17333 6.55427 0.943531 7.75975 0.943531C9.78037 0.943531 11.8481 1.47809 13.9617 2.54687L13.2385 4.23469C11.3658 3.18465 9.53954 2.6593 7.75975 2.6593Z" fill="white"/>
<path fill-rule="evenodd" clip-rule="evenodd" d="M19.6352 1.08424V18.8353C19.6352 19.8673 20.0336 20.3828 20.8309 20.3828C21.1091 20.3828 21.4985 20.3265 21.999 20.2138L22.2493 21.9019C21.5264 22.1452 20.8124 22.2675 20.1077 22.2675C18.328 22.2675 17.4377 21.2083 17.4377 19.0888V1.89988L15.7691 1.67468V0.212051H18.8009C19.357 0.212051 19.6352 0.502999 19.6352 1.08424Z" fill="white"/>
<path fill-rule="evenodd" clip-rule="evenodd" d="M33.4018 13.9122C28.2845 13.9122 25.7256 15.2062 25.7256 17.7945C25.7256 18.6575 25.9619 19.3278 26.4348 19.8061C26.9077 20.2845 27.5704 20.5235 28.4233 20.5235C29.7584 20.5235 30.908 19.9797 31.872 18.8919C32.836 17.8043 33.3463 16.2569 33.4018 14.2499V13.9122ZM33.4018 19.0888V18.6949C32.1964 21.0768 30.3051 22.2675 27.728 22.2675C26.4855 22.2675 25.4936 21.8829 24.7522 21.1142C24.0105 20.3453 23.6397 19.2952 23.6397 17.9635C23.6397 16.1445 24.381 14.7752 25.8647 13.856C27.3478 12.9375 29.8601 12.4775 33.4018 12.4775V11.296C33.4018 9.68346 33.1142 8.57687 32.5396 7.97657C31.9646 7.37626 31.0331 7.07611 29.7444 7.07611C28.4554 7.07611 27.014 7.52618 25.4198 8.42663L24.6966 6.73848C26.6061 5.83835 28.4233 5.38829 30.1478 5.38829C32.836 5.38829 34.5144 6.34496 35.182 8.25765C35.4602 9.04535 35.5989 10.002 35.5989 11.127V18.8353C35.5989 19.8673 35.9883 20.3828 36.7671 20.3828C37.0264 20.3828 37.4067 20.3266 37.9075 20.2138L38.1578 21.9019C37.4346 22.1452 36.7297 22.2675 36.0439 22.2675C34.2823 22.2675 33.4018 21.2083 33.4018 19.0888Z" fill="white"/>
<path fill-rule="evenodd" clip-rule="evenodd" d="M43.9428 13.9967V20.2138L46.7239 20.411V21.8737H39.7988V20.411L41.7457 20.2138V7.46996L39.7988 7.24509V5.78214H42.7467C43.3214 5.78214 43.609 6.07308 43.609 6.65432V10.1427C44.1095 8.84843 44.8649 7.7471 45.8756 6.83711C46.8861 5.92777 48.1049 5.4445 49.5331 5.38829V7.32958C47.9756 7.38547 46.6544 8.02358 45.5698 9.24227C44.4849 10.4616 43.9428 12.0465 43.9428 13.9967Z" fill="white"/>
<path fill-rule="evenodd" clip-rule="evenodd" d="M55.0119 6.65431V18.8353C55.0119 19.8673 55.4198 20.3828 56.2359 20.3828C56.5508 20.3828 56.9311 20.3265 57.376 20.2138L57.6542 21.9019C56.8937 22.1452 56.115 22.2675 55.318 22.2675C53.6676 22.2675 52.8427 21.2083 52.8427 19.0888V7.46995L51.1741 7.24508V5.78213H54.1779C54.734 5.78213 55.0119 6.07307 55.0119 6.65431Z" fill="white"/>
<path fill-rule="evenodd" clip-rule="evenodd" d="M58.0989 7.32958V5.78213H60.5186V2.12507L62.7157 1.61846V5.78213H65.7475V7.32958H62.7157V18.8353C62.7157 19.8482 63.1236 20.3545 63.9394 20.3545C64.477 20.3545 64.9963 20.2519 65.4972 20.0451L65.7475 21.7612C64.8758 22.0989 63.9995 22.2675 63.1191 22.2675C62.2383 22.2675 61.5847 22.0094 61.1582 21.494C60.7318 20.9781 60.5186 20.1579 60.5186 19.0322V7.32958H58.0989Z" fill="white"/>
<path fill-rule="evenodd" clip-rule="evenodd" d="M81.8227 6.65431V18.8353C81.8227 19.8673 82.2303 20.3828 83.0464 20.3828C83.5096 20.3828 83.8898 20.3265 84.1869 20.2138L84.4648 21.9019C83.7043 22.1452 82.9908 22.2675 82.3233 22.2675C80.8214 22.2675 79.9497 21.5459 79.7088 20.1013C77.7802 21.5459 75.9406 22.2675 74.1884 22.2675C72.436 22.2675 71.1983 21.8595 70.4755 21.0439C69.7523 20.2279 69.3906 18.9576 69.3906 17.232V7.46995L67.4437 7.24508V5.78213H70.6422C71.2724 5.78213 71.5877 6.07307 71.5877 6.65431V17.232C71.5877 18.4135 71.7963 19.2673 72.2136 19.792C72.6306 20.3173 73.3489 20.5797 74.3688 20.5797C76.1304 20.5797 77.8917 19.8482 79.6533 18.3852V7.46995L77.9846 7.24508V5.78213H80.9884C81.5445 5.78213 81.8227 6.07307 81.8227 6.65431Z" fill="white"/>
<path fill-rule="evenodd" clip-rule="evenodd" d="M90.3606 13.9967V20.2138L93.1417 20.411V21.8737H86.2166V20.411L88.1635 20.2138V7.46996L86.2166 7.24509V5.78214H89.1649C89.7392 5.78214 90.0271 6.07308 90.0271 6.65432V10.1427C90.5276 8.84843 91.283 7.7471 92.2938 6.83711C93.3039 5.92777 94.5227 5.4445 95.9509 5.38829V7.32958C94.3934 7.38547 93.0725 8.02358 91.9876 9.24227C90.903 10.4616 90.3606 12.0465 90.3606 13.9967Z" fill="white"/>
<path fill-rule="evenodd" clip-rule="evenodd" d="M106.297 8.63769C105.555 7.6156 104.489 7.10438 103.099 7.10438C101.708 7.10438 100.66 7.63894 99.956 8.70772C99.2511 9.77683 98.8341 11.1178 98.7044 12.7307H107.41C107.41 11.0244 107.038 9.66012 106.297 8.63769ZM109.607 14.3061H98.6488C98.6488 16.3881 99.1675 18.0105 100.206 19.173C101.022 20.0921 102.139 20.5517 103.558 20.5517C104.976 20.5517 106.501 20.1296 108.133 19.2857L108.828 20.9173C106.955 21.8174 105.291 22.2675 103.836 22.2675C102.38 22.2675 101.184 22.0285 100.248 21.5502C99.3115 21.0722 98.5747 20.4298 98.0368 19.6233C96.9984 17.9914 96.4793 16.1445 96.4793 14.0812C96.4793 11.6806 96.9802 9.66439 97.9812 8.03279C98.5003 7.20761 99.2095 6.56063 100.109 6.09149C101.008 5.62302 102.06 5.38829 103.266 5.38829C105.25 5.38829 106.802 6.07308 107.924 7.44201C109.046 8.81095 109.607 10.6398 109.607 12.9276V14.3061Z" fill="white"/>
<path fill-rule="evenodd" clip-rule="evenodd" d="M54.7021 0C53.5405 0.449407 52.6876 1.11941 52.0597 1.84365C53.0253 2.63628 54.0254 3.04952 54.9592 3.23724C55.1555 1.99455 55.0082 0.912293 54.7021 0Z" fill="white"/>
<path fill-rule="evenodd" clip-rule="evenodd" d="M92.1902 24.0983V28H91.6581V26.2027H89.5832V28H89.0515V24.0983H89.5832V25.7477H91.6581V24.0983H92.1902Z" fill="white"/>
<path fill-rule="evenodd" clip-rule="evenodd" d="M93.8618 24.5537V25.7477H95.5158V26.2027H93.8618V27.5447H95.7202V28H93.3301V24.0983H95.7202V24.5537H93.8618Z" fill="white"/>
<path fill-rule="evenodd" clip-rule="evenodd" d="M98.6141 26.587L98.0941 25.1744C98.0531 25.0619 98.0122 24.9202 97.9712 24.7664H97.9595C97.9186 24.9202 97.8776 25.0619 97.837 25.1744L97.3225 26.587H98.6141ZM98.7779 27.0305H97.1587L96.8025 28H96.2529L97.7025 24.0983H98.2345L99.6837 28H99.1341L98.7779 27.0305Z" fill="white"/>
<path fill-rule="evenodd" clip-rule="evenodd" d="M102.863 27.5447V28H100.409V24.0983H100.94V27.5447H102.863Z" fill="white"/>
<path fill-rule="evenodd" clip-rule="evenodd" d="M103.81 24.5537H102.571V24.0983H105.581V24.5537H104.342V28H103.81V24.5537Z" fill="white"/>
<path fill-rule="evenodd" clip-rule="evenodd" d="M109.439 24.0983V28H108.907V26.2027H106.832V28H106.301V24.0983H106.832V25.7477H108.907V24.0983H109.439Z" fill="white"/>
</svg>
