<svg width="118" height="23" viewBox="0 0 118 23" fill="none" xmlns="http://www.w3.org/2000/svg">
<mask id="path-1-outside-1" maskUnits="userSpaceOnUse" x="0" y="0" width="118" height="23" fill="black">
<rect fill="white" width="118" height="23"/>
<path d="M4.834 20.332H11.017L11.233 17.2H12.637V20.953C12.637 21.511 12.358 21.79 11.8 21.79H1V20.386L2.674 20.197V3.7L1 3.484V2.08H7.048V3.484L4.834 3.7V20.332Z"/>
<path d="M27.5161 14.527H16.8781C16.8781 16.525 17.3821 18.082 18.3901 19.198C19.1821 20.08 20.2621 20.521 21.6301 20.521C23.0161 20.521 24.5011 20.116 26.0851 19.306L26.7601 20.872C24.9421 21.736 23.3221 22.168 21.9001 22.168C20.4961 22.168 19.3351 21.943 18.4171 21.493C17.5171 21.025 16.8061 20.404 16.2841 19.63C15.2761 18.064 14.7721 16.291 14.7721 14.311C14.7721 12.007 15.2581 10.072 16.2301 8.506C16.7341 7.714 17.4181 7.093 18.2821 6.643C19.1641 6.193 20.1901 5.968 21.3601 5.968C23.2861 5.968 24.7891 6.625 25.8691 7.939C26.9671 9.253 27.5161 11.008 27.5161 13.204V14.527ZM25.3831 13.015C25.3831 11.377 25.0231 10.072 24.3031 9.1C23.5831 8.11 22.5481 7.615 21.1981 7.615C19.8481 7.615 18.8311 8.128 18.1471 9.154C17.4631 10.18 17.0581 11.467 16.9321 13.015H25.3831Z"/>
<path d="M40.1313 19.117V18.739C38.9613 21.025 37.1253 22.168 34.6233 22.168C33.4173 22.168 32.4543 21.799 31.7343 21.061C31.0143 20.323 30.6543 19.315 30.6543 18.037C30.6543 16.291 31.3743 14.977 32.8143 14.095C34.2543 13.213 36.6933 12.772 40.1313 12.772V11.638C40.1313 10.09 39.8523 9.028 39.2943 8.452C38.7363 7.876 37.8273 7.588 36.5673 7.588C35.3253 7.588 33.9303 8.02 32.3823 8.884L31.6803 7.264C33.5343 6.4 35.2983 5.968 36.9723 5.968C39.5823 5.968 41.2113 6.886 41.8593 8.722C42.1293 9.478 42.2643 10.396 42.2643 11.476V18.874C42.2643 19.864 42.6423 20.359 43.3983 20.359C43.6503 20.359 44.0193 20.305 44.5053 20.197L44.7483 21.817C44.0463 22.051 43.3623 22.168 42.6963 22.168C40.9863 22.168 40.1313 21.151 40.1313 19.117ZM40.1313 14.149C35.1633 14.149 32.6793 15.391 32.6793 17.875C32.6793 18.703 32.9043 19.351 33.3543 19.819C33.8223 20.269 34.4703 20.494 35.2983 20.494C36.5943 20.494 37.7103 19.972 38.6463 18.928C39.5823 17.884 40.0773 16.399 40.1313 14.473V14.149Z"/>
<path d="M56.4855 1H59.4285C60.0045 1 60.2745 1.279 60.2385 1.837V18.874C60.2385 19.864 60.6255 20.359 61.3995 20.359C61.7235 20.359 62.1015 20.305 62.5335 20.197L62.7765 21.817C62.0745 22.051 61.3815 22.168 60.6975 22.168C59.1495 22.168 58.2945 21.358 58.1325 19.738C56.9445 21.358 55.4595 22.168 53.6775 22.168C52.6515 22.168 51.7425 21.925 50.9505 21.439C50.1765 20.953 49.5825 20.314 49.1685 19.522C48.3225 17.92 47.8995 16.102 47.8995 14.068C47.8995 11.98 48.2865 10.171 49.0605 8.641C49.4925 7.813 50.1315 7.165 50.9775 6.697C51.8235 6.211 52.8945 5.968 54.1905 5.968C55.5045 5.968 56.8095 6.301 58.1055 6.967V2.62L56.4855 2.404V1ZM54.4065 7.615C51.4905 7.615 50.0325 9.766 50.0325 14.068C50.0325 15.796 50.3025 17.263 50.8425 18.469C51.1305 19.117 51.5535 19.63 52.1115 20.008C52.6875 20.368 53.3625 20.548 54.1365 20.548C55.7025 20.548 57.0255 19.729 58.1055 18.091V8.533C56.9895 7.921 55.7565 7.615 54.4065 7.615Z"/>
<path d="M82.1746 21.79H80.3926C79.9246 21.79 79.5916 21.61 79.3936 21.25L69.9436 5.509V20.953C69.9436 21.511 69.6646 21.79 69.1066 21.79H66.1096V20.386L67.7836 20.197V3.7L66.1096 3.484V2.08H69.5656C69.9976 2.08 70.3306 2.26 70.5646 2.62L80.0146 18.388V2.917C80.0146 2.359 80.2846 2.08 80.8246 2.08H83.8486V3.484L82.1746 3.7V21.79Z"/>
<path d="M96.6297 19.117V18.739C95.4597 21.025 93.6237 22.168 91.1217 22.168C89.9157 22.168 88.9527 21.799 88.2327 21.061C87.5127 20.323 87.1527 19.315 87.1527 18.037C87.1527 16.291 87.8727 14.977 89.3127 14.095C90.7527 13.213 93.1917 12.772 96.6297 12.772V11.638C96.6297 10.09 96.3507 9.028 95.7927 8.452C95.2347 7.876 94.3257 7.588 93.0657 7.588C91.8237 7.588 90.4287 8.02 88.8807 8.884L88.1787 7.264C90.0327 6.4 91.7967 5.968 93.4707 5.968C96.0807 5.968 97.7097 6.886 98.3577 8.722C98.6277 9.478 98.7627 10.396 98.7627 11.476V18.874C98.7627 19.864 99.1407 20.359 99.8967 20.359C100.149 20.359 100.518 20.305 101.004 20.197L101.247 21.817C100.545 22.051 99.8607 22.168 99.1947 22.168C97.4847 22.168 96.6297 21.151 96.6297 19.117ZM96.6297 14.149C91.6617 14.149 89.1777 15.391 89.1777 17.875C89.1777 18.703 89.4027 19.351 89.8527 19.819C90.3207 20.269 90.9687 20.494 91.7967 20.494C93.0927 20.494 94.2087 19.972 95.1447 18.928C96.0807 17.884 96.5757 16.399 96.6297 14.473V14.149Z"/>
<path d="M115.171 6.346H117.304V7.75L115.981 7.966L111.229 21.79H108.88L102.994 6.346H105.127L110.041 19.603L114.172 7.048C114.334 6.58 114.667 6.346 115.171 6.346Z"/>
</mask>
<path d="M4.834 20.332H11.017L11.233 17.2H12.637V20.953C12.637 21.511 12.358 21.79 11.8 21.79H1V20.386L2.674 20.197V3.7L1 3.484V2.08H7.048V3.484L4.834 3.7V20.332Z" fill="#333333"/>
<path d="M27.5161 14.527H16.8781C16.8781 16.525 17.3821 18.082 18.3901 19.198C19.1821 20.08 20.2621 20.521 21.6301 20.521C23.0161 20.521 24.5011 20.116 26.0851 19.306L26.7601 20.872C24.9421 21.736 23.3221 22.168 21.9001 22.168C20.4961 22.168 19.3351 21.943 18.4171 21.493C17.5171 21.025 16.8061 20.404 16.2841 19.63C15.2761 18.064 14.7721 16.291 14.7721 14.311C14.7721 12.007 15.2581 10.072 16.2301 8.506C16.7341 7.714 17.4181 7.093 18.2821 6.643C19.1641 6.193 20.1901 5.968 21.3601 5.968C23.2861 5.968 24.7891 6.625 25.8691 7.939C26.9671 9.253 27.5161 11.008 27.5161 13.204V14.527ZM25.3831 13.015C25.3831 11.377 25.0231 10.072 24.3031 9.1C23.5831 8.11 22.5481 7.615 21.1981 7.615C19.8481 7.615 18.8311 8.128 18.1471 9.154C17.4631 10.18 17.0581 11.467 16.9321 13.015H25.3831Z" fill="#333333"/>
<path d="M40.1313 19.117V18.739C38.9613 21.025 37.1253 22.168 34.6233 22.168C33.4173 22.168 32.4543 21.799 31.7343 21.061C31.0143 20.323 30.6543 19.315 30.6543 18.037C30.6543 16.291 31.3743 14.977 32.8143 14.095C34.2543 13.213 36.6933 12.772 40.1313 12.772V11.638C40.1313 10.09 39.8523 9.028 39.2943 8.452C38.7363 7.876 37.8273 7.588 36.5673 7.588C35.3253 7.588 33.9303 8.02 32.3823 8.884L31.6803 7.264C33.5343 6.4 35.2983 5.968 36.9723 5.968C39.5823 5.968 41.2113 6.886 41.8593 8.722C42.1293 9.478 42.2643 10.396 42.2643 11.476V18.874C42.2643 19.864 42.6423 20.359 43.3983 20.359C43.6503 20.359 44.0193 20.305 44.5053 20.197L44.7483 21.817C44.0463 22.051 43.3623 22.168 42.6963 22.168C40.9863 22.168 40.1313 21.151 40.1313 19.117ZM40.1313 14.149C35.1633 14.149 32.6793 15.391 32.6793 17.875C32.6793 18.703 32.9043 19.351 33.3543 19.819C33.8223 20.269 34.4703 20.494 35.2983 20.494C36.5943 20.494 37.7103 19.972 38.6463 18.928C39.5823 17.884 40.0773 16.399 40.1313 14.473V14.149Z" fill="#333333"/>
<path d="M56.4855 1H59.4285C60.0045 1 60.2745 1.279 60.2385 1.837V18.874C60.2385 19.864 60.6255 20.359 61.3995 20.359C61.7235 20.359 62.1015 20.305 62.5335 20.197L62.7765 21.817C62.0745 22.051 61.3815 22.168 60.6975 22.168C59.1495 22.168 58.2945 21.358 58.1325 19.738C56.9445 21.358 55.4595 22.168 53.6775 22.168C52.6515 22.168 51.7425 21.925 50.9505 21.439C50.1765 20.953 49.5825 20.314 49.1685 19.522C48.3225 17.92 47.8995 16.102 47.8995 14.068C47.8995 11.98 48.2865 10.171 49.0605 8.641C49.4925 7.813 50.1315 7.165 50.9775 6.697C51.8235 6.211 52.8945 5.968 54.1905 5.968C55.5045 5.968 56.8095 6.301 58.1055 6.967V2.62L56.4855 2.404V1ZM54.4065 7.615C51.4905 7.615 50.0325 9.766 50.0325 14.068C50.0325 15.796 50.3025 17.263 50.8425 18.469C51.1305 19.117 51.5535 19.63 52.1115 20.008C52.6875 20.368 53.3625 20.548 54.1365 20.548C55.7025 20.548 57.0255 19.729 58.1055 18.091V8.533C56.9895 7.921 55.7565 7.615 54.4065 7.615Z" fill="#333333"/>
<path d="M82.1746 21.79H80.3926C79.9246 21.79 79.5916 21.61 79.3936 21.25L69.9436 5.509V20.953C69.9436 21.511 69.6646 21.79 69.1066 21.79H66.1096V20.386L67.7836 20.197V3.7L66.1096 3.484V2.08H69.5656C69.9976 2.08 70.3306 2.26 70.5646 2.62L80.0146 18.388V2.917C80.0146 2.359 80.2846 2.08 80.8246 2.08H83.8486V3.484L82.1746 3.7V21.79Z" fill="#333333"/>
<path d="M96.6297 19.117V18.739C95.4597 21.025 93.6237 22.168 91.1217 22.168C89.9157 22.168 88.9527 21.799 88.2327 21.061C87.5127 20.323 87.1527 19.315 87.1527 18.037C87.1527 16.291 87.8727 14.977 89.3127 14.095C90.7527 13.213 93.1917 12.772 96.6297 12.772V11.638C96.6297 10.09 96.3507 9.028 95.7927 8.452C95.2347 7.876 94.3257 7.588 93.0657 7.588C91.8237 7.588 90.4287 8.02 88.8807 8.884L88.1787 7.264C90.0327 6.4 91.7967 5.968 93.4707 5.968C96.0807 5.968 97.7097 6.886 98.3577 8.722C98.6277 9.478 98.7627 10.396 98.7627 11.476V18.874C98.7627 19.864 99.1407 20.359 99.8967 20.359C100.149 20.359 100.518 20.305 101.004 20.197L101.247 21.817C100.545 22.051 99.8607 22.168 99.1947 22.168C97.4847 22.168 96.6297 21.151 96.6297 19.117ZM96.6297 14.149C91.6617 14.149 89.1777 15.391 89.1777 17.875C89.1777 18.703 89.4027 19.351 89.8527 19.819C90.3207 20.269 90.9687 20.494 91.7967 20.494C93.0927 20.494 94.2087 19.972 95.1447 18.928C96.0807 17.884 96.5757 16.399 96.6297 14.473V14.149Z" fill="#333333"/>
<path d="M115.171 6.346H117.304V7.75L115.981 7.966L111.229 21.79H108.88L102.994 6.346H105.127L110.041 19.603L114.172 7.048C114.334 6.58 114.667 6.346 115.171 6.346Z" fill="#333333"/>
<path d="M4.834 20.332H11.017L11.233 17.2H12.637V20.953C12.637 21.511 12.358 21.79 11.8 21.79H1V20.386L2.674 20.197V3.7L1 3.484V2.08H7.048V3.484L4.834 3.7V20.332Z" stroke="#333333" mask="url(#path-1-outside-1)"/>
<path d="M27.5161 14.527H16.8781C16.8781 16.525 17.3821 18.082 18.3901 19.198C19.1821 20.08 20.2621 20.521 21.6301 20.521C23.0161 20.521 24.5011 20.116 26.0851 19.306L26.7601 20.872C24.9421 21.736 23.3221 22.168 21.9001 22.168C20.4961 22.168 19.3351 21.943 18.4171 21.493C17.5171 21.025 16.8061 20.404 16.2841 19.63C15.2761 18.064 14.7721 16.291 14.7721 14.311C14.7721 12.007 15.2581 10.072 16.2301 8.506C16.7341 7.714 17.4181 7.093 18.2821 6.643C19.1641 6.193 20.1901 5.968 21.3601 5.968C23.2861 5.968 24.7891 6.625 25.8691 7.939C26.9671 9.253 27.5161 11.008 27.5161 13.204V14.527ZM25.3831 13.015C25.3831 11.377 25.0231 10.072 24.3031 9.1C23.5831 8.11 22.5481 7.615 21.1981 7.615C19.8481 7.615 18.8311 8.128 18.1471 9.154C17.4631 10.18 17.0581 11.467 16.9321 13.015H25.3831Z" stroke="#333333" mask="url(#path-1-outside-1)"/>
<path d="M40.1313 19.117V18.739C38.9613 21.025 37.1253 22.168 34.6233 22.168C33.4173 22.168 32.4543 21.799 31.7343 21.061C31.0143 20.323 30.6543 19.315 30.6543 18.037C30.6543 16.291 31.3743 14.977 32.8143 14.095C34.2543 13.213 36.6933 12.772 40.1313 12.772V11.638C40.1313 10.09 39.8523 9.028 39.2943 8.452C38.7363 7.876 37.8273 7.588 36.5673 7.588C35.3253 7.588 33.9303 8.02 32.3823 8.884L31.6803 7.264C33.5343 6.4 35.2983 5.968 36.9723 5.968C39.5823 5.968 41.2113 6.886 41.8593 8.722C42.1293 9.478 42.2643 10.396 42.2643 11.476V18.874C42.2643 19.864 42.6423 20.359 43.3983 20.359C43.6503 20.359 44.0193 20.305 44.5053 20.197L44.7483 21.817C44.0463 22.051 43.3623 22.168 42.6963 22.168C40.9863 22.168 40.1313 21.151 40.1313 19.117ZM40.1313 14.149C35.1633 14.149 32.6793 15.391 32.6793 17.875C32.6793 18.703 32.9043 19.351 33.3543 19.819C33.8223 20.269 34.4703 20.494 35.2983 20.494C36.5943 20.494 37.7103 19.972 38.6463 18.928C39.5823 17.884 40.0773 16.399 40.1313 14.473V14.149Z" stroke="#333333" mask="url(#path-1-outside-1)"/>
<path d="M56.4855 1H59.4285C60.0045 1 60.2745 1.279 60.2385 1.837V18.874C60.2385 19.864 60.6255 20.359 61.3995 20.359C61.7235 20.359 62.1015 20.305 62.5335 20.197L62.7765 21.817C62.0745 22.051 61.3815 22.168 60.6975 22.168C59.1495 22.168 58.2945 21.358 58.1325 19.738C56.9445 21.358 55.4595 22.168 53.6775 22.168C52.6515 22.168 51.7425 21.925 50.9505 21.439C50.1765 20.953 49.5825 20.314 49.1685 19.522C48.3225 17.92 47.8995 16.102 47.8995 14.068C47.8995 11.98 48.2865 10.171 49.0605 8.641C49.4925 7.813 50.1315 7.165 50.9775 6.697C51.8235 6.211 52.8945 5.968 54.1905 5.968C55.5045 5.968 56.8095 6.301 58.1055 6.967V2.62L56.4855 2.404V1ZM54.4065 7.615C51.4905 7.615 50.0325 9.766 50.0325 14.068C50.0325 15.796 50.3025 17.263 50.8425 18.469C51.1305 19.117 51.5535 19.63 52.1115 20.008C52.6875 20.368 53.3625 20.548 54.1365 20.548C55.7025 20.548 57.0255 19.729 58.1055 18.091V8.533C56.9895 7.921 55.7565 7.615 54.4065 7.615Z" stroke="#333333" mask="url(#path-1-outside-1)"/>
<path d="M82.1746 21.79H80.3926C79.9246 21.79 79.5916 21.61 79.3936 21.25L69.9436 5.509V20.953C69.9436 21.511 69.6646 21.79 69.1066 21.79H66.1096V20.386L67.7836 20.197V3.7L66.1096 3.484V2.08H69.5656C69.9976 2.08 70.3306 2.26 70.5646 2.62L80.0146 18.388V2.917C80.0146 2.359 80.2846 2.08 80.8246 2.08H83.8486V3.484L82.1746 3.7V21.79Z" stroke="#333333" mask="url(#path-1-outside-1)"/>
<path d="M96.6297 19.117V18.739C95.4597 21.025 93.6237 22.168 91.1217 22.168C89.9157 22.168 88.9527 21.799 88.2327 21.061C87.5127 20.323 87.1527 19.315 87.1527 18.037C87.1527 16.291 87.8727 14.977 89.3127 14.095C90.7527 13.213 93.1917 12.772 96.6297 12.772V11.638C96.6297 10.09 96.3507 9.028 95.7927 8.452C95.2347 7.876 94.3257 7.588 93.0657 7.588C91.8237 7.588 90.4287 8.02 88.8807 8.884L88.1787 7.264C90.0327 6.4 91.7967 5.968 93.4707 5.968C96.0807 5.968 97.7097 6.886 98.3577 8.722C98.6277 9.478 98.7627 10.396 98.7627 11.476V18.874C98.7627 19.864 99.1407 20.359 99.8967 20.359C100.149 20.359 100.518 20.305 101.004 20.197L101.247 21.817C100.545 22.051 99.8607 22.168 99.1947 22.168C97.4847 22.168 96.6297 21.151 96.6297 19.117ZM96.6297 14.149C91.6617 14.149 89.1777 15.391 89.1777 17.875C89.1777 18.703 89.4027 19.351 89.8527 19.819C90.3207 20.269 90.9687 20.494 91.7967 20.494C93.0927 20.494 94.2087 19.972 95.1447 18.928C96.0807 17.884 96.5757 16.399 96.6297 14.473V14.149Z" stroke="#333333" mask="url(#path-1-outside-1)"/>
<path d="M115.171 6.346H117.304V7.75L115.981 7.966L111.229 21.79H108.88L102.994 6.346H105.127L110.041 19.603L114.172 7.048C114.334 6.58 114.667 6.346 115.171 6.346Z" stroke="#333333" mask="url(#path-1-outside-1)"/>
</svg>
