<svg width="27" height="29" viewBox="0 0 27 29" fill="none" xmlns="http://www.w3.org/2000/svg">
<path d="M10.3645 12.6655L13.016 11.1334L8.78575 8.63702L7.62216 9.30944L7.60828 12.398L8.77187 11.7256L10.3645 12.6655Z" fill="white"/>
<path d="M17.8062 14.6867L17.7923 17.7753L22.0546 15.312L22.0583 14.5149L19.421 12.9581L19.4174 13.7555L17.8062 14.6867Z" fill="white"/>
<path d="M11.8785 19.9022L9.24127 18.3461L9.21648 23.8691L10.3834 24.5579L13.0348 23.0255L11.8676 22.3371L11.8785 19.9022Z" fill="white"/>
<path d="M22.4037 11.2347L18.0019 8.63702L9.26243 13.6876L9.25879 14.4851L11.896 16.0416L11.8997 15.2441L17.9883 11.7256L24.045 15.3L24.0132 22.3926L17.9245 25.9108L16.3319 24.9712L13.6804 26.5033L17.9107 29L26.6505 23.9494L26.6961 13.7679L22.4037 11.2347Z" fill="white"/>
<path d="M16.3127 13.0791L13.6613 14.6112L14.8285 15.3L14.7967 22.3926L8.70807 25.9108L2.65146 22.3371L2.6832 15.2441L4.29404 14.3133L4.30792 11.2247L0.045618 13.6877L0 23.8691L8.69419 29L17.434 23.9494L17.4796 13.7679L16.3127 13.0791Z" fill="white"/>
<path d="M13.4064 0L4.66626 5.05062L4.62064 15.2321L13.3148 20.3626L14.4781 19.6905L14.492 16.602L13.3287 17.2741L7.2721 13.7L7.30383 6.60709L13.3925 3.08855L19.4491 6.66293L19.4382 9.0978L22.0755 10.6539L22.1002 5.13086L13.4064 0Z" fill="white"/>
</svg>
