<svg width="384" height="104" viewBox="0 0 384 104" fill="none" xmlns="http://www.w3.org/2000/svg">
<path d="M0 8C0 3.58172 3.58172 0 8 0H376C380.418 0 384 3.58172 384 8V96C384 100.418 380.418 104 376 104H7.99999C3.58171 104 0 100.418 0 96V8Z" fill="#FCF8E3"/>
<path d="M48.1541 51.2919L53.5852 45.627C53.9606 45.2355 54.5676 45.2355 54.939 45.627L55.8415 46.5684C56.2169 46.9599 56.2169 47.5931 55.8415 47.9804L51.9958 52L55.8455 56.0154C56.2209 56.407 56.2209 57.0401 55.8455 57.4275L54.943 58.373C54.5676 58.7646 53.9606 58.7646 53.5892 58.373L48.1581 52.7081C47.7787 52.3166 47.7787 51.6834 48.1541 51.2919Z" fill="#333333"/>
<path d="M115.168 27.734H112.432C112.42 28.526 112.564 29.21 112.864 29.786C113.164 30.362 113.566 30.836 114.07 31.208C114.586 31.58 115.174 31.85 115.834 32.018C116.506 32.198 117.196 32.288 117.904 32.288C118.78 32.288 119.548 32.186 120.208 31.982C120.88 31.778 121.438 31.496 121.882 31.136C122.338 30.764 122.68 30.326 122.908 29.822C123.136 29.318 123.25 28.772 123.25 28.184C123.25 27.464 123.094 26.876 122.782 26.42C122.482 25.952 122.122 25.58 121.702 25.304C121.282 25.028 120.856 24.83 120.424 24.71C120.004 24.578 119.674 24.488 119.434 24.44C118.63 24.236 117.976 24.068 117.472 23.936C116.98 23.804 116.59 23.672 116.302 23.54C116.026 23.408 115.84 23.264 115.744 23.108C115.648 22.952 115.6 22.748 115.6 22.496C115.6 22.22 115.66 21.992 115.78 21.812C115.9 21.632 116.05 21.482 116.23 21.362C116.422 21.242 116.632 21.158 116.86 21.11C117.088 21.062 117.316 21.038 117.544 21.038C117.892 21.038 118.21 21.068 118.498 21.128C118.798 21.188 119.062 21.29 119.29 21.434C119.518 21.578 119.698 21.776 119.83 22.028C119.974 22.28 120.058 22.598 120.082 22.982H122.818C122.818 22.238 122.674 21.608 122.386 21.092C122.11 20.564 121.732 20.132 121.252 19.796C120.772 19.46 120.22 19.22 119.596 19.076C118.984 18.92 118.342 18.842 117.67 18.842C117.094 18.842 116.518 18.92 115.942 19.076C115.366 19.232 114.85 19.472 114.394 19.796C113.938 20.12 113.566 20.528 113.278 21.02C113.002 21.5 112.864 22.07 112.864 22.73C112.864 23.318 112.972 23.822 113.188 24.242C113.416 24.65 113.71 24.992 114.07 25.268C114.43 25.544 114.838 25.772 115.294 25.952C115.75 26.12 116.218 26.264 116.698 26.384C117.166 26.516 117.628 26.636 118.084 26.744C118.54 26.852 118.948 26.978 119.308 27.122C119.668 27.266 119.956 27.446 120.172 27.662C120.4 27.878 120.514 28.16 120.514 28.508C120.514 28.832 120.43 29.102 120.262 29.318C120.094 29.522 119.884 29.684 119.632 29.804C119.38 29.924 119.11 30.008 118.822 30.056C118.534 30.092 118.264 30.11 118.012 30.11C117.64 30.11 117.28 30.068 116.932 29.984C116.584 29.888 116.278 29.75 116.014 29.57C115.762 29.378 115.558 29.132 115.402 28.832C115.246 28.532 115.168 28.166 115.168 27.734ZM125.111 19.148V32H127.757V22.982H127.793L130.943 32H133.121L136.271 22.892H136.307V32H138.953V19.148H134.975L132.131 27.986H132.095L129.089 19.148H125.111ZM144.862 27.032L146.536 22.316H146.572L148.192 27.032H144.862ZM145.132 19.148L140.272 32H143.116L144.124 29.138H148.93L149.902 32H152.836L148.03 19.148H145.132ZM154.124 19.148V32H163.214V29.624H156.95V19.148H154.124ZM164.974 19.148V32H174.064V29.624H167.8V19.148H164.974ZM184.595 18.842L179.591 32.288H181.625L186.647 18.842H184.595ZM194.989 27.734H192.253C192.241 28.526 192.385 29.21 192.685 29.786C192.985 30.362 193.387 30.836 193.891 31.208C194.407 31.58 194.995 31.85 195.655 32.018C196.327 32.198 197.017 32.288 197.725 32.288C198.601 32.288 199.369 32.186 200.029 31.982C200.701 31.778 201.259 31.496 201.703 31.136C202.159 30.764 202.501 30.326 202.729 29.822C202.957 29.318 203.071 28.772 203.071 28.184C203.071 27.464 202.915 26.876 202.603 26.42C202.303 25.952 201.943 25.58 201.523 25.304C201.103 25.028 200.677 24.83 200.245 24.71C199.825 24.578 199.495 24.488 199.255 24.44C198.451 24.236 197.797 24.068 197.293 23.936C196.801 23.804 196.411 23.672 196.123 23.54C195.847 23.408 195.661 23.264 195.565 23.108C195.469 22.952 195.421 22.748 195.421 22.496C195.421 22.22 195.481 21.992 195.601 21.812C195.721 21.632 195.871 21.482 196.051 21.362C196.243 21.242 196.453 21.158 196.681 21.11C196.909 21.062 197.137 21.038 197.365 21.038C197.713 21.038 198.031 21.068 198.319 21.128C198.619 21.188 198.883 21.29 199.111 21.434C199.339 21.578 199.519 21.776 199.651 22.028C199.795 22.28 199.879 22.598 199.903 22.982H202.639C202.639 22.238 202.495 21.608 202.207 21.092C201.931 20.564 201.553 20.132 201.073 19.796C200.593 19.46 200.041 19.22 199.417 19.076C198.805 18.92 198.163 18.842 197.491 18.842C196.915 18.842 196.339 18.92 195.763 19.076C195.187 19.232 194.671 19.472 194.215 19.796C193.759 20.12 193.387 20.528 193.099 21.02C192.823 21.5 192.685 22.07 192.685 22.73C192.685 23.318 192.793 23.822 193.009 24.242C193.237 24.65 193.531 24.992 193.891 25.268C194.251 25.544 194.659 25.772 195.115 25.952C195.571 26.12 196.039 26.264 196.519 26.384C196.987 26.516 197.449 26.636 197.905 26.744C198.361 26.852 198.769 26.978 199.129 27.122C199.489 27.266 199.777 27.446 199.993 27.662C200.221 27.878 200.335 28.16 200.335 28.508C200.335 28.832 200.251 29.102 200.083 29.318C199.915 29.522 199.705 29.684 199.453 29.804C199.201 29.924 198.931 30.008 198.643 30.056C198.355 30.092 198.085 30.11 197.833 30.11C197.461 30.11 197.101 30.068 196.753 29.984C196.405 29.888 196.099 29.75 195.835 29.57C195.583 29.378 195.379 29.132 195.223 28.832C195.067 28.532 194.989 28.166 194.989 27.734ZM204.932 19.148V32H207.578V22.982H207.614L210.764 32H212.942L216.092 22.892H216.128V32H218.774V19.148H214.796L211.952 27.986H211.916L208.91 19.148H204.932Z" fill="#333333"/>
<path d="M114.595 55.8V47.49H116.995C117.655 47.49 118.21 47.585 118.66 47.775C119.11 47.955 119.475 48.225 119.755 48.585C120.045 48.935 120.25 49.365 120.37 49.875C120.5 50.375 120.565 50.945 120.565 51.585C120.565 52.245 120.495 52.81 120.355 53.28C120.225 53.74 120.055 54.125 119.845 54.435C119.635 54.745 119.395 54.99 119.125 55.17C118.865 55.35 118.6 55.49 118.33 55.59C118.06 55.68 117.805 55.74 117.565 55.77C117.325 55.79 117.125 55.8 116.965 55.8H114.595ZM113.17 46.29V57H116.845C117.735 57 118.505 56.875 119.155 56.625C119.805 56.375 120.34 56.015 120.76 55.545C121.18 55.065 121.49 54.48 121.69 53.79C121.89 53.09 121.99 52.29 121.99 51.39C121.99 49.67 121.545 48.39 120.655 47.55C119.765 46.71 118.495 46.29 116.845 46.29H113.17ZM129.907 52.38H125.452C125.472 52.08 125.537 51.8 125.647 51.54C125.757 51.27 125.907 51.035 126.097 50.835C126.287 50.635 126.512 50.48 126.772 50.37C127.042 50.25 127.342 50.19 127.672 50.19C127.992 50.19 128.282 50.25 128.542 50.37C128.812 50.48 129.042 50.635 129.232 50.835C129.432 51.025 129.587 51.255 129.697 51.525C129.817 51.795 129.887 52.08 129.907 52.38ZM131.137 54.54H129.877C129.767 55.05 129.537 55.43 129.187 55.68C128.847 55.93 128.407 56.055 127.867 56.055C127.447 56.055 127.082 55.985 126.772 55.845C126.462 55.705 126.207 55.52 126.007 55.29C125.807 55.05 125.662 54.78 125.572 54.48C125.482 54.17 125.442 53.845 125.452 53.505H131.257C131.277 53.035 131.232 52.54 131.122 52.02C131.022 51.5 130.832 51.02 130.552 50.58C130.282 50.14 129.917 49.78 129.457 49.5C129.007 49.21 128.437 49.065 127.747 49.065C127.217 49.065 126.727 49.165 126.277 49.365C125.837 49.565 125.452 49.845 125.122 50.205C124.802 50.565 124.552 50.99 124.372 51.48C124.192 51.97 124.102 52.51 124.102 53.1C124.122 53.69 124.207 54.235 124.357 54.735C124.517 55.235 124.752 55.665 125.062 56.025C125.372 56.385 125.752 56.665 126.202 56.865C126.662 57.065 127.202 57.165 127.822 57.165C128.702 57.165 129.432 56.945 130.012 56.505C130.592 56.065 130.967 55.41 131.137 54.54ZM134.103 50.37V57H135.378V50.37H136.878V49.245H135.378V48.165C135.378 47.825 135.463 47.595 135.633 47.475C135.803 47.355 136.043 47.295 136.353 47.295C136.463 47.295 136.583 47.305 136.713 47.325C136.843 47.335 136.963 47.36 137.073 47.4V46.29C136.953 46.25 136.813 46.22 136.653 46.2C136.503 46.18 136.368 46.17 136.248 46.17C135.548 46.17 135.013 46.335 134.643 46.665C134.283 46.985 134.103 47.46 134.103 48.09V49.245H132.798V50.37H134.103ZM145.887 56.97C145.667 57.1 145.362 57.165 144.972 57.165C144.642 57.165 144.377 57.075 144.177 56.895C143.987 56.705 143.892 56.4 143.892 55.98C143.542 56.4 143.132 56.705 142.662 56.895C142.202 57.075 141.702 57.165 141.162 57.165C140.812 57.165 140.477 57.125 140.157 57.045C139.847 56.965 139.577 56.84 139.347 56.67C139.117 56.5 138.932 56.28 138.792 56.01C138.662 55.73 138.597 55.395 138.597 55.005C138.597 54.565 138.672 54.205 138.822 53.925C138.972 53.645 139.167 53.42 139.407 53.25C139.657 53.07 139.937 52.935 140.247 52.845C140.567 52.755 140.892 52.68 141.222 52.62C141.572 52.55 141.902 52.5 142.212 52.47C142.532 52.43 142.812 52.38 143.052 52.32C143.292 52.25 143.482 52.155 143.622 52.035C143.762 51.905 143.832 51.72 143.832 51.48C143.832 51.2 143.777 50.975 143.667 50.805C143.567 50.635 143.432 50.505 143.262 50.415C143.102 50.325 142.917 50.265 142.707 50.235C142.507 50.205 142.307 50.19 142.107 50.19C141.567 50.19 141.117 50.295 140.757 50.505C140.397 50.705 140.202 51.09 140.172 51.66H138.897C138.917 51.18 139.017 50.775 139.197 50.445C139.377 50.115 139.617 49.85 139.917 49.65C140.217 49.44 140.557 49.29 140.937 49.2C141.327 49.11 141.742 49.065 142.182 49.065C142.532 49.065 142.877 49.09 143.217 49.14C143.567 49.19 143.882 49.295 144.162 49.455C144.442 49.605 144.667 49.82 144.837 50.1C145.007 50.38 145.092 50.745 145.092 51.195V55.185C145.092 55.485 145.107 55.705 145.137 55.845C145.177 55.985 145.297 56.055 145.497 56.055C145.607 56.055 145.737 56.03 145.887 55.98V56.97ZM143.817 52.995C143.657 53.115 143.447 53.205 143.187 53.265C142.927 53.315 142.652 53.36 142.362 53.4C142.082 53.43 141.797 53.47 141.507 53.52C141.217 53.56 140.957 53.63 140.727 53.73C140.497 53.83 140.307 53.975 140.157 54.165C140.017 54.345 139.947 54.595 139.947 54.915C139.947 55.125 139.987 55.305 140.067 55.455C140.157 55.595 140.267 55.71 140.397 55.8C140.537 55.89 140.697 55.955 140.877 55.995C141.057 56.035 141.247 56.055 141.447 56.055C141.867 56.055 142.227 56 142.527 55.89C142.827 55.77 143.072 55.625 143.262 55.455C143.452 55.275 143.592 55.085 143.682 54.885C143.772 54.675 143.817 54.48 143.817 54.3V52.995ZM154.493 57V49.245H153.218V53.625C153.218 53.975 153.168 54.3 153.068 54.6C152.978 54.89 152.838 55.145 152.648 55.365C152.458 55.585 152.218 55.755 151.928 55.875C151.648 55.995 151.313 56.055 150.923 56.055C150.433 56.055 150.048 55.915 149.768 55.635C149.488 55.355 149.348 54.975 149.348 54.495V49.245H148.073V54.345C148.073 54.765 148.113 55.15 148.193 55.5C148.283 55.84 148.433 56.135 148.643 56.385C148.853 56.635 149.128 56.83 149.468 56.97C149.808 57.1 150.233 57.165 150.743 57.165C151.313 57.165 151.808 57.055 152.228 56.835C152.648 56.605 152.993 56.25 153.263 55.77H153.293V57H154.493ZM157.483 46.29V57H158.758V46.29H157.483ZM163.503 49.245V46.92H162.228V49.245H160.908V50.37H162.228V55.305C162.228 55.665 162.263 55.955 162.333 56.175C162.403 56.395 162.508 56.565 162.648 56.685C162.798 56.805 162.988 56.89 163.218 56.94C163.458 56.98 163.743 57 164.073 57H165.048V55.875H164.463C164.263 55.875 164.098 55.87 163.968 55.86C163.848 55.84 163.753 55.805 163.683 55.755C163.613 55.705 163.563 55.635 163.533 55.545C163.513 55.455 163.503 55.335 163.503 55.185V50.37H165.048V49.245H163.503ZM173.165 50.37V57H174.44V50.37H175.94V49.245H174.44V48.165C174.44 47.825 174.525 47.595 174.695 47.475C174.865 47.355 175.105 47.295 175.415 47.295C175.525 47.295 175.645 47.305 175.775 47.325C175.905 47.335 176.025 47.36 176.135 47.4V46.29C176.015 46.25 175.875 46.22 175.715 46.2C175.565 46.18 175.43 46.17 175.31 46.17C174.61 46.17 174.075 46.335 173.705 46.665C173.345 46.985 173.165 47.46 173.165 48.09V49.245H171.86V50.37H173.165ZM179.008 53.13C179.008 52.66 179.068 52.245 179.188 51.885C179.318 51.515 179.493 51.205 179.713 50.955C179.933 50.705 180.188 50.515 180.478 50.385C180.778 50.255 181.093 50.19 181.423 50.19C181.753 50.19 182.063 50.255 182.353 50.385C182.653 50.515 182.913 50.705 183.133 50.955C183.353 51.205 183.523 51.515 183.643 51.885C183.773 52.245 183.838 52.66 183.838 53.13C183.838 53.6 183.773 54.02 183.643 54.39C183.523 54.75 183.353 55.055 183.133 55.305C182.913 55.545 182.653 55.73 182.353 55.86C182.063 55.99 181.753 56.055 181.423 56.055C181.093 56.055 180.778 55.99 180.478 55.86C180.188 55.73 179.933 55.545 179.713 55.305C179.493 55.055 179.318 54.75 179.188 54.39C179.068 54.02 179.008 53.6 179.008 53.13ZM177.658 53.13C177.658 53.7 177.738 54.23 177.898 54.72C178.058 55.21 178.298 55.64 178.618 56.01C178.938 56.37 179.333 56.655 179.803 56.865C180.273 57.065 180.813 57.165 181.423 57.165C182.043 57.165 182.583 57.065 183.043 56.865C183.513 56.655 183.908 56.37 184.228 56.01C184.548 55.64 184.788 55.21 184.948 54.72C185.108 54.23 185.188 53.7 185.188 53.13C185.188 52.56 185.108 52.03 184.948 51.54C184.788 51.04 184.548 50.61 184.228 50.25C183.908 49.88 183.513 49.59 183.043 49.38C182.583 49.17 182.043 49.065 181.423 49.065C180.813 49.065 180.273 49.17 179.803 49.38C179.333 49.59 178.938 49.88 178.618 50.25C178.298 50.61 178.058 51.04 177.898 51.54C177.738 52.03 177.658 52.56 177.658 53.13ZM187.646 49.245V57H188.921V53.55C188.921 53.05 188.971 52.61 189.071 52.23C189.171 51.84 189.331 51.51 189.551 51.24C189.771 50.97 190.061 50.765 190.421 50.625C190.781 50.485 191.216 50.415 191.726 50.415V49.065C191.036 49.045 190.466 49.185 190.016 49.485C189.566 49.785 189.186 50.25 188.876 50.88H188.846V49.245H187.646ZM206.541 57L209.016 49.245H207.696L205.956 55.59H205.926L204.306 49.245H202.911L201.351 55.59H201.321L199.566 49.245H198.156L200.646 57H202.026L203.586 50.835H203.616L205.191 57H206.541ZM216.614 52.38H212.159C212.179 52.08 212.244 51.8 212.354 51.54C212.464 51.27 212.614 51.035 212.804 50.835C212.994 50.635 213.219 50.48 213.479 50.37C213.749 50.25 214.049 50.19 214.379 50.19C214.699 50.19 214.989 50.25 215.249 50.37C215.519 50.48 215.749 50.635 215.939 50.835C216.139 51.025 216.294 51.255 216.404 51.525C216.524 51.795 216.594 52.08 216.614 52.38ZM217.844 54.54H216.584C216.474 55.05 216.244 55.43 215.894 55.68C215.554 55.93 215.114 56.055 214.574 56.055C214.154 56.055 213.789 55.985 213.479 55.845C213.169 55.705 212.914 55.52 212.714 55.29C212.514 55.05 212.369 54.78 212.279 54.48C212.189 54.17 212.149 53.845 212.159 53.505H217.964C217.984 53.035 217.939 52.54 217.829 52.02C217.729 51.5 217.539 51.02 217.259 50.58C216.989 50.14 216.624 49.78 216.164 49.5C215.714 49.21 215.144 49.065 214.454 49.065C213.924 49.065 213.434 49.165 212.984 49.365C212.544 49.565 212.159 49.845 211.829 50.205C211.509 50.565 211.259 50.99 211.079 51.48C210.899 51.97 210.809 52.51 210.809 53.1C210.829 53.69 210.914 54.235 211.064 54.735C211.224 55.235 211.459 55.665 211.769 56.025C212.079 56.385 212.459 56.665 212.909 56.865C213.369 57.065 213.909 57.165 214.529 57.165C215.409 57.165 216.139 56.945 216.719 56.505C217.299 56.065 217.674 55.41 217.844 54.54ZM220.33 46.29V57H221.605V55.965H221.635C221.775 56.195 221.945 56.39 222.145 56.55C222.355 56.7 222.575 56.82 222.805 56.91C223.035 57 223.265 57.065 223.495 57.105C223.735 57.145 223.95 57.165 224.14 57.165C224.73 57.165 225.245 57.06 225.685 56.85C226.135 56.64 226.505 56.355 226.795 55.995C227.095 55.625 227.315 55.195 227.455 54.705C227.605 54.215 227.68 53.695 227.68 53.145C227.68 52.595 227.605 52.075 227.455 51.585C227.305 51.095 227.08 50.665 226.78 50.295C226.49 49.915 226.12 49.615 225.67 49.395C225.23 49.175 224.71 49.065 224.11 49.065C223.57 49.065 223.075 49.165 222.625 49.365C222.175 49.555 221.845 49.865 221.635 50.295H221.605V46.29H220.33ZM226.33 53.055C226.33 53.435 226.29 53.805 226.21 54.165C226.13 54.525 226 54.845 225.82 55.125C225.64 55.405 225.4 55.63 225.1 55.8C224.81 55.97 224.445 56.055 224.005 56.055C223.565 56.055 223.19 55.975 222.88 55.815C222.57 55.645 222.315 55.425 222.115 55.155C221.925 54.885 221.785 54.575 221.695 54.225C221.605 53.865 221.56 53.495 221.56 53.115C221.56 52.755 221.6 52.4 221.68 52.05C221.77 51.7 221.91 51.39 222.1 51.12C222.29 50.84 222.535 50.615 222.835 50.445C223.135 50.275 223.5 50.19 223.93 50.19C224.34 50.19 224.695 50.27 224.995 50.43C225.305 50.59 225.555 50.805 225.745 51.075C225.945 51.345 226.09 51.655 226.18 52.005C226.28 52.345 226.33 52.695 226.33 53.055ZM235.397 46.29V57H236.672V55.965H236.702C236.842 56.195 237.012 56.39 237.212 56.55C237.422 56.7 237.642 56.82 237.872 56.91C238.102 57 238.332 57.065 238.562 57.105C238.802 57.145 239.017 57.165 239.207 57.165C239.797 57.165 240.312 57.06 240.752 56.85C241.202 56.64 241.572 56.355 241.862 55.995C242.162 55.625 242.382 55.195 242.522 54.705C242.672 54.215 242.747 53.695 242.747 53.145C242.747 52.595 242.672 52.075 242.522 51.585C242.372 51.095 242.147 50.665 241.847 50.295C241.557 49.915 241.187 49.615 240.737 49.395C240.297 49.175 239.777 49.065 239.177 49.065C238.637 49.065 238.142 49.165 237.692 49.365C237.242 49.555 236.912 49.865 236.702 50.295H236.672V46.29H235.397ZM241.397 53.055C241.397 53.435 241.357 53.805 241.277 54.165C241.197 54.525 241.067 54.845 240.887 55.125C240.707 55.405 240.467 55.63 240.167 55.8C239.877 55.97 239.512 56.055 239.072 56.055C238.632 56.055 238.257 55.975 237.947 55.815C237.637 55.645 237.382 55.425 237.182 55.155C236.992 54.885 236.852 54.575 236.762 54.225C236.672 53.865 236.627 53.495 236.627 53.115C236.627 52.755 236.667 52.4 236.747 52.05C236.837 51.7 236.977 51.39 237.167 51.12C237.357 50.84 237.602 50.615 237.902 50.445C238.202 50.275 238.567 50.19 238.997 50.19C239.407 50.19 239.762 50.27 240.062 50.43C240.372 50.59 240.622 50.805 240.812 51.075C241.012 51.345 241.157 51.655 241.247 52.005C241.347 52.345 241.397 52.695 241.397 53.055ZM251.663 57V49.245H250.388V53.625C250.388 53.975 250.338 54.3 250.238 54.6C250.148 54.89 250.008 55.145 249.818 55.365C249.628 55.585 249.388 55.755 249.098 55.875C248.818 55.995 248.483 56.055 248.093 56.055C247.603 56.055 247.218 55.915 246.938 55.635C246.658 55.355 246.518 54.975 246.518 54.495V49.245H245.243V54.345C245.243 54.765 245.283 55.15 245.363 55.5C245.453 55.84 245.603 56.135 245.813 56.385C246.023 56.635 246.298 56.83 246.638 56.97C246.978 57.1 247.403 57.165 247.913 57.165C248.483 57.165 248.978 57.055 249.398 56.835C249.818 56.605 250.163 56.25 250.433 55.77H250.463V57H251.663ZM256.348 49.245V46.92H255.073V49.245H253.753V50.37H255.073V55.305C255.073 55.665 255.108 55.955 255.178 56.175C255.248 56.395 255.353 56.565 255.493 56.685C255.643 56.805 255.833 56.89 256.063 56.94C256.303 56.98 256.588 57 256.918 57H257.893V55.875H257.308C257.108 55.875 256.943 55.87 256.813 55.86C256.693 55.84 256.598 55.805 256.528 55.755C256.458 55.705 256.408 55.635 256.378 55.545C256.358 55.455 256.348 55.335 256.348 55.185V50.37H257.893V49.245H256.348ZM262.08 49.245V46.92H260.805V49.245H259.485V50.37H260.805V55.305C260.805 55.665 260.84 55.955 260.91 56.175C260.98 56.395 261.085 56.565 261.225 56.685C261.375 56.805 261.565 56.89 261.795 56.94C262.035 56.98 262.32 57 262.65 57H263.625V55.875H263.04C262.84 55.875 262.675 55.87 262.545 55.86C262.425 55.84 262.33 55.805 262.26 55.755C262.19 55.705 262.14 55.635 262.11 55.545C262.09 55.455 262.08 55.335 262.08 55.185V50.37H263.625V49.245H262.08ZM266.971 53.13C266.971 52.66 267.031 52.245 267.151 51.885C267.281 51.515 267.456 51.205 267.676 50.955C267.896 50.705 268.151 50.515 268.441 50.385C268.741 50.255 269.056 50.19 269.386 50.19C269.716 50.19 270.026 50.255 270.316 50.385C270.616 50.515 270.876 50.705 271.096 50.955C271.316 51.205 271.486 51.515 271.606 51.885C271.736 52.245 271.801 52.66 271.801 53.13C271.801 53.6 271.736 54.02 271.606 54.39C271.486 54.75 271.316 55.055 271.096 55.305C270.876 55.545 270.616 55.73 270.316 55.86C270.026 55.99 269.716 56.055 269.386 56.055C269.056 56.055 268.741 55.99 268.441 55.86C268.151 55.73 267.896 55.545 267.676 55.305C267.456 55.055 267.281 54.75 267.151 54.39C267.031 54.02 266.971 53.6 266.971 53.13ZM265.621 53.13C265.621 53.7 265.701 54.23 265.861 54.72C266.021 55.21 266.261 55.64 266.581 56.01C266.901 56.37 267.296 56.655 267.766 56.865C268.236 57.065 268.776 57.165 269.386 57.165C270.006 57.165 270.546 57.065 271.006 56.865C271.476 56.655 271.871 56.37 272.191 56.01C272.511 55.64 272.751 55.21 272.911 54.72C273.071 54.23 273.151 53.7 273.151 53.13C273.151 52.56 273.071 52.03 272.911 51.54C272.751 51.04 272.511 50.61 272.191 50.25C271.871 49.88 271.476 49.59 271.006 49.38C270.546 49.17 270.006 49.065 269.386 49.065C268.776 49.065 268.236 49.17 267.766 49.38C267.296 49.59 266.901 49.88 266.581 50.25C266.261 50.61 266.021 51.04 265.861 51.54C265.701 52.03 265.621 52.56 265.621 53.13ZM275.654 49.245V57H276.929V52.62C276.929 52.27 276.974 51.95 277.064 51.66C277.164 51.36 277.309 51.1 277.499 50.88C277.689 50.66 277.924 50.49 278.204 50.37C278.494 50.25 278.834 50.19 279.224 50.19C279.714 50.19 280.099 50.33 280.379 50.61C280.659 50.89 280.799 51.27 280.799 51.75V57H282.074V51.9C282.074 51.48 282.029 51.1 281.939 50.76C281.859 50.41 281.714 50.11 281.504 49.86C281.294 49.61 281.019 49.415 280.679 49.275C280.339 49.135 279.914 49.065 279.404 49.065C278.254 49.065 277.414 49.535 276.884 50.475H276.854V49.245H275.654ZM291.514 47.85V46.29H290.239V47.85H291.514ZM290.239 49.245V57H291.514V49.245H290.239ZM299.754 51.735H301.074C301.024 51.275 300.904 50.88 300.714 50.55C300.524 50.21 300.279 49.93 299.979 49.71C299.689 49.49 299.349 49.33 298.959 49.23C298.579 49.12 298.169 49.065 297.729 49.065C297.119 49.065 296.584 49.175 296.124 49.395C295.664 49.605 295.279 49.9 294.969 50.28C294.669 50.65 294.444 51.09 294.294 51.6C294.144 52.1 294.069 52.64 294.069 53.22C294.069 53.8 294.144 54.335 294.294 54.825C294.454 55.305 294.684 55.72 294.984 56.07C295.294 56.42 295.674 56.69 296.124 56.88C296.584 57.07 297.109 57.165 297.699 57.165C298.689 57.165 299.469 56.905 300.039 56.385C300.619 55.865 300.979 55.125 301.119 54.165H299.814C299.734 54.765 299.514 55.23 299.154 55.56C298.804 55.89 298.314 56.055 297.684 56.055C297.284 56.055 296.939 55.975 296.649 55.815C296.359 55.655 296.124 55.445 295.944 55.185C295.764 54.915 295.629 54.61 295.539 54.27C295.459 53.93 295.419 53.58 295.419 53.22C295.419 52.83 295.459 52.455 295.539 52.095C295.619 51.725 295.749 51.4 295.929 51.12C296.119 50.84 296.369 50.615 296.679 50.445C296.989 50.275 297.374 50.19 297.834 50.19C298.374 50.19 298.804 50.325 299.124 50.595C299.444 50.865 299.654 51.245 299.754 51.735ZM304.476 53.13C304.476 52.66 304.536 52.245 304.656 51.885C304.786 51.515 304.961 51.205 305.181 50.955C305.401 50.705 305.656 50.515 305.946 50.385C306.246 50.255 306.561 50.19 306.891 50.19C307.221 50.19 307.531 50.255 307.821 50.385C308.121 50.515 308.381 50.705 308.601 50.955C308.821 51.205 308.991 51.515 309.111 51.885C309.241 52.245 309.306 52.66 309.306 53.13C309.306 53.6 309.241 54.02 309.111 54.39C308.991 54.75 308.821 55.055 308.601 55.305C308.381 55.545 308.121 55.73 307.821 55.86C307.531 55.99 307.221 56.055 306.891 56.055C306.561 56.055 306.246 55.99 305.946 55.86C305.656 55.73 305.401 55.545 305.181 55.305C304.961 55.055 304.786 54.75 304.656 54.39C304.536 54.02 304.476 53.6 304.476 53.13ZM303.126 53.13C303.126 53.7 303.206 54.23 303.366 54.72C303.526 55.21 303.766 55.64 304.086 56.01C304.406 56.37 304.801 56.655 305.271 56.865C305.741 57.065 306.281 57.165 306.891 57.165C307.511 57.165 308.051 57.065 308.511 56.865C308.981 56.655 309.376 56.37 309.696 56.01C310.016 55.64 310.256 55.21 310.416 54.72C310.576 54.23 310.656 53.7 310.656 53.13C310.656 52.56 310.576 52.03 310.416 51.54C310.256 51.04 310.016 50.61 309.696 50.25C309.376 49.88 308.981 49.59 308.511 49.38C308.051 49.17 307.511 49.065 306.891 49.065C306.281 49.065 305.741 49.17 305.271 49.38C304.801 49.59 304.406 49.88 304.086 50.25C303.766 50.61 303.526 51.04 303.366 51.54C303.206 52.03 303.126 52.56 303.126 53.13ZM313.159 49.245V57H314.434V52.62C314.434 52.27 314.479 51.95 314.569 51.66C314.669 51.36 314.814 51.1 315.004 50.88C315.194 50.66 315.429 50.49 315.709 50.37C315.999 50.25 316.339 50.19 316.729 50.19C317.219 50.19 317.604 50.33 317.884 50.61C318.164 50.89 318.304 51.27 318.304 51.75V57H319.579V51.9C319.579 51.48 319.534 51.1 319.444 50.76C319.364 50.41 319.219 50.11 319.009 49.86C318.799 49.61 318.524 49.415 318.184 49.275C317.844 49.135 317.419 49.065 316.909 49.065C315.759 49.065 314.919 49.535 314.389 50.475H314.359V49.245H313.159ZM323.274 54.555H321.999C322.019 55.035 322.119 55.445 322.299 55.785C322.479 56.115 322.719 56.385 323.019 56.595C323.319 56.795 323.664 56.94 324.054 57.03C324.444 57.12 324.854 57.165 325.284 57.165C325.674 57.165 326.064 57.125 326.454 57.045C326.854 56.975 327.209 56.845 327.519 56.655C327.839 56.465 328.094 56.215 328.284 55.905C328.484 55.595 328.584 55.205 328.584 54.735C328.584 54.365 328.509 54.055 328.359 53.805C328.219 53.555 328.029 53.35 327.789 53.19C327.559 53.02 327.289 52.885 326.979 52.785C326.679 52.685 326.369 52.6 326.049 52.53C325.749 52.46 325.449 52.395 325.149 52.335C324.849 52.265 324.579 52.185 324.339 52.095C324.099 51.995 323.899 51.875 323.739 51.735C323.589 51.585 323.514 51.4 323.514 51.18C323.514 50.98 323.564 50.82 323.664 50.7C323.764 50.57 323.894 50.47 324.054 50.4C324.214 50.32 324.389 50.265 324.579 50.235C324.779 50.205 324.974 50.19 325.164 50.19C325.374 50.19 325.579 50.215 325.779 50.265C325.989 50.305 326.179 50.375 326.349 50.475C326.519 50.575 326.659 50.71 326.769 50.88C326.879 51.04 326.944 51.245 326.964 51.495H328.239C328.209 51.025 328.109 50.635 327.939 50.325C327.769 50.005 327.539 49.755 327.249 49.575C326.969 49.385 326.644 49.255 326.274 49.185C325.904 49.105 325.499 49.065 325.059 49.065C324.719 49.065 324.374 49.11 324.024 49.2C323.684 49.28 323.374 49.41 323.094 49.59C322.824 49.76 322.599 49.985 322.419 50.265C322.249 50.545 322.164 50.88 322.164 51.27C322.164 51.77 322.289 52.16 322.539 52.44C322.789 52.72 323.099 52.94 323.469 53.1C323.849 53.25 324.259 53.37 324.699 53.46C325.139 53.54 325.544 53.635 325.914 53.745C326.294 53.845 326.609 53.98 326.859 54.15C327.109 54.32 327.234 54.57 327.234 54.9C327.234 55.14 327.174 55.34 327.054 55.5C326.934 55.65 326.779 55.765 326.589 55.845C326.409 55.925 326.209 55.98 325.989 56.01C325.769 56.04 325.559 56.055 325.359 56.055C325.099 56.055 324.844 56.03 324.594 55.98C324.354 55.93 324.134 55.85 323.934 55.74C323.744 55.62 323.589 55.465 323.469 55.275C323.349 55.075 323.284 54.835 323.274 54.555Z" fill="#333333"/>
</svg>
