<svg width="384" height="104" viewBox="0 0 384 104" fill="none" xmlns="http://www.w3.org/2000/svg">
<path d="M0 8C0 3.58172 3.58172 0 8 0H376C380.418 0 384 3.58172 384 8V96C384 100.418 380.418 104 376 104H7.99999C3.58171 104 0 100.418 0 96V8Z" fill="#FCF8E3"/>
<path d="M50.077 51.646L52.7926 48.8135C52.9803 48.6177 53.2838 48.6177 53.4695 48.8135L53.9207 49.2842C54.1084 49.48 54.1084 49.7965 53.9207 49.9902L51.9979 52L53.9227 54.0077C54.1104 54.2035 54.1104 54.5201 53.9227 54.7138L53.4715 55.1865C53.2838 55.3823 52.9803 55.3823 52.7946 55.1865L50.079 52.3541C49.8894 52.1583 49.8894 51.8417 50.077 51.646Z" fill="#333333"/>
<g clip-path="url(#clip0)">
<path d="M116.392 25.268L111.91 32H115.078L117.94 27.554L120.748 32H124.114L119.632 25.286L123.754 19.148H120.658L118.048 23.252L115.528 19.148H112.252L116.392 25.268ZM125.14 25.988V28.184H130.558V25.988H125.14ZM134.864 27.734H132.128C132.116 28.526 132.26 29.21 132.56 29.786C132.86 30.362 133.262 30.836 133.766 31.208C134.282 31.58 134.87 31.85 135.53 32.018C136.202 32.198 136.892 32.288 137.6 32.288C138.476 32.288 139.244 32.186 139.904 31.982C140.576 31.778 141.134 31.496 141.578 31.136C142.034 30.764 142.376 30.326 142.604 29.822C142.832 29.318 142.946 28.772 142.946 28.184C142.946 27.464 142.79 26.876 142.478 26.42C142.178 25.952 141.818 25.58 141.398 25.304C140.978 25.028 140.552 24.83 140.12 24.71C139.7 24.578 139.37 24.488 139.13 24.44C138.326 24.236 137.672 24.068 137.168 23.936C136.676 23.804 136.286 23.672 135.998 23.54C135.722 23.408 135.536 23.264 135.44 23.108C135.344 22.952 135.296 22.748 135.296 22.496C135.296 22.22 135.356 21.992 135.476 21.812C135.596 21.632 135.746 21.482 135.926 21.362C136.118 21.242 136.328 21.158 136.556 21.11C136.784 21.062 137.012 21.038 137.24 21.038C137.588 21.038 137.906 21.068 138.194 21.128C138.494 21.188 138.758 21.29 138.986 21.434C139.214 21.578 139.394 21.776 139.526 22.028C139.67 22.28 139.754 22.598 139.778 22.982H142.514C142.514 22.238 142.37 21.608 142.082 21.092C141.806 20.564 141.428 20.132 140.948 19.796C140.468 19.46 139.916 19.22 139.292 19.076C138.68 18.92 138.038 18.842 137.366 18.842C136.79 18.842 136.214 18.92 135.638 19.076C135.062 19.232 134.546 19.472 134.09 19.796C133.634 20.12 133.262 20.528 132.974 21.02C132.698 21.5 132.56 22.07 132.56 22.73C132.56 23.318 132.668 23.822 132.884 24.242C133.112 24.65 133.406 24.992 133.766 25.268C134.126 25.544 134.534 25.772 134.99 25.952C135.446 26.12 135.914 26.264 136.394 26.384C136.862 26.516 137.324 26.636 137.78 26.744C138.236 26.852 138.644 26.978 139.004 27.122C139.364 27.266 139.652 27.446 139.868 27.662C140.096 27.878 140.21 28.16 140.21 28.508C140.21 28.832 140.126 29.102 139.958 29.318C139.79 29.522 139.58 29.684 139.328 29.804C139.076 29.924 138.806 30.008 138.518 30.056C138.23 30.092 137.96 30.11 137.708 30.11C137.336 30.11 136.976 30.068 136.628 29.984C136.28 29.888 135.974 29.75 135.71 29.57C135.458 29.378 135.254 29.132 135.098 28.832C134.942 28.532 134.864 28.166 134.864 27.734ZM144.807 19.148V32H147.453V22.982H147.489L150.639 32H152.817L155.967 22.892H156.003V32H158.649V19.148H154.671L151.827 27.986H151.791L148.785 19.148H144.807ZM164.557 27.032L166.231 22.316H166.267L167.887 27.032H164.557ZM164.827 19.148L159.967 32H162.811L163.819 29.138H168.625L169.597 32H172.531L167.725 19.148H164.827ZM173.82 19.148V32H182.91V29.624H176.646V19.148H173.82ZM184.67 19.148V32H193.76V29.624H187.496V19.148H184.67ZM204.291 18.842L199.287 32.288H201.321L206.343 18.842H204.291ZM215.909 25.268L211.427 32H214.595L217.457 27.554L220.265 32H223.631L219.149 25.286L223.271 19.148H220.175L217.565 23.252L215.045 19.148H211.769L215.909 25.268ZM226.871 27.734H224.135C224.123 28.526 224.267 29.21 224.567 29.786C224.867 30.362 225.269 30.836 225.773 31.208C226.289 31.58 226.877 31.85 227.537 32.018C228.209 32.198 228.899 32.288 229.607 32.288C230.483 32.288 231.251 32.186 231.911 31.982C232.583 31.778 233.141 31.496 233.585 31.136C234.041 30.764 234.383 30.326 234.611 29.822C234.839 29.318 234.953 28.772 234.953 28.184C234.953 27.464 234.797 26.876 234.485 26.42C234.185 25.952 233.825 25.58 233.405 25.304C232.985 25.028 232.559 24.83 232.127 24.71C231.707 24.578 231.377 24.488 231.137 24.44C230.333 24.236 229.679 24.068 229.175 23.936C228.683 23.804 228.293 23.672 228.005 23.54C227.729 23.408 227.543 23.264 227.447 23.108C227.351 22.952 227.303 22.748 227.303 22.496C227.303 22.22 227.363 21.992 227.483 21.812C227.603 21.632 227.753 21.482 227.933 21.362C228.125 21.242 228.335 21.158 228.563 21.11C228.791 21.062 229.019 21.038 229.247 21.038C229.595 21.038 229.913 21.068 230.201 21.128C230.501 21.188 230.765 21.29 230.993 21.434C231.221 21.578 231.401 21.776 231.533 22.028C231.677 22.28 231.761 22.598 231.785 22.982H234.521C234.521 22.238 234.377 21.608 234.089 21.092C233.813 20.564 233.435 20.132 232.955 19.796C232.475 19.46 231.923 19.22 231.299 19.076C230.687 18.92 230.045 18.842 229.373 18.842C228.797 18.842 228.221 18.92 227.645 19.076C227.069 19.232 226.553 19.472 226.097 19.796C225.641 20.12 225.269 20.528 224.981 21.02C224.705 21.5 224.567 22.07 224.567 22.73C224.567 23.318 224.675 23.822 224.891 24.242C225.119 24.65 225.413 24.992 225.773 25.268C226.133 25.544 226.541 25.772 226.997 25.952C227.453 26.12 227.921 26.264 228.401 26.384C228.869 26.516 229.331 26.636 229.787 26.744C230.243 26.852 230.651 26.978 231.011 27.122C231.371 27.266 231.659 27.446 231.875 27.662C232.103 27.878 232.217 28.16 232.217 28.508C232.217 28.832 232.133 29.102 231.965 29.318C231.797 29.522 231.587 29.684 231.335 29.804C231.083 29.924 230.813 30.008 230.525 30.056C230.237 30.092 229.967 30.11 229.715 30.11C229.343 30.11 228.983 30.068 228.635 29.984C228.287 29.888 227.981 29.75 227.717 29.57C227.465 29.378 227.261 29.132 227.105 28.832C226.949 28.532 226.871 28.166 226.871 27.734Z" fill="#333333"/>
<path d="M114.595 55.8V47.49H116.995C117.655 47.49 118.21 47.585 118.66 47.775C119.11 47.955 119.475 48.225 119.755 48.585C120.045 48.935 120.25 49.365 120.37 49.875C120.5 50.375 120.565 50.945 120.565 51.585C120.565 52.245 120.495 52.81 120.355 53.28C120.225 53.74 120.055 54.125 119.845 54.435C119.635 54.745 119.395 54.99 119.125 55.17C118.865 55.35 118.6 55.49 118.33 55.59C118.06 55.68 117.805 55.74 117.565 55.77C117.325 55.79 117.125 55.8 116.965 55.8H114.595ZM113.17 46.29V57H116.845C117.735 57 118.505 56.875 119.155 56.625C119.805 56.375 120.34 56.015 120.76 55.545C121.18 55.065 121.49 54.48 121.69 53.79C121.89 53.09 121.99 52.29 121.99 51.39C121.99 49.67 121.545 48.39 120.655 47.55C119.765 46.71 118.495 46.29 116.845 46.29H113.17ZM129.907 52.38H125.452C125.472 52.08 125.537 51.8 125.647 51.54C125.757 51.27 125.907 51.035 126.097 50.835C126.287 50.635 126.512 50.48 126.772 50.37C127.042 50.25 127.342 50.19 127.672 50.19C127.992 50.19 128.282 50.25 128.542 50.37C128.812 50.48 129.042 50.635 129.232 50.835C129.432 51.025 129.587 51.255 129.697 51.525C129.817 51.795 129.887 52.08 129.907 52.38ZM131.137 54.54H129.877C129.767 55.05 129.537 55.43 129.187 55.68C128.847 55.93 128.407 56.055 127.867 56.055C127.447 56.055 127.082 55.985 126.772 55.845C126.462 55.705 126.207 55.52 126.007 55.29C125.807 55.05 125.662 54.78 125.572 54.48C125.482 54.17 125.442 53.845 125.452 53.505H131.257C131.277 53.035 131.232 52.54 131.122 52.02C131.022 51.5 130.832 51.02 130.552 50.58C130.282 50.14 129.917 49.78 129.457 49.5C129.007 49.21 128.437 49.065 127.747 49.065C127.217 49.065 126.727 49.165 126.277 49.365C125.837 49.565 125.452 49.845 125.122 50.205C124.802 50.565 124.552 50.99 124.372 51.48C124.192 51.97 124.102 52.51 124.102 53.1C124.122 53.69 124.207 54.235 124.357 54.735C124.517 55.235 124.752 55.665 125.062 56.025C125.372 56.385 125.752 56.665 126.202 56.865C126.662 57.065 127.202 57.165 127.822 57.165C128.702 57.165 129.432 56.945 130.012 56.505C130.592 56.065 130.967 55.41 131.137 54.54ZM134.103 50.37V57H135.378V50.37H136.878V49.245H135.378V48.165C135.378 47.825 135.463 47.595 135.633 47.475C135.803 47.355 136.043 47.295 136.353 47.295C136.463 47.295 136.583 47.305 136.713 47.325C136.843 47.335 136.963 47.36 137.073 47.4V46.29C136.953 46.25 136.813 46.22 136.653 46.2C136.503 46.18 136.368 46.17 136.248 46.17C135.548 46.17 135.013 46.335 134.643 46.665C134.283 46.985 134.103 47.46 134.103 48.09V49.245H132.798V50.37H134.103ZM145.887 56.97C145.667 57.1 145.362 57.165 144.972 57.165C144.642 57.165 144.377 57.075 144.177 56.895C143.987 56.705 143.892 56.4 143.892 55.98C143.542 56.4 143.132 56.705 142.662 56.895C142.202 57.075 141.702 57.165 141.162 57.165C140.812 57.165 140.477 57.125 140.157 57.045C139.847 56.965 139.577 56.84 139.347 56.67C139.117 56.5 138.932 56.28 138.792 56.01C138.662 55.73 138.597 55.395 138.597 55.005C138.597 54.565 138.672 54.205 138.822 53.925C138.972 53.645 139.167 53.42 139.407 53.25C139.657 53.07 139.937 52.935 140.247 52.845C140.567 52.755 140.892 52.68 141.222 52.62C141.572 52.55 141.902 52.5 142.212 52.47C142.532 52.43 142.812 52.38 143.052 52.32C143.292 52.25 143.482 52.155 143.622 52.035C143.762 51.905 143.832 51.72 143.832 51.48C143.832 51.2 143.777 50.975 143.667 50.805C143.567 50.635 143.432 50.505 143.262 50.415C143.102 50.325 142.917 50.265 142.707 50.235C142.507 50.205 142.307 50.19 142.107 50.19C141.567 50.19 141.117 50.295 140.757 50.505C140.397 50.705 140.202 51.09 140.172 51.66H138.897C138.917 51.18 139.017 50.775 139.197 50.445C139.377 50.115 139.617 49.85 139.917 49.65C140.217 49.44 140.557 49.29 140.937 49.2C141.327 49.11 141.742 49.065 142.182 49.065C142.532 49.065 142.877 49.09 143.217 49.14C143.567 49.19 143.882 49.295 144.162 49.455C144.442 49.605 144.667 49.82 144.837 50.1C145.007 50.38 145.092 50.745 145.092 51.195V55.185C145.092 55.485 145.107 55.705 145.137 55.845C145.177 55.985 145.297 56.055 145.497 56.055C145.607 56.055 145.737 56.03 145.887 55.98V56.97ZM143.817 52.995C143.657 53.115 143.447 53.205 143.187 53.265C142.927 53.315 142.652 53.36 142.362 53.4C142.082 53.43 141.797 53.47 141.507 53.52C141.217 53.56 140.957 53.63 140.727 53.73C140.497 53.83 140.307 53.975 140.157 54.165C140.017 54.345 139.947 54.595 139.947 54.915C139.947 55.125 139.987 55.305 140.067 55.455C140.157 55.595 140.267 55.71 140.397 55.8C140.537 55.89 140.697 55.955 140.877 55.995C141.057 56.035 141.247 56.055 141.447 56.055C141.867 56.055 142.227 56 142.527 55.89C142.827 55.77 143.072 55.625 143.262 55.455C143.452 55.275 143.592 55.085 143.682 54.885C143.772 54.675 143.817 54.48 143.817 54.3V52.995ZM154.493 57V49.245H153.218V53.625C153.218 53.975 153.168 54.3 153.068 54.6C152.978 54.89 152.838 55.145 152.648 55.365C152.458 55.585 152.218 55.755 151.928 55.875C151.648 55.995 151.313 56.055 150.923 56.055C150.433 56.055 150.048 55.915 149.768 55.635C149.488 55.355 149.348 54.975 149.348 54.495V49.245H148.073V54.345C148.073 54.765 148.113 55.15 148.193 55.5C148.283 55.84 148.433 56.135 148.643 56.385C148.853 56.635 149.128 56.83 149.468 56.97C149.808 57.1 150.233 57.165 150.743 57.165C151.313 57.165 151.808 57.055 152.228 56.835C152.648 56.605 152.993 56.25 153.263 55.77H153.293V57H154.493ZM157.483 46.29V57H158.758V46.29H157.483ZM163.503 49.245V46.92H162.228V49.245H160.908V50.37H162.228V55.305C162.228 55.665 162.263 55.955 162.333 56.175C162.403 56.395 162.508 56.565 162.648 56.685C162.798 56.805 162.988 56.89 163.218 56.94C163.458 56.98 163.743 57 164.073 57H165.048V55.875H164.463C164.263 55.875 164.098 55.87 163.968 55.86C163.848 55.84 163.753 55.805 163.683 55.755C163.613 55.705 163.563 55.635 163.533 55.545C163.513 55.455 163.503 55.335 163.503 55.185V50.37H165.048V49.245H163.503ZM173.165 50.37V57H174.44V50.37H175.94V49.245H174.44V48.165C174.44 47.825 174.525 47.595 174.695 47.475C174.865 47.355 175.105 47.295 175.415 47.295C175.525 47.295 175.645 47.305 175.775 47.325C175.905 47.335 176.025 47.36 176.135 47.4V46.29C176.015 46.25 175.875 46.22 175.715 46.2C175.565 46.18 175.43 46.17 175.31 46.17C174.61 46.17 174.075 46.335 173.705 46.665C173.345 46.985 173.165 47.46 173.165 48.09V49.245H171.86V50.37H173.165ZM179.008 53.13C179.008 52.66 179.068 52.245 179.188 51.885C179.318 51.515 179.493 51.205 179.713 50.955C179.933 50.705 180.188 50.515 180.478 50.385C180.778 50.255 181.093 50.19 181.423 50.19C181.753 50.19 182.063 50.255 182.353 50.385C182.653 50.515 182.913 50.705 183.133 50.955C183.353 51.205 183.523 51.515 183.643 51.885C183.773 52.245 183.838 52.66 183.838 53.13C183.838 53.6 183.773 54.02 183.643 54.39C183.523 54.75 183.353 55.055 183.133 55.305C182.913 55.545 182.653 55.73 182.353 55.86C182.063 55.99 181.753 56.055 181.423 56.055C181.093 56.055 180.778 55.99 180.478 55.86C180.188 55.73 179.933 55.545 179.713 55.305C179.493 55.055 179.318 54.75 179.188 54.39C179.068 54.02 179.008 53.6 179.008 53.13ZM177.658 53.13C177.658 53.7 177.738 54.23 177.898 54.72C178.058 55.21 178.298 55.64 178.618 56.01C178.938 56.37 179.333 56.655 179.803 56.865C180.273 57.065 180.813 57.165 181.423 57.165C182.043 57.165 182.583 57.065 183.043 56.865C183.513 56.655 183.908 56.37 184.228 56.01C184.548 55.64 184.788 55.21 184.948 54.72C185.108 54.23 185.188 53.7 185.188 53.13C185.188 52.56 185.108 52.03 184.948 51.54C184.788 51.04 184.548 50.61 184.228 50.25C183.908 49.88 183.513 49.59 183.043 49.38C182.583 49.17 182.043 49.065 181.423 49.065C180.813 49.065 180.273 49.17 179.803 49.38C179.333 49.59 178.938 49.88 178.618 50.25C178.298 50.61 178.058 51.04 177.898 51.54C177.738 52.03 177.658 52.56 177.658 53.13ZM187.646 49.245V57H188.921V53.55C188.921 53.05 188.971 52.61 189.071 52.23C189.171 51.84 189.331 51.51 189.551 51.24C189.771 50.97 190.061 50.765 190.421 50.625C190.781 50.485 191.216 50.415 191.726 50.415V49.065C191.036 49.045 190.466 49.185 190.016 49.485C189.566 49.785 189.186 50.25 188.876 50.88H188.846V49.245H187.646ZM199.641 54.555H198.366C198.386 55.035 198.486 55.445 198.666 55.785C198.846 56.115 199.086 56.385 199.386 56.595C199.686 56.795 200.031 56.94 200.421 57.03C200.811 57.12 201.221 57.165 201.651 57.165C202.041 57.165 202.431 57.125 202.821 57.045C203.221 56.975 203.576 56.845 203.886 56.655C204.206 56.465 204.461 56.215 204.651 55.905C204.851 55.595 204.951 55.205 204.951 54.735C204.951 54.365 204.876 54.055 204.726 53.805C204.586 53.555 204.396 53.35 204.156 53.19C203.926 53.02 203.656 52.885 203.346 52.785C203.046 52.685 202.736 52.6 202.416 52.53C202.116 52.46 201.816 52.395 201.516 52.335C201.216 52.265 200.946 52.185 200.706 52.095C200.466 51.995 200.266 51.875 200.106 51.735C199.956 51.585 199.881 51.4 199.881 51.18C199.881 50.98 199.931 50.82 200.031 50.7C200.131 50.57 200.261 50.47 200.421 50.4C200.581 50.32 200.756 50.265 200.946 50.235C201.146 50.205 201.341 50.19 201.531 50.19C201.741 50.19 201.946 50.215 202.146 50.265C202.356 50.305 202.546 50.375 202.716 50.475C202.886 50.575 203.026 50.71 203.136 50.88C203.246 51.04 203.311 51.245 203.331 51.495H204.606C204.576 51.025 204.476 50.635 204.306 50.325C204.136 50.005 203.906 49.755 203.616 49.575C203.336 49.385 203.011 49.255 202.641 49.185C202.271 49.105 201.866 49.065 201.426 49.065C201.086 49.065 200.741 49.11 200.391 49.2C200.051 49.28 199.741 49.41 199.461 49.59C199.191 49.76 198.966 49.985 198.786 50.265C198.616 50.545 198.531 50.88 198.531 51.27C198.531 51.77 198.656 52.16 198.906 52.44C199.156 52.72 199.466 52.94 199.836 53.1C200.216 53.25 200.626 53.37 201.066 53.46C201.506 53.54 201.911 53.635 202.281 53.745C202.661 53.845 202.976 53.98 203.226 54.15C203.476 54.32 203.601 54.57 203.601 54.9C203.601 55.14 203.541 55.34 203.421 55.5C203.301 55.65 203.146 55.765 202.956 55.845C202.776 55.925 202.576 55.98 202.356 56.01C202.136 56.04 201.926 56.055 201.726 56.055C201.466 56.055 201.211 56.03 200.961 55.98C200.721 55.93 200.501 55.85 200.301 55.74C200.111 55.62 199.956 55.465 199.836 55.275C199.716 55.075 199.651 54.835 199.641 54.555ZM207.361 49.245V57H208.636V52.17C208.636 52.02 208.671 51.835 208.741 51.615C208.821 51.385 208.941 51.165 209.101 50.955C209.271 50.745 209.486 50.565 209.746 50.415C210.016 50.265 210.336 50.19 210.706 50.19C210.996 50.19 211.231 50.235 211.411 50.325C211.601 50.405 211.751 50.525 211.861 50.685C211.971 50.835 212.046 51.015 212.086 51.225C212.136 51.435 212.161 51.665 212.161 51.915V57H213.436V52.17C213.436 51.57 213.616 51.09 213.976 50.73C214.336 50.37 214.831 50.19 215.461 50.19C215.771 50.19 216.021 50.235 216.211 50.325C216.411 50.415 216.566 50.54 216.676 50.7C216.786 50.85 216.861 51.03 216.901 51.24C216.941 51.45 216.961 51.675 216.961 51.915V57H218.236V51.315C218.236 50.915 218.171 50.575 218.041 50.295C217.921 50.005 217.746 49.77 217.516 49.59C217.296 49.41 217.026 49.28 216.706 49.2C216.396 49.11 216.046 49.065 215.656 49.065C215.146 49.065 214.676 49.18 214.246 49.41C213.826 49.64 213.486 49.965 213.226 50.385C213.066 49.905 212.791 49.565 212.401 49.365C212.011 49.165 211.576 49.065 211.096 49.065C210.006 49.065 209.171 49.505 208.591 50.385H208.561V49.245H207.361ZM228.019 56.97C227.799 57.1 227.494 57.165 227.104 57.165C226.774 57.165 226.509 57.075 226.309 56.895C226.119 56.705 226.024 56.4 226.024 55.98C225.674 56.4 225.264 56.705 224.794 56.895C224.334 57.075 223.834 57.165 223.294 57.165C222.944 57.165 222.609 57.125 222.289 57.045C221.979 56.965 221.709 56.84 221.479 56.67C221.249 56.5 221.064 56.28 220.924 56.01C220.794 55.73 220.729 55.395 220.729 55.005C220.729 54.565 220.804 54.205 220.954 53.925C221.104 53.645 221.299 53.42 221.539 53.25C221.789 53.07 222.069 52.935 222.379 52.845C222.699 52.755 223.024 52.68 223.354 52.62C223.704 52.55 224.034 52.5 224.344 52.47C224.664 52.43 224.944 52.38 225.184 52.32C225.424 52.25 225.614 52.155 225.754 52.035C225.894 51.905 225.964 51.72 225.964 51.48C225.964 51.2 225.909 50.975 225.799 50.805C225.699 50.635 225.564 50.505 225.394 50.415C225.234 50.325 225.049 50.265 224.839 50.235C224.639 50.205 224.439 50.19 224.239 50.19C223.699 50.19 223.249 50.295 222.889 50.505C222.529 50.705 222.334 51.09 222.304 51.66H221.029C221.049 51.18 221.149 50.775 221.329 50.445C221.509 50.115 221.749 49.85 222.049 49.65C222.349 49.44 222.689 49.29 223.069 49.2C223.459 49.11 223.874 49.065 224.314 49.065C224.664 49.065 225.009 49.09 225.349 49.14C225.699 49.19 226.014 49.295 226.294 49.455C226.574 49.605 226.799 49.82 226.969 50.1C227.139 50.38 227.224 50.745 227.224 51.195V55.185C227.224 55.485 227.239 55.705 227.269 55.845C227.309 55.985 227.429 56.055 227.629 56.055C227.739 56.055 227.869 56.03 228.019 55.98V56.97ZM225.949 52.995C225.789 53.115 225.579 53.205 225.319 53.265C225.059 53.315 224.784 53.36 224.494 53.4C224.214 53.43 223.929 53.47 223.639 53.52C223.349 53.56 223.089 53.63 222.859 53.73C222.629 53.83 222.439 53.975 222.289 54.165C222.149 54.345 222.079 54.595 222.079 54.915C222.079 55.125 222.119 55.305 222.199 55.455C222.289 55.595 222.399 55.71 222.529 55.8C222.669 55.89 222.829 55.955 223.009 55.995C223.189 56.035 223.379 56.055 223.579 56.055C223.999 56.055 224.359 56 224.659 55.89C224.959 55.77 225.204 55.625 225.394 55.455C225.584 55.275 225.724 55.085 225.814 54.885C225.904 54.675 225.949 54.48 225.949 54.3V52.995ZM230.281 46.29V57H231.556V46.29H230.281ZM234.606 46.29V57H235.881V46.29H234.606ZM244.076 46.29V57H245.351V55.965H245.381C245.521 56.195 245.691 56.39 245.891 56.55C246.101 56.7 246.321 56.82 246.551 56.91C246.781 57 247.011 57.065 247.241 57.105C247.481 57.145 247.696 57.165 247.886 57.165C248.476 57.165 248.991 57.06 249.431 56.85C249.881 56.64 250.251 56.355 250.541 55.995C250.841 55.625 251.061 55.195 251.201 54.705C251.351 54.215 251.426 53.695 251.426 53.145C251.426 52.595 251.351 52.075 251.201 51.585C251.051 51.095 250.826 50.665 250.526 50.295C250.236 49.915 249.866 49.615 249.416 49.395C248.976 49.175 248.456 49.065 247.856 49.065C247.316 49.065 246.821 49.165 246.371 49.365C245.921 49.555 245.591 49.865 245.381 50.295H245.351V46.29H244.076ZM250.076 53.055C250.076 53.435 250.036 53.805 249.956 54.165C249.876 54.525 249.746 54.845 249.566 55.125C249.386 55.405 249.146 55.63 248.846 55.8C248.556 55.97 248.191 56.055 247.751 56.055C247.311 56.055 246.936 55.975 246.626 55.815C246.316 55.645 246.061 55.425 245.861 55.155C245.671 54.885 245.531 54.575 245.441 54.225C245.351 53.865 245.306 53.495 245.306 53.115C245.306 52.755 245.346 52.4 245.426 52.05C245.516 51.7 245.656 51.39 245.846 51.12C246.036 50.84 246.281 50.615 246.581 50.445C246.881 50.275 247.246 50.19 247.676 50.19C248.086 50.19 248.441 50.27 248.741 50.43C249.051 50.59 249.301 50.805 249.491 51.075C249.691 51.345 249.836 51.655 249.926 52.005C250.026 52.345 250.076 52.695 250.076 53.055ZM260.343 57V49.245H259.068V53.625C259.068 53.975 259.018 54.3 258.918 54.6C258.828 54.89 258.688 55.145 258.498 55.365C258.308 55.585 258.068 55.755 257.778 55.875C257.498 55.995 257.163 56.055 256.773 56.055C256.283 56.055 255.898 55.915 255.618 55.635C255.338 55.355 255.198 54.975 255.198 54.495V49.245H253.923V54.345C253.923 54.765 253.963 55.15 254.043 55.5C254.133 55.84 254.283 56.135 254.493 56.385C254.703 56.635 254.978 56.83 255.318 56.97C255.658 57.1 256.083 57.165 256.593 57.165C257.163 57.165 257.658 57.055 258.078 56.835C258.498 56.605 258.843 56.25 259.113 55.77H259.143V57H260.343ZM265.028 49.245V46.92H263.753V49.245H262.433V50.37H263.753V55.305C263.753 55.665 263.788 55.955 263.858 56.175C263.928 56.395 264.033 56.565 264.173 56.685C264.323 56.805 264.513 56.89 264.743 56.94C264.983 56.98 265.268 57 265.598 57H266.573V55.875H265.988C265.788 55.875 265.623 55.87 265.493 55.86C265.373 55.84 265.278 55.805 265.208 55.755C265.138 55.705 265.088 55.635 265.058 55.545C265.038 55.455 265.028 55.335 265.028 55.185V50.37H266.573V49.245H265.028ZM270.759 49.245V46.92H269.484V49.245H268.164V50.37H269.484V55.305C269.484 55.665 269.519 55.955 269.589 56.175C269.659 56.395 269.764 56.565 269.904 56.685C270.054 56.805 270.244 56.89 270.474 56.94C270.714 56.98 270.999 57 271.329 57H272.304V55.875H271.719C271.519 55.875 271.354 55.87 271.224 55.86C271.104 55.84 271.009 55.805 270.939 55.755C270.869 55.705 270.819 55.635 270.789 55.545C270.769 55.455 270.759 55.335 270.759 55.185V50.37H272.304V49.245H270.759ZM275.651 53.13C275.651 52.66 275.711 52.245 275.831 51.885C275.961 51.515 276.136 51.205 276.356 50.955C276.576 50.705 276.831 50.515 277.121 50.385C277.421 50.255 277.736 50.19 278.066 50.19C278.396 50.19 278.706 50.255 278.996 50.385C279.296 50.515 279.556 50.705 279.776 50.955C279.996 51.205 280.166 51.515 280.286 51.885C280.416 52.245 280.481 52.66 280.481 53.13C280.481 53.6 280.416 54.02 280.286 54.39C280.166 54.75 279.996 55.055 279.776 55.305C279.556 55.545 279.296 55.73 278.996 55.86C278.706 55.99 278.396 56.055 278.066 56.055C277.736 56.055 277.421 55.99 277.121 55.86C276.831 55.73 276.576 55.545 276.356 55.305C276.136 55.055 275.961 54.75 275.831 54.39C275.711 54.02 275.651 53.6 275.651 53.13ZM274.301 53.13C274.301 53.7 274.381 54.23 274.541 54.72C274.701 55.21 274.941 55.64 275.261 56.01C275.581 56.37 275.976 56.655 276.446 56.865C276.916 57.065 277.456 57.165 278.066 57.165C278.686 57.165 279.226 57.065 279.686 56.865C280.156 56.655 280.551 56.37 280.871 56.01C281.191 55.64 281.431 55.21 281.591 54.72C281.751 54.23 281.831 53.7 281.831 53.13C281.831 52.56 281.751 52.03 281.591 51.54C281.431 51.04 281.191 50.61 280.871 50.25C280.551 49.88 280.156 49.59 279.686 49.38C279.226 49.17 278.686 49.065 278.066 49.065C277.456 49.065 276.916 49.17 276.446 49.38C275.976 49.59 275.581 49.88 275.261 50.25C274.941 50.61 274.701 51.04 274.541 51.54C274.381 52.03 274.301 52.56 274.301 53.13ZM284.334 49.245V57H285.609V52.62C285.609 52.27 285.654 51.95 285.744 51.66C285.844 51.36 285.989 51.1 286.179 50.88C286.369 50.66 286.604 50.49 286.884 50.37C287.174 50.25 287.514 50.19 287.904 50.19C288.394 50.19 288.779 50.33 289.059 50.61C289.339 50.89 289.479 51.27 289.479 51.75V57H290.754V51.9C290.754 51.48 290.709 51.1 290.619 50.76C290.539 50.41 290.394 50.11 290.184 49.86C289.974 49.61 289.699 49.415 289.359 49.275C289.019 49.135 288.594 49.065 288.084 49.065C286.934 49.065 286.094 49.535 285.564 50.475H285.534V49.245H284.334ZM294.449 54.555H293.174C293.194 55.035 293.294 55.445 293.474 55.785C293.654 56.115 293.894 56.385 294.194 56.595C294.494 56.795 294.839 56.94 295.229 57.03C295.619 57.12 296.029 57.165 296.459 57.165C296.849 57.165 297.239 57.125 297.629 57.045C298.029 56.975 298.384 56.845 298.694 56.655C299.014 56.465 299.269 56.215 299.459 55.905C299.659 55.595 299.759 55.205 299.759 54.735C299.759 54.365 299.684 54.055 299.534 53.805C299.394 53.555 299.204 53.35 298.964 53.19C298.734 53.02 298.464 52.885 298.154 52.785C297.854 52.685 297.544 52.6 297.224 52.53C296.924 52.46 296.624 52.395 296.324 52.335C296.024 52.265 295.754 52.185 295.514 52.095C295.274 51.995 295.074 51.875 294.914 51.735C294.764 51.585 294.689 51.4 294.689 51.18C294.689 50.98 294.739 50.82 294.839 50.7C294.939 50.57 295.069 50.47 295.229 50.4C295.389 50.32 295.564 50.265 295.754 50.235C295.954 50.205 296.149 50.19 296.339 50.19C296.549 50.19 296.754 50.215 296.954 50.265C297.164 50.305 297.354 50.375 297.524 50.475C297.694 50.575 297.834 50.71 297.944 50.88C298.054 51.04 298.119 51.245 298.139 51.495H299.414C299.384 51.025 299.284 50.635 299.114 50.325C298.944 50.005 298.714 49.755 298.424 49.575C298.144 49.385 297.819 49.255 297.449 49.185C297.079 49.105 296.674 49.065 296.234 49.065C295.894 49.065 295.549 49.11 295.199 49.2C294.859 49.28 294.549 49.41 294.269 49.59C293.999 49.76 293.774 49.985 293.594 50.265C293.424 50.545 293.339 50.88 293.339 51.27C293.339 51.77 293.464 52.16 293.714 52.44C293.964 52.72 294.274 52.94 294.644 53.1C295.024 53.25 295.434 53.37 295.874 53.46C296.314 53.54 296.719 53.635 297.089 53.745C297.469 53.845 297.784 53.98 298.034 54.15C298.284 54.32 298.409 54.57 298.409 54.9C298.409 55.14 298.349 55.34 298.229 55.5C298.109 55.65 297.954 55.765 297.764 55.845C297.584 55.925 297.384 55.98 297.164 56.01C296.944 56.04 296.734 56.055 296.534 56.055C296.274 56.055 296.019 56.03 295.769 55.98C295.529 55.93 295.309 55.85 295.109 55.74C294.919 55.62 294.764 55.465 294.644 55.275C294.524 55.075 294.459 54.835 294.449 54.555Z" fill="#333333"/>
</g>
<defs>
<clipPath id="clip0">
<rect width="256" height="48" fill="white" transform="translate(112 16)"/>
</clipPath>
</defs>
</svg>
