<svg width="384" height="104" viewBox="0 0 384 104" fill="none" xmlns="http://www.w3.org/2000/svg">
<path d="M0 8C0 3.58172 3.58172 0 8 0H376C380.418 0 384 3.58172 384 8V96C384 100.418 380.418 104 376 104H7.99999C3.58171 104 0 100.418 0 96V8Z" fill="#FCF8E3"/>
<path d="M44.3081 50.5838L55.1702 39.254C55.921 38.4709 57.135 38.4709 57.8778 39.254L59.6828 41.1367C60.4336 41.9198 60.4336 43.1861 59.6828 43.9609L51.9915 52L59.6908 60.0308C60.4416 60.8139 60.4416 62.0802 59.6908 62.8549L57.8858 64.746C57.135 65.5291 55.921 65.5291 55.1782 64.746L44.316 53.4162C43.5573 52.6331 43.5573 51.3669 44.3081 50.5838Z" fill="#333333"/>
<path d="M113.242 19.148V32H122.332V29.624H116.068V19.148H113.242ZM127.332 27.032L129.006 22.316H129.042L130.662 27.032H127.332ZM127.602 19.148L122.742 32H125.586L126.594 29.138H131.4L132.372 32H135.306L130.5 19.148H127.602ZM139.42 24.962V21.344H142.516C143.164 21.344 143.65 21.488 143.974 21.776C144.298 22.052 144.46 22.502 144.46 23.126C144.46 23.774 144.298 24.242 143.974 24.53C143.65 24.818 143.164 24.962 142.516 24.962H139.42ZM136.594 19.148V32H139.42V26.978H142.246C142.954 26.978 143.464 27.134 143.776 27.446C144.088 27.758 144.292 28.25 144.388 28.922C144.46 29.438 144.514 29.978 144.55 30.542C144.586 31.106 144.682 31.592 144.838 32H147.664C147.532 31.82 147.43 31.604 147.358 31.352C147.298 31.088 147.25 30.812 147.214 30.524C147.19 30.236 147.172 29.954 147.16 29.678C147.148 29.402 147.136 29.162 147.124 28.958C147.1 28.634 147.052 28.31 146.98 27.986C146.92 27.662 146.818 27.368 146.674 27.104C146.53 26.828 146.344 26.594 146.116 26.402C145.888 26.198 145.6 26.048 145.252 25.952V25.916C145.972 25.628 146.488 25.208 146.8 24.656C147.124 24.104 147.286 23.45 147.286 22.694C147.286 22.202 147.196 21.746 147.016 21.326C146.848 20.894 146.596 20.516 146.26 20.192C145.936 19.868 145.54 19.616 145.072 19.436C144.616 19.244 144.1 19.148 143.524 19.148H136.594ZM159.052 30.542L159.34 32H161.14V25.052H155.74V27.158H158.584C158.5 28.058 158.2 28.748 157.684 29.228C157.18 29.696 156.46 29.93 155.524 29.93C154.888 29.93 154.348 29.81 153.904 29.57C153.46 29.318 153.1 28.988 152.824 28.58C152.548 28.172 152.344 27.716 152.212 27.212C152.092 26.696 152.032 26.168 152.032 25.628C152.032 25.064 152.092 24.518 152.212 23.99C152.344 23.462 152.548 22.994 152.824 22.586C153.1 22.166 153.46 21.836 153.904 21.596C154.348 21.344 154.888 21.218 155.524 21.218C156.208 21.218 156.79 21.398 157.27 21.758C157.75 22.118 158.074 22.658 158.242 23.378H160.942C160.87 22.646 160.672 21.998 160.348 21.434C160.024 20.87 159.61 20.396 159.106 20.012C158.614 19.628 158.056 19.34 157.432 19.148C156.82 18.944 156.184 18.842 155.524 18.842C154.54 18.842 153.652 19.016 152.86 19.364C152.08 19.712 151.42 20.192 150.88 20.804C150.34 21.416 149.926 22.136 149.638 22.964C149.35 23.78 149.206 24.668 149.206 25.628C149.206 26.564 149.35 27.44 149.638 28.256C149.926 29.06 150.34 29.762 150.88 30.362C151.42 30.962 152.08 31.436 152.86 31.784C153.652 32.12 154.54 32.288 155.524 32.288C156.148 32.288 156.766 32.162 157.378 31.91C157.99 31.646 158.548 31.19 159.052 30.542ZM163.603 19.148V32H173.359V29.624H166.429V26.474H172.657V24.278H166.429V21.524H173.215V19.148H163.603ZM184.226 18.842L179.222 32.288H181.256L186.278 18.842H184.226ZM192.694 19.148V32H201.784V29.624H195.52V19.148H192.694ZM212.832 30.542L213.12 32H214.92V25.052H209.52V27.158H212.364C212.28 28.058 211.98 28.748 211.464 29.228C210.96 29.696 210.24 29.93 209.304 29.93C208.668 29.93 208.128 29.81 207.684 29.57C207.24 29.318 206.88 28.988 206.604 28.58C206.328 28.172 206.124 27.716 205.992 27.212C205.872 26.696 205.812 26.168 205.812 25.628C205.812 25.064 205.872 24.518 205.992 23.99C206.124 23.462 206.328 22.994 206.604 22.586C206.88 22.166 207.24 21.836 207.684 21.596C208.128 21.344 208.668 21.218 209.304 21.218C209.988 21.218 210.57 21.398 211.05 21.758C211.53 22.118 211.854 22.658 212.022 23.378H214.722C214.65 22.646 214.452 21.998 214.128 21.434C213.804 20.87 213.39 20.396 212.886 20.012C212.394 19.628 211.836 19.34 211.212 19.148C210.6 18.944 209.964 18.842 209.304 18.842C208.32 18.842 207.432 19.016 206.64 19.364C205.86 19.712 205.2 20.192 204.66 20.804C204.12 21.416 203.706 22.136 203.418 22.964C203.13 23.78 202.986 24.668 202.986 25.628C202.986 26.564 203.13 27.44 203.418 28.256C203.706 29.06 204.12 29.762 204.66 30.362C205.2 30.962 205.86 31.436 206.64 31.784C207.432 32.12 208.32 32.288 209.304 32.288C209.928 32.288 210.546 32.162 211.158 31.91C211.77 31.646 212.328 31.19 212.832 30.542Z" fill="#333333"/>
<path d="M113.995 51.645C113.995 51.105 114.065 50.575 114.205 50.055C114.345 49.525 114.565 49.05 114.865 48.63C115.165 48.21 115.55 47.875 116.02 47.625C116.49 47.365 117.05 47.235 117.7 47.235C118.35 47.235 118.91 47.365 119.38 47.625C119.85 47.875 120.235 48.21 120.535 48.63C120.835 49.05 121.055 49.525 121.195 50.055C121.335 50.575 121.405 51.105 121.405 51.645C121.405 52.185 121.335 52.72 121.195 53.25C121.055 53.77 120.835 54.24 120.535 54.66C120.235 55.08 119.85 55.42 119.38 55.68C118.91 55.93 118.35 56.055 117.7 56.055C117.05 56.055 116.49 55.93 116.02 55.68C115.55 55.42 115.165 55.08 114.865 54.66C114.565 54.24 114.345 53.77 114.205 53.25C114.065 52.72 113.995 52.185 113.995 51.645ZM112.57 51.645C112.57 52.375 112.675 53.08 112.885 53.76C113.105 54.43 113.43 55.025 113.86 55.545C114.29 56.065 114.825 56.48 115.465 56.79C116.105 57.09 116.85 57.24 117.7 57.24C118.55 57.24 119.295 57.09 119.935 56.79C120.575 56.48 121.11 56.065 121.54 55.545C121.97 55.025 122.29 54.43 122.5 53.76C122.72 53.08 122.83 52.375 122.83 51.645C122.83 50.915 122.72 50.215 122.5 49.545C122.29 48.865 121.97 48.265 121.54 47.745C121.11 47.225 120.575 46.81 119.935 46.5C119.295 46.19 118.55 46.035 117.7 46.035C116.85 46.035 116.105 46.19 115.465 46.5C114.825 46.81 114.29 47.225 113.86 47.745C113.43 48.265 113.105 48.865 112.885 49.545C112.675 50.215 112.57 50.915 112.57 51.645ZM128.851 57L131.686 49.245H130.351L128.236 55.71H128.206L126.031 49.245H124.606L127.486 57H128.851ZM139.241 52.38H134.786C134.806 52.08 134.871 51.8 134.981 51.54C135.091 51.27 135.241 51.035 135.431 50.835C135.621 50.635 135.846 50.48 136.106 50.37C136.376 50.25 136.676 50.19 137.006 50.19C137.326 50.19 137.616 50.25 137.876 50.37C138.146 50.48 138.376 50.635 138.566 50.835C138.766 51.025 138.921 51.255 139.031 51.525C139.151 51.795 139.221 52.08 139.241 52.38ZM140.471 54.54H139.211C139.101 55.05 138.871 55.43 138.521 55.68C138.181 55.93 137.741 56.055 137.201 56.055C136.781 56.055 136.416 55.985 136.106 55.845C135.796 55.705 135.541 55.52 135.341 55.29C135.141 55.05 134.996 54.78 134.906 54.48C134.816 54.17 134.776 53.845 134.786 53.505H140.591C140.611 53.035 140.566 52.54 140.456 52.02C140.356 51.5 140.166 51.02 139.886 50.58C139.616 50.14 139.251 49.78 138.791 49.5C138.341 49.21 137.771 49.065 137.081 49.065C136.551 49.065 136.061 49.165 135.611 49.365C135.171 49.565 134.786 49.845 134.456 50.205C134.136 50.565 133.886 50.99 133.706 51.48C133.526 51.97 133.436 52.51 133.436 53.1C133.456 53.69 133.541 54.235 133.691 54.735C133.851 55.235 134.086 55.665 134.396 56.025C134.706 56.385 135.086 56.665 135.536 56.865C135.996 57.065 136.536 57.165 137.156 57.165C138.036 57.165 138.766 56.945 139.346 56.505C139.926 56.065 140.301 55.41 140.471 54.54ZM142.868 49.245V57H144.143V53.55C144.143 53.05 144.193 52.61 144.293 52.23C144.393 51.84 144.553 51.51 144.773 51.24C144.993 50.97 145.283 50.765 145.643 50.625C146.003 50.485 146.438 50.415 146.948 50.415V49.065C146.258 49.045 145.688 49.185 145.238 49.485C144.788 49.785 144.408 50.25 144.098 50.88H144.068V49.245H142.868ZM149.688 54.555H148.413C148.433 55.035 148.533 55.445 148.713 55.785C148.893 56.115 149.133 56.385 149.433 56.595C149.733 56.795 150.078 56.94 150.468 57.03C150.858 57.12 151.268 57.165 151.698 57.165C152.088 57.165 152.478 57.125 152.868 57.045C153.268 56.975 153.623 56.845 153.933 56.655C154.253 56.465 154.508 56.215 154.698 55.905C154.898 55.595 154.998 55.205 154.998 54.735C154.998 54.365 154.923 54.055 154.773 53.805C154.633 53.555 154.443 53.35 154.203 53.19C153.973 53.02 153.703 52.885 153.393 52.785C153.093 52.685 152.783 52.6 152.463 52.53C152.163 52.46 151.863 52.395 151.563 52.335C151.263 52.265 150.993 52.185 150.753 52.095C150.513 51.995 150.313 51.875 150.153 51.735C150.003 51.585 149.928 51.4 149.928 51.18C149.928 50.98 149.978 50.82 150.078 50.7C150.178 50.57 150.308 50.47 150.468 50.4C150.628 50.32 150.803 50.265 150.993 50.235C151.193 50.205 151.388 50.19 151.578 50.19C151.788 50.19 151.993 50.215 152.193 50.265C152.403 50.305 152.593 50.375 152.763 50.475C152.933 50.575 153.073 50.71 153.183 50.88C153.293 51.04 153.358 51.245 153.378 51.495H154.653C154.623 51.025 154.523 50.635 154.353 50.325C154.183 50.005 153.953 49.755 153.663 49.575C153.383 49.385 153.058 49.255 152.688 49.185C152.318 49.105 151.913 49.065 151.473 49.065C151.133 49.065 150.788 49.11 150.438 49.2C150.098 49.28 149.788 49.41 149.508 49.59C149.238 49.76 149.013 49.985 148.833 50.265C148.663 50.545 148.578 50.88 148.578 51.27C148.578 51.77 148.703 52.16 148.953 52.44C149.203 52.72 149.513 52.94 149.883 53.1C150.263 53.25 150.673 53.37 151.113 53.46C151.553 53.54 151.958 53.635 152.328 53.745C152.708 53.845 153.023 53.98 153.273 54.15C153.523 54.32 153.648 54.57 153.648 54.9C153.648 55.14 153.588 55.34 153.468 55.5C153.348 55.65 153.193 55.765 153.003 55.845C152.823 55.925 152.623 55.98 152.403 56.01C152.183 56.04 151.973 56.055 151.773 56.055C151.513 56.055 151.258 56.03 151.008 55.98C150.768 55.93 150.548 55.85 150.348 55.74C150.158 55.62 150.003 55.465 149.883 55.275C149.763 55.075 149.698 54.835 149.688 54.555ZM158.758 47.85V46.29H157.483V47.85H158.758ZM157.483 49.245V57H158.758V49.245H157.483ZM161.103 56.025V57H167.643V55.875H162.693L167.433 50.115V49.245H161.403V50.37H165.783L161.103 56.025ZM175.325 52.38H170.87C170.89 52.08 170.955 51.8 171.065 51.54C171.175 51.27 171.325 51.035 171.515 50.835C171.705 50.635 171.93 50.48 172.19 50.37C172.46 50.25 172.76 50.19 173.09 50.19C173.41 50.19 173.7 50.25 173.96 50.37C174.23 50.48 174.46 50.635 174.65 50.835C174.85 51.025 175.005 51.255 175.115 51.525C175.235 51.795 175.305 52.08 175.325 52.38ZM176.555 54.54H175.295C175.185 55.05 174.955 55.43 174.605 55.68C174.265 55.93 173.825 56.055 173.285 56.055C172.865 56.055 172.5 55.985 172.19 55.845C171.88 55.705 171.625 55.52 171.425 55.29C171.225 55.05 171.08 54.78 170.99 54.48C170.9 54.17 170.86 53.845 170.87 53.505H176.675C176.695 53.035 176.65 52.54 176.54 52.02C176.44 51.5 176.25 51.02 175.97 50.58C175.7 50.14 175.335 49.78 174.875 49.5C174.425 49.21 173.855 49.065 173.165 49.065C172.635 49.065 172.145 49.165 171.695 49.365C171.255 49.565 170.87 49.845 170.54 50.205C170.22 50.565 169.97 50.99 169.79 51.48C169.61 51.97 169.52 52.51 169.52 53.1C169.54 53.69 169.625 54.235 169.775 54.735C169.935 55.235 170.17 55.665 170.48 56.025C170.79 56.385 171.17 56.665 171.62 56.865C172.08 57.065 172.62 57.165 173.24 57.165C174.12 57.165 174.85 56.945 175.43 56.505C176.01 56.065 176.385 55.41 176.555 54.54ZM179.927 53.19C179.927 52.81 179.967 52.44 180.047 52.08C180.127 51.72 180.257 51.4 180.437 51.12C180.617 50.84 180.857 50.615 181.157 50.445C181.457 50.275 181.822 50.19 182.252 50.19C182.692 50.19 183.067 50.275 183.377 50.445C183.687 50.605 183.937 50.82 184.127 51.09C184.327 51.36 184.472 51.675 184.562 52.035C184.652 52.385 184.697 52.75 184.697 53.13C184.697 53.49 184.652 53.845 184.562 54.195C184.482 54.545 184.347 54.86 184.157 55.14C183.967 55.41 183.722 55.63 183.422 55.8C183.122 55.97 182.757 56.055 182.327 56.055C181.917 56.055 181.557 55.975 181.247 55.815C180.947 55.655 180.697 55.44 180.497 55.17C180.307 54.9 180.162 54.595 180.062 54.255C179.972 53.905 179.927 53.55 179.927 53.19ZM185.927 57V46.29H184.652V50.28H184.622C184.482 50.05 184.307 49.86 184.097 49.71C183.897 49.55 183.682 49.425 183.452 49.335C183.222 49.235 182.992 49.165 182.762 49.125C182.532 49.085 182.317 49.065 182.117 49.065C181.527 49.065 181.007 49.175 180.557 49.395C180.117 49.605 179.747 49.895 179.447 50.265C179.157 50.625 178.937 51.05 178.787 51.54C178.647 52.03 178.577 52.55 178.577 53.1C178.577 53.65 178.652 54.17 178.802 54.66C178.952 55.15 179.172 55.58 179.462 55.95C179.762 56.32 180.132 56.615 180.572 56.835C181.022 57.055 181.547 57.165 182.147 57.165C182.687 57.165 183.182 57.07 183.632 56.88C184.082 56.69 184.412 56.38 184.622 55.95H184.652V57H185.927ZM199.329 51.735H200.649C200.599 51.275 200.479 50.88 200.289 50.55C200.099 50.21 199.854 49.93 199.554 49.71C199.264 49.49 198.924 49.33 198.534 49.23C198.154 49.12 197.744 49.065 197.304 49.065C196.694 49.065 196.159 49.175 195.699 49.395C195.239 49.605 194.854 49.9 194.544 50.28C194.244 50.65 194.019 51.09 193.869 51.6C193.719 52.1 193.644 52.64 193.644 53.22C193.644 53.8 193.719 54.335 193.869 54.825C194.029 55.305 194.259 55.72 194.559 56.07C194.869 56.42 195.249 56.69 195.699 56.88C196.159 57.07 196.684 57.165 197.274 57.165C198.264 57.165 199.044 56.905 199.614 56.385C200.194 55.865 200.554 55.125 200.694 54.165H199.389C199.309 54.765 199.089 55.23 198.729 55.56C198.379 55.89 197.889 56.055 197.259 56.055C196.859 56.055 196.514 55.975 196.224 55.815C195.934 55.655 195.699 55.445 195.519 55.185C195.339 54.915 195.204 54.61 195.114 54.27C195.034 53.93 194.994 53.58 194.994 53.22C194.994 52.83 195.034 52.455 195.114 52.095C195.194 51.725 195.324 51.4 195.504 51.12C195.694 50.84 195.944 50.615 196.254 50.445C196.564 50.275 196.949 50.19 197.409 50.19C197.949 50.19 198.379 50.325 198.699 50.595C199.019 50.865 199.229 51.245 199.329 51.735ZM209.99 56.97C209.77 57.1 209.465 57.165 209.075 57.165C208.745 57.165 208.48 57.075 208.28 56.895C208.09 56.705 207.995 56.4 207.995 55.98C207.645 56.4 207.235 56.705 206.765 56.895C206.305 57.075 205.805 57.165 205.265 57.165C204.915 57.165 204.58 57.125 204.26 57.045C203.95 56.965 203.68 56.84 203.45 56.67C203.22 56.5 203.035 56.28 202.895 56.01C202.765 55.73 202.7 55.395 202.7 55.005C202.7 54.565 202.775 54.205 202.925 53.925C203.075 53.645 203.27 53.42 203.51 53.25C203.76 53.07 204.04 52.935 204.35 52.845C204.67 52.755 204.995 52.68 205.325 52.62C205.675 52.55 206.005 52.5 206.315 52.47C206.635 52.43 206.915 52.38 207.155 52.32C207.395 52.25 207.585 52.155 207.725 52.035C207.865 51.905 207.935 51.72 207.935 51.48C207.935 51.2 207.88 50.975 207.77 50.805C207.67 50.635 207.535 50.505 207.365 50.415C207.205 50.325 207.02 50.265 206.81 50.235C206.61 50.205 206.41 50.19 206.21 50.19C205.67 50.19 205.22 50.295 204.86 50.505C204.5 50.705 204.305 51.09 204.275 51.66H203C203.02 51.18 203.12 50.775 203.3 50.445C203.48 50.115 203.72 49.85 204.02 49.65C204.32 49.44 204.66 49.29 205.04 49.2C205.43 49.11 205.845 49.065 206.285 49.065C206.635 49.065 206.98 49.09 207.32 49.14C207.67 49.19 207.985 49.295 208.265 49.455C208.545 49.605 208.77 49.82 208.94 50.1C209.11 50.38 209.195 50.745 209.195 51.195V55.185C209.195 55.485 209.21 55.705 209.24 55.845C209.28 55.985 209.4 56.055 209.6 56.055C209.71 56.055 209.84 56.03 209.99 55.98V56.97ZM207.92 52.995C207.76 53.115 207.55 53.205 207.29 53.265C207.03 53.315 206.755 53.36 206.465 53.4C206.185 53.43 205.9 53.47 205.61 53.52C205.32 53.56 205.06 53.63 204.83 53.73C204.6 53.83 204.41 53.975 204.26 54.165C204.12 54.345 204.05 54.595 204.05 54.915C204.05 55.125 204.09 55.305 204.17 55.455C204.26 55.595 204.37 55.71 204.5 55.8C204.64 55.89 204.8 55.955 204.98 55.995C205.16 56.035 205.35 56.055 205.55 56.055C205.97 56.055 206.33 56 206.63 55.89C206.93 55.77 207.175 55.625 207.365 55.455C207.555 55.275 207.695 55.085 207.785 54.885C207.875 54.675 207.92 54.48 207.92 54.3V52.995ZM212.252 46.29V57H213.527V46.29H212.252ZM216.577 46.29V57H217.852V46.29H216.577ZM221.607 54.555H220.332C220.352 55.035 220.452 55.445 220.632 55.785C220.812 56.115 221.052 56.385 221.352 56.595C221.652 56.795 221.997 56.94 222.387 57.03C222.777 57.12 223.187 57.165 223.617 57.165C224.007 57.165 224.397 57.125 224.787 57.045C225.187 56.975 225.542 56.845 225.852 56.655C226.172 56.465 226.427 56.215 226.617 55.905C226.817 55.595 226.917 55.205 226.917 54.735C226.917 54.365 226.842 54.055 226.692 53.805C226.552 53.555 226.362 53.35 226.122 53.19C225.892 53.02 225.622 52.885 225.312 52.785C225.012 52.685 224.702 52.6 224.382 52.53C224.082 52.46 223.782 52.395 223.482 52.335C223.182 52.265 222.912 52.185 222.672 52.095C222.432 51.995 222.232 51.875 222.072 51.735C221.922 51.585 221.847 51.4 221.847 51.18C221.847 50.98 221.897 50.82 221.997 50.7C222.097 50.57 222.227 50.47 222.387 50.4C222.547 50.32 222.722 50.265 222.912 50.235C223.112 50.205 223.307 50.19 223.497 50.19C223.707 50.19 223.912 50.215 224.112 50.265C224.322 50.305 224.512 50.375 224.682 50.475C224.852 50.575 224.992 50.71 225.102 50.88C225.212 51.04 225.277 51.245 225.297 51.495H226.572C226.542 51.025 226.442 50.635 226.272 50.325C226.102 50.005 225.872 49.755 225.582 49.575C225.302 49.385 224.977 49.255 224.607 49.185C224.237 49.105 223.832 49.065 223.392 49.065C223.052 49.065 222.707 49.11 222.357 49.2C222.017 49.28 221.707 49.41 221.427 49.59C221.157 49.76 220.932 49.985 220.752 50.265C220.582 50.545 220.497 50.88 220.497 51.27C220.497 51.77 220.622 52.16 220.872 52.44C221.122 52.72 221.432 52.94 221.802 53.1C222.182 53.25 222.592 53.37 223.032 53.46C223.472 53.54 223.877 53.635 224.247 53.745C224.627 53.845 224.942 53.98 225.192 54.15C225.442 54.32 225.567 54.57 225.567 54.9C225.567 55.14 225.507 55.34 225.387 55.5C225.267 55.65 225.112 55.765 224.922 55.845C224.742 55.925 224.542 55.98 224.322 56.01C224.102 56.04 223.892 56.055 223.692 56.055C223.432 56.055 223.177 56.03 222.927 55.98C222.687 55.93 222.467 55.85 222.267 55.74C222.077 55.62 221.922 55.465 221.802 55.275C221.682 55.075 221.617 54.835 221.607 54.555ZM236.272 49.245V46.92H234.997V49.245H233.677V50.37H234.997V55.305C234.997 55.665 235.032 55.955 235.102 56.175C235.172 56.395 235.277 56.565 235.417 56.685C235.567 56.805 235.757 56.89 235.987 56.94C236.227 56.98 236.512 57 236.842 57H237.817V55.875H237.232C237.032 55.875 236.867 55.87 236.737 55.86C236.617 55.84 236.522 55.805 236.452 55.755C236.382 55.705 236.332 55.635 236.302 55.545C236.282 55.455 236.272 55.335 236.272 55.185V50.37H237.817V49.245H236.272ZM241.163 53.13C241.163 52.66 241.223 52.245 241.343 51.885C241.473 51.515 241.648 51.205 241.868 50.955C242.088 50.705 242.343 50.515 242.633 50.385C242.933 50.255 243.248 50.19 243.578 50.19C243.908 50.19 244.218 50.255 244.508 50.385C244.808 50.515 245.068 50.705 245.288 50.955C245.508 51.205 245.678 51.515 245.798 51.885C245.928 52.245 245.993 52.66 245.993 53.13C245.993 53.6 245.928 54.02 245.798 54.39C245.678 54.75 245.508 55.055 245.288 55.305C245.068 55.545 244.808 55.73 244.508 55.86C244.218 55.99 243.908 56.055 243.578 56.055C243.248 56.055 242.933 55.99 242.633 55.86C242.343 55.73 242.088 55.545 241.868 55.305C241.648 55.055 241.473 54.75 241.343 54.39C241.223 54.02 241.163 53.6 241.163 53.13ZM239.813 53.13C239.813 53.7 239.893 54.23 240.053 54.72C240.213 55.21 240.453 55.64 240.773 56.01C241.093 56.37 241.488 56.655 241.958 56.865C242.428 57.065 242.968 57.165 243.578 57.165C244.198 57.165 244.738 57.065 245.198 56.865C245.668 56.655 246.063 56.37 246.383 56.01C246.703 55.64 246.943 55.21 247.103 54.72C247.263 54.23 247.343 53.7 247.343 53.13C247.343 52.56 247.263 52.03 247.103 51.54C246.943 51.04 246.703 50.61 246.383 50.25C246.063 49.88 245.668 49.59 245.198 49.38C244.738 49.17 244.198 49.065 243.578 49.065C242.968 49.065 242.428 49.17 241.958 49.38C241.488 49.59 241.093 49.88 240.773 50.25C240.453 50.61 240.213 51.04 240.053 51.54C239.893 52.03 239.813 52.56 239.813 53.13ZM261.892 56.97C261.672 57.1 261.367 57.165 260.977 57.165C260.647 57.165 260.382 57.075 260.182 56.895C259.992 56.705 259.897 56.4 259.897 55.98C259.547 56.4 259.137 56.705 258.667 56.895C258.207 57.075 257.707 57.165 257.167 57.165C256.817 57.165 256.482 57.125 256.162 57.045C255.852 56.965 255.582 56.84 255.352 56.67C255.122 56.5 254.937 56.28 254.797 56.01C254.667 55.73 254.602 55.395 254.602 55.005C254.602 54.565 254.677 54.205 254.827 53.925C254.977 53.645 255.172 53.42 255.412 53.25C255.662 53.07 255.942 52.935 256.252 52.845C256.572 52.755 256.897 52.68 257.227 52.62C257.577 52.55 257.907 52.5 258.217 52.47C258.537 52.43 258.817 52.38 259.057 52.32C259.297 52.25 259.487 52.155 259.627 52.035C259.767 51.905 259.837 51.72 259.837 51.48C259.837 51.2 259.782 50.975 259.672 50.805C259.572 50.635 259.437 50.505 259.267 50.415C259.107 50.325 258.922 50.265 258.712 50.235C258.512 50.205 258.312 50.19 258.112 50.19C257.572 50.19 257.122 50.295 256.762 50.505C256.402 50.705 256.207 51.09 256.177 51.66H254.902C254.922 51.18 255.022 50.775 255.202 50.445C255.382 50.115 255.622 49.85 255.922 49.65C256.222 49.44 256.562 49.29 256.942 49.2C257.332 49.11 257.747 49.065 258.187 49.065C258.537 49.065 258.882 49.09 259.222 49.14C259.572 49.19 259.887 49.295 260.167 49.455C260.447 49.605 260.672 49.82 260.842 50.1C261.012 50.38 261.097 50.745 261.097 51.195V55.185C261.097 55.485 261.112 55.705 261.142 55.845C261.182 55.985 261.302 56.055 261.502 56.055C261.612 56.055 261.742 56.03 261.892 55.98V56.97ZM259.822 52.995C259.662 53.115 259.452 53.205 259.192 53.265C258.932 53.315 258.657 53.36 258.367 53.4C258.087 53.43 257.802 53.47 257.512 53.52C257.222 53.56 256.962 53.63 256.732 53.73C256.502 53.83 256.312 53.975 256.162 54.165C256.022 54.345 255.952 54.595 255.952 54.915C255.952 55.125 255.992 55.305 256.072 55.455C256.162 55.595 256.272 55.71 256.402 55.8C256.542 55.89 256.702 55.955 256.882 55.995C257.062 56.035 257.252 56.055 257.452 56.055C257.872 56.055 258.232 56 258.532 55.89C258.832 55.77 259.077 55.625 259.267 55.455C259.457 55.275 259.597 55.085 259.687 54.885C259.777 54.675 259.822 54.48 259.822 54.3V52.995ZM269.343 51.735H270.663C270.613 51.275 270.493 50.88 270.303 50.55C270.113 50.21 269.868 49.93 269.568 49.71C269.278 49.49 268.938 49.33 268.548 49.23C268.168 49.12 267.758 49.065 267.318 49.065C266.708 49.065 266.173 49.175 265.713 49.395C265.253 49.605 264.868 49.9 264.558 50.28C264.258 50.65 264.033 51.09 263.883 51.6C263.733 52.1 263.658 52.64 263.658 53.22C263.658 53.8 263.733 54.335 263.883 54.825C264.043 55.305 264.273 55.72 264.573 56.07C264.883 56.42 265.263 56.69 265.713 56.88C266.173 57.07 266.698 57.165 267.288 57.165C268.278 57.165 269.058 56.905 269.628 56.385C270.208 55.865 270.568 55.125 270.708 54.165H269.403C269.323 54.765 269.103 55.23 268.743 55.56C268.393 55.89 267.903 56.055 267.273 56.055C266.873 56.055 266.528 55.975 266.238 55.815C265.948 55.655 265.713 55.445 265.533 55.185C265.353 54.915 265.218 54.61 265.128 54.27C265.048 53.93 265.008 53.58 265.008 53.22C265.008 52.83 265.048 52.455 265.128 52.095C265.208 51.725 265.338 51.4 265.518 51.12C265.708 50.84 265.958 50.615 266.268 50.445C266.578 50.275 266.963 50.19 267.423 50.19C267.963 50.19 268.393 50.325 268.713 50.595C269.033 50.865 269.243 51.245 269.343 51.735ZM274.905 49.245V46.92H273.63V49.245H272.31V50.37H273.63V55.305C273.63 55.665 273.665 55.955 273.735 56.175C273.805 56.395 273.91 56.565 274.05 56.685C274.2 56.805 274.39 56.89 274.62 56.94C274.86 56.98 275.145 57 275.475 57H276.45V55.875H275.865C275.665 55.875 275.5 55.87 275.37 55.86C275.25 55.84 275.155 55.805 275.085 55.755C275.015 55.705 274.965 55.635 274.935 55.545C274.915 55.455 274.905 55.335 274.905 55.185V50.37H276.45V49.245H274.905ZM280.216 47.85V46.29H278.941V47.85H280.216ZM278.941 49.245V57H280.216V49.245H278.941ZM284.121 53.13C284.121 52.66 284.181 52.245 284.301 51.885C284.431 51.515 284.606 51.205 284.826 50.955C285.046 50.705 285.301 50.515 285.591 50.385C285.891 50.255 286.206 50.19 286.536 50.19C286.866 50.19 287.176 50.255 287.466 50.385C287.766 50.515 288.026 50.705 288.246 50.955C288.466 51.205 288.636 51.515 288.756 51.885C288.886 52.245 288.951 52.66 288.951 53.13C288.951 53.6 288.886 54.02 288.756 54.39C288.636 54.75 288.466 55.055 288.246 55.305C288.026 55.545 287.766 55.73 287.466 55.86C287.176 55.99 286.866 56.055 286.536 56.055C286.206 56.055 285.891 55.99 285.591 55.86C285.301 55.73 285.046 55.545 284.826 55.305C284.606 55.055 284.431 54.75 284.301 54.39C284.181 54.02 284.121 53.6 284.121 53.13ZM282.771 53.13C282.771 53.7 282.851 54.23 283.011 54.72C283.171 55.21 283.411 55.64 283.731 56.01C284.051 56.37 284.446 56.655 284.916 56.865C285.386 57.065 285.926 57.165 286.536 57.165C287.156 57.165 287.696 57.065 288.156 56.865C288.626 56.655 289.021 56.37 289.341 56.01C289.661 55.64 289.901 55.21 290.061 54.72C290.221 54.23 290.301 53.7 290.301 53.13C290.301 52.56 290.221 52.03 290.061 51.54C289.901 51.04 289.661 50.61 289.341 50.25C289.021 49.88 288.626 49.59 288.156 49.38C287.696 49.17 287.156 49.065 286.536 49.065C285.926 49.065 285.386 49.17 284.916 49.38C284.446 49.59 284.051 49.88 283.731 50.25C283.411 50.61 283.171 51.04 283.011 51.54C282.851 52.03 282.771 52.56 282.771 53.13ZM292.805 49.245V57H294.08V52.62C294.08 52.27 294.125 51.95 294.215 51.66C294.315 51.36 294.46 51.1 294.65 50.88C294.84 50.66 295.075 50.49 295.355 50.37C295.645 50.25 295.985 50.19 296.375 50.19C296.865 50.19 297.25 50.33 297.53 50.61C297.81 50.89 297.95 51.27 297.95 51.75V57H299.225V51.9C299.225 51.48 299.18 51.1 299.09 50.76C299.01 50.41 298.865 50.11 298.655 49.86C298.445 49.61 298.17 49.415 297.83 49.275C297.49 49.135 297.065 49.065 296.555 49.065C295.405 49.065 294.565 49.535 294.035 50.475H294.005V49.245H292.805Z" fill="#333333"/>
</svg>
