<svg width="384" height="106" viewBox="0 0 384 106" fill="none" xmlns="http://www.w3.org/2000/svg">
<path d="M0 8C0 3.58172 3.58172 0 8 0H376C380.418 0 384 3.58172 384 8V98C384 102.418 380.418 106 376 106H7.99999C3.58171 106 0 102.418 0 98V8Z" fill="#FCF8E3"/>
<path d="M41.2025 49.4199L57.1564 32.7793C58.259 31.6291 60.0421 31.6291 61.1331 32.7793L63.7842 35.5446C64.8869 36.6947 64.8869 38.5546 63.7842 39.6925L52.4875 51.5L63.796 63.2953C64.8987 64.4454 64.8987 66.3053 63.796 67.4432L61.1448 70.2207C60.0421 71.3709 58.259 71.3709 57.1681 70.2207L41.2142 53.5801C40.0998 52.4299 40.0998 50.5701 41.2025 49.4199Z" fill="#333333"/>
<g clip-path="url(#clip0)">
<path d="M116.392 25.268L111.91 32H115.078L117.94 27.554L120.748 32H124.114L119.632 25.286L123.754 19.148H120.658L118.048 23.252L115.528 19.148H112.252L116.392 25.268ZM125.14 25.988V28.184H130.558V25.988H125.14ZM132.938 19.148V32H142.028V29.624H135.764V19.148H132.938ZM147.028 27.032L148.702 22.316H148.738L150.358 27.032H147.028ZM147.298 19.148L142.438 32H145.282L146.29 29.138H151.096L152.068 32H155.002L150.196 19.148H147.298ZM159.116 24.962V21.344H162.212C162.86 21.344 163.346 21.488 163.67 21.776C163.994 22.052 164.156 22.502 164.156 23.126C164.156 23.774 163.994 24.242 163.67 24.53C163.346 24.818 162.86 24.962 162.212 24.962H159.116ZM156.29 19.148V32H159.116V26.978H161.942C162.65 26.978 163.16 27.134 163.472 27.446C163.784 27.758 163.988 28.25 164.084 28.922C164.156 29.438 164.21 29.978 164.246 30.542C164.282 31.106 164.378 31.592 164.534 32H167.36C167.228 31.82 167.126 31.604 167.054 31.352C166.994 31.088 166.946 30.812 166.91 30.524C166.886 30.236 166.868 29.954 166.856 29.678C166.844 29.402 166.832 29.162 166.82 28.958C166.796 28.634 166.748 28.31 166.676 27.986C166.616 27.662 166.514 27.368 166.37 27.104C166.226 26.828 166.04 26.594 165.812 26.402C165.584 26.198 165.296 26.048 164.948 25.952V25.916C165.668 25.628 166.184 25.208 166.496 24.656C166.82 24.104 166.982 23.45 166.982 22.694C166.982 22.202 166.892 21.746 166.712 21.326C166.544 20.894 166.292 20.516 165.956 20.192C165.632 19.868 165.236 19.616 164.768 19.436C164.312 19.244 163.796 19.148 163.22 19.148H156.29ZM178.748 30.542L179.036 32H180.836V25.052H175.436V27.158H178.28C178.196 28.058 177.896 28.748 177.38 29.228C176.876 29.696 176.156 29.93 175.22 29.93C174.584 29.93 174.044 29.81 173.6 29.57C173.156 29.318 172.796 28.988 172.52 28.58C172.244 28.172 172.04 27.716 171.908 27.212C171.788 26.696 171.728 26.168 171.728 25.628C171.728 25.064 171.788 24.518 171.908 23.99C172.04 23.462 172.244 22.994 172.52 22.586C172.796 22.166 173.156 21.836 173.6 21.596C174.044 21.344 174.584 21.218 175.22 21.218C175.904 21.218 176.486 21.398 176.966 21.758C177.446 22.118 177.77 22.658 177.938 23.378H180.638C180.566 22.646 180.368 21.998 180.044 21.434C179.72 20.87 179.306 20.396 178.802 20.012C178.31 19.628 177.752 19.34 177.128 19.148C176.516 18.944 175.88 18.842 175.22 18.842C174.236 18.842 173.348 19.016 172.556 19.364C171.776 19.712 171.116 20.192 170.576 20.804C170.036 21.416 169.622 22.136 169.334 22.964C169.046 23.78 168.902 24.668 168.902 25.628C168.902 26.564 169.046 27.44 169.334 28.256C169.622 29.06 170.036 29.762 170.576 30.362C171.116 30.962 171.776 31.436 172.556 31.784C173.348 32.12 174.236 32.288 175.22 32.288C175.844 32.288 176.462 32.162 177.074 31.91C177.686 31.646 178.244 31.19 178.748 30.542ZM183.299 19.148V32H193.055V29.624H186.125V26.474H192.353V24.278H186.125V21.524H192.911V19.148H183.299ZM203.922 18.842L198.918 32.288H200.952L205.974 18.842H203.922ZM215.54 25.268L211.058 32H214.226L217.088 27.554L219.896 32H223.262L218.78 25.286L222.902 19.148H219.806L217.196 23.252L214.676 19.148H211.4L215.54 25.268ZM224.576 19.148V32H233.666V29.624H227.402V19.148H224.576Z" fill="#333333"/>
<path d="M118.615 54.33V46.29H117.19V54.12C117.19 54.71 117.065 55.18 116.815 55.53C116.575 55.88 116.13 56.055 115.48 56.055C115.13 56.055 114.84 56.005 114.61 55.905C114.39 55.795 114.215 55.645 114.085 55.455C113.965 55.265 113.88 55.04 113.83 54.78C113.78 54.52 113.755 54.235 113.755 53.925V53.475H112.33V54.135C112.33 55.155 112.6 55.93 113.14 56.46C113.68 56.98 114.45 57.24 115.45 57.24C116.05 57.24 116.55 57.16 116.95 57C117.36 56.83 117.685 56.61 117.925 56.34C118.175 56.06 118.35 55.745 118.45 55.395C118.56 55.045 118.615 54.69 118.615 54.33ZM128.158 57V49.245H126.883V53.625C126.883 53.975 126.833 54.3 126.733 54.6C126.643 54.89 126.503 55.145 126.313 55.365C126.123 55.585 125.883 55.755 125.593 55.875C125.313 55.995 124.978 56.055 124.588 56.055C124.098 56.055 123.713 55.915 123.433 55.635C123.153 55.355 123.013 54.975 123.013 54.495V49.245H121.738V54.345C121.738 54.765 121.778 55.15 121.858 55.5C121.948 55.84 122.098 56.135 122.308 56.385C122.518 56.635 122.793 56.83 123.133 56.97C123.473 57.1 123.898 57.165 124.408 57.165C124.978 57.165 125.473 57.055 125.893 56.835C126.313 56.605 126.658 56.25 126.928 55.77H126.958V57H128.158ZM131.073 49.245V57H132.348V52.17C132.348 52.02 132.383 51.835 132.453 51.615C132.533 51.385 132.653 51.165 132.813 50.955C132.983 50.745 133.198 50.565 133.458 50.415C133.728 50.265 134.048 50.19 134.418 50.19C134.708 50.19 134.943 50.235 135.123 50.325C135.313 50.405 135.463 50.525 135.573 50.685C135.683 50.835 135.758 51.015 135.798 51.225C135.848 51.435 135.873 51.665 135.873 51.915V57H137.148V52.17C137.148 51.57 137.328 51.09 137.688 50.73C138.048 50.37 138.543 50.19 139.173 50.19C139.483 50.19 139.733 50.235 139.923 50.325C140.123 50.415 140.278 50.54 140.388 50.7C140.498 50.85 140.573 51.03 140.613 51.24C140.653 51.45 140.673 51.675 140.673 51.915V57H141.948V51.315C141.948 50.915 141.883 50.575 141.753 50.295C141.633 50.005 141.458 49.77 141.228 49.59C141.008 49.41 140.738 49.28 140.418 49.2C140.108 49.11 139.758 49.065 139.368 49.065C138.858 49.065 138.388 49.18 137.958 49.41C137.538 49.64 137.198 49.965 136.938 50.385C136.778 49.905 136.503 49.565 136.113 49.365C135.723 49.165 135.288 49.065 134.808 49.065C133.718 49.065 132.883 49.505 132.303 50.385H132.273V49.245H131.073ZM144.906 46.29V57H146.181V55.965H146.211C146.351 56.195 146.521 56.39 146.721 56.55C146.931 56.7 147.151 56.82 147.381 56.91C147.611 57 147.841 57.065 148.071 57.105C148.311 57.145 148.526 57.165 148.716 57.165C149.306 57.165 149.821 57.06 150.261 56.85C150.711 56.64 151.081 56.355 151.371 55.995C151.671 55.625 151.891 55.195 152.031 54.705C152.181 54.215 152.256 53.695 152.256 53.145C152.256 52.595 152.181 52.075 152.031 51.585C151.881 51.095 151.656 50.665 151.356 50.295C151.066 49.915 150.696 49.615 150.246 49.395C149.806 49.175 149.286 49.065 148.686 49.065C148.146 49.065 147.651 49.165 147.201 49.365C146.751 49.555 146.421 49.865 146.211 50.295H146.181V46.29H144.906ZM150.906 53.055C150.906 53.435 150.866 53.805 150.786 54.165C150.706 54.525 150.576 54.845 150.396 55.125C150.216 55.405 149.976 55.63 149.676 55.8C149.386 55.97 149.021 56.055 148.581 56.055C148.141 56.055 147.766 55.975 147.456 55.815C147.146 55.645 146.891 55.425 146.691 55.155C146.501 54.885 146.361 54.575 146.271 54.225C146.181 53.865 146.136 53.495 146.136 53.115C146.136 52.755 146.176 52.4 146.256 52.05C146.346 51.7 146.486 51.39 146.676 51.12C146.866 50.84 147.111 50.615 147.411 50.445C147.711 50.275 148.076 50.19 148.506 50.19C148.916 50.19 149.271 50.27 149.571 50.43C149.881 50.59 150.131 50.805 150.321 51.075C150.521 51.345 150.666 51.655 150.756 52.005C150.856 52.345 150.906 52.695 150.906 53.055ZM155.683 53.13C155.683 52.66 155.743 52.245 155.863 51.885C155.993 51.515 156.168 51.205 156.388 50.955C156.608 50.705 156.863 50.515 157.153 50.385C157.453 50.255 157.768 50.19 158.098 50.19C158.428 50.19 158.738 50.255 159.028 50.385C159.328 50.515 159.588 50.705 159.808 50.955C160.028 51.205 160.198 51.515 160.318 51.885C160.448 52.245 160.513 52.66 160.513 53.13C160.513 53.6 160.448 54.02 160.318 54.39C160.198 54.75 160.028 55.055 159.808 55.305C159.588 55.545 159.328 55.73 159.028 55.86C158.738 55.99 158.428 56.055 158.098 56.055C157.768 56.055 157.453 55.99 157.153 55.86C156.863 55.73 156.608 55.545 156.388 55.305C156.168 55.055 155.993 54.75 155.863 54.39C155.743 54.02 155.683 53.6 155.683 53.13ZM154.333 53.13C154.333 53.7 154.413 54.23 154.573 54.72C154.733 55.21 154.973 55.64 155.293 56.01C155.613 56.37 156.008 56.655 156.478 56.865C156.948 57.065 157.488 57.165 158.098 57.165C158.718 57.165 159.258 57.065 159.718 56.865C160.188 56.655 160.583 56.37 160.903 56.01C161.223 55.64 161.463 55.21 161.623 54.72C161.783 54.23 161.863 53.7 161.863 53.13C161.863 52.56 161.783 52.03 161.623 51.54C161.463 51.04 161.223 50.61 160.903 50.25C160.583 49.88 160.188 49.59 159.718 49.38C159.258 49.17 158.718 49.065 158.098 49.065C157.488 49.065 156.948 49.17 156.478 49.38C156.008 49.59 155.613 49.88 155.293 50.25C154.973 50.61 154.733 51.04 154.573 51.54C154.413 52.03 154.333 52.56 154.333 53.13ZM166.136 49.245V46.92H164.861V49.245H163.541V50.37H164.861V55.305C164.861 55.665 164.896 55.955 164.966 56.175C165.036 56.395 165.141 56.565 165.281 56.685C165.431 56.805 165.621 56.89 165.851 56.94C166.091 56.98 166.376 57 166.706 57H167.681V55.875H167.096C166.896 55.875 166.731 55.87 166.601 55.86C166.481 55.84 166.386 55.805 166.316 55.755C166.246 55.705 166.196 55.635 166.166 55.545C166.146 55.455 166.136 55.335 166.136 55.185V50.37H167.681V49.245H166.136ZM170.053 49.245V57H171.328V53.55C171.328 53.05 171.378 52.61 171.478 52.23C171.578 51.84 171.738 51.51 171.958 51.24C172.178 50.97 172.468 50.765 172.828 50.625C173.188 50.485 173.623 50.415 174.133 50.415V49.065C173.443 49.045 172.873 49.185 172.423 49.485C171.973 49.785 171.593 50.25 171.283 50.88H171.253V49.245H170.053ZM176.759 53.13C176.759 52.66 176.819 52.245 176.939 51.885C177.069 51.515 177.244 51.205 177.464 50.955C177.684 50.705 177.939 50.515 178.229 50.385C178.529 50.255 178.844 50.19 179.174 50.19C179.504 50.19 179.814 50.255 180.104 50.385C180.404 50.515 180.664 50.705 180.884 50.955C181.104 51.205 181.274 51.515 181.394 51.885C181.524 52.245 181.589 52.66 181.589 53.13C181.589 53.6 181.524 54.02 181.394 54.39C181.274 54.75 181.104 55.055 180.884 55.305C180.664 55.545 180.404 55.73 180.104 55.86C179.814 55.99 179.504 56.055 179.174 56.055C178.844 56.055 178.529 55.99 178.229 55.86C177.939 55.73 177.684 55.545 177.464 55.305C177.244 55.055 177.069 54.75 176.939 54.39C176.819 54.02 176.759 53.6 176.759 53.13ZM175.409 53.13C175.409 53.7 175.489 54.23 175.649 54.72C175.809 55.21 176.049 55.64 176.369 56.01C176.689 56.37 177.084 56.655 177.554 56.865C178.024 57.065 178.564 57.165 179.174 57.165C179.794 57.165 180.334 57.065 180.794 56.865C181.264 56.655 181.659 56.37 181.979 56.01C182.299 55.64 182.539 55.21 182.699 54.72C182.859 54.23 182.939 53.7 182.939 53.13C182.939 52.56 182.859 52.03 182.699 51.54C182.539 51.04 182.299 50.61 181.979 50.25C181.659 49.88 181.264 49.59 180.794 49.38C180.334 49.17 179.794 49.065 179.174 49.065C178.564 49.065 178.024 49.17 177.554 49.38C177.084 49.59 176.689 49.88 176.369 50.25C176.049 50.61 175.809 51.04 175.649 51.54C175.489 52.03 175.409 52.56 175.409 53.13ZM185.442 49.245V57H186.717V52.62C186.717 52.27 186.762 51.95 186.852 51.66C186.952 51.36 187.097 51.1 187.287 50.88C187.477 50.66 187.712 50.49 187.992 50.37C188.282 50.25 188.622 50.19 189.012 50.19C189.502 50.19 189.887 50.33 190.167 50.61C190.447 50.89 190.587 51.27 190.587 51.75V57H191.862V51.9C191.862 51.48 191.817 51.1 191.727 50.76C191.647 50.41 191.502 50.11 191.292 49.86C191.082 49.61 190.807 49.415 190.467 49.275C190.127 49.135 189.702 49.065 189.192 49.065C188.042 49.065 187.202 49.535 186.672 50.475H186.642V49.245H185.442ZM206.822 56.97C206.602 57.1 206.297 57.165 205.907 57.165C205.577 57.165 205.312 57.075 205.112 56.895C204.922 56.705 204.827 56.4 204.827 55.98C204.477 56.4 204.067 56.705 203.597 56.895C203.137 57.075 202.637 57.165 202.097 57.165C201.747 57.165 201.412 57.125 201.092 57.045C200.782 56.965 200.512 56.84 200.282 56.67C200.052 56.5 199.867 56.28 199.727 56.01C199.597 55.73 199.532 55.395 199.532 55.005C199.532 54.565 199.607 54.205 199.757 53.925C199.907 53.645 200.102 53.42 200.342 53.25C200.592 53.07 200.872 52.935 201.182 52.845C201.502 52.755 201.827 52.68 202.157 52.62C202.507 52.55 202.837 52.5 203.147 52.47C203.467 52.43 203.747 52.38 203.987 52.32C204.227 52.25 204.417 52.155 204.557 52.035C204.697 51.905 204.767 51.72 204.767 51.48C204.767 51.2 204.712 50.975 204.602 50.805C204.502 50.635 204.367 50.505 204.197 50.415C204.037 50.325 203.852 50.265 203.642 50.235C203.442 50.205 203.242 50.19 203.042 50.19C202.502 50.19 202.052 50.295 201.692 50.505C201.332 50.705 201.137 51.09 201.107 51.66H199.832C199.852 51.18 199.952 50.775 200.132 50.445C200.312 50.115 200.552 49.85 200.852 49.65C201.152 49.44 201.492 49.29 201.872 49.2C202.262 49.11 202.677 49.065 203.117 49.065C203.467 49.065 203.812 49.09 204.152 49.14C204.502 49.19 204.817 49.295 205.097 49.455C205.377 49.605 205.602 49.82 205.772 50.1C205.942 50.38 206.027 50.745 206.027 51.195V55.185C206.027 55.485 206.042 55.705 206.072 55.845C206.112 55.985 206.232 56.055 206.432 56.055C206.542 56.055 206.672 56.03 206.822 55.98V56.97ZM204.752 52.995C204.592 53.115 204.382 53.205 204.122 53.265C203.862 53.315 203.587 53.36 203.297 53.4C203.017 53.43 202.732 53.47 202.442 53.52C202.152 53.56 201.892 53.63 201.662 53.73C201.432 53.83 201.242 53.975 201.092 54.165C200.952 54.345 200.882 54.595 200.882 54.915C200.882 55.125 200.922 55.305 201.002 55.455C201.092 55.595 201.202 55.71 201.332 55.8C201.472 55.89 201.632 55.955 201.812 55.995C201.992 56.035 202.182 56.055 202.382 56.055C202.802 56.055 203.162 56 203.462 55.89C203.762 55.77 204.007 55.625 204.197 55.455C204.387 55.275 204.527 55.085 204.617 54.885C204.707 54.675 204.752 54.48 204.752 54.3V52.995ZM209.009 49.245V57H210.284V52.62C210.284 52.27 210.329 51.95 210.419 51.66C210.519 51.36 210.664 51.1 210.854 50.88C211.044 50.66 211.279 50.49 211.559 50.37C211.849 50.25 212.189 50.19 212.579 50.19C213.069 50.19 213.454 50.33 213.734 50.61C214.014 50.89 214.154 51.27 214.154 51.75V57H215.429V51.9C215.429 51.48 215.384 51.1 215.294 50.76C215.214 50.41 215.069 50.11 214.859 49.86C214.649 49.61 214.374 49.415 214.034 49.275C213.694 49.135 213.269 49.065 212.759 49.065C211.609 49.065 210.769 49.535 210.239 50.475H210.209V49.245H209.009ZM219.274 53.19C219.274 52.81 219.314 52.44 219.394 52.08C219.474 51.72 219.604 51.4 219.784 51.12C219.964 50.84 220.204 50.615 220.504 50.445C220.804 50.275 221.169 50.19 221.599 50.19C222.039 50.19 222.414 50.275 222.724 50.445C223.034 50.605 223.284 50.82 223.474 51.09C223.674 51.36 223.819 51.675 223.909 52.035C223.999 52.385 224.044 52.75 224.044 53.13C224.044 53.49 223.999 53.845 223.909 54.195C223.829 54.545 223.694 54.86 223.504 55.14C223.314 55.41 223.069 55.63 222.769 55.8C222.469 55.97 222.104 56.055 221.674 56.055C221.264 56.055 220.904 55.975 220.594 55.815C220.294 55.655 220.044 55.44 219.844 55.17C219.654 54.9 219.509 54.595 219.409 54.255C219.319 53.905 219.274 53.55 219.274 53.19ZM225.274 57V46.29H223.999V50.28H223.969C223.829 50.05 223.654 49.86 223.444 49.71C223.244 49.55 223.029 49.425 222.799 49.335C222.569 49.235 222.339 49.165 222.109 49.125C221.879 49.085 221.664 49.065 221.464 49.065C220.874 49.065 220.354 49.175 219.904 49.395C219.464 49.605 219.094 49.895 218.794 50.265C218.504 50.625 218.284 51.05 218.134 51.54C217.994 52.03 217.924 52.55 217.924 53.1C217.924 53.65 217.999 54.17 218.149 54.66C218.299 55.15 218.519 55.58 218.809 55.95C219.109 56.32 219.479 56.615 219.919 56.835C220.369 57.055 220.894 57.165 221.494 57.165C222.034 57.165 222.529 57.07 222.979 56.88C223.429 56.69 223.759 56.38 223.969 55.95H223.999V57H225.274ZM236.905 57L239.74 49.245H238.405L236.29 55.71H236.26L234.085 49.245H232.66L235.54 57H236.905ZM248.78 56.97C248.56 57.1 248.255 57.165 247.865 57.165C247.535 57.165 247.27 57.075 247.07 56.895C246.88 56.705 246.785 56.4 246.785 55.98C246.435 56.4 246.025 56.705 245.555 56.895C245.095 57.075 244.595 57.165 244.055 57.165C243.705 57.165 243.37 57.125 243.05 57.045C242.74 56.965 242.47 56.84 242.24 56.67C242.01 56.5 241.825 56.28 241.685 56.01C241.555 55.73 241.49 55.395 241.49 55.005C241.49 54.565 241.565 54.205 241.715 53.925C241.865 53.645 242.06 53.42 242.3 53.25C242.55 53.07 242.83 52.935 243.14 52.845C243.46 52.755 243.785 52.68 244.115 52.62C244.465 52.55 244.795 52.5 245.105 52.47C245.425 52.43 245.705 52.38 245.945 52.32C246.185 52.25 246.375 52.155 246.515 52.035C246.655 51.905 246.725 51.72 246.725 51.48C246.725 51.2 246.67 50.975 246.56 50.805C246.46 50.635 246.325 50.505 246.155 50.415C245.995 50.325 245.81 50.265 245.6 50.235C245.4 50.205 245.2 50.19 245 50.19C244.46 50.19 244.01 50.295 243.65 50.505C243.29 50.705 243.095 51.09 243.065 51.66H241.79C241.81 51.18 241.91 50.775 242.09 50.445C242.27 50.115 242.51 49.85 242.81 49.65C243.11 49.44 243.45 49.29 243.83 49.2C244.22 49.11 244.635 49.065 245.075 49.065C245.425 49.065 245.77 49.09 246.11 49.14C246.46 49.19 246.775 49.295 247.055 49.455C247.335 49.605 247.56 49.82 247.73 50.1C247.9 50.38 247.985 50.745 247.985 51.195V55.185C247.985 55.485 248 55.705 248.03 55.845C248.07 55.985 248.19 56.055 248.39 56.055C248.5 56.055 248.63 56.03 248.78 55.98V56.97ZM246.71 52.995C246.55 53.115 246.34 53.205 246.08 53.265C245.82 53.315 245.545 53.36 245.255 53.4C244.975 53.43 244.69 53.47 244.4 53.52C244.11 53.56 243.85 53.63 243.62 53.73C243.39 53.83 243.2 53.975 243.05 54.165C242.91 54.345 242.84 54.595 242.84 54.915C242.84 55.125 242.88 55.305 242.96 55.455C243.05 55.595 243.16 55.71 243.29 55.8C243.43 55.89 243.59 55.955 243.77 55.995C243.95 56.035 244.14 56.055 244.34 56.055C244.76 56.055 245.12 56 245.42 55.89C245.72 55.77 245.965 55.625 246.155 55.455C246.345 55.275 246.485 55.085 246.575 54.885C246.665 54.675 246.71 54.48 246.71 54.3V52.995ZM250.922 49.245V57H252.197V53.55C252.197 53.05 252.247 52.61 252.347 52.23C252.447 51.84 252.607 51.51 252.827 51.24C253.047 50.97 253.337 50.765 253.697 50.625C254.057 50.485 254.492 50.415 255.002 50.415V49.065C254.312 49.045 253.742 49.185 253.292 49.485C252.842 49.785 252.462 50.25 252.152 50.88H252.122V49.245H250.922ZM258.312 47.85V46.29H257.037V47.85H258.312ZM257.037 49.245V57H258.312V49.245H257.037ZM262.217 53.13C262.217 52.66 262.277 52.245 262.397 51.885C262.527 51.515 262.702 51.205 262.922 50.955C263.142 50.705 263.397 50.515 263.687 50.385C263.987 50.255 264.302 50.19 264.632 50.19C264.962 50.19 265.272 50.255 265.562 50.385C265.862 50.515 266.122 50.705 266.342 50.955C266.562 51.205 266.732 51.515 266.852 51.885C266.982 52.245 267.047 52.66 267.047 53.13C267.047 53.6 266.982 54.02 266.852 54.39C266.732 54.75 266.562 55.055 266.342 55.305C266.122 55.545 265.862 55.73 265.562 55.86C265.272 55.99 264.962 56.055 264.632 56.055C264.302 56.055 263.987 55.99 263.687 55.86C263.397 55.73 263.142 55.545 262.922 55.305C262.702 55.055 262.527 54.75 262.397 54.39C262.277 54.02 262.217 53.6 262.217 53.13ZM260.867 53.13C260.867 53.7 260.947 54.23 261.107 54.72C261.267 55.21 261.507 55.64 261.827 56.01C262.147 56.37 262.542 56.655 263.012 56.865C263.482 57.065 264.022 57.165 264.632 57.165C265.252 57.165 265.792 57.065 266.252 56.865C266.722 56.655 267.117 56.37 267.437 56.01C267.757 55.64 267.997 55.21 268.157 54.72C268.317 54.23 268.397 53.7 268.397 53.13C268.397 52.56 268.317 52.03 268.157 51.54C267.997 51.04 267.757 50.61 267.437 50.25C267.117 49.88 266.722 49.59 266.252 49.38C265.792 49.17 265.252 49.065 264.632 49.065C264.022 49.065 263.482 49.17 263.012 49.38C262.542 49.59 262.147 49.88 261.827 50.25C261.507 50.61 261.267 51.04 261.107 51.54C260.947 52.03 260.867 52.56 260.867 53.13ZM277.32 57V49.245H276.045V53.625C276.045 53.975 275.995 54.3 275.895 54.6C275.805 54.89 275.665 55.145 275.475 55.365C275.285 55.585 275.045 55.755 274.755 55.875C274.475 55.995 274.14 56.055 273.75 56.055C273.26 56.055 272.875 55.915 272.595 55.635C272.315 55.355 272.175 54.975 272.175 54.495V49.245H270.9V54.345C270.9 54.765 270.94 55.15 271.02 55.5C271.11 55.84 271.26 56.135 271.47 56.385C271.68 56.635 271.955 56.83 272.295 56.97C272.635 57.1 273.06 57.165 273.57 57.165C274.14 57.165 274.635 57.055 275.055 56.835C275.475 56.605 275.82 56.25 276.09 55.77H276.12V57H277.32ZM281.015 54.555H279.74C279.76 55.035 279.86 55.445 280.04 55.785C280.22 56.115 280.46 56.385 280.76 56.595C281.06 56.795 281.405 56.94 281.795 57.03C282.185 57.12 282.595 57.165 283.025 57.165C283.415 57.165 283.805 57.125 284.195 57.045C284.595 56.975 284.95 56.845 285.26 56.655C285.58 56.465 285.835 56.215 286.025 55.905C286.225 55.595 286.325 55.205 286.325 54.735C286.325 54.365 286.25 54.055 286.1 53.805C285.96 53.555 285.77 53.35 285.53 53.19C285.3 53.02 285.03 52.885 284.72 52.785C284.42 52.685 284.11 52.6 283.79 52.53C283.49 52.46 283.19 52.395 282.89 52.335C282.59 52.265 282.32 52.185 282.08 52.095C281.84 51.995 281.64 51.875 281.48 51.735C281.33 51.585 281.255 51.4 281.255 51.18C281.255 50.98 281.305 50.82 281.405 50.7C281.505 50.57 281.635 50.47 281.795 50.4C281.955 50.32 282.13 50.265 282.32 50.235C282.52 50.205 282.715 50.19 282.905 50.19C283.115 50.19 283.32 50.215 283.52 50.265C283.73 50.305 283.92 50.375 284.09 50.475C284.26 50.575 284.4 50.71 284.51 50.88C284.62 51.04 284.685 51.245 284.705 51.495H285.98C285.95 51.025 285.85 50.635 285.68 50.325C285.51 50.005 285.28 49.755 284.99 49.575C284.71 49.385 284.385 49.255 284.015 49.185C283.645 49.105 283.24 49.065 282.8 49.065C282.46 49.065 282.115 49.11 281.765 49.2C281.425 49.28 281.115 49.41 280.835 49.59C280.565 49.76 280.34 49.985 280.16 50.265C279.99 50.545 279.905 50.88 279.905 51.27C279.905 51.77 280.03 52.16 280.28 52.44C280.53 52.72 280.84 52.94 281.21 53.1C281.59 53.25 282 53.37 282.44 53.46C282.88 53.54 283.285 53.635 283.655 53.745C284.035 53.845 284.35 53.98 284.6 54.15C284.85 54.32 284.975 54.57 284.975 54.9C284.975 55.14 284.915 55.34 284.795 55.5C284.675 55.65 284.52 55.765 284.33 55.845C284.15 55.925 283.95 55.98 283.73 56.01C283.51 56.04 283.3 56.055 283.1 56.055C282.84 56.055 282.585 56.03 282.335 55.98C282.095 55.93 281.875 55.85 281.675 55.74C281.485 55.62 281.33 55.465 281.21 55.275C281.09 55.075 281.025 54.835 281.015 54.555ZM113.005 75.245V85.955H114.28V81.965H114.31C114.45 82.195 114.62 82.39 114.82 82.55C115.03 82.7 115.25 82.82 115.48 82.91C115.71 83 115.94 83.065 116.17 83.105C116.41 83.145 116.625 83.165 116.815 83.165C117.405 83.165 117.92 83.06 118.36 82.85C118.81 82.64 119.18 82.355 119.47 81.995C119.77 81.625 119.99 81.195 120.13 80.705C120.28 80.215 120.355 79.695 120.355 79.145C120.355 78.595 120.28 78.075 120.13 77.585C119.98 77.095 119.755 76.665 119.455 76.295C119.165 75.915 118.795 75.615 118.345 75.395C117.905 75.175 117.385 75.065 116.785 75.065C116.245 75.065 115.75 75.165 115.3 75.365C114.85 75.555 114.52 75.865 114.31 76.295H114.28V75.245H113.005ZM119.005 79.055C119.005 79.435 118.965 79.805 118.885 80.165C118.805 80.525 118.675 80.845 118.495 81.125C118.315 81.405 118.075 81.63 117.775 81.8C117.485 81.97 117.12 82.055 116.68 82.055C116.24 82.055 115.865 81.975 115.555 81.815C115.245 81.645 114.99 81.425 114.79 81.155C114.6 80.885 114.46 80.575 114.37 80.225C114.28 79.865 114.235 79.495 114.235 79.115C114.235 78.755 114.275 78.4 114.355 78.05C114.445 77.7 114.585 77.39 114.775 77.12C114.965 76.84 115.21 76.615 115.51 76.445C115.81 76.275 116.175 76.19 116.605 76.19C117.015 76.19 117.37 76.27 117.67 76.43C117.98 76.59 118.23 76.805 118.42 77.075C118.62 77.345 118.765 77.655 118.855 78.005C118.955 78.345 119.005 78.695 119.005 79.055ZM122.807 75.245V83H124.082V79.55C124.082 79.05 124.132 78.61 124.232 78.23C124.332 77.84 124.492 77.51 124.712 77.24C124.932 76.97 125.222 76.765 125.582 76.625C125.942 76.485 126.377 76.415 126.887 76.415V75.065C126.197 75.045 125.627 75.185 125.177 75.485C124.727 75.785 124.347 76.25 124.037 76.88H124.007V75.245H122.807ZM129.513 79.13C129.513 78.66 129.573 78.245 129.693 77.885C129.823 77.515 129.998 77.205 130.218 76.955C130.438 76.705 130.693 76.515 130.983 76.385C131.283 76.255 131.598 76.19 131.928 76.19C132.258 76.19 132.568 76.255 132.858 76.385C133.158 76.515 133.418 76.705 133.638 76.955C133.858 77.205 134.028 77.515 134.148 77.885C134.278 78.245 134.343 78.66 134.343 79.13C134.343 79.6 134.278 80.02 134.148 80.39C134.028 80.75 133.858 81.055 133.638 81.305C133.418 81.545 133.158 81.73 132.858 81.86C132.568 81.99 132.258 82.055 131.928 82.055C131.598 82.055 131.283 81.99 130.983 81.86C130.693 81.73 130.438 81.545 130.218 81.305C129.998 81.055 129.823 80.75 129.693 80.39C129.573 80.02 129.513 79.6 129.513 79.13ZM128.163 79.13C128.163 79.7 128.243 80.23 128.403 80.72C128.563 81.21 128.803 81.64 129.123 82.01C129.443 82.37 129.838 82.655 130.308 82.865C130.778 83.065 131.318 83.165 131.928 83.165C132.548 83.165 133.088 83.065 133.548 82.865C134.018 82.655 134.413 82.37 134.733 82.01C135.053 81.64 135.293 81.21 135.453 80.72C135.613 80.23 135.693 79.7 135.693 79.13C135.693 78.56 135.613 78.03 135.453 77.54C135.293 77.04 135.053 76.61 134.733 76.25C134.413 75.88 134.018 75.59 133.548 75.38C133.088 75.17 132.548 75.065 131.928 75.065C131.318 75.065 130.778 75.17 130.308 75.38C129.838 75.59 129.443 75.88 129.123 76.25C128.803 76.61 128.563 77.04 128.403 77.54C128.243 78.03 128.163 78.56 128.163 79.13ZM138.196 75.245V83H139.471V78.17C139.471 78.02 139.506 77.835 139.576 77.615C139.656 77.385 139.776 77.165 139.936 76.955C140.106 76.745 140.321 76.565 140.581 76.415C140.851 76.265 141.171 76.19 141.541 76.19C141.831 76.19 142.066 76.235 142.246 76.325C142.436 76.405 142.586 76.525 142.696 76.685C142.806 76.835 142.881 77.015 142.921 77.225C142.971 77.435 142.996 77.665 142.996 77.915V83H144.271V78.17C144.271 77.57 144.451 77.09 144.811 76.73C145.171 76.37 145.666 76.19 146.296 76.19C146.606 76.19 146.856 76.235 147.046 76.325C147.246 76.415 147.401 76.54 147.511 76.7C147.621 76.85 147.696 77.03 147.736 77.24C147.776 77.45 147.796 77.675 147.796 77.915V83H149.071V77.315C149.071 76.915 149.006 76.575 148.876 76.295C148.756 76.005 148.581 75.77 148.351 75.59C148.131 75.41 147.861 75.28 147.541 75.2C147.231 75.11 146.881 75.065 146.491 75.065C145.981 75.065 145.511 75.18 145.081 75.41C144.661 75.64 144.321 75.965 144.061 76.385C143.901 75.905 143.626 75.565 143.236 75.365C142.846 75.165 142.411 75.065 141.931 75.065C140.841 75.065 140.006 75.505 139.426 76.385H139.396V75.245H138.196ZM152.914 79.13C152.914 78.66 152.974 78.245 153.094 77.885C153.224 77.515 153.399 77.205 153.619 76.955C153.839 76.705 154.094 76.515 154.384 76.385C154.684 76.255 154.999 76.19 155.329 76.19C155.659 76.19 155.969 76.255 156.259 76.385C156.559 76.515 156.819 76.705 157.039 76.955C157.259 77.205 157.429 77.515 157.549 77.885C157.679 78.245 157.744 78.66 157.744 79.13C157.744 79.6 157.679 80.02 157.549 80.39C157.429 80.75 157.259 81.055 157.039 81.305C156.819 81.545 156.559 81.73 156.259 81.86C155.969 81.99 155.659 82.055 155.329 82.055C154.999 82.055 154.684 81.99 154.384 81.86C154.094 81.73 153.839 81.545 153.619 81.305C153.399 81.055 153.224 80.75 153.094 80.39C152.974 80.02 152.914 79.6 152.914 79.13ZM151.564 79.13C151.564 79.7 151.644 80.23 151.804 80.72C151.964 81.21 152.204 81.64 152.524 82.01C152.844 82.37 153.239 82.655 153.709 82.865C154.179 83.065 154.719 83.165 155.329 83.165C155.949 83.165 156.489 83.065 156.949 82.865C157.419 82.655 157.814 82.37 158.134 82.01C158.454 81.64 158.694 81.21 158.854 80.72C159.014 80.23 159.094 79.7 159.094 79.13C159.094 78.56 159.014 78.03 158.854 77.54C158.694 77.04 158.454 76.61 158.134 76.25C157.814 75.88 157.419 75.59 156.949 75.38C156.489 75.17 155.949 75.065 155.329 75.065C154.719 75.065 154.179 75.17 153.709 75.38C153.239 75.59 152.844 75.88 152.524 76.25C152.204 76.61 151.964 77.04 151.804 77.54C151.644 78.03 151.564 78.56 151.564 79.13ZM163.368 75.245V72.92H162.093V75.245H160.773V76.37H162.093V81.305C162.093 81.665 162.128 81.955 162.198 82.175C162.268 82.395 162.373 82.565 162.513 82.685C162.663 82.805 162.853 82.89 163.083 82.94C163.323 82.98 163.608 83 163.938 83H164.913V81.875H164.328C164.128 81.875 163.963 81.87 163.833 81.86C163.713 81.84 163.618 81.805 163.548 81.755C163.478 81.705 163.428 81.635 163.398 81.545C163.378 81.455 163.368 81.335 163.368 81.185V76.37H164.913V75.245H163.368ZM168.679 73.85V72.29H167.404V73.85H168.679ZM167.404 75.245V83H168.679V75.245H167.404ZM172.584 79.13C172.584 78.66 172.644 78.245 172.764 77.885C172.894 77.515 173.069 77.205 173.289 76.955C173.509 76.705 173.764 76.515 174.054 76.385C174.354 76.255 174.669 76.19 174.999 76.19C175.329 76.19 175.639 76.255 175.929 76.385C176.229 76.515 176.489 76.705 176.709 76.955C176.929 77.205 177.099 77.515 177.219 77.885C177.349 78.245 177.414 78.66 177.414 79.13C177.414 79.6 177.349 80.02 177.219 80.39C177.099 80.75 176.929 81.055 176.709 81.305C176.489 81.545 176.229 81.73 175.929 81.86C175.639 81.99 175.329 82.055 174.999 82.055C174.669 82.055 174.354 81.99 174.054 81.86C173.764 81.73 173.509 81.545 173.289 81.305C173.069 81.055 172.894 80.75 172.764 80.39C172.644 80.02 172.584 79.6 172.584 79.13ZM171.234 79.13C171.234 79.7 171.314 80.23 171.474 80.72C171.634 81.21 171.874 81.64 172.194 82.01C172.514 82.37 172.909 82.655 173.379 82.865C173.849 83.065 174.389 83.165 174.999 83.165C175.619 83.165 176.159 83.065 176.619 82.865C177.089 82.655 177.484 82.37 177.804 82.01C178.124 81.64 178.364 81.21 178.524 80.72C178.684 80.23 178.764 79.7 178.764 79.13C178.764 78.56 178.684 78.03 178.524 77.54C178.364 77.04 178.124 76.61 177.804 76.25C177.484 75.88 177.089 75.59 176.619 75.38C176.159 75.17 175.619 75.065 174.999 75.065C174.389 75.065 173.849 75.17 173.379 75.38C172.909 75.59 172.514 75.88 172.194 76.25C171.874 76.61 171.634 77.04 171.474 77.54C171.314 78.03 171.234 78.56 171.234 79.13ZM181.268 75.245V83H182.543V78.62C182.543 78.27 182.588 77.95 182.678 77.66C182.778 77.36 182.923 77.1 183.113 76.88C183.303 76.66 183.538 76.49 183.818 76.37C184.108 76.25 184.448 76.19 184.838 76.19C185.328 76.19 185.713 76.33 185.993 76.61C186.273 76.89 186.413 77.27 186.413 77.75V83H187.688V77.9C187.688 77.48 187.643 77.1 187.553 76.76C187.473 76.41 187.328 76.11 187.118 75.86C186.908 75.61 186.633 75.415 186.293 75.275C185.953 75.135 185.528 75.065 185.018 75.065C183.868 75.065 183.028 75.535 182.498 76.475H182.468V75.245H181.268ZM197.473 82.97C197.253 83.1 196.948 83.165 196.558 83.165C196.228 83.165 195.963 83.075 195.763 82.895C195.573 82.705 195.478 82.4 195.478 81.98C195.128 82.4 194.718 82.705 194.248 82.895C193.788 83.075 193.288 83.165 192.748 83.165C192.398 83.165 192.063 83.125 191.743 83.045C191.433 82.965 191.163 82.84 190.933 82.67C190.703 82.5 190.518 82.28 190.378 82.01C190.248 81.73 190.183 81.395 190.183 81.005C190.183 80.565 190.258 80.205 190.408 79.925C190.558 79.645 190.753 79.42 190.993 79.25C191.243 79.07 191.523 78.935 191.833 78.845C192.153 78.755 192.478 78.68 192.808 78.62C193.158 78.55 193.488 78.5 193.798 78.47C194.118 78.43 194.398 78.38 194.638 78.32C194.878 78.25 195.068 78.155 195.208 78.035C195.348 77.905 195.418 77.72 195.418 77.48C195.418 77.2 195.363 76.975 195.253 76.805C195.153 76.635 195.018 76.505 194.848 76.415C194.688 76.325 194.503 76.265 194.293 76.235C194.093 76.205 193.893 76.19 193.693 76.19C193.153 76.19 192.703 76.295 192.343 76.505C191.983 76.705 191.788 77.09 191.758 77.66H190.483C190.503 77.18 190.603 76.775 190.783 76.445C190.963 76.115 191.203 75.85 191.503 75.65C191.803 75.44 192.143 75.29 192.523 75.2C192.913 75.11 193.328 75.065 193.768 75.065C194.118 75.065 194.463 75.09 194.803 75.14C195.153 75.19 195.468 75.295 195.748 75.455C196.028 75.605 196.253 75.82 196.423 76.1C196.593 76.38 196.678 76.745 196.678 77.195V81.185C196.678 81.485 196.693 81.705 196.723 81.845C196.763 81.985 196.883 82.055 197.083 82.055C197.193 82.055 197.323 82.03 197.473 81.98V82.97ZM195.403 78.995C195.243 79.115 195.033 79.205 194.773 79.265C194.513 79.315 194.238 79.36 193.948 79.4C193.668 79.43 193.383 79.47 193.093 79.52C192.803 79.56 192.543 79.63 192.313 79.73C192.083 79.83 191.893 79.975 191.743 80.165C191.603 80.345 191.533 80.595 191.533 80.915C191.533 81.125 191.573 81.305 191.653 81.455C191.743 81.595 191.853 81.71 191.983 81.8C192.123 81.89 192.283 81.955 192.463 81.995C192.643 82.035 192.833 82.055 193.033 82.055C193.453 82.055 193.813 82 194.113 81.89C194.413 81.77 194.658 81.625 194.848 81.455C195.038 81.275 195.178 81.085 195.268 80.885C195.358 80.675 195.403 80.48 195.403 80.3V78.995ZM199.734 72.29V83H201.009V72.29H199.734ZM214.424 77.735H215.744C215.694 77.275 215.574 76.88 215.384 76.55C215.194 76.21 214.949 75.93 214.649 75.71C214.359 75.49 214.019 75.33 213.629 75.23C213.249 75.12 212.839 75.065 212.399 75.065C211.789 75.065 211.254 75.175 210.794 75.395C210.334 75.605 209.949 75.9 209.639 76.28C209.339 76.65 209.114 77.09 208.964 77.6C208.814 78.1 208.739 78.64 208.739 79.22C208.739 79.8 208.814 80.335 208.964 80.825C209.124 81.305 209.354 81.72 209.654 82.07C209.964 82.42 210.344 82.69 210.794 82.88C211.254 83.07 211.779 83.165 212.369 83.165C213.359 83.165 214.139 82.905 214.709 82.385C215.289 81.865 215.649 81.125 215.789 80.165H214.484C214.404 80.765 214.184 81.23 213.824 81.56C213.474 81.89 212.984 82.055 212.354 82.055C211.954 82.055 211.609 81.975 211.319 81.815C211.029 81.655 210.794 81.445 210.614 81.185C210.434 80.915 210.299 80.61 210.209 80.27C210.129 79.93 210.089 79.58 210.089 79.22C210.089 78.83 210.129 78.455 210.209 78.095C210.289 77.725 210.419 77.4 210.599 77.12C210.789 76.84 211.039 76.615 211.349 76.445C211.659 76.275 212.044 76.19 212.504 76.19C213.044 76.19 213.474 76.325 213.794 76.595C214.114 76.865 214.324 77.245 214.424 77.735ZM219.146 79.13C219.146 78.66 219.206 78.245 219.326 77.885C219.456 77.515 219.631 77.205 219.851 76.955C220.071 76.705 220.326 76.515 220.616 76.385C220.916 76.255 221.231 76.19 221.561 76.19C221.891 76.19 222.201 76.255 222.491 76.385C222.791 76.515 223.051 76.705 223.271 76.955C223.491 77.205 223.661 77.515 223.781 77.885C223.911 78.245 223.976 78.66 223.976 79.13C223.976 79.6 223.911 80.02 223.781 80.39C223.661 80.75 223.491 81.055 223.271 81.305C223.051 81.545 222.791 81.73 222.491 81.86C222.201 81.99 221.891 82.055 221.561 82.055C221.231 82.055 220.916 81.99 220.616 81.86C220.326 81.73 220.071 81.545 219.851 81.305C219.631 81.055 219.456 80.75 219.326 80.39C219.206 80.02 219.146 79.6 219.146 79.13ZM217.796 79.13C217.796 79.7 217.876 80.23 218.036 80.72C218.196 81.21 218.436 81.64 218.756 82.01C219.076 82.37 219.471 82.655 219.941 82.865C220.411 83.065 220.951 83.165 221.561 83.165C222.181 83.165 222.721 83.065 223.181 82.865C223.651 82.655 224.046 82.37 224.366 82.01C224.686 81.64 224.926 81.21 225.086 80.72C225.246 80.23 225.326 79.7 225.326 79.13C225.326 78.56 225.246 78.03 225.086 77.54C224.926 77.04 224.686 76.61 224.366 76.25C224.046 75.88 223.651 75.59 223.181 75.38C222.721 75.17 222.181 75.065 221.561 75.065C220.951 75.065 220.411 75.17 219.941 75.38C219.471 75.59 219.076 75.88 218.756 76.25C218.436 76.61 218.196 77.04 218.036 77.54C217.876 78.03 217.796 78.56 217.796 79.13ZM227.829 75.245V83H229.104V78.17C229.104 78.02 229.139 77.835 229.209 77.615C229.289 77.385 229.409 77.165 229.569 76.955C229.739 76.745 229.954 76.565 230.214 76.415C230.484 76.265 230.804 76.19 231.174 76.19C231.464 76.19 231.699 76.235 231.879 76.325C232.069 76.405 232.219 76.525 232.329 76.685C232.439 76.835 232.514 77.015 232.554 77.225C232.604 77.435 232.629 77.665 232.629 77.915V83H233.904V78.17C233.904 77.57 234.084 77.09 234.444 76.73C234.804 76.37 235.299 76.19 235.929 76.19C236.239 76.19 236.489 76.235 236.679 76.325C236.879 76.415 237.034 76.54 237.144 76.7C237.254 76.85 237.329 77.03 237.369 77.24C237.409 77.45 237.429 77.675 237.429 77.915V83H238.704V77.315C238.704 76.915 238.639 76.575 238.509 76.295C238.389 76.005 238.214 75.77 237.984 75.59C237.764 75.41 237.494 75.28 237.174 75.2C236.864 75.11 236.514 75.065 236.124 75.065C235.614 75.065 235.144 75.18 234.714 75.41C234.294 75.64 233.954 75.965 233.694 76.385C233.534 75.905 233.259 75.565 232.869 75.365C232.479 75.165 232.044 75.065 231.564 75.065C230.474 75.065 229.639 75.505 229.059 76.385H229.029V75.245H227.829ZM241.617 75.245V83H242.892V78.17C242.892 78.02 242.927 77.835 242.997 77.615C243.077 77.385 243.197 77.165 243.357 76.955C243.527 76.745 243.742 76.565 244.002 76.415C244.272 76.265 244.592 76.19 244.962 76.19C245.252 76.19 245.487 76.235 245.667 76.325C245.857 76.405 246.007 76.525 246.117 76.685C246.227 76.835 246.302 77.015 246.342 77.225C246.392 77.435 246.417 77.665 246.417 77.915V83H247.692V78.17C247.692 77.57 247.872 77.09 248.232 76.73C248.592 76.37 249.087 76.19 249.717 76.19C250.027 76.19 250.277 76.235 250.467 76.325C250.667 76.415 250.822 76.54 250.932 76.7C251.042 76.85 251.117 77.03 251.157 77.24C251.197 77.45 251.217 77.675 251.217 77.915V83H252.492V77.315C252.492 76.915 252.427 76.575 252.297 76.295C252.177 76.005 252.002 75.77 251.772 75.59C251.552 75.41 251.282 75.28 250.962 75.2C250.652 75.11 250.302 75.065 249.912 75.065C249.402 75.065 248.932 75.18 248.502 75.41C248.082 75.64 247.742 75.965 247.482 76.385C247.322 75.905 247.047 75.565 246.657 75.365C246.267 75.165 245.832 75.065 245.352 75.065C244.262 75.065 243.427 75.505 242.847 76.385H242.817V75.245H241.617ZM261.825 83V75.245H260.55V79.625C260.55 79.975 260.5 80.3 260.4 80.6C260.31 80.89 260.17 81.145 259.98 81.365C259.79 81.585 259.55 81.755 259.26 81.875C258.98 81.995 258.645 82.055 258.255 82.055C257.765 82.055 257.38 81.915 257.1 81.635C256.82 81.355 256.68 80.975 256.68 80.495V75.245H255.405V80.345C255.405 80.765 255.445 81.15 255.525 81.5C255.615 81.84 255.765 82.135 255.975 82.385C256.185 82.635 256.46 82.83 256.8 82.97C257.14 83.1 257.565 83.165 258.075 83.165C258.645 83.165 259.14 83.055 259.56 82.835C259.98 82.605 260.325 82.25 260.595 81.77H260.625V83H261.825ZM264.74 75.245V83H266.015V78.62C266.015 78.27 266.06 77.95 266.15 77.66C266.25 77.36 266.395 77.1 266.585 76.88C266.775 76.66 267.01 76.49 267.29 76.37C267.58 76.25 267.92 76.19 268.31 76.19C268.8 76.19 269.185 76.33 269.465 76.61C269.745 76.89 269.885 77.27 269.885 77.75V83H271.16V77.9C271.16 77.48 271.115 77.1 271.025 76.76C270.945 76.41 270.8 76.11 270.59 75.86C270.38 75.61 270.105 75.415 269.765 75.275C269.425 75.135 269 75.065 268.49 75.065C267.34 75.065 266.5 75.535 265.97 76.475H265.94V75.245H264.74ZM275.425 73.85V72.29H274.15V73.85H275.425ZM274.15 75.245V83H275.425V75.245H274.15ZM283.665 77.735H284.985C284.935 77.275 284.815 76.88 284.625 76.55C284.435 76.21 284.19 75.93 283.89 75.71C283.6 75.49 283.26 75.33 282.87 75.23C282.49 75.12 282.08 75.065 281.64 75.065C281.03 75.065 280.495 75.175 280.035 75.395C279.575 75.605 279.19 75.9 278.88 76.28C278.58 76.65 278.355 77.09 278.205 77.6C278.055 78.1 277.98 78.64 277.98 79.22C277.98 79.8 278.055 80.335 278.205 80.825C278.365 81.305 278.595 81.72 278.895 82.07C279.205 82.42 279.585 82.69 280.035 82.88C280.495 83.07 281.02 83.165 281.61 83.165C282.6 83.165 283.38 82.905 283.95 82.385C284.53 81.865 284.89 81.125 285.03 80.165H283.725C283.645 80.765 283.425 81.23 283.065 81.56C282.715 81.89 282.225 82.055 281.595 82.055C281.195 82.055 280.85 81.975 280.56 81.815C280.27 81.655 280.035 81.445 279.855 81.185C279.675 80.915 279.54 80.61 279.45 80.27C279.37 79.93 279.33 79.58 279.33 79.22C279.33 78.83 279.37 78.455 279.45 78.095C279.53 77.725 279.66 77.4 279.84 77.12C280.03 76.84 280.28 76.615 280.59 76.445C280.9 76.275 281.285 76.19 281.745 76.19C282.285 76.19 282.715 76.325 283.035 76.595C283.355 76.865 283.565 77.245 283.665 77.735ZM294.327 82.97C294.107 83.1 293.802 83.165 293.412 83.165C293.082 83.165 292.817 83.075 292.617 82.895C292.427 82.705 292.332 82.4 292.332 81.98C291.982 82.4 291.572 82.705 291.102 82.895C290.642 83.075 290.142 83.165 289.602 83.165C289.252 83.165 288.917 83.125 288.597 83.045C288.287 82.965 288.017 82.84 287.787 82.67C287.557 82.5 287.372 82.28 287.232 82.01C287.102 81.73 287.037 81.395 287.037 81.005C287.037 80.565 287.112 80.205 287.262 79.925C287.412 79.645 287.607 79.42 287.847 79.25C288.097 79.07 288.377 78.935 288.687 78.845C289.007 78.755 289.332 78.68 289.662 78.62C290.012 78.55 290.342 78.5 290.652 78.47C290.972 78.43 291.252 78.38 291.492 78.32C291.732 78.25 291.922 78.155 292.062 78.035C292.202 77.905 292.272 77.72 292.272 77.48C292.272 77.2 292.217 76.975 292.107 76.805C292.007 76.635 291.872 76.505 291.702 76.415C291.542 76.325 291.357 76.265 291.147 76.235C290.947 76.205 290.747 76.19 290.547 76.19C290.007 76.19 289.557 76.295 289.197 76.505C288.837 76.705 288.642 77.09 288.612 77.66H287.337C287.357 77.18 287.457 76.775 287.637 76.445C287.817 76.115 288.057 75.85 288.357 75.65C288.657 75.44 288.997 75.29 289.377 75.2C289.767 75.11 290.182 75.065 290.622 75.065C290.972 75.065 291.317 75.09 291.657 75.14C292.007 75.19 292.322 75.295 292.602 75.455C292.882 75.605 293.107 75.82 293.277 76.1C293.447 76.38 293.532 76.745 293.532 77.195V81.185C293.532 81.485 293.547 81.705 293.577 81.845C293.617 81.985 293.737 82.055 293.937 82.055C294.047 82.055 294.177 82.03 294.327 81.98V82.97ZM292.257 78.995C292.097 79.115 291.887 79.205 291.627 79.265C291.367 79.315 291.092 79.36 290.802 79.4C290.522 79.43 290.237 79.47 289.947 79.52C289.657 79.56 289.397 79.63 289.167 79.73C288.937 79.83 288.747 79.975 288.597 80.165C288.457 80.345 288.387 80.595 288.387 80.915C288.387 81.125 288.427 81.305 288.507 81.455C288.597 81.595 288.707 81.71 288.837 81.8C288.977 81.89 289.137 81.955 289.317 81.995C289.497 82.035 289.687 82.055 289.887 82.055C290.307 82.055 290.667 82 290.967 81.89C291.267 81.77 291.512 81.625 291.702 81.455C291.892 81.275 292.032 81.085 292.122 80.885C292.212 80.675 292.257 80.48 292.257 80.3V78.995ZM298.284 75.245V72.92H297.009V75.245H295.689V76.37H297.009V81.305C297.009 81.665 297.044 81.955 297.114 82.175C297.184 82.395 297.289 82.565 297.429 82.685C297.579 82.805 297.769 82.89 297.999 82.94C298.239 82.98 298.524 83 298.854 83H299.829V81.875H299.244C299.044 81.875 298.879 81.87 298.749 81.86C298.629 81.84 298.534 81.805 298.464 81.755C298.394 81.705 298.344 81.635 298.314 81.545C298.294 81.455 298.284 81.335 298.284 81.185V76.37H299.829V75.245H298.284ZM303.595 73.85V72.29H302.32V73.85H303.595ZM302.32 75.245V83H303.595V75.245H302.32ZM307.5 79.13C307.5 78.66 307.56 78.245 307.68 77.885C307.81 77.515 307.985 77.205 308.205 76.955C308.425 76.705 308.68 76.515 308.97 76.385C309.27 76.255 309.585 76.19 309.915 76.19C310.245 76.19 310.555 76.255 310.845 76.385C311.145 76.515 311.405 76.705 311.625 76.955C311.845 77.205 312.015 77.515 312.135 77.885C312.265 78.245 312.33 78.66 312.33 79.13C312.33 79.6 312.265 80.02 312.135 80.39C312.015 80.75 311.845 81.055 311.625 81.305C311.405 81.545 311.145 81.73 310.845 81.86C310.555 81.99 310.245 82.055 309.915 82.055C309.585 82.055 309.27 81.99 308.97 81.86C308.68 81.73 308.425 81.545 308.205 81.305C307.985 81.055 307.81 80.75 307.68 80.39C307.56 80.02 307.5 79.6 307.5 79.13ZM306.15 79.13C306.15 79.7 306.23 80.23 306.39 80.72C306.55 81.21 306.79 81.64 307.11 82.01C307.43 82.37 307.825 82.655 308.295 82.865C308.765 83.065 309.305 83.165 309.915 83.165C310.535 83.165 311.075 83.065 311.535 82.865C312.005 82.655 312.4 82.37 312.72 82.01C313.04 81.64 313.28 81.21 313.44 80.72C313.6 80.23 313.68 79.7 313.68 79.13C313.68 78.56 313.6 78.03 313.44 77.54C313.28 77.04 313.04 76.61 312.72 76.25C312.4 75.88 312.005 75.59 311.535 75.38C311.075 75.17 310.535 75.065 309.915 75.065C309.305 75.065 308.765 75.17 308.295 75.38C307.825 75.59 307.43 75.88 307.11 76.25C306.79 76.61 306.55 77.04 306.39 77.54C306.23 78.03 306.15 78.56 306.15 79.13ZM316.184 75.245V83H317.459V78.62C317.459 78.27 317.504 77.95 317.594 77.66C317.694 77.36 317.839 77.1 318.029 76.88C318.219 76.66 318.454 76.49 318.734 76.37C319.024 76.25 319.364 76.19 319.754 76.19C320.244 76.19 320.629 76.33 320.909 76.61C321.189 76.89 321.329 77.27 321.329 77.75V83H322.604V77.9C322.604 77.48 322.559 77.1 322.469 76.76C322.389 76.41 322.244 76.11 322.034 75.86C321.824 75.61 321.549 75.415 321.209 75.275C320.869 75.135 320.444 75.065 319.934 75.065C318.784 75.065 317.944 75.535 317.414 76.475H317.384V75.245H316.184Z" fill="#333333"/>
</g>
<defs>
<clipPath id="clip0">
<rect width="256" height="74" fill="white" transform="translate(112 16)"/>
</clipPath>
</defs>
</svg>
