<svg width="384" height="106" viewBox="0 0 384 106" fill="none" xmlns="http://www.w3.org/2000/svg">
<path d="M0 8C0 3.58172 3.58172 0 8 0H376C380.418 0 384 3.58172 384 8V98C384 102.418 380.418 106 376 106H7.99999C3.58171 106 0 102.418 0 98V8Z" fill="#FCF8E3"/>
<path d="M46.2311 50.9378L54.3778 42.4405C54.9409 41.8532 55.8514 41.8532 56.4084 42.4405L57.7622 43.8525C58.3253 44.4399 58.3253 45.3896 57.7622 45.9706L51.9937 52L57.7682 58.0231C58.3313 58.6104 58.3313 59.5601 57.7682 60.1412L56.4144 61.5595C55.8514 62.1468 54.9409 62.1468 54.3838 61.5595L46.2371 53.0622C45.6681 52.4749 45.6681 51.5251 46.2311 50.9378Z" fill="#333333"/>
<path d="M113.242 19.148V32H115.888V22.982H115.924L119.074 32H121.252L124.402 22.892H124.438V32H127.084V19.148H123.106L120.262 27.986H120.226L117.22 19.148H113.242ZM129.752 19.148V32H139.508V29.624H132.578V26.474H138.806V24.278H132.578V21.524H139.364V19.148H129.752ZM144.43 29.624V21.524H146.446C147.142 21.524 147.724 21.626 148.192 21.83C148.672 22.022 149.056 22.304 149.344 22.676C149.632 23.048 149.836 23.498 149.956 24.026C150.088 24.542 150.154 25.124 150.154 25.772C150.154 26.48 150.064 27.08 149.884 27.572C149.704 28.064 149.464 28.466 149.164 28.778C148.864 29.078 148.522 29.294 148.138 29.426C147.754 29.558 147.358 29.624 146.95 29.624H144.43ZM141.604 19.148V32H147.148C148.132 32 148.984 31.838 149.704 31.514C150.436 31.178 151.042 30.722 151.522 30.146C152.014 29.57 152.38 28.886 152.62 28.094C152.86 27.302 152.98 26.438 152.98 25.502C152.98 24.434 152.83 23.504 152.53 22.712C152.242 21.92 151.834 21.26 151.306 20.732C150.79 20.204 150.172 19.808 149.452 19.544C148.744 19.28 147.976 19.148 147.148 19.148H141.604ZM155.126 19.148V32H157.952V19.148H155.126ZM171.522 27.14V19.148H168.696V27.14C168.696 28.1 168.504 28.808 168.12 29.264C167.736 29.708 167.04 29.93 166.032 29.93C165.456 29.93 164.994 29.852 164.646 29.696C164.31 29.528 164.046 29.318 163.854 29.066C163.662 28.802 163.536 28.502 163.476 28.166C163.416 27.83 163.386 27.488 163.386 27.14V19.148H160.56V27.14C160.56 28.892 161.034 30.188 161.982 31.028C162.942 31.868 164.292 32.288 166.032 32.288C167.748 32.288 169.092 31.868 170.064 31.028C171.036 30.176 171.522 28.88 171.522 27.14ZM174.136 19.148V32H176.782V22.982H176.818L179.968 32H182.146L185.296 22.892H185.332V32H187.978V19.148H184L181.156 27.986H181.12L178.114 19.148H174.136ZM199.418 18.842L194.414 32.288H196.448L201.47 18.842H199.418ZM207.885 19.148V32H210.531V22.982H210.567L213.717 32H215.895L219.045 22.892H219.081V32H221.727V19.148H217.749L214.905 27.986H214.869L211.863 19.148H207.885ZM227.222 29.624V21.524H229.238C229.934 21.524 230.516 21.626 230.984 21.83C231.464 22.022 231.848 22.304 232.136 22.676C232.424 23.048 232.628 23.498 232.748 24.026C232.88 24.542 232.946 25.124 232.946 25.772C232.946 26.48 232.856 27.08 232.676 27.572C232.496 28.064 232.256 28.466 231.956 28.778C231.656 29.078 231.314 29.294 230.93 29.426C230.546 29.558 230.15 29.624 229.742 29.624H227.222ZM224.396 19.148V32H229.94C230.924 32 231.776 31.838 232.496 31.514C233.228 31.178 233.834 30.722 234.314 30.146C234.806 29.57 235.172 28.886 235.412 28.094C235.652 27.302 235.772 26.438 235.772 25.502C235.772 24.434 235.622 23.504 235.322 22.712C235.034 21.92 234.626 21.26 234.098 20.732C233.582 20.204 232.964 19.808 232.244 19.544C231.536 19.28 230.768 19.148 229.94 19.148H224.396Z" fill="#333333"/>
<path d="M114.595 55.8V47.49H116.995C117.655 47.49 118.21 47.585 118.66 47.775C119.11 47.955 119.475 48.225 119.755 48.585C120.045 48.935 120.25 49.365 120.37 49.875C120.5 50.375 120.565 50.945 120.565 51.585C120.565 52.245 120.495 52.81 120.355 53.28C120.225 53.74 120.055 54.125 119.845 54.435C119.635 54.745 119.395 54.99 119.125 55.17C118.865 55.35 118.6 55.49 118.33 55.59C118.06 55.68 117.805 55.74 117.565 55.77C117.325 55.79 117.125 55.8 116.965 55.8H114.595ZM113.17 46.29V57H116.845C117.735 57 118.505 56.875 119.155 56.625C119.805 56.375 120.34 56.015 120.76 55.545C121.18 55.065 121.49 54.48 121.69 53.79C121.89 53.09 121.99 52.29 121.99 51.39C121.99 49.67 121.545 48.39 120.655 47.55C119.765 46.71 118.495 46.29 116.845 46.29H113.17ZM129.907 52.38H125.452C125.472 52.08 125.537 51.8 125.647 51.54C125.757 51.27 125.907 51.035 126.097 50.835C126.287 50.635 126.512 50.48 126.772 50.37C127.042 50.25 127.342 50.19 127.672 50.19C127.992 50.19 128.282 50.25 128.542 50.37C128.812 50.48 129.042 50.635 129.232 50.835C129.432 51.025 129.587 51.255 129.697 51.525C129.817 51.795 129.887 52.08 129.907 52.38ZM131.137 54.54H129.877C129.767 55.05 129.537 55.43 129.187 55.68C128.847 55.93 128.407 56.055 127.867 56.055C127.447 56.055 127.082 55.985 126.772 55.845C126.462 55.705 126.207 55.52 126.007 55.29C125.807 55.05 125.662 54.78 125.572 54.48C125.482 54.17 125.442 53.845 125.452 53.505H131.257C131.277 53.035 131.232 52.54 131.122 52.02C131.022 51.5 130.832 51.02 130.552 50.58C130.282 50.14 129.917 49.78 129.457 49.5C129.007 49.21 128.437 49.065 127.747 49.065C127.217 49.065 126.727 49.165 126.277 49.365C125.837 49.565 125.452 49.845 125.122 50.205C124.802 50.565 124.552 50.99 124.372 51.48C124.192 51.97 124.102 52.51 124.102 53.1C124.122 53.69 124.207 54.235 124.357 54.735C124.517 55.235 124.752 55.665 125.062 56.025C125.372 56.385 125.752 56.665 126.202 56.865C126.662 57.065 127.202 57.165 127.822 57.165C128.702 57.165 129.432 56.945 130.012 56.505C130.592 56.065 130.967 55.41 131.137 54.54ZM134.103 50.37V57H135.378V50.37H136.878V49.245H135.378V48.165C135.378 47.825 135.463 47.595 135.633 47.475C135.803 47.355 136.043 47.295 136.353 47.295C136.463 47.295 136.583 47.305 136.713 47.325C136.843 47.335 136.963 47.36 137.073 47.4V46.29C136.953 46.25 136.813 46.22 136.653 46.2C136.503 46.18 136.368 46.17 136.248 46.17C135.548 46.17 135.013 46.335 134.643 46.665C134.283 46.985 134.103 47.46 134.103 48.09V49.245H132.798V50.37H134.103ZM145.887 56.97C145.667 57.1 145.362 57.165 144.972 57.165C144.642 57.165 144.377 57.075 144.177 56.895C143.987 56.705 143.892 56.4 143.892 55.98C143.542 56.4 143.132 56.705 142.662 56.895C142.202 57.075 141.702 57.165 141.162 57.165C140.812 57.165 140.477 57.125 140.157 57.045C139.847 56.965 139.577 56.84 139.347 56.67C139.117 56.5 138.932 56.28 138.792 56.01C138.662 55.73 138.597 55.395 138.597 55.005C138.597 54.565 138.672 54.205 138.822 53.925C138.972 53.645 139.167 53.42 139.407 53.25C139.657 53.07 139.937 52.935 140.247 52.845C140.567 52.755 140.892 52.68 141.222 52.62C141.572 52.55 141.902 52.5 142.212 52.47C142.532 52.43 142.812 52.38 143.052 52.32C143.292 52.25 143.482 52.155 143.622 52.035C143.762 51.905 143.832 51.72 143.832 51.48C143.832 51.2 143.777 50.975 143.667 50.805C143.567 50.635 143.432 50.505 143.262 50.415C143.102 50.325 142.917 50.265 142.707 50.235C142.507 50.205 142.307 50.19 142.107 50.19C141.567 50.19 141.117 50.295 140.757 50.505C140.397 50.705 140.202 51.09 140.172 51.66H138.897C138.917 51.18 139.017 50.775 139.197 50.445C139.377 50.115 139.617 49.85 139.917 49.65C140.217 49.44 140.557 49.29 140.937 49.2C141.327 49.11 141.742 49.065 142.182 49.065C142.532 49.065 142.877 49.09 143.217 49.14C143.567 49.19 143.882 49.295 144.162 49.455C144.442 49.605 144.667 49.82 144.837 50.1C145.007 50.38 145.092 50.745 145.092 51.195V55.185C145.092 55.485 145.107 55.705 145.137 55.845C145.177 55.985 145.297 56.055 145.497 56.055C145.607 56.055 145.737 56.03 145.887 55.98V56.97ZM143.817 52.995C143.657 53.115 143.447 53.205 143.187 53.265C142.927 53.315 142.652 53.36 142.362 53.4C142.082 53.43 141.797 53.47 141.507 53.52C141.217 53.56 140.957 53.63 140.727 53.73C140.497 53.83 140.307 53.975 140.157 54.165C140.017 54.345 139.947 54.595 139.947 54.915C139.947 55.125 139.987 55.305 140.067 55.455C140.157 55.595 140.267 55.71 140.397 55.8C140.537 55.89 140.697 55.955 140.877 55.995C141.057 56.035 141.247 56.055 141.447 56.055C141.867 56.055 142.227 56 142.527 55.89C142.827 55.77 143.072 55.625 143.262 55.455C143.452 55.275 143.592 55.085 143.682 54.885C143.772 54.675 143.817 54.48 143.817 54.3V52.995ZM154.493 57V49.245H153.218V53.625C153.218 53.975 153.168 54.3 153.068 54.6C152.978 54.89 152.838 55.145 152.648 55.365C152.458 55.585 152.218 55.755 151.928 55.875C151.648 55.995 151.313 56.055 150.923 56.055C150.433 56.055 150.048 55.915 149.768 55.635C149.488 55.355 149.348 54.975 149.348 54.495V49.245H148.073V54.345C148.073 54.765 148.113 55.15 148.193 55.5C148.283 55.84 148.433 56.135 148.643 56.385C148.853 56.635 149.128 56.83 149.468 56.97C149.808 57.1 150.233 57.165 150.743 57.165C151.313 57.165 151.808 57.055 152.228 56.835C152.648 56.605 152.993 56.25 153.263 55.77H153.293V57H154.493ZM157.483 46.29V57H158.758V46.29H157.483ZM163.503 49.245V46.92H162.228V49.245H160.908V50.37H162.228V55.305C162.228 55.665 162.263 55.955 162.333 56.175C162.403 56.395 162.508 56.565 162.648 56.685C162.798 56.805 162.988 56.89 163.218 56.94C163.458 56.98 163.743 57 164.073 57H165.048V55.875H164.463C164.263 55.875 164.098 55.87 163.968 55.86C163.848 55.84 163.753 55.805 163.683 55.755C163.613 55.705 163.563 55.635 163.533 55.545C163.513 55.455 163.503 55.335 163.503 55.185V50.37H165.048V49.245H163.503ZM173.165 50.37V57H174.44V50.37H175.94V49.245H174.44V48.165C174.44 47.825 174.525 47.595 174.695 47.475C174.865 47.355 175.105 47.295 175.415 47.295C175.525 47.295 175.645 47.305 175.775 47.325C175.905 47.335 176.025 47.36 176.135 47.4V46.29C176.015 46.25 175.875 46.22 175.715 46.2C175.565 46.18 175.43 46.17 175.31 46.17C174.61 46.17 174.075 46.335 173.705 46.665C173.345 46.985 173.165 47.46 173.165 48.09V49.245H171.86V50.37H173.165ZM179.008 53.13C179.008 52.66 179.068 52.245 179.188 51.885C179.318 51.515 179.493 51.205 179.713 50.955C179.933 50.705 180.188 50.515 180.478 50.385C180.778 50.255 181.093 50.19 181.423 50.19C181.753 50.19 182.063 50.255 182.353 50.385C182.653 50.515 182.913 50.705 183.133 50.955C183.353 51.205 183.523 51.515 183.643 51.885C183.773 52.245 183.838 52.66 183.838 53.13C183.838 53.6 183.773 54.02 183.643 54.39C183.523 54.75 183.353 55.055 183.133 55.305C182.913 55.545 182.653 55.73 182.353 55.86C182.063 55.99 181.753 56.055 181.423 56.055C181.093 56.055 180.778 55.99 180.478 55.86C180.188 55.73 179.933 55.545 179.713 55.305C179.493 55.055 179.318 54.75 179.188 54.39C179.068 54.02 179.008 53.6 179.008 53.13ZM177.658 53.13C177.658 53.7 177.738 54.23 177.898 54.72C178.058 55.21 178.298 55.64 178.618 56.01C178.938 56.37 179.333 56.655 179.803 56.865C180.273 57.065 180.813 57.165 181.423 57.165C182.043 57.165 182.583 57.065 183.043 56.865C183.513 56.655 183.908 56.37 184.228 56.01C184.548 55.64 184.788 55.21 184.948 54.72C185.108 54.23 185.188 53.7 185.188 53.13C185.188 52.56 185.108 52.03 184.948 51.54C184.788 51.04 184.548 50.61 184.228 50.25C183.908 49.88 183.513 49.59 183.043 49.38C182.583 49.17 182.043 49.065 181.423 49.065C180.813 49.065 180.273 49.17 179.803 49.38C179.333 49.59 178.938 49.88 178.618 50.25C178.298 50.61 178.058 51.04 177.898 51.54C177.738 52.03 177.658 52.56 177.658 53.13ZM187.646 49.245V57H188.921V53.55C188.921 53.05 188.971 52.61 189.071 52.23C189.171 51.84 189.331 51.51 189.551 51.24C189.771 50.97 190.061 50.765 190.421 50.625C190.781 50.485 191.216 50.415 191.726 50.415V49.065C191.036 49.045 190.466 49.185 190.016 49.485C189.566 49.785 189.186 50.25 188.876 50.88H188.846V49.245H187.646ZM206.541 57L209.016 49.245H207.696L205.956 55.59H205.926L204.306 49.245H202.911L201.351 55.59H201.321L199.566 49.245H198.156L200.646 57H202.026L203.586 50.835H203.616L205.191 57H206.541ZM216.614 52.38H212.159C212.179 52.08 212.244 51.8 212.354 51.54C212.464 51.27 212.614 51.035 212.804 50.835C212.994 50.635 213.219 50.48 213.479 50.37C213.749 50.25 214.049 50.19 214.379 50.19C214.699 50.19 214.989 50.25 215.249 50.37C215.519 50.48 215.749 50.635 215.939 50.835C216.139 51.025 216.294 51.255 216.404 51.525C216.524 51.795 216.594 52.08 216.614 52.38ZM217.844 54.54H216.584C216.474 55.05 216.244 55.43 215.894 55.68C215.554 55.93 215.114 56.055 214.574 56.055C214.154 56.055 213.789 55.985 213.479 55.845C213.169 55.705 212.914 55.52 212.714 55.29C212.514 55.05 212.369 54.78 212.279 54.48C212.189 54.17 212.149 53.845 212.159 53.505H217.964C217.984 53.035 217.939 52.54 217.829 52.02C217.729 51.5 217.539 51.02 217.259 50.58C216.989 50.14 216.624 49.78 216.164 49.5C215.714 49.21 215.144 49.065 214.454 49.065C213.924 49.065 213.434 49.165 212.984 49.365C212.544 49.565 212.159 49.845 211.829 50.205C211.509 50.565 211.259 50.99 211.079 51.48C210.899 51.97 210.809 52.51 210.809 53.1C210.829 53.69 210.914 54.235 211.064 54.735C211.224 55.235 211.459 55.665 211.769 56.025C212.079 56.385 212.459 56.665 212.909 56.865C213.369 57.065 213.909 57.165 214.529 57.165C215.409 57.165 216.139 56.945 216.719 56.505C217.299 56.065 217.674 55.41 217.844 54.54ZM220.33 46.29V57H221.605V55.965H221.635C221.775 56.195 221.945 56.39 222.145 56.55C222.355 56.7 222.575 56.82 222.805 56.91C223.035 57 223.265 57.065 223.495 57.105C223.735 57.145 223.95 57.165 224.14 57.165C224.73 57.165 225.245 57.06 225.685 56.85C226.135 56.64 226.505 56.355 226.795 55.995C227.095 55.625 227.315 55.195 227.455 54.705C227.605 54.215 227.68 53.695 227.68 53.145C227.68 52.595 227.605 52.075 227.455 51.585C227.305 51.095 227.08 50.665 226.78 50.295C226.49 49.915 226.12 49.615 225.67 49.395C225.23 49.175 224.71 49.065 224.11 49.065C223.57 49.065 223.075 49.165 222.625 49.365C222.175 49.555 221.845 49.865 221.635 50.295H221.605V46.29H220.33ZM226.33 53.055C226.33 53.435 226.29 53.805 226.21 54.165C226.13 54.525 226 54.845 225.82 55.125C225.64 55.405 225.4 55.63 225.1 55.8C224.81 55.97 224.445 56.055 224.005 56.055C223.565 56.055 223.19 55.975 222.88 55.815C222.57 55.645 222.315 55.425 222.115 55.155C221.925 54.885 221.785 54.575 221.695 54.225C221.605 53.865 221.56 53.495 221.56 53.115C221.56 52.755 221.6 52.4 221.68 52.05C221.77 51.7 221.91 51.39 222.1 51.12C222.29 50.84 222.535 50.615 222.835 50.445C223.135 50.275 223.5 50.19 223.93 50.19C224.34 50.19 224.695 50.27 224.995 50.43C225.305 50.59 225.555 50.805 225.745 51.075C225.945 51.345 226.09 51.655 226.18 52.005C226.28 52.345 226.33 52.695 226.33 53.055ZM242.222 56.97C242.002 57.1 241.697 57.165 241.307 57.165C240.977 57.165 240.712 57.075 240.512 56.895C240.322 56.705 240.227 56.4 240.227 55.98C239.877 56.4 239.467 56.705 238.997 56.895C238.537 57.075 238.037 57.165 237.497 57.165C237.147 57.165 236.812 57.125 236.492 57.045C236.182 56.965 235.912 56.84 235.682 56.67C235.452 56.5 235.267 56.28 235.127 56.01C234.997 55.73 234.932 55.395 234.932 55.005C234.932 54.565 235.007 54.205 235.157 53.925C235.307 53.645 235.502 53.42 235.742 53.25C235.992 53.07 236.272 52.935 236.582 52.845C236.902 52.755 237.227 52.68 237.557 52.62C237.907 52.55 238.237 52.5 238.547 52.47C238.867 52.43 239.147 52.38 239.387 52.32C239.627 52.25 239.817 52.155 239.957 52.035C240.097 51.905 240.167 51.72 240.167 51.48C240.167 51.2 240.112 50.975 240.002 50.805C239.902 50.635 239.767 50.505 239.597 50.415C239.437 50.325 239.252 50.265 239.042 50.235C238.842 50.205 238.642 50.19 238.442 50.19C237.902 50.19 237.452 50.295 237.092 50.505C236.732 50.705 236.537 51.09 236.507 51.66H235.232C235.252 51.18 235.352 50.775 235.532 50.445C235.712 50.115 235.952 49.85 236.252 49.65C236.552 49.44 236.892 49.29 237.272 49.2C237.662 49.11 238.077 49.065 238.517 49.065C238.867 49.065 239.212 49.09 239.552 49.14C239.902 49.19 240.217 49.295 240.497 49.455C240.777 49.605 241.002 49.82 241.172 50.1C241.342 50.38 241.427 50.745 241.427 51.195V55.185C241.427 55.485 241.442 55.705 241.472 55.845C241.512 55.985 241.632 56.055 241.832 56.055C241.942 56.055 242.072 56.03 242.222 55.98V56.97ZM240.152 52.995C239.992 53.115 239.782 53.205 239.522 53.265C239.262 53.315 238.987 53.36 238.697 53.4C238.417 53.43 238.132 53.47 237.842 53.52C237.552 53.56 237.292 53.63 237.062 53.73C236.832 53.83 236.642 53.975 236.492 54.165C236.352 54.345 236.282 54.595 236.282 54.915C236.282 55.125 236.322 55.305 236.402 55.455C236.492 55.595 236.602 55.71 236.732 55.8C236.872 55.89 237.032 55.955 237.212 55.995C237.392 56.035 237.582 56.055 237.782 56.055C238.202 56.055 238.562 56 238.862 55.89C239.162 55.77 239.407 55.625 239.597 55.455C239.787 55.275 239.927 55.085 240.017 54.885C240.107 54.675 240.152 54.48 240.152 54.3V52.995ZM244.453 49.245V59.955H245.728V55.965H245.758C245.898 56.195 246.068 56.39 246.268 56.55C246.478 56.7 246.698 56.82 246.928 56.91C247.158 57 247.388 57.065 247.618 57.105C247.858 57.145 248.073 57.165 248.263 57.165C248.853 57.165 249.368 57.06 249.808 56.85C250.258 56.64 250.628 56.355 250.918 55.995C251.218 55.625 251.438 55.195 251.578 54.705C251.728 54.215 251.803 53.695 251.803 53.145C251.803 52.595 251.728 52.075 251.578 51.585C251.428 51.095 251.203 50.665 250.903 50.295C250.613 49.915 250.243 49.615 249.793 49.395C249.353 49.175 248.833 49.065 248.233 49.065C247.693 49.065 247.198 49.165 246.748 49.365C246.298 49.555 245.968 49.865 245.758 50.295H245.728V49.245H244.453ZM250.453 53.055C250.453 53.435 250.413 53.805 250.333 54.165C250.253 54.525 250.123 54.845 249.943 55.125C249.763 55.405 249.523 55.63 249.223 55.8C248.933 55.97 248.568 56.055 248.128 56.055C247.688 56.055 247.313 55.975 247.003 55.815C246.693 55.645 246.438 55.425 246.238 55.155C246.048 54.885 245.908 54.575 245.818 54.225C245.728 53.865 245.683 53.495 245.683 53.115C245.683 52.755 245.723 52.4 245.803 52.05C245.893 51.7 246.033 51.39 246.223 51.12C246.413 50.84 246.658 50.615 246.958 50.445C247.258 50.275 247.623 50.19 248.053 50.19C248.463 50.19 248.818 50.27 249.118 50.43C249.428 50.59 249.678 50.805 249.868 51.075C250.068 51.345 250.213 51.655 250.303 52.005C250.403 52.345 250.453 52.695 250.453 53.055ZM254.345 49.245V59.955H255.62V55.965H255.65C255.79 56.195 255.96 56.39 256.16 56.55C256.37 56.7 256.59 56.82 256.82 56.91C257.05 57 257.28 57.065 257.51 57.105C257.75 57.145 257.965 57.165 258.155 57.165C258.745 57.165 259.26 57.06 259.7 56.85C260.15 56.64 260.52 56.355 260.81 55.995C261.11 55.625 261.33 55.195 261.47 54.705C261.62 54.215 261.695 53.695 261.695 53.145C261.695 52.595 261.62 52.075 261.47 51.585C261.32 51.095 261.095 50.665 260.795 50.295C260.505 49.915 260.135 49.615 259.685 49.395C259.245 49.175 258.725 49.065 258.125 49.065C257.585 49.065 257.09 49.165 256.64 49.365C256.19 49.555 255.86 49.865 255.65 50.295H255.62V49.245H254.345ZM260.345 53.055C260.345 53.435 260.305 53.805 260.225 54.165C260.145 54.525 260.015 54.845 259.835 55.125C259.655 55.405 259.415 55.63 259.115 55.8C258.825 55.97 258.46 56.055 258.02 56.055C257.58 56.055 257.205 55.975 256.895 55.815C256.585 55.645 256.33 55.425 256.13 55.155C255.94 54.885 255.8 54.575 255.71 54.225C255.62 53.865 255.575 53.495 255.575 53.115C255.575 52.755 255.615 52.4 255.695 52.05C255.785 51.7 255.925 51.39 256.115 51.12C256.305 50.84 256.55 50.615 256.85 50.445C257.15 50.275 257.515 50.19 257.945 50.19C258.355 50.19 258.71 50.27 259.01 50.43C259.32 50.59 259.57 50.805 259.76 51.075C259.96 51.345 260.105 51.655 260.195 52.005C260.295 52.345 260.345 52.695 260.345 53.055ZM270.716 47.85V46.29H269.441V47.85H270.716ZM269.441 49.245V57H270.716V49.245H269.441ZM273.691 49.245V57H274.966V52.62C274.966 52.27 275.011 51.95 275.101 51.66C275.201 51.36 275.346 51.1 275.536 50.88C275.726 50.66 275.961 50.49 276.241 50.37C276.531 50.25 276.871 50.19 277.261 50.19C277.751 50.19 278.136 50.33 278.416 50.61C278.696 50.89 278.836 51.27 278.836 51.75V57H280.111V51.9C280.111 51.48 280.066 51.1 279.976 50.76C279.896 50.41 279.751 50.11 279.541 49.86C279.331 49.61 279.056 49.415 278.716 49.275C278.376 49.135 277.951 49.065 277.441 49.065C276.291 49.065 275.451 49.535 274.921 50.475H274.891V49.245H273.691ZM283.956 53.19C283.956 52.81 283.996 52.44 284.076 52.08C284.156 51.72 284.286 51.4 284.466 51.12C284.646 50.84 284.886 50.615 285.186 50.445C285.486 50.275 285.851 50.19 286.281 50.19C286.721 50.19 287.096 50.275 287.406 50.445C287.716 50.605 287.966 50.82 288.156 51.09C288.356 51.36 288.501 51.675 288.591 52.035C288.681 52.385 288.726 52.75 288.726 53.13C288.726 53.49 288.681 53.845 288.591 54.195C288.511 54.545 288.376 54.86 288.186 55.14C287.996 55.41 287.751 55.63 287.451 55.8C287.151 55.97 286.786 56.055 286.356 56.055C285.946 56.055 285.586 55.975 285.276 55.815C284.976 55.655 284.726 55.44 284.526 55.17C284.336 54.9 284.191 54.595 284.091 54.255C284.001 53.905 283.956 53.55 283.956 53.19ZM289.956 57V46.29H288.681V50.28H288.651C288.511 50.05 288.336 49.86 288.126 49.71C287.926 49.55 287.711 49.425 287.481 49.335C287.251 49.235 287.021 49.165 286.791 49.125C286.561 49.085 286.346 49.065 286.146 49.065C285.556 49.065 285.036 49.175 284.586 49.395C284.146 49.605 283.776 49.895 283.476 50.265C283.186 50.625 282.966 51.05 282.816 51.54C282.676 52.03 282.606 52.55 282.606 53.1C282.606 53.65 282.681 54.17 282.831 54.66C282.981 55.15 283.201 55.58 283.491 55.95C283.791 56.32 284.161 56.615 284.601 56.835C285.051 57.055 285.576 57.165 286.176 57.165C286.716 57.165 287.211 57.07 287.661 56.88C288.111 56.69 288.441 56.38 288.651 55.95H288.681V57H289.956ZM294.268 47.85V46.29H292.993V47.85H294.268ZM292.993 49.245V57H294.268V49.245H292.993ZM302.508 51.735H303.828C303.778 51.275 303.658 50.88 303.468 50.55C303.278 50.21 303.033 49.93 302.733 49.71C302.443 49.49 302.103 49.33 301.713 49.23C301.333 49.12 300.923 49.065 300.483 49.065C299.873 49.065 299.338 49.175 298.878 49.395C298.418 49.605 298.033 49.9 297.723 50.28C297.423 50.65 297.198 51.09 297.048 51.6C296.898 52.1 296.823 52.64 296.823 53.22C296.823 53.8 296.898 54.335 297.048 54.825C297.208 55.305 297.438 55.72 297.738 56.07C298.048 56.42 298.428 56.69 298.878 56.88C299.338 57.07 299.863 57.165 300.453 57.165C301.443 57.165 302.223 56.905 302.793 56.385C303.373 55.865 303.733 55.125 303.873 54.165H302.568C302.488 54.765 302.268 55.23 301.908 55.56C301.558 55.89 301.068 56.055 300.438 56.055C300.038 56.055 299.693 55.975 299.403 55.815C299.113 55.655 298.878 55.445 298.698 55.185C298.518 54.915 298.383 54.61 298.293 54.27C298.213 53.93 298.173 53.58 298.173 53.22C298.173 52.83 298.213 52.455 298.293 52.095C298.373 51.725 298.503 51.4 298.683 51.12C298.873 50.84 299.123 50.615 299.433 50.445C299.743 50.275 300.128 50.19 300.588 50.19C301.128 50.19 301.558 50.325 301.878 50.595C302.198 50.865 302.408 51.245 302.508 51.735ZM313.17 56.97C312.95 57.1 312.645 57.165 312.255 57.165C311.925 57.165 311.66 57.075 311.46 56.895C311.27 56.705 311.175 56.4 311.175 55.98C310.825 56.4 310.415 56.705 309.945 56.895C309.485 57.075 308.985 57.165 308.445 57.165C308.095 57.165 307.76 57.125 307.44 57.045C307.13 56.965 306.86 56.84 306.63 56.67C306.4 56.5 306.215 56.28 306.075 56.01C305.945 55.73 305.88 55.395 305.88 55.005C305.88 54.565 305.955 54.205 306.105 53.925C306.255 53.645 306.45 53.42 306.69 53.25C306.94 53.07 307.22 52.935 307.53 52.845C307.85 52.755 308.175 52.68 308.505 52.62C308.855 52.55 309.185 52.5 309.495 52.47C309.815 52.43 310.095 52.38 310.335 52.32C310.575 52.25 310.765 52.155 310.905 52.035C311.045 51.905 311.115 51.72 311.115 51.48C311.115 51.2 311.06 50.975 310.95 50.805C310.85 50.635 310.715 50.505 310.545 50.415C310.385 50.325 310.2 50.265 309.99 50.235C309.79 50.205 309.59 50.19 309.39 50.19C308.85 50.19 308.4 50.295 308.04 50.505C307.68 50.705 307.485 51.09 307.455 51.66H306.18C306.2 51.18 306.3 50.775 306.48 50.445C306.66 50.115 306.9 49.85 307.2 49.65C307.5 49.44 307.84 49.29 308.22 49.2C308.61 49.11 309.025 49.065 309.465 49.065C309.815 49.065 310.16 49.09 310.5 49.14C310.85 49.19 311.165 49.295 311.445 49.455C311.725 49.605 311.95 49.82 312.12 50.1C312.29 50.38 312.375 50.745 312.375 51.195V55.185C312.375 55.485 312.39 55.705 312.42 55.845C312.46 55.985 312.58 56.055 312.78 56.055C312.89 56.055 313.02 56.03 313.17 55.98V56.97ZM311.1 52.995C310.94 53.115 310.73 53.205 310.47 53.265C310.21 53.315 309.935 53.36 309.645 53.4C309.365 53.43 309.08 53.47 308.79 53.52C308.5 53.56 308.24 53.63 308.01 53.73C307.78 53.83 307.59 53.975 307.44 54.165C307.3 54.345 307.23 54.595 307.23 54.915C307.23 55.125 307.27 55.305 307.35 55.455C307.44 55.595 307.55 55.71 307.68 55.8C307.82 55.89 307.98 55.955 308.16 55.995C308.34 56.035 308.53 56.055 308.73 56.055C309.15 56.055 309.51 56 309.81 55.89C310.11 55.77 310.355 55.625 310.545 55.455C310.735 55.275 310.875 55.085 310.965 54.885C311.055 54.675 311.1 54.48 311.1 54.3V52.995ZM317.126 49.245V46.92H315.851V49.245H314.531V50.37H315.851V55.305C315.851 55.665 315.886 55.955 315.956 56.175C316.026 56.395 316.131 56.565 316.271 56.685C316.421 56.805 316.611 56.89 316.841 56.94C317.081 56.98 317.366 57 317.696 57H318.671V55.875H318.086C317.886 55.875 317.721 55.87 317.591 55.86C317.471 55.84 317.376 55.805 317.306 55.755C317.236 55.705 317.186 55.635 317.156 55.545C317.136 55.455 317.126 55.335 317.126 55.185V50.37H318.671V49.245H317.126ZM322.018 53.13C322.018 52.66 322.078 52.245 322.198 51.885C322.328 51.515 322.503 51.205 322.723 50.955C322.943 50.705 323.198 50.515 323.488 50.385C323.788 50.255 324.103 50.19 324.433 50.19C324.763 50.19 325.073 50.255 325.363 50.385C325.663 50.515 325.923 50.705 326.143 50.955C326.363 51.205 326.533 51.515 326.653 51.885C326.783 52.245 326.848 52.66 326.848 53.13C326.848 53.6 326.783 54.02 326.653 54.39C326.533 54.75 326.363 55.055 326.143 55.305C325.923 55.545 325.663 55.73 325.363 55.86C325.073 55.99 324.763 56.055 324.433 56.055C324.103 56.055 323.788 55.99 323.488 55.86C323.198 55.73 322.943 55.545 322.723 55.305C322.503 55.055 322.328 54.75 322.198 54.39C322.078 54.02 322.018 53.6 322.018 53.13ZM320.668 53.13C320.668 53.7 320.748 54.23 320.908 54.72C321.068 55.21 321.308 55.64 321.628 56.01C321.948 56.37 322.343 56.655 322.813 56.865C323.283 57.065 323.823 57.165 324.433 57.165C325.053 57.165 325.593 57.065 326.053 56.865C326.523 56.655 326.918 56.37 327.238 56.01C327.558 55.64 327.798 55.21 327.958 54.72C328.118 54.23 328.198 53.7 328.198 53.13C328.198 52.56 328.118 52.03 327.958 51.54C327.798 51.04 327.558 50.61 327.238 50.25C326.918 49.88 326.523 49.59 326.053 49.38C325.593 49.17 325.053 49.065 324.433 49.065C323.823 49.065 323.283 49.17 322.813 49.38C322.343 49.59 321.948 49.88 321.628 50.25C321.308 50.61 321.068 51.04 320.908 51.54C320.748 52.03 320.668 52.56 320.668 53.13ZM330.656 49.245V57H331.931V53.55C331.931 53.05 331.981 52.61 332.081 52.23C332.181 51.84 332.341 51.51 332.561 51.24C332.781 50.97 333.071 50.765 333.431 50.625C333.791 50.485 334.226 50.415 334.736 50.415V49.065C334.046 49.045 333.476 49.185 333.026 49.485C332.576 49.785 332.196 50.25 331.886 50.88H331.856V49.245H330.656ZM337.476 54.555H336.201C336.221 55.035 336.321 55.445 336.501 55.785C336.681 56.115 336.921 56.385 337.221 56.595C337.521 56.795 337.866 56.94 338.256 57.03C338.646 57.12 339.056 57.165 339.486 57.165C339.876 57.165 340.266 57.125 340.656 57.045C341.056 56.975 341.411 56.845 341.721 56.655C342.041 56.465 342.296 56.215 342.486 55.905C342.686 55.595 342.786 55.205 342.786 54.735C342.786 54.365 342.711 54.055 342.561 53.805C342.421 53.555 342.231 53.35 341.991 53.19C341.761 53.02 341.491 52.885 341.181 52.785C340.881 52.685 340.571 52.6 340.251 52.53C339.951 52.46 339.651 52.395 339.351 52.335C339.051 52.265 338.781 52.185 338.541 52.095C338.301 51.995 338.101 51.875 337.941 51.735C337.791 51.585 337.716 51.4 337.716 51.18C337.716 50.98 337.766 50.82 337.866 50.7C337.966 50.57 338.096 50.47 338.256 50.4C338.416 50.32 338.591 50.265 338.781 50.235C338.981 50.205 339.176 50.19 339.366 50.19C339.576 50.19 339.781 50.215 339.981 50.265C340.191 50.305 340.381 50.375 340.551 50.475C340.721 50.575 340.861 50.71 340.971 50.88C341.081 51.04 341.146 51.245 341.166 51.495H342.441C342.411 51.025 342.311 50.635 342.141 50.325C341.971 50.005 341.741 49.755 341.451 49.575C341.171 49.385 340.846 49.255 340.476 49.185C340.106 49.105 339.701 49.065 339.261 49.065C338.921 49.065 338.576 49.11 338.226 49.2C337.886 49.28 337.576 49.41 337.296 49.59C337.026 49.76 336.801 49.985 336.621 50.265C336.451 50.545 336.366 50.88 336.366 51.27C336.366 51.77 336.491 52.16 336.741 52.44C336.991 52.72 337.301 52.94 337.671 53.1C338.051 53.25 338.461 53.37 338.901 53.46C339.341 53.54 339.746 53.635 340.116 53.745C340.496 53.845 340.811 53.98 341.061 54.15C341.311 54.32 341.436 54.57 341.436 54.9C341.436 55.14 341.376 55.34 341.256 55.5C341.136 55.65 340.981 55.765 340.791 55.845C340.611 55.925 340.411 55.98 340.191 56.01C339.971 56.04 339.761 56.055 339.561 56.055C339.301 56.055 339.046 56.03 338.796 55.98C338.556 55.93 338.336 55.85 338.136 55.74C337.946 55.62 337.791 55.465 337.671 55.275C337.551 55.075 337.486 54.835 337.476 54.555ZM119.83 82.97C119.61 83.1 119.305 83.165 118.915 83.165C118.585 83.165 118.32 83.075 118.12 82.895C117.93 82.705 117.835 82.4 117.835 81.98C117.485 82.4 117.075 82.705 116.605 82.895C116.145 83.075 115.645 83.165 115.105 83.165C114.755 83.165 114.42 83.125 114.1 83.045C113.79 82.965 113.52 82.84 113.29 82.67C113.06 82.5 112.875 82.28 112.735 82.01C112.605 81.73 112.54 81.395 112.54 81.005C112.54 80.565 112.615 80.205 112.765 79.925C112.915 79.645 113.11 79.42 113.35 79.25C113.6 79.07 113.88 78.935 114.19 78.845C114.51 78.755 114.835 78.68 115.165 78.62C115.515 78.55 115.845 78.5 116.155 78.47C116.475 78.43 116.755 78.38 116.995 78.32C117.235 78.25 117.425 78.155 117.565 78.035C117.705 77.905 117.775 77.72 117.775 77.48C117.775 77.2 117.72 76.975 117.61 76.805C117.51 76.635 117.375 76.505 117.205 76.415C117.045 76.325 116.86 76.265 116.65 76.235C116.45 76.205 116.25 76.19 116.05 76.19C115.51 76.19 115.06 76.295 114.7 76.505C114.34 76.705 114.145 77.09 114.115 77.66H112.84C112.86 77.18 112.96 76.775 113.14 76.445C113.32 76.115 113.56 75.85 113.86 75.65C114.16 75.44 114.5 75.29 114.88 75.2C115.27 75.11 115.685 75.065 116.125 75.065C116.475 75.065 116.82 75.09 117.16 75.14C117.51 75.19 117.825 75.295 118.105 75.455C118.385 75.605 118.61 75.82 118.78 76.1C118.95 76.38 119.035 76.745 119.035 77.195V81.185C119.035 81.485 119.05 81.705 119.08 81.845C119.12 81.985 119.24 82.055 119.44 82.055C119.55 82.055 119.68 82.03 119.83 81.98V82.97ZM117.76 78.995C117.6 79.115 117.39 79.205 117.13 79.265C116.87 79.315 116.595 79.36 116.305 79.4C116.025 79.43 115.74 79.47 115.45 79.52C115.16 79.56 114.9 79.63 114.67 79.73C114.44 79.83 114.25 79.975 114.1 80.165C113.96 80.345 113.89 80.595 113.89 80.915C113.89 81.125 113.93 81.305 114.01 81.455C114.1 81.595 114.21 81.71 114.34 81.8C114.48 81.89 114.64 81.955 114.82 81.995C115 82.035 115.19 82.055 115.39 82.055C115.81 82.055 116.17 82 116.47 81.89C116.77 81.77 117.015 81.625 117.205 81.455C117.395 81.275 117.535 81.085 117.625 80.885C117.715 80.675 117.76 80.48 117.76 80.3V78.995ZM122.017 75.245V83H123.292V78.62C123.292 78.27 123.337 77.95 123.427 77.66C123.527 77.36 123.672 77.1 123.862 76.88C124.052 76.66 124.287 76.49 124.567 76.37C124.857 76.25 125.197 76.19 125.587 76.19C126.077 76.19 126.462 76.33 126.742 76.61C127.022 76.89 127.162 77.27 127.162 77.75V83H128.437V77.9C128.437 77.48 128.392 77.1 128.302 76.76C128.222 76.41 128.077 76.11 127.867 75.86C127.657 75.61 127.382 75.415 127.042 75.275C126.702 75.135 126.277 75.065 125.767 75.065C124.617 75.065 123.777 75.535 123.247 76.475H123.217V75.245H122.017ZM132.282 79.19C132.282 78.81 132.322 78.44 132.402 78.08C132.482 77.72 132.612 77.4 132.792 77.12C132.972 76.84 133.212 76.615 133.512 76.445C133.812 76.275 134.177 76.19 134.607 76.19C135.047 76.19 135.422 76.275 135.732 76.445C136.042 76.605 136.292 76.82 136.482 77.09C136.682 77.36 136.827 77.675 136.917 78.035C137.007 78.385 137.052 78.75 137.052 79.13C137.052 79.49 137.007 79.845 136.917 80.195C136.837 80.545 136.702 80.86 136.512 81.14C136.322 81.41 136.077 81.63 135.777 81.8C135.477 81.97 135.112 82.055 134.682 82.055C134.272 82.055 133.912 81.975 133.602 81.815C133.302 81.655 133.052 81.44 132.852 81.17C132.662 80.9 132.517 80.595 132.417 80.255C132.327 79.905 132.282 79.55 132.282 79.19ZM138.282 83V72.29H137.007V76.28H136.977C136.837 76.05 136.662 75.86 136.452 75.71C136.252 75.55 136.037 75.425 135.807 75.335C135.577 75.235 135.347 75.165 135.117 75.125C134.887 75.085 134.672 75.065 134.472 75.065C133.882 75.065 133.362 75.175 132.912 75.395C132.472 75.605 132.102 75.895 131.802 76.265C131.512 76.625 131.292 77.05 131.142 77.54C131.002 78.03 130.932 78.55 130.932 79.1C130.932 79.65 131.007 80.17 131.157 80.66C131.307 81.15 131.527 81.58 131.817 81.95C132.117 82.32 132.487 82.615 132.927 82.835C133.377 83.055 133.902 83.165 134.502 83.165C135.042 83.165 135.537 83.07 135.987 82.88C136.437 82.69 136.767 82.38 136.977 81.95H137.007V83H138.282ZM147.768 73.85V72.29H146.493V73.85H147.768ZM146.493 75.245V83H147.768V75.245H146.493ZM156.008 77.735H157.328C157.278 77.275 157.158 76.88 156.968 76.55C156.778 76.21 156.533 75.93 156.233 75.71C155.943 75.49 155.603 75.33 155.213 75.23C154.833 75.12 154.423 75.065 153.983 75.065C153.373 75.065 152.838 75.175 152.378 75.395C151.918 75.605 151.533 75.9 151.223 76.28C150.923 76.65 150.698 77.09 150.548 77.6C150.398 78.1 150.323 78.64 150.323 79.22C150.323 79.8 150.398 80.335 150.548 80.825C150.708 81.305 150.938 81.72 151.238 82.07C151.548 82.42 151.928 82.69 152.378 82.88C152.838 83.07 153.363 83.165 153.953 83.165C154.943 83.165 155.723 82.905 156.293 82.385C156.873 81.865 157.233 81.125 157.373 80.165H156.068C155.988 80.765 155.768 81.23 155.408 81.56C155.058 81.89 154.568 82.055 153.938 82.055C153.538 82.055 153.193 81.975 152.903 81.815C152.613 81.655 152.378 81.445 152.198 81.185C152.018 80.915 151.883 80.61 151.793 80.27C151.713 79.93 151.673 79.58 151.673 79.22C151.673 78.83 151.713 78.455 151.793 78.095C151.873 77.725 152.003 77.4 152.183 77.12C152.373 76.84 152.623 76.615 152.933 76.445C153.243 76.275 153.628 76.19 154.088 76.19C154.628 76.19 155.058 76.325 155.378 76.595C155.698 76.865 155.908 77.245 156.008 77.735ZM160.73 79.13C160.73 78.66 160.79 78.245 160.91 77.885C161.04 77.515 161.215 77.205 161.435 76.955C161.655 76.705 161.91 76.515 162.2 76.385C162.5 76.255 162.815 76.19 163.145 76.19C163.475 76.19 163.785 76.255 164.075 76.385C164.375 76.515 164.635 76.705 164.855 76.955C165.075 77.205 165.245 77.515 165.365 77.885C165.495 78.245 165.56 78.66 165.56 79.13C165.56 79.6 165.495 80.02 165.365 80.39C165.245 80.75 165.075 81.055 164.855 81.305C164.635 81.545 164.375 81.73 164.075 81.86C163.785 81.99 163.475 82.055 163.145 82.055C162.815 82.055 162.5 81.99 162.2 81.86C161.91 81.73 161.655 81.545 161.435 81.305C161.215 81.055 161.04 80.75 160.91 80.39C160.79 80.02 160.73 79.6 160.73 79.13ZM159.38 79.13C159.38 79.7 159.46 80.23 159.62 80.72C159.78 81.21 160.02 81.64 160.34 82.01C160.66 82.37 161.055 82.655 161.525 82.865C161.995 83.065 162.535 83.165 163.145 83.165C163.765 83.165 164.305 83.065 164.765 82.865C165.235 82.655 165.63 82.37 165.95 82.01C166.27 81.64 166.51 81.21 166.67 80.72C166.83 80.23 166.91 79.7 166.91 79.13C166.91 78.56 166.83 78.03 166.67 77.54C166.51 77.04 166.27 76.61 165.95 76.25C165.63 75.88 165.235 75.59 164.765 75.38C164.305 75.17 163.765 75.065 163.145 75.065C162.535 75.065 161.995 75.17 161.525 75.38C161.055 75.59 160.66 75.88 160.34 76.25C160.02 76.61 159.78 77.04 159.62 77.54C159.46 78.03 159.38 78.56 159.38 79.13ZM169.413 75.245V83H170.688V78.62C170.688 78.27 170.733 77.95 170.823 77.66C170.923 77.36 171.068 77.1 171.258 76.88C171.448 76.66 171.683 76.49 171.963 76.37C172.253 76.25 172.593 76.19 172.983 76.19C173.473 76.19 173.858 76.33 174.138 76.61C174.418 76.89 174.558 77.27 174.558 77.75V83H175.833V77.9C175.833 77.48 175.788 77.1 175.698 76.76C175.618 76.41 175.473 76.11 175.263 75.86C175.053 75.61 174.778 75.415 174.438 75.275C174.098 75.135 173.673 75.065 173.163 75.065C172.013 75.065 171.173 75.535 170.643 76.475H170.613V75.245H169.413ZM178.538 78.23V79.43H182.873V78.23H178.538ZM185.623 72.29V83H186.898V81.965H186.928C187.068 82.195 187.238 82.39 187.438 82.55C187.648 82.7 187.868 82.82 188.098 82.91C188.328 83 188.558 83.065 188.788 83.105C189.028 83.145 189.243 83.165 189.433 83.165C190.023 83.165 190.538 83.06 190.978 82.85C191.428 82.64 191.798 82.355 192.088 81.995C192.388 81.625 192.608 81.195 192.748 80.705C192.898 80.215 192.973 79.695 192.973 79.145C192.973 78.595 192.898 78.075 192.748 77.585C192.598 77.095 192.373 76.665 192.073 76.295C191.783 75.915 191.413 75.615 190.963 75.395C190.523 75.175 190.003 75.065 189.403 75.065C188.863 75.065 188.368 75.165 187.918 75.365C187.468 75.555 187.138 75.865 186.928 76.295H186.898V72.29H185.623ZM191.623 79.055C191.623 79.435 191.583 79.805 191.503 80.165C191.423 80.525 191.293 80.845 191.113 81.125C190.933 81.405 190.693 81.63 190.393 81.8C190.103 81.97 189.738 82.055 189.298 82.055C188.858 82.055 188.483 81.975 188.173 81.815C187.863 81.645 187.608 81.425 187.408 81.155C187.218 80.885 187.078 80.575 186.988 80.225C186.898 79.865 186.853 79.495 186.853 79.115C186.853 78.755 186.893 78.4 186.973 78.05C187.063 77.7 187.203 77.39 187.393 77.12C187.583 76.84 187.828 76.615 188.128 76.445C188.428 76.275 188.793 76.19 189.223 76.19C189.633 76.19 189.988 76.27 190.288 76.43C190.598 76.59 190.848 76.805 191.038 77.075C191.238 77.345 191.383 77.655 191.473 78.005C191.573 78.345 191.623 78.695 191.623 79.055ZM201.89 83V75.245H200.615V79.625C200.615 79.975 200.565 80.3 200.465 80.6C200.375 80.89 200.235 81.145 200.045 81.365C199.855 81.585 199.615 81.755 199.325 81.875C199.045 81.995 198.71 82.055 198.32 82.055C197.83 82.055 197.445 81.915 197.165 81.635C196.885 81.355 196.745 80.975 196.745 80.495V75.245H195.47V80.345C195.47 80.765 195.51 81.15 195.59 81.5C195.68 81.84 195.83 82.135 196.04 82.385C196.25 82.635 196.525 82.83 196.865 82.97C197.205 83.1 197.63 83.165 198.14 83.165C198.71 83.165 199.205 83.055 199.625 82.835C200.045 82.605 200.39 82.25 200.66 81.77H200.69V83H201.89ZM206.575 75.245V72.92H205.3V75.245H203.98V76.37H205.3V81.305C205.3 81.665 205.335 81.955 205.405 82.175C205.475 82.395 205.58 82.565 205.72 82.685C205.87 82.805 206.06 82.89 206.29 82.94C206.53 82.98 206.815 83 207.145 83H208.12V81.875H207.535C207.335 81.875 207.17 81.87 207.04 81.86C206.92 81.84 206.825 81.805 206.755 81.755C206.685 81.705 206.635 81.635 206.605 81.545C206.585 81.455 206.575 81.335 206.575 81.185V76.37H208.12V75.245H206.575ZM212.306 75.245V72.92H211.031V75.245H209.711V76.37H211.031V81.305C211.031 81.665 211.066 81.955 211.136 82.175C211.206 82.395 211.311 82.565 211.451 82.685C211.601 82.805 211.791 82.89 212.021 82.94C212.261 82.98 212.546 83 212.876 83H213.851V81.875H213.266C213.066 81.875 212.901 81.87 212.771 81.86C212.651 81.84 212.556 81.805 212.486 81.755C212.416 81.705 212.366 81.635 212.336 81.545C212.316 81.455 212.306 81.335 212.306 81.185V76.37H213.851V75.245H212.306ZM217.198 79.13C217.198 78.66 217.258 78.245 217.378 77.885C217.508 77.515 217.683 77.205 217.903 76.955C218.123 76.705 218.378 76.515 218.668 76.385C218.968 76.255 219.283 76.19 219.613 76.19C219.943 76.19 220.253 76.255 220.543 76.385C220.843 76.515 221.103 76.705 221.323 76.955C221.543 77.205 221.713 77.515 221.833 77.885C221.963 78.245 222.028 78.66 222.028 79.13C222.028 79.6 221.963 80.02 221.833 80.39C221.713 80.75 221.543 81.055 221.323 81.305C221.103 81.545 220.843 81.73 220.543 81.86C220.253 81.99 219.943 82.055 219.613 82.055C219.283 82.055 218.968 81.99 218.668 81.86C218.378 81.73 218.123 81.545 217.903 81.305C217.683 81.055 217.508 80.75 217.378 80.39C217.258 80.02 217.198 79.6 217.198 79.13ZM215.848 79.13C215.848 79.7 215.928 80.23 216.088 80.72C216.248 81.21 216.488 81.64 216.808 82.01C217.128 82.37 217.523 82.655 217.993 82.865C218.463 83.065 219.003 83.165 219.613 83.165C220.233 83.165 220.773 83.065 221.233 82.865C221.703 82.655 222.098 82.37 222.418 82.01C222.738 81.64 222.978 81.21 223.138 80.72C223.298 80.23 223.378 79.7 223.378 79.13C223.378 78.56 223.298 78.03 223.138 77.54C222.978 77.04 222.738 76.61 222.418 76.25C222.098 75.88 221.703 75.59 221.233 75.38C220.773 75.17 220.233 75.065 219.613 75.065C219.003 75.065 218.463 75.17 217.993 75.38C217.523 75.59 217.128 75.88 216.808 76.25C216.488 76.61 216.248 77.04 216.088 77.54C215.928 78.03 215.848 78.56 215.848 79.13ZM225.881 75.245V83H227.156V78.62C227.156 78.27 227.201 77.95 227.291 77.66C227.391 77.36 227.536 77.1 227.726 76.88C227.916 76.66 228.151 76.49 228.431 76.37C228.721 76.25 229.061 76.19 229.451 76.19C229.941 76.19 230.326 76.33 230.606 76.61C230.886 76.89 231.026 77.27 231.026 77.75V83H232.301V77.9C232.301 77.48 232.256 77.1 232.166 76.76C232.086 76.41 231.941 76.11 231.731 75.86C231.521 75.61 231.246 75.415 230.906 75.275C230.566 75.135 230.141 75.065 229.631 75.065C228.481 75.065 227.641 75.535 227.111 76.475H227.081V75.245H225.881ZM235.996 80.555H234.721C234.741 81.035 234.841 81.445 235.021 81.785C235.201 82.115 235.441 82.385 235.741 82.595C236.041 82.795 236.386 82.94 236.776 83.03C237.166 83.12 237.576 83.165 238.006 83.165C238.396 83.165 238.786 83.125 239.176 83.045C239.576 82.975 239.931 82.845 240.241 82.655C240.561 82.465 240.816 82.215 241.006 81.905C241.206 81.595 241.306 81.205 241.306 80.735C241.306 80.365 241.231 80.055 241.081 79.805C240.941 79.555 240.751 79.35 240.511 79.19C240.281 79.02 240.011 78.885 239.701 78.785C239.401 78.685 239.091 78.6 238.771 78.53C238.471 78.46 238.171 78.395 237.871 78.335C237.571 78.265 237.301 78.185 237.061 78.095C236.821 77.995 236.621 77.875 236.461 77.735C236.311 77.585 236.236 77.4 236.236 77.18C236.236 76.98 236.286 76.82 236.386 76.7C236.486 76.57 236.616 76.47 236.776 76.4C236.936 76.32 237.111 76.265 237.301 76.235C237.501 76.205 237.696 76.19 237.886 76.19C238.096 76.19 238.301 76.215 238.501 76.265C238.711 76.305 238.901 76.375 239.071 76.475C239.241 76.575 239.381 76.71 239.491 76.88C239.601 77.04 239.666 77.245 239.686 77.495H240.961C240.931 77.025 240.831 76.635 240.661 76.325C240.491 76.005 240.261 75.755 239.971 75.575C239.691 75.385 239.366 75.255 238.996 75.185C238.626 75.105 238.221 75.065 237.781 75.065C237.441 75.065 237.096 75.11 236.746 75.2C236.406 75.28 236.096 75.41 235.816 75.59C235.546 75.76 235.321 75.985 235.141 76.265C234.971 76.545 234.886 76.88 234.886 77.27C234.886 77.77 235.011 78.16 235.261 78.44C235.511 78.72 235.821 78.94 236.191 79.1C236.571 79.25 236.981 79.37 237.421 79.46C237.861 79.54 238.266 79.635 238.636 79.745C239.016 79.845 239.331 79.98 239.581 80.15C239.831 80.32 239.956 80.57 239.956 80.9C239.956 81.14 239.896 81.34 239.776 81.5C239.656 81.65 239.501 81.765 239.311 81.845C239.131 81.925 238.931 81.98 238.711 82.01C238.491 82.04 238.281 82.055 238.081 82.055C237.821 82.055 237.566 82.03 237.316 81.98C237.076 81.93 236.856 81.85 236.656 81.74C236.466 81.62 236.311 81.465 236.191 81.275C236.071 81.075 236.006 80.835 235.996 80.555Z" fill="#333333"/>
</svg>
