<svg width="384" height="106" viewBox="0 0 384 106" fill="none" xmlns="http://www.w3.org/2000/svg">
<path d="M0 8C0 3.58172 3.58172 0 8 0H376C380.418 0 384 3.58172 384 8V98C384 102.418 380.418 106 376 106H7.99999C3.58171 106 0 102.418 0 98V8Z" fill="#FCF8E3"/>
<path d="M41.2025 49.4199L57.1564 32.7793C58.259 31.6291 60.0421 31.6291 61.1331 32.7793L63.7842 35.5446C64.8869 36.6947 64.8869 38.5546 63.7842 39.6925L52.4875 51.5L63.796 63.2953C64.8987 64.4454 64.8987 66.3053 63.796 67.4432L61.1448 70.2207C60.0421 71.3709 58.259 71.3709 57.1681 70.2207L41.2142 53.5801C40.0998 52.4299 40.0998 50.5701 41.2025 49.4199Z" fill="#333333"/>
<g clip-path="url(#clip0)">
<path d="M116.392 25.268L111.91 32H115.078L117.94 27.554L120.748 32H124.114L119.632 25.286L123.754 19.148H120.658L118.048 23.252L115.528 19.148H112.252L116.392 25.268ZM125.14 25.988V28.184H130.558V25.988H125.14ZM132.938 19.148V32H142.028V29.624H135.764V19.148H132.938ZM147.028 27.032L148.702 22.316H148.738L150.358 27.032H147.028ZM147.298 19.148L142.438 32H145.282L146.29 29.138H151.096L152.068 32H155.002L150.196 19.148H147.298ZM159.116 24.962V21.344H162.212C162.86 21.344 163.346 21.488 163.67 21.776C163.994 22.052 164.156 22.502 164.156 23.126C164.156 23.774 163.994 24.242 163.67 24.53C163.346 24.818 162.86 24.962 162.212 24.962H159.116ZM156.29 19.148V32H159.116V26.978H161.942C162.65 26.978 163.16 27.134 163.472 27.446C163.784 27.758 163.988 28.25 164.084 28.922C164.156 29.438 164.21 29.978 164.246 30.542C164.282 31.106 164.378 31.592 164.534 32H167.36C167.228 31.82 167.126 31.604 167.054 31.352C166.994 31.088 166.946 30.812 166.91 30.524C166.886 30.236 166.868 29.954 166.856 29.678C166.844 29.402 166.832 29.162 166.82 28.958C166.796 28.634 166.748 28.31 166.676 27.986C166.616 27.662 166.514 27.368 166.37 27.104C166.226 26.828 166.04 26.594 165.812 26.402C165.584 26.198 165.296 26.048 164.948 25.952V25.916C165.668 25.628 166.184 25.208 166.496 24.656C166.82 24.104 166.982 23.45 166.982 22.694C166.982 22.202 166.892 21.746 166.712 21.326C166.544 20.894 166.292 20.516 165.956 20.192C165.632 19.868 165.236 19.616 164.768 19.436C164.312 19.244 163.796 19.148 163.22 19.148H156.29ZM178.748 30.542L179.036 32H180.836V25.052H175.436V27.158H178.28C178.196 28.058 177.896 28.748 177.38 29.228C176.876 29.696 176.156 29.93 175.22 29.93C174.584 29.93 174.044 29.81 173.6 29.57C173.156 29.318 172.796 28.988 172.52 28.58C172.244 28.172 172.04 27.716 171.908 27.212C171.788 26.696 171.728 26.168 171.728 25.628C171.728 25.064 171.788 24.518 171.908 23.99C172.04 23.462 172.244 22.994 172.52 22.586C172.796 22.166 173.156 21.836 173.6 21.596C174.044 21.344 174.584 21.218 175.22 21.218C175.904 21.218 176.486 21.398 176.966 21.758C177.446 22.118 177.77 22.658 177.938 23.378H180.638C180.566 22.646 180.368 21.998 180.044 21.434C179.72 20.87 179.306 20.396 178.802 20.012C178.31 19.628 177.752 19.34 177.128 19.148C176.516 18.944 175.88 18.842 175.22 18.842C174.236 18.842 173.348 19.016 172.556 19.364C171.776 19.712 171.116 20.192 170.576 20.804C170.036 21.416 169.622 22.136 169.334 22.964C169.046 23.78 168.902 24.668 168.902 25.628C168.902 26.564 169.046 27.44 169.334 28.256C169.622 29.06 170.036 29.762 170.576 30.362C171.116 30.962 171.776 31.436 172.556 31.784C173.348 32.12 174.236 32.288 175.22 32.288C175.844 32.288 176.462 32.162 177.074 31.91C177.686 31.646 178.244 31.19 178.748 30.542ZM183.299 19.148V32H193.055V29.624H186.125V26.474H192.353V24.278H186.125V21.524H192.911V19.148H183.299ZM203.922 18.842L198.918 32.288H200.952L205.974 18.842H203.922ZM215.54 25.268L211.058 32H214.226L217.088 27.554L219.896 32H223.262L218.78 25.286L222.902 19.148H219.806L217.196 23.252L214.676 19.148H211.4L215.54 25.268ZM224.576 19.148V32H233.666V29.624H227.402V19.148H224.576Z" fill="#333333"/>
<path d="M118.615 54.33V46.29H117.19V54.12C117.19 54.71 117.065 55.18 116.815 55.53C116.575 55.88 116.13 56.055 115.48 56.055C115.13 56.055 114.84 56.005 114.61 55.905C114.39 55.795 114.215 55.645 114.085 55.455C113.965 55.265 113.88 55.04 113.83 54.78C113.78 54.52 113.755 54.235 113.755 53.925V53.475H112.33V54.135C112.33 55.155 112.6 55.93 113.14 56.46C113.68 56.98 114.45 57.24 115.45 57.24C116.05 57.24 116.55 57.16 116.95 57C117.36 56.83 117.685 56.61 117.925 56.34C118.175 56.06 118.35 55.745 118.45 55.395C118.56 55.045 118.615 54.69 118.615 54.33ZM128.158 57V49.245H126.883V53.625C126.883 53.975 126.833 54.3 126.733 54.6C126.643 54.89 126.503 55.145 126.313 55.365C126.123 55.585 125.883 55.755 125.593 55.875C125.313 55.995 124.978 56.055 124.588 56.055C124.098 56.055 123.713 55.915 123.433 55.635C123.153 55.355 123.013 54.975 123.013 54.495V49.245H121.738V54.345C121.738 54.765 121.778 55.15 121.858 55.5C121.948 55.84 122.098 56.135 122.308 56.385C122.518 56.635 122.793 56.83 123.133 56.97C123.473 57.1 123.898 57.165 124.408 57.165C124.978 57.165 125.473 57.055 125.893 56.835C126.313 56.605 126.658 56.25 126.928 55.77H126.958V57H128.158ZM131.073 49.245V57H132.348V52.17C132.348 52.02 132.383 51.835 132.453 51.615C132.533 51.385 132.653 51.165 132.813 50.955C132.983 50.745 133.198 50.565 133.458 50.415C133.728 50.265 134.048 50.19 134.418 50.19C134.708 50.19 134.943 50.235 135.123 50.325C135.313 50.405 135.463 50.525 135.573 50.685C135.683 50.835 135.758 51.015 135.798 51.225C135.848 51.435 135.873 51.665 135.873 51.915V57H137.148V52.17C137.148 51.57 137.328 51.09 137.688 50.73C138.048 50.37 138.543 50.19 139.173 50.19C139.483 50.19 139.733 50.235 139.923 50.325C140.123 50.415 140.278 50.54 140.388 50.7C140.498 50.85 140.573 51.03 140.613 51.24C140.653 51.45 140.673 51.675 140.673 51.915V57H141.948V51.315C141.948 50.915 141.883 50.575 141.753 50.295C141.633 50.005 141.458 49.77 141.228 49.59C141.008 49.41 140.738 49.28 140.418 49.2C140.108 49.11 139.758 49.065 139.368 49.065C138.858 49.065 138.388 49.18 137.958 49.41C137.538 49.64 137.198 49.965 136.938 50.385C136.778 49.905 136.503 49.565 136.113 49.365C135.723 49.165 135.288 49.065 134.808 49.065C133.718 49.065 132.883 49.505 132.303 50.385H132.273V49.245H131.073ZM144.906 46.29V57H146.181V55.965H146.211C146.351 56.195 146.521 56.39 146.721 56.55C146.931 56.7 147.151 56.82 147.381 56.91C147.611 57 147.841 57.065 148.071 57.105C148.311 57.145 148.526 57.165 148.716 57.165C149.306 57.165 149.821 57.06 150.261 56.85C150.711 56.64 151.081 56.355 151.371 55.995C151.671 55.625 151.891 55.195 152.031 54.705C152.181 54.215 152.256 53.695 152.256 53.145C152.256 52.595 152.181 52.075 152.031 51.585C151.881 51.095 151.656 50.665 151.356 50.295C151.066 49.915 150.696 49.615 150.246 49.395C149.806 49.175 149.286 49.065 148.686 49.065C148.146 49.065 147.651 49.165 147.201 49.365C146.751 49.555 146.421 49.865 146.211 50.295H146.181V46.29H144.906ZM150.906 53.055C150.906 53.435 150.866 53.805 150.786 54.165C150.706 54.525 150.576 54.845 150.396 55.125C150.216 55.405 149.976 55.63 149.676 55.8C149.386 55.97 149.021 56.055 148.581 56.055C148.141 56.055 147.766 55.975 147.456 55.815C147.146 55.645 146.891 55.425 146.691 55.155C146.501 54.885 146.361 54.575 146.271 54.225C146.181 53.865 146.136 53.495 146.136 53.115C146.136 52.755 146.176 52.4 146.256 52.05C146.346 51.7 146.486 51.39 146.676 51.12C146.866 50.84 147.111 50.615 147.411 50.445C147.711 50.275 148.076 50.19 148.506 50.19C148.916 50.19 149.271 50.27 149.571 50.43C149.881 50.59 150.131 50.805 150.321 51.075C150.521 51.345 150.666 51.655 150.756 52.005C150.856 52.345 150.906 52.695 150.906 53.055ZM155.683 53.13C155.683 52.66 155.743 52.245 155.863 51.885C155.993 51.515 156.168 51.205 156.388 50.955C156.608 50.705 156.863 50.515 157.153 50.385C157.453 50.255 157.768 50.19 158.098 50.19C158.428 50.19 158.738 50.255 159.028 50.385C159.328 50.515 159.588 50.705 159.808 50.955C160.028 51.205 160.198 51.515 160.318 51.885C160.448 52.245 160.513 52.66 160.513 53.13C160.513 53.6 160.448 54.02 160.318 54.39C160.198 54.75 160.028 55.055 159.808 55.305C159.588 55.545 159.328 55.73 159.028 55.86C158.738 55.99 158.428 56.055 158.098 56.055C157.768 56.055 157.453 55.99 157.153 55.86C156.863 55.73 156.608 55.545 156.388 55.305C156.168 55.055 155.993 54.75 155.863 54.39C155.743 54.02 155.683 53.6 155.683 53.13ZM154.333 53.13C154.333 53.7 154.413 54.23 154.573 54.72C154.733 55.21 154.973 55.64 155.293 56.01C155.613 56.37 156.008 56.655 156.478 56.865C156.948 57.065 157.488 57.165 158.098 57.165C158.718 57.165 159.258 57.065 159.718 56.865C160.188 56.655 160.583 56.37 160.903 56.01C161.223 55.64 161.463 55.21 161.623 54.72C161.783 54.23 161.863 53.7 161.863 53.13C161.863 52.56 161.783 52.03 161.623 51.54C161.463 51.04 161.223 50.61 160.903 50.25C160.583 49.88 160.188 49.59 159.718 49.38C159.258 49.17 158.718 49.065 158.098 49.065C157.488 49.065 156.948 49.17 156.478 49.38C156.008 49.59 155.613 49.88 155.293 50.25C154.973 50.61 154.733 51.04 154.573 51.54C154.413 52.03 154.333 52.56 154.333 53.13ZM166.136 49.245V46.92H164.861V49.245H163.541V50.37H164.861V55.305C164.861 55.665 164.896 55.955 164.966 56.175C165.036 56.395 165.141 56.565 165.281 56.685C165.431 56.805 165.621 56.89 165.851 56.94C166.091 56.98 166.376 57 166.706 57H167.681V55.875H167.096C166.896 55.875 166.731 55.87 166.601 55.86C166.481 55.84 166.386 55.805 166.316 55.755C166.246 55.705 166.196 55.635 166.166 55.545C166.146 55.455 166.136 55.335 166.136 55.185V50.37H167.681V49.245H166.136ZM170.053 49.245V57H171.328V53.55C171.328 53.05 171.378 52.61 171.478 52.23C171.578 51.84 171.738 51.51 171.958 51.24C172.178 50.97 172.468 50.765 172.828 50.625C173.188 50.485 173.623 50.415 174.133 50.415V49.065C173.443 49.045 172.873 49.185 172.423 49.485C171.973 49.785 171.593 50.25 171.283 50.88H171.253V49.245H170.053ZM176.759 53.13C176.759 52.66 176.819 52.245 176.939 51.885C177.069 51.515 177.244 51.205 177.464 50.955C177.684 50.705 177.939 50.515 178.229 50.385C178.529 50.255 178.844 50.19 179.174 50.19C179.504 50.19 179.814 50.255 180.104 50.385C180.404 50.515 180.664 50.705 180.884 50.955C181.104 51.205 181.274 51.515 181.394 51.885C181.524 52.245 181.589 52.66 181.589 53.13C181.589 53.6 181.524 54.02 181.394 54.39C181.274 54.75 181.104 55.055 180.884 55.305C180.664 55.545 180.404 55.73 180.104 55.86C179.814 55.99 179.504 56.055 179.174 56.055C178.844 56.055 178.529 55.99 178.229 55.86C177.939 55.73 177.684 55.545 177.464 55.305C177.244 55.055 177.069 54.75 176.939 54.39C176.819 54.02 176.759 53.6 176.759 53.13ZM175.409 53.13C175.409 53.7 175.489 54.23 175.649 54.72C175.809 55.21 176.049 55.64 176.369 56.01C176.689 56.37 177.084 56.655 177.554 56.865C178.024 57.065 178.564 57.165 179.174 57.165C179.794 57.165 180.334 57.065 180.794 56.865C181.264 56.655 181.659 56.37 181.979 56.01C182.299 55.64 182.539 55.21 182.699 54.72C182.859 54.23 182.939 53.7 182.939 53.13C182.939 52.56 182.859 52.03 182.699 51.54C182.539 51.04 182.299 50.61 181.979 50.25C181.659 49.88 181.264 49.59 180.794 49.38C180.334 49.17 179.794 49.065 179.174 49.065C178.564 49.065 178.024 49.17 177.554 49.38C177.084 49.59 176.689 49.88 176.369 50.25C176.049 50.61 175.809 51.04 175.649 51.54C175.489 52.03 175.409 52.56 175.409 53.13ZM185.442 49.245V57H186.717V52.62C186.717 52.27 186.762 51.95 186.852 51.66C186.952 51.36 187.097 51.1 187.287 50.88C187.477 50.66 187.712 50.49 187.992 50.37C188.282 50.25 188.622 50.19 189.012 50.19C189.502 50.19 189.887 50.33 190.167 50.61C190.447 50.89 190.587 51.27 190.587 51.75V57H191.862V51.9C191.862 51.48 191.817 51.1 191.727 50.76C191.647 50.41 191.502 50.11 191.292 49.86C191.082 49.61 190.807 49.415 190.467 49.275C190.127 49.135 189.702 49.065 189.192 49.065C188.042 49.065 187.202 49.535 186.672 50.475H186.642V49.245H185.442ZM206.822 56.97C206.602 57.1 206.297 57.165 205.907 57.165C205.577 57.165 205.312 57.075 205.112 56.895C204.922 56.705 204.827 56.4 204.827 55.98C204.477 56.4 204.067 56.705 203.597 56.895C203.137 57.075 202.637 57.165 202.097 57.165C201.747 57.165 201.412 57.125 201.092 57.045C200.782 56.965 200.512 56.84 200.282 56.67C200.052 56.5 199.867 56.28 199.727 56.01C199.597 55.73 199.532 55.395 199.532 55.005C199.532 54.565 199.607 54.205 199.757 53.925C199.907 53.645 200.102 53.42 200.342 53.25C200.592 53.07 200.872 52.935 201.182 52.845C201.502 52.755 201.827 52.68 202.157 52.62C202.507 52.55 202.837 52.5 203.147 52.47C203.467 52.43 203.747 52.38 203.987 52.32C204.227 52.25 204.417 52.155 204.557 52.035C204.697 51.905 204.767 51.72 204.767 51.48C204.767 51.2 204.712 50.975 204.602 50.805C204.502 50.635 204.367 50.505 204.197 50.415C204.037 50.325 203.852 50.265 203.642 50.235C203.442 50.205 203.242 50.19 203.042 50.19C202.502 50.19 202.052 50.295 201.692 50.505C201.332 50.705 201.137 51.09 201.107 51.66H199.832C199.852 51.18 199.952 50.775 200.132 50.445C200.312 50.115 200.552 49.85 200.852 49.65C201.152 49.44 201.492 49.29 201.872 49.2C202.262 49.11 202.677 49.065 203.117 49.065C203.467 49.065 203.812 49.09 204.152 49.14C204.502 49.19 204.817 49.295 205.097 49.455C205.377 49.605 205.602 49.82 205.772 50.1C205.942 50.38 206.027 50.745 206.027 51.195V55.185C206.027 55.485 206.042 55.705 206.072 55.845C206.112 55.985 206.232 56.055 206.432 56.055C206.542 56.055 206.672 56.03 206.822 55.98V56.97ZM204.752 52.995C204.592 53.115 204.382 53.205 204.122 53.265C203.862 53.315 203.587 53.36 203.297 53.4C203.017 53.43 202.732 53.47 202.442 53.52C202.152 53.56 201.892 53.63 201.662 53.73C201.432 53.83 201.242 53.975 201.092 54.165C200.952 54.345 200.882 54.595 200.882 54.915C200.882 55.125 200.922 55.305 201.002 55.455C201.092 55.595 201.202 55.71 201.332 55.8C201.472 55.89 201.632 55.955 201.812 55.995C201.992 56.035 202.182 56.055 202.382 56.055C202.802 56.055 203.162 56 203.462 55.89C203.762 55.77 204.007 55.625 204.197 55.455C204.387 55.275 204.527 55.085 204.617 54.885C204.707 54.675 204.752 54.48 204.752 54.3V52.995ZM209.009 49.245V57H210.284V52.62C210.284 52.27 210.329 51.95 210.419 51.66C210.519 51.36 210.664 51.1 210.854 50.88C211.044 50.66 211.279 50.49 211.559 50.37C211.849 50.25 212.189 50.19 212.579 50.19C213.069 50.19 213.454 50.33 213.734 50.61C214.014 50.89 214.154 51.27 214.154 51.75V57H215.429V51.9C215.429 51.48 215.384 51.1 215.294 50.76C215.214 50.41 215.069 50.11 214.859 49.86C214.649 49.61 214.374 49.415 214.034 49.275C213.694 49.135 213.269 49.065 212.759 49.065C211.609 49.065 210.769 49.535 210.239 50.475H210.209V49.245H209.009ZM219.274 53.19C219.274 52.81 219.314 52.44 219.394 52.08C219.474 51.72 219.604 51.4 219.784 51.12C219.964 50.84 220.204 50.615 220.504 50.445C220.804 50.275 221.169 50.19 221.599 50.19C222.039 50.19 222.414 50.275 222.724 50.445C223.034 50.605 223.284 50.82 223.474 51.09C223.674 51.36 223.819 51.675 223.909 52.035C223.999 52.385 224.044 52.75 224.044 53.13C224.044 53.49 223.999 53.845 223.909 54.195C223.829 54.545 223.694 54.86 223.504 55.14C223.314 55.41 223.069 55.63 222.769 55.8C222.469 55.97 222.104 56.055 221.674 56.055C221.264 56.055 220.904 55.975 220.594 55.815C220.294 55.655 220.044 55.44 219.844 55.17C219.654 54.9 219.509 54.595 219.409 54.255C219.319 53.905 219.274 53.55 219.274 53.19ZM225.274 57V46.29H223.999V50.28H223.969C223.829 50.05 223.654 49.86 223.444 49.71C223.244 49.55 223.029 49.425 222.799 49.335C222.569 49.235 222.339 49.165 222.109 49.125C221.879 49.085 221.664 49.065 221.464 49.065C220.874 49.065 220.354 49.175 219.904 49.395C219.464 49.605 219.094 49.895 218.794 50.265C218.504 50.625 218.284 51.05 218.134 51.54C217.994 52.03 217.924 52.55 217.924 53.1C217.924 53.65 217.999 54.17 218.149 54.66C218.299 55.15 218.519 55.58 218.809 55.95C219.109 56.32 219.479 56.615 219.919 56.835C220.369 57.055 220.894 57.165 221.494 57.165C222.034 57.165 222.529 57.07 222.979 56.88C223.429 56.69 223.759 56.38 223.969 55.95H223.999V57H225.274ZM233.455 49.245V59.955H234.73V55.965H234.76C234.9 56.195 235.07 56.39 235.27 56.55C235.48 56.7 235.7 56.82 235.93 56.91C236.16 57 236.39 57.065 236.62 57.105C236.86 57.145 237.075 57.165 237.265 57.165C237.855 57.165 238.37 57.06 238.81 56.85C239.26 56.64 239.63 56.355 239.92 55.995C240.22 55.625 240.44 55.195 240.58 54.705C240.73 54.215 240.805 53.695 240.805 53.145C240.805 52.595 240.73 52.075 240.58 51.585C240.43 51.095 240.205 50.665 239.905 50.295C239.615 49.915 239.245 49.615 238.795 49.395C238.355 49.175 237.835 49.065 237.235 49.065C236.695 49.065 236.2 49.165 235.75 49.365C235.3 49.555 234.97 49.865 234.76 50.295H234.73V49.245H233.455ZM239.455 53.055C239.455 53.435 239.415 53.805 239.335 54.165C239.255 54.525 239.125 54.845 238.945 55.125C238.765 55.405 238.525 55.63 238.225 55.8C237.935 55.97 237.57 56.055 237.13 56.055C236.69 56.055 236.315 55.975 236.005 55.815C235.695 55.645 235.44 55.425 235.24 55.155C235.05 54.885 234.91 54.575 234.82 54.225C234.73 53.865 234.685 53.495 234.685 53.115C234.685 52.755 234.725 52.4 234.805 52.05C234.895 51.7 235.035 51.39 235.225 51.12C235.415 50.84 235.66 50.615 235.96 50.445C236.26 50.275 236.625 50.19 237.055 50.19C237.465 50.19 237.82 50.27 238.12 50.43C238.43 50.59 238.68 50.805 238.87 51.075C239.07 51.345 239.215 51.655 239.305 52.005C239.405 52.345 239.455 52.695 239.455 53.055ZM243.257 49.245V57H244.532V53.55C244.532 53.05 244.582 52.61 244.682 52.23C244.782 51.84 244.942 51.51 245.162 51.24C245.382 50.97 245.672 50.765 246.032 50.625C246.392 50.485 246.827 50.415 247.337 50.415V49.065C246.647 49.045 246.077 49.185 245.627 49.485C245.177 49.785 244.797 50.25 244.487 50.88H244.457V49.245H243.257ZM249.963 53.13C249.963 52.66 250.023 52.245 250.143 51.885C250.273 51.515 250.448 51.205 250.668 50.955C250.888 50.705 251.143 50.515 251.433 50.385C251.733 50.255 252.048 50.19 252.378 50.19C252.708 50.19 253.018 50.255 253.308 50.385C253.608 50.515 253.868 50.705 254.088 50.955C254.308 51.205 254.478 51.515 254.598 51.885C254.728 52.245 254.793 52.66 254.793 53.13C254.793 53.6 254.728 54.02 254.598 54.39C254.478 54.75 254.308 55.055 254.088 55.305C253.868 55.545 253.608 55.73 253.308 55.86C253.018 55.99 252.708 56.055 252.378 56.055C252.048 56.055 251.733 55.99 251.433 55.86C251.143 55.73 250.888 55.545 250.668 55.305C250.448 55.055 250.273 54.75 250.143 54.39C250.023 54.02 249.963 53.6 249.963 53.13ZM248.613 53.13C248.613 53.7 248.693 54.23 248.853 54.72C249.013 55.21 249.253 55.64 249.573 56.01C249.893 56.37 250.288 56.655 250.758 56.865C251.228 57.065 251.768 57.165 252.378 57.165C252.998 57.165 253.538 57.065 253.998 56.865C254.468 56.655 254.863 56.37 255.183 56.01C255.503 55.64 255.743 55.21 255.903 54.72C256.063 54.23 256.143 53.7 256.143 53.13C256.143 52.56 256.063 52.03 255.903 51.54C255.743 51.04 255.503 50.61 255.183 50.25C254.863 49.88 254.468 49.59 253.998 49.38C253.538 49.17 252.998 49.065 252.378 49.065C251.768 49.065 251.228 49.17 250.758 49.38C250.288 49.59 249.893 49.88 249.573 50.25C249.253 50.61 249.013 51.04 248.853 51.54C248.693 52.03 248.613 52.56 248.613 53.13ZM258.647 49.245V57H259.922V52.17C259.922 52.02 259.957 51.835 260.027 51.615C260.107 51.385 260.227 51.165 260.387 50.955C260.557 50.745 260.772 50.565 261.032 50.415C261.302 50.265 261.622 50.19 261.992 50.19C262.282 50.19 262.517 50.235 262.697 50.325C262.887 50.405 263.037 50.525 263.147 50.685C263.257 50.835 263.332 51.015 263.372 51.225C263.422 51.435 263.447 51.665 263.447 51.915V57H264.722V52.17C264.722 51.57 264.902 51.09 265.262 50.73C265.622 50.37 266.117 50.19 266.747 50.19C267.057 50.19 267.307 50.235 267.497 50.325C267.697 50.415 267.852 50.54 267.962 50.7C268.072 50.85 268.147 51.03 268.187 51.24C268.227 51.45 268.247 51.675 268.247 51.915V57H269.522V51.315C269.522 50.915 269.457 50.575 269.327 50.295C269.207 50.005 269.032 49.77 268.802 49.59C268.582 49.41 268.312 49.28 267.992 49.2C267.682 49.11 267.332 49.065 266.942 49.065C266.432 49.065 265.962 49.18 265.532 49.41C265.112 49.64 264.772 49.965 264.512 50.385C264.352 49.905 264.077 49.565 263.687 49.365C263.297 49.165 262.862 49.065 262.382 49.065C261.292 49.065 260.457 49.505 259.877 50.385H259.847V49.245H258.647ZM273.365 53.13C273.365 52.66 273.425 52.245 273.545 51.885C273.675 51.515 273.85 51.205 274.07 50.955C274.29 50.705 274.545 50.515 274.835 50.385C275.135 50.255 275.45 50.19 275.78 50.19C276.11 50.19 276.42 50.255 276.71 50.385C277.01 50.515 277.27 50.705 277.49 50.955C277.71 51.205 277.88 51.515 278 51.885C278.13 52.245 278.195 52.66 278.195 53.13C278.195 53.6 278.13 54.02 278 54.39C277.88 54.75 277.71 55.055 277.49 55.305C277.27 55.545 277.01 55.73 276.71 55.86C276.42 55.99 276.11 56.055 275.78 56.055C275.45 56.055 275.135 55.99 274.835 55.86C274.545 55.73 274.29 55.545 274.07 55.305C273.85 55.055 273.675 54.75 273.545 54.39C273.425 54.02 273.365 53.6 273.365 53.13ZM272.015 53.13C272.015 53.7 272.095 54.23 272.255 54.72C272.415 55.21 272.655 55.64 272.975 56.01C273.295 56.37 273.69 56.655 274.16 56.865C274.63 57.065 275.17 57.165 275.78 57.165C276.4 57.165 276.94 57.065 277.4 56.865C277.87 56.655 278.265 56.37 278.585 56.01C278.905 55.64 279.145 55.21 279.305 54.72C279.465 54.23 279.545 53.7 279.545 53.13C279.545 52.56 279.465 52.03 279.305 51.54C279.145 51.04 278.905 50.61 278.585 50.25C278.265 49.88 277.87 49.59 277.4 49.38C276.94 49.17 276.4 49.065 275.78 49.065C275.17 49.065 274.63 49.17 274.16 49.38C273.69 49.59 273.295 49.88 272.975 50.25C272.655 50.61 272.415 51.04 272.255 51.54C272.095 52.03 272.015 52.56 272.015 53.13ZM283.818 49.245V46.92H282.543V49.245H281.223V50.37H282.543V55.305C282.543 55.665 282.578 55.955 282.648 56.175C282.718 56.395 282.823 56.565 282.963 56.685C283.113 56.805 283.303 56.89 283.533 56.94C283.773 56.98 284.058 57 284.388 57H285.363V55.875H284.778C284.578 55.875 284.413 55.87 284.283 55.86C284.163 55.84 284.068 55.805 283.998 55.755C283.928 55.705 283.878 55.635 283.848 55.545C283.828 55.455 283.818 55.335 283.818 55.185V50.37H285.363V49.245H283.818ZM289.129 47.85V46.29H287.854V47.85H289.129ZM287.854 49.245V57H289.129V49.245H287.854ZM293.035 53.13C293.035 52.66 293.095 52.245 293.215 51.885C293.345 51.515 293.52 51.205 293.74 50.955C293.96 50.705 294.215 50.515 294.505 50.385C294.805 50.255 295.12 50.19 295.45 50.19C295.78 50.19 296.09 50.255 296.38 50.385C296.68 50.515 296.94 50.705 297.16 50.955C297.38 51.205 297.55 51.515 297.67 51.885C297.8 52.245 297.865 52.66 297.865 53.13C297.865 53.6 297.8 54.02 297.67 54.39C297.55 54.75 297.38 55.055 297.16 55.305C296.94 55.545 296.68 55.73 296.38 55.86C296.09 55.99 295.78 56.055 295.45 56.055C295.12 56.055 294.805 55.99 294.505 55.86C294.215 55.73 293.96 55.545 293.74 55.305C293.52 55.055 293.345 54.75 293.215 54.39C293.095 54.02 293.035 53.6 293.035 53.13ZM291.685 53.13C291.685 53.7 291.765 54.23 291.925 54.72C292.085 55.21 292.325 55.64 292.645 56.01C292.965 56.37 293.36 56.655 293.83 56.865C294.3 57.065 294.84 57.165 295.45 57.165C296.07 57.165 296.61 57.065 297.07 56.865C297.54 56.655 297.935 56.37 298.255 56.01C298.575 55.64 298.815 55.21 298.975 54.72C299.135 54.23 299.215 53.7 299.215 53.13C299.215 52.56 299.135 52.03 298.975 51.54C298.815 51.04 298.575 50.61 298.255 50.25C297.935 49.88 297.54 49.59 297.07 49.38C296.61 49.17 296.07 49.065 295.45 49.065C294.84 49.065 294.3 49.17 293.83 49.38C293.36 49.59 292.965 49.88 292.645 50.25C292.325 50.61 292.085 51.04 291.925 51.54C291.765 52.03 291.685 52.56 291.685 53.13ZM301.718 49.245V57H302.993V52.62C302.993 52.27 303.038 51.95 303.128 51.66C303.228 51.36 303.373 51.1 303.563 50.88C303.753 50.66 303.988 50.49 304.268 50.37C304.558 50.25 304.898 50.19 305.288 50.19C305.778 50.19 306.163 50.33 306.443 50.61C306.723 50.89 306.863 51.27 306.863 51.75V57H308.138V51.9C308.138 51.48 308.093 51.1 308.003 50.76C307.923 50.41 307.778 50.11 307.568 49.86C307.358 49.61 307.083 49.415 306.743 49.275C306.403 49.135 305.978 49.065 305.468 49.065C304.318 49.065 303.478 49.535 302.948 50.475H302.918V49.245H301.718ZM317.923 56.97C317.703 57.1 317.398 57.165 317.008 57.165C316.678 57.165 316.413 57.075 316.213 56.895C316.023 56.705 315.928 56.4 315.928 55.98C315.578 56.4 315.168 56.705 314.698 56.895C314.238 57.075 313.738 57.165 313.198 57.165C312.848 57.165 312.513 57.125 312.193 57.045C311.883 56.965 311.613 56.84 311.383 56.67C311.153 56.5 310.968 56.28 310.828 56.01C310.698 55.73 310.633 55.395 310.633 55.005C310.633 54.565 310.708 54.205 310.858 53.925C311.008 53.645 311.203 53.42 311.443 53.25C311.693 53.07 311.973 52.935 312.283 52.845C312.603 52.755 312.928 52.68 313.258 52.62C313.608 52.55 313.938 52.5 314.248 52.47C314.568 52.43 314.848 52.38 315.088 52.32C315.328 52.25 315.518 52.155 315.658 52.035C315.798 51.905 315.868 51.72 315.868 51.48C315.868 51.2 315.813 50.975 315.703 50.805C315.603 50.635 315.468 50.505 315.298 50.415C315.138 50.325 314.953 50.265 314.743 50.235C314.543 50.205 314.343 50.19 314.143 50.19C313.603 50.19 313.153 50.295 312.793 50.505C312.433 50.705 312.238 51.09 312.208 51.66H310.933C310.953 51.18 311.053 50.775 311.233 50.445C311.413 50.115 311.653 49.85 311.953 49.65C312.253 49.44 312.593 49.29 312.973 49.2C313.363 49.11 313.778 49.065 314.218 49.065C314.568 49.065 314.913 49.09 315.253 49.14C315.603 49.19 315.918 49.295 316.198 49.455C316.478 49.605 316.703 49.82 316.873 50.1C317.043 50.38 317.128 50.745 317.128 51.195V55.185C317.128 55.485 317.143 55.705 317.173 55.845C317.213 55.985 317.333 56.055 317.533 56.055C317.643 56.055 317.773 56.03 317.923 55.98V56.97ZM315.853 52.995C315.693 53.115 315.483 53.205 315.223 53.265C314.963 53.315 314.688 53.36 314.398 53.4C314.118 53.43 313.833 53.47 313.543 53.52C313.253 53.56 312.993 53.63 312.763 53.73C312.533 53.83 312.343 53.975 312.193 54.165C312.053 54.345 311.983 54.595 311.983 54.915C311.983 55.125 312.023 55.305 312.103 55.455C312.193 55.595 312.303 55.71 312.433 55.8C312.573 55.89 312.733 55.955 312.913 55.995C313.093 56.035 313.283 56.055 313.483 56.055C313.903 56.055 314.263 56 314.563 55.89C314.863 55.77 315.108 55.625 315.298 55.455C315.488 55.275 315.628 55.085 315.718 54.885C315.808 54.675 315.853 54.48 315.853 54.3V52.995ZM320.184 46.29V57H321.459V46.29H320.184ZM118.225 77.735H119.545C119.495 77.275 119.375 76.88 119.185 76.55C118.995 76.21 118.75 75.93 118.45 75.71C118.16 75.49 117.82 75.33 117.43 75.23C117.05 75.12 116.64 75.065 116.2 75.065C115.59 75.065 115.055 75.175 114.595 75.395C114.135 75.605 113.75 75.9 113.44 76.28C113.14 76.65 112.915 77.09 112.765 77.6C112.615 78.1 112.54 78.64 112.54 79.22C112.54 79.8 112.615 80.335 112.765 80.825C112.925 81.305 113.155 81.72 113.455 82.07C113.765 82.42 114.145 82.69 114.595 82.88C115.055 83.07 115.58 83.165 116.17 83.165C117.16 83.165 117.94 82.905 118.51 82.385C119.09 81.865 119.45 81.125 119.59 80.165H118.285C118.205 80.765 117.985 81.23 117.625 81.56C117.275 81.89 116.785 82.055 116.155 82.055C115.755 82.055 115.41 81.975 115.12 81.815C114.83 81.655 114.595 81.445 114.415 81.185C114.235 80.915 114.1 80.61 114.01 80.27C113.93 79.93 113.89 79.58 113.89 79.22C113.89 78.83 113.93 78.455 114.01 78.095C114.09 77.725 114.22 77.4 114.4 77.12C114.59 76.84 114.84 76.615 115.15 76.445C115.46 76.275 115.845 76.19 116.305 76.19C116.845 76.19 117.275 76.325 117.595 76.595C117.915 76.865 118.125 77.245 118.225 77.735ZM122.947 79.13C122.947 78.66 123.007 78.245 123.127 77.885C123.257 77.515 123.432 77.205 123.652 76.955C123.872 76.705 124.127 76.515 124.417 76.385C124.717 76.255 125.032 76.19 125.362 76.19C125.692 76.19 126.002 76.255 126.292 76.385C126.592 76.515 126.852 76.705 127.072 76.955C127.292 77.205 127.462 77.515 127.582 77.885C127.712 78.245 127.777 78.66 127.777 79.13C127.777 79.6 127.712 80.02 127.582 80.39C127.462 80.75 127.292 81.055 127.072 81.305C126.852 81.545 126.592 81.73 126.292 81.86C126.002 81.99 125.692 82.055 125.362 82.055C125.032 82.055 124.717 81.99 124.417 81.86C124.127 81.73 123.872 81.545 123.652 81.305C123.432 81.055 123.257 80.75 123.127 80.39C123.007 80.02 122.947 79.6 122.947 79.13ZM121.597 79.13C121.597 79.7 121.677 80.23 121.837 80.72C121.997 81.21 122.237 81.64 122.557 82.01C122.877 82.37 123.272 82.655 123.742 82.865C124.212 83.065 124.752 83.165 125.362 83.165C125.982 83.165 126.522 83.065 126.982 82.865C127.452 82.655 127.847 82.37 128.167 82.01C128.487 81.64 128.727 81.21 128.887 80.72C129.047 80.23 129.127 79.7 129.127 79.13C129.127 78.56 129.047 78.03 128.887 77.54C128.727 77.04 128.487 76.61 128.167 76.25C127.847 75.88 127.452 75.59 126.982 75.38C126.522 75.17 125.982 75.065 125.362 75.065C124.752 75.065 124.212 75.17 123.742 75.38C123.272 75.59 122.877 75.88 122.557 76.25C122.237 76.61 121.997 77.04 121.837 77.54C121.677 78.03 121.597 78.56 121.597 79.13ZM131.63 75.245V83H132.905V78.17C132.905 78.02 132.94 77.835 133.01 77.615C133.09 77.385 133.21 77.165 133.37 76.955C133.54 76.745 133.755 76.565 134.015 76.415C134.285 76.265 134.605 76.19 134.975 76.19C135.265 76.19 135.5 76.235 135.68 76.325C135.87 76.405 136.02 76.525 136.13 76.685C136.24 76.835 136.315 77.015 136.355 77.225C136.405 77.435 136.43 77.665 136.43 77.915V83H137.705V78.17C137.705 77.57 137.885 77.09 138.245 76.73C138.605 76.37 139.1 76.19 139.73 76.19C140.04 76.19 140.29 76.235 140.48 76.325C140.68 76.415 140.835 76.54 140.945 76.7C141.055 76.85 141.13 77.03 141.17 77.24C141.21 77.45 141.23 77.675 141.23 77.915V83H142.505V77.315C142.505 76.915 142.44 76.575 142.31 76.295C142.19 76.005 142.015 75.77 141.785 75.59C141.565 75.41 141.295 75.28 140.975 75.2C140.665 75.11 140.315 75.065 139.925 75.065C139.415 75.065 138.945 75.18 138.515 75.41C138.095 75.64 137.755 75.965 137.495 76.385C137.335 75.905 137.06 75.565 136.67 75.365C136.28 75.165 135.845 75.065 135.365 75.065C134.275 75.065 133.44 75.505 132.86 76.385H132.83V75.245H131.63ZM145.418 75.245V83H146.693V78.17C146.693 78.02 146.728 77.835 146.798 77.615C146.878 77.385 146.998 77.165 147.158 76.955C147.328 76.745 147.543 76.565 147.803 76.415C148.073 76.265 148.393 76.19 148.763 76.19C149.053 76.19 149.288 76.235 149.468 76.325C149.658 76.405 149.808 76.525 149.918 76.685C150.028 76.835 150.103 77.015 150.143 77.225C150.193 77.435 150.218 77.665 150.218 77.915V83H151.493V78.17C151.493 77.57 151.673 77.09 152.033 76.73C152.393 76.37 152.888 76.19 153.518 76.19C153.828 76.19 154.078 76.235 154.268 76.325C154.468 76.415 154.623 76.54 154.733 76.7C154.843 76.85 154.918 77.03 154.958 77.24C154.998 77.45 155.018 77.675 155.018 77.915V83H156.293V77.315C156.293 76.915 156.228 76.575 156.098 76.295C155.978 76.005 155.803 75.77 155.573 75.59C155.353 75.41 155.083 75.28 154.763 75.2C154.453 75.11 154.103 75.065 153.713 75.065C153.203 75.065 152.733 75.18 152.303 75.41C151.883 75.64 151.543 75.965 151.283 76.385C151.123 75.905 150.848 75.565 150.458 75.365C150.068 75.165 149.633 75.065 149.153 75.065C148.063 75.065 147.228 75.505 146.648 76.385H146.618V75.245H145.418ZM165.626 83V75.245H164.351V79.625C164.351 79.975 164.301 80.3 164.201 80.6C164.111 80.89 163.971 81.145 163.781 81.365C163.591 81.585 163.351 81.755 163.061 81.875C162.781 81.995 162.446 82.055 162.056 82.055C161.566 82.055 161.181 81.915 160.901 81.635C160.621 81.355 160.481 80.975 160.481 80.495V75.245H159.206V80.345C159.206 80.765 159.246 81.15 159.326 81.5C159.416 81.84 159.566 82.135 159.776 82.385C159.986 82.635 160.261 82.83 160.601 82.97C160.941 83.1 161.366 83.165 161.876 83.165C162.446 83.165 162.941 83.055 163.361 82.835C163.781 82.605 164.126 82.25 164.396 81.77H164.426V83H165.626ZM168.541 75.245V83H169.816V78.62C169.816 78.27 169.861 77.95 169.951 77.66C170.051 77.36 170.196 77.1 170.386 76.88C170.576 76.66 170.811 76.49 171.091 76.37C171.381 76.25 171.721 76.19 172.111 76.19C172.601 76.19 172.986 76.33 173.266 76.61C173.546 76.89 173.686 77.27 173.686 77.75V83H174.961V77.9C174.961 77.48 174.916 77.1 174.826 76.76C174.746 76.41 174.601 76.11 174.391 75.86C174.181 75.61 173.906 75.415 173.566 75.275C173.226 75.135 172.801 75.065 172.291 75.065C171.141 75.065 170.301 75.535 169.771 76.475H169.741V75.245H168.541ZM179.226 73.85V72.29H177.951V73.85H179.226ZM177.951 75.245V83H179.226V75.245H177.951ZM187.466 77.735H188.786C188.736 77.275 188.616 76.88 188.426 76.55C188.236 76.21 187.991 75.93 187.691 75.71C187.401 75.49 187.061 75.33 186.671 75.23C186.291 75.12 185.881 75.065 185.441 75.065C184.831 75.065 184.296 75.175 183.836 75.395C183.376 75.605 182.991 75.9 182.681 76.28C182.381 76.65 182.156 77.09 182.006 77.6C181.856 78.1 181.781 78.64 181.781 79.22C181.781 79.8 181.856 80.335 182.006 80.825C182.166 81.305 182.396 81.72 182.696 82.07C183.006 82.42 183.386 82.69 183.836 82.88C184.296 83.07 184.821 83.165 185.411 83.165C186.401 83.165 187.181 82.905 187.751 82.385C188.331 81.865 188.691 81.125 188.831 80.165H187.526C187.446 80.765 187.226 81.23 186.866 81.56C186.516 81.89 186.026 82.055 185.396 82.055C184.996 82.055 184.651 81.975 184.361 81.815C184.071 81.655 183.836 81.445 183.656 81.185C183.476 80.915 183.341 80.61 183.251 80.27C183.171 79.93 183.131 79.58 183.131 79.22C183.131 78.83 183.171 78.455 183.251 78.095C183.331 77.725 183.461 77.4 183.641 77.12C183.831 76.84 184.081 76.615 184.391 76.445C184.701 76.275 185.086 76.19 185.546 76.19C186.086 76.19 186.516 76.325 186.836 76.595C187.156 76.865 187.366 77.245 187.466 77.735ZM198.128 82.97C197.908 83.1 197.603 83.165 197.213 83.165C196.883 83.165 196.618 83.075 196.418 82.895C196.228 82.705 196.133 82.4 196.133 81.98C195.783 82.4 195.373 82.705 194.903 82.895C194.443 83.075 193.943 83.165 193.403 83.165C193.053 83.165 192.718 83.125 192.398 83.045C192.088 82.965 191.818 82.84 191.588 82.67C191.358 82.5 191.173 82.28 191.033 82.01C190.903 81.73 190.838 81.395 190.838 81.005C190.838 80.565 190.913 80.205 191.063 79.925C191.213 79.645 191.408 79.42 191.648 79.25C191.898 79.07 192.178 78.935 192.488 78.845C192.808 78.755 193.133 78.68 193.463 78.62C193.813 78.55 194.143 78.5 194.453 78.47C194.773 78.43 195.053 78.38 195.293 78.32C195.533 78.25 195.723 78.155 195.863 78.035C196.003 77.905 196.073 77.72 196.073 77.48C196.073 77.2 196.018 76.975 195.908 76.805C195.808 76.635 195.673 76.505 195.503 76.415C195.343 76.325 195.158 76.265 194.948 76.235C194.748 76.205 194.548 76.19 194.348 76.19C193.808 76.19 193.358 76.295 192.998 76.505C192.638 76.705 192.443 77.09 192.413 77.66H191.138C191.158 77.18 191.258 76.775 191.438 76.445C191.618 76.115 191.858 75.85 192.158 75.65C192.458 75.44 192.798 75.29 193.178 75.2C193.568 75.11 193.983 75.065 194.423 75.065C194.773 75.065 195.118 75.09 195.458 75.14C195.808 75.19 196.123 75.295 196.403 75.455C196.683 75.605 196.908 75.82 197.078 76.1C197.248 76.38 197.333 76.745 197.333 77.195V81.185C197.333 81.485 197.348 81.705 197.378 81.845C197.418 81.985 197.538 82.055 197.738 82.055C197.848 82.055 197.978 82.03 198.128 81.98V82.97ZM196.058 78.995C195.898 79.115 195.688 79.205 195.428 79.265C195.168 79.315 194.893 79.36 194.603 79.4C194.323 79.43 194.038 79.47 193.748 79.52C193.458 79.56 193.198 79.63 192.968 79.73C192.738 79.83 192.548 79.975 192.398 80.165C192.258 80.345 192.188 80.595 192.188 80.915C192.188 81.125 192.228 81.305 192.308 81.455C192.398 81.595 192.508 81.71 192.638 81.8C192.778 81.89 192.938 81.955 193.118 81.995C193.298 82.035 193.488 82.055 193.688 82.055C194.108 82.055 194.468 82 194.768 81.89C195.068 81.77 195.313 81.625 195.503 81.455C195.693 81.275 195.833 81.085 195.923 80.885C196.013 80.675 196.058 80.48 196.058 80.3V78.995ZM202.084 75.245V72.92H200.809V75.245H199.489V76.37H200.809V81.305C200.809 81.665 200.844 81.955 200.914 82.175C200.984 82.395 201.089 82.565 201.229 82.685C201.379 82.805 201.569 82.89 201.799 82.94C202.039 82.98 202.324 83 202.654 83H203.629V81.875H203.044C202.844 81.875 202.679 81.87 202.549 81.86C202.429 81.84 202.334 81.805 202.264 81.755C202.194 81.705 202.144 81.635 202.114 81.545C202.094 81.455 202.084 81.335 202.084 81.185V76.37H203.629V75.245H202.084ZM207.396 73.85V72.29H206.121V73.85H207.396ZM206.121 75.245V83H207.396V75.245H206.121ZM211.301 79.13C211.301 78.66 211.361 78.245 211.481 77.885C211.611 77.515 211.786 77.205 212.006 76.955C212.226 76.705 212.481 76.515 212.771 76.385C213.071 76.255 213.386 76.19 213.716 76.19C214.046 76.19 214.356 76.255 214.646 76.385C214.946 76.515 215.206 76.705 215.426 76.955C215.646 77.205 215.816 77.515 215.936 77.885C216.066 78.245 216.131 78.66 216.131 79.13C216.131 79.6 216.066 80.02 215.936 80.39C215.816 80.75 215.646 81.055 215.426 81.305C215.206 81.545 214.946 81.73 214.646 81.86C214.356 81.99 214.046 82.055 213.716 82.055C213.386 82.055 213.071 81.99 212.771 81.86C212.481 81.73 212.226 81.545 212.006 81.305C211.786 81.055 211.611 80.75 211.481 80.39C211.361 80.02 211.301 79.6 211.301 79.13ZM209.951 79.13C209.951 79.7 210.031 80.23 210.191 80.72C210.351 81.21 210.591 81.64 210.911 82.01C211.231 82.37 211.626 82.655 212.096 82.865C212.566 83.065 213.106 83.165 213.716 83.165C214.336 83.165 214.876 83.065 215.336 82.865C215.806 82.655 216.201 82.37 216.521 82.01C216.841 81.64 217.081 81.21 217.241 80.72C217.401 80.23 217.481 79.7 217.481 79.13C217.481 78.56 217.401 78.03 217.241 77.54C217.081 77.04 216.841 76.61 216.521 76.25C216.201 75.88 215.806 75.59 215.336 75.38C214.876 75.17 214.336 75.065 213.716 75.065C213.106 75.065 212.566 75.17 212.096 75.38C211.626 75.59 211.231 75.88 210.911 76.25C210.591 76.61 210.351 77.04 210.191 77.54C210.031 78.03 209.951 78.56 209.951 79.13ZM219.984 75.245V83H221.259V78.62C221.259 78.27 221.304 77.95 221.394 77.66C221.494 77.36 221.639 77.1 221.829 76.88C222.019 76.66 222.254 76.49 222.534 76.37C222.824 76.25 223.164 76.19 223.554 76.19C224.044 76.19 224.429 76.33 224.709 76.61C224.989 76.89 225.129 77.27 225.129 77.75V83H226.404V77.9C226.404 77.48 226.359 77.1 226.269 76.76C226.189 76.41 226.044 76.11 225.834 75.86C225.624 75.61 225.349 75.415 225.009 75.275C224.669 75.135 224.244 75.065 223.734 75.065C222.584 75.065 221.744 75.535 221.214 76.475H221.184V75.245H219.984Z" fill="#333333"/>
</g>
<defs>
<clipPath id="clip0">
<rect width="256" height="74" fill="white" transform="translate(112 16)"/>
</clipPath>
</defs>
</svg>
