<svg width="384" height="106" viewBox="0 0 384 106" fill="none" xmlns="http://www.w3.org/2000/svg">
<path d="M0 8C0 3.58172 3.58172 0 8 0H376C380.418 0 384 3.58172 384 8V98C384 102.418 380.418 106 376 106H7.99999C3.58171 106 0 102.418 0 98V8Z" fill="#FCF8E3"/>
<path d="M50.077 51.646L52.7926 48.8135C52.9803 48.6177 53.2838 48.6177 53.4695 48.8135L53.9207 49.2842C54.1084 49.48 54.1084 49.7965 53.9207 49.9902L51.9979 52L53.9227 54.0077C54.1104 54.2035 54.1104 54.5201 53.9227 54.7138L53.4715 55.1865C53.2838 55.3823 52.9803 55.3823 52.7946 55.1865L50.079 52.3541C49.8894 52.1583 49.8894 51.8417 50.077 51.646Z" fill="#333333"/>
<g clip-path="url(#clip0)">
<path d="M116.392 25.268L111.91 32H115.078L117.94 27.554L120.748 32H124.114L119.632 25.286L123.754 19.148H120.658L118.048 23.252L115.528 19.148H112.252L116.392 25.268ZM125.14 25.988V28.184H130.558V25.988H125.14ZM134.864 27.734H132.128C132.116 28.526 132.26 29.21 132.56 29.786C132.86 30.362 133.262 30.836 133.766 31.208C134.282 31.58 134.87 31.85 135.53 32.018C136.202 32.198 136.892 32.288 137.6 32.288C138.476 32.288 139.244 32.186 139.904 31.982C140.576 31.778 141.134 31.496 141.578 31.136C142.034 30.764 142.376 30.326 142.604 29.822C142.832 29.318 142.946 28.772 142.946 28.184C142.946 27.464 142.79 26.876 142.478 26.42C142.178 25.952 141.818 25.58 141.398 25.304C140.978 25.028 140.552 24.83 140.12 24.71C139.7 24.578 139.37 24.488 139.13 24.44C138.326 24.236 137.672 24.068 137.168 23.936C136.676 23.804 136.286 23.672 135.998 23.54C135.722 23.408 135.536 23.264 135.44 23.108C135.344 22.952 135.296 22.748 135.296 22.496C135.296 22.22 135.356 21.992 135.476 21.812C135.596 21.632 135.746 21.482 135.926 21.362C136.118 21.242 136.328 21.158 136.556 21.11C136.784 21.062 137.012 21.038 137.24 21.038C137.588 21.038 137.906 21.068 138.194 21.128C138.494 21.188 138.758 21.29 138.986 21.434C139.214 21.578 139.394 21.776 139.526 22.028C139.67 22.28 139.754 22.598 139.778 22.982H142.514C142.514 22.238 142.37 21.608 142.082 21.092C141.806 20.564 141.428 20.132 140.948 19.796C140.468 19.46 139.916 19.22 139.292 19.076C138.68 18.92 138.038 18.842 137.366 18.842C136.79 18.842 136.214 18.92 135.638 19.076C135.062 19.232 134.546 19.472 134.09 19.796C133.634 20.12 133.262 20.528 132.974 21.02C132.698 21.5 132.56 22.07 132.56 22.73C132.56 23.318 132.668 23.822 132.884 24.242C133.112 24.65 133.406 24.992 133.766 25.268C134.126 25.544 134.534 25.772 134.99 25.952C135.446 26.12 135.914 26.264 136.394 26.384C136.862 26.516 137.324 26.636 137.78 26.744C138.236 26.852 138.644 26.978 139.004 27.122C139.364 27.266 139.652 27.446 139.868 27.662C140.096 27.878 140.21 28.16 140.21 28.508C140.21 28.832 140.126 29.102 139.958 29.318C139.79 29.522 139.58 29.684 139.328 29.804C139.076 29.924 138.806 30.008 138.518 30.056C138.23 30.092 137.96 30.11 137.708 30.11C137.336 30.11 136.976 30.068 136.628 29.984C136.28 29.888 135.974 29.75 135.71 29.57C135.458 29.378 135.254 29.132 135.098 28.832C134.942 28.532 134.864 28.166 134.864 27.734ZM144.807 19.148V32H147.453V22.982H147.489L150.639 32H152.817L155.967 22.892H156.003V32H158.649V19.148H154.671L151.827 27.986H151.791L148.785 19.148H144.807ZM164.557 27.032L166.231 22.316H166.267L167.887 27.032H164.557ZM164.827 19.148L159.967 32H162.811L163.819 29.138H168.625L169.597 32H172.531L167.725 19.148H164.827ZM173.82 19.148V32H182.91V29.624H176.646V19.148H173.82ZM184.67 19.148V32H193.76V29.624H187.496V19.148H184.67ZM204.291 18.842L199.287 32.288H201.321L206.343 18.842H204.291ZM215.909 25.268L211.427 32H214.595L217.457 27.554L220.265 32H223.631L219.149 25.286L223.271 19.148H220.175L217.565 23.252L215.045 19.148H211.769L215.909 25.268ZM226.871 27.734H224.135C224.123 28.526 224.267 29.21 224.567 29.786C224.867 30.362 225.269 30.836 225.773 31.208C226.289 31.58 226.877 31.85 227.537 32.018C228.209 32.198 228.899 32.288 229.607 32.288C230.483 32.288 231.251 32.186 231.911 31.982C232.583 31.778 233.141 31.496 233.585 31.136C234.041 30.764 234.383 30.326 234.611 29.822C234.839 29.318 234.953 28.772 234.953 28.184C234.953 27.464 234.797 26.876 234.485 26.42C234.185 25.952 233.825 25.58 233.405 25.304C232.985 25.028 232.559 24.83 232.127 24.71C231.707 24.578 231.377 24.488 231.137 24.44C230.333 24.236 229.679 24.068 229.175 23.936C228.683 23.804 228.293 23.672 228.005 23.54C227.729 23.408 227.543 23.264 227.447 23.108C227.351 22.952 227.303 22.748 227.303 22.496C227.303 22.22 227.363 21.992 227.483 21.812C227.603 21.632 227.753 21.482 227.933 21.362C228.125 21.242 228.335 21.158 228.563 21.11C228.791 21.062 229.019 21.038 229.247 21.038C229.595 21.038 229.913 21.068 230.201 21.128C230.501 21.188 230.765 21.29 230.993 21.434C231.221 21.578 231.401 21.776 231.533 22.028C231.677 22.28 231.761 22.598 231.785 22.982H234.521C234.521 22.238 234.377 21.608 234.089 21.092C233.813 20.564 233.435 20.132 232.955 19.796C232.475 19.46 231.923 19.22 231.299 19.076C230.687 18.92 230.045 18.842 229.373 18.842C228.797 18.842 228.221 18.92 227.645 19.076C227.069 19.232 226.553 19.472 226.097 19.796C225.641 20.12 225.269 20.528 224.981 21.02C224.705 21.5 224.567 22.07 224.567 22.73C224.567 23.318 224.675 23.822 224.891 24.242C225.119 24.65 225.413 24.992 225.773 25.268C226.133 25.544 226.541 25.772 226.997 25.952C227.453 26.12 227.921 26.264 228.401 26.384C228.869 26.516 229.331 26.636 229.787 26.744C230.243 26.852 230.651 26.978 231.011 27.122C231.371 27.266 231.659 27.446 231.875 27.662C232.103 27.878 232.217 28.16 232.217 28.508C232.217 28.832 232.133 29.102 231.965 29.318C231.797 29.522 231.587 29.684 231.335 29.804C231.083 29.924 230.813 30.008 230.525 30.056C230.237 30.092 229.967 30.11 229.715 30.11C229.343 30.11 228.983 30.068 228.635 29.984C228.287 29.888 227.981 29.75 227.717 29.57C227.465 29.378 227.261 29.132 227.105 28.832C226.949 28.532 226.871 28.166 226.871 27.734Z" fill="#333333"/>
<path d="M114.595 55.8V47.49H116.995C117.655 47.49 118.21 47.585 118.66 47.775C119.11 47.955 119.475 48.225 119.755 48.585C120.045 48.935 120.25 49.365 120.37 49.875C120.5 50.375 120.565 50.945 120.565 51.585C120.565 52.245 120.495 52.81 120.355 53.28C120.225 53.74 120.055 54.125 119.845 54.435C119.635 54.745 119.395 54.99 119.125 55.17C118.865 55.35 118.6 55.49 118.33 55.59C118.06 55.68 117.805 55.74 117.565 55.77C117.325 55.79 117.125 55.8 116.965 55.8H114.595ZM113.17 46.29V57H116.845C117.735 57 118.505 56.875 119.155 56.625C119.805 56.375 120.34 56.015 120.76 55.545C121.18 55.065 121.49 54.48 121.69 53.79C121.89 53.09 121.99 52.29 121.99 51.39C121.99 49.67 121.545 48.39 120.655 47.55C119.765 46.71 118.495 46.29 116.845 46.29H113.17ZM124.477 49.245V57H125.752V53.55C125.752 53.05 125.802 52.61 125.902 52.23C126.002 51.84 126.162 51.51 126.382 51.24C126.602 50.97 126.892 50.765 127.252 50.625C127.612 50.485 128.047 50.415 128.557 50.415V49.065C127.867 49.045 127.297 49.185 126.847 49.485C126.397 49.785 126.017 50.25 125.707 50.88H125.677V49.245H124.477ZM131.183 53.13C131.183 52.66 131.243 52.245 131.363 51.885C131.493 51.515 131.668 51.205 131.888 50.955C132.108 50.705 132.363 50.515 132.653 50.385C132.953 50.255 133.268 50.19 133.598 50.19C133.928 50.19 134.238 50.255 134.528 50.385C134.828 50.515 135.088 50.705 135.308 50.955C135.528 51.205 135.698 51.515 135.818 51.885C135.948 52.245 136.013 52.66 136.013 53.13C136.013 53.6 135.948 54.02 135.818 54.39C135.698 54.75 135.528 55.055 135.308 55.305C135.088 55.545 134.828 55.73 134.528 55.86C134.238 55.99 133.928 56.055 133.598 56.055C133.268 56.055 132.953 55.99 132.653 55.86C132.363 55.73 132.108 55.545 131.888 55.305C131.668 55.055 131.493 54.75 131.363 54.39C131.243 54.02 131.183 53.6 131.183 53.13ZM129.833 53.13C129.833 53.7 129.913 54.23 130.073 54.72C130.233 55.21 130.473 55.64 130.793 56.01C131.113 56.37 131.508 56.655 131.978 56.865C132.448 57.065 132.988 57.165 133.598 57.165C134.218 57.165 134.758 57.065 135.218 56.865C135.688 56.655 136.083 56.37 136.403 56.01C136.723 55.64 136.963 55.21 137.123 54.72C137.283 54.23 137.363 53.7 137.363 53.13C137.363 52.56 137.283 52.03 137.123 51.54C136.963 51.04 136.723 50.61 136.403 50.25C136.083 49.88 135.688 49.59 135.218 49.38C134.758 49.17 134.218 49.065 133.598 49.065C132.988 49.065 132.448 49.17 131.978 49.38C131.508 49.59 131.113 49.88 130.793 50.25C130.473 50.61 130.233 51.04 130.073 51.54C129.913 52.03 129.833 52.56 129.833 53.13ZM139.911 49.245V59.955H141.186V55.965H141.216C141.356 56.195 141.526 56.39 141.726 56.55C141.936 56.7 142.156 56.82 142.386 56.91C142.616 57 142.846 57.065 143.076 57.105C143.316 57.145 143.531 57.165 143.721 57.165C144.311 57.165 144.826 57.06 145.266 56.85C145.716 56.64 146.086 56.355 146.376 55.995C146.676 55.625 146.896 55.195 147.036 54.705C147.186 54.215 147.261 53.695 147.261 53.145C147.261 52.595 147.186 52.075 147.036 51.585C146.886 51.095 146.661 50.665 146.361 50.295C146.071 49.915 145.701 49.615 145.251 49.395C144.811 49.175 144.291 49.065 143.691 49.065C143.151 49.065 142.656 49.165 142.206 49.365C141.756 49.555 141.426 49.865 141.216 50.295H141.186V49.245H139.911ZM145.911 53.055C145.911 53.435 145.871 53.805 145.791 54.165C145.711 54.525 145.581 54.845 145.401 55.125C145.221 55.405 144.981 55.63 144.681 55.8C144.391 55.97 144.026 56.055 143.586 56.055C143.146 56.055 142.771 55.975 142.461 55.815C142.151 55.645 141.896 55.425 141.696 55.155C141.506 54.885 141.366 54.575 141.276 54.225C141.186 53.865 141.141 53.495 141.141 53.115C141.141 52.755 141.181 52.4 141.261 52.05C141.351 51.7 141.491 51.39 141.681 51.12C141.871 50.84 142.116 50.615 142.416 50.445C142.716 50.275 143.081 50.19 143.511 50.19C143.921 50.19 144.276 50.27 144.576 50.43C144.886 50.59 145.136 50.805 145.326 51.075C145.526 51.345 145.671 51.655 145.761 52.005C145.861 52.345 145.911 52.695 145.911 53.055ZM150.688 53.19C150.688 52.81 150.728 52.44 150.808 52.08C150.888 51.72 151.018 51.4 151.198 51.12C151.378 50.84 151.618 50.615 151.918 50.445C152.218 50.275 152.583 50.19 153.013 50.19C153.453 50.19 153.828 50.275 154.138 50.445C154.448 50.605 154.698 50.82 154.888 51.09C155.088 51.36 155.233 51.675 155.323 52.035C155.413 52.385 155.458 52.75 155.458 53.13C155.458 53.49 155.413 53.845 155.323 54.195C155.243 54.545 155.108 54.86 154.918 55.14C154.728 55.41 154.483 55.63 154.183 55.8C153.883 55.97 153.518 56.055 153.088 56.055C152.678 56.055 152.318 55.975 152.008 55.815C151.708 55.655 151.458 55.44 151.258 55.17C151.068 54.9 150.923 54.595 150.823 54.255C150.733 53.905 150.688 53.55 150.688 53.19ZM156.688 57V46.29H155.413V50.28H155.383C155.243 50.05 155.068 49.86 154.858 49.71C154.658 49.55 154.443 49.425 154.213 49.335C153.983 49.235 153.753 49.165 153.523 49.125C153.293 49.085 153.078 49.065 152.878 49.065C152.288 49.065 151.768 49.175 151.318 49.395C150.878 49.605 150.508 49.895 150.208 50.265C149.918 50.625 149.698 51.05 149.548 51.54C149.408 52.03 149.338 52.55 149.338 53.1C149.338 53.65 149.413 54.17 149.563 54.66C149.713 55.15 149.933 55.58 150.223 55.95C150.523 56.32 150.893 56.615 151.333 56.835C151.783 57.055 152.308 57.165 152.908 57.165C153.448 57.165 153.943 57.07 154.393 56.88C154.843 56.69 155.173 56.38 155.383 55.95H155.413V57H156.688ZM160.579 53.13C160.579 52.66 160.639 52.245 160.759 51.885C160.889 51.515 161.064 51.205 161.284 50.955C161.504 50.705 161.759 50.515 162.049 50.385C162.349 50.255 162.664 50.19 162.994 50.19C163.324 50.19 163.634 50.255 163.924 50.385C164.224 50.515 164.484 50.705 164.704 50.955C164.924 51.205 165.094 51.515 165.214 51.885C165.344 52.245 165.409 52.66 165.409 53.13C165.409 53.6 165.344 54.02 165.214 54.39C165.094 54.75 164.924 55.055 164.704 55.305C164.484 55.545 164.224 55.73 163.924 55.86C163.634 55.99 163.324 56.055 162.994 56.055C162.664 56.055 162.349 55.99 162.049 55.86C161.759 55.73 161.504 55.545 161.284 55.305C161.064 55.055 160.889 54.75 160.759 54.39C160.639 54.02 160.579 53.6 160.579 53.13ZM159.229 53.13C159.229 53.7 159.309 54.23 159.469 54.72C159.629 55.21 159.869 55.64 160.189 56.01C160.509 56.37 160.904 56.655 161.374 56.865C161.844 57.065 162.384 57.165 162.994 57.165C163.614 57.165 164.154 57.065 164.614 56.865C165.084 56.655 165.479 56.37 165.799 56.01C166.119 55.64 166.359 55.21 166.519 54.72C166.679 54.23 166.759 53.7 166.759 53.13C166.759 52.56 166.679 52.03 166.519 51.54C166.359 51.04 166.119 50.61 165.799 50.25C165.479 49.88 165.084 49.59 164.614 49.38C164.154 49.17 163.614 49.065 162.994 49.065C162.384 49.065 161.844 49.17 161.374 49.38C160.904 49.59 160.509 49.88 160.189 50.25C159.869 50.61 159.629 51.04 159.469 51.54C159.309 52.03 159.229 52.56 159.229 53.13ZM176.943 57L179.418 49.245H178.098L176.358 55.59H176.328L174.708 49.245H173.313L171.753 55.59H171.723L169.968 49.245H168.558L171.048 57H172.428L173.988 50.835H174.018L175.593 57H176.943ZM181.63 49.245V57H182.905V52.62C182.905 52.27 182.95 51.95 183.04 51.66C183.14 51.36 183.285 51.1 183.475 50.88C183.665 50.66 183.9 50.49 184.18 50.37C184.47 50.25 184.81 50.19 185.2 50.19C185.69 50.19 186.075 50.33 186.355 50.61C186.635 50.89 186.775 51.27 186.775 51.75V57H188.05V51.9C188.05 51.48 188.005 51.1 187.915 50.76C187.835 50.41 187.69 50.11 187.48 49.86C187.27 49.61 186.995 49.415 186.655 49.275C186.315 49.135 185.89 49.065 185.38 49.065C184.23 49.065 183.39 49.535 182.86 50.475H182.83V49.245H181.63ZM196.14 49.245V57H197.415V52.17C197.415 52.02 197.45 51.835 197.52 51.615C197.6 51.385 197.72 51.165 197.88 50.955C198.05 50.745 198.265 50.565 198.525 50.415C198.795 50.265 199.115 50.19 199.485 50.19C199.775 50.19 200.01 50.235 200.19 50.325C200.38 50.405 200.53 50.525 200.64 50.685C200.75 50.835 200.825 51.015 200.865 51.225C200.915 51.435 200.94 51.665 200.94 51.915V57H202.215V52.17C202.215 51.57 202.395 51.09 202.755 50.73C203.115 50.37 203.61 50.19 204.24 50.19C204.55 50.19 204.8 50.235 204.99 50.325C205.19 50.415 205.345 50.54 205.455 50.7C205.565 50.85 205.64 51.03 205.68 51.24C205.72 51.45 205.74 51.675 205.74 51.915V57H207.015V51.315C207.015 50.915 206.95 50.575 206.82 50.295C206.7 50.005 206.525 49.77 206.295 49.59C206.075 49.41 205.805 49.28 205.485 49.2C205.175 49.11 204.825 49.065 204.435 49.065C203.925 49.065 203.455 49.18 203.025 49.41C202.605 49.64 202.265 49.965 202.005 50.385C201.845 49.905 201.57 49.565 201.18 49.365C200.79 49.165 200.355 49.065 199.875 49.065C198.785 49.065 197.95 49.505 197.37 50.385H197.34V49.245H196.14ZM216.798 56.97C216.578 57.1 216.273 57.165 215.883 57.165C215.553 57.165 215.288 57.075 215.088 56.895C214.898 56.705 214.803 56.4 214.803 55.98C214.453 56.4 214.043 56.705 213.573 56.895C213.113 57.075 212.613 57.165 212.073 57.165C211.723 57.165 211.388 57.125 211.068 57.045C210.758 56.965 210.488 56.84 210.258 56.67C210.028 56.5 209.843 56.28 209.703 56.01C209.573 55.73 209.508 55.395 209.508 55.005C209.508 54.565 209.583 54.205 209.733 53.925C209.883 53.645 210.078 53.42 210.318 53.25C210.568 53.07 210.848 52.935 211.158 52.845C211.478 52.755 211.803 52.68 212.133 52.62C212.483 52.55 212.813 52.5 213.123 52.47C213.443 52.43 213.723 52.38 213.963 52.32C214.203 52.25 214.393 52.155 214.533 52.035C214.673 51.905 214.743 51.72 214.743 51.48C214.743 51.2 214.688 50.975 214.578 50.805C214.478 50.635 214.343 50.505 214.173 50.415C214.013 50.325 213.828 50.265 213.618 50.235C213.418 50.205 213.218 50.19 213.018 50.19C212.478 50.19 212.028 50.295 211.668 50.505C211.308 50.705 211.113 51.09 211.083 51.66H209.808C209.828 51.18 209.928 50.775 210.108 50.445C210.288 50.115 210.528 49.85 210.828 49.65C211.128 49.44 211.468 49.29 211.848 49.2C212.238 49.11 212.653 49.065 213.093 49.065C213.443 49.065 213.788 49.09 214.128 49.14C214.478 49.19 214.793 49.295 215.073 49.455C215.353 49.605 215.578 49.82 215.748 50.1C215.918 50.38 216.003 50.745 216.003 51.195V55.185C216.003 55.485 216.018 55.705 216.048 55.845C216.088 55.985 216.208 56.055 216.408 56.055C216.518 56.055 216.648 56.03 216.798 55.98V56.97ZM214.728 52.995C214.568 53.115 214.358 53.205 214.098 53.265C213.838 53.315 213.563 53.36 213.273 53.4C212.993 53.43 212.708 53.47 212.418 53.52C212.128 53.56 211.868 53.63 211.638 53.73C211.408 53.83 211.218 53.975 211.068 54.165C210.928 54.345 210.858 54.595 210.858 54.915C210.858 55.125 210.898 55.305 210.978 55.455C211.068 55.595 211.178 55.71 211.308 55.8C211.448 55.89 211.608 55.955 211.788 55.995C211.968 56.035 212.158 56.055 212.358 56.055C212.778 56.055 213.138 56 213.438 55.89C213.738 55.77 213.983 55.625 214.173 55.455C214.363 55.275 214.503 55.085 214.593 54.885C214.683 54.675 214.728 54.48 214.728 54.3V52.995ZM218.939 49.245V57H220.214V53.55C220.214 53.05 220.264 52.61 220.364 52.23C220.464 51.84 220.624 51.51 220.844 51.24C221.064 50.97 221.354 50.765 221.714 50.625C222.074 50.485 222.509 50.415 223.019 50.415V49.065C222.329 49.045 221.759 49.185 221.309 49.485C220.859 49.785 220.479 50.25 220.169 50.88H220.139V49.245H218.939ZM225.055 46.29V57H226.33V54.06L227.53 52.95L230.185 57H231.805L228.505 52.065L231.58 49.245H229.87L226.33 52.635V46.29H225.055ZM239.143 52.38H234.688C234.708 52.08 234.773 51.8 234.883 51.54C234.993 51.27 235.143 51.035 235.333 50.835C235.523 50.635 235.748 50.48 236.008 50.37C236.278 50.25 236.578 50.19 236.908 50.19C237.228 50.19 237.518 50.25 237.778 50.37C238.048 50.48 238.278 50.635 238.468 50.835C238.668 51.025 238.823 51.255 238.933 51.525C239.053 51.795 239.123 52.08 239.143 52.38ZM240.373 54.54H239.113C239.003 55.05 238.773 55.43 238.423 55.68C238.083 55.93 237.643 56.055 237.103 56.055C236.683 56.055 236.318 55.985 236.008 55.845C235.698 55.705 235.443 55.52 235.243 55.29C235.043 55.05 234.898 54.78 234.808 54.48C234.718 54.17 234.678 53.845 234.688 53.505H240.493C240.513 53.035 240.468 52.54 240.358 52.02C240.258 51.5 240.068 51.02 239.788 50.58C239.518 50.14 239.153 49.78 238.693 49.5C238.243 49.21 237.673 49.065 236.983 49.065C236.453 49.065 235.963 49.165 235.513 49.365C235.073 49.565 234.688 49.845 234.358 50.205C234.038 50.565 233.788 50.99 233.608 51.48C233.428 51.97 233.338 52.51 233.338 53.1C233.358 53.69 233.443 54.235 233.593 54.735C233.753 55.235 233.988 55.665 234.298 56.025C234.608 56.385 234.988 56.665 235.438 56.865C235.898 57.065 236.438 57.165 237.058 57.165C237.938 57.165 238.668 56.945 239.248 56.505C239.828 56.065 240.203 55.41 240.373 54.54ZM242.769 49.245V57H244.044V53.55C244.044 53.05 244.094 52.61 244.194 52.23C244.294 51.84 244.454 51.51 244.674 51.24C244.894 50.97 245.184 50.765 245.544 50.625C245.904 50.485 246.339 50.415 246.849 50.415V49.065C246.159 49.045 245.589 49.185 245.139 49.485C244.689 49.785 244.309 50.25 243.999 50.88H243.969V49.245H242.769ZM249.59 54.555H248.315C248.335 55.035 248.435 55.445 248.615 55.785C248.795 56.115 249.035 56.385 249.335 56.595C249.635 56.795 249.98 56.94 250.37 57.03C250.76 57.12 251.17 57.165 251.6 57.165C251.99 57.165 252.38 57.125 252.77 57.045C253.17 56.975 253.525 56.845 253.835 56.655C254.155 56.465 254.41 56.215 254.6 55.905C254.8 55.595 254.9 55.205 254.9 54.735C254.9 54.365 254.825 54.055 254.675 53.805C254.535 53.555 254.345 53.35 254.105 53.19C253.875 53.02 253.605 52.885 253.295 52.785C252.995 52.685 252.685 52.6 252.365 52.53C252.065 52.46 251.765 52.395 251.465 52.335C251.165 52.265 250.895 52.185 250.655 52.095C250.415 51.995 250.215 51.875 250.055 51.735C249.905 51.585 249.83 51.4 249.83 51.18C249.83 50.98 249.88 50.82 249.98 50.7C250.08 50.57 250.21 50.47 250.37 50.4C250.53 50.32 250.705 50.265 250.895 50.235C251.095 50.205 251.29 50.19 251.48 50.19C251.69 50.19 251.895 50.215 252.095 50.265C252.305 50.305 252.495 50.375 252.665 50.475C252.835 50.575 252.975 50.71 253.085 50.88C253.195 51.04 253.26 51.245 253.28 51.495H254.555C254.525 51.025 254.425 50.635 254.255 50.325C254.085 50.005 253.855 49.755 253.565 49.575C253.285 49.385 252.96 49.255 252.59 49.185C252.22 49.105 251.815 49.065 251.375 49.065C251.035 49.065 250.69 49.11 250.34 49.2C250 49.28 249.69 49.41 249.41 49.59C249.14 49.76 248.915 49.985 248.735 50.265C248.565 50.545 248.48 50.88 248.48 51.27C248.48 51.77 248.605 52.16 248.855 52.44C249.105 52.72 249.415 52.94 249.785 53.1C250.165 53.25 250.575 53.37 251.015 53.46C251.455 53.54 251.86 53.635 252.23 53.745C252.61 53.845 252.925 53.98 253.175 54.15C253.425 54.32 253.55 54.57 253.55 54.9C253.55 55.14 253.49 55.34 253.37 55.5C253.25 55.65 253.095 55.765 252.905 55.845C252.725 55.925 252.525 55.98 252.305 56.01C252.085 56.04 251.875 56.055 251.675 56.055C251.415 56.055 251.16 56.03 250.91 55.98C250.67 55.93 250.45 55.85 250.25 55.74C250.06 55.62 249.905 55.465 249.785 55.275C249.665 55.075 249.6 54.835 249.59 54.555ZM269.354 56.97C269.134 57.1 268.829 57.165 268.439 57.165C268.109 57.165 267.844 57.075 267.644 56.895C267.454 56.705 267.359 56.4 267.359 55.98C267.009 56.4 266.599 56.705 266.129 56.895C265.669 57.075 265.169 57.165 264.629 57.165C264.279 57.165 263.944 57.125 263.624 57.045C263.314 56.965 263.044 56.84 262.814 56.67C262.584 56.5 262.399 56.28 262.259 56.01C262.129 55.73 262.064 55.395 262.064 55.005C262.064 54.565 262.139 54.205 262.289 53.925C262.439 53.645 262.634 53.42 262.874 53.25C263.124 53.07 263.404 52.935 263.714 52.845C264.034 52.755 264.359 52.68 264.689 52.62C265.039 52.55 265.369 52.5 265.679 52.47C265.999 52.43 266.279 52.38 266.519 52.32C266.759 52.25 266.949 52.155 267.089 52.035C267.229 51.905 267.299 51.72 267.299 51.48C267.299 51.2 267.244 50.975 267.134 50.805C267.034 50.635 266.899 50.505 266.729 50.415C266.569 50.325 266.384 50.265 266.174 50.235C265.974 50.205 265.774 50.19 265.574 50.19C265.034 50.19 264.584 50.295 264.224 50.505C263.864 50.705 263.669 51.09 263.639 51.66H262.364C262.384 51.18 262.484 50.775 262.664 50.445C262.844 50.115 263.084 49.85 263.384 49.65C263.684 49.44 264.024 49.29 264.404 49.2C264.794 49.11 265.209 49.065 265.649 49.065C265.999 49.065 266.344 49.09 266.684 49.14C267.034 49.19 267.349 49.295 267.629 49.455C267.909 49.605 268.134 49.82 268.304 50.1C268.474 50.38 268.559 50.745 268.559 51.195V55.185C268.559 55.485 268.574 55.705 268.604 55.845C268.644 55.985 268.764 56.055 268.964 56.055C269.074 56.055 269.204 56.03 269.354 55.98V56.97ZM267.284 52.995C267.124 53.115 266.914 53.205 266.654 53.265C266.394 53.315 266.119 53.36 265.829 53.4C265.549 53.43 265.264 53.47 264.974 53.52C264.684 53.56 264.424 53.63 264.194 53.73C263.964 53.83 263.774 53.975 263.624 54.165C263.484 54.345 263.414 54.595 263.414 54.915C263.414 55.125 263.454 55.305 263.534 55.455C263.624 55.595 263.734 55.71 263.864 55.8C264.004 55.89 264.164 55.955 264.344 55.995C264.524 56.035 264.714 56.055 264.914 56.055C265.334 56.055 265.694 56 265.994 55.89C266.294 55.77 266.539 55.625 266.729 55.455C266.919 55.275 267.059 55.085 267.149 54.885C267.239 54.675 267.284 54.48 267.284 54.3V52.995ZM271.541 49.245V57H272.816V52.62C272.816 52.27 272.861 51.95 272.951 51.66C273.051 51.36 273.196 51.1 273.386 50.88C273.576 50.66 273.811 50.49 274.091 50.37C274.381 50.25 274.721 50.19 275.111 50.19C275.601 50.19 275.986 50.33 276.266 50.61C276.546 50.89 276.686 51.27 276.686 51.75V57H277.961V51.9C277.961 51.48 277.916 51.1 277.826 50.76C277.746 50.41 277.601 50.11 277.391 49.86C277.181 49.61 276.906 49.415 276.566 49.275C276.226 49.135 275.801 49.065 275.291 49.065C274.141 49.065 273.301 49.535 272.771 50.475H272.741V49.245H271.541ZM281.806 53.19C281.806 52.81 281.846 52.44 281.926 52.08C282.006 51.72 282.136 51.4 282.316 51.12C282.496 50.84 282.736 50.615 283.036 50.445C283.336 50.275 283.701 50.19 284.131 50.19C284.571 50.19 284.946 50.275 285.256 50.445C285.566 50.605 285.816 50.82 286.006 51.09C286.206 51.36 286.351 51.675 286.441 52.035C286.531 52.385 286.576 52.75 286.576 53.13C286.576 53.49 286.531 53.845 286.441 54.195C286.361 54.545 286.226 54.86 286.036 55.14C285.846 55.41 285.601 55.63 285.301 55.8C285.001 55.97 284.636 56.055 284.206 56.055C283.796 56.055 283.436 55.975 283.126 55.815C282.826 55.655 282.576 55.44 282.376 55.17C282.186 54.9 282.041 54.595 281.941 54.255C281.851 53.905 281.806 53.55 281.806 53.19ZM287.806 57V46.29H286.531V50.28H286.501C286.361 50.05 286.186 49.86 285.976 49.71C285.776 49.55 285.561 49.425 285.331 49.335C285.101 49.235 284.871 49.165 284.641 49.125C284.411 49.085 284.196 49.065 283.996 49.065C283.406 49.065 282.886 49.175 282.436 49.395C281.996 49.605 281.626 49.895 281.326 50.265C281.036 50.625 280.816 51.05 280.666 51.54C280.526 52.03 280.456 52.55 280.456 53.1C280.456 53.65 280.531 54.17 280.681 54.66C280.831 55.15 281.051 55.58 281.341 55.95C281.641 56.32 282.011 56.615 282.451 56.835C282.901 57.055 283.426 57.165 284.026 57.165C284.566 57.165 285.061 57.07 285.511 56.88C285.961 56.69 286.291 56.38 286.501 55.95H286.531V57H287.806ZM296.722 54.555H295.447C295.467 55.035 295.567 55.445 295.747 55.785C295.927 56.115 296.167 56.385 296.467 56.595C296.767 56.795 297.112 56.94 297.502 57.03C297.892 57.12 298.302 57.165 298.732 57.165C299.122 57.165 299.512 57.125 299.902 57.045C300.302 56.975 300.657 56.845 300.967 56.655C301.287 56.465 301.542 56.215 301.732 55.905C301.932 55.595 302.032 55.205 302.032 54.735C302.032 54.365 301.957 54.055 301.807 53.805C301.667 53.555 301.477 53.35 301.237 53.19C301.007 53.02 300.737 52.885 300.427 52.785C300.127 52.685 299.817 52.6 299.497 52.53C299.197 52.46 298.897 52.395 298.597 52.335C298.297 52.265 298.027 52.185 297.787 52.095C297.547 51.995 297.347 51.875 297.187 51.735C297.037 51.585 296.962 51.4 296.962 51.18C296.962 50.98 297.012 50.82 297.112 50.7C297.212 50.57 297.342 50.47 297.502 50.4C297.662 50.32 297.837 50.265 298.027 50.235C298.227 50.205 298.422 50.19 298.612 50.19C298.822 50.19 299.027 50.215 299.227 50.265C299.437 50.305 299.627 50.375 299.797 50.475C299.967 50.575 300.107 50.71 300.217 50.88C300.327 51.04 300.392 51.245 300.412 51.495H301.687C301.657 51.025 301.557 50.635 301.387 50.325C301.217 50.005 300.987 49.755 300.697 49.575C300.417 49.385 300.092 49.255 299.722 49.185C299.352 49.105 298.947 49.065 298.507 49.065C298.167 49.065 297.822 49.11 297.472 49.2C297.132 49.28 296.822 49.41 296.542 49.59C296.272 49.76 296.047 49.985 295.867 50.265C295.697 50.545 295.612 50.88 295.612 51.27C295.612 51.77 295.737 52.16 295.987 52.44C296.237 52.72 296.547 52.94 296.917 53.1C297.297 53.25 297.707 53.37 298.147 53.46C298.587 53.54 298.992 53.635 299.362 53.745C299.742 53.845 300.057 53.98 300.307 54.15C300.557 54.32 300.682 54.57 300.682 54.9C300.682 55.14 300.622 55.34 300.502 55.5C300.382 55.65 300.227 55.765 300.037 55.845C299.857 55.925 299.657 55.98 299.437 56.01C299.217 56.04 299.007 56.055 298.807 56.055C298.547 56.055 298.292 56.03 298.042 55.98C297.802 55.93 297.582 55.85 297.382 55.74C297.192 55.62 297.037 55.465 296.917 55.275C296.797 55.075 296.732 54.835 296.722 54.555ZM304.487 49.245V59.955H305.762V55.965H305.792C305.932 56.195 306.102 56.39 306.302 56.55C306.512 56.7 306.732 56.82 306.962 56.91C307.192 57 307.422 57.065 307.652 57.105C307.892 57.145 308.107 57.165 308.297 57.165C308.887 57.165 309.402 57.06 309.842 56.85C310.292 56.64 310.662 56.355 310.952 55.995C311.252 55.625 311.472 55.195 311.612 54.705C311.762 54.215 311.837 53.695 311.837 53.145C311.837 52.595 311.762 52.075 311.612 51.585C311.462 51.095 311.237 50.665 310.937 50.295C310.647 49.915 310.277 49.615 309.827 49.395C309.387 49.175 308.867 49.065 308.267 49.065C307.727 49.065 307.232 49.165 306.782 49.365C306.332 49.555 306.002 49.865 305.792 50.295H305.762V49.245H304.487ZM310.487 53.055C310.487 53.435 310.447 53.805 310.367 54.165C310.287 54.525 310.157 54.845 309.977 55.125C309.797 55.405 309.557 55.63 309.257 55.8C308.967 55.97 308.602 56.055 308.162 56.055C307.722 56.055 307.347 55.975 307.037 55.815C306.727 55.645 306.472 55.425 306.272 55.155C306.082 54.885 305.942 54.575 305.852 54.225C305.762 53.865 305.717 53.495 305.717 53.115C305.717 52.755 305.757 52.4 305.837 52.05C305.927 51.7 306.067 51.39 306.257 51.12C306.447 50.84 306.692 50.615 306.992 50.445C307.292 50.275 307.657 50.19 308.087 50.19C308.497 50.19 308.852 50.27 309.152 50.43C309.462 50.59 309.712 50.805 309.902 51.075C310.102 51.345 310.247 51.655 310.337 52.005C310.437 52.345 310.487 52.695 310.487 53.055ZM319.719 52.38H315.264C315.284 52.08 315.349 51.8 315.459 51.54C315.569 51.27 315.719 51.035 315.909 50.835C316.099 50.635 316.324 50.48 316.584 50.37C316.854 50.25 317.154 50.19 317.484 50.19C317.804 50.19 318.094 50.25 318.354 50.37C318.624 50.48 318.854 50.635 319.044 50.835C319.244 51.025 319.399 51.255 319.509 51.525C319.629 51.795 319.699 52.08 319.719 52.38ZM320.949 54.54H319.689C319.579 55.05 319.349 55.43 318.999 55.68C318.659 55.93 318.219 56.055 317.679 56.055C317.259 56.055 316.894 55.985 316.584 55.845C316.274 55.705 316.019 55.52 315.819 55.29C315.619 55.05 315.474 54.78 315.384 54.48C315.294 54.17 315.254 53.845 315.264 53.505H321.069C321.089 53.035 321.044 52.54 320.934 52.02C320.834 51.5 320.644 51.02 320.364 50.58C320.094 50.14 319.729 49.78 319.269 49.5C318.819 49.21 318.249 49.065 317.559 49.065C317.029 49.065 316.539 49.165 316.089 49.365C315.649 49.565 315.264 49.845 314.934 50.205C314.614 50.565 314.364 50.99 314.184 51.48C314.004 51.97 313.914 52.51 313.914 53.1C313.934 53.69 314.019 54.235 314.169 54.735C314.329 55.235 314.564 55.665 314.874 56.025C315.184 56.385 315.564 56.665 316.014 56.865C316.474 57.065 317.014 57.165 317.634 57.165C318.514 57.165 319.244 56.945 319.824 56.505C320.404 56.065 320.779 55.41 320.949 54.54ZM328.656 51.735H329.976C329.926 51.275 329.806 50.88 329.616 50.55C329.426 50.21 329.181 49.93 328.881 49.71C328.591 49.49 328.251 49.33 327.861 49.23C327.481 49.12 327.071 49.065 326.631 49.065C326.021 49.065 325.486 49.175 325.026 49.395C324.566 49.605 324.181 49.9 323.871 50.28C323.571 50.65 323.346 51.09 323.196 51.6C323.046 52.1 322.971 52.64 322.971 53.22C322.971 53.8 323.046 54.335 323.196 54.825C323.356 55.305 323.586 55.72 323.886 56.07C324.196 56.42 324.576 56.69 325.026 56.88C325.486 57.07 326.011 57.165 326.601 57.165C327.591 57.165 328.371 56.905 328.941 56.385C329.521 55.865 329.881 55.125 330.021 54.165H328.716C328.636 54.765 328.416 55.23 328.056 55.56C327.706 55.89 327.216 56.055 326.586 56.055C326.186 56.055 325.841 55.975 325.551 55.815C325.261 55.655 325.026 55.445 324.846 55.185C324.666 54.915 324.531 54.61 324.441 54.27C324.361 53.93 324.321 53.58 324.321 53.22C324.321 52.83 324.361 52.455 324.441 52.095C324.521 51.725 324.651 51.4 324.831 51.12C325.021 50.84 325.271 50.615 325.581 50.445C325.891 50.275 326.276 50.19 326.736 50.19C327.276 50.19 327.706 50.325 328.026 50.595C328.346 50.865 328.556 51.245 328.656 51.735ZM333.797 47.85V46.29H332.522V47.85H333.797ZM332.522 49.245V57H333.797V49.245H332.522ZM343.643 56.97C343.423 57.1 343.118 57.165 342.728 57.165C342.398 57.165 342.133 57.075 341.933 56.895C341.743 56.705 341.648 56.4 341.648 55.98C341.298 56.4 340.888 56.705 340.418 56.895C339.958 57.075 339.458 57.165 338.918 57.165C338.568 57.165 338.233 57.125 337.913 57.045C337.603 56.965 337.333 56.84 337.103 56.67C336.873 56.5 336.688 56.28 336.548 56.01C336.418 55.73 336.353 55.395 336.353 55.005C336.353 54.565 336.428 54.205 336.578 53.925C336.728 53.645 336.923 53.42 337.163 53.25C337.413 53.07 337.693 52.935 338.003 52.845C338.323 52.755 338.648 52.68 338.978 52.62C339.328 52.55 339.658 52.5 339.968 52.47C340.288 52.43 340.568 52.38 340.808 52.32C341.048 52.25 341.238 52.155 341.378 52.035C341.518 51.905 341.588 51.72 341.588 51.48C341.588 51.2 341.533 50.975 341.423 50.805C341.323 50.635 341.188 50.505 341.018 50.415C340.858 50.325 340.673 50.265 340.463 50.235C340.263 50.205 340.063 50.19 339.863 50.19C339.323 50.19 338.873 50.295 338.513 50.505C338.153 50.705 337.958 51.09 337.928 51.66H336.653C336.673 51.18 336.773 50.775 336.953 50.445C337.133 50.115 337.373 49.85 337.673 49.65C337.973 49.44 338.313 49.29 338.693 49.2C339.083 49.11 339.498 49.065 339.938 49.065C340.288 49.065 340.633 49.09 340.973 49.14C341.323 49.19 341.638 49.295 341.918 49.455C342.198 49.605 342.423 49.82 342.593 50.1C342.763 50.38 342.848 50.745 342.848 51.195V55.185C342.848 55.485 342.863 55.705 342.893 55.845C342.933 55.985 343.053 56.055 343.253 56.055C343.363 56.055 343.493 56.03 343.643 55.98V56.97ZM341.573 52.995C341.413 53.115 341.203 53.205 340.943 53.265C340.683 53.315 340.408 53.36 340.118 53.4C339.838 53.43 339.553 53.47 339.263 53.52C338.973 53.56 338.713 53.63 338.483 53.73C338.253 53.83 338.063 53.975 337.913 54.165C337.773 54.345 337.703 54.595 337.703 54.915C337.703 55.125 337.743 55.305 337.823 55.455C337.913 55.595 338.023 55.71 338.153 55.8C338.293 55.89 338.453 55.955 338.633 55.995C338.813 56.035 339.003 56.055 339.203 56.055C339.623 56.055 339.983 56 340.283 55.89C340.583 55.77 340.828 55.625 341.018 55.455C341.208 55.275 341.348 55.085 341.438 54.885C341.528 54.675 341.573 54.48 341.573 54.3V52.995ZM345.904 46.29V57H347.179V46.29H345.904ZM118.225 77.735H119.545C119.495 77.275 119.375 76.88 119.185 76.55C118.995 76.21 118.75 75.93 118.45 75.71C118.16 75.49 117.82 75.33 117.43 75.23C117.05 75.12 116.64 75.065 116.2 75.065C115.59 75.065 115.055 75.175 114.595 75.395C114.135 75.605 113.75 75.9 113.44 76.28C113.14 76.65 112.915 77.09 112.765 77.6C112.615 78.1 112.54 78.64 112.54 79.22C112.54 79.8 112.615 80.335 112.765 80.825C112.925 81.305 113.155 81.72 113.455 82.07C113.765 82.42 114.145 82.69 114.595 82.88C115.055 83.07 115.58 83.165 116.17 83.165C117.16 83.165 117.94 82.905 118.51 82.385C119.09 81.865 119.45 81.125 119.59 80.165H118.285C118.205 80.765 117.985 81.23 117.625 81.56C117.275 81.89 116.785 82.055 116.155 82.055C115.755 82.055 115.41 81.975 115.12 81.815C114.83 81.655 114.595 81.445 114.415 81.185C114.235 80.915 114.1 80.61 114.01 80.27C113.93 79.93 113.89 79.58 113.89 79.22C113.89 78.83 113.93 78.455 114.01 78.095C114.09 77.725 114.22 77.4 114.4 77.12C114.59 76.84 114.84 76.615 115.15 76.445C115.46 76.275 115.845 76.19 116.305 76.19C116.845 76.19 117.275 76.325 117.595 76.595C117.915 76.865 118.125 77.245 118.225 77.735ZM128.887 82.97C128.667 83.1 128.362 83.165 127.972 83.165C127.642 83.165 127.377 83.075 127.177 82.895C126.987 82.705 126.892 82.4 126.892 81.98C126.542 82.4 126.132 82.705 125.662 82.895C125.202 83.075 124.702 83.165 124.162 83.165C123.812 83.165 123.477 83.125 123.157 83.045C122.847 82.965 122.577 82.84 122.347 82.67C122.117 82.5 121.932 82.28 121.792 82.01C121.662 81.73 121.597 81.395 121.597 81.005C121.597 80.565 121.672 80.205 121.822 79.925C121.972 79.645 122.167 79.42 122.407 79.25C122.657 79.07 122.937 78.935 123.247 78.845C123.567 78.755 123.892 78.68 124.222 78.62C124.572 78.55 124.902 78.5 125.212 78.47C125.532 78.43 125.812 78.38 126.052 78.32C126.292 78.25 126.482 78.155 126.622 78.035C126.762 77.905 126.832 77.72 126.832 77.48C126.832 77.2 126.777 76.975 126.667 76.805C126.567 76.635 126.432 76.505 126.262 76.415C126.102 76.325 125.917 76.265 125.707 76.235C125.507 76.205 125.307 76.19 125.107 76.19C124.567 76.19 124.117 76.295 123.757 76.505C123.397 76.705 123.202 77.09 123.172 77.66H121.897C121.917 77.18 122.017 76.775 122.197 76.445C122.377 76.115 122.617 75.85 122.917 75.65C123.217 75.44 123.557 75.29 123.937 75.2C124.327 75.11 124.742 75.065 125.182 75.065C125.532 75.065 125.877 75.09 126.217 75.14C126.567 75.19 126.882 75.295 127.162 75.455C127.442 75.605 127.667 75.82 127.837 76.1C128.007 76.38 128.092 76.745 128.092 77.195V81.185C128.092 81.485 128.107 81.705 128.137 81.845C128.177 81.985 128.297 82.055 128.497 82.055C128.607 82.055 128.737 82.03 128.887 81.98V82.97ZM126.817 78.995C126.657 79.115 126.447 79.205 126.187 79.265C125.927 79.315 125.652 79.36 125.362 79.4C125.082 79.43 124.797 79.47 124.507 79.52C124.217 79.56 123.957 79.63 123.727 79.73C123.497 79.83 123.307 79.975 123.157 80.165C123.017 80.345 122.947 80.595 122.947 80.915C122.947 81.125 122.987 81.305 123.067 81.455C123.157 81.595 123.267 81.71 123.397 81.8C123.537 81.89 123.697 81.955 123.877 81.995C124.057 82.035 124.247 82.055 124.447 82.055C124.867 82.055 125.227 82 125.527 81.89C125.827 81.77 126.072 81.625 126.262 81.455C126.452 81.275 126.592 81.085 126.682 80.885C126.772 80.675 126.817 80.48 126.817 80.3V78.995ZM131.853 80.555H130.578C130.598 81.035 130.698 81.445 130.878 81.785C131.058 82.115 131.298 82.385 131.598 82.595C131.898 82.795 132.243 82.94 132.633 83.03C133.023 83.12 133.433 83.165 133.863 83.165C134.253 83.165 134.643 83.125 135.033 83.045C135.433 82.975 135.788 82.845 136.098 82.655C136.418 82.465 136.673 82.215 136.863 81.905C137.063 81.595 137.163 81.205 137.163 80.735C137.163 80.365 137.088 80.055 136.938 79.805C136.798 79.555 136.608 79.35 136.368 79.19C136.138 79.02 135.868 78.885 135.558 78.785C135.258 78.685 134.948 78.6 134.628 78.53C134.328 78.46 134.028 78.395 133.728 78.335C133.428 78.265 133.158 78.185 132.918 78.095C132.678 77.995 132.478 77.875 132.318 77.735C132.168 77.585 132.093 77.4 132.093 77.18C132.093 76.98 132.143 76.82 132.243 76.7C132.343 76.57 132.473 76.47 132.633 76.4C132.793 76.32 132.968 76.265 133.158 76.235C133.358 76.205 133.553 76.19 133.743 76.19C133.953 76.19 134.158 76.215 134.358 76.265C134.568 76.305 134.758 76.375 134.928 76.475C135.098 76.575 135.238 76.71 135.348 76.88C135.458 77.04 135.523 77.245 135.543 77.495H136.818C136.788 77.025 136.688 76.635 136.518 76.325C136.348 76.005 136.118 75.755 135.828 75.575C135.548 75.385 135.223 75.255 134.853 75.185C134.483 75.105 134.078 75.065 133.638 75.065C133.298 75.065 132.953 75.11 132.603 75.2C132.263 75.28 131.953 75.41 131.673 75.59C131.403 75.76 131.178 75.985 130.998 76.265C130.828 76.545 130.743 76.88 130.743 77.27C130.743 77.77 130.868 78.16 131.118 78.44C131.368 78.72 131.678 78.94 132.048 79.1C132.428 79.25 132.838 79.37 133.278 79.46C133.718 79.54 134.123 79.635 134.493 79.745C134.873 79.845 135.188 79.98 135.438 80.15C135.688 80.32 135.813 80.57 135.813 80.9C135.813 81.14 135.753 81.34 135.633 81.5C135.513 81.65 135.358 81.765 135.168 81.845C134.988 81.925 134.788 81.98 134.568 82.01C134.348 82.04 134.138 82.055 133.938 82.055C133.678 82.055 133.423 82.03 133.173 81.98C132.933 81.93 132.713 81.85 132.513 81.74C132.323 81.62 132.168 81.465 132.048 81.275C131.928 81.075 131.863 80.835 131.853 80.555ZM144.958 78.38H140.503C140.523 78.08 140.588 77.8 140.698 77.54C140.808 77.27 140.958 77.035 141.148 76.835C141.338 76.635 141.563 76.48 141.823 76.37C142.093 76.25 142.393 76.19 142.723 76.19C143.043 76.19 143.333 76.25 143.593 76.37C143.863 76.48 144.093 76.635 144.283 76.835C144.483 77.025 144.638 77.255 144.748 77.525C144.868 77.795 144.938 78.08 144.958 78.38ZM146.188 80.54H144.928C144.818 81.05 144.588 81.43 144.238 81.68C143.898 81.93 143.458 82.055 142.918 82.055C142.498 82.055 142.133 81.985 141.823 81.845C141.513 81.705 141.258 81.52 141.058 81.29C140.858 81.05 140.713 80.78 140.623 80.48C140.533 80.17 140.493 79.845 140.503 79.505H146.308C146.328 79.035 146.283 78.54 146.173 78.02C146.073 77.5 145.883 77.02 145.603 76.58C145.333 76.14 144.968 75.78 144.508 75.5C144.058 75.21 143.488 75.065 142.798 75.065C142.268 75.065 141.778 75.165 141.328 75.365C140.888 75.565 140.503 75.845 140.173 76.205C139.853 76.565 139.603 76.99 139.423 77.48C139.243 77.97 139.153 78.51 139.153 79.1C139.173 79.69 139.258 80.235 139.408 80.735C139.568 81.235 139.803 81.665 140.113 82.025C140.423 82.385 140.803 82.665 141.253 82.865C141.713 83.065 142.253 83.165 142.873 83.165C143.753 83.165 144.483 82.945 145.063 82.505C145.643 82.065 146.018 81.41 146.188 80.54ZM149.41 80.555H148.135C148.155 81.035 148.255 81.445 148.435 81.785C148.615 82.115 148.855 82.385 149.155 82.595C149.455 82.795 149.8 82.94 150.19 83.03C150.58 83.12 150.99 83.165 151.42 83.165C151.81 83.165 152.2 83.125 152.59 83.045C152.99 82.975 153.345 82.845 153.655 82.655C153.975 82.465 154.23 82.215 154.42 81.905C154.62 81.595 154.72 81.205 154.72 80.735C154.72 80.365 154.645 80.055 154.495 79.805C154.355 79.555 154.165 79.35 153.925 79.19C153.695 79.02 153.425 78.885 153.115 78.785C152.815 78.685 152.505 78.6 152.185 78.53C151.885 78.46 151.585 78.395 151.285 78.335C150.985 78.265 150.715 78.185 150.475 78.095C150.235 77.995 150.035 77.875 149.875 77.735C149.725 77.585 149.65 77.4 149.65 77.18C149.65 76.98 149.7 76.82 149.8 76.7C149.9 76.57 150.03 76.47 150.19 76.4C150.35 76.32 150.525 76.265 150.715 76.235C150.915 76.205 151.11 76.19 151.3 76.19C151.51 76.19 151.715 76.215 151.915 76.265C152.125 76.305 152.315 76.375 152.485 76.475C152.655 76.575 152.795 76.71 152.905 76.88C153.015 77.04 153.08 77.245 153.1 77.495H154.375C154.345 77.025 154.245 76.635 154.075 76.325C153.905 76.005 153.675 75.755 153.385 75.575C153.105 75.385 152.78 75.255 152.41 75.185C152.04 75.105 151.635 75.065 151.195 75.065C150.855 75.065 150.51 75.11 150.16 75.2C149.82 75.28 149.51 75.41 149.23 75.59C148.96 75.76 148.735 75.985 148.555 76.265C148.385 76.545 148.3 76.88 148.3 77.27C148.3 77.77 148.425 78.16 148.675 78.44C148.925 78.72 149.235 78.94 149.605 79.1C149.985 79.25 150.395 79.37 150.835 79.46C151.275 79.54 151.68 79.635 152.05 79.745C152.43 79.845 152.745 79.98 152.995 80.15C153.245 80.32 153.37 80.57 153.37 80.9C153.37 81.14 153.31 81.34 153.19 81.5C153.07 81.65 152.915 81.765 152.725 81.845C152.545 81.925 152.345 81.98 152.125 82.01C151.905 82.04 151.695 82.055 151.495 82.055C151.235 82.055 150.98 82.03 150.73 81.98C150.49 81.93 150.27 81.85 150.07 81.74C149.88 81.62 149.725 81.465 149.605 81.275C149.485 81.075 149.42 80.835 149.41 80.555Z" fill="#333333"/>
</g>
<defs>
<clipPath id="clip0">
<rect width="256" height="74" fill="white" transform="translate(112 16)"/>
</clipPath>
</defs>
</svg>
