<svg width="384" height="106" viewBox="0 0 384 106" fill="none" xmlns="http://www.w3.org/2000/svg">
<path d="M0 8C0 3.58172 3.58172 0 8 0H376C380.418 0 384 3.58172 384 8V98C384 102.418 380.418 106 376 106H7.99999C3.58171 106 0 102.418 0 98V8Z" fill="#FCF8E3"/>
<path d="M46.2311 50.9378L54.3778 42.4405C54.9409 41.8532 55.8514 41.8532 56.4084 42.4405L57.7622 43.8525C58.3253 44.4399 58.3253 45.3896 57.7622 45.9706L51.9937 52L57.7682 58.0231C58.3313 58.6104 58.3313 59.5601 57.7682 60.1412L56.4144 61.5595C55.8514 62.1468 54.9409 62.1468 54.3838 61.5595L46.2371 53.0622C45.6681 52.4749 45.6681 51.5251 46.2311 50.9378Z" fill="#333333"/>
<path d="M113.242 19.148V32H115.888V22.982H115.924L119.074 32H121.252L124.402 22.892H124.438V32H127.084V19.148H123.106L120.262 27.986H120.226L117.22 19.148H113.242ZM129.752 19.148V32H139.508V29.624H132.578V26.474H138.806V24.278H132.578V21.524H139.364V19.148H129.752ZM144.43 29.624V21.524H146.446C147.142 21.524 147.724 21.626 148.192 21.83C148.672 22.022 149.056 22.304 149.344 22.676C149.632 23.048 149.836 23.498 149.956 24.026C150.088 24.542 150.154 25.124 150.154 25.772C150.154 26.48 150.064 27.08 149.884 27.572C149.704 28.064 149.464 28.466 149.164 28.778C148.864 29.078 148.522 29.294 148.138 29.426C147.754 29.558 147.358 29.624 146.95 29.624H144.43ZM141.604 19.148V32H147.148C148.132 32 148.984 31.838 149.704 31.514C150.436 31.178 151.042 30.722 151.522 30.146C152.014 29.57 152.38 28.886 152.62 28.094C152.86 27.302 152.98 26.438 152.98 25.502C152.98 24.434 152.83 23.504 152.53 22.712C152.242 21.92 151.834 21.26 151.306 20.732C150.79 20.204 150.172 19.808 149.452 19.544C148.744 19.28 147.976 19.148 147.148 19.148H141.604ZM155.126 19.148V32H157.952V19.148H155.126ZM171.522 27.14V19.148H168.696V27.14C168.696 28.1 168.504 28.808 168.12 29.264C167.736 29.708 167.04 29.93 166.032 29.93C165.456 29.93 164.994 29.852 164.646 29.696C164.31 29.528 164.046 29.318 163.854 29.066C163.662 28.802 163.536 28.502 163.476 28.166C163.416 27.83 163.386 27.488 163.386 27.14V19.148H160.56V27.14C160.56 28.892 161.034 30.188 161.982 31.028C162.942 31.868 164.292 32.288 166.032 32.288C167.748 32.288 169.092 31.868 170.064 31.028C171.036 30.176 171.522 28.88 171.522 27.14ZM174.136 19.148V32H176.782V22.982H176.818L179.968 32H182.146L185.296 22.892H185.332V32H187.978V19.148H184L181.156 27.986H181.12L178.114 19.148H174.136ZM199.418 18.842L194.414 32.288H196.448L201.47 18.842H199.418ZM207.885 19.148V32H210.531V22.982H210.567L213.717 32H215.895L219.045 22.892H219.081V32H221.727V19.148H217.749L214.905 27.986H214.869L211.863 19.148H207.885ZM227.222 29.624V21.524H229.238C229.934 21.524 230.516 21.626 230.984 21.83C231.464 22.022 231.848 22.304 232.136 22.676C232.424 23.048 232.628 23.498 232.748 24.026C232.88 24.542 232.946 25.124 232.946 25.772C232.946 26.48 232.856 27.08 232.676 27.572C232.496 28.064 232.256 28.466 231.956 28.778C231.656 29.078 231.314 29.294 230.93 29.426C230.546 29.558 230.15 29.624 229.742 29.624H227.222ZM224.396 19.148V32H229.94C230.924 32 231.776 31.838 232.496 31.514C233.228 31.178 233.834 30.722 234.314 30.146C234.806 29.57 235.172 28.886 235.412 28.094C235.652 27.302 235.772 26.438 235.772 25.502C235.772 24.434 235.622 23.504 235.322 22.712C235.034 21.92 234.626 21.26 234.098 20.732C233.582 20.204 232.964 19.808 232.244 19.544C231.536 19.28 230.768 19.148 229.94 19.148H224.396Z" fill="#333333"/>
<path d="M114.595 55.8V47.49H116.995C117.655 47.49 118.21 47.585 118.66 47.775C119.11 47.955 119.475 48.225 119.755 48.585C120.045 48.935 120.25 49.365 120.37 49.875C120.5 50.375 120.565 50.945 120.565 51.585C120.565 52.245 120.495 52.81 120.355 53.28C120.225 53.74 120.055 54.125 119.845 54.435C119.635 54.745 119.395 54.99 119.125 55.17C118.865 55.35 118.6 55.49 118.33 55.59C118.06 55.68 117.805 55.74 117.565 55.77C117.325 55.79 117.125 55.8 116.965 55.8H114.595ZM113.17 46.29V57H116.845C117.735 57 118.505 56.875 119.155 56.625C119.805 56.375 120.34 56.015 120.76 55.545C121.18 55.065 121.49 54.48 121.69 53.79C121.89 53.09 121.99 52.29 121.99 51.39C121.99 49.67 121.545 48.39 120.655 47.55C119.765 46.71 118.495 46.29 116.845 46.29H113.17ZM129.907 52.38H125.452C125.472 52.08 125.537 51.8 125.647 51.54C125.757 51.27 125.907 51.035 126.097 50.835C126.287 50.635 126.512 50.48 126.772 50.37C127.042 50.25 127.342 50.19 127.672 50.19C127.992 50.19 128.282 50.25 128.542 50.37C128.812 50.48 129.042 50.635 129.232 50.835C129.432 51.025 129.587 51.255 129.697 51.525C129.817 51.795 129.887 52.08 129.907 52.38ZM131.137 54.54H129.877C129.767 55.05 129.537 55.43 129.187 55.68C128.847 55.93 128.407 56.055 127.867 56.055C127.447 56.055 127.082 55.985 126.772 55.845C126.462 55.705 126.207 55.52 126.007 55.29C125.807 55.05 125.662 54.78 125.572 54.48C125.482 54.17 125.442 53.845 125.452 53.505H131.257C131.277 53.035 131.232 52.54 131.122 52.02C131.022 51.5 130.832 51.02 130.552 50.58C130.282 50.14 129.917 49.78 129.457 49.5C129.007 49.21 128.437 49.065 127.747 49.065C127.217 49.065 126.727 49.165 126.277 49.365C125.837 49.565 125.452 49.845 125.122 50.205C124.802 50.565 124.552 50.99 124.372 51.48C124.192 51.97 124.102 52.51 124.102 53.1C124.122 53.69 124.207 54.235 124.357 54.735C124.517 55.235 124.752 55.665 125.062 56.025C125.372 56.385 125.752 56.665 126.202 56.865C126.662 57.065 127.202 57.165 127.822 57.165C128.702 57.165 129.432 56.945 130.012 56.505C130.592 56.065 130.967 55.41 131.137 54.54ZM134.103 50.37V57H135.378V50.37H136.878V49.245H135.378V48.165C135.378 47.825 135.463 47.595 135.633 47.475C135.803 47.355 136.043 47.295 136.353 47.295C136.463 47.295 136.583 47.305 136.713 47.325C136.843 47.335 136.963 47.36 137.073 47.4V46.29C136.953 46.25 136.813 46.22 136.653 46.2C136.503 46.18 136.368 46.17 136.248 46.17C135.548 46.17 135.013 46.335 134.643 46.665C134.283 46.985 134.103 47.46 134.103 48.09V49.245H132.798V50.37H134.103ZM145.887 56.97C145.667 57.1 145.362 57.165 144.972 57.165C144.642 57.165 144.377 57.075 144.177 56.895C143.987 56.705 143.892 56.4 143.892 55.98C143.542 56.4 143.132 56.705 142.662 56.895C142.202 57.075 141.702 57.165 141.162 57.165C140.812 57.165 140.477 57.125 140.157 57.045C139.847 56.965 139.577 56.84 139.347 56.67C139.117 56.5 138.932 56.28 138.792 56.01C138.662 55.73 138.597 55.395 138.597 55.005C138.597 54.565 138.672 54.205 138.822 53.925C138.972 53.645 139.167 53.42 139.407 53.25C139.657 53.07 139.937 52.935 140.247 52.845C140.567 52.755 140.892 52.68 141.222 52.62C141.572 52.55 141.902 52.5 142.212 52.47C142.532 52.43 142.812 52.38 143.052 52.32C143.292 52.25 143.482 52.155 143.622 52.035C143.762 51.905 143.832 51.72 143.832 51.48C143.832 51.2 143.777 50.975 143.667 50.805C143.567 50.635 143.432 50.505 143.262 50.415C143.102 50.325 142.917 50.265 142.707 50.235C142.507 50.205 142.307 50.19 142.107 50.19C141.567 50.19 141.117 50.295 140.757 50.505C140.397 50.705 140.202 51.09 140.172 51.66H138.897C138.917 51.18 139.017 50.775 139.197 50.445C139.377 50.115 139.617 49.85 139.917 49.65C140.217 49.44 140.557 49.29 140.937 49.2C141.327 49.11 141.742 49.065 142.182 49.065C142.532 49.065 142.877 49.09 143.217 49.14C143.567 49.19 143.882 49.295 144.162 49.455C144.442 49.605 144.667 49.82 144.837 50.1C145.007 50.38 145.092 50.745 145.092 51.195V55.185C145.092 55.485 145.107 55.705 145.137 55.845C145.177 55.985 145.297 56.055 145.497 56.055C145.607 56.055 145.737 56.03 145.887 55.98V56.97ZM143.817 52.995C143.657 53.115 143.447 53.205 143.187 53.265C142.927 53.315 142.652 53.36 142.362 53.4C142.082 53.43 141.797 53.47 141.507 53.52C141.217 53.56 140.957 53.63 140.727 53.73C140.497 53.83 140.307 53.975 140.157 54.165C140.017 54.345 139.947 54.595 139.947 54.915C139.947 55.125 139.987 55.305 140.067 55.455C140.157 55.595 140.267 55.71 140.397 55.8C140.537 55.89 140.697 55.955 140.877 55.995C141.057 56.035 141.247 56.055 141.447 56.055C141.867 56.055 142.227 56 142.527 55.89C142.827 55.77 143.072 55.625 143.262 55.455C143.452 55.275 143.592 55.085 143.682 54.885C143.772 54.675 143.817 54.48 143.817 54.3V52.995ZM154.493 57V49.245H153.218V53.625C153.218 53.975 153.168 54.3 153.068 54.6C152.978 54.89 152.838 55.145 152.648 55.365C152.458 55.585 152.218 55.755 151.928 55.875C151.648 55.995 151.313 56.055 150.923 56.055C150.433 56.055 150.048 55.915 149.768 55.635C149.488 55.355 149.348 54.975 149.348 54.495V49.245H148.073V54.345C148.073 54.765 148.113 55.15 148.193 55.5C148.283 55.84 148.433 56.135 148.643 56.385C148.853 56.635 149.128 56.83 149.468 56.97C149.808 57.1 150.233 57.165 150.743 57.165C151.313 57.165 151.808 57.055 152.228 56.835C152.648 56.605 152.993 56.25 153.263 55.77H153.293V57H154.493ZM157.483 46.29V57H158.758V46.29H157.483ZM163.503 49.245V46.92H162.228V49.245H160.908V50.37H162.228V55.305C162.228 55.665 162.263 55.955 162.333 56.175C162.403 56.395 162.508 56.565 162.648 56.685C162.798 56.805 162.988 56.89 163.218 56.94C163.458 56.98 163.743 57 164.073 57H165.048V55.875H164.463C164.263 55.875 164.098 55.87 163.968 55.86C163.848 55.84 163.753 55.805 163.683 55.755C163.613 55.705 163.563 55.635 163.533 55.545C163.513 55.455 163.503 55.335 163.503 55.185V50.37H165.048V49.245H163.503ZM173.165 50.37V57H174.44V50.37H175.94V49.245H174.44V48.165C174.44 47.825 174.525 47.595 174.695 47.475C174.865 47.355 175.105 47.295 175.415 47.295C175.525 47.295 175.645 47.305 175.775 47.325C175.905 47.335 176.025 47.36 176.135 47.4V46.29C176.015 46.25 175.875 46.22 175.715 46.2C175.565 46.18 175.43 46.17 175.31 46.17C174.61 46.17 174.075 46.335 173.705 46.665C173.345 46.985 173.165 47.46 173.165 48.09V49.245H171.86V50.37H173.165ZM179.008 53.13C179.008 52.66 179.068 52.245 179.188 51.885C179.318 51.515 179.493 51.205 179.713 50.955C179.933 50.705 180.188 50.515 180.478 50.385C180.778 50.255 181.093 50.19 181.423 50.19C181.753 50.19 182.063 50.255 182.353 50.385C182.653 50.515 182.913 50.705 183.133 50.955C183.353 51.205 183.523 51.515 183.643 51.885C183.773 52.245 183.838 52.66 183.838 53.13C183.838 53.6 183.773 54.02 183.643 54.39C183.523 54.75 183.353 55.055 183.133 55.305C182.913 55.545 182.653 55.73 182.353 55.86C182.063 55.99 181.753 56.055 181.423 56.055C181.093 56.055 180.778 55.99 180.478 55.86C180.188 55.73 179.933 55.545 179.713 55.305C179.493 55.055 179.318 54.75 179.188 54.39C179.068 54.02 179.008 53.6 179.008 53.13ZM177.658 53.13C177.658 53.7 177.738 54.23 177.898 54.72C178.058 55.21 178.298 55.64 178.618 56.01C178.938 56.37 179.333 56.655 179.803 56.865C180.273 57.065 180.813 57.165 181.423 57.165C182.043 57.165 182.583 57.065 183.043 56.865C183.513 56.655 183.908 56.37 184.228 56.01C184.548 55.64 184.788 55.21 184.948 54.72C185.108 54.23 185.188 53.7 185.188 53.13C185.188 52.56 185.108 52.03 184.948 51.54C184.788 51.04 184.548 50.61 184.228 50.25C183.908 49.88 183.513 49.59 183.043 49.38C182.583 49.17 182.043 49.065 181.423 49.065C180.813 49.065 180.273 49.17 179.803 49.38C179.333 49.59 178.938 49.88 178.618 50.25C178.298 50.61 178.058 51.04 177.898 51.54C177.738 52.03 177.658 52.56 177.658 53.13ZM187.646 49.245V57H188.921V53.55C188.921 53.05 188.971 52.61 189.071 52.23C189.171 51.84 189.331 51.51 189.551 51.24C189.771 50.97 190.061 50.765 190.421 50.625C190.781 50.485 191.216 50.415 191.726 50.415V49.065C191.036 49.045 190.466 49.185 190.016 49.485C189.566 49.785 189.186 50.25 188.876 50.88H188.846V49.245H187.646ZM198.936 46.29V57H200.211V46.29H198.936ZM210.057 56.97C209.837 57.1 209.532 57.165 209.142 57.165C208.812 57.165 208.547 57.075 208.347 56.895C208.157 56.705 208.062 56.4 208.062 55.98C207.712 56.4 207.302 56.705 206.832 56.895C206.372 57.075 205.872 57.165 205.332 57.165C204.982 57.165 204.647 57.125 204.327 57.045C204.017 56.965 203.747 56.84 203.517 56.67C203.287 56.5 203.102 56.28 202.962 56.01C202.832 55.73 202.767 55.395 202.767 55.005C202.767 54.565 202.842 54.205 202.992 53.925C203.142 53.645 203.337 53.42 203.577 53.25C203.827 53.07 204.107 52.935 204.417 52.845C204.737 52.755 205.062 52.68 205.392 52.62C205.742 52.55 206.072 52.5 206.382 52.47C206.702 52.43 206.982 52.38 207.222 52.32C207.462 52.25 207.652 52.155 207.792 52.035C207.932 51.905 208.002 51.72 208.002 51.48C208.002 51.2 207.947 50.975 207.837 50.805C207.737 50.635 207.602 50.505 207.432 50.415C207.272 50.325 207.087 50.265 206.877 50.235C206.677 50.205 206.477 50.19 206.277 50.19C205.737 50.19 205.287 50.295 204.927 50.505C204.567 50.705 204.372 51.09 204.342 51.66H203.067C203.087 51.18 203.187 50.775 203.367 50.445C203.547 50.115 203.787 49.85 204.087 49.65C204.387 49.44 204.727 49.29 205.107 49.2C205.497 49.11 205.912 49.065 206.352 49.065C206.702 49.065 207.047 49.09 207.387 49.14C207.737 49.19 208.052 49.295 208.332 49.455C208.612 49.605 208.837 49.82 209.007 50.1C209.177 50.38 209.262 50.745 209.262 51.195V55.185C209.262 55.485 209.277 55.705 209.307 55.845C209.347 55.985 209.467 56.055 209.667 56.055C209.777 56.055 209.907 56.03 210.057 55.98V56.97ZM207.987 52.995C207.827 53.115 207.617 53.205 207.357 53.265C207.097 53.315 206.822 53.36 206.532 53.4C206.252 53.43 205.967 53.47 205.677 53.52C205.387 53.56 205.127 53.63 204.897 53.73C204.667 53.83 204.477 53.975 204.327 54.165C204.187 54.345 204.117 54.595 204.117 54.915C204.117 55.125 204.157 55.305 204.237 55.455C204.327 55.595 204.437 55.71 204.567 55.8C204.707 55.89 204.867 55.955 205.047 55.995C205.227 56.035 205.417 56.055 205.617 56.055C206.037 56.055 206.397 56 206.697 55.89C206.997 55.77 207.242 55.625 207.432 55.455C207.622 55.275 207.762 55.085 207.852 54.885C207.942 54.675 207.987 54.48 207.987 54.3V52.995ZM212.198 49.245V57H213.473V53.55C213.473 53.05 213.523 52.61 213.623 52.23C213.723 51.84 213.883 51.51 214.103 51.24C214.323 50.97 214.613 50.765 214.973 50.625C215.333 50.485 215.768 50.415 216.278 50.415V49.065C215.588 49.045 215.018 49.185 214.568 49.485C214.118 49.785 213.738 50.25 213.428 50.88H213.398V49.245H212.198ZM224.504 56.34V49.245H223.304V50.355H223.289C223.059 49.925 222.739 49.605 222.329 49.395C221.919 49.175 221.469 49.065 220.979 49.065C220.309 49.065 219.744 49.195 219.284 49.455C218.824 49.705 218.454 50.03 218.174 50.43C217.894 50.82 217.694 51.26 217.574 51.75C217.454 52.23 217.394 52.7 217.394 53.16C217.394 53.69 217.464 54.195 217.604 54.675C217.754 55.145 217.974 55.56 218.264 55.92C218.554 56.27 218.914 56.55 219.344 56.76C219.774 56.97 220.279 57.075 220.859 57.075C221.359 57.075 221.829 56.965 222.269 56.745C222.719 56.515 223.054 56.16 223.274 55.68H223.304V56.19C223.304 56.62 223.259 57.015 223.169 57.375C223.089 57.735 222.954 58.04 222.764 58.29C222.574 58.55 222.334 58.75 222.044 58.89C221.754 59.04 221.399 59.115 220.979 59.115C220.769 59.115 220.549 59.09 220.319 59.04C220.089 59 219.874 58.93 219.674 58.83C219.484 58.73 219.319 58.6 219.179 58.44C219.049 58.28 218.979 58.085 218.969 57.855H217.694C217.714 58.275 217.824 58.63 218.024 58.92C218.224 59.21 218.474 59.445 218.774 59.625C219.084 59.805 219.424 59.935 219.794 60.015C220.174 60.095 220.544 60.135 220.904 60.135C222.144 60.135 223.054 59.82 223.634 59.19C224.214 58.56 224.504 57.61 224.504 56.34ZM220.934 55.965C220.514 55.965 220.164 55.88 219.884 55.71C219.604 55.53 219.379 55.3 219.209 55.02C219.039 54.73 218.919 54.41 218.849 54.06C218.779 53.71 218.744 53.36 218.744 53.01C218.744 52.64 218.784 52.285 218.864 51.945C218.954 51.605 219.089 51.305 219.269 51.045C219.459 50.785 219.699 50.58 219.989 50.43C220.279 50.27 220.629 50.19 221.039 50.19C221.439 50.19 221.779 50.27 222.059 50.43C222.339 50.59 222.564 50.805 222.734 51.075C222.914 51.335 223.044 51.63 223.124 51.96C223.204 52.29 223.244 52.625 223.244 52.965C223.244 53.325 223.199 53.685 223.109 54.045C223.029 54.405 222.899 54.73 222.719 55.02C222.539 55.3 222.299 55.53 221.999 55.71C221.709 55.88 221.354 55.965 220.934 55.965ZM232.812 52.38H228.357C228.377 52.08 228.442 51.8 228.552 51.54C228.662 51.27 228.812 51.035 229.002 50.835C229.192 50.635 229.417 50.48 229.677 50.37C229.947 50.25 230.247 50.19 230.577 50.19C230.897 50.19 231.187 50.25 231.447 50.37C231.717 50.48 231.947 50.635 232.137 50.835C232.337 51.025 232.492 51.255 232.602 51.525C232.722 51.795 232.792 52.08 232.812 52.38ZM234.042 54.54H232.782C232.672 55.05 232.442 55.43 232.092 55.68C231.752 55.93 231.312 56.055 230.772 56.055C230.352 56.055 229.987 55.985 229.677 55.845C229.367 55.705 229.112 55.52 228.912 55.29C228.712 55.05 228.567 54.78 228.477 54.48C228.387 54.17 228.347 53.845 228.357 53.505H234.162C234.182 53.035 234.137 52.54 234.027 52.02C233.927 51.5 233.737 51.02 233.457 50.58C233.187 50.14 232.822 49.78 232.362 49.5C231.912 49.21 231.342 49.065 230.652 49.065C230.122 49.065 229.632 49.165 229.182 49.365C228.742 49.565 228.357 49.845 228.027 50.205C227.707 50.565 227.457 50.99 227.277 51.48C227.097 51.97 227.007 52.51 227.007 53.1C227.027 53.69 227.112 54.235 227.262 54.735C227.422 55.235 227.657 55.665 227.967 56.025C228.277 56.385 228.657 56.665 229.107 56.865C229.567 57.065 230.107 57.165 230.727 57.165C231.607 57.165 232.337 56.945 232.917 56.505C233.497 56.065 233.872 55.41 234.042 54.54ZM241.703 46.29V57H242.978V55.965H243.008C243.148 56.195 243.318 56.39 243.518 56.55C243.728 56.7 243.948 56.82 244.178 56.91C244.408 57 244.638 57.065 244.868 57.105C245.108 57.145 245.323 57.165 245.513 57.165C246.103 57.165 246.618 57.06 247.058 56.85C247.508 56.64 247.878 56.355 248.168 55.995C248.468 55.625 248.688 55.195 248.828 54.705C248.978 54.215 249.053 53.695 249.053 53.145C249.053 52.595 248.978 52.075 248.828 51.585C248.678 51.095 248.453 50.665 248.153 50.295C247.863 49.915 247.493 49.615 247.043 49.395C246.603 49.175 246.083 49.065 245.483 49.065C244.943 49.065 244.448 49.165 243.998 49.365C243.548 49.555 243.218 49.865 243.008 50.295H242.978V46.29H241.703ZM247.703 53.055C247.703 53.435 247.663 53.805 247.583 54.165C247.503 54.525 247.373 54.845 247.193 55.125C247.013 55.405 246.773 55.63 246.473 55.8C246.183 55.97 245.818 56.055 245.378 56.055C244.938 56.055 244.563 55.975 244.253 55.815C243.943 55.645 243.688 55.425 243.488 55.155C243.298 54.885 243.158 54.575 243.068 54.225C242.978 53.865 242.933 53.495 242.933 53.115C242.933 52.755 242.973 52.4 243.053 52.05C243.143 51.7 243.283 51.39 243.473 51.12C243.663 50.84 243.908 50.615 244.208 50.445C244.508 50.275 244.873 50.19 245.303 50.19C245.713 50.19 246.068 50.27 246.368 50.43C246.678 50.59 246.928 50.805 247.118 51.075C247.318 51.345 247.463 51.655 247.553 52.005C247.653 52.345 247.703 52.695 247.703 53.055ZM257.97 57V49.245H256.695V53.625C256.695 53.975 256.645 54.3 256.545 54.6C256.455 54.89 256.315 55.145 256.125 55.365C255.935 55.585 255.695 55.755 255.405 55.875C255.125 55.995 254.79 56.055 254.4 56.055C253.91 56.055 253.525 55.915 253.245 55.635C252.965 55.355 252.825 54.975 252.825 54.495V49.245H251.55V54.345C251.55 54.765 251.59 55.15 251.67 55.5C251.76 55.84 251.91 56.135 252.12 56.385C252.33 56.635 252.605 56.83 252.945 56.97C253.285 57.1 253.71 57.165 254.22 57.165C254.79 57.165 255.285 57.055 255.705 56.835C256.125 56.605 256.47 56.25 256.74 55.77H256.77V57H257.97ZM262.655 49.245V46.92H261.38V49.245H260.06V50.37H261.38V55.305C261.38 55.665 261.415 55.955 261.485 56.175C261.555 56.395 261.66 56.565 261.8 56.685C261.95 56.805 262.14 56.89 262.37 56.94C262.61 56.98 262.895 57 263.225 57H264.2V55.875H263.615C263.415 55.875 263.25 55.87 263.12 55.86C263 55.84 262.905 55.805 262.835 55.755C262.765 55.705 262.715 55.635 262.685 55.545C262.665 55.455 262.655 55.335 262.655 55.185V50.37H264.2V49.245H262.655ZM268.386 49.245V46.92H267.111V49.245H265.791V50.37H267.111V55.305C267.111 55.665 267.146 55.955 267.216 56.175C267.286 56.395 267.391 56.565 267.531 56.685C267.681 56.805 267.871 56.89 268.101 56.94C268.341 56.98 268.626 57 268.956 57H269.931V55.875H269.346C269.146 55.875 268.981 55.87 268.851 55.86C268.731 55.84 268.636 55.805 268.566 55.755C268.496 55.705 268.446 55.635 268.416 55.545C268.396 55.455 268.386 55.335 268.386 55.185V50.37H269.931V49.245H268.386ZM273.278 53.13C273.278 52.66 273.338 52.245 273.458 51.885C273.588 51.515 273.763 51.205 273.983 50.955C274.203 50.705 274.458 50.515 274.748 50.385C275.048 50.255 275.363 50.19 275.693 50.19C276.023 50.19 276.333 50.255 276.623 50.385C276.923 50.515 277.183 50.705 277.403 50.955C277.623 51.205 277.793 51.515 277.913 51.885C278.043 52.245 278.108 52.66 278.108 53.13C278.108 53.6 278.043 54.02 277.913 54.39C277.793 54.75 277.623 55.055 277.403 55.305C277.183 55.545 276.923 55.73 276.623 55.86C276.333 55.99 276.023 56.055 275.693 56.055C275.363 56.055 275.048 55.99 274.748 55.86C274.458 55.73 274.203 55.545 273.983 55.305C273.763 55.055 273.588 54.75 273.458 54.39C273.338 54.02 273.278 53.6 273.278 53.13ZM271.928 53.13C271.928 53.7 272.008 54.23 272.168 54.72C272.328 55.21 272.568 55.64 272.888 56.01C273.208 56.37 273.603 56.655 274.073 56.865C274.543 57.065 275.083 57.165 275.693 57.165C276.313 57.165 276.853 57.065 277.313 56.865C277.783 56.655 278.178 56.37 278.498 56.01C278.818 55.64 279.058 55.21 279.218 54.72C279.378 54.23 279.458 53.7 279.458 53.13C279.458 52.56 279.378 52.03 279.218 51.54C279.058 51.04 278.818 50.61 278.498 50.25C278.178 49.88 277.783 49.59 277.313 49.38C276.853 49.17 276.313 49.065 275.693 49.065C275.083 49.065 274.543 49.17 274.073 49.38C273.603 49.59 273.208 49.88 272.888 50.25C272.568 50.61 272.328 51.04 272.168 51.54C272.008 52.03 271.928 52.56 271.928 53.13ZM281.961 49.245V57H283.236V52.62C283.236 52.27 283.281 51.95 283.371 51.66C283.471 51.36 283.616 51.1 283.806 50.88C283.996 50.66 284.231 50.49 284.511 50.37C284.801 50.25 285.141 50.19 285.531 50.19C286.021 50.19 286.406 50.33 286.686 50.61C286.966 50.89 287.106 51.27 287.106 51.75V57H288.381V51.9C288.381 51.48 288.336 51.1 288.246 50.76C288.166 50.41 288.021 50.11 287.811 49.86C287.601 49.61 287.326 49.415 286.986 49.275C286.646 49.135 286.221 49.065 285.711 49.065C284.561 49.065 283.721 49.535 283.191 50.475H283.161V49.245H281.961ZM292.076 54.555H290.801C290.821 55.035 290.921 55.445 291.101 55.785C291.281 56.115 291.521 56.385 291.821 56.595C292.121 56.795 292.466 56.94 292.856 57.03C293.246 57.12 293.656 57.165 294.086 57.165C294.476 57.165 294.866 57.125 295.256 57.045C295.656 56.975 296.011 56.845 296.321 56.655C296.641 56.465 296.896 56.215 297.086 55.905C297.286 55.595 297.386 55.205 297.386 54.735C297.386 54.365 297.311 54.055 297.161 53.805C297.021 53.555 296.831 53.35 296.591 53.19C296.361 53.02 296.091 52.885 295.781 52.785C295.481 52.685 295.171 52.6 294.851 52.53C294.551 52.46 294.251 52.395 293.951 52.335C293.651 52.265 293.381 52.185 293.141 52.095C292.901 51.995 292.701 51.875 292.541 51.735C292.391 51.585 292.316 51.4 292.316 51.18C292.316 50.98 292.366 50.82 292.466 50.7C292.566 50.57 292.696 50.47 292.856 50.4C293.016 50.32 293.191 50.265 293.381 50.235C293.581 50.205 293.776 50.19 293.966 50.19C294.176 50.19 294.381 50.215 294.581 50.265C294.791 50.305 294.981 50.375 295.151 50.475C295.321 50.575 295.461 50.71 295.571 50.88C295.681 51.04 295.746 51.245 295.766 51.495H297.041C297.011 51.025 296.911 50.635 296.741 50.325C296.571 50.005 296.341 49.755 296.051 49.575C295.771 49.385 295.446 49.255 295.076 49.185C294.706 49.105 294.301 49.065 293.861 49.065C293.521 49.065 293.176 49.11 292.826 49.2C292.486 49.28 292.176 49.41 291.896 49.59C291.626 49.76 291.401 49.985 291.221 50.265C291.051 50.545 290.966 50.88 290.966 51.27C290.966 51.77 291.091 52.16 291.341 52.44C291.591 52.72 291.901 52.94 292.271 53.1C292.651 53.25 293.061 53.37 293.501 53.46C293.941 53.54 294.346 53.635 294.716 53.745C295.096 53.845 295.411 53.98 295.661 54.15C295.911 54.32 296.036 54.57 296.036 54.9C296.036 55.14 295.976 55.34 295.856 55.5C295.736 55.65 295.581 55.765 295.391 55.845C295.211 55.925 295.011 55.98 294.791 56.01C294.571 56.04 294.361 56.055 294.161 56.055C293.901 56.055 293.646 56.03 293.396 55.98C293.156 55.93 292.936 55.85 292.736 55.74C292.546 55.62 292.391 55.465 292.271 55.275C292.151 55.075 292.086 54.835 292.076 54.555ZM311.841 56.97C311.621 57.1 311.316 57.165 310.926 57.165C310.596 57.165 310.331 57.075 310.131 56.895C309.941 56.705 309.846 56.4 309.846 55.98C309.496 56.4 309.086 56.705 308.616 56.895C308.156 57.075 307.656 57.165 307.116 57.165C306.766 57.165 306.431 57.125 306.111 57.045C305.801 56.965 305.531 56.84 305.301 56.67C305.071 56.5 304.886 56.28 304.746 56.01C304.616 55.73 304.551 55.395 304.551 55.005C304.551 54.565 304.626 54.205 304.776 53.925C304.926 53.645 305.121 53.42 305.361 53.25C305.611 53.07 305.891 52.935 306.201 52.845C306.521 52.755 306.846 52.68 307.176 52.62C307.526 52.55 307.856 52.5 308.166 52.47C308.486 52.43 308.766 52.38 309.006 52.32C309.246 52.25 309.436 52.155 309.576 52.035C309.716 51.905 309.786 51.72 309.786 51.48C309.786 51.2 309.731 50.975 309.621 50.805C309.521 50.635 309.386 50.505 309.216 50.415C309.056 50.325 308.871 50.265 308.661 50.235C308.461 50.205 308.261 50.19 308.061 50.19C307.521 50.19 307.071 50.295 306.711 50.505C306.351 50.705 306.156 51.09 306.126 51.66H304.851C304.871 51.18 304.971 50.775 305.151 50.445C305.331 50.115 305.571 49.85 305.871 49.65C306.171 49.44 306.511 49.29 306.891 49.2C307.281 49.11 307.696 49.065 308.136 49.065C308.486 49.065 308.831 49.09 309.171 49.14C309.521 49.19 309.836 49.295 310.116 49.455C310.396 49.605 310.621 49.82 310.791 50.1C310.961 50.38 311.046 50.745 311.046 51.195V55.185C311.046 55.485 311.061 55.705 311.091 55.845C311.131 55.985 311.251 56.055 311.451 56.055C311.561 56.055 311.691 56.03 311.841 55.98V56.97ZM309.771 52.995C309.611 53.115 309.401 53.205 309.141 53.265C308.881 53.315 308.606 53.36 308.316 53.4C308.036 53.43 307.751 53.47 307.461 53.52C307.171 53.56 306.911 53.63 306.681 53.73C306.451 53.83 306.261 53.975 306.111 54.165C305.971 54.345 305.901 54.595 305.901 54.915C305.901 55.125 305.941 55.305 306.021 55.455C306.111 55.595 306.221 55.71 306.351 55.8C306.491 55.89 306.651 55.955 306.831 55.995C307.011 56.035 307.201 56.055 307.401 56.055C307.821 56.055 308.181 56 308.481 55.89C308.781 55.77 309.026 55.625 309.216 55.455C309.406 55.275 309.546 55.085 309.636 54.885C309.726 54.675 309.771 54.48 309.771 54.3V52.995ZM314.027 49.245V57H315.302V52.62C315.302 52.27 315.347 51.95 315.437 51.66C315.537 51.36 315.682 51.1 315.872 50.88C316.062 50.66 316.297 50.49 316.577 50.37C316.867 50.25 317.207 50.19 317.597 50.19C318.087 50.19 318.472 50.33 318.752 50.61C319.032 50.89 319.172 51.27 319.172 51.75V57H320.447V51.9C320.447 51.48 320.402 51.1 320.312 50.76C320.232 50.41 320.087 50.11 319.877 49.86C319.667 49.61 319.392 49.415 319.052 49.275C318.712 49.135 318.287 49.065 317.777 49.065C316.627 49.065 315.787 49.535 315.257 50.475H315.227V49.245H314.027ZM324.292 53.19C324.292 52.81 324.332 52.44 324.412 52.08C324.492 51.72 324.622 51.4 324.802 51.12C324.982 50.84 325.222 50.615 325.522 50.445C325.822 50.275 326.187 50.19 326.617 50.19C327.057 50.19 327.432 50.275 327.742 50.445C328.052 50.605 328.302 50.82 328.492 51.09C328.692 51.36 328.837 51.675 328.927 52.035C329.017 52.385 329.062 52.75 329.062 53.13C329.062 53.49 329.017 53.845 328.927 54.195C328.847 54.545 328.712 54.86 328.522 55.14C328.332 55.41 328.087 55.63 327.787 55.8C327.487 55.97 327.122 56.055 326.692 56.055C326.282 56.055 325.922 55.975 325.612 55.815C325.312 55.655 325.062 55.44 324.862 55.17C324.672 54.9 324.527 54.595 324.427 54.255C324.337 53.905 324.292 53.55 324.292 53.19ZM330.292 57V46.29H329.017V50.28H328.987C328.847 50.05 328.672 49.86 328.462 49.71C328.262 49.55 328.047 49.425 327.817 49.335C327.587 49.235 327.357 49.165 327.127 49.125C326.897 49.085 326.682 49.065 326.482 49.065C325.892 49.065 325.372 49.175 324.922 49.395C324.482 49.605 324.112 49.895 323.812 50.265C323.522 50.625 323.302 51.05 323.152 51.54C323.012 52.03 322.942 52.55 322.942 53.1C322.942 53.65 323.017 54.17 323.167 54.66C323.317 55.15 323.537 55.58 323.827 55.95C324.127 56.32 324.497 56.615 324.937 56.835C325.387 57.055 325.912 57.165 326.512 57.165C327.052 57.165 327.547 57.07 327.997 56.88C328.447 56.69 328.777 56.38 328.987 55.95H329.017V57H330.292ZM113.74 80.555H112.465C112.485 81.035 112.585 81.445 112.765 81.785C112.945 82.115 113.185 82.385 113.485 82.595C113.785 82.795 114.13 82.94 114.52 83.03C114.91 83.12 115.32 83.165 115.75 83.165C116.14 83.165 116.53 83.125 116.92 83.045C117.32 82.975 117.675 82.845 117.985 82.655C118.305 82.465 118.56 82.215 118.75 81.905C118.95 81.595 119.05 81.205 119.05 80.735C119.05 80.365 118.975 80.055 118.825 79.805C118.685 79.555 118.495 79.35 118.255 79.19C118.025 79.02 117.755 78.885 117.445 78.785C117.145 78.685 116.835 78.6 116.515 78.53C116.215 78.46 115.915 78.395 115.615 78.335C115.315 78.265 115.045 78.185 114.805 78.095C114.565 77.995 114.365 77.875 114.205 77.735C114.055 77.585 113.98 77.4 113.98 77.18C113.98 76.98 114.03 76.82 114.13 76.7C114.23 76.57 114.36 76.47 114.52 76.4C114.68 76.32 114.855 76.265 115.045 76.235C115.245 76.205 115.44 76.19 115.63 76.19C115.84 76.19 116.045 76.215 116.245 76.265C116.455 76.305 116.645 76.375 116.815 76.475C116.985 76.575 117.125 76.71 117.235 76.88C117.345 77.04 117.41 77.245 117.43 77.495H118.705C118.675 77.025 118.575 76.635 118.405 76.325C118.235 76.005 118.005 75.755 117.715 75.575C117.435 75.385 117.11 75.255 116.74 75.185C116.37 75.105 115.965 75.065 115.525 75.065C115.185 75.065 114.84 75.11 114.49 75.2C114.15 75.28 113.84 75.41 113.56 75.59C113.29 75.76 113.065 75.985 112.885 76.265C112.715 76.545 112.63 76.88 112.63 77.27C112.63 77.77 112.755 78.16 113.005 78.44C113.255 78.72 113.565 78.94 113.935 79.1C114.315 79.25 114.725 79.37 115.165 79.46C115.605 79.54 116.01 79.635 116.38 79.745C116.76 79.845 117.075 79.98 117.325 80.15C117.575 80.32 117.7 80.57 117.7 80.9C117.7 81.14 117.64 81.34 117.52 81.5C117.4 81.65 117.245 81.765 117.055 81.845C116.875 81.925 116.675 81.98 116.455 82.01C116.235 82.04 116.025 82.055 115.825 82.055C115.565 82.055 115.31 82.03 115.06 81.98C114.82 81.93 114.6 81.85 114.4 81.74C114.21 81.62 114.055 81.465 113.935 81.275C113.815 81.075 113.75 80.835 113.74 80.555ZM123.23 75.245V72.92H121.955V75.245H120.635V76.37H121.955V81.305C121.955 81.665 121.99 81.955 122.06 82.175C122.13 82.395 122.235 82.565 122.375 82.685C122.525 82.805 122.715 82.89 122.945 82.94C123.185 82.98 123.47 83 123.8 83H124.775V81.875H124.19C123.99 81.875 123.825 81.87 123.695 81.86C123.575 81.84 123.48 81.805 123.41 81.755C123.34 81.705 123.29 81.635 123.26 81.545C123.24 81.455 123.23 81.335 123.23 81.185V76.37H124.775V75.245H123.23ZM134.061 82.97C133.841 83.1 133.536 83.165 133.146 83.165C132.816 83.165 132.551 83.075 132.351 82.895C132.161 82.705 132.066 82.4 132.066 81.98C131.716 82.4 131.306 82.705 130.836 82.895C130.376 83.075 129.876 83.165 129.336 83.165C128.986 83.165 128.651 83.125 128.331 83.045C128.021 82.965 127.751 82.84 127.521 82.67C127.291 82.5 127.106 82.28 126.966 82.01C126.836 81.73 126.771 81.395 126.771 81.005C126.771 80.565 126.846 80.205 126.996 79.925C127.146 79.645 127.341 79.42 127.581 79.25C127.831 79.07 128.111 78.935 128.421 78.845C128.741 78.755 129.066 78.68 129.396 78.62C129.746 78.55 130.076 78.5 130.386 78.47C130.706 78.43 130.986 78.38 131.226 78.32C131.466 78.25 131.656 78.155 131.796 78.035C131.936 77.905 132.006 77.72 132.006 77.48C132.006 77.2 131.951 76.975 131.841 76.805C131.741 76.635 131.606 76.505 131.436 76.415C131.276 76.325 131.091 76.265 130.881 76.235C130.681 76.205 130.481 76.19 130.281 76.19C129.741 76.19 129.291 76.295 128.931 76.505C128.571 76.705 128.376 77.09 128.346 77.66H127.071C127.091 77.18 127.191 76.775 127.371 76.445C127.551 76.115 127.791 75.85 128.091 75.65C128.391 75.44 128.731 75.29 129.111 75.2C129.501 75.11 129.916 75.065 130.356 75.065C130.706 75.065 131.051 75.09 131.391 75.14C131.741 75.19 132.056 75.295 132.336 75.455C132.616 75.605 132.841 75.82 133.011 76.1C133.181 76.38 133.266 76.745 133.266 77.195V81.185C133.266 81.485 133.281 81.705 133.311 81.845C133.351 81.985 133.471 82.055 133.671 82.055C133.781 82.055 133.911 82.03 134.061 81.98V82.97ZM131.991 78.995C131.831 79.115 131.621 79.205 131.361 79.265C131.101 79.315 130.826 79.36 130.536 79.4C130.256 79.43 129.971 79.47 129.681 79.52C129.391 79.56 129.131 79.63 128.901 79.73C128.671 79.83 128.481 79.975 128.331 80.165C128.191 80.345 128.121 80.595 128.121 80.915C128.121 81.125 128.161 81.305 128.241 81.455C128.331 81.595 128.441 81.71 128.571 81.8C128.711 81.89 128.871 81.955 129.051 81.995C129.231 82.035 129.421 82.055 129.621 82.055C130.041 82.055 130.401 82 130.701 81.89C131.001 81.77 131.246 81.625 131.436 81.455C131.626 81.275 131.766 81.085 131.856 80.885C131.946 80.675 131.991 80.48 131.991 80.3V78.995ZM136.248 75.245V83H137.523V78.62C137.523 78.27 137.568 77.95 137.658 77.66C137.758 77.36 137.903 77.1 138.093 76.88C138.283 76.66 138.518 76.49 138.798 76.37C139.088 76.25 139.428 76.19 139.818 76.19C140.308 76.19 140.693 76.33 140.973 76.61C141.253 76.89 141.393 77.27 141.393 77.75V83H142.668V77.9C142.668 77.48 142.623 77.1 142.533 76.76C142.453 76.41 142.308 76.11 142.098 75.86C141.888 75.61 141.613 75.415 141.273 75.275C140.933 75.135 140.508 75.065 139.998 75.065C138.848 75.065 138.008 75.535 137.478 76.475H137.448V75.245H136.248ZM146.513 79.19C146.513 78.81 146.553 78.44 146.633 78.08C146.713 77.72 146.843 77.4 147.023 77.12C147.203 76.84 147.443 76.615 147.743 76.445C148.043 76.275 148.408 76.19 148.838 76.19C149.278 76.19 149.653 76.275 149.963 76.445C150.273 76.605 150.523 76.82 150.713 77.09C150.913 77.36 151.058 77.675 151.148 78.035C151.238 78.385 151.283 78.75 151.283 79.13C151.283 79.49 151.238 79.845 151.148 80.195C151.068 80.545 150.933 80.86 150.743 81.14C150.553 81.41 150.308 81.63 150.008 81.8C149.708 81.97 149.343 82.055 148.913 82.055C148.503 82.055 148.143 81.975 147.833 81.815C147.533 81.655 147.283 81.44 147.083 81.17C146.893 80.9 146.748 80.595 146.648 80.255C146.558 79.905 146.513 79.55 146.513 79.19ZM152.513 83V72.29H151.238V76.28H151.208C151.068 76.05 150.893 75.86 150.683 75.71C150.483 75.55 150.268 75.425 150.038 75.335C149.808 75.235 149.578 75.165 149.348 75.125C149.118 75.085 148.903 75.065 148.703 75.065C148.113 75.065 147.593 75.175 147.143 75.395C146.703 75.605 146.333 75.895 146.033 76.265C145.743 76.625 145.523 77.05 145.373 77.54C145.233 78.03 145.163 78.55 145.163 79.1C145.163 79.65 145.238 80.17 145.388 80.66C145.538 81.15 145.758 81.58 146.048 81.95C146.348 82.32 146.718 82.615 147.158 82.835C147.608 83.055 148.133 83.165 148.733 83.165C149.273 83.165 149.768 83.07 150.218 82.88C150.668 82.69 150.998 82.38 151.208 81.95H151.238V83H152.513ZM162.345 82.97C162.125 83.1 161.82 83.165 161.43 83.165C161.1 83.165 160.835 83.075 160.635 82.895C160.445 82.705 160.35 82.4 160.35 81.98C160 82.4 159.59 82.705 159.12 82.895C158.66 83.075 158.16 83.165 157.62 83.165C157.27 83.165 156.935 83.125 156.615 83.045C156.305 82.965 156.035 82.84 155.805 82.67C155.575 82.5 155.39 82.28 155.25 82.01C155.12 81.73 155.055 81.395 155.055 81.005C155.055 80.565 155.13 80.205 155.28 79.925C155.43 79.645 155.625 79.42 155.865 79.25C156.115 79.07 156.395 78.935 156.705 78.845C157.025 78.755 157.35 78.68 157.68 78.62C158.03 78.55 158.36 78.5 158.67 78.47C158.99 78.43 159.27 78.38 159.51 78.32C159.75 78.25 159.94 78.155 160.08 78.035C160.22 77.905 160.29 77.72 160.29 77.48C160.29 77.2 160.235 76.975 160.125 76.805C160.025 76.635 159.89 76.505 159.72 76.415C159.56 76.325 159.375 76.265 159.165 76.235C158.965 76.205 158.765 76.19 158.565 76.19C158.025 76.19 157.575 76.295 157.215 76.505C156.855 76.705 156.66 77.09 156.63 77.66H155.355C155.375 77.18 155.475 76.775 155.655 76.445C155.835 76.115 156.075 75.85 156.375 75.65C156.675 75.44 157.015 75.29 157.395 75.2C157.785 75.11 158.2 75.065 158.64 75.065C158.99 75.065 159.335 75.09 159.675 75.14C160.025 75.19 160.34 75.295 160.62 75.455C160.9 75.605 161.125 75.82 161.295 76.1C161.465 76.38 161.55 76.745 161.55 77.195V81.185C161.55 81.485 161.565 81.705 161.595 81.845C161.635 81.985 161.755 82.055 161.955 82.055C162.065 82.055 162.195 82.03 162.345 81.98V82.97ZM160.275 78.995C160.115 79.115 159.905 79.205 159.645 79.265C159.385 79.315 159.11 79.36 158.82 79.4C158.54 79.43 158.255 79.47 157.965 79.52C157.675 79.56 157.415 79.63 157.185 79.73C156.955 79.83 156.765 79.975 156.615 80.165C156.475 80.345 156.405 80.595 156.405 80.915C156.405 81.125 156.445 81.305 156.525 81.455C156.615 81.595 156.725 81.71 156.855 81.8C156.995 81.89 157.155 81.955 157.335 81.995C157.515 82.035 157.705 82.055 157.905 82.055C158.325 82.055 158.685 82 158.985 81.89C159.285 81.77 159.53 81.625 159.72 81.455C159.91 81.275 160.05 81.085 160.14 80.885C160.23 80.675 160.275 80.48 160.275 80.3V78.995ZM164.606 72.29V83H165.881V72.29H164.606ZM169.786 79.13C169.786 78.66 169.846 78.245 169.966 77.885C170.096 77.515 170.271 77.205 170.491 76.955C170.711 76.705 170.966 76.515 171.256 76.385C171.556 76.255 171.871 76.19 172.201 76.19C172.531 76.19 172.841 76.255 173.131 76.385C173.431 76.515 173.691 76.705 173.911 76.955C174.131 77.205 174.301 77.515 174.421 77.885C174.551 78.245 174.616 78.66 174.616 79.13C174.616 79.6 174.551 80.02 174.421 80.39C174.301 80.75 174.131 81.055 173.911 81.305C173.691 81.545 173.431 81.73 173.131 81.86C172.841 81.99 172.531 82.055 172.201 82.055C171.871 82.055 171.556 81.99 171.256 81.86C170.966 81.73 170.711 81.545 170.491 81.305C170.271 81.055 170.096 80.75 169.966 80.39C169.846 80.02 169.786 79.6 169.786 79.13ZM168.436 79.13C168.436 79.7 168.516 80.23 168.676 80.72C168.836 81.21 169.076 81.64 169.396 82.01C169.716 82.37 170.111 82.655 170.581 82.865C171.051 83.065 171.591 83.165 172.201 83.165C172.821 83.165 173.361 83.065 173.821 82.865C174.291 82.655 174.686 82.37 175.006 82.01C175.326 81.64 175.566 81.21 175.726 80.72C175.886 80.23 175.966 79.7 175.966 79.13C175.966 78.56 175.886 78.03 175.726 77.54C175.566 77.04 175.326 76.61 175.006 76.25C174.686 75.88 174.291 75.59 173.821 75.38C173.361 75.17 172.821 75.065 172.201 75.065C171.591 75.065 171.051 75.17 170.581 75.38C170.111 75.59 169.716 75.88 169.396 76.25C169.076 76.61 168.836 77.04 168.676 77.54C168.516 78.03 168.436 78.56 168.436 79.13ZM178.47 75.245V83H179.745V78.62C179.745 78.27 179.79 77.95 179.88 77.66C179.98 77.36 180.125 77.1 180.315 76.88C180.505 76.66 180.74 76.49 181.02 76.37C181.31 76.25 181.65 76.19 182.04 76.19C182.53 76.19 182.915 76.33 183.195 76.61C183.475 76.89 183.615 77.27 183.615 77.75V83H184.89V77.9C184.89 77.48 184.845 77.1 184.755 76.76C184.675 76.41 184.53 76.11 184.32 75.86C184.11 75.61 183.835 75.415 183.495 75.275C183.155 75.135 182.73 75.065 182.22 75.065C181.07 75.065 180.23 75.535 179.7 76.475H179.67V75.245H178.47ZM193.19 78.38H188.735C188.755 78.08 188.82 77.8 188.93 77.54C189.04 77.27 189.19 77.035 189.38 76.835C189.57 76.635 189.795 76.48 190.055 76.37C190.325 76.25 190.625 76.19 190.955 76.19C191.275 76.19 191.565 76.25 191.825 76.37C192.095 76.48 192.325 76.635 192.515 76.835C192.715 77.025 192.87 77.255 192.98 77.525C193.1 77.795 193.17 78.08 193.19 78.38ZM194.42 80.54H193.16C193.05 81.05 192.82 81.43 192.47 81.68C192.13 81.93 191.69 82.055 191.15 82.055C190.73 82.055 190.365 81.985 190.055 81.845C189.745 81.705 189.49 81.52 189.29 81.29C189.09 81.05 188.945 80.78 188.855 80.48C188.765 80.17 188.725 79.845 188.735 79.505H194.54C194.56 79.035 194.515 78.54 194.405 78.02C194.305 77.5 194.115 77.02 193.835 76.58C193.565 76.14 193.2 75.78 192.74 75.5C192.29 75.21 191.72 75.065 191.03 75.065C190.5 75.065 190.01 75.165 189.56 75.365C189.12 75.565 188.735 75.845 188.405 76.205C188.085 76.565 187.835 76.99 187.655 77.48C187.475 77.97 187.385 78.51 187.385 79.1C187.405 79.69 187.49 80.235 187.64 80.735C187.8 81.235 188.035 81.665 188.345 82.025C188.655 82.385 189.035 82.665 189.485 82.865C189.945 83.065 190.485 83.165 191.105 83.165C191.985 83.165 192.715 82.945 193.295 82.505C193.875 82.065 194.25 81.41 194.42 80.54ZM208.906 82.97C208.686 83.1 208.381 83.165 207.991 83.165C207.661 83.165 207.396 83.075 207.196 82.895C207.006 82.705 206.911 82.4 206.911 81.98C206.561 82.4 206.151 82.705 205.681 82.895C205.221 83.075 204.721 83.165 204.181 83.165C203.831 83.165 203.496 83.125 203.176 83.045C202.866 82.965 202.596 82.84 202.366 82.67C202.136 82.5 201.951 82.28 201.811 82.01C201.681 81.73 201.616 81.395 201.616 81.005C201.616 80.565 201.691 80.205 201.841 79.925C201.991 79.645 202.186 79.42 202.426 79.25C202.676 79.07 202.956 78.935 203.266 78.845C203.586 78.755 203.911 78.68 204.241 78.62C204.591 78.55 204.921 78.5 205.231 78.47C205.551 78.43 205.831 78.38 206.071 78.32C206.311 78.25 206.501 78.155 206.641 78.035C206.781 77.905 206.851 77.72 206.851 77.48C206.851 77.2 206.796 76.975 206.686 76.805C206.586 76.635 206.451 76.505 206.281 76.415C206.121 76.325 205.936 76.265 205.726 76.235C205.526 76.205 205.326 76.19 205.126 76.19C204.586 76.19 204.136 76.295 203.776 76.505C203.416 76.705 203.221 77.09 203.191 77.66H201.916C201.936 77.18 202.036 76.775 202.216 76.445C202.396 76.115 202.636 75.85 202.936 75.65C203.236 75.44 203.576 75.29 203.956 75.2C204.346 75.11 204.761 75.065 205.201 75.065C205.551 75.065 205.896 75.09 206.236 75.14C206.586 75.19 206.901 75.295 207.181 75.455C207.461 75.605 207.686 75.82 207.856 76.1C208.026 76.38 208.111 76.745 208.111 77.195V81.185C208.111 81.485 208.126 81.705 208.156 81.845C208.196 81.985 208.316 82.055 208.516 82.055C208.626 82.055 208.756 82.03 208.906 81.98V82.97ZM206.836 78.995C206.676 79.115 206.466 79.205 206.206 79.265C205.946 79.315 205.671 79.36 205.381 79.4C205.101 79.43 204.816 79.47 204.526 79.52C204.236 79.56 203.976 79.63 203.746 79.73C203.516 79.83 203.326 79.975 203.176 80.165C203.036 80.345 202.966 80.595 202.966 80.915C202.966 81.125 203.006 81.305 203.086 81.455C203.176 81.595 203.286 81.71 203.416 81.8C203.556 81.89 203.716 81.955 203.896 81.995C204.076 82.035 204.266 82.055 204.466 82.055C204.886 82.055 205.246 82 205.546 81.89C205.846 81.77 206.091 81.625 206.281 81.455C206.471 81.275 206.611 81.085 206.701 80.885C206.791 80.675 206.836 80.48 206.836 80.3V78.995ZM216.358 77.735H217.678C217.628 77.275 217.508 76.88 217.318 76.55C217.128 76.21 216.883 75.93 216.583 75.71C216.293 75.49 215.953 75.33 215.563 75.23C215.183 75.12 214.773 75.065 214.333 75.065C213.723 75.065 213.188 75.175 212.728 75.395C212.268 75.605 211.883 75.9 211.573 76.28C211.273 76.65 211.048 77.09 210.898 77.6C210.748 78.1 210.673 78.64 210.673 79.22C210.673 79.8 210.748 80.335 210.898 80.825C211.058 81.305 211.288 81.72 211.588 82.07C211.898 82.42 212.278 82.69 212.728 82.88C213.188 83.07 213.713 83.165 214.303 83.165C215.293 83.165 216.073 82.905 216.643 82.385C217.223 81.865 217.583 81.125 217.723 80.165H216.418C216.338 80.765 216.118 81.23 215.758 81.56C215.408 81.89 214.918 82.055 214.288 82.055C213.888 82.055 213.543 81.975 213.253 81.815C212.963 81.655 212.728 81.445 212.548 81.185C212.368 80.915 212.233 80.61 212.143 80.27C212.063 79.93 212.023 79.58 212.023 79.22C212.023 78.83 212.063 78.455 212.143 78.095C212.223 77.725 212.353 77.4 212.533 77.12C212.723 76.84 212.973 76.615 213.283 76.445C213.593 76.275 213.978 76.19 214.438 76.19C214.978 76.19 215.408 76.325 215.728 76.595C216.048 76.865 216.258 77.245 216.358 77.735ZM221.919 75.245V72.92H220.644V75.245H219.324V76.37H220.644V81.305C220.644 81.665 220.679 81.955 220.749 82.175C220.819 82.395 220.924 82.565 221.064 82.685C221.214 82.805 221.404 82.89 221.634 82.94C221.874 82.98 222.159 83 222.489 83H223.464V81.875H222.879C222.679 81.875 222.514 81.87 222.384 81.86C222.264 81.84 222.169 81.805 222.099 81.755C222.029 81.705 221.979 81.635 221.949 81.545C221.929 81.455 221.919 81.335 221.919 81.185V76.37H223.464V75.245H221.919ZM227.231 73.85V72.29H225.956V73.85H227.231ZM225.956 75.245V83H227.231V75.245H225.956ZM231.136 79.13C231.136 78.66 231.196 78.245 231.316 77.885C231.446 77.515 231.621 77.205 231.841 76.955C232.061 76.705 232.316 76.515 232.606 76.385C232.906 76.255 233.221 76.19 233.551 76.19C233.881 76.19 234.191 76.255 234.481 76.385C234.781 76.515 235.041 76.705 235.261 76.955C235.481 77.205 235.651 77.515 235.771 77.885C235.901 78.245 235.966 78.66 235.966 79.13C235.966 79.6 235.901 80.02 235.771 80.39C235.651 80.75 235.481 81.055 235.261 81.305C235.041 81.545 234.781 81.73 234.481 81.86C234.191 81.99 233.881 82.055 233.551 82.055C233.221 82.055 232.906 81.99 232.606 81.86C232.316 81.73 232.061 81.545 231.841 81.305C231.621 81.055 231.446 80.75 231.316 80.39C231.196 80.02 231.136 79.6 231.136 79.13ZM229.786 79.13C229.786 79.7 229.866 80.23 230.026 80.72C230.186 81.21 230.426 81.64 230.746 82.01C231.066 82.37 231.461 82.655 231.931 82.865C232.401 83.065 232.941 83.165 233.551 83.165C234.171 83.165 234.711 83.065 235.171 82.865C235.641 82.655 236.036 82.37 236.356 82.01C236.676 81.64 236.916 81.21 237.076 80.72C237.236 80.23 237.316 79.7 237.316 79.13C237.316 78.56 237.236 78.03 237.076 77.54C236.916 77.04 236.676 76.61 236.356 76.25C236.036 75.88 235.641 75.59 235.171 75.38C234.711 75.17 234.171 75.065 233.551 75.065C232.941 75.065 232.401 75.17 231.931 75.38C231.461 75.59 231.066 75.88 230.746 76.25C230.426 76.61 230.186 77.04 230.026 77.54C229.866 78.03 229.786 78.56 229.786 79.13ZM239.819 75.245V83H241.094V78.62C241.094 78.27 241.139 77.95 241.229 77.66C241.329 77.36 241.474 77.1 241.664 76.88C241.854 76.66 242.089 76.49 242.369 76.37C242.659 76.25 242.999 76.19 243.389 76.19C243.879 76.19 244.264 76.33 244.544 76.61C244.824 76.89 244.964 77.27 244.964 77.75V83H246.239V77.9C246.239 77.48 246.194 77.1 246.104 76.76C246.024 76.41 245.879 76.11 245.669 75.86C245.459 75.61 245.184 75.415 244.844 75.275C244.504 75.135 244.079 75.065 243.569 75.065C242.419 75.065 241.579 75.535 241.049 76.475H241.019V75.245H239.819ZM249.934 80.555H248.659C248.679 81.035 248.779 81.445 248.959 81.785C249.139 82.115 249.379 82.385 249.679 82.595C249.979 82.795 250.324 82.94 250.714 83.03C251.104 83.12 251.514 83.165 251.944 83.165C252.334 83.165 252.724 83.125 253.114 83.045C253.514 82.975 253.869 82.845 254.179 82.655C254.499 82.465 254.754 82.215 254.944 81.905C255.144 81.595 255.244 81.205 255.244 80.735C255.244 80.365 255.169 80.055 255.019 79.805C254.879 79.555 254.689 79.35 254.449 79.19C254.219 79.02 253.949 78.885 253.639 78.785C253.339 78.685 253.029 78.6 252.709 78.53C252.409 78.46 252.109 78.395 251.809 78.335C251.509 78.265 251.239 78.185 250.999 78.095C250.759 77.995 250.559 77.875 250.399 77.735C250.249 77.585 250.174 77.4 250.174 77.18C250.174 76.98 250.224 76.82 250.324 76.7C250.424 76.57 250.554 76.47 250.714 76.4C250.874 76.32 251.049 76.265 251.239 76.235C251.439 76.205 251.634 76.19 251.824 76.19C252.034 76.19 252.239 76.215 252.439 76.265C252.649 76.305 252.839 76.375 253.009 76.475C253.179 76.575 253.319 76.71 253.429 76.88C253.539 77.04 253.604 77.245 253.624 77.495H254.899C254.869 77.025 254.769 76.635 254.599 76.325C254.429 76.005 254.199 75.755 253.909 75.575C253.629 75.385 253.304 75.255 252.934 75.185C252.564 75.105 252.159 75.065 251.719 75.065C251.379 75.065 251.034 75.11 250.684 75.2C250.344 75.28 250.034 75.41 249.754 75.59C249.484 75.76 249.259 75.985 249.079 76.265C248.909 76.545 248.824 76.88 248.824 77.27C248.824 77.77 248.949 78.16 249.199 78.44C249.449 78.72 249.759 78.94 250.129 79.1C250.509 79.25 250.919 79.37 251.359 79.46C251.799 79.54 252.204 79.635 252.574 79.745C252.954 79.845 253.269 79.98 253.519 80.15C253.769 80.32 253.894 80.57 253.894 80.9C253.894 81.14 253.834 81.34 253.714 81.5C253.594 81.65 253.439 81.765 253.249 81.845C253.069 81.925 252.869 81.98 252.649 82.01C252.429 82.04 252.219 82.055 252.019 82.055C251.759 82.055 251.504 82.03 251.254 81.98C251.014 81.93 250.794 81.85 250.594 81.74C250.404 81.62 250.249 81.465 250.129 81.275C250.009 81.075 249.944 80.835 249.934 80.555Z" fill="#333333"/>
</svg>
