<svg width="384" height="106" viewBox="0 0 384 106" fill="none" xmlns="http://www.w3.org/2000/svg">
<path d="M0 8C0 3.58172 3.58172 0 8 0H376C380.418 0 384 3.58172 384 8V98C384 102.418 380.418 106 376 106H7.99999C3.58171 106 0 102.418 0 98V8Z" fill="#FCF8E3"/>
<path d="M48.1541 51.2919L53.5852 45.627C53.9606 45.2355 54.5676 45.2355 54.939 45.627L55.8415 46.5684C56.2169 46.9599 56.2169 47.5931 55.8415 47.9804L51.9958 52L55.8455 56.0154C56.2209 56.407 56.2209 57.0401 55.8455 57.4275L54.943 58.373C54.5676 58.7646 53.9606 58.7646 53.5892 58.373L48.1581 52.7081C47.7787 52.3166 47.7787 51.6834 48.1541 51.2919Z" fill="#333333"/>
<path d="M115.168 27.734H112.432C112.42 28.526 112.564 29.21 112.864 29.786C113.164 30.362 113.566 30.836 114.07 31.208C114.586 31.58 115.174 31.85 115.834 32.018C116.506 32.198 117.196 32.288 117.904 32.288C118.78 32.288 119.548 32.186 120.208 31.982C120.88 31.778 121.438 31.496 121.882 31.136C122.338 30.764 122.68 30.326 122.908 29.822C123.136 29.318 123.25 28.772 123.25 28.184C123.25 27.464 123.094 26.876 122.782 26.42C122.482 25.952 122.122 25.58 121.702 25.304C121.282 25.028 120.856 24.83 120.424 24.71C120.004 24.578 119.674 24.488 119.434 24.44C118.63 24.236 117.976 24.068 117.472 23.936C116.98 23.804 116.59 23.672 116.302 23.54C116.026 23.408 115.84 23.264 115.744 23.108C115.648 22.952 115.6 22.748 115.6 22.496C115.6 22.22 115.66 21.992 115.78 21.812C115.9 21.632 116.05 21.482 116.23 21.362C116.422 21.242 116.632 21.158 116.86 21.11C117.088 21.062 117.316 21.038 117.544 21.038C117.892 21.038 118.21 21.068 118.498 21.128C118.798 21.188 119.062 21.29 119.29 21.434C119.518 21.578 119.698 21.776 119.83 22.028C119.974 22.28 120.058 22.598 120.082 22.982H122.818C122.818 22.238 122.674 21.608 122.386 21.092C122.11 20.564 121.732 20.132 121.252 19.796C120.772 19.46 120.22 19.22 119.596 19.076C118.984 18.92 118.342 18.842 117.67 18.842C117.094 18.842 116.518 18.92 115.942 19.076C115.366 19.232 114.85 19.472 114.394 19.796C113.938 20.12 113.566 20.528 113.278 21.02C113.002 21.5 112.864 22.07 112.864 22.73C112.864 23.318 112.972 23.822 113.188 24.242C113.416 24.65 113.71 24.992 114.07 25.268C114.43 25.544 114.838 25.772 115.294 25.952C115.75 26.12 116.218 26.264 116.698 26.384C117.166 26.516 117.628 26.636 118.084 26.744C118.54 26.852 118.948 26.978 119.308 27.122C119.668 27.266 119.956 27.446 120.172 27.662C120.4 27.878 120.514 28.16 120.514 28.508C120.514 28.832 120.43 29.102 120.262 29.318C120.094 29.522 119.884 29.684 119.632 29.804C119.38 29.924 119.11 30.008 118.822 30.056C118.534 30.092 118.264 30.11 118.012 30.11C117.64 30.11 117.28 30.068 116.932 29.984C116.584 29.888 116.278 29.75 116.014 29.57C115.762 29.378 115.558 29.132 115.402 28.832C115.246 28.532 115.168 28.166 115.168 27.734ZM125.111 19.148V32H127.757V22.982H127.793L130.943 32H133.121L136.271 22.892H136.307V32H138.953V19.148H134.975L132.131 27.986H132.095L129.089 19.148H125.111ZM144.862 27.032L146.536 22.316H146.572L148.192 27.032H144.862ZM145.132 19.148L140.272 32H143.116L144.124 29.138H148.93L149.902 32H152.836L148.03 19.148H145.132ZM154.124 19.148V32H163.214V29.624H156.95V19.148H154.124ZM164.974 19.148V32H174.064V29.624H167.8V19.148H164.974ZM184.595 18.842L179.591 32.288H181.625L186.647 18.842H184.595ZM194.989 27.734H192.253C192.241 28.526 192.385 29.21 192.685 29.786C192.985 30.362 193.387 30.836 193.891 31.208C194.407 31.58 194.995 31.85 195.655 32.018C196.327 32.198 197.017 32.288 197.725 32.288C198.601 32.288 199.369 32.186 200.029 31.982C200.701 31.778 201.259 31.496 201.703 31.136C202.159 30.764 202.501 30.326 202.729 29.822C202.957 29.318 203.071 28.772 203.071 28.184C203.071 27.464 202.915 26.876 202.603 26.42C202.303 25.952 201.943 25.58 201.523 25.304C201.103 25.028 200.677 24.83 200.245 24.71C199.825 24.578 199.495 24.488 199.255 24.44C198.451 24.236 197.797 24.068 197.293 23.936C196.801 23.804 196.411 23.672 196.123 23.54C195.847 23.408 195.661 23.264 195.565 23.108C195.469 22.952 195.421 22.748 195.421 22.496C195.421 22.22 195.481 21.992 195.601 21.812C195.721 21.632 195.871 21.482 196.051 21.362C196.243 21.242 196.453 21.158 196.681 21.11C196.909 21.062 197.137 21.038 197.365 21.038C197.713 21.038 198.031 21.068 198.319 21.128C198.619 21.188 198.883 21.29 199.111 21.434C199.339 21.578 199.519 21.776 199.651 22.028C199.795 22.28 199.879 22.598 199.903 22.982H202.639C202.639 22.238 202.495 21.608 202.207 21.092C201.931 20.564 201.553 20.132 201.073 19.796C200.593 19.46 200.041 19.22 199.417 19.076C198.805 18.92 198.163 18.842 197.491 18.842C196.915 18.842 196.339 18.92 195.763 19.076C195.187 19.232 194.671 19.472 194.215 19.796C193.759 20.12 193.387 20.528 193.099 21.02C192.823 21.5 192.685 22.07 192.685 22.73C192.685 23.318 192.793 23.822 193.009 24.242C193.237 24.65 193.531 24.992 193.891 25.268C194.251 25.544 194.659 25.772 195.115 25.952C195.571 26.12 196.039 26.264 196.519 26.384C196.987 26.516 197.449 26.636 197.905 26.744C198.361 26.852 198.769 26.978 199.129 27.122C199.489 27.266 199.777 27.446 199.993 27.662C200.221 27.878 200.335 28.16 200.335 28.508C200.335 28.832 200.251 29.102 200.083 29.318C199.915 29.522 199.705 29.684 199.453 29.804C199.201 29.924 198.931 30.008 198.643 30.056C198.355 30.092 198.085 30.11 197.833 30.11C197.461 30.11 197.101 30.068 196.753 29.984C196.405 29.888 196.099 29.75 195.835 29.57C195.583 29.378 195.379 29.132 195.223 28.832C195.067 28.532 194.989 28.166 194.989 27.734ZM204.932 19.148V32H207.578V22.982H207.614L210.764 32H212.942L216.092 22.892H216.128V32H218.774V19.148H214.796L211.952 27.986H211.916L208.91 19.148H204.932Z" fill="#333333"/>
<path d="M114.595 55.8V47.49H116.995C117.655 47.49 118.21 47.585 118.66 47.775C119.11 47.955 119.475 48.225 119.755 48.585C120.045 48.935 120.25 49.365 120.37 49.875C120.5 50.375 120.565 50.945 120.565 51.585C120.565 52.245 120.495 52.81 120.355 53.28C120.225 53.74 120.055 54.125 119.845 54.435C119.635 54.745 119.395 54.99 119.125 55.17C118.865 55.35 118.6 55.49 118.33 55.59C118.06 55.68 117.805 55.74 117.565 55.77C117.325 55.79 117.125 55.8 116.965 55.8H114.595ZM113.17 46.29V57H116.845C117.735 57 118.505 56.875 119.155 56.625C119.805 56.375 120.34 56.015 120.76 55.545C121.18 55.065 121.49 54.48 121.69 53.79C121.89 53.09 121.99 52.29 121.99 51.39C121.99 49.67 121.545 48.39 120.655 47.55C119.765 46.71 118.495 46.29 116.845 46.29H113.17ZM129.907 52.38H125.452C125.472 52.08 125.537 51.8 125.647 51.54C125.757 51.27 125.907 51.035 126.097 50.835C126.287 50.635 126.512 50.48 126.772 50.37C127.042 50.25 127.342 50.19 127.672 50.19C127.992 50.19 128.282 50.25 128.542 50.37C128.812 50.48 129.042 50.635 129.232 50.835C129.432 51.025 129.587 51.255 129.697 51.525C129.817 51.795 129.887 52.08 129.907 52.38ZM131.137 54.54H129.877C129.767 55.05 129.537 55.43 129.187 55.68C128.847 55.93 128.407 56.055 127.867 56.055C127.447 56.055 127.082 55.985 126.772 55.845C126.462 55.705 126.207 55.52 126.007 55.29C125.807 55.05 125.662 54.78 125.572 54.48C125.482 54.17 125.442 53.845 125.452 53.505H131.257C131.277 53.035 131.232 52.54 131.122 52.02C131.022 51.5 130.832 51.02 130.552 50.58C130.282 50.14 129.917 49.78 129.457 49.5C129.007 49.21 128.437 49.065 127.747 49.065C127.217 49.065 126.727 49.165 126.277 49.365C125.837 49.565 125.452 49.845 125.122 50.205C124.802 50.565 124.552 50.99 124.372 51.48C124.192 51.97 124.102 52.51 124.102 53.1C124.122 53.69 124.207 54.235 124.357 54.735C124.517 55.235 124.752 55.665 125.062 56.025C125.372 56.385 125.752 56.665 126.202 56.865C126.662 57.065 127.202 57.165 127.822 57.165C128.702 57.165 129.432 56.945 130.012 56.505C130.592 56.065 130.967 55.41 131.137 54.54ZM134.103 50.37V57H135.378V50.37H136.878V49.245H135.378V48.165C135.378 47.825 135.463 47.595 135.633 47.475C135.803 47.355 136.043 47.295 136.353 47.295C136.463 47.295 136.583 47.305 136.713 47.325C136.843 47.335 136.963 47.36 137.073 47.4V46.29C136.953 46.25 136.813 46.22 136.653 46.2C136.503 46.18 136.368 46.17 136.248 46.17C135.548 46.17 135.013 46.335 134.643 46.665C134.283 46.985 134.103 47.46 134.103 48.09V49.245H132.798V50.37H134.103ZM145.887 56.97C145.667 57.1 145.362 57.165 144.972 57.165C144.642 57.165 144.377 57.075 144.177 56.895C143.987 56.705 143.892 56.4 143.892 55.98C143.542 56.4 143.132 56.705 142.662 56.895C142.202 57.075 141.702 57.165 141.162 57.165C140.812 57.165 140.477 57.125 140.157 57.045C139.847 56.965 139.577 56.84 139.347 56.67C139.117 56.5 138.932 56.28 138.792 56.01C138.662 55.73 138.597 55.395 138.597 55.005C138.597 54.565 138.672 54.205 138.822 53.925C138.972 53.645 139.167 53.42 139.407 53.25C139.657 53.07 139.937 52.935 140.247 52.845C140.567 52.755 140.892 52.68 141.222 52.62C141.572 52.55 141.902 52.5 142.212 52.47C142.532 52.43 142.812 52.38 143.052 52.32C143.292 52.25 143.482 52.155 143.622 52.035C143.762 51.905 143.832 51.72 143.832 51.48C143.832 51.2 143.777 50.975 143.667 50.805C143.567 50.635 143.432 50.505 143.262 50.415C143.102 50.325 142.917 50.265 142.707 50.235C142.507 50.205 142.307 50.19 142.107 50.19C141.567 50.19 141.117 50.295 140.757 50.505C140.397 50.705 140.202 51.09 140.172 51.66H138.897C138.917 51.18 139.017 50.775 139.197 50.445C139.377 50.115 139.617 49.85 139.917 49.65C140.217 49.44 140.557 49.29 140.937 49.2C141.327 49.11 141.742 49.065 142.182 49.065C142.532 49.065 142.877 49.09 143.217 49.14C143.567 49.19 143.882 49.295 144.162 49.455C144.442 49.605 144.667 49.82 144.837 50.1C145.007 50.38 145.092 50.745 145.092 51.195V55.185C145.092 55.485 145.107 55.705 145.137 55.845C145.177 55.985 145.297 56.055 145.497 56.055C145.607 56.055 145.737 56.03 145.887 55.98V56.97ZM143.817 52.995C143.657 53.115 143.447 53.205 143.187 53.265C142.927 53.315 142.652 53.36 142.362 53.4C142.082 53.43 141.797 53.47 141.507 53.52C141.217 53.56 140.957 53.63 140.727 53.73C140.497 53.83 140.307 53.975 140.157 54.165C140.017 54.345 139.947 54.595 139.947 54.915C139.947 55.125 139.987 55.305 140.067 55.455C140.157 55.595 140.267 55.71 140.397 55.8C140.537 55.89 140.697 55.955 140.877 55.995C141.057 56.035 141.247 56.055 141.447 56.055C141.867 56.055 142.227 56 142.527 55.89C142.827 55.77 143.072 55.625 143.262 55.455C143.452 55.275 143.592 55.085 143.682 54.885C143.772 54.675 143.817 54.48 143.817 54.3V52.995ZM154.493 57V49.245H153.218V53.625C153.218 53.975 153.168 54.3 153.068 54.6C152.978 54.89 152.838 55.145 152.648 55.365C152.458 55.585 152.218 55.755 151.928 55.875C151.648 55.995 151.313 56.055 150.923 56.055C150.433 56.055 150.048 55.915 149.768 55.635C149.488 55.355 149.348 54.975 149.348 54.495V49.245H148.073V54.345C148.073 54.765 148.113 55.15 148.193 55.5C148.283 55.84 148.433 56.135 148.643 56.385C148.853 56.635 149.128 56.83 149.468 56.97C149.808 57.1 150.233 57.165 150.743 57.165C151.313 57.165 151.808 57.055 152.228 56.835C152.648 56.605 152.993 56.25 153.263 55.77H153.293V57H154.493ZM157.483 46.29V57H158.758V46.29H157.483ZM163.503 49.245V46.92H162.228V49.245H160.908V50.37H162.228V55.305C162.228 55.665 162.263 55.955 162.333 56.175C162.403 56.395 162.508 56.565 162.648 56.685C162.798 56.805 162.988 56.89 163.218 56.94C163.458 56.98 163.743 57 164.073 57H165.048V55.875H164.463C164.263 55.875 164.098 55.87 163.968 55.86C163.848 55.84 163.753 55.805 163.683 55.755C163.613 55.705 163.563 55.635 163.533 55.545C163.513 55.455 163.503 55.335 163.503 55.185V50.37H165.048V49.245H163.503ZM173.165 50.37V57H174.44V50.37H175.94V49.245H174.44V48.165C174.44 47.825 174.525 47.595 174.695 47.475C174.865 47.355 175.105 47.295 175.415 47.295C175.525 47.295 175.645 47.305 175.775 47.325C175.905 47.335 176.025 47.36 176.135 47.4V46.29C176.015 46.25 175.875 46.22 175.715 46.2C175.565 46.18 175.43 46.17 175.31 46.17C174.61 46.17 174.075 46.335 173.705 46.665C173.345 46.985 173.165 47.46 173.165 48.09V49.245H171.86V50.37H173.165ZM179.008 53.13C179.008 52.66 179.068 52.245 179.188 51.885C179.318 51.515 179.493 51.205 179.713 50.955C179.933 50.705 180.188 50.515 180.478 50.385C180.778 50.255 181.093 50.19 181.423 50.19C181.753 50.19 182.063 50.255 182.353 50.385C182.653 50.515 182.913 50.705 183.133 50.955C183.353 51.205 183.523 51.515 183.643 51.885C183.773 52.245 183.838 52.66 183.838 53.13C183.838 53.6 183.773 54.02 183.643 54.39C183.523 54.75 183.353 55.055 183.133 55.305C182.913 55.545 182.653 55.73 182.353 55.86C182.063 55.99 181.753 56.055 181.423 56.055C181.093 56.055 180.778 55.99 180.478 55.86C180.188 55.73 179.933 55.545 179.713 55.305C179.493 55.055 179.318 54.75 179.188 54.39C179.068 54.02 179.008 53.6 179.008 53.13ZM177.658 53.13C177.658 53.7 177.738 54.23 177.898 54.72C178.058 55.21 178.298 55.64 178.618 56.01C178.938 56.37 179.333 56.655 179.803 56.865C180.273 57.065 180.813 57.165 181.423 57.165C182.043 57.165 182.583 57.065 183.043 56.865C183.513 56.655 183.908 56.37 184.228 56.01C184.548 55.64 184.788 55.21 184.948 54.72C185.108 54.23 185.188 53.7 185.188 53.13C185.188 52.56 185.108 52.03 184.948 51.54C184.788 51.04 184.548 50.61 184.228 50.25C183.908 49.88 183.513 49.59 183.043 49.38C182.583 49.17 182.043 49.065 181.423 49.065C180.813 49.065 180.273 49.17 179.803 49.38C179.333 49.59 178.938 49.88 178.618 50.25C178.298 50.61 178.058 51.04 177.898 51.54C177.738 52.03 177.658 52.56 177.658 53.13ZM187.646 49.245V57H188.921V53.55C188.921 53.05 188.971 52.61 189.071 52.23C189.171 51.84 189.331 51.51 189.551 51.24C189.771 50.97 190.061 50.765 190.421 50.625C190.781 50.485 191.216 50.415 191.726 50.415V49.065C191.036 49.045 190.466 49.185 190.016 49.485C189.566 49.785 189.186 50.25 188.876 50.88H188.846V49.245H187.646ZM198.861 49.245V57H200.136V52.17C200.136 52.02 200.171 51.835 200.241 51.615C200.321 51.385 200.441 51.165 200.601 50.955C200.771 50.745 200.986 50.565 201.246 50.415C201.516 50.265 201.836 50.19 202.206 50.19C202.496 50.19 202.731 50.235 202.911 50.325C203.101 50.405 203.251 50.525 203.361 50.685C203.471 50.835 203.546 51.015 203.586 51.225C203.636 51.435 203.661 51.665 203.661 51.915V57H204.936V52.17C204.936 51.57 205.116 51.09 205.476 50.73C205.836 50.37 206.331 50.19 206.961 50.19C207.271 50.19 207.521 50.235 207.711 50.325C207.911 50.415 208.066 50.54 208.176 50.7C208.286 50.85 208.361 51.03 208.401 51.24C208.441 51.45 208.461 51.675 208.461 51.915V57H209.736V51.315C209.736 50.915 209.671 50.575 209.541 50.295C209.421 50.005 209.246 49.77 209.016 49.59C208.796 49.41 208.526 49.28 208.206 49.2C207.896 49.11 207.546 49.065 207.156 49.065C206.646 49.065 206.176 49.18 205.746 49.41C205.326 49.64 204.986 49.965 204.726 50.385C204.566 49.905 204.291 49.565 203.901 49.365C203.511 49.165 203.076 49.065 202.596 49.065C201.506 49.065 200.671 49.505 200.091 50.385H200.061V49.245H198.861ZM218.034 52.38H213.579C213.599 52.08 213.664 51.8 213.774 51.54C213.884 51.27 214.034 51.035 214.224 50.835C214.414 50.635 214.639 50.48 214.899 50.37C215.169 50.25 215.469 50.19 215.799 50.19C216.119 50.19 216.409 50.25 216.669 50.37C216.939 50.48 217.169 50.635 217.359 50.835C217.559 51.025 217.714 51.255 217.824 51.525C217.944 51.795 218.014 52.08 218.034 52.38ZM219.264 54.54H218.004C217.894 55.05 217.664 55.43 217.314 55.68C216.974 55.93 216.534 56.055 215.994 56.055C215.574 56.055 215.209 55.985 214.899 55.845C214.589 55.705 214.334 55.52 214.134 55.29C213.934 55.05 213.789 54.78 213.699 54.48C213.609 54.17 213.569 53.845 213.579 53.505H219.384C219.404 53.035 219.359 52.54 219.249 52.02C219.149 51.5 218.959 51.02 218.679 50.58C218.409 50.14 218.044 49.78 217.584 49.5C217.134 49.21 216.564 49.065 215.874 49.065C215.344 49.065 214.854 49.165 214.404 49.365C213.964 49.565 213.579 49.845 213.249 50.205C212.929 50.565 212.679 50.99 212.499 51.48C212.319 51.97 212.229 52.51 212.229 53.1C212.249 53.69 212.334 54.235 212.484 54.735C212.644 55.235 212.879 55.665 213.189 56.025C213.499 56.385 213.879 56.665 214.329 56.865C214.789 57.065 215.329 57.165 215.949 57.165C216.829 57.165 217.559 56.945 218.139 56.505C218.719 56.065 219.094 55.41 219.264 54.54ZM222.636 53.19C222.636 52.81 222.676 52.44 222.756 52.08C222.836 51.72 222.966 51.4 223.146 51.12C223.326 50.84 223.566 50.615 223.866 50.445C224.166 50.275 224.531 50.19 224.961 50.19C225.401 50.19 225.776 50.275 226.086 50.445C226.396 50.605 226.646 50.82 226.836 51.09C227.036 51.36 227.181 51.675 227.271 52.035C227.361 52.385 227.406 52.75 227.406 53.13C227.406 53.49 227.361 53.845 227.271 54.195C227.191 54.545 227.056 54.86 226.866 55.14C226.676 55.41 226.431 55.63 226.131 55.8C225.831 55.97 225.466 56.055 225.036 56.055C224.626 56.055 224.266 55.975 223.956 55.815C223.656 55.655 223.406 55.44 223.206 55.17C223.016 54.9 222.871 54.595 222.771 54.255C222.681 53.905 222.636 53.55 222.636 53.19ZM228.636 57V46.29H227.361V50.28H227.331C227.191 50.05 227.016 49.86 226.806 49.71C226.606 49.55 226.391 49.425 226.161 49.335C225.931 49.235 225.701 49.165 225.471 49.125C225.241 49.085 225.026 49.065 224.826 49.065C224.236 49.065 223.716 49.175 223.266 49.395C222.826 49.605 222.456 49.895 222.156 50.265C221.866 50.625 221.646 51.05 221.496 51.54C221.356 52.03 221.286 52.55 221.286 53.1C221.286 53.65 221.361 54.17 221.511 54.66C221.661 55.15 221.881 55.58 222.171 55.95C222.471 56.32 222.841 56.615 223.281 56.835C223.731 57.055 224.256 57.165 224.856 57.165C225.396 57.165 225.891 57.07 226.341 56.88C226.791 56.69 227.121 56.38 227.331 55.95H227.361V57H228.636ZM232.948 47.85V46.29H231.673V47.85H232.948ZM231.673 49.245V57H232.948V49.245H231.673ZM242.343 57V49.245H241.068V53.625C241.068 53.975 241.018 54.3 240.918 54.6C240.828 54.89 240.688 55.145 240.498 55.365C240.308 55.585 240.068 55.755 239.778 55.875C239.498 55.995 239.163 56.055 238.773 56.055C238.283 56.055 237.898 55.915 237.618 55.635C237.338 55.355 237.198 54.975 237.198 54.495V49.245H235.923V54.345C235.923 54.765 235.963 55.15 236.043 55.5C236.133 55.84 236.283 56.135 236.493 56.385C236.703 56.635 236.978 56.83 237.318 56.97C237.658 57.1 238.083 57.165 238.593 57.165C239.163 57.165 239.658 57.055 240.078 56.835C240.498 56.605 240.843 56.25 241.113 55.77H241.143V57H242.343ZM245.258 49.245V57H246.533V52.17C246.533 52.02 246.568 51.835 246.638 51.615C246.718 51.385 246.838 51.165 246.998 50.955C247.168 50.745 247.383 50.565 247.643 50.415C247.913 50.265 248.233 50.19 248.603 50.19C248.893 50.19 249.128 50.235 249.308 50.325C249.498 50.405 249.648 50.525 249.758 50.685C249.868 50.835 249.943 51.015 249.983 51.225C250.033 51.435 250.058 51.665 250.058 51.915V57H251.333V52.17C251.333 51.57 251.513 51.09 251.873 50.73C252.233 50.37 252.728 50.19 253.358 50.19C253.668 50.19 253.918 50.235 254.108 50.325C254.308 50.415 254.463 50.54 254.573 50.7C254.683 50.85 254.758 51.03 254.798 51.24C254.838 51.45 254.858 51.675 254.858 51.915V57H256.133V51.315C256.133 50.915 256.068 50.575 255.938 50.295C255.818 50.005 255.643 49.77 255.413 49.59C255.193 49.41 254.923 49.28 254.603 49.2C254.293 49.11 253.943 49.065 253.553 49.065C253.043 49.065 252.573 49.18 252.143 49.41C251.723 49.64 251.383 49.965 251.123 50.385C250.963 49.905 250.688 49.565 250.298 49.365C249.908 49.165 249.473 49.065 248.993 49.065C247.903 49.065 247.068 49.505 246.488 50.385H246.458V49.245H245.258ZM264.266 46.29V57H265.541V55.965H265.571C265.711 56.195 265.881 56.39 266.081 56.55C266.291 56.7 266.511 56.82 266.741 56.91C266.971 57 267.201 57.065 267.431 57.105C267.671 57.145 267.886 57.165 268.076 57.165C268.666 57.165 269.181 57.06 269.621 56.85C270.071 56.64 270.441 56.355 270.731 55.995C271.031 55.625 271.251 55.195 271.391 54.705C271.541 54.215 271.616 53.695 271.616 53.145C271.616 52.595 271.541 52.075 271.391 51.585C271.241 51.095 271.016 50.665 270.716 50.295C270.426 49.915 270.056 49.615 269.606 49.395C269.166 49.175 268.646 49.065 268.046 49.065C267.506 49.065 267.011 49.165 266.561 49.365C266.111 49.555 265.781 49.865 265.571 50.295H265.541V46.29H264.266ZM270.266 53.055C270.266 53.435 270.226 53.805 270.146 54.165C270.066 54.525 269.936 54.845 269.756 55.125C269.576 55.405 269.336 55.63 269.036 55.8C268.746 55.97 268.381 56.055 267.941 56.055C267.501 56.055 267.126 55.975 266.816 55.815C266.506 55.645 266.251 55.425 266.051 55.155C265.861 54.885 265.721 54.575 265.631 54.225C265.541 53.865 265.496 53.495 265.496 53.115C265.496 52.755 265.536 52.4 265.616 52.05C265.706 51.7 265.846 51.39 266.036 51.12C266.226 50.84 266.471 50.615 266.771 50.445C267.071 50.275 267.436 50.19 267.866 50.19C268.276 50.19 268.631 50.27 268.931 50.43C269.241 50.59 269.491 50.805 269.681 51.075C269.881 51.345 270.026 51.655 270.116 52.005C270.216 52.345 270.266 52.695 270.266 53.055ZM280.532 57V49.245H279.257V53.625C279.257 53.975 279.207 54.3 279.107 54.6C279.017 54.89 278.877 55.145 278.687 55.365C278.497 55.585 278.257 55.755 277.967 55.875C277.687 55.995 277.352 56.055 276.962 56.055C276.472 56.055 276.087 55.915 275.807 55.635C275.527 55.355 275.387 54.975 275.387 54.495V49.245H274.112V54.345C274.112 54.765 274.152 55.15 274.232 55.5C274.322 55.84 274.472 56.135 274.682 56.385C274.892 56.635 275.167 56.83 275.507 56.97C275.847 57.1 276.272 57.165 276.782 57.165C277.352 57.165 277.847 57.055 278.267 56.835C278.687 56.605 279.032 56.25 279.302 55.77H279.332V57H280.532ZM285.217 49.245V46.92H283.942V49.245H282.622V50.37H283.942V55.305C283.942 55.665 283.977 55.955 284.047 56.175C284.117 56.395 284.222 56.565 284.362 56.685C284.512 56.805 284.702 56.89 284.932 56.94C285.172 56.98 285.457 57 285.787 57H286.762V55.875H286.177C285.977 55.875 285.812 55.87 285.682 55.86C285.562 55.84 285.467 55.805 285.397 55.755C285.327 55.705 285.277 55.635 285.247 55.545C285.227 55.455 285.217 55.335 285.217 55.185V50.37H286.762V49.245H285.217ZM290.949 49.245V46.92H289.674V49.245H288.354V50.37H289.674V55.305C289.674 55.665 289.709 55.955 289.779 56.175C289.849 56.395 289.954 56.565 290.094 56.685C290.244 56.805 290.434 56.89 290.664 56.94C290.904 56.98 291.189 57 291.519 57H292.494V55.875H291.909C291.709 55.875 291.544 55.87 291.414 55.86C291.294 55.84 291.199 55.805 291.129 55.755C291.059 55.705 291.009 55.635 290.979 55.545C290.959 55.455 290.949 55.335 290.949 55.185V50.37H292.494V49.245H290.949ZM295.84 53.13C295.84 52.66 295.9 52.245 296.02 51.885C296.15 51.515 296.325 51.205 296.545 50.955C296.765 50.705 297.02 50.515 297.31 50.385C297.61 50.255 297.925 50.19 298.255 50.19C298.585 50.19 298.895 50.255 299.185 50.385C299.485 50.515 299.745 50.705 299.965 50.955C300.185 51.205 300.355 51.515 300.475 51.885C300.605 52.245 300.67 52.66 300.67 53.13C300.67 53.6 300.605 54.02 300.475 54.39C300.355 54.75 300.185 55.055 299.965 55.305C299.745 55.545 299.485 55.73 299.185 55.86C298.895 55.99 298.585 56.055 298.255 56.055C297.925 56.055 297.61 55.99 297.31 55.86C297.02 55.73 296.765 55.545 296.545 55.305C296.325 55.055 296.15 54.75 296.02 54.39C295.9 54.02 295.84 53.6 295.84 53.13ZM294.49 53.13C294.49 53.7 294.57 54.23 294.73 54.72C294.89 55.21 295.13 55.64 295.45 56.01C295.77 56.37 296.165 56.655 296.635 56.865C297.105 57.065 297.645 57.165 298.255 57.165C298.875 57.165 299.415 57.065 299.875 56.865C300.345 56.655 300.74 56.37 301.06 56.01C301.38 55.64 301.62 55.21 301.78 54.72C301.94 54.23 302.02 53.7 302.02 53.13C302.02 52.56 301.94 52.03 301.78 51.54C301.62 51.04 301.38 50.61 301.06 50.25C300.74 49.88 300.345 49.59 299.875 49.38C299.415 49.17 298.875 49.065 298.255 49.065C297.645 49.065 297.105 49.17 296.635 49.38C296.165 49.59 295.77 49.88 295.45 50.25C295.13 50.61 294.89 51.04 294.73 51.54C294.57 52.03 294.49 52.56 294.49 53.13ZM304.523 49.245V57H305.798V52.62C305.798 52.27 305.843 51.95 305.933 51.66C306.033 51.36 306.178 51.1 306.368 50.88C306.558 50.66 306.793 50.49 307.073 50.37C307.363 50.25 307.703 50.19 308.093 50.19C308.583 50.19 308.968 50.33 309.248 50.61C309.528 50.89 309.668 51.27 309.668 51.75V57H310.943V51.9C310.943 51.48 310.898 51.1 310.808 50.76C310.728 50.41 310.583 50.11 310.373 49.86C310.163 49.61 309.888 49.415 309.548 49.275C309.208 49.135 308.783 49.065 308.273 49.065C307.123 49.065 306.283 49.535 305.753 50.475H305.723V49.245H304.523ZM314.638 54.555H313.363C313.383 55.035 313.483 55.445 313.663 55.785C313.843 56.115 314.083 56.385 314.383 56.595C314.683 56.795 315.028 56.94 315.418 57.03C315.808 57.12 316.218 57.165 316.648 57.165C317.038 57.165 317.428 57.125 317.818 57.045C318.218 56.975 318.573 56.845 318.883 56.655C319.203 56.465 319.458 56.215 319.648 55.905C319.848 55.595 319.948 55.205 319.948 54.735C319.948 54.365 319.873 54.055 319.723 53.805C319.583 53.555 319.393 53.35 319.153 53.19C318.923 53.02 318.653 52.885 318.343 52.785C318.043 52.685 317.733 52.6 317.413 52.53C317.113 52.46 316.813 52.395 316.513 52.335C316.213 52.265 315.943 52.185 315.703 52.095C315.463 51.995 315.263 51.875 315.103 51.735C314.953 51.585 314.878 51.4 314.878 51.18C314.878 50.98 314.928 50.82 315.028 50.7C315.128 50.57 315.258 50.47 315.418 50.4C315.578 50.32 315.753 50.265 315.943 50.235C316.143 50.205 316.338 50.19 316.528 50.19C316.738 50.19 316.943 50.215 317.143 50.265C317.353 50.305 317.543 50.375 317.713 50.475C317.883 50.575 318.023 50.71 318.133 50.88C318.243 51.04 318.308 51.245 318.328 51.495H319.603C319.573 51.025 319.473 50.635 319.303 50.325C319.133 50.005 318.903 49.755 318.613 49.575C318.333 49.385 318.008 49.255 317.638 49.185C317.268 49.105 316.863 49.065 316.423 49.065C316.083 49.065 315.738 49.11 315.388 49.2C315.048 49.28 314.738 49.41 314.458 49.59C314.188 49.76 313.963 49.985 313.783 50.265C313.613 50.545 313.528 50.88 313.528 51.27C313.528 51.77 313.653 52.16 313.903 52.44C314.153 52.72 314.463 52.94 314.833 53.1C315.213 53.25 315.623 53.37 316.063 53.46C316.503 53.54 316.908 53.635 317.278 53.745C317.658 53.845 317.973 53.98 318.223 54.15C318.473 54.32 318.598 54.57 318.598 54.9C318.598 55.14 318.538 55.34 318.418 55.5C318.298 55.65 318.143 55.765 317.953 55.845C317.773 55.925 317.573 55.98 317.353 56.01C317.133 56.04 316.923 56.055 316.723 56.055C316.463 56.055 316.208 56.03 315.958 55.98C315.718 55.93 315.498 55.85 315.298 55.74C315.108 55.62 314.953 55.465 314.833 55.275C314.713 55.075 314.648 54.835 314.638 54.555ZM334.403 56.97C334.183 57.1 333.878 57.165 333.488 57.165C333.158 57.165 332.893 57.075 332.693 56.895C332.503 56.705 332.408 56.4 332.408 55.98C332.058 56.4 331.648 56.705 331.178 56.895C330.718 57.075 330.218 57.165 329.678 57.165C329.328 57.165 328.993 57.125 328.673 57.045C328.363 56.965 328.093 56.84 327.863 56.67C327.633 56.5 327.448 56.28 327.308 56.01C327.178 55.73 327.113 55.395 327.113 55.005C327.113 54.565 327.188 54.205 327.338 53.925C327.488 53.645 327.683 53.42 327.923 53.25C328.173 53.07 328.453 52.935 328.763 52.845C329.083 52.755 329.408 52.68 329.738 52.62C330.088 52.55 330.418 52.5 330.728 52.47C331.048 52.43 331.328 52.38 331.568 52.32C331.808 52.25 331.998 52.155 332.138 52.035C332.278 51.905 332.348 51.72 332.348 51.48C332.348 51.2 332.293 50.975 332.183 50.805C332.083 50.635 331.948 50.505 331.778 50.415C331.618 50.325 331.433 50.265 331.223 50.235C331.023 50.205 330.823 50.19 330.623 50.19C330.083 50.19 329.633 50.295 329.273 50.505C328.913 50.705 328.718 51.09 328.688 51.66H327.413C327.433 51.18 327.533 50.775 327.713 50.445C327.893 50.115 328.133 49.85 328.433 49.65C328.733 49.44 329.073 49.29 329.453 49.2C329.843 49.11 330.258 49.065 330.698 49.065C331.048 49.065 331.393 49.09 331.733 49.14C332.083 49.19 332.398 49.295 332.678 49.455C332.958 49.605 333.183 49.82 333.353 50.1C333.523 50.38 333.608 50.745 333.608 51.195V55.185C333.608 55.485 333.623 55.705 333.653 55.845C333.693 55.985 333.813 56.055 334.013 56.055C334.123 56.055 334.253 56.03 334.403 55.98V56.97ZM332.333 52.995C332.173 53.115 331.963 53.205 331.703 53.265C331.443 53.315 331.168 53.36 330.878 53.4C330.598 53.43 330.313 53.47 330.023 53.52C329.733 53.56 329.473 53.63 329.243 53.73C329.013 53.83 328.823 53.975 328.673 54.165C328.533 54.345 328.463 54.595 328.463 54.915C328.463 55.125 328.503 55.305 328.583 55.455C328.673 55.595 328.783 55.71 328.913 55.8C329.053 55.89 329.213 55.955 329.393 55.995C329.573 56.035 329.763 56.055 329.963 56.055C330.383 56.055 330.743 56 331.043 55.89C331.343 55.77 331.588 55.625 331.778 55.455C331.968 55.275 332.108 55.085 332.198 54.885C332.288 54.675 332.333 54.48 332.333 54.3V52.995ZM336.59 49.245V57H337.865V52.62C337.865 52.27 337.91 51.95 338 51.66C338.1 51.36 338.245 51.1 338.435 50.88C338.625 50.66 338.86 50.49 339.14 50.37C339.43 50.25 339.77 50.19 340.16 50.19C340.65 50.19 341.035 50.33 341.315 50.61C341.595 50.89 341.735 51.27 341.735 51.75V57H343.01V51.9C343.01 51.48 342.965 51.1 342.875 50.76C342.795 50.41 342.65 50.11 342.44 49.86C342.23 49.61 341.955 49.415 341.615 49.275C341.275 49.135 340.85 49.065 340.34 49.065C339.19 49.065 338.35 49.535 337.82 50.475H337.79V49.245H336.59ZM346.855 53.19C346.855 52.81 346.895 52.44 346.975 52.08C347.055 51.72 347.185 51.4 347.365 51.12C347.545 50.84 347.785 50.615 348.085 50.445C348.385 50.275 348.75 50.19 349.18 50.19C349.62 50.19 349.995 50.275 350.305 50.445C350.615 50.605 350.865 50.82 351.055 51.09C351.255 51.36 351.4 51.675 351.49 52.035C351.58 52.385 351.625 52.75 351.625 53.13C351.625 53.49 351.58 53.845 351.49 54.195C351.41 54.545 351.275 54.86 351.085 55.14C350.895 55.41 350.65 55.63 350.35 55.8C350.05 55.97 349.685 56.055 349.255 56.055C348.845 56.055 348.485 55.975 348.175 55.815C347.875 55.655 347.625 55.44 347.425 55.17C347.235 54.9 347.09 54.595 346.99 54.255C346.9 53.905 346.855 53.55 346.855 53.19ZM352.855 57V46.29H351.58V50.28H351.55C351.41 50.05 351.235 49.86 351.025 49.71C350.825 49.55 350.61 49.425 350.38 49.335C350.15 49.235 349.92 49.165 349.69 49.125C349.46 49.085 349.245 49.065 349.045 49.065C348.455 49.065 347.935 49.175 347.485 49.395C347.045 49.605 346.675 49.895 346.375 50.265C346.085 50.625 345.865 51.05 345.715 51.54C345.575 52.03 345.505 52.55 345.505 53.1C345.505 53.65 345.58 54.17 345.73 54.66C345.88 55.15 346.1 55.58 346.39 55.95C346.69 56.32 347.06 56.615 347.5 56.835C347.95 57.055 348.475 57.165 349.075 57.165C349.615 57.165 350.11 57.07 350.56 56.88C351.01 56.69 351.34 56.38 351.55 55.95H351.58V57H352.855ZM113.89 79.19C113.89 78.81 113.93 78.44 114.01 78.08C114.09 77.72 114.22 77.4 114.4 77.12C114.58 76.84 114.82 76.615 115.12 76.445C115.42 76.275 115.785 76.19 116.215 76.19C116.655 76.19 117.03 76.275 117.34 76.445C117.65 76.605 117.9 76.82 118.09 77.09C118.29 77.36 118.435 77.675 118.525 78.035C118.615 78.385 118.66 78.75 118.66 79.13C118.66 79.49 118.615 79.845 118.525 80.195C118.445 80.545 118.31 80.86 118.12 81.14C117.93 81.41 117.685 81.63 117.385 81.8C117.085 81.97 116.72 82.055 116.29 82.055C115.88 82.055 115.52 81.975 115.21 81.815C114.91 81.655 114.66 81.44 114.46 81.17C114.27 80.9 114.125 80.595 114.025 80.255C113.935 79.905 113.89 79.55 113.89 79.19ZM119.89 83V72.29H118.615V76.28H118.585C118.445 76.05 118.27 75.86 118.06 75.71C117.86 75.55 117.645 75.425 117.415 75.335C117.185 75.235 116.955 75.165 116.725 75.125C116.495 75.085 116.28 75.065 116.08 75.065C115.49 75.065 114.97 75.175 114.52 75.395C114.08 75.605 113.71 75.895 113.41 76.265C113.12 76.625 112.9 77.05 112.75 77.54C112.61 78.03 112.54 78.55 112.54 79.1C112.54 79.65 112.615 80.17 112.765 80.66C112.915 81.15 113.135 81.58 113.425 81.95C113.725 82.32 114.095 82.615 114.535 82.835C114.985 83.055 115.51 83.165 116.11 83.165C116.65 83.165 117.145 83.07 117.595 82.88C118.045 82.69 118.375 82.38 118.585 81.95H118.615V83H119.89ZM122.807 75.245V83H124.082V79.55C124.082 79.05 124.132 78.61 124.232 78.23C124.332 77.84 124.492 77.51 124.712 77.24C124.932 76.97 125.222 76.765 125.582 76.625C125.942 76.485 126.377 76.415 126.887 76.415V75.065C126.197 75.045 125.627 75.185 125.177 75.485C124.727 75.785 124.347 76.25 124.037 76.88H124.007V75.245H122.807ZM129.513 79.13C129.513 78.66 129.573 78.245 129.693 77.885C129.823 77.515 129.998 77.205 130.218 76.955C130.438 76.705 130.693 76.515 130.983 76.385C131.283 76.255 131.598 76.19 131.928 76.19C132.258 76.19 132.568 76.255 132.858 76.385C133.158 76.515 133.418 76.705 133.638 76.955C133.858 77.205 134.028 77.515 134.148 77.885C134.278 78.245 134.343 78.66 134.343 79.13C134.343 79.6 134.278 80.02 134.148 80.39C134.028 80.75 133.858 81.055 133.638 81.305C133.418 81.545 133.158 81.73 132.858 81.86C132.568 81.99 132.258 82.055 131.928 82.055C131.598 82.055 131.283 81.99 130.983 81.86C130.693 81.73 130.438 81.545 130.218 81.305C129.998 81.055 129.823 80.75 129.693 80.39C129.573 80.02 129.513 79.6 129.513 79.13ZM128.163 79.13C128.163 79.7 128.243 80.23 128.403 80.72C128.563 81.21 128.803 81.64 129.123 82.01C129.443 82.37 129.838 82.655 130.308 82.865C130.778 83.065 131.318 83.165 131.928 83.165C132.548 83.165 133.088 83.065 133.548 82.865C134.018 82.655 134.413 82.37 134.733 82.01C135.053 81.64 135.293 81.21 135.453 80.72C135.613 80.23 135.693 79.7 135.693 79.13C135.693 78.56 135.613 78.03 135.453 77.54C135.293 77.04 135.053 76.61 134.733 76.25C134.413 75.88 134.018 75.59 133.548 75.38C133.088 75.17 132.548 75.065 131.928 75.065C131.318 75.065 130.778 75.17 130.308 75.38C129.838 75.59 129.443 75.88 129.123 76.25C128.803 76.61 128.563 77.04 128.403 77.54C128.243 78.03 128.163 78.56 128.163 79.13ZM138.241 75.245V85.955H139.516V81.965H139.546C139.686 82.195 139.856 82.39 140.056 82.55C140.266 82.7 140.486 82.82 140.716 82.91C140.946 83 141.176 83.065 141.406 83.105C141.646 83.145 141.861 83.165 142.051 83.165C142.641 83.165 143.156 83.06 143.596 82.85C144.046 82.64 144.416 82.355 144.706 81.995C145.006 81.625 145.226 81.195 145.366 80.705C145.516 80.215 145.591 79.695 145.591 79.145C145.591 78.595 145.516 78.075 145.366 77.585C145.216 77.095 144.991 76.665 144.691 76.295C144.401 75.915 144.031 75.615 143.581 75.395C143.141 75.175 142.621 75.065 142.021 75.065C141.481 75.065 140.986 75.165 140.536 75.365C140.086 75.555 139.756 75.865 139.546 76.295H139.516V75.245H138.241ZM144.241 79.055C144.241 79.435 144.201 79.805 144.121 80.165C144.041 80.525 143.911 80.845 143.731 81.125C143.551 81.405 143.311 81.63 143.011 81.8C142.721 81.97 142.356 82.055 141.916 82.055C141.476 82.055 141.101 81.975 140.791 81.815C140.481 81.645 140.226 81.425 140.026 81.155C139.836 80.885 139.696 80.575 139.606 80.225C139.516 79.865 139.471 79.495 139.471 79.115C139.471 78.755 139.511 78.4 139.591 78.05C139.681 77.7 139.821 77.39 140.011 77.12C140.201 76.84 140.446 76.615 140.746 76.445C141.046 76.275 141.411 76.19 141.841 76.19C142.251 76.19 142.606 76.27 142.906 76.43C143.216 76.59 143.466 76.805 143.656 77.075C143.856 77.345 144.001 77.655 144.091 78.005C144.191 78.345 144.241 78.695 144.241 79.055ZM149.018 79.19C149.018 78.81 149.058 78.44 149.138 78.08C149.218 77.72 149.348 77.4 149.528 77.12C149.708 76.84 149.948 76.615 150.248 76.445C150.548 76.275 150.913 76.19 151.343 76.19C151.783 76.19 152.158 76.275 152.468 76.445C152.778 76.605 153.028 76.82 153.218 77.09C153.418 77.36 153.563 77.675 153.653 78.035C153.743 78.385 153.788 78.75 153.788 79.13C153.788 79.49 153.743 79.845 153.653 80.195C153.573 80.545 153.438 80.86 153.248 81.14C153.058 81.41 152.813 81.63 152.513 81.8C152.213 81.97 151.848 82.055 151.418 82.055C151.008 82.055 150.648 81.975 150.338 81.815C150.038 81.655 149.788 81.44 149.588 81.17C149.398 80.9 149.253 80.595 149.153 80.255C149.063 79.905 149.018 79.55 149.018 79.19ZM155.018 83V72.29H153.743V76.28H153.713C153.573 76.05 153.398 75.86 153.188 75.71C152.988 75.55 152.773 75.425 152.543 75.335C152.313 75.235 152.083 75.165 151.853 75.125C151.623 75.085 151.408 75.065 151.208 75.065C150.618 75.065 150.098 75.175 149.648 75.395C149.208 75.605 148.838 75.895 148.538 76.265C148.248 76.625 148.028 77.05 147.878 77.54C147.738 78.03 147.668 78.55 147.668 79.1C147.668 79.65 147.743 80.17 147.893 80.66C148.043 81.15 148.263 81.58 148.553 81.95C148.853 82.32 149.223 82.615 149.663 82.835C150.113 83.055 150.638 83.165 151.238 83.165C151.778 83.165 152.273 83.07 152.723 82.88C153.173 82.69 153.503 82.38 153.713 81.95H153.743V83H155.018ZM158.91 79.13C158.91 78.66 158.97 78.245 159.09 77.885C159.22 77.515 159.395 77.205 159.615 76.955C159.835 76.705 160.09 76.515 160.38 76.385C160.68 76.255 160.995 76.19 161.325 76.19C161.655 76.19 161.965 76.255 162.255 76.385C162.555 76.515 162.815 76.705 163.035 76.955C163.255 77.205 163.425 77.515 163.545 77.885C163.675 78.245 163.74 78.66 163.74 79.13C163.74 79.6 163.675 80.02 163.545 80.39C163.425 80.75 163.255 81.055 163.035 81.305C162.815 81.545 162.555 81.73 162.255 81.86C161.965 81.99 161.655 82.055 161.325 82.055C160.995 82.055 160.68 81.99 160.38 81.86C160.09 81.73 159.835 81.545 159.615 81.305C159.395 81.055 159.22 80.75 159.09 80.39C158.97 80.02 158.91 79.6 158.91 79.13ZM157.56 79.13C157.56 79.7 157.64 80.23 157.8 80.72C157.96 81.21 158.2 81.64 158.52 82.01C158.84 82.37 159.235 82.655 159.705 82.865C160.175 83.065 160.715 83.165 161.325 83.165C161.945 83.165 162.485 83.065 162.945 82.865C163.415 82.655 163.81 82.37 164.13 82.01C164.45 81.64 164.69 81.21 164.85 80.72C165.01 80.23 165.09 79.7 165.09 79.13C165.09 78.56 165.01 78.03 164.85 77.54C164.69 77.04 164.45 76.61 164.13 76.25C163.81 75.88 163.415 75.59 162.945 75.38C162.485 75.17 161.945 75.065 161.325 75.065C160.715 75.065 160.175 75.17 159.705 75.38C159.235 75.59 158.84 75.88 158.52 76.25C158.2 76.61 157.96 77.04 157.8 77.54C157.64 78.03 157.56 78.56 157.56 79.13ZM175.273 83L177.748 75.245H176.428L174.688 81.59H174.658L173.038 75.245H171.643L170.083 81.59H170.053L168.298 75.245H166.888L169.378 83H170.758L172.318 76.835H172.348L173.923 83H175.273ZM179.96 75.245V83H181.235V78.62C181.235 78.27 181.28 77.95 181.37 77.66C181.47 77.36 181.615 77.1 181.805 76.88C181.995 76.66 182.23 76.49 182.51 76.37C182.8 76.25 183.14 76.19 183.53 76.19C184.02 76.19 184.405 76.33 184.685 76.61C184.965 76.89 185.105 77.27 185.105 77.75V83H186.38V77.9C186.38 77.48 186.335 77.1 186.245 76.76C186.165 76.41 186.02 76.11 185.81 75.86C185.6 75.61 185.325 75.415 184.985 75.275C184.645 75.135 184.22 75.065 183.71 75.065C182.56 75.065 181.72 75.535 181.19 76.475H181.16V75.245H179.96ZM194.47 75.245V83H195.745V78.17C195.745 78.02 195.78 77.835 195.85 77.615C195.93 77.385 196.05 77.165 196.21 76.955C196.38 76.745 196.595 76.565 196.855 76.415C197.125 76.265 197.445 76.19 197.815 76.19C198.105 76.19 198.34 76.235 198.52 76.325C198.71 76.405 198.86 76.525 198.97 76.685C199.08 76.835 199.155 77.015 199.195 77.225C199.245 77.435 199.27 77.665 199.27 77.915V83H200.545V78.17C200.545 77.57 200.725 77.09 201.085 76.73C201.445 76.37 201.94 76.19 202.57 76.19C202.88 76.19 203.13 76.235 203.32 76.325C203.52 76.415 203.675 76.54 203.785 76.7C203.895 76.85 203.97 77.03 204.01 77.24C204.05 77.45 204.07 77.675 204.07 77.915V83H205.345V77.315C205.345 76.915 205.28 76.575 205.15 76.295C205.03 76.005 204.855 75.77 204.625 75.59C204.405 75.41 204.135 75.28 203.815 75.2C203.505 75.11 203.155 75.065 202.765 75.065C202.255 75.065 201.785 75.18 201.355 75.41C200.935 75.64 200.595 75.965 200.335 76.385C200.175 75.905 199.9 75.565 199.51 75.365C199.12 75.165 198.685 75.065 198.205 75.065C197.115 75.065 196.28 75.505 195.7 76.385H195.67V75.245H194.47ZM213.643 78.38H209.188C209.208 78.08 209.273 77.8 209.383 77.54C209.493 77.27 209.643 77.035 209.833 76.835C210.023 76.635 210.248 76.48 210.508 76.37C210.778 76.25 211.078 76.19 211.408 76.19C211.728 76.19 212.018 76.25 212.278 76.37C212.548 76.48 212.778 76.635 212.968 76.835C213.168 77.025 213.323 77.255 213.433 77.525C213.553 77.795 213.623 78.08 213.643 78.38ZM214.873 80.54H213.613C213.503 81.05 213.273 81.43 212.923 81.68C212.583 81.93 212.143 82.055 211.603 82.055C211.183 82.055 210.818 81.985 210.508 81.845C210.198 81.705 209.943 81.52 209.743 81.29C209.543 81.05 209.398 80.78 209.308 80.48C209.218 80.17 209.178 79.845 209.188 79.505H214.993C215.013 79.035 214.968 78.54 214.858 78.02C214.758 77.5 214.568 77.02 214.288 76.58C214.018 76.14 213.653 75.78 213.193 75.5C212.743 75.21 212.173 75.065 211.483 75.065C210.953 75.065 210.463 75.165 210.013 75.365C209.573 75.565 209.188 75.845 208.858 76.205C208.538 76.565 208.288 76.99 208.108 77.48C207.928 77.97 207.838 78.51 207.838 79.1C207.858 79.69 207.943 80.235 208.093 80.735C208.253 81.235 208.488 81.665 208.798 82.025C209.108 82.385 209.488 82.665 209.938 82.865C210.398 83.065 210.938 83.165 211.558 83.165C212.438 83.165 213.168 82.945 213.748 82.505C214.328 82.065 214.703 81.41 214.873 80.54ZM217.314 75.245V83H218.589V78.62C218.589 78.27 218.634 77.95 218.724 77.66C218.824 77.36 218.969 77.1 219.159 76.88C219.349 76.66 219.584 76.49 219.864 76.37C220.154 76.25 220.494 76.19 220.884 76.19C221.374 76.19 221.759 76.33 222.039 76.61C222.319 76.89 222.459 77.27 222.459 77.75V83H223.734V77.9C223.734 77.48 223.689 77.1 223.599 76.76C223.519 76.41 223.374 76.11 223.164 75.86C222.954 75.61 222.679 75.415 222.339 75.275C221.999 75.135 221.574 75.065 221.064 75.065C219.914 75.065 219.074 75.535 218.544 76.475H218.514V75.245H217.314ZM233.069 83V75.245H231.794V79.625C231.794 79.975 231.744 80.3 231.644 80.6C231.554 80.89 231.414 81.145 231.224 81.365C231.034 81.585 230.794 81.755 230.504 81.875C230.224 81.995 229.889 82.055 229.499 82.055C229.009 82.055 228.624 81.915 228.344 81.635C228.064 81.355 227.924 80.975 227.924 80.495V75.245H226.649V80.345C226.649 80.765 226.689 81.15 226.769 81.5C226.859 81.84 227.009 82.135 227.219 82.385C227.429 82.635 227.704 82.83 228.044 82.97C228.384 83.1 228.809 83.165 229.319 83.165C229.889 83.165 230.384 83.055 230.804 82.835C231.224 82.605 231.569 82.25 231.839 81.77H231.869V83H233.069ZM236.764 80.555H235.489C235.509 81.035 235.609 81.445 235.789 81.785C235.969 82.115 236.209 82.385 236.509 82.595C236.809 82.795 237.154 82.94 237.544 83.03C237.934 83.12 238.344 83.165 238.774 83.165C239.164 83.165 239.554 83.125 239.944 83.045C240.344 82.975 240.699 82.845 241.009 82.655C241.329 82.465 241.584 82.215 241.774 81.905C241.974 81.595 242.074 81.205 242.074 80.735C242.074 80.365 241.999 80.055 241.849 79.805C241.709 79.555 241.519 79.35 241.279 79.19C241.049 79.02 240.779 78.885 240.469 78.785C240.169 78.685 239.859 78.6 239.539 78.53C239.239 78.46 238.939 78.395 238.639 78.335C238.339 78.265 238.069 78.185 237.829 78.095C237.589 77.995 237.389 77.875 237.229 77.735C237.079 77.585 237.004 77.4 237.004 77.18C237.004 76.98 237.054 76.82 237.154 76.7C237.254 76.57 237.384 76.47 237.544 76.4C237.704 76.32 237.879 76.265 238.069 76.235C238.269 76.205 238.464 76.19 238.654 76.19C238.864 76.19 239.069 76.215 239.269 76.265C239.479 76.305 239.669 76.375 239.839 76.475C240.009 76.575 240.149 76.71 240.259 76.88C240.369 77.04 240.434 77.245 240.454 77.495H241.729C241.699 77.025 241.599 76.635 241.429 76.325C241.259 76.005 241.029 75.755 240.739 75.575C240.459 75.385 240.134 75.255 239.764 75.185C239.394 75.105 238.989 75.065 238.549 75.065C238.209 75.065 237.864 75.11 237.514 75.2C237.174 75.28 236.864 75.41 236.584 75.59C236.314 75.76 236.089 75.985 235.909 76.265C235.739 76.545 235.654 76.88 235.654 77.27C235.654 77.77 235.779 78.16 236.029 78.44C236.279 78.72 236.589 78.94 236.959 79.1C237.339 79.25 237.749 79.37 238.189 79.46C238.629 79.54 239.034 79.635 239.404 79.745C239.784 79.845 240.099 79.98 240.349 80.15C240.599 80.32 240.724 80.57 240.724 80.9C240.724 81.14 240.664 81.34 240.544 81.5C240.424 81.65 240.269 81.765 240.079 81.845C239.899 81.925 239.699 81.98 239.479 82.01C239.259 82.04 239.049 82.055 238.849 82.055C238.589 82.055 238.334 82.03 238.084 81.98C237.844 81.93 237.624 81.85 237.424 81.74C237.234 81.62 237.079 81.465 236.959 81.275C236.839 81.075 236.774 80.835 236.764 80.555Z" fill="#333333"/>
</svg>
