<svg width="24" height="24" viewBox="0 0 24 24" fill="none" xmlns="http://www.w3.org/2000/svg">
<path d="M20.6719 4.92188L16.0781 0.328125C15.8438 0.140625 15.5625 0 15.2812 0H15V6H21V5.71875C21 5.4375 20.8594 5.15625 20.6719 4.92188ZM9 15.75C8.15625 15.75 7.5 16.3594 7.5 17.0156C7.5 17.7188 8.15625 18.2812 9 18.2812C9.84375 18.2812 10.5 17.7188 10.5 17.0156C10.5 16.3594 9.84375 15.75 9 15.75ZM13.5 6.375V0H10.5V1.5H9V0H4.125C3.46875 0 3 0.515625 3 1.125V22.875C3 23.5312 3.46875 24 4.125 24H19.875C20.4844 24 21 23.5312 21 22.875V7.5H14.625C13.9688 7.5 13.5 7.03125 13.5 6.375ZM7.45312 1.5H8.95312V3H7.45312V1.5ZM9 19.5C7.45312 19.5 6.28125 18.0938 6.5625 16.5938L7.5 12V10.5H9V9H7.5V7.5H9V6H7.5V4.5H9V3H10.5V4.5H9V6H10.5V7.5H9V9H10.5V10.5H9V12H10.0312C10.3125 12 10.5469 12.2344 10.5938 12.4688L11.3906 16.5938C11.7188 18.0938 10.5469 19.5 9 19.5Z" fill="#333333"/>
</svg>
