<svg width="24" height="24" viewBox="0 0 24 24" fill="none" xmlns="http://www.w3.org/2000/svg">
<path d="M13.5 6.375V0H4.125C3.46875 0 3 0.515625 3 1.125V22.875C3 23.5312 3.46875 24 4.125 24H19.875C20.4844 24 21 23.5312 21 22.875V7.5H14.625C13.9688 7.5 13.5 7.03125 13.5 6.375ZM9 13.125C9 13.3594 8.8125 13.5 8.625 13.5H8.25C7.82812 13.5 7.5 13.875 7.5 14.25V15.75C7.5 16.1719 7.82812 16.5 8.25 16.5H8.625C8.8125 16.5 9 16.6875 9 16.875V17.625C9 17.8594 8.8125 18 8.625 18H8.25C6.98438 18 6 17.0156 6 15.75V14.25C6 13.0312 6.98438 12 8.25 12H8.625C8.8125 12 9 12.1875 9 12.375V13.125ZM11.0625 18H10.5C10.2656 18 10.125 17.8594 10.125 17.625V16.875C10.125 16.6875 10.2656 16.5 10.5 16.5H11.0625C11.3438 16.5 11.5312 16.3594 11.5312 16.2188C11.5312 16.1719 11.4844 16.0781 11.4375 16.0312L10.4062 15.1406C10.0312 14.8125 9.79688 14.3438 9.79688 13.8281C9.79688 12.8438 10.6875 12.0469 11.7656 12.0469H12.375C12.5625 12.0469 12.75 12.1875 12.75 12.4219V13.1719C12.75 13.3594 12.5625 13.5469 12.375 13.5469H11.7656C11.4844 13.5469 11.2969 13.6875 11.2969 13.8281C11.2969 13.875 11.3438 13.9688 11.3906 14.0156L12.4219 14.9062C12.7969 15.2344 13.0312 15.7031 13.0312 16.2188C13.0312 17.2031 12.1406 18 11.0625 18ZM15 12.375V13.3594C15 14.3438 15.2344 15.2344 15.75 16.0312C16.2188 15.2344 16.5 14.3438 16.5 13.3594V12.375C16.5 12.1875 16.6406 12 16.875 12H17.625C17.8125 12 18 12.1875 18 12.375V13.3594C18 15.0469 17.3906 16.5938 16.2656 17.7656C16.125 17.9531 15.9375 18 15.75 18C15.5156 18 15.3281 17.9531 15.1875 17.7656C14.0625 16.5938 13.5 15.0469 13.5 13.3594V12.375C13.5 12.1875 13.6406 12 13.875 12H14.625C14.8125 12 15 12.1875 15 12.375ZM20.6719 4.92188L16.0781 0.328125C15.8438 0.140625 15.5625 0 15.2812 0H15V6H21V5.71875C21 5.4375 20.8594 5.15625 20.6719 4.92188Z" fill="black"/>
</svg>
