<svg width="24" height="24" viewBox="0 0 24 24" fill="none" xmlns="http://www.w3.org/2000/svg">
<path d="M13.5 6.375V0H4.125C3.46875 0 3 0.515625 3 1.125V22.875C3 23.5312 3.46875 24 4.125 24H19.875C20.4844 24 21 23.5312 21 22.875V7.5H14.625C13.9688 7.5 13.5 7.03125 13.5 6.375ZM16.3125 11.3906L13.5 15.75L16.3125 20.1562C16.5469 20.5312 16.2656 21 15.8438 21H14.2031C13.9688 21 13.7812 20.9062 13.6875 20.7188C12.75 19.0312 12 17.4844 12 17.4844C11.6719 18.1875 11.5312 18.4219 10.2656 20.7188C10.1719 20.9062 9.98438 21.0469 9.75 21.0469H8.15625C7.6875 21.0469 7.40625 20.5312 7.64062 20.1562L10.5 15.7969L7.64062 11.3906C7.40625 11.0156 7.6875 10.5469 8.15625 10.5469H9.75C9.98438 10.5469 10.1719 10.6406 10.2656 10.8281C11.4844 13.125 11.2031 12.375 12 14.0156C12 14.0156 12.2812 13.5 13.6875 10.8281C13.7812 10.6406 13.9688 10.5469 14.2031 10.5469H15.8438C16.2656 10.5 16.5469 11.0156 16.3125 11.3906ZM21 5.71875C21 5.4375 20.8594 5.15625 20.6719 4.92188L16.0781 0.328125C15.8438 0.140625 15.5625 0 15.2812 0H15V6H21V5.71875Z" fill="#333333"/>
</svg>
