<svg width="24" height="24" viewBox="0 0 24 24" fill="none" xmlns="http://www.w3.org/2000/svg">
<path d="M11.4844 12.0469C11.7656 11.5781 11.8125 9.84375 11.3906 9.84375C11.2969 9.84375 11.25 11.2969 11.4844 12.0469ZM11.4375 14.25C11.0625 15.1875 10.5938 16.2656 10.0781 17.1562C10.9688 16.8281 11.9062 16.3594 13.0312 16.1719C12.4688 15.7031 11.8594 15.0469 11.4375 14.25ZM7.03125 20.1094C7.03125 20.1094 7.64062 19.8281 8.67188 18.1875C8.34375 18.5156 7.26562 19.3594 7.03125 20.1094ZM14.625 7.5C13.9688 7.5 13.5 7.03125 13.5 6.375V0H4.125C3.46875 0 3 0.515625 3 1.125V22.875C3 23.5312 3.46875 24 4.125 24H19.875C20.4844 24 21 23.5312 21 22.875V7.5H14.625ZM14.25 15.5625C15.1406 15.4688 17.0156 15.2812 17.6719 15.8906C18.2344 16.4531 18.1406 17.9531 16.7344 17.9531C15.9844 17.9531 14.7656 17.5781 13.7344 17.0156C12.6094 17.2031 11.25 17.7188 10.0312 18.1406C8.85938 20.1562 8.01562 21 7.17188 21C6.9375 21 6.42188 20.8594 6.1875 20.5312C5.29688 19.4531 7.45312 18 8.71875 17.3438C8.71875 17.3438 8.71875 17.3438 8.76562 17.3438C9.32812 16.3594 10.125 14.625 10.6406 13.3125C10.2656 11.8125 10.0312 10.5938 10.2656 9.70312C10.5469 8.8125 12.2812 8.67188 12.5156 10.0312C12.75 10.875 12.4219 12.1875 12.2344 13.0312C12.6562 14.2031 13.3125 15 14.25 15.5625ZM20.6719 4.92188L16.0781 0.328125C15.8438 0.140625 15.5625 0 15.2812 0H15V6H21V5.71875C21 5.4375 20.8594 5.15625 20.6719 4.92188ZM17.1562 16.9219C17.3906 16.7812 17.0625 16.3594 15.1875 16.5C16.9219 17.25 17.1562 16.9219 17.1562 16.9219Z" fill="#333333"/>
</svg>
