<svg width="24" height="24" viewBox="0 0 24 24" fill="none" xmlns="http://www.w3.org/2000/svg">
<path d="M13.5 6.375V0H4.125C3.46875 0 3 0.515625 3 1.125V22.875C3 23.5312 3.46875 24 4.125 24H19.875C20.4844 24 21 23.5312 21 22.875V7.5H14.625C13.9688 7.5 13.5 7.03125 13.5 6.375ZM16.5 17.4375C16.5 17.7656 16.2188 18 15.9375 18H8.0625C7.73438 18 7.5 17.7656 7.5 17.4375V17.0625C7.5 16.7812 7.73438 16.5 8.0625 16.5H15.9375C16.2188 16.5 16.5 16.7812 16.5 17.0625V17.4375ZM16.5 14.4375C16.5 14.7656 16.2188 15 15.9375 15H8.0625C7.73438 15 7.5 14.7656 7.5 14.4375V14.0625C7.5 13.7812 7.73438 13.5 8.0625 13.5H15.9375C16.2188 13.5 16.5 13.7812 16.5 14.0625V14.4375ZM16.5 11.0625V11.4375C16.5 11.7656 16.2188 12 15.9375 12H8.0625C7.73438 12 7.5 11.7656 7.5 11.4375V11.0625C7.5 10.7812 7.73438 10.5 8.0625 10.5H15.9375C16.2188 10.5 16.5 10.7812 16.5 11.0625ZM21 5.71875C21 5.4375 20.8594 5.15625 20.6719 4.92188L16.0781 0.328125C15.8438 0.140625 15.5625 0 15.2812 0H15V6H21V5.71875Z" fill="black"/>
</svg>
