<svg width="24" height="24" viewBox="0 0 24 24" fill="none" xmlns="http://www.w3.org/2000/svg">
<path d="M9.37423 2.80981H6.74846C6.00996 2.80981 5.43558 3.42523 5.43558 4.1227V6.74847C5.43558 7.48696 6.00996 8.06135 6.74846 8.06135H9.37423C10.0717 8.06135 10.6871 7.48696 10.6871 6.74847V4.1227C10.6871 3.42523 10.0717 2.80981 9.37423 2.80981ZM9.37423 9.37423H6.74846C6.00996 9.37423 5.43558 9.98965 5.43558 10.6871V13.3129C5.43558 14.0514 6.00996 14.6258 6.74846 14.6258H9.37423C10.0717 14.6258 10.6871 14.0514 10.6871 13.3129V10.6871C10.6871 9.98965 10.0717 9.37423 9.37423 9.37423ZM9.37423 15.9387H6.74846C6.00996 15.9387 5.43558 16.5541 5.43558 17.2515V19.8773C5.43558 20.6158 6.00996 21.1902 6.74846 21.1902H9.37423C10.0717 21.1902 10.6871 20.6158 10.6871 19.8773V17.2515C10.6871 16.5541 10.0717 15.9387 9.37423 15.9387ZM17.2515 2.80981H14.6258C13.8873 2.80981 13.3129 3.42523 13.3129 4.1227V6.74847C13.3129 7.48696 13.8873 8.06135 14.6258 8.06135H17.2515C17.949 8.06135 18.5644 7.48696 18.5644 6.74847V4.1227C18.5644 3.42523 17.949 2.80981 17.2515 2.80981ZM17.2515 9.37423H14.6258C13.8873 9.37423 13.3129 9.98965 13.3129 10.6871V13.3129C13.3129 14.0514 13.8873 14.6258 14.6258 14.6258H17.2515C17.949 14.6258 18.5644 14.0514 18.5644 13.3129V10.6871C18.5644 9.98965 17.949 9.37423 17.2515 9.37423ZM17.2515 15.9387H14.6258C13.8873 15.9387 13.3129 16.5541 13.3129 17.2515V19.8773C13.3129 20.6158 13.8873 21.1902 14.6258 21.1902H17.2515C17.949 21.1902 18.5644 20.6158 18.5644 19.8773V17.2515C18.5644 16.5541 17.949 15.9387 17.2515 15.9387Z" fill="#333333"/>
</svg>
