<svg width="24" height="24" viewBox="0 0 24 24" fill="none" xmlns="http://www.w3.org/2000/svg">
<path d="M12 0C5.37097 0 0 5.41935 0 12C0 18.629 5.37097 24 12 24C18.5806 24 24 18.629 24 12C24 5.41935 18.5806 0 12 0ZM12 21.6774C6.62903 21.6774 2.32258 17.371 2.32258 12C2.32258 6.67742 6.62903 2.32258 12 2.32258C17.3226 2.32258 21.6774 6.67742 21.6774 12C21.6774 17.371 17.3226 21.6774 12 21.6774ZM12 5.32258C10.8387 5.32258 9.96774 6.24194 9.96774 7.35484C9.96774 8.51613 10.8387 9.3871 12 9.3871C13.1129 9.3871 14.0323 8.51613 14.0323 7.35484C14.0323 6.24194 13.1129 5.32258 12 5.32258ZM14.7097 17.6129V16.4516C14.7097 16.1613 14.4194 15.871 14.129 15.871H13.5484V11.0323C13.5484 10.7419 13.2581 10.4516 12.9677 10.4516H9.87097C9.53226 10.4516 9.29032 10.7419 9.29032 11.0323V12.1935C9.29032 12.5323 9.53226 12.7742 9.87097 12.7742H10.4516V15.871H9.87097C9.53226 15.871 9.29032 16.1613 9.29032 16.4516V17.6129C9.29032 17.9516 9.53226 18.1935 9.87097 18.1935H14.129C14.4194 18.1935 14.7097 17.9516 14.7097 17.6129Z" fill="#333333"/>
</svg>
