<svg width="27" height="29" viewBox="0 0 27 29" fill="none" xmlns="http://www.w3.org/2000/svg">
<path d="M10.3645 12.6655L13.0159 11.1334L8.78569 8.63704L7.62211 9.30945L7.60822 12.398L8.77181 11.7256L10.3645 12.6655Z" fill="white"/>
<path d="M17.8062 14.6867L17.7923 17.7753L22.0546 15.312L22.0583 14.5149L19.421 12.9581L19.4174 13.7555L17.8062 14.6867Z" fill="white"/>
<path d="M11.8785 19.9022L9.24124 18.3461L9.21645 23.8691L10.3833 24.5579L13.0348 23.0255L11.8676 22.3371L11.8785 19.9022Z" fill="white"/>
<path d="M22.4036 11.2347L18.0018 8.63704L9.26237 13.6877L9.25873 14.4851L11.896 16.0416L11.8996 15.2441L17.9883 11.7256L24.0449 15.3L24.0132 22.3926L17.9245 25.9108L16.3318 24.9712L13.6804 26.5033L17.9106 29L26.6504 23.9494L26.696 13.7679L22.4036 11.2347Z" fill="white"/>
<path d="M16.3127 13.0791L13.6613 14.6112L14.8285 15.3L14.7967 22.3926L8.70807 25.9108L2.65146 22.3371L2.68319 15.2441L4.29404 14.3133L4.30792 11.2247L0.0456179 13.6877L0 23.8691L8.69419 29L17.434 23.9494L17.4796 13.7679L16.3127 13.0791Z" fill="white"/>
<path d="M13.4063 0L4.66622 5.05061L4.6206 15.2321L13.3148 20.3626L14.478 19.6905L14.4919 16.602L13.3287 17.2741L7.27206 13.7L7.30379 6.60709L13.3925 3.08855L19.4491 6.66293L19.4382 9.09779L22.0754 10.6539L22.1002 5.13086L13.4063 0Z" fill="white"/>
</svg>
