<svg width="110" height="23" viewBox="0 0 110 23" fill="none" xmlns="http://www.w3.org/2000/svg">
<path d="M4.3691 19.9926H10.6022L10.8199 16.8353H12.2353V20.6187C12.2353 21.1812 11.954 21.4624 11.3915 21.4624H0.50405V20.0471L2.19161 19.8565V3.22592L0.50405 3.00817V1.5928H6.60104V3.00817L4.3691 3.22592V19.9926Z" fill="white"/>
<path d="M27.235 14.1406H16.5108C16.5108 16.1548 17.0189 17.7244 18.035 18.8494C18.8335 19.7386 19.9222 20.1832 21.3013 20.1832C22.6985 20.1832 24.1955 19.7749 25.7924 18.9583L26.4728 20.537C24.6401 21.408 23.007 21.8435 21.5735 21.8435C20.1581 21.8435 18.9877 21.6167 18.0623 21.163C17.155 20.6912 16.4382 20.0652 15.912 19.2849C14.8958 17.7063 14.3877 15.9189 14.3877 13.9229C14.3877 11.6002 14.8777 9.64953 15.8575 8.07085C16.3656 7.27243 17.0552 6.6464 17.9262 6.19276C18.8153 5.73911 19.8496 5.51229 21.0291 5.51229C22.9707 5.51229 24.4859 6.17461 25.5746 7.49925C26.6815 8.8239 27.235 10.5931 27.235 12.8069V14.1406ZM25.0847 12.6164C25.0847 10.9651 24.7218 9.64953 23.9959 8.66966C23.2701 7.67164 22.2267 7.17263 20.8658 7.17263C19.5048 7.17263 18.4796 7.68978 17.7901 8.72409C17.1005 9.7584 16.6923 11.0558 16.5652 12.6164H25.0847Z" fill="white"/>
<path d="M39.9523 18.7678V18.3867C38.7728 20.6912 36.9219 21.8435 34.3997 21.8435C33.1839 21.8435 32.2131 21.4715 31.4873 20.7275C30.7614 19.9836 30.3985 18.9674 30.3985 17.679C30.3985 15.9189 31.1244 14.5943 32.576 13.7051C34.0277 12.816 36.4864 12.3714 39.9523 12.3714V11.2282C39.9523 9.66767 39.671 8.59707 39.1085 8.01641C38.546 7.43574 37.6296 7.14541 36.3594 7.14541C35.1074 7.14541 33.7011 7.58091 32.1405 8.45191L31.4328 6.81879C33.3018 5.94779 35.0801 5.51229 36.7677 5.51229C39.3988 5.51229 41.041 6.43772 41.6943 8.28859C41.9665 9.05072 42.1026 9.97615 42.1026 11.0649V18.5228C42.1026 19.5208 42.4836 20.0198 43.2457 20.0198C43.4998 20.0198 43.8718 19.9654 44.3617 19.8565L44.6067 21.4897C43.899 21.7256 43.2095 21.8435 42.5381 21.8435C40.8142 21.8435 39.9523 20.8183 39.9523 18.7678ZM39.9523 13.7596C34.944 13.7596 32.4399 15.0116 32.4399 17.5157C32.4399 18.3504 32.6667 19.0037 33.1204 19.4755C33.5922 19.9291 34.2454 20.1559 35.0801 20.1559C36.3866 20.1559 37.5117 19.6297 38.4553 18.5773C39.3988 17.5248 39.8978 16.0278 39.9523 14.0862V13.7596Z" fill="white"/>
<path d="M56.439 0.50405H59.4058C59.9865 0.50405 60.2587 0.78531 60.2224 1.34783V18.5228C60.2224 19.5208 60.6125 20.0198 61.3928 20.0198C61.7194 20.0198 62.1005 19.9654 62.536 19.8565L62.7809 21.4897C62.0732 21.7256 61.3746 21.8435 60.6851 21.8435C59.1245 21.8435 58.2626 21.0269 58.0993 19.3938C56.9017 21.0269 55.4047 21.8435 53.6082 21.8435C52.5739 21.8435 51.6576 21.5985 50.8591 21.1086C50.0789 20.6187 49.4801 19.9745 49.0627 19.1761C48.2099 17.5611 47.7834 15.7284 47.7834 13.6779C47.7834 11.573 48.1736 9.74933 48.9538 8.20694C49.3893 7.37223 50.0335 6.71898 50.8864 6.24719C51.7392 5.75726 52.8189 5.51229 54.1254 5.51229C55.45 5.51229 56.7656 5.84799 58.0721 6.51938V2.13717L56.439 1.91942V0.50405ZM54.3431 7.17263C51.4035 7.17263 49.9337 9.34105 49.9337 13.6779C49.9337 15.4199 50.2059 16.8988 50.7503 18.1145C51.0406 18.7678 51.467 19.2849 52.0295 19.666C52.6102 20.0289 53.2907 20.2104 54.0709 20.2104C55.6496 20.2104 56.9833 19.3847 58.0721 17.7335V8.09806C56.9471 7.48111 55.7041 7.17263 54.3431 7.17263Z" fill="white"/>
<path d="M71.5847 11.7454H73.1906C74.606 11.7454 75.6675 11.3825 76.3752 10.6566C77.0829 9.91264 77.4367 8.85111 77.4367 7.47203C77.4367 6.07481 77.0829 4.99513 76.3752 4.23301C75.6675 3.47089 74.606 3.08983 73.1906 3.08983H70.006V19.8565L72.3741 20.0471V21.4624H66.141V20.0471L67.8285 19.8565V3.22592L66.141 3.00817V1.5928H73.1906C75.2592 1.5928 76.8379 2.10088 77.9267 3.11704C79.0154 4.13321 79.5598 5.58487 79.5598 7.47203C79.5598 10.3572 78.3168 12.1718 75.8308 12.9158C76.7381 13.3331 77.3914 14.0136 77.7906 14.9572L79.9136 19.8565L81.6284 20.0471V21.4624H78.9882C78.5164 21.4624 78.1898 21.2538 78.0083 20.8364L75.6403 15.2566C75.2955 14.44 74.8873 13.9047 74.4155 13.6507C73.9618 13.3785 73.2178 13.2424 72.1835 13.2424H71.5847V11.7454Z" fill="white"/>
<path d="M84.1978 11.5276C84.1978 8.22508 84.8965 5.68467 86.2937 3.90639C87.7091 2.10995 89.6507 1.21174 92.1185 1.21174C94.6045 1.21174 96.5551 2.10995 97.9705 3.90639C99.3859 5.68467 100.094 8.22508 100.094 11.5276C100.094 14.8302 99.3859 17.3796 97.9705 19.1761C96.5551 20.9544 94.6045 21.8435 92.1185 21.8435C89.6507 21.8435 87.7091 20.9544 86.2937 19.1761C84.8965 17.3796 84.1978 14.8302 84.1978 11.5276ZM97.9161 11.5276C97.9161 8.75131 97.3989 6.61918 96.3646 5.13123C95.3484 3.62513 93.9331 2.87208 92.1185 2.87208C90.322 2.87208 88.9067 3.62513 87.8724 5.13123C86.8562 6.61918 86.3481 8.75131 86.3481 11.5276C86.3481 14.3039 86.8562 16.4451 87.8724 17.9512C88.9067 19.4392 90.322 20.1832 92.1185 20.1832C93.9331 20.1832 95.3484 19.4392 96.3646 17.9512C97.3989 16.4451 97.9161 14.3039 97.9161 11.5276Z" fill="white"/>
<path d="M109.496 21.4624H103.943V20.0471L105.631 19.8565V3.22592L103.943 3.00817V1.5928H109.496V3.00817L107.808 3.22592V19.8565L109.496 20.0471V21.4624Z" fill="white"/>
<path d="M4.3691 19.9926H10.6022L10.8199 16.8353H12.2353V20.6187C12.2353 21.1812 11.954 21.4624 11.3915 21.4624H0.50405V20.0471L2.19161 19.8565V3.22592L0.50405 3.00817V1.5928H6.60104V3.00817L4.3691 3.22592V19.9926Z" stroke="white"/>
<path d="M27.235 14.1406H16.5108C16.5108 16.1548 17.0189 17.7244 18.035 18.8494C18.8335 19.7386 19.9222 20.1832 21.3013 20.1832C22.6985 20.1832 24.1955 19.7749 25.7924 18.9583L26.4728 20.537C24.6401 21.408 23.007 21.8435 21.5735 21.8435C20.1581 21.8435 18.9877 21.6167 18.0623 21.163C17.155 20.6912 16.4382 20.0652 15.912 19.2849C14.8958 17.7063 14.3877 15.9189 14.3877 13.9229C14.3877 11.6002 14.8777 9.64953 15.8575 8.07085C16.3656 7.27243 17.0552 6.6464 17.9262 6.19276C18.8153 5.73911 19.8496 5.51229 21.0291 5.51229C22.9707 5.51229 24.4859 6.17461 25.5746 7.49925C26.6815 8.8239 27.235 10.5931 27.235 12.8069V14.1406ZM25.0847 12.6164C25.0847 10.9651 24.7218 9.64953 23.9959 8.66966C23.2701 7.67164 22.2267 7.17263 20.8658 7.17263C19.5048 7.17263 18.4796 7.68978 17.7901 8.72409C17.1005 9.7584 16.6923 11.0558 16.5652 12.6164H25.0847Z" stroke="white"/>
<path d="M39.9523 18.7678V18.3867C38.7728 20.6912 36.9219 21.8435 34.3997 21.8435C33.1839 21.8435 32.2131 21.4715 31.4873 20.7275C30.7614 19.9836 30.3985 18.9674 30.3985 17.679C30.3985 15.9189 31.1244 14.5943 32.576 13.7051C34.0277 12.816 36.4864 12.3714 39.9523 12.3714V11.2282C39.9523 9.66767 39.671 8.59707 39.1085 8.01641C38.546 7.43574 37.6296 7.14541 36.3594 7.14541C35.1074 7.14541 33.7011 7.58091 32.1405 8.45191L31.4328 6.81879C33.3018 5.94779 35.0801 5.51229 36.7677 5.51229C39.3988 5.51229 41.041 6.43772 41.6943 8.28859C41.9665 9.05072 42.1026 9.97615 42.1026 11.0649V18.5228C42.1026 19.5208 42.4836 20.0198 43.2457 20.0198C43.4998 20.0198 43.8718 19.9654 44.3617 19.8565L44.6067 21.4897C43.899 21.7256 43.2095 21.8435 42.5381 21.8435C40.8142 21.8435 39.9523 20.8183 39.9523 18.7678ZM39.9523 13.7596C34.944 13.7596 32.4399 15.0116 32.4399 17.5157C32.4399 18.3504 32.6667 19.0037 33.1204 19.4755C33.5922 19.9291 34.2454 20.1559 35.0801 20.1559C36.3866 20.1559 37.5117 19.6297 38.4553 18.5773C39.3988 17.5248 39.8978 16.0278 39.9523 14.0862V13.7596Z" stroke="white"/>
<path d="M56.439 0.50405H59.4058C59.9865 0.50405 60.2587 0.78531 60.2224 1.34783V18.5228C60.2224 19.5208 60.6125 20.0198 61.3928 20.0198C61.7194 20.0198 62.1005 19.9654 62.536 19.8565L62.7809 21.4897C62.0732 21.7256 61.3746 21.8435 60.6851 21.8435C59.1245 21.8435 58.2626 21.0269 58.0993 19.3938C56.9017 21.0269 55.4047 21.8435 53.6082 21.8435C52.5739 21.8435 51.6576 21.5985 50.8591 21.1086C50.0789 20.6187 49.4801 19.9745 49.0627 19.1761C48.2099 17.5611 47.7834 15.7284 47.7834 13.6779C47.7834 11.573 48.1736 9.74933 48.9538 8.20694C49.3893 7.37223 50.0335 6.71898 50.8864 6.24719C51.7392 5.75726 52.8189 5.51229 54.1254 5.51229C55.45 5.51229 56.7656 5.84799 58.0721 6.51938V2.13717L56.439 1.91942V0.50405ZM54.3431 7.17263C51.4035 7.17263 49.9337 9.34105 49.9337 13.6779C49.9337 15.4199 50.2059 16.8988 50.7503 18.1145C51.0406 18.7678 51.467 19.2849 52.0295 19.666C52.6102 20.0289 53.2907 20.2104 54.0709 20.2104C55.6496 20.2104 56.9833 19.3847 58.0721 17.7335V8.09806C56.9471 7.48111 55.7041 7.17263 54.3431 7.17263Z" stroke="white"/>
<path d="M71.5847 11.7454H73.1906C74.606 11.7454 75.6675 11.3825 76.3752 10.6566C77.0829 9.91264 77.4367 8.85111 77.4367 7.47203C77.4367 6.07481 77.0829 4.99513 76.3752 4.23301C75.6675 3.47089 74.606 3.08983 73.1906 3.08983H70.006V19.8565L72.3741 20.0471V21.4624H66.141V20.0471L67.8285 19.8565V3.22592L66.141 3.00817V1.5928H73.1906C75.2592 1.5928 76.8379 2.10088 77.9267 3.11704C79.0154 4.13321 79.5598 5.58487 79.5598 7.47203C79.5598 10.3572 78.3168 12.1718 75.8308 12.9158C76.7381 13.3331 77.3914 14.0136 77.7906 14.9572L79.9136 19.8565L81.6284 20.0471V21.4624H78.9882C78.5164 21.4624 78.1898 21.2538 78.0083 20.8364L75.6403 15.2566C75.2955 14.44 74.8873 13.9047 74.4155 13.6507C73.9618 13.3785 73.2178 13.2424 72.1835 13.2424H71.5847V11.7454Z" stroke="white"/>
<path d="M84.1978 11.5276C84.1978 8.22508 84.8965 5.68467 86.2937 3.90639C87.7091 2.10995 89.6507 1.21174 92.1185 1.21174C94.6045 1.21174 96.5551 2.10995 97.9705 3.90639C99.3859 5.68467 100.094 8.22508 100.094 11.5276C100.094 14.8302 99.3859 17.3796 97.9705 19.1761C96.5551 20.9544 94.6045 21.8435 92.1185 21.8435C89.6507 21.8435 87.7091 20.9544 86.2937 19.1761C84.8965 17.3796 84.1978 14.8302 84.1978 11.5276ZM97.9161 11.5276C97.9161 8.75131 97.3989 6.61918 96.3646 5.13123C95.3484 3.62513 93.9331 2.87208 92.1185 2.87208C90.322 2.87208 88.9067 3.62513 87.8724 5.13123C86.8562 6.61918 86.3481 8.75131 86.3481 11.5276C86.3481 14.3039 86.8562 16.4451 87.8724 17.9512C88.9067 19.4392 90.322 20.1832 92.1185 20.1832C93.9331 20.1832 95.3484 19.4392 96.3646 17.9512C97.3989 16.4451 97.9161 14.3039 97.9161 11.5276Z" stroke="white"/>
<path d="M109.496 21.4624H103.943V20.0471L105.631 19.8565V3.22592L103.943 3.00817V1.5928H109.496V3.00817L107.808 3.22592V19.8565L109.496 20.0471V21.4624Z" stroke="white"/>
</svg>
