<svg width="24" height="24" viewBox="0 0 24 24" fill="none" xmlns="http://www.w3.org/2000/svg">
<path d="M9.82812 15.5625L9.35938 18.0938C9.26562 18.5625 9.78125 18.9375 10.2031 18.7031L12.4531 17.4844L14.75 18.7031C15.1719 18.9375 15.6406 18.5625 15.5938 18.0938L15.125 15.5625L17 13.7344C17.3281 13.4062 17.1406 12.8438 16.6719 12.7969L14.1406 12.4219L12.9688 10.0781C12.7812 9.65625 12.1719 9.65625 11.9844 10.0781L10.8125 12.4219L8.23438 12.7969C7.8125 12.8438 7.625 13.4062 7.95312 13.7344L9.82812 15.5625ZM20.75 3H18.5V0.75C18.5 0.375 18.125 0 17.75 0H16.25C15.8281 0 15.5 0.375 15.5 0.75V3H9.5V0.75C9.5 0.375 9.125 0 8.75 0H7.25C6.82812 0 6.5 0.375 6.5 0.75V3H4.25C2.98438 3 2 4.03125 2 5.25V21.75C2 23.0156 2.98438 24 4.25 24H20.75C21.9688 24 23 23.0156 23 21.75V5.25C23 4.03125 21.9688 3 20.75 3ZM20.75 21.4688C20.75 21.6562 20.6094 21.75 20.4688 21.75H4.53125C4.34375 21.75 4.25 21.6562 4.25 21.4688V7.5H20.75V21.4688Z" fill="#333333"/>
</svg>
