<svg width="24" height="24" viewBox="0 0 24 24" fill="none" xmlns="http://www.w3.org/2000/svg">
<path d="M8.9375 13.5C9.21875 13.5 9.5 13.2656 9.5 12.9375V11.0625C9.5 10.7812 9.21875 10.5 8.9375 10.5H7.0625C6.73438 10.5 6.5 10.7812 6.5 11.0625V12.9375C6.5 13.2656 6.73438 13.5 7.0625 13.5H8.9375ZM14 12.9375V11.0625C14 10.7812 13.7188 10.5 13.4375 10.5H11.5625C11.2344 10.5 11 10.7812 11 11.0625V12.9375C11 13.2656 11.2344 13.5 11.5625 13.5H13.4375C13.7188 13.5 14 13.2656 14 12.9375ZM18.5 12.9375V11.0625C18.5 10.7812 18.2188 10.5 17.9375 10.5H16.0625C15.7344 10.5 15.5 10.7812 15.5 11.0625V12.9375C15.5 13.2656 15.7344 13.5 16.0625 13.5H17.9375C18.2188 13.5 18.5 13.2656 18.5 12.9375ZM14 17.4375V15.5625C14 15.2812 13.7188 15 13.4375 15H11.5625C11.2344 15 11 15.2812 11 15.5625V17.4375C11 17.7656 11.2344 18 11.5625 18H13.4375C13.7188 18 14 17.7656 14 17.4375ZM9.5 17.4375V15.5625C9.5 15.2812 9.21875 15 8.9375 15H7.0625C6.73438 15 6.5 15.2812 6.5 15.5625V17.4375C6.5 17.7656 6.73438 18 7.0625 18H8.9375C9.21875 18 9.5 17.7656 9.5 17.4375ZM18.5 17.4375V15.5625C18.5 15.2812 18.2188 15 17.9375 15H16.0625C15.7344 15 15.5 15.2812 15.5 15.5625V17.4375C15.5 17.7656 15.7344 18 16.0625 18H17.9375C18.2188 18 18.5 17.7656 18.5 17.4375ZM23 5.25C23 4.03125 21.9688 3 20.75 3H18.5V0.5625C18.5 0.28125 18.2188 0 17.9375 0H16.0625C15.7344 0 15.5 0.28125 15.5 0.5625V3H9.5V0.5625C9.5 0.28125 9.21875 0 8.9375 0H7.0625C6.73438 0 6.5 0.28125 6.5 0.5625V3H4.25C2.98438 3 2 4.03125 2 5.25V21.75C2 23.0156 2.98438 24 4.25 24H20.75C21.9688 24 23 23.0156 23 21.75V5.25ZM20.75 21.4688C20.75 21.6562 20.6094 21.75 20.4688 21.75H4.53125C4.34375 21.75 4.25 21.6562 4.25 21.4688V7.5H20.75V21.4688Z" fill="#333333"/>
</svg>
