<svg width="24" height="24" viewBox="0 0 24 24" fill="none" xmlns="http://www.w3.org/2000/svg">
<path d="M20.25 3H18V0.5625C18 0.28125 17.7188 0 17.4375 0H15.5625C15.2344 0 15 0.28125 15 0.5625V3H9V0.5625C9 0.28125 8.71875 0 8.4375 0H6.5625C6.23438 0 6 0.28125 6 0.5625V3H3.75C2.48438 3 1.5 4.03125 1.5 5.25V21.75C1.5 23.0156 2.48438 24 3.75 24H20.25C21.4688 24 22.5 23.0156 22.5 21.75V5.25C22.5 4.03125 21.4688 3 20.25 3ZM19.9688 21.75H4.03125C3.84375 21.75 3.75 21.6562 3.75 21.4688V7.5H20.25V21.4688C20.25 21.6562 20.1094 21.75 19.9688 21.75Z" fill="#333333"/>
</svg>
